/* XPM */
static char const *brokenimage_xpm[] = {
"64 64 551 2",
"  	c #FFFFFF",
". 	c #FFF7F7",
"+ 	c #FEC2C2",
"@ 	c #FD6565",
"# 	c #FC3232",
"$ 	c #FC1414",
"% 	c #FC0D0D",
"& 	c #FC1D1D",
"* 	c #FD4545",
"= 	c #FD8484",
"- 	c #FFDDDD",
"; 	c #FFFEFE",
"> 	c #FFF4F4",
", 	c #FFE0E0",
"' 	c #FED4D4",
") 	c #FED0D0",
"! 	c #FED6D6",
"~ 	c #FFE4E4",
"{ 	c #FFF8F8",
"] 	c #FFFBFB",
"^ 	c #FEB9B9",
"/ 	c #FC3030",
"( 	c #FC0A0A",
"_ 	c #FC1919",
": 	c #FD7777",
"< 	c #FFEFEF",
"[ 	c #FE9B9B",
"} 	c #FD4A4A",
"| 	c #FC0E0E",
"1 	c #FC2A2A",
"2 	c #FD6969",
"3 	c #FFF1F1",
"4 	c #FEB4B4",
"5 	c #FC2727",
"6 	c #FEB2B2",
"7 	c #FD7070",
"8 	c #FC1818",
"9 	c #FE8B8B",
"0 	c #FFFDFD",
"a 	c #FECDCD",
"b 	c #FC2D2D",
"c 	c #FC1616",
"d 	c #FD6A6A",
"e 	c #FD7272",
"f 	c #FFDADA",
"g 	c #FD3A3A",
"h 	c #FD4444",
"i 	c #FD6464",
"j 	c #FECECE",
"k 	c #FC0C0C",
"l 	c #FD3F3F",
"m 	c #FEC1C1",
"n 	c #FD7D7D",
"o 	c #FC1010",
"p 	c #FC1F1F",
"q 	c #FE9999",
"r 	c #FC1515",
"s 	c #FC2222",
"t 	c #FFEAEA",
"u 	c #FECCCC",
"v 	c #FC1111",
"w 	c #FE8787",
"x 	c #FEC8C8",
"y 	c #FC2626",
"z 	c #FD5252",
"A 	c #FED5D5",
"B 	c #FD5B5B",
"C 	c #FFE5E5",
"D 	c #FD3D3D",
"E 	c #FD3636",
"F 	c #FD7878",
"G 	c #060606",
"H 	c #FC3131",
"I 	c #FEADAD",
"J 	c #E9E9E9",
"K 	c #191919",
"L 	c #E5E5E5",
"M 	c #1C1C1C",
"N 	c #FD4F4F",
"O 	c #FC2323",
"P 	c #FD6868",
"Q 	c #FE8686",
"R 	c #FFE3E3",
"S 	c #BBBBBB",
"T 	c #454545",
"U 	c #B7B7B7",
"V 	c #4A4A4A",
"W 	c #FE9595",
"X 	c #FC1C1C",
"Y 	c #FE9E9E",
"Z 	c #FFEBEB",
"` 	c #E37F7F",
" .	c #1A0707",
"..	c #FC1313",
"+.	c #FD7171",
"@.	c #8D7F7F",
"#.	c #727272",
"$.	c #898989",
"%.	c #776666",
"&.	c #FC1212",
"*.	c #FE9292",
"=.	c #ACA2A2",
"-.	c #523636",
";.	c #FC2F2F",
">.	c #FC0B0B",
",.	c #5F2626",
"'.	c #A09595",
").	c #5B4747",
"!.	c #A31E1E",
"~.	c #FD7B7B",
"{.	c #747474",
"].	c #8A8888",
"^.	c #FD4343",
"/.	c #EB0A0A",
"(.	c #140606",
"_.	c #B60909",
":.	c #3F0707",
"<.	c #0F0606",
"[.	c #190606",
"}.	c #9C0808",
"|.	c #310707",
"1.	c #CC4242",
"2.	c #FEBEBE",
"3.	c #FDF2F2",
"4.	c #8C8C8C",
"5.	c #A8A8A8",
"6.	c #EAEAEA",
"7.	c #686868",
"8.	c #0C0C0C",
"9.	c #444444",
"0.	c #E0E0E0",
"a.	c #575757",
"b.	c #111111",
"c.	c #1F1F1F",
"d.	c #A47F7F",
"e.	c #2D0D0D",
"f.	c #D00909",
"g.	c #FD5353",
"h.	c #FFEDED",
"i.	c #3D3D3D",
"j.	c #C2C2C2",
"k.	c #FFE8E8",
"l.	c #C70909",
"m.	c #370707",
"n.	c #0C0606",
"o.	c #5D0707",
"p.	c #DB0909",
"q.	c #F80A0A",
"r.	c #AB0909",
"s.	c #F60A0A",
"t.	c #F40C0C",
"u.	c #DE3333",
"v.	c #412A2A",
"w.	c #464141",
"x.	c #E4E4E4",
"y.	c #EFEFEF",
"z.	c #2C2C2C",
"A.	c #7A7A7A",
"B.	c #F1F1F1",
"C.	c #7D7D7D",
"D.	c #EEEEEE",
"E.	c #2E2E2E",
"F.	c #989898",
"G.	c #F2F2F2",
"H.	c #E2C7C7",
"I.	c #4A1313",
"J.	c #F70A0A",
"K.	c #FFDBDB",
"L.	c #F8F8F8",
"M.	c #F5F5F5",
"N.	c #A30E0E",
"O.	c #5A0707",
"P.	c #A30909",
"Q.	c #340707",
"R.	c #FA0A0A",
"S.	c #E60A0A",
"T.	c #CF0909",
"U.	c #2E0707",
"V.	c #A00909",
"W.	c #1B0606",
"X.	c #8F0F0F",
"Y.	c #FD8888",
"Z.	c #757575",
"`.	c #676767",
" +	c #0B0B0B",
".+	c #828282",
"++	c #FD6767",
"@+	c #B40909",
"#+	c #320707",
"$+	c #C7C7C7",
"%+	c #393939",
"&+	c #814545",
"*+	c #7E0E0E",
"=+	c #810808",
"-+	c #7E0808",
";+	c #BA0909",
">+	c #420707",
",+	c #A20909",
"'+	c #3C0707",
")+	c #940808",
"!+	c #232121",
"~+	c #181818",
"{+	c #232323",
"]+	c #FE8E8E",
"^+	c #FC0F0F",
"/+	c #920808",
"(+	c #600707",
"_+	c #FEBDBD",
":+	c #909090",
"<+	c #707070",
"[+	c #5E5B5B",
"}+	c #A26D6D",
"|+	c #FC2828",
"1+	c #A10909",
"2+	c #840808",
"3+	c #770808",
"4+	c #750808",
"5+	c #880808",
"6+	c #C10909",
"7+	c #1A0606",
"8+	c #C40909",
"9+	c #0B0808",
"0+	c #F7C9C9",
"a+	c #0A0A0A",
"b+	c #F3F2F2",
"c+	c #300707",
"d+	c #8C0808",
"e+	c #FD7A7A",
"f+	c #585858",
"g+	c #A9A9A9",
"h+	c #3B3B3B",
"i+	c #C6C6C6",
"j+	c #3A0808",
"k+	c #4E0707",
"l+	c #AD0909",
"m+	c #490707",
"n+	c #B80909",
"o+	c #CE0909",
"p+	c #3D0707",
"q+	c #7C2121",
"r+	c #E9B1B1",
"s+	c #FAF2F2",
"t+	c #D5D5D5",
"u+	c #737373",
"v+	c #323232",
"w+	c #7C6161",
"x+	c #F11717",
"y+	c #DD0A0A",
"z+	c #0B0606",
"A+	c #B90909",
"B+	c #FFE7E7",
"C+	c #202020",
"D+	c #1E1E1E",
"E+	c #171717",
"F+	c #170F0F",
"G+	c #E70F0F",
"H+	c #E20A0A",
"I+	c #AE0909",
"J+	c #1E0606",
"K+	c #D50909",
"L+	c #500707",
"M+	c #140707",
"N+	c #0C0A0A",
"O+	c #393737",
"P+	c #AAAAAA",
"Q+	c #C7ABAB",
"R+	c #2C0D0D",
"S+	c #170606",
"T+	c #FD3434",
"U+	c #FEC4C4",
"V+	c #FFE1E1",
"W+	c #FC2C2C",
"X+	c #FC1A1A",
"Y+	c #FD6161",
"Z+	c #FFD8D8",
"`+	c #FC2929",
" @	c #FE9C9C",
".@	c #FD3939",
"+@	c #FD4646",
"@@	c #FE8484",
"#@	c #FC2424",
"$@	c #FD5959",
"%@	c #FE8585",
"&@	c #FD8282",
"*@	c #FD4747",
"=@	c #1B1B1B",
"-@	c #FEB5B5",
";@	c #FD3737",
">@	c #FFDEDE",
",@	c #ACACAC",
"'@	c #525252",
")@	c #FEA5A5",
"!@	c #8A8A8A",
"~@	c #EDEDED",
"{@	c #151515",
"]@	c #A0A0A0",
"^@	c #252525",
"/@	c #121212",
"(@	c #8F8F8F",
"_@	c #5D5D5D",
":@	c #131313",
"<@	c #9F9F9F",
"[@	c #F0F0F0",
"}@	c #1D1D1D",
"|@	c #0C0B0B",
"1@	c #3B1B1B",
"2@	c #C90D0D",
"3@	c #400707",
"4@	c #0D0606",
"5@	c #B20909",
"6@	c #E70A0A",
"7@	c #660808",
"8@	c #1C0606",
"9@	c #440707",
"0@	c #C1C1C1",
"a@	c #C9C9C9",
"b@	c #7F7F7F",
"c@	c #F4F4F4",
"d@	c #0F0F0F",
"e@	c #474747",
"f@	c #A4A4A4",
"g@	c #9C9292",
"h@	c #2C1C1C",
"i@	c #FC1B1B",
"j@	c #E40A0A",
"k@	c #250707",
"l@	c #F40A0A",
"m@	c #D20909",
"n@	c #360707",
"o@	c #ED0A0A",
"p@	c #2C0707",
"q@	c #790808",
"r@	c #EE0A0A",
"s@	c #7C0808",
"t@	c #430707",
"u@	c #A5A5A5",
"v@	c #080808",
"w@	c #D9D9D9",
"x@	c #171616",
"y@	c #FEA0A0",
"z@	c #6D1515",
"A@	c #8D0808",
"B@	c #740808",
"C@	c #820808",
"D@	c #F50A0A",
"E@	c #FEC6C6",
"F@	c #383838",
"G@	c #808080",
"H@	c #C3C3C3",
"I@	c #3A3A3A",
"J@	c #BDBDBD",
"K@	c #434343",
"L@	c #2B2B2B",
"M@	c #0D0D0D",
"N@	c #242424",
"O@	c #211818",
"P@	c #E31010",
"Q@	c #B50909",
"R@	c #230606",
"S@	c #FD5151",
"T@	c #6F6F6F",
"U@	c #5E5E5E",
"V@	c #8B8B8B",
"W@	c #868686",
"X@	c #787878",
"Y@	c #404040",
"Z@	c #E1E1E1",
"`@	c #979797",
" #	c #555555",
".#	c #0A0808",
"+#	c #F30A0A",
"@#	c #FD4C4C",
"##	c #FFDFDF",
"$#	c #ABABAB",
"%#	c #4F4F4F",
"&#	c #AFAFAF",
"*#	c #FAFAFA",
"=#	c #939393",
"-#	c #161616",
";#	c #878181",
">#	c #2F0808",
",#	c #8A0808",
"'#	c #D30909",
")#	c #210606",
"!#	c #720808",
"~#	c #FD5C5C",
"{#	c #FFD7D7",
"]#	c #1A1A1A",
"^#	c #A3A3A3",
"/#	c #2D2D2D",
"(#	c #8E8E8E",
"_#	c #444343",
":#	c #B77272",
"<#	c #C00909",
"[#	c #0E0606",
"}#	c #460707",
"|#	c #7B0808",
"1#	c #550707",
"2#	c #380707",
"3#	c #A80909",
"4#	c #4B0707",
"5#	c #FD3333",
"6#	c #E90A0A",
"7#	c #760808",
"8#	c #730808",
"9#	c #580707",
"0#	c #FD8181",
"a#	c #FD7373",
"b#	c #F10A0A",
"c#	c #560707",
"d#	c #830808",
"e#	c #F20A0A",
"f#	c #FFF0F0",
"g#	c #4D0F0F",
"h#	c #B00909",
"i#	c #3B0707",
"j#	c #BD0909",
"k#	c #FEB3B3",
"l#	c #FEA9A9",
"m#	c #777777",
"n#	c #1D0606",
"o#	c #E00A0A",
"p#	c #E80A0A",
"q#	c #FEC5C5",
"r#	c #5B5B5B",
"s#	c #B8B8B8",
"t#	c #9E9E9E",
"u#	c #E6E6E6",
"v#	c #626262",
"w#	c #4B4B4B",
"x#	c #E3DCDC",
"y#	c #ED2B2B",
"z#	c #260707",
"A#	c #070606",
"B#	c #D81F1F",
"C#	c #614F4F",
"D#	c #1A1919",
"E#	c #E3E3E3",
"F#	c #E5E1E1",
"G#	c #191313",
"H#	c #FD5555",
"I#	c #E5C4C4",
"J#	c #D2D2D2",
"K#	c #DEDEDE",
"L#	c #FBFBFB",
"M#	c #ADADAD",
"N#	c #141414",
"O#	c #E7E7E7",
"P#	c #EBEBEB",
"Q#	c #7B7979",
"R#	c #423030",
"S#	c #BC0909",
"T#	c #CB0909",
"U#	c #E41717",
"V#	c #251919",
"W#	c #8A8989",
"X#	c #7B7B7B",
"Y#	c #4F4E4E",
"Z#	c #C30909",
"`#	c #EC0E0E",
" $	c #2E1919",
".$	c #989292",
"+$	c #E2E2E2",
"@$	c #353535",
"#$	c #FDFDFD",
"$$	c #696969",
"%$	c #838383",
"&$	c #F3A2A2",
"*$	c #0B0707",
"=$	c #890808",
"-$	c #7A0808",
";$	c #A70909",
">$	c #683737",
",$	c #837D7D",
"'$	c #797979",
")$	c #858585",
"!$	c #FC2121",
"~$	c #5E0707",
"{$	c #811010",
"]$	c #B6B6B6",
"^$	c #333333",
"/$	c #FEAAAA",
"($	c #E31C1C",
"_$	c #220606",
":$	c #7D0808",
"<$	c #1D1B1B",
"[$	c #222222",
"}$	c #FD7F7F",
"|$	c #7E0C0C",
"1$	c #E10A0A",
"2$	c #FC2E2E",
"3$	c #949494",
"4$	c #616161",
"5$	c #6C0808",
"6$	c #240606",
"7$	c #5F0707",
"8$	c #A12F2F",
"9$	c #6E6E6E",
"0$	c #391C1C",
"a$	c #A40909",
"b$	c #0A0606",
"c$	c #F00A0A",
"d$	c #FBFAFA",
"e$	c #313131",
"f$	c #806262",
"g$	c #F04040",
"h$	c #EA0C0C",
"i$	c #E50A0A",
"j$	c #3B1414",
"k$	c #C6A7A7",
"l$	c #ECECEC",
"m$	c #262626",
"n$	c #E8E8E8",
"o$	c #F9F9F9",
"p$	c #717171",
"q$	c #0D0C0C",
"r$	c #C94242",
"s$	c #3A0707",
"t$	c #5B4545",
"u$	c #BCBCBC",
"v$	c #DE7272",
"w$	c #460E0E",
"x$	c #120606",
"y$	c #FD3838",
"z$	c #181313",
"A$	c #EAE9E9",
"B$	c #464646",
"C$	c #9B9B9B",
"D$	c #424242",
"E$	c #BEBEBE",
"F$	c #EDD8D8",
"G$	c #FD3C3C",
"H$	c #160606",
"I$	c #C50909",
"J$	c #A32020",
"K$	c #181515",
"L$	c #E9E8E8",
"M$	c #FC2B2B",
"N$	c #FD7E7E",
"O$	c #FC1717",
"P$	c #FEA4A4",
"Q$	c #FD3B3B",
"R$	c #FEC0C0",
"S$	c #FFDCDC",
"T$	c #FE9797",
"U$	c #FD4E4E",
"V$	c #FD4040",
"W$	c #FD4242",
"X$	c #FE9696",
"Y$	c #FE9898",
"Z$	c #FE9191",
"                                                                                                          . + @ # $ % & * = -   ",
"; > , ' ) ! ~ {                                                                                         ] ^ / ( ( ( ( ( ( _ : < ",
"~ [ } _ | 1 2 ^ 3                                                                                     ; 4 5 ( ( ( ( ( ( ( ( 5 6 ",
"7 ( ( ( ( ( ( 8 9 {                                                                                 0 a b ( ( ( ( ( ( ( ( ( c d ",
"( ( ( ( ( ( ( ( % e <                                                                             ; f g ( ( ( ( ( ( ( ( ( ( % h ",
"( ( ( ( ( ( ( ( ( % i j ]                                                                         , i ( ( ( ( ( ( ( ( ( ( ( k h ",
"( ( ( ( ( ( ( ( ( ( k l m .                                                                     > n o ( ( ( ( ( ( ( ( ( ( ( $ d ",
"( ( ( ( ( ( ( ( ( ( ( ( p [ >                                                                   q r ( ( ( ( ( ( ( ( ( ( ( ( s 6 ",
"( ( ( ( ( ( ( ( ( ( ( ( ( c n t                                                               u c ( ( ( ( ( ( ( ( ( ( ( ( | 2 < ",
"( ( ( ( ( ( ( ( ( ( ( ( ( ( v w t                                                           x y ( ( ( ( ( ( ( ( ( ( ( ( ( z A   ",
"$ ( ( ( ( ( ( ( ( ( ( ( ( ( ( % B C                                                       u D ( ( ( ( ( ( ( ( ( ( ( ( ( E ! ;   ",
"F ( ( ( ( ( ( ( ( ( G ( ( ( ( ( ( H I >   J K                                       L M < N k ( ( ( ( ( ( ( ( ( ( ( ( O a 0     ",
"3 P ( ( ( ( ( ( ( ( ( ( ( ( ( ( ( ( O Q R S T                                       U V W v ( ( ( ( ( ( ( ( ( ( ( ( X Y ;       ",
"  Z `  .( ( ( ( ( ( ( ( ( ( ( ( ( ( ( ..+.@.#.                                      $.%.& ( ( ( ( ( ( ( ( ( ( ( ( &.*.>         ",
"    =.-.;.>.( ( ( ( ( ( ( ( ( ( ( ( ( ( ( ,.'.                                      ).!.( ( ( ( ( ( ( ( ( ( ( ( ( ~.t           ",
"    {.].+ ^.k ( /.(.( ( /.(._.:.<.[.}.( ( |.1.2.3.4.M 5.6.7.M 8.9.0.      L a.b.c.d.e.f.( ( ( ( ( ( ( ( ( ( ( ( g.h.            ",
"    i.j.  k.i | l.m.( ( l.n.o.p.q.r.(.( s.<.t.u.v.w.x.y.z.A.6.B.C.9.    D.E.F.G.H.I.<.J.( ( ( ( ( ( ( ( ( ( ( h K.              ",
"  L.b.M.    t w N.O.( ( P.Q.R.( ( S.(.( T.U.V.W.X.Y.> Z.`.      L. +    Z..+  t ++@+#+( ( ( ( ( ( ( ( ( ( ( b m                 ",
"  $+%+        t &+*+( ( =+-+( ( ( ;+>+( ,+'+(.)+( ( d !+G G G G G ~+    {+x.> ]+^+/+(+( ( ( ( ( ( ( ( ( ( $ _+]                 ",
"  :+<+          [+}+|+( o.1+( ( ( 2+3+( 4+5+6+7+8+( ( 9+0+]             a+b+*...q.c+d+( ( ( ( ( ( ( ( ( ( e+.                   ",
"  f+g+          h+i+, ++j+8+( ( ( k+l+( m+_.( n+W.o+( p+q+r+s+t+u+L     v+w+x+y+O.z+A+( ( ( ( ( ( ( ( ( g B+                    ",
"  C+G G G G D+  E+6.  t F+G+( ( ( [.H+( W.H+( ( I+J+K+y+L+M+N+O+P+    ; Q+R+z+c+P.S+S.( ( ( ( ( ( ( ( T+U+                      ",
"                        > n &.( ( ( ( ( ( ( ( ( ( ( ( ( ( ( ..d V+    , i ( ( ( ( ( ( ( ( ( ( ( ( ( W+U+                        ",
"                          > ]+X+( ( ( ( ( ( ( ( ( ( ( ( ( ( ( ^+Y+Z+> n o ( ( ( ( ( ( ( ( ( ( ( ( `+Z+                          ",
"                            t  @.@k ( ( ( ( ( ( ( ( ( ( ( ( ( ( >.+@@@r ( ( ( ( ( ( ( ( ( ( ( ( #@I                             ",
"                              > 2.$@( ( ( ( ( ( ( ( ( ( ( ( ( ( ( ( k ( ( ( ( ( ( ( ( ( ( ( ( ..%@>                             ",
"                                  > &@( ( ( ( ( ( ( ( ( ( ( ( ( ( ( ( ( ( ( ( ( ( ( ( ( ( ( ( +.R                               ",
"                                    ] I X ( ( ( ( ( ( ( ( ( ( ( ( ( ( ( ( ( ( ( ( ( ( ( ( ( *@C                                 ",
"    x.=@                              . -@;@>.( ( ( ( ( ( ( ( ( ( ( ( ( ( ( ( ( ( ( ( ( ( 1 >@                                  ",
"    ,@'@                                ] + ^.k ( ( ( ( ( ( ( ( ( ( ( ( ( ( ( ( ( ( ( ( p )@                                    ",
"    {.!@  ~@{@]@^@/@(@L _@:@K <@      [@}@G |@1@2@( ( f.3@4@Q.5@J+( ( 6@7@8@n.9@y+( ( &.*.>                                     ",
"    i.0@  a@ +b@c@,@d@e@0@L.f@{@      <@5.B.B.g@h@i@j@k@r.l@m@n@L+( o@p@q@6@r@s@t@( ( ~.t                                       ",
"  L.b.M.  u@%+    B.v@w@    6.:@                x@y@z@A@( ( ( B@C@( B@7@( ( ( D@z+( p E@                                        ",
"  $+F@    .+G@    H@I@      J@K@    ~@{.L@M@G G N@] O@P@( ( ( o.Q@( R@G G G G G S+( >.S@k.                                      ",
"  :+T@    U@f@    V@#.      W@X@    Y@4.Z@L.  `@ #t .#+#( ( o@S+S.( z+D@( ( ( ( ( ( ( ( @###                                    ",
"  f+5.    h+$+    '@$#      %#&#    /@0@*#L =#-#;#*.>#,#+#'#t@)#( ( p+s@6@J.'#!#H+( ( ( ( ~#{#                                  ",
"  C+0.    E+6.    =@x.      ]#L     ^#{+8./#(#_#:#X <#k@[#}#|#1#( ( y+L+(.n.2#3#( ( ( ( ( >.* K.                                ",
"                                            0 a O ( ( ( ( ( 4#}.( ( ( ( ( ( ( ( ( ( ( ( ( ( ( 5#x                               ",
"                                          ; f g ( 6#B@o@6#7#U.D@( ( ( ( ( ( ( ( ( ( ( ( ( ( ( ( D u                             ",
"                                          , i ( ( q.8#(.(.9#H+( ( ( ( ( ( ( ( ( ( ( ( ( ( ( ( ( k *@C                           ",
"                                        > 0#v ( ( ( ( ( ( ( ( ( ( ( ( k ( ( ( ( ( ( ( ( ( ( ( ( ( ^+a#t                         ",
"                                      ] q 8 ( ( ( ( ( ( b#c#<.8@( ( O a#c ( ( ( ( ( ( ( ( ( ( ( ( ( &.]+>               L M     ",
"                                    . ^ p ( ( ( ( ( ( ( d#1#e#( ( &.= f#q r ( ( ( ( ( ( ( ( ( ( ( ( ( v w ]             U V     ",
"                                  ] -@g#h#( ( ( ( ( ( ( i#j#( ( ( i ,   ] k#p ( ( ( ( ( ( ( ( ( ( ( ( ( $ l#.           $.m#    ",
"                                ] -@/ n#o#( ( ( ( ( ( ( (.p#( ( g f ;     . 6 1 ( ( ( ( ( ( ( ( ( ( ( ( ( #@q#]         r#u@    ",
"  ~@{@s#Y@d@]#t#    u#v#]#M@w#x#m y#G G G G )+( ( ( ( z#G G A#B#C#D#M@w#E#  F#G##@( ( 6@S+( /.(._.:.<.[.}.( H#I#a.b.c.f@/#J#    ",
"  a@8.U@K#L#M#N#  O#^@!@P#G.Q#R#`+( S#m+( ( ( ( ( ( ( T#n@( U#V#W#P#G.X#K@  &#Y#_+O ( Z#i#( l.n.o.p.q.r.(.( `# $.$G.+$V d@*#    ",
"  u@@$#$    J N#  $$%$    { &$*$( ( =$-$( ( ( ( ( ( ( ;$O.o >$,$      c@ +  '$)$. Y !$V.~$( P.Q.R.( ( S.(.( B@{$)@    ]$^$      ",
"  .+b@      J@K@  }@O#  3 /$($_$( ( c#r.( ( ( ( ( ( ( d#:$i <$O#      u#[$  9.S   3 }$|$=+( =+-+( ( ( ;+>+( R@1$2$C   3$4$      ",
"  U@^#      W@X@   +c@k.7 v d#5$( ( 6$p.( ( ( ( ( ( ( 7$8$f  +c@      )$9$  {@J     R 0$a$( o.1+( ( ( 2+3+( b$c$( i d$e$(#      ",
"  h+i+      %#&#  _#f$g$h$=$z#i$( ( n.K+( ( ( ( ( ( >.j$k$0 9.G@G.l$V@m$n$  :@<@o$u#p$q$r$( s$8+( ( ( k+l+( |.|#b#y+t$ +u$      ",
"  E+6.      ]#L ~ v$w$n.S+o.1$( ( ( -+x$G Q@( ( ( ( y$z$A$  0.B$8.~+U@x.    C$]#d@D$E$N#F$G$H$6@( ( ( [.H+( I$p@z+c+J$K$L$      ",
"            Z W ;@^+( ( ( ( ( ( ( ( ( ( ( ( ( ( ( M$m ]                                   4 `+( ( ( ( ( ( ( ( ( ( ( ( N$h.      ",
"          ! ++8 ( ( ( ( ( ( ( ( ( ( ( ( ( ( ( >.;@-@.                                     > Q &.( ( ( ( ( ( ( ( ( ( ( O$P$]     ",
"        Z B ( ( ( ( ( ( ( ( ( ( ( ( ( ( ( ( ( E + ]                                         , i ( ( ( ( ( ( ( ( ( ( ( ( .@a     ",
"        y@( ( ( ( ( ( ( ( ( ( ( ( ( ( ( ( ( Q$K.                                            ; f 1 ( ( ( ( ( ( ( ( ( ( ( % Y+>   ",
"        *@( ( ( ( ( ( ( ( ( ( ( ( ( ( ( | g.)                                                 0 R$( ( ( ( ( ( ( ( ( ( ( ( v q   ",
"        c ( ( ( ( ( ( ( ( ( ( ( ( ( ( &.i S$                                                    ; i ( ( ( ( ( ( ( ( ( ( ( ( _ {#",
"        c ( ( ( ( ( ( ( ( ( ( ( ( ( p [ >                                                         C M$( ( ( ( ( ( ( ( ( ( ( ( *@",
"        *@( ( ( ( ( ( ( ( ( ( ( k l m .                                                             T$..( ( ( ( ( ( ( ( ( ( ( ( ",
"        y@( ( ( ( ( ( ( ( ( ( _ d j ]                                                               < U$>.( ( ( ( ( ( ( ( ( ( ( ",
"        Z B ( ( ( ( ( ( ( &.V$y@<                                                                     4 W+( ( ( ( ( ( ( ( ( ( ( ",
"          A 7 .@c ( v !$W$X$t                                                                         > Y$$ ( ( ( ( ( ( ( ( ( ( ",
"            t 4 Z$= Z$4 t                                                                               t ~.( ( ( ( ( ( ( ( ( ( "};
