<?xml version="1.0" encoding="UTF-8" standalone="no"?>
<svg
   xmlns:dc="http://purl.org/dc/elements/1.1/"
   xmlns:cc="http://creativecommons.org/ns#"
   xmlns:rdf="http://www.w3.org/1999/02/22-rdf-syntax-ns#"
   xmlns:svg="http://www.w3.org/2000/svg"
   xmlns="http://www.w3.org/2000/svg"
   xmlns:xlink="http://www.w3.org/1999/xlink"
   xmlns:sodipodi="http://sodipodi.sourceforge.net/DTD/sodipodi-0.dtd"
   xmlns:inkscape="http://www.inkscape.org/namespaces/inkscape"
   version="1.0"
   width="750"
   height="625"
   id="svg2"
   sodipodi:version="0.32"
   inkscape:version="0.45+devel"
   sodipodi:docname="about.pt_BR.svg"
   inkscape:output_extension="org.inkscape.output.svg.inkscape"
   style="display:inline;enable-background:new"
   inkscape:export-filename="about.pt_BR.png"
   inkscape:export-xdpi="90"
   inkscape:export-ydpi="90">
  <sodipodi:namedview
     inkscape:window-height="713"
     inkscape:window-width="1022"
     inkscape:pageshadow="2"
     inkscape:pageopacity="0.0"
     guidetolerance="10.0"
     gridtolerance="10.0"
     objecttolerance="10.0"
     borderopacity="1.0"
     bordercolor="#666666"
     pagecolor="#ffffff"
     id="base"
     showgrid="false"
     inkscape:showpageshadow="false"
     inkscape:zoom="0.70710678"
     inkscape:cx="294.30812"
     inkscape:cy="342.66329"
     inkscape:window-x="0"
     inkscape:window-y="25"
     inkscape:current-layer="layer4"
     showguides="false"
     inkscape:guide-bbox="true"
     borderlayer="false"
     showborder="false">
    <sodipodi:guide
       id="guide5798"
       position="268,300"
       orientation="0,1" />
    <sodipodi:guide
       id="guide5870"
       position="100,309"
       orientation="1,0" />
    <sodipodi:guide
       id="guide5872"
       position="650,364"
       orientation="1,0" />
  </sodipodi:namedview>
  <metadata
     id="metadata51">
    <rdf:RDF>
      <cc:Work
         rdf:about="">
        <dc:format>image/svg+xml</dc:format>
        <dc:type
           rdf:resource="http://purl.org/dc/dcmitype/StillImage" />
        <dc:title>Inkscape About Screen (0.46)</dc:title>
        <dc:date>2008-01-01</dc:date>
        <dc:creator>
          <cc:Agent>
            <dc:title>Sebastian Kraft</dc:title>
          </cc:Agent>
        </dc:creator>
        <dc:description>About Screen for Inkscape Version 0.46</dc:description>
        <dc:subject>
          <rdf:Bag>
            <rdf:li>inkscape</rdf:li>
            <rdf:li>about</rdf:li>
          </rdf:Bag>
        </dc:subject>
        <dc:contributor>
          <cc:Agent>
            <dc:title>Sebastian Kraft (needcoffee.deviantart.com, eska-art.de)</dc:title>
          </cc:Agent>
        </dc:contributor>
        <dc:rights>
          <cc:Agent>
            <dc:title />
          </cc:Agent>
        </dc:rights>
        <dc:publisher>
          <cc:Agent>
            <dc:title />
          </cc:Agent>
        </dc:publisher>
        <dc:identifier />
        <dc:source />
        <dc:relation />
        <dc:language />
        <dc:coverage />
        <cc:license
           rdf:resource="http://creativecommons.org/licenses/by-sa/3.0/" />
      </cc:Work>
      <cc:License
         rdf:about="http://creativecommons.org/licenses/by-sa/3.0/">
        <cc:permits
           rdf:resource="http://creativecommons.org/ns#Reproduction" />
        <cc:permits
           rdf:resource="http://creativecommons.org/ns#Distribution" />
        <cc:requires
           rdf:resource="http://creativecommons.org/ns#Notice" />
        <cc:requires
           rdf:resource="http://creativecommons.org/ns#Attribution" />
        <cc:permits
           rdf:resource="http://creativecommons.org/ns#DerivativeWorks" />
        <cc:requires
           rdf:resource="http://creativecommons.org/ns#ShareAlike" />
      </cc:License>
    </rdf:RDF>
  </metadata>
  <defs
     id="defs4">
    <inkscape:perspective
       sodipodi:type="inkscape:persp3d"
       inkscape:vp_x="-50 : 600 : 1"
       inkscape:vp_y="0 : 1000 : 0"
       inkscape:vp_z="700 : 600 : 1"
       inkscape:persp3d-origin="300 : 400 : 1"
       id="perspective2404" />
    <filter
       inkscape:collect="always"
       id="filter7383"
       x="-0.03777096"
       width="1.0755419"
       y="-0.1458158"
       height="1.2916316"
       inkscape:label="draw-free-drop">
      <feGaussianBlur
         inkscape:collect="always"
         stdDeviation="2"
         id="feGaussianBlur7385" />
    </filter>
  </defs>
  <style
     type="text/css"
     id="style26">
	.specularity {opacity:0.5}
	.low-specularity {opacity:0.25}
	.full-specularity {opacity:1}
	.black {fill:#000}
	.white {fill:#fff}
	.outline-big {opacity:0.1;fill:none}
	.outline-small {opacity:0.2;fill:none}
	.stroke-highlight {fill:none;opacity:0.2}
       	.bs 	{fill:#000;opacity:75}
	</style>
  <g
     inkscape:groupmode="layer"
     id="layer4"
     inkscape:label="background"
     style="display:inline">
    <image
       id="backgroundimport"
       sodipodi:absref="background.svg"
       xlink:href="backgound.svg"
       x="5.7103271"
       y="1.1230202"
       width="734.99194"
       height="622.82935" />
  </g>
  <g
     inkscape:groupmode="layer"
     id="layer1"
     inkscape:label="text">
    <use
       x="0"
       y="0"
       xlink:href="#text3223"
       id="use3229"
       width="750"
       height="625"
       style="opacity:0.4;fill:#000000;fill-opacity:1;fill-rule:nonzero;stroke:none;stroke-width:1pt;stroke-linecap:butt;stroke-linejoin:miter;marker:none;marker-start:none;marker-mid:none;marker-end:none;stroke-miterlimit:4;stroke-dasharray:none;stroke-dashoffset:0;stroke-opacity:1;visibility:visible;display:inline;overflow:visible;filter:url(#filter7383);enable-background:accumulate" />
    <path
       style="font-size:85.80355835px;font-style:normal;font-variant:normal;font-weight:normal;font-stretch:normal;text-align:start;line-height:125%;writing-mode:lr-tb;text-anchor:start;fill:#000000;fill-opacity:1;stroke:none;stroke-width:1px;stroke-linecap:butt;stroke-linejoin:miter;stroke-opacity:1;font-family:Excellentia;-inkscape-font-specification:Excellentia"
       d="M 168.1609,525.78549 C 160.94077,525.85993 156.78209,515.89476 150.59588,524.1201 C 136.49066,528.16151 147.43639,497.65146 157.64494,513.09091 C 164.45438,513.01524 176.48623,494.96608 174.02638,489.16814 C 163.43912,482.35232 132.31228,480.6052 132.04632,497.00274 C 137.9719,500.38149 153.52094,500.96642 136.82249,502.23978 C 120.61775,503.36073 127.67911,484.7838 139.66097,484.80048 C 152.46585,480.74687 166.99407,480.72545 178.92824,487.15712 C 182.91759,477.63876 207.88122,484.08893 192.96349,482.79991 C 184.40724,483.43986 176.20996,490.56192 187.89405,495.66206 C 200.81239,507.94209 189.47452,524.01838 174.44534,524.94755 C 172.54217,525.98412 170.12838,524.88298 168.1609,525.78548 M 173.10466,522.39188 C 186.89613,523.38101 193.95492,509.06342 185.21268,498.6367 C 177.15332,484.54128 173.60875,505.01485 167.1135,509.11076 C 157.88467,515.91893 162.92553,522.04403 173.10466,522.39188 z M 148.76292,521.93103 C 163.08184,520.75277 143.04169,507.09335 148.30207,521.51206 L 148.51155,521.76344 L 148.76293,521.93102 M 193.71764,486.86386 C 195.00735,483.87244 194.55332,487.82377 193.71763,486.86385 M 195.0583,486.23541 C 193.75039,484.44401 200.13403,484.40225 195.05831,486.2354 M 200.21155,527.33563 C 186.40043,523.76494 204.39288,502.16785 213.70215,507.68629 C 218.20039,521.97064 195.87819,512.18465 199.03845,522.2243 C 205.14798,526.38905 221.23199,520.84132 205.69996,526.37203 C 204.10508,528.21123 202.07061,526.73965 200.21155,527.33564 L 200.21155,527.33563 z M 205.23911,515.26953 C 217.15793,513.52495 206.25549,504.49309 204.06601,512.83953 C 204.63039,513.38802 204.08785,515.25292 205.2391,515.26952 M 203.68893,512.08539 C 203.97133,512.63778 204.3614,511.33431 203.68894,512.0854 M 215.21042,528.9696 C 208.70402,525.36855 213.41888,516.92318 216.38351,526.58151 C 225.34162,523.83764 213.52608,511.02857 224.26001,508.02146 C 240.93136,506.91823 215.95045,509.22217 223.54777,517.82519 C 225.35304,523.38416 220.66664,528.965 215.21042,528.9696 z M 230.71204,527.33563 C 216.90092,523.76494 234.89337,502.16785 244.20264,507.68629 C 248.70089,521.97064 226.37866,512.18465 229.53894,522.2243 C 235.64847,526.38905 251.73247,520.84132 236.20045,526.37203 C 234.60557,528.21123 232.5711,526.73965 230.71204,527.33564 L 230.71204,527.33563 z M 235.73959,515.26953 C 247.65841,513.52494 236.75599,504.49309 234.56649,512.83953 C 235.13086,513.38802 234.58834,515.25292 235.73959,515.26952 M 234.18942,512.08539 C 234.47183,512.63778 234.86186,511.33432 234.18943,512.0854 M 261.12872,527.71271 C 251.06661,525.19809 270.7539,504.46585 255.38894,517.7414 C 244.67829,527.38087 239.86087,526.36158 249.81673,515.60469 C 257.09237,507.73654 238.15264,515.50431 251.86964,508.60802 C 261.7037,505.58851 247.54133,523.20251 259.53667,511.95971 C 276.87441,500.06481 258.50899,519.1063 264.06146,525.78548 C 272.87668,523.99298 269.44897,527.70604 261.12872,527.71271 z M 268.67004,525.36652 C 274.00526,510.57255 286.7723,498.86354 294.47815,485.02041 C 289.85731,488.24428 277.05431,494.32437 290.62369,484.35007 C 307.24153,474.1897 290.10067,495.93798 285.42856,501.82081 C 280.02376,508.51388 271.49133,520.89888 284.21356,509.61352 C 300.48444,498.13767 281.1967,520.27496 286.85303,521.80533 C 276.24248,527.47206 285.06205,513.8231 286.89493,510.07438 C 279.33562,513.13586 275.50227,522.67328 268.67005,525.36652 L 268.67004,525.36652 z M 289.57629,526.12064 C 284.79567,515.98607 309.56146,502.53958 311.27856,510.36765 C 304.2161,514.72675 303.92885,522.79915 307.34031,524.19342 C 298.30515,526.21997 299.06151,521.26213 289.5763,526.12065 M 292.25766,522.89465 C 302.80486,523.56665 306.99668,502.67802 295.90263,515.85606 C 294.12734,517.27805 291.04245,520.45608 292.25766,522.89464 M 325.48138,527.71271 C 315.41929,525.19808 335.10656,504.46586 319.7416,517.7414 C 309.03096,527.38088 304.21354,526.36157 314.1694,515.60469 C 321.44504,507.73654 302.50531,515.5043 316.22231,508.60802 C 326.05637,505.5885 311.89401,523.20252 323.88933,511.95971 C 341.22709,500.06481 322.86165,519.1063 328.41413,525.78548 C 337.22934,523.99298 333.80165,527.70603 325.48139,527.71271 L 325.48138,527.71271 z M 349.78122,527.46133 C 337.69189,526.42883 352.40281,509.85836 340.77353,521.21879 C 330.72611,529.19548 329.74984,516.44242 338.42734,511.28937 C 349.18048,504.17197 359.98109,507.97284 364.36113,491.97519 C 366.14089,486.37901 378.30695,468.16199 378.94104,477.89804 C 370.72383,493.09009 356.90799,504.97732 349.36227,520.75793 C 350.17227,526.86906 365.27587,524.84295 350.70295,527.46133 L 349.78123,527.46133 M 335.78787,520.67413 C 343.92435,521.02026 357.55963,502.59838 341.73715,511.16368 C 338.82731,513.8479 336.10157,516.6893 335.78788,520.67413 L 335.78787,520.67413 z M 373.28503,482.04578 C 374.64479,482.49552 373.75781,480.25162 373.28504,482.04577 L 373.28503,482.04578 z M 359.83633,525.07324 C 351.61185,518.93422 366.97059,504.85172 375.21227,508.35663 C 386.90444,511.88862 373.35788,523.06049 367.25198,523.85825 C 364.71022,524.47908 362.56261,525.32603 359.83634,525.07324 L 359.83633,525.07324 z M 363.60699,522.34998 C 373.56358,524.13006 380.07289,505.37796 368.46697,513.55177 C 364.05963,511.1294 358.46408,521.07095 363.607,522.34998 L 363.60699,522.34998 z M 376.97192,518.70502 C 377.34002,518.705 377.36462,518.70502 376.97191,518.70501 M 434.70496,536.17575 C 422.89808,535.04547 422.95295,514.0739 410.57272,527.08426 C 401.83777,525.05773 412.27728,512.13412 418.07215,511.70833 C 424.3469,522.42882 431.36896,508.66055 436.92547,502.61684 C 427.50486,513.16909 412.41733,494.08787 423.05781,491.55623 C 420.43622,507.99318 442.81213,502.89373 446.14265,491.97519 C 448.43704,485.5931 466.84572,468.80482 462.39841,484.43386 C 454.80654,494.22599 441.72283,497.54209 434.91445,508.06336 C 430.43372,513.59515 419.09983,518.50001 426.95416,526.28823 C 430.0629,534.27689 443.96953,536.35863 445.80748,527.16806 C 444.09778,513.89196 440.11387,530.34279 438.14047,519.12397 C 449.45945,512.70754 452.73576,534.46395 440.0258,534.70938 C 438.51757,535.69974 436.43473,535.85577 434.70497,536.17575 M 411.24307,525.19894 C 421.39527,527.21456 420.5137,509.1482 413.0865,516.48451 C 411.28787,518.69882 409.29267,522.74963 411.24306,525.19893 M 445.34662,496.2067 C 451.13238,492.956 460.66808,488.12754 460.51307,480.24423 C 454.55925,480.03379 449.99237,492.48384 445.34662,496.20671 M 451.04453,525.03134 C 449.64256,519.6364 454.64982,508.7931 458.12497,506.30371 C 468.7788,505.58876 445.57791,524.30258 459.0048,521.0093 C 457.26079,523.51504 453.94544,524.83404 451.04451,525.03135 M 466.67181,498.80429 C 463.74015,485.51324 478.55446,494.23678 466.67181,498.80428 M 460.21979,525.91116 C 459.66184,521.89687 466.70738,511.48724 461.351,511.45695 C 474.85779,501.25404 459.79438,529.71664 473.29144,514.76676 C 477.51511,512.45735 493.50223,503.46107 491.30683,507.72819 C 479.47464,510.61517 470.58601,520.311 460.2198,525.91117 M 480.20432,525.70169 C 478.28553,522.19524 496.10139,511.16073 488.96062,511.87592 C 476.58682,518.45899 489.40021,508.23819 495.11937,507.72819 C 490.10124,516.71565 508.73666,503.63145 499.76986,514.85055 C 494.24907,509.21167 487.64036,523.53691 480.2043,525.70169 M 500.14691,525.03134 C 498.74504,519.63633 503.75222,508.79311 507.22739,506.30371 C 517.8812,505.58877 494.68034,524.30258 508.10721,521.0093 C 506.36321,523.51505 503.04785,524.83404 500.14692,525.03135 L 500.14691,525.03134 z M 515.77423,498.80429 C 512.84257,485.51323 527.65686,494.23679 515.77423,498.80428 M 509.11273,525.70169 C 510.76995,522.10633 527.25943,507.71515 515.35528,511.91781 C 503.3644,514.38469 528.54113,500.76816 525.32659,512.0854 C 533.00613,509.92559 534.45657,515.00246 544.22181,508.6499 C 560.13477,504.06566 533.64026,521.18618 543.67716,525.576 C 524.33866,529.21654 554.98751,501.75874 536.26152,514.55728 C 531.12653,518.97477 516.07308,529.01505 526.54159,516.14934 C 527.34154,508.96935 512.89149,528.14873 509.11274,525.70169 L 509.11273,525.70169 z M 549.29126,527.33563 C 535.48014,523.76494 553.47259,502.16785 562.78186,507.68629 C 567.28012,521.97064 544.95788,512.18465 548.11817,522.2243 C 554.2277,526.38905 570.3117,520.84132 554.77967,526.37203 C 553.18479,528.21123 551.15032,526.73965 549.29126,527.33564 L 549.29126,527.33563 z M 554.31879,515.26953 C 566.23761,513.52501 555.33525,504.49306 553.14572,512.83953 C 553.7101,513.38802 553.16756,515.25292 554.31881,515.26952 M 552.76868,512.08539 C 553.05106,512.63778 553.44109,511.33428 552.76865,512.0854 M 579.70795,527.71271 C 569.64585,525.19808 589.33312,504.46586 573.96817,517.7414 C 563.25752,527.38087 558.4401,526.36158 568.39596,515.60469 C 575.67162,507.73654 556.73187,515.50431 570.44886,508.60802 C 580.28294,505.5885 566.12056,523.20252 578.1159,511.95971 C 595.45365,500.06481 577.08822,519.1063 582.64069,525.78548 C 591.45589,523.99298 588.02826,527.70602 579.70796,527.71271 M 592.612,525.28271 C 579.21885,523.26838 606.4169,506.30255 586.53705,511.58264 C 588.74418,506.57934 602.57279,510.35379 604.83786,500.62941 C 609.57413,496.69726 621.61852,477.08307 622.9868,483.34456 C 616.41374,491.66875 608.44357,499.41988 601.87109,507.51871 C 621.29956,506.81968 587.89055,510.8796 593.24045,521.88913 C 599.83655,520.54306 604.16333,518.93881 595.29337,524.82186 L 592.61201,525.28272 M 606.60535,527.33563 C 592.79423,523.76494 610.78668,502.16785 620.09595,507.68629 C 624.5942,521.97064 602.27198,512.18465 605.43225,522.2243 C 611.54178,526.38905 627.62578,520.84132 612.09376,526.37203 C 610.49888,528.21123 608.46441,526.73965 606.60535,527.33564 L 606.60535,527.33563 z M 611.63287,515.26953 C 623.5517,513.52499 612.64933,504.49307 610.4598,512.83953 C 611.02419,513.38801 610.48165,515.25292 611.6329,515.26952 M 610.08276,512.08539 C 610.36515,512.63777 610.75516,511.3343 610.08274,512.0854 M 625.24921,524.06772 C 617.6379,513.1925 637.03288,520.08132 625.24919,524.06773"
       id="text3223" />
  </g>
</svg>
