<?xml version="1.0" encoding="UTF-8" standalone="no"?>
<svg
   xmlns:dc="http://purl.org/dc/elements/1.1/"
   xmlns:cc="http://creativecommons.org/ns#"
   xmlns:rdf="http://www.w3.org/1999/02/22-rdf-syntax-ns#"
   xmlns:svg="http://www.w3.org/2000/svg"
   xmlns="http://www.w3.org/2000/svg"
   xmlns:xlink="http://www.w3.org/1999/xlink"
   xmlns:sodipodi="http://sodipodi.sourceforge.net/DTD/sodipodi-0.dtd"
   xmlns:inkscape="http://www.inkscape.org/namespaces/inkscape"
   version="1.0"
   width="750"
   height="625"
   id="svg2"
   sodipodi:version="0.32"
   inkscape:version="0.45+devel"
   sodipodi:docname="about.pt_BR.svg"
   inkscape:output_extension="org.inkscape.output.svg.inkscape"
   style="display:inline;enable-background:new"
   inkscape:export-filename="about.pt_BR.png"
   inkscape:export-xdpi="90"
   inkscape:export-ydpi="90">
  <sodipodi:namedview
     inkscape:window-height="717"
     inkscape:window-width="1022"
     inkscape:pageshadow="2"
     inkscape:pageopacity="0.0"
     guidetolerance="10.0"
     gridtolerance="10.0"
     objecttolerance="10.0"
     borderopacity="1.0"
     bordercolor="#666666"
     pagecolor="#ffffff"
     id="base"
     showgrid="false"
     inkscape:showpageshadow="false"
     inkscape:zoom="1.4142136"
     inkscape:cx="456.30304"
     inkscape:cy="188.11755"
     inkscape:window-x="5"
     inkscape:window-y="24"
     inkscape:current-layer="layer4"
     showguides="false"
     inkscape:guide-bbox="true"
     borderlayer="false"
     showborder="false">
    <sodipodi:guide
       id="guide5798"
       position="268,300"
       orientation="0,1" />
    <sodipodi:guide
       id="guide5870"
       position="100,309"
       orientation="1,0" />
    <sodipodi:guide
       id="guide5872"
       position="650,364"
       orientation="1,0" />
  </sodipodi:namedview>
  <metadata
     id="metadata51">
    <rdf:RDF>
      <cc:Work
         rdf:about="">
        <dc:format>image/svg+xml</dc:format>
        <dc:type
           rdf:resource="http://purl.org/dc/dcmitype/StillImage" />
        <dc:title>Inkscape About Screen (0.46)</dc:title>
        <dc:date>2008-01-01</dc:date>
        <dc:creator>
          <cc:Agent>
            <dc:title>Sebastian Kraft</dc:title>
          </cc:Agent>
        </dc:creator>
        <dc:description>About Screen for Inkscape Version 0.46</dc:description>
        <dc:subject>
          <rdf:Bag>
            <rdf:li>inkscape</rdf:li>
            <rdf:li>about</rdf:li>
          </rdf:Bag>
        </dc:subject>
        <dc:contributor>
          <cc:Agent>
            <dc:title>Sebastian Kraft (needcoffee.deviantart.com, eska-art.de)</dc:title>
          </cc:Agent>
        </dc:contributor>
        <dc:rights>
          <cc:Agent>
            <dc:title />
          </cc:Agent>
        </dc:rights>
        <dc:publisher>
          <cc:Agent>
            <dc:title />
          </cc:Agent>
        </dc:publisher>
        <dc:identifier />
        <dc:source />
        <dc:relation />
        <dc:language />
        <dc:coverage />
        <cc:license
           rdf:resource="http://creativecommons.org/licenses/by-sa/3.0/" />
      </cc:Work>
      <cc:License
         rdf:about="http://creativecommons.org/licenses/by-sa/3.0/">
        <cc:permits
           rdf:resource="http://creativecommons.org/ns#Reproduction" />
        <cc:permits
           rdf:resource="http://creativecommons.org/ns#Distribution" />
        <cc:requires
           rdf:resource="http://creativecommons.org/ns#Notice" />
        <cc:requires
           rdf:resource="http://creativecommons.org/ns#Attribution" />
        <cc:permits
           rdf:resource="http://creativecommons.org/ns#DerivativeWorks" />
        <cc:requires
           rdf:resource="http://creativecommons.org/ns#ShareAlike" />
      </cc:License>
    </rdf:RDF>
  </metadata>
  <defs
     id="defs4">
    <inkscape:perspective
       sodipodi:type="inkscape:persp3d"
       inkscape:vp_x="-50 : 600 : 1"
       inkscape:vp_y="0 : 1000 : 0"
       inkscape:vp_z="700 : 600 : 1"
       inkscape:persp3d-origin="300 : 400 : 1"
       id="perspective4362" />
    <inkscape:perspective
       sodipodi:type="inkscape:persp3d"
       inkscape:vp_x="-50 : 600 : 1"
       inkscape:vp_y="0 : 1000 : 0"
       inkscape:vp_z="700 : 600 : 1"
       inkscape:persp3d-origin="300 : 400 : 1"
       id="perspective2404" />
    <filter
       inkscape:collect="always"
       id="filter7383"
       x="-0.03777096"
       width="1.0755419"
       y="-0.1458158"
       height="1.2916316"
       inkscape:label="draw-free-drop">
      <feGaussianBlur
         inkscape:collect="always"
         stdDeviation="2"
         id="feGaussianBlur7385" />
    </filter>
    <filter
       inkscape:collect="always"
       id="filter5163">
      <feGaussianBlur
         inkscape:collect="always"
         stdDeviation="1.4607191"
         id="feGaussianBlur5165" />
    </filter>
  </defs>
  <style
     type="text/css"
     id="style26">
	.specularity {opacity:0.5}
	.low-specularity {opacity:0.25}
	.full-specularity {opacity:1}
	.black {fill:#000}
	.white {fill:#fff}
	.outline-big {opacity:0.1;fill:none}
	.outline-small {opacity:0.2;fill:none}
	.stroke-highlight {fill:none;opacity:0.2}
       	.bs 	{fill:#000;opacity:75}
	</style>
  <g
     inkscape:groupmode="layer"
     id="layer4"
     inkscape:label="background"
     style="display:inline">
    <image
       id="backgroundimport"
       sodipodi:absref="background.svg"
       xlink:href="backgound.svg"
       x="5.7103271"
       y="1.1230202"
       width="734.99194"
       height="622.82935" />
    <path
       id="path4375"
       d="M 377.09375 475.09375 C 373.47617 475.52492 365.76543 487.59673 364.375 491.96875 C 359.99496 507.9664 349.19064 504.16385 338.4375 511.28125 C 329.76 516.4343 330.73383 529.19542 340.78125 521.21875 C 352.41053 509.85832 337.69192 526.43628 349.78125 527.46875 L 350.6875 527.46875 C 365.26042 524.85037 350.185 526.86113 349.375 520.75 C 356.92072 504.96939 370.72029 493.0983 378.9375 477.90625 C 378.79879 475.77649 378.10667 474.97302 377.09375 475.09375 z M 461.0625 477.96875 C 456.91551 478.27799 447.73365 487.58106 446.15625 491.96875 C 442.82573 502.88729 420.44092 507.99944 423.0625 491.5625 C 412.42202 494.09414 427.51688 513.17724 436.9375 502.625 C 431.38099 508.66871 424.33726 522.43923 418.0625 511.71875 C 412.26763 512.14454 401.82755 525.06719 410.5625 527.09375 C 411.20944 526.41389 411.82376 525.84571 412.40625 525.34375 C 412.03368 525.32465 411.6579 525.26849 411.25 525.1875 C 409.29961 522.7382 411.29513 518.71432 413.09375 516.5 C 418.316 511.34166 420.27876 518.72708 417.46875 522.875 C 423.55447 522.75934 425.6481 535.31918 434.71875 536.1875 C 436.44851 535.86752 438.52303 535.70914 440.03125 534.71875 C 452.74121 534.47332 449.44398 512.70858 438.125 519.125 C 440.0984 530.34382 444.10278 513.88018 445.8125 527.15625 C 443.97455 536.34682 430.07749 534.26993 426.96875 526.28125 C 419.11442 518.49303 430.42551 513.5943 434.90625 508.0625 C 441.71463 497.54123 454.81438 494.22962 462.40625 484.4375 C 463.79603 479.55343 462.9475 477.82819 461.0625 477.96875 z M 417.46875 522.875 C 416.04689 522.90202 414.40705 523.61957 412.40625 525.34375 C 414.78654 525.46577 416.44287 524.38932 417.46875 522.875 z M 459.96875 480.25 C 460.15214 480.2325 460.31394 480.24342 460.5 480.25 C 460.65501 488.13331 451.12951 492.96805 445.34375 496.21875 C 449.84432 492.61222 454.28358 480.79245 459.96875 480.25 z M 373.6875 481.34375 C 374.07267 481.19686 374.30107 482.36856 373.28125 482.03125 C 373.39944 481.58271 373.55911 481.39271 373.6875 481.34375 z M 296.71875 481.6875 C 295.67184 481.66391 293.74085 482.43868 290.625 484.34375 C 277.05562 494.31805 289.84791 488.25511 294.46875 485.03125 C 286.7629 498.87438 273.99147 510.58103 268.65625 525.375 C 275.48847 522.68176 279.34694 513.12399 286.90625 510.0625 C 285.07337 513.81122 276.2332 527.4792 286.84375 521.8125 C 281.18742 520.28213 300.48963 498.14914 284.21875 509.625 C 271.49652 520.91036 280.0327 508.50558 285.4375 501.8125 C 289.23359 497.0327 301.25535 481.78973 296.71875 481.6875 z M 268.65625 525.375 C 267.91883 525.2358 266.44995 525.29579 264.0625 525.78125 C 258.51003 519.10207 276.86898 500.07384 259.53125 511.96875 C 247.53591 523.21155 261.70906 505.57423 251.875 508.59375 C 238.158 515.49004 257.08814 507.72561 249.8125 515.59375 C 239.85664 526.35064 244.66434 527.38948 255.375 517.75 C 270.73996 504.47445 251.06289 525.20413 261.125 527.71875 C 267.19185 527.71389 270.64162 525.74978 268.65625 525.375 z M 191.125 481.84375 C 186.44651 481.88037 180.68284 482.99196 178.9375 487.15625 C 167.00333 480.72458 152.46114 480.75889 139.65625 484.8125 C 127.67439 484.79582 120.60776 503.37095 136.8125 502.25 C 153.51095 500.97664 137.95682 500.37874 132.03125 497 C 132.29721 480.60246 163.44399 482.34042 174.03125 489.15625 C 176.4911 494.95419 164.46569 513.01811 157.65625 513.09375 C 147.4477 497.6543 136.48852 528.16639 150.59375 524.125 C 156.77996 515.89966 160.93612 525.85572 168.15625 525.78125 C 170.12373 524.87875 172.53433 525.97405 174.4375 524.9375 C 189.46668 524.00833 200.8246 507.93629 187.90625 495.65625 C 176.22216 490.55611 184.4125 483.45246 192.96875 482.8125 C 201.35997 483.53757 197.1402 481.79667 191.125 481.84375 z M 629.375 482.1875 C 625.77599 482.87099 616.55875 497.36974 612.5625 500.6875 C 610.29743 510.41188 596.48837 506.62171 594.28125 511.625 C 614.1611 506.34491 586.95059 523.29818 600.34375 525.3125 L 603.03125 524.875 C 611.90121 518.99195 607.56487 520.59141 600.96875 521.9375 C 595.61885 510.92797 629.02221 506.86348 609.59375 507.5625 C 616.16623 499.46367 624.14566 491.69919 630.71875 483.375 C 630.50496 482.39664 630.04148 482.06093 629.375 482.1875 z M 196.46875 484.875 C 195.67079 484.88022 194.40854 485.3543 195.0625 486.25 C 197.60036 485.33342 197.26671 484.86978 196.46875 484.875 z M 194.46875 485.71875 C 194.36472 485.65932 194.12179 485.94018 193.71875 486.875 C 194.29329 487.53494 194.69761 485.8495 194.46875 485.71875 z M 468.53125 491.75 C 466.98324 491.92263 465.55688 493.82836 466.65625 498.8125 C 474.08291 495.95781 471.11127 491.46228 468.53125 491.75 z M 179.90625 493.75 C 181.47339 493.74877 183.20391 495.10115 185.21875 498.625 C 193.96099 509.05172 186.88522 523.39535 173.09375 522.40625 C 162.91462 522.0584 157.89618 515.93318 167.125 509.125 C 171.99644 506.05307 175.20483 493.75368 179.90625 493.75 z M 459.03125 506.28125 C 458.76229 506.26691 458.45793 506.29016 458.125 506.3125 C 454.64985 508.80189 449.62928 519.63634 451.03125 525.03125 C 453.93218 524.83394 457.256 523.50576 459 521 C 445.9927 524.19036 467.36903 506.72579 459.03125 506.28125 z M 490.8125 506.59375 C 487.91167 506.59803 476.71298 512.90483 473.28125 514.78125 C 459.78419 529.73113 474.85053 501.26585 461.34375 511.46875 C 466.70013 511.49904 459.6608 521.89199 460.21875 525.90625 C 470.58496 520.30608 479.48032 510.60574 491.3125 507.71875 C 491.72414 506.91867 491.48192 506.59276 490.8125 506.59375 z M 209.875 506.8125 C 200.38347 507.29821 188.13402 524.21939 200.21875 527.34375 C 202.07781 526.74776 204.09261 528.21422 205.6875 526.375 C 209.39098 525.05625 211.26522 524.37214 211.9375 524.03125 C 211.87931 525.53984 212.74408 527.59911 215.21875 528.96875 C 220.67497 528.96415 225.36776 523.37146 223.5625 517.8125 C 215.96518 509.20948 240.92135 506.92803 224.25 508.03125 C 213.51607 511.03836 225.33311 523.84991 216.375 526.59375 C 214.61923 520.8737 212.28902 521.50605 212 523.71875 C 210.49823 523.63844 202.83415 524.81111 199.03125 522.21875 C 195.87099 512.1791 218.18574 521.97186 213.6875 507.6875 C 212.52384 506.9977 211.23093 506.74311 209.875 506.8125 z M 240.375 506.8125 C 230.88347 507.29821 218.63402 524.21939 230.71875 527.34375 C 232.57781 526.74776 234.59262 528.21422 236.1875 526.375 C 251.71952 520.84429 235.64078 526.3835 229.53125 522.21875 C 226.37097 512.1791 248.68575 521.97186 244.1875 507.6875 C 243.02384 506.9977 241.73093 506.74311 240.375 506.8125 z M 566.6875 506.84375 C 557.19597 507.32946 544.94651 524.25065 557.03125 527.375 C 558.89031 526.77901 560.93637 528.24542 562.53125 526.40625 C 578.06328 520.87554 561.95328 526.44601 555.84375 522.28125 C 552.68346 512.2416 575.0295 522.00309 570.53125 507.71875 C 569.36759 507.02895 568.04343 506.77436 566.6875 506.84375 z M 624 506.84375 C 614.50847 507.32946 602.25901 524.25065 614.34375 527.375 C 616.20281 526.77901 618.24887 528.24542 619.84375 526.40625 C 635.37577 520.87554 619.26577 526.44601 613.15625 522.28125 C 609.99598 512.2416 632.34199 522.00309 627.84375 507.71875 C 626.68009 507.02895 625.35593 506.77436 624 506.84375 z M 514 506.9375 C 504.50847 507.42321 492.22777 524.34441 504.3125 527.46875 C 506.17156 526.87276 508.21763 528.33918 509.8125 526.5 C 525.34453 520.96929 509.26578 526.50852 503.15625 522.34375 C 499.99599 512.3041 522.31071 522.09685 517.8125 507.8125 C 516.64884 507.1227 515.35593 506.86811 514 506.9375 z M 529.75 507.5625 C 524.16216 507.74179 514.85001 513.66473 523.09375 511.96875 C 534.9979 507.76609 518.50096 522.15462 516.84375 525.75 C 520.6225 528.19704 535.08122 509.00751 534.28125 516.1875 C 523.81274 529.05321 538.86498 519.01122 544 514.59375 C 562.72599 501.79521 532.06778 529.26556 551.40625 525.625 C 541.36935 521.23518 567.88171 504.10327 551.96875 508.6875 C 542.20351 515.04006 540.74202 509.96521 533.0625 512.125 C 534.06704 508.58836 532.28993 507.48101 529.75 507.5625 z M 495.125 507.71875 C 489.40584 508.22875 476.59494 518.45807 488.96875 511.875 C 496.10952 511.15981 478.29996 522.18108 480.21875 525.6875 C 487.65481 523.52272 494.26045 509.2049 499.78125 514.84375 C 508.74805 503.62465 490.10686 516.70622 495.125 507.71875 z M 371.84375 507.8125 C 363.49515 508.24389 352.64733 519.69086 359.84375 525.0625 C 362.57002 525.31529 364.70824 524.46455 367.25 523.84375 C 373.3559 523.04599 386.91091 511.87574 375.21875 508.34375 C 374.18854 507.90564 373.03641 507.75087 371.84375 507.8125 z M 307.40625 508.03125 C 300.15301 508.26801 285.82764 518.20735 289.5625 526.125 C 299.04771 521.26648 298.3086 526.21405 307.34375 524.1875 C 303.93229 522.79323 304.21879 514.7341 311.28125 510.375 C 310.90563 508.66261 309.43716 507.96496 307.40625 508.03125 z M 330.78125 508.15625 C 329.78144 508.25078 327.66763 509.36674 323.875 511.96875 C 311.87968 523.21156 326.0528 505.57422 316.21875 508.59375 C 302.50175 515.49003 321.43189 507.72561 314.15625 515.59375 C 304.20039 526.35063 309.03935 527.38949 319.75 517.75 C 335.11496 504.47446 315.40666 525.20412 325.46875 527.71875 C 333.78901 527.71207 337.22147 523.98877 328.40625 525.78125 C 324.06838 520.56314 334.35201 507.81864 330.78125 508.15625 z M 592.71875 508.1875 C 591.71894 508.28203 589.63638 509.39799 585.84375 512 C 573.84841 523.24281 588.02158 505.63673 578.1875 508.65625 C 564.47051 515.55254 583.40068 507.78813 576.125 515.65625 C 566.16914 526.41314 571.00812 527.42074 581.71875 517.78125 C 597.0837 504.50571 577.37539 525.23538 587.4375 527.75 C 595.7578 527.74331 599.19019 524.05128 590.375 525.84375 C 586.03713 520.62564 596.2895 507.84989 592.71875 508.1875 z M 347.75 508.875 C 352.62887 508.83138 342.39214 520.96873 335.78125 520.6875 C 336.09494 516.70267 338.84016 513.84048 341.75 511.15625 C 344.71672 509.55026 346.62411 508.88507 347.75 508.875 z M 207.71875 509.34375 C 210.8507 509.4168 213.44419 514.08185 205.25 515.28125 C 204.09875 515.26465 204.62688 513.39223 204.0625 512.84375 C 204.74671 510.23549 206.29514 509.31055 207.71875 509.34375 z M 238.21875 509.34375 C 241.3507 509.41679 243.94419 514.08184 235.75 515.28125 C 234.59875 515.26465 235.12688 513.39223 234.5625 512.84375 C 235.24672 510.23549 236.79514 509.31055 238.21875 509.34375 z M 564.09375 509.40625 C 567.3972 509.03091 570.62915 514.05863 562.0625 515.3125 C 560.91125 515.2959 561.4394 513.42349 560.875 512.875 C 561.49081 510.52756 562.80109 509.55312 564.09375 509.40625 z M 621.40625 509.40625 C 624.70971 509.0309 627.94165 514.05862 619.375 515.3125 C 618.22375 515.2959 618.7519 513.42348 618.1875 512.875 C 618.80331 510.52756 620.11359 509.55312 621.40625 509.40625 z M 511.375 509.5 C 514.67846 509.12464 517.91041 514.15235 509.34375 515.40625 C 508.1925 515.38965 508.72063 513.51725 508.15625 512.96875 C 508.77204 510.62131 510.08234 509.64688 511.375 509.5 z M 373.1875 511.46875 C 377.51681 511.6759 371.68348 523.79007 363.59375 522.34375 C 358.45083 521.06472 364.0614 511.14014 368.46875 513.5625 C 370.64486 512.02991 372.18843 511.42095 373.1875 511.46875 z M 301.5 511.5 C 304.50695 511.78394 300.1604 523.41025 292.25 522.90625 C 291.03479 520.46769 294.13097 517.26572 295.90625 515.84375 C 298.67976 512.54924 300.49768 511.40535 301.5 511.5 z M 204 511.84375 C 204.16075 511.86759 203.8993 512.50804 203.6875 512.09375 C 203.85562 511.90598 203.94642 511.8358 204 511.84375 z M 234.5 511.84375 C 234.66075 511.86759 234.39931 512.50804 234.1875 512.09375 C 234.35561 511.90598 234.44642 511.8358 234.5 511.84375 z M 560.84375 511.90625 C 561.0045 511.93009 560.71178 512.5393 560.5 512.125 C 560.66811 511.93722 560.79017 511.8983 560.84375 511.90625 z M 618.15625 511.90625 C 618.317 511.93009 618.02428 512.53929 617.8125 512.125 C 617.9806 511.93723 618.10267 511.8983 618.15625 511.90625 z M 508.125 511.96875 C 508.28575 511.99259 507.99305 512.63306 507.78125 512.21875 C 507.94937 512.03098 508.07142 511.9608 508.125 511.96875 z M 149.4375 514.9375 C 152.77395 514.99811 158.14679 521.16427 148.75 521.9375 L 148.5 521.75 L 148.3125 521.5 C 146.50424 516.54357 147.68984 514.90575 149.4375 514.9375 z M 632.75 518.28125 C 631.07707 518.45316 630.14576 520.04679 633 524.125 C 640.36481 521.63349 635.53822 517.99474 632.75 518.28125 z M 376.96875 518.71875 C 377.33685 518.71873 377.36146 518.71876 376.96875 518.71875 z "
       style="font-size:85.80355835000000297px;font-style:normal;font-variant:normal;font-weight:normal;font-stretch:normal;text-align:start;line-height:125%;writing-mode:lr-tb;text-anchor:start;fill:#000000;fill-opacity:1;stroke:none;stroke-width:1px;stroke-linecap:butt;stroke-linejoin:miter;stroke-opacity:1;display:inline;enable-background:new;font-family:Excellentia;-inkscape-font-specification:Excellentia;filter:url(#filter5163)" />
    <path
       style="font-size:85.80355835px;font-style:normal;font-variant:normal;font-weight:normal;font-stretch:normal;text-align:start;line-height:125%;writing-mode:lr-tb;text-anchor:start;fill:#000000;fill-opacity:1;stroke:none;stroke-width:1px;stroke-linecap:butt;stroke-linejoin:miter;stroke-opacity:1;display:inline;enable-background:new;font-family:Excellentia;-inkscape-font-specification:Excellentia"
       d="M 377.09375 475.09375 C 373.47617 475.52492 365.76543 487.59673 364.375 491.96875 C 359.99496 507.9664 349.19064 504.16385 338.4375 511.28125 C 329.76 516.4343 330.73383 529.19542 340.78125 521.21875 C 352.41053 509.85832 337.69192 526.43628 349.78125 527.46875 L 350.6875 527.46875 C 365.26042 524.85037 350.185 526.86113 349.375 520.75 C 356.92072 504.96939 370.72029 493.0983 378.9375 477.90625 C 378.79879 475.77649 378.10667 474.97302 377.09375 475.09375 z M 461.0625 477.96875 C 456.91551 478.27799 447.73365 487.58106 446.15625 491.96875 C 442.82573 502.88729 420.44092 507.99944 423.0625 491.5625 C 412.42202 494.09414 427.51688 513.17724 436.9375 502.625 C 431.38099 508.66871 424.33726 522.43923 418.0625 511.71875 C 412.26763 512.14454 401.82755 525.06719 410.5625 527.09375 C 411.20944 526.41389 411.82376 525.84571 412.40625 525.34375 C 412.03368 525.32465 411.6579 525.26849 411.25 525.1875 C 409.29961 522.7382 411.29513 518.71432 413.09375 516.5 C 418.316 511.34166 420.27876 518.72708 417.46875 522.875 C 423.55447 522.75934 425.6481 535.31918 434.71875 536.1875 C 436.44851 535.86752 438.52303 535.70914 440.03125 534.71875 C 452.74121 534.47332 449.44398 512.70858 438.125 519.125 C 440.0984 530.34382 444.10278 513.88018 445.8125 527.15625 C 443.97455 536.34682 430.07749 534.26993 426.96875 526.28125 C 419.11442 518.49303 430.42551 513.5943 434.90625 508.0625 C 441.71463 497.54123 454.81438 494.22962 462.40625 484.4375 C 463.79603 479.55343 462.9475 477.82819 461.0625 477.96875 z M 417.46875 522.875 C 416.04689 522.90202 414.40705 523.61957 412.40625 525.34375 C 414.78654 525.46577 416.44287 524.38932 417.46875 522.875 z M 459.96875 480.25 C 460.15214 480.2325 460.31394 480.24342 460.5 480.25 C 460.65501 488.13331 451.12951 492.96805 445.34375 496.21875 C 449.84432 492.61222 454.28358 480.79245 459.96875 480.25 z M 373.6875 481.34375 C 374.07267 481.19686 374.30107 482.36856 373.28125 482.03125 C 373.39944 481.58271 373.55911 481.39271 373.6875 481.34375 z M 296.71875 481.6875 C 295.67184 481.66391 293.74085 482.43868 290.625 484.34375 C 277.05562 494.31805 289.84791 488.25511 294.46875 485.03125 C 286.7629 498.87438 273.99147 510.58103 268.65625 525.375 C 275.48847 522.68176 279.34694 513.12399 286.90625 510.0625 C 285.07337 513.81122 276.2332 527.4792 286.84375 521.8125 C 281.18742 520.28213 300.48963 498.14914 284.21875 509.625 C 271.49652 520.91036 280.0327 508.50558 285.4375 501.8125 C 289.23359 497.0327 301.25535 481.78973 296.71875 481.6875 z M 268.65625 525.375 C 267.91883 525.2358 266.44995 525.29579 264.0625 525.78125 C 258.51003 519.10207 276.86898 500.07384 259.53125 511.96875 C 247.53591 523.21155 261.70906 505.57423 251.875 508.59375 C 238.158 515.49004 257.08814 507.72561 249.8125 515.59375 C 239.85664 526.35064 244.66434 527.38948 255.375 517.75 C 270.73996 504.47445 251.06289 525.20413 261.125 527.71875 C 267.19185 527.71389 270.64162 525.74978 268.65625 525.375 z M 191.125 481.84375 C 186.44651 481.88037 180.68284 482.99196 178.9375 487.15625 C 167.00333 480.72458 152.46114 480.75889 139.65625 484.8125 C 127.67439 484.79582 120.60776 503.37095 136.8125 502.25 C 153.51095 500.97664 137.95682 500.37874 132.03125 497 C 132.29721 480.60246 163.44399 482.34042 174.03125 489.15625 C 176.4911 494.95419 164.46569 513.01811 157.65625 513.09375 C 147.4477 497.6543 136.48852 528.16639 150.59375 524.125 C 156.77996 515.89966 160.93612 525.85572 168.15625 525.78125 C 170.12373 524.87875 172.53433 525.97405 174.4375 524.9375 C 189.46668 524.00833 200.8246 507.93629 187.90625 495.65625 C 176.22216 490.55611 184.4125 483.45246 192.96875 482.8125 C 201.35997 483.53757 197.1402 481.79667 191.125 481.84375 z M 629.375 482.1875 C 625.77599 482.87099 616.55875 497.36974 612.5625 500.6875 C 610.29743 510.41188 596.48837 506.62171 594.28125 511.625 C 614.1611 506.34491 586.95059 523.29818 600.34375 525.3125 L 603.03125 524.875 C 611.90121 518.99195 607.56487 520.59141 600.96875 521.9375 C 595.61885 510.92797 629.02221 506.86348 609.59375 507.5625 C 616.16623 499.46367 624.14566 491.69919 630.71875 483.375 C 630.50496 482.39664 630.04148 482.06093 629.375 482.1875 z M 196.46875 484.875 C 195.67079 484.88022 194.40854 485.3543 195.0625 486.25 C 197.60036 485.33342 197.26671 484.86978 196.46875 484.875 z M 194.46875 485.71875 C 194.36472 485.65932 194.12179 485.94018 193.71875 486.875 C 194.29329 487.53494 194.69761 485.8495 194.46875 485.71875 z M 468.53125 491.75 C 466.98324 491.92263 465.55688 493.82836 466.65625 498.8125 C 474.08291 495.95781 471.11127 491.46228 468.53125 491.75 z M 179.90625 493.75 C 181.47339 493.74877 183.20391 495.10115 185.21875 498.625 C 193.96099 509.05172 186.88522 523.39535 173.09375 522.40625 C 162.91462 522.0584 157.89618 515.93318 167.125 509.125 C 171.99644 506.05307 175.20483 493.75368 179.90625 493.75 z M 459.03125 506.28125 C 458.76229 506.26691 458.45793 506.29016 458.125 506.3125 C 454.64985 508.80189 449.62928 519.63634 451.03125 525.03125 C 453.93218 524.83394 457.256 523.50576 459 521 C 445.9927 524.19036 467.36903 506.72579 459.03125 506.28125 z M 490.8125 506.59375 C 487.91167 506.59803 476.71298 512.90483 473.28125 514.78125 C 459.78419 529.73113 474.85053 501.26585 461.34375 511.46875 C 466.70013 511.49904 459.6608 521.89199 460.21875 525.90625 C 470.58496 520.30608 479.48032 510.60574 491.3125 507.71875 C 491.72414 506.91867 491.48192 506.59276 490.8125 506.59375 z M 209.875 506.8125 C 200.38347 507.29821 188.13402 524.21939 200.21875 527.34375 C 202.07781 526.74776 204.09261 528.21422 205.6875 526.375 C 209.39098 525.05625 211.26522 524.37214 211.9375 524.03125 C 211.87931 525.53984 212.74408 527.59911 215.21875 528.96875 C 220.67497 528.96415 225.36776 523.37146 223.5625 517.8125 C 215.96518 509.20948 240.92135 506.92803 224.25 508.03125 C 213.51607 511.03836 225.33311 523.84991 216.375 526.59375 C 214.61923 520.8737 212.28902 521.50605 212 523.71875 C 210.49823 523.63844 202.83415 524.81111 199.03125 522.21875 C 195.87099 512.1791 218.18574 521.97186 213.6875 507.6875 C 212.52384 506.9977 211.23093 506.74311 209.875 506.8125 z M 240.375 506.8125 C 230.88347 507.29821 218.63402 524.21939 230.71875 527.34375 C 232.57781 526.74776 234.59262 528.21422 236.1875 526.375 C 251.71952 520.84429 235.64078 526.3835 229.53125 522.21875 C 226.37097 512.1791 248.68575 521.97186 244.1875 507.6875 C 243.02384 506.9977 241.73093 506.74311 240.375 506.8125 z M 566.6875 506.84375 C 557.19597 507.32946 544.94651 524.25065 557.03125 527.375 C 558.89031 526.77901 560.93637 528.24542 562.53125 526.40625 C 578.06328 520.87554 561.95328 526.44601 555.84375 522.28125 C 552.68346 512.2416 575.0295 522.00309 570.53125 507.71875 C 569.36759 507.02895 568.04343 506.77436 566.6875 506.84375 z M 624 506.84375 C 614.50847 507.32946 602.25901 524.25065 614.34375 527.375 C 616.20281 526.77901 618.24887 528.24542 619.84375 526.40625 C 635.37577 520.87554 619.26577 526.44601 613.15625 522.28125 C 609.99598 512.2416 632.34199 522.00309 627.84375 507.71875 C 626.68009 507.02895 625.35593 506.77436 624 506.84375 z M 514 506.9375 C 504.50847 507.42321 492.22777 524.34441 504.3125 527.46875 C 506.17156 526.87276 508.21763 528.33918 509.8125 526.5 C 525.34453 520.96929 509.26578 526.50852 503.15625 522.34375 C 499.99599 512.3041 522.31071 522.09685 517.8125 507.8125 C 516.64884 507.1227 515.35593 506.86811 514 506.9375 z M 529.75 507.5625 C 524.16216 507.74179 514.85001 513.66473 523.09375 511.96875 C 534.9979 507.76609 518.50096 522.15462 516.84375 525.75 C 520.6225 528.19704 535.08122 509.00751 534.28125 516.1875 C 523.81274 529.05321 538.86498 519.01122 544 514.59375 C 562.72599 501.79521 532.06778 529.26556 551.40625 525.625 C 541.36935 521.23518 567.88171 504.10327 551.96875 508.6875 C 542.20351 515.04006 540.74202 509.96521 533.0625 512.125 C 534.06704 508.58836 532.28993 507.48101 529.75 507.5625 z M 495.125 507.71875 C 489.40584 508.22875 476.59494 518.45807 488.96875 511.875 C 496.10952 511.15981 478.29996 522.18108 480.21875 525.6875 C 487.65481 523.52272 494.26045 509.2049 499.78125 514.84375 C 508.74805 503.62465 490.10686 516.70622 495.125 507.71875 z M 371.84375 507.8125 C 363.49515 508.24389 352.64733 519.69086 359.84375 525.0625 C 362.57002 525.31529 364.70824 524.46455 367.25 523.84375 C 373.3559 523.04599 386.91091 511.87574 375.21875 508.34375 C 374.18854 507.90564 373.03641 507.75087 371.84375 507.8125 z M 307.40625 508.03125 C 300.15301 508.26801 285.82764 518.20735 289.5625 526.125 C 299.04771 521.26648 298.3086 526.21405 307.34375 524.1875 C 303.93229 522.79323 304.21879 514.7341 311.28125 510.375 C 310.90563 508.66261 309.43716 507.96496 307.40625 508.03125 z M 330.78125 508.15625 C 329.78144 508.25078 327.66763 509.36674 323.875 511.96875 C 311.87968 523.21156 326.0528 505.57422 316.21875 508.59375 C 302.50175 515.49003 321.43189 507.72561 314.15625 515.59375 C 304.20039 526.35063 309.03935 527.38949 319.75 517.75 C 335.11496 504.47446 315.40666 525.20412 325.46875 527.71875 C 333.78901 527.71207 337.22147 523.98877 328.40625 525.78125 C 324.06838 520.56314 334.35201 507.81864 330.78125 508.15625 z M 592.71875 508.1875 C 591.71894 508.28203 589.63638 509.39799 585.84375 512 C 573.84841 523.24281 588.02158 505.63673 578.1875 508.65625 C 564.47051 515.55254 583.40068 507.78813 576.125 515.65625 C 566.16914 526.41314 571.00812 527.42074 581.71875 517.78125 C 597.0837 504.50571 577.37539 525.23538 587.4375 527.75 C 595.7578 527.74331 599.19019 524.05128 590.375 525.84375 C 586.03713 520.62564 596.2895 507.84989 592.71875 508.1875 z M 347.75 508.875 C 352.62887 508.83138 342.39214 520.96873 335.78125 520.6875 C 336.09494 516.70267 338.84016 513.84048 341.75 511.15625 C 344.71672 509.55026 346.62411 508.88507 347.75 508.875 z M 207.71875 509.34375 C 210.8507 509.4168 213.44419 514.08185 205.25 515.28125 C 204.09875 515.26465 204.62688 513.39223 204.0625 512.84375 C 204.74671 510.23549 206.29514 509.31055 207.71875 509.34375 z M 238.21875 509.34375 C 241.3507 509.41679 243.94419 514.08184 235.75 515.28125 C 234.59875 515.26465 235.12688 513.39223 234.5625 512.84375 C 235.24672 510.23549 236.79514 509.31055 238.21875 509.34375 z M 564.09375 509.40625 C 567.3972 509.03091 570.62915 514.05863 562.0625 515.3125 C 560.91125 515.2959 561.4394 513.42349 560.875 512.875 C 561.49081 510.52756 562.80109 509.55312 564.09375 509.40625 z M 621.40625 509.40625 C 624.70971 509.0309 627.94165 514.05862 619.375 515.3125 C 618.22375 515.2959 618.7519 513.42348 618.1875 512.875 C 618.80331 510.52756 620.11359 509.55312 621.40625 509.40625 z M 511.375 509.5 C 514.67846 509.12464 517.91041 514.15235 509.34375 515.40625 C 508.1925 515.38965 508.72063 513.51725 508.15625 512.96875 C 508.77204 510.62131 510.08234 509.64688 511.375 509.5 z M 373.1875 511.46875 C 377.51681 511.6759 371.68348 523.79007 363.59375 522.34375 C 358.45083 521.06472 364.0614 511.14014 368.46875 513.5625 C 370.64486 512.02991 372.18843 511.42095 373.1875 511.46875 z M 301.5 511.5 C 304.50695 511.78394 300.1604 523.41025 292.25 522.90625 C 291.03479 520.46769 294.13097 517.26572 295.90625 515.84375 C 298.67976 512.54924 300.49768 511.40535 301.5 511.5 z M 204 511.84375 C 204.16075 511.86759 203.8993 512.50804 203.6875 512.09375 C 203.85562 511.90598 203.94642 511.8358 204 511.84375 z M 234.5 511.84375 C 234.66075 511.86759 234.39931 512.50804 234.1875 512.09375 C 234.35561 511.90598 234.44642 511.8358 234.5 511.84375 z M 560.84375 511.90625 C 561.0045 511.93009 560.71178 512.5393 560.5 512.125 C 560.66811 511.93722 560.79017 511.8983 560.84375 511.90625 z M 618.15625 511.90625 C 618.317 511.93009 618.02428 512.53929 617.8125 512.125 C 617.9806 511.93723 618.10267 511.8983 618.15625 511.90625 z M 508.125 511.96875 C 508.28575 511.99259 507.99305 512.63306 507.78125 512.21875 C 507.94937 512.03098 508.07142 511.9608 508.125 511.96875 z M 149.4375 514.9375 C 152.77395 514.99811 158.14679 521.16427 148.75 521.9375 L 148.5 521.75 L 148.3125 521.5 C 146.50424 516.54357 147.68984 514.90575 149.4375 514.9375 z M 632.75 518.28125 C 631.07707 518.45316 630.14576 520.04679 633 524.125 C 640.36481 521.63349 635.53822 517.99474 632.75 518.28125 z M 376.96875 518.71875 C 377.33685 518.71873 377.36146 518.71876 376.96875 518.71875 z "
       id="path4364" />
  </g>
  <g
     inkscape:groupmode="layer"
     id="layer1"
     inkscape:label="text" />
</svg>
