<?xml version="1.0" encoding="UTF-8" standalone="no"?>
<!-- Created with Inkscape (http://www.inkscape.org/) -->
<svg
   xmlns:dc="http://purl.org/dc/elements/1.1/"
   xmlns:cc="http://creativecommons.org/ns#"
   xmlns:rdf="http://www.w3.org/1999/02/22-rdf-syntax-ns#"
   xmlns:svg="http://www.w3.org/2000/svg"
   xmlns="http://www.w3.org/2000/svg"
   xmlns:xlink="http://www.w3.org/1999/xlink"
   xmlns:sodipodi="http://sodipodi.sourceforge.net/DTD/sodipodi-0.dtd"
   xmlns:inkscape="http://www.inkscape.org/namespaces/inkscape"
   width="48px"
   height="48px"
   id="svg5662"
   sodipodi:version="0.32"
   inkscape:version="0.46+devel r20659"
   sodipodi:docname="color-fill.svg"
   inkscape:output_extension="org.inkscape.output.svg.inkscape">
  <defs
     id="defs5664">
    <linearGradient
       inkscape:collect="always"
       xlink:href="#linearGradient700"
       id="linearGradient3352"
       gradientUnits="userSpaceOnUse"
       x1="-30.512699"
       y1="-1.11146"
       x2="-16.435499"
       y2="-0.473952"
       gradientTransform="matrix(-0.42698,-0.87201,0.87201,-0.42698,11.5331,-7.26288)" />
    <linearGradient
       id="linearGradient700">
      <stop
         id="stop347"
         offset="0"
         style="stop-color:#376796;stop-opacity:1;" />
      <stop
         id="stop348"
         offset="1.0000000"
         style="stop-color:#b0dde2;stop-opacity:1.0000000;" />
    </linearGradient>
    <linearGradient
       id="linearGradient4798">
      <stop
         style="stop-color:#ffffff;stop-opacity:1.0000000;"
         offset="0"
         id="stop4802" />
      <stop
         style="stop-color:#5eba69;stop-opacity:1;"
         offset="1"
         id="stop4800" />
    </linearGradient>
    <radialGradient
       r="9.4159403"
       fy="-2729.78"
       fx="-293.81201"
       cy="-2729.78"
       cx="-293.81201"
       gradientTransform="matrix(1.20758,0.0165454,0.27747,1.03554,1573.42,3294.03)"
       gradientUnits="userSpaceOnUse"
       id="radialGradient8701"
       xlink:href="#linearGradient4798"
       inkscape:collect="always" />
  </defs>
  <sodipodi:namedview
     id="base"
     pagecolor="#ffffff"
     bordercolor="#666666"
     borderopacity="1.0"
     inkscape:pageopacity="0.0"
     inkscape:pageshadow="2"
     inkscape:zoom="4.9497475"
     inkscape:cx="22.986906"
     inkscape:cy="27.82539"
     inkscape:current-layer="layer1"
     showgrid="true"
     inkscape:grid-bbox="true"
     inkscape:document-units="px"
     inkscape:window-width="755"
     inkscape:window-height="630"
     inkscape:window-x="234"
     inkscape:window-y="56"
     showguides="true"
     inkscape:guide-bbox="true">
    <inkscape:grid
       type="xygrid"
       id="grid8740" />
  </sodipodi:namedview>
  <metadata
     id="metadata5667">
    <rdf:RDF>
      <cc:Work
         rdf:about="">
        <dc:format>image/svg+xml</dc:format>
        <dc:type
           rdf:resource="http://purl.org/dc/dcmitype/StillImage" />
        <dc:title />
      </cc:Work>
    </rdf:RDF>
  </metadata>
  <g
     id="layer1"
     inkscape:label="Layer 1"
     inkscape:groupmode="layer">
    <g
       id="draw_paintbucket"
       transform="matrix(1.4220082,0,0,1.4220082,1.0837824,0.68784085)"
       inkscape:label="#g3340">
      <path
         id="path30990"
         d="M 13.0063,24.4482 30.4465,15.9086 C 31.4092,15.4372 31.0551,10.9526 28.9338,6.62049 26.8126,2.28834 23.7236,-0.25897 22.7609,0.212415 L 5.32066,8.75199"
         style="fill:url(#linearGradient3352);fill-opacity:1;stroke:#000000;stroke-width:1.27999997;stroke-miterlimit:4;stroke-opacity:1;stroke-dasharray:none"
         sodipodi:nodetypes="ccscc" />
      <path
         style="fill:none;stroke:#ffffff;stroke-width:1px;stroke-linecap:round;stroke-linejoin:round;stroke-opacity:1"
         d="m 459.326,449.367 10.518,-5.119 c 1.234,0.647 1.542,1.015 2.233,2.513"
         id="path4825"
         sodipodi:nodetypes="ccc"
         transform="matrix(1.28,0,0,1.28,-578.362,-566.08)" />
      <path
         style="fill:none;stroke:#000000;stroke-width:1.27999997;stroke-linecap:butt;stroke-linejoin:miter;stroke-opacity:1"
         d="M 15.3452,14.3489 C 13.4479,-3.0346 8.35128,-2.74598 9.06756,6.76043"
         id="path31979"
         sodipodi:nodetypes="cs" />
      <path
         sodipodi:type="arc"
         style="fill:#c8c8c8;fill-opacity:1;stroke:#2e3436;stroke-width:1.13887095;stroke-linejoin:round;stroke-miterlimit:4;stroke-opacity:1;stroke-dasharray:none"
         id="path31981"
         sodipodi:cx="12.875"
         sodipodi:cy="14.875"
         sodipodi:rx="1.3125"
         sodipodi:ry="1.3125"
         d="m 14.1875,14.875 c 0,0.7245 -0.588,1.3125 -1.3125,1.3125 -0.7245,0 -1.3125,-0.588 -1.3125,-1.3125 0,-0.7245 0.588,-1.3125 1.3125,-1.3125 0.7245,0 1.3125,0.588 1.3125,1.3125 z"
         transform="matrix(1.12392,0,0,1.12392,0.83338,-2.58525)" />
      <path
         style="color:#000000;fill:url(#radialGradient8701);fill-opacity:1;fill-rule:nonzero;stroke:#000000;stroke-width:1.00000095;stroke-linecap:butt;stroke-linejoin:miter;stroke-miterlimit:4;stroke-opacity:1;stroke-dasharray:none;stroke-dashoffset:0;marker:none;visibility:visible;display:inline"
         d="m 456.281,449.062 c -0.068,0.008 -0.127,0.034 -0.187,0.063 -0.961,0.465 -0.457,3.569 1.156,6.937 0.988,2.063 2.18,3.737 3.156,4.626 -0.001,0.01 10e-4,0.02 0,0.031 -0.069,0.83 -0.759,1.709 -1.028,2.5 -10.092,0.32 -8.962,4.477 0.653,4.523 18.542,0.088 18.215,-4.476 2.844,-4.554 -0.273,-0.656 -0.558,-1.324 -0.781,-2 0.727,-0.738 0.168,-3.655 -1.344,-6.813 -1.512,-3.158 -3.442,-5.424 -4.469,-5.313 z"
         transform="matrix(1.28,0,0,1.28,-578.362,-566.08)"
         id="path22088"
         sodipodi:nodetypes="csscscsccsc" />
    </g>
  </g>
</svg>
