<?xml version="1.0" encoding="UTF-8" standalone="no"?>
<!-- Created with Inkscape (http://www.inkscape.org/) -->
<svg
   xmlns:dc="http://purl.org/dc/elements/1.1/"
   xmlns:cc="http://creativecommons.org/ns#"
   xmlns:rdf="http://www.w3.org/1999/02/22-rdf-syntax-ns#"
   xmlns:svg="http://www.w3.org/2000/svg"
   xmlns="http://www.w3.org/2000/svg"
   xmlns:sodipodi="http://sodipodi.sourceforge.net/DTD/sodipodi-0.dtd"
   xmlns:inkscape="http://www.inkscape.org/namespaces/inkscape"
   width="48px"
   height="48px"
   id="svg23291"
   sodipodi:version="0.32"
   inkscape:version="0.46+devel r20659"
   sodipodi:docname="distribute-graph.svg"
   inkscape:output_extension="org.inkscape.output.svg.inkscape">
  <defs
     id="defs23293" />
  <sodipodi:namedview
     id="base"
     pagecolor="#ffffff"
     bordercolor="#666666"
     borderopacity="1.0"
     inkscape:pageopacity="0.0"
     inkscape:pageshadow="2"
     inkscape:zoom="2.4748737"
     inkscape:cx="8.1696559"
     inkscape:cy="29.65133"
     inkscape:current-layer="layer1"
     showgrid="true"
     inkscape:grid-bbox="true"
     inkscape:document-units="px"
     inkscape:window-width="817"
     inkscape:window-height="562"
     inkscape:window-x="5"
     inkscape:window-y="30" />
  <metadata
     id="metadata23296">
    <rdf:RDF>
      <cc:Work
         rdf:about="">
        <dc:format>image/svg+xml</dc:format>
        <dc:type
           rdf:resource="http://purl.org/dc/dcmitype/StillImage" />
        <dc:title />
      </cc:Work>
    </rdf:RDF>
  </metadata>
  <g
     id="layer1"
     inkscape:label="Layer 1"
     inkscape:groupmode="layer">
    <path
       sodipodi:nodetypes="cc"
       style="fill:none;stroke:#000000;stroke-width:1.25704062;stroke-linecap:butt;stroke-linejoin:miter;stroke-miterlimit:4;stroke-opacity:1;stroke-dasharray:none"
       d="M 11.797709,12.652582 5.3634069,17.019856"
       id="path3569" />
    <path
       sodipodi:nodetypes="cc"
       style="fill:none;stroke:#000000;stroke-width:1.23397684;stroke-linecap:butt;stroke-linejoin:miter;stroke-miterlimit:4;stroke-opacity:1;stroke-dasharray:none"
       d="M 3.3999783,22.099996 4.4000127,32.199988"
       id="path3575" />
    <path
       sodipodi:nodetypes="cc"
       style="fill:none;stroke:#000000;stroke-width:1.25704062;stroke-linecap:butt;stroke-linejoin:miter;stroke-miterlimit:4;stroke-opacity:1;stroke-dasharray:none"
       d="m 7.9000049,35.900028 6.7000151,0.49997"
       id="path3577" />
    <path
       style="fill:none;stroke:#000000;stroke-width:1.25704062;stroke-linecap:butt;stroke-linejoin:miter;stroke-miterlimit:4;stroke-opacity:1;stroke-dasharray:none"
       d="m 18.985104,34.100216 3.897401,-8.881893"
       id="path3579" />
    <path
       sodipodi:nodetypes="cc"
       style="fill:none;stroke:#000000;stroke-width:1.25704062;stroke-linecap:butt;stroke-linejoin:miter;stroke-miterlimit:4;stroke-opacity:1;stroke-dasharray:none"
       d="M 22.199943,19.799975 16.701946,13.249767"
       id="path3581" />
    <path
       sodipodi:nodetypes="cc"
       style="fill:none;stroke:#000000;stroke-width:1.25704062;stroke-linecap:butt;stroke-linejoin:miter;stroke-miterlimit:4;stroke-opacity:1;stroke-dasharray:none"
       d="M 26.764306,21.589947 33.60013,20.799961"
       id="path14606" />
    <path
       sodipodi:nodetypes="cc"
       style="fill:none;stroke:#000000;stroke-width:1.25704062;stroke-linecap:butt;stroke-linejoin:miter;stroke-miterlimit:4;stroke-opacity:1;stroke-dasharray:none"
       d="m 37.800108,17.999971 4.620027,-4.635243"
       id="path3585" />
    <path
       sodipodi:nodetypes="cc"
       style="fill:none;stroke:#000000;stroke-width:1.25704062;stroke-linecap:butt;stroke-linejoin:miter;stroke-miterlimit:4;stroke-opacity:1;stroke-dasharray:none"
       d="m 37.800108,23.699984 5.14614,7.315201"
       id="path3587" />
    <path
       transform="matrix(0.60097264,0,0,0.60284018,-182.77047,-118.34993)"
       d="m 333,215 a 5,5 0 1 1 -10,0 5,5 0 1 1 10,0 z"
       sodipodi:ry="5"
       sodipodi:rx="5"
       sodipodi:cy="215"
       sodipodi:cx="328"
       id="use15576"
       style="color:#000000;fill:#99b7d5;fill-opacity:0.70196078;fill-rule:evenodd;stroke:#0000ff;stroke-width:0.81931818;stroke-linecap:butt;stroke-linejoin:round;stroke-miterlimit:0;stroke-opacity:1;stroke-dasharray:none;stroke-dashoffset:0;marker:none;display:inline"
       sodipodi:type="arc" />
    <path
       transform="matrix(0.60097264,0,0,0.60284018,-192.37046,-94.349892)"
       d="m 333,215 a 5,5 0 1 1 -10,0 5,5 0 1 1 10,0 z"
       sodipodi:ry="5"
       sodipodi:rx="5"
       sodipodi:cy="215"
       sodipodi:cx="328"
       id="use15574"
       style="color:#000000;fill:#99b7d5;fill-opacity:0.70196078;fill-rule:evenodd;stroke:#0000ff;stroke-width:0.81931818;stroke-linecap:butt;stroke-linejoin:round;stroke-miterlimit:0;stroke-opacity:1;stroke-dasharray:none;stroke-dashoffset:0;marker:none;display:inline"
       sodipodi:type="arc" />
    <path
       transform="matrix(0.60097264,0,0,0.60283986,-179.46747,-92.871345)"
       d="m 333,215 a 5,5 0 1 1 -10,0 5,5 0 1 1 10,0 z"
       sodipodi:ry="5"
       sodipodi:rx="5"
       sodipodi:cy="215"
       sodipodi:cx="328"
       id="use15578"
       style="color:#000000;fill:#99b7d5;fill-opacity:0.70196078;fill-rule:evenodd;stroke:#0000ff;stroke-width:0.81931818;stroke-linecap:butt;stroke-linejoin:round;stroke-miterlimit:0;stroke-opacity:1;stroke-dasharray:none;stroke-dashoffset:0;marker:none;display:inline"
       sodipodi:type="arc" />
    <path
       transform="matrix(0.60097264,0,0,0.60283986,-173.06745,-107.27136)"
       d="m 333,215 a 5,5 0 1 1 -10,0 5,5 0 1 1 10,0 z"
       sodipodi:ry="5"
       sodipodi:rx="5"
       sodipodi:cy="215"
       sodipodi:cx="328"
       id="use15580"
       style="color:#000000;fill:#99b7d5;fill-opacity:0.70196078;fill-rule:evenodd;stroke:#0000ff;stroke-width:0.81931818;stroke-linecap:butt;stroke-linejoin:round;stroke-miterlimit:0;stroke-opacity:1;stroke-dasharray:none;stroke-dashoffset:0;marker:none;display:inline"
       sodipodi:type="arc" />
    <path
       transform="matrix(0.60097264,0,0,0.60284018,-160.3704,-108.75004)"
       d="m 333,215 a 5,5 0 1 1 -10,0 5,5 0 1 1 10,0 z"
       sodipodi:ry="5"
       sodipodi:rx="5"
       sodipodi:cy="215"
       sodipodi:cx="328"
       id="use15588"
       style="color:#000000;fill:#99b7d5;fill-opacity:0.70196078;fill-rule:evenodd;stroke:#0000ff;stroke-width:0.81931818;stroke-linecap:butt;stroke-linejoin:round;stroke-miterlimit:0;stroke-opacity:1;stroke-dasharray:none;stroke-dashoffset:0;marker:none;display:inline"
       sodipodi:type="arc" />
    <path
       transform="matrix(0.60097264,0,0,0.60284018,-152.37046,-118.34993)"
       d="m 333,215 a 5,5 0 1 1 -10,0 5,5 0 1 1 10,0 z"
       sodipodi:ry="5"
       sodipodi:rx="5"
       sodipodi:cy="215"
       sodipodi:cx="328"
       id="use15590"
       style="color:#000000;fill:#99b7d5;fill-opacity:0.70196078;fill-rule:evenodd;stroke:#0000ff;stroke-width:0.81931818;stroke-linecap:butt;stroke-linejoin:round;stroke-miterlimit:0;stroke-opacity:1;stroke-dasharray:none;stroke-dashoffset:0;marker:none;display:inline"
       sodipodi:type="arc" />
    <path
       transform="matrix(0.60097264,0,0,0.60284018,-152.37046,-95.949864)"
       d="m 333,215 a 5,5 0 1 1 -10,0 5,5 0 1 1 10,0 z"
       sodipodi:ry="5"
       sodipodi:rx="5"
       sodipodi:cy="215"
       sodipodi:cx="328"
       id="use15592"
       style="color:#000000;fill:#99b7d5;fill-opacity:0.70196078;fill-rule:evenodd;stroke:#0000ff;stroke-width:0.81931818;stroke-linecap:butt;stroke-linejoin:round;stroke-miterlimit:0;stroke-opacity:1;stroke-dasharray:none;stroke-dashoffset:0;marker:none;display:inline"
       sodipodi:type="arc" />
    <path
       sodipodi:type="arc"
       style="color:#000000;fill:#99b7d5;fill-opacity:0.70196078;fill-rule:evenodd;stroke:#0000ff;stroke-width:0.81931818;stroke-linecap:butt;stroke-linejoin:round;stroke-miterlimit:0;stroke-opacity:1;stroke-dasharray:none;stroke-dashoffset:0;marker:none;display:inline"
       id="use15554"
       sodipodi:cx="328"
       sodipodi:cy="215"
       sodipodi:rx="5"
       sodipodi:ry="5"
       d="m 333,215 a 5,5 0 1 1 -10,0 5,5 0 1 1 10,0 z"
       transform="matrix(0.60097262,0,0,0.60284034,-193.86758,-110.47145)" />
  </g>
</svg>
