<?xml version="1.0" encoding="UTF-8" standalone="no"?>
<!-- Created with Inkscape (http://www.inkscape.org/) -->
<svg
   xmlns:dc="http://purl.org/dc/elements/1.1/"
   xmlns:cc="http://creativecommons.org/ns#"
   xmlns:rdf="http://www.w3.org/1999/02/22-rdf-syntax-ns#"
   xmlns:svg="http://www.w3.org/2000/svg"
   xmlns="http://www.w3.org/2000/svg"
   xmlns:sodipodi="http://sodipodi.sourceforge.net/DTD/sodipodi-0.dtd"
   xmlns:inkscape="http://www.inkscape.org/namespaces/inkscape"
   width="48px"
   height="48px"
   id="svg5662"
   sodipodi:version="0.32"
   inkscape:version="0.46+devel r20659"
   sodipodi:docname="draw-spiral.svg"
   inkscape:output_extension="org.inkscape.output.svg.inkscape">
  <defs
     id="defs5664" />
  <sodipodi:namedview
     id="base"
     pagecolor="#ffffff"
     bordercolor="#666666"
     borderopacity="1.0"
     inkscape:pageopacity="0.0"
     inkscape:pageshadow="2"
     inkscape:zoom="1.75"
     inkscape:cx="21.13873"
     inkscape:cy="27.778034"
     inkscape:current-layer="layer1"
     showgrid="true"
     inkscape:grid-bbox="true"
     inkscape:document-units="px"
     inkscape:window-width="755"
     inkscape:window-height="630"
     inkscape:window-x="234"
     inkscape:window-y="56"
     showguides="true"
     inkscape:guide-bbox="true" />
  <metadata
     id="metadata5667">
    <rdf:RDF>
      <cc:Work
         rdf:about="">
        <dc:format>image/svg+xml</dc:format>
        <dc:type
           rdf:resource="http://purl.org/dc/dcmitype/StillImage" />
        <dc:title />
      </cc:Work>
    </rdf:RDF>
  </metadata>
  <g
     id="layer1"
     inkscape:label="Layer 1"
     inkscape:groupmode="layer">
    <g
       id="draw_spiral"
       inkscape:label="#draw_arc"
       transform="matrix(2,0,0,2,-170,-300)">
      <path
         id="path225"
         d="m 96.15762,162.8596 c 0.9734,-0.2466 1.42103,1.1976 1.25344,2.0538 -0.35048,1.7905 -2.20576,2.4131 -3.56363,1.8242 -2.11688,-0.9182 -2.80091,-3.9049 -1.91734,-6.147 1.2163,-3.0864 4.58912,-4.0434 7.12105,-2.5881 3.25106,1.8687 4.23186,6.6593 2.58126,10.2402 -2.02684,4.3972 -6.98766,5.6979 -10.67849,3.352 -4.39336,-2.7925 -5.67379,-9.4221 -3.24514,-14.3335 2.82541,-5.7137 9.39039,-7.3599 14.23593,-4.1158 5.5388,3.7082 7.1199,12.1879 3.909,18.4267 -0.0105,0.0204 -0.0211,0.0409 -0.0317,0.0612"
         style="font-size:12px;fill:none;stroke:#000000;stroke-width:1.00000024;stroke-linecap:round;stroke-linejoin:round;stroke-miterlimit:4;stroke-dasharray:none" />
      <rect
         y="150"
         x="85"
         height="24"
         width="24"
         id="rect4211"
         style="color:#000000;fill:none;stroke:none;stroke-width:1;marker:none;display:inline" />
    </g>
  </g>
</svg>
