<?xml version="1.0" encoding="UTF-8" standalone="no"?>
<!-- Created with Inkscape (http://www.inkscape.org/) -->
<svg
   xmlns:dc="http://purl.org/dc/elements/1.1/"
   xmlns:cc="http://creativecommons.org/ns#"
   xmlns:rdf="http://www.w3.org/1999/02/22-rdf-syntax-ns#"
   xmlns:svg="http://www.w3.org/2000/svg"
   xmlns="http://www.w3.org/2000/svg"
   xmlns:sodipodi="http://sodipodi.sourceforge.net/DTD/sodipodi-0.dtd"
   xmlns:inkscape="http://www.inkscape.org/namespaces/inkscape"
   width="48px"
   height="48px"
   id="svg5668"
   sodipodi:version="0.32"
   inkscape:version="0.46+devel r20659"
   sodipodi:docname="text-put-on-path.svg"
   inkscape:output_extension="org.inkscape.output.svg.inkscape">
  <defs
     id="defs5670" />
  <sodipodi:namedview
     id="base"
     pagecolor="#ffffff"
     bordercolor="#666666"
     borderopacity="1.0"
     inkscape:pageopacity="0.0"
     inkscape:pageshadow="2"
     inkscape:zoom="3.5"
     inkscape:cx="17.349053"
     inkscape:cy="34.307435"
     inkscape:current-layer="layer1"
     showgrid="false"
     inkscape:grid-bbox="true"
     inkscape:document-units="px"
     gridtolerance="1"
     inkscape:window-width="770"
     inkscape:window-height="575"
     inkscape:window-x="255"
     inkscape:window-y="52"
     inkscape:snap-global="true">
    <inkscape:grid
       type="xygrid"
       id="grid7154"
       empspacing="5"
       visible="true"
       enabled="true" />
  </sodipodi:namedview>
  <metadata
     id="metadata5673">
    <rdf:RDF>
      <cc:Work
         rdf:about="">
        <dc:format>image/svg+xml</dc:format>
        <dc:type
           rdf:resource="http://purl.org/dc/dcmitype/StillImage" />
        <dc:title />
      </cc:Work>
    </rdf:RDF>
  </metadata>
  <g
     id="layer1"
     inkscape:label="Layer 1"
     inkscape:groupmode="layer">
    <rect
       style="color:#000000;fill:none;stroke-width:0.53149599;stroke-linecap:butt;stroke-linejoin:round;stroke-miterlimit:4;stroke-opacity:1;stroke-dasharray:none;stroke-dashoffset:0;marker:none;display:inline"
       id="use13618"
       width="48"
       height="48"
       x="0.014839736"
       y="0" />
    <g
       id="use13621"
       transform="matrix(3,0,0,3,-839.98517,-132)">
      <path
         d="m 283.5,49.5 1.7679,-1.80656 c 0.5,-0.5 1.5,-0.5 2,0 l 1,1 c 0.5,0.5 0.5,1.5 0,2 L 286.5,52.5 l -6,-6 M 293.7061,45 c -0.2173,-0.36011 -0.8214,-0.60415 -1.2708,-0.5 l -1.9971,0.42262 c -0.5148,0.17433 -0.7976,0.85161 -0.6547,1.29675 l 0.2592,1.91231 c 0.0876,0.4703 0.8162,0.92394 1.3837,0.82963 l 1.5871,-0.28322 c 0.6641,-0.14912 1.0187,-0.68512 0.9865,-1.14375 M 285.5,53.5 c -0.1399,0.48808 -0.5893,0.89879 -1,1 l -2,-0.80656 C 281.8066,53.52383 281.1905,53.85716 281,54.5 l -0.4613,1.84525 c -0.1429,0.69344 0.0625,1.46425 0.6547,1.65475 l 1.9971,0.38394 c 0.6041,0.16961 1.2731,-0.51299 1.3095,-1.07738 0.0677,-1.05151 0.2321,-1.90973 0,-2.80656"
         style="fill:none;stroke:#000000;stroke-width:1px;stroke-linecap:round;stroke-linejoin:round;stroke-opacity:1"
         id="path21286" />
    </g>
    <path
       style="fill:none;stroke:#646464;stroke-width:3.00000072;stroke-linecap:round;stroke-linejoin:round;stroke-miterlimit:0;stroke-opacity:1;stroke-dasharray:none"
       d="m 19.514838,46.499998 c 0,-15 12.000003,-27 27.000003,-27"
       id="path13655"
       sodipodi:nodetypes="cc" />
  </g>
</svg>
