<?xml version="1.0" encoding="UTF-8" standalone="no"?>
<!-- Created with Inkscape (http://www.inkscape.org/) -->

<svg
   xmlns:dc="http://purl.org/dc/elements/1.1/"
   xmlns:cc="http://creativecommons.org/ns#"
   xmlns:rdf="http://www.w3.org/1999/02/22-rdf-syntax-ns#"
   xmlns:svg="http://www.w3.org/2000/svg"
   xmlns="http://www.w3.org/2000/svg"
   xmlns:xlink="http://www.w3.org/1999/xlink"
   xmlns:sodipodi="http://sodipodi.sourceforge.net/DTD/sodipodi-0.dtd"
   xmlns:inkscape="http://www.inkscape.org/namespaces/inkscape"
   width="48"
   height="48"
   id="svg2"
   sodipodi:version="0.32"
   inkscape:version="0.46+devel r21210 custom"
   version="1.0"
   sodipodi:docname="paint-pattern.svg"
   inkscape:output_extension="org.inkscape.output.svg.inkscape">
  <defs
     id="defs4">
    <radialGradient
       inkscape:collect="always"
       xlink:href="#linearGradient11817"
       id="radialGradient19941"
       gradientUnits="userSpaceOnUse"
       gradientTransform="matrix(1,0,0,0.153409,0,-3.121804)"
       cx="763"
       cy="-3.6875"
       fx="763"
       fy="-3.6875"
       r="11" />
    <linearGradient
       inkscape:collect="always"
       id="linearGradient11817">
      <stop
         style="stop-color:black;stop-opacity:1;"
         offset="0"
         id="stop11819" />
      <stop
         style="stop-color:black;stop-opacity:0;"
         offset="1"
         id="stop11821" />
    </linearGradient>
    <linearGradient
       inkscape:collect="always"
       xlink:href="#linearGradient11528"
       id="linearGradient19943"
       gradientUnits="userSpaceOnUse"
       x1="69.1875"
       y1="234.1875"
       x2="76.0625"
       y2="252.02116" />
    <linearGradient
       inkscape:collect="always"
       id="linearGradient11528">
      <stop
         style="stop-color:white;stop-opacity:1;"
         offset="0"
         id="stop11530" />
      <stop
         style="stop-color:white;stop-opacity:0.2360515"
         offset="1"
         id="stop11532" />
    </linearGradient>
  </defs>
  <sodipodi:namedview
     id="base"
     pagecolor="#ffffff"
     bordercolor="#666666"
     borderopacity="1.0"
     inkscape:pageopacity="0.0"
     inkscape:pageshadow="2"
     inkscape:zoom="1.979899"
     inkscape:cx="-3.3376824"
     inkscape:cy="2.2227916"
     inkscape:document-units="px"
     inkscape:current-layer="layer1"
     showgrid="false"
     inkscape:window-width="1024"
     inkscape:window-height="737"
     inkscape:window-x="0"
     inkscape:window-y="1"
     inkscape:snap-page="true"
     inkscape:snap-bbox="true"
     inkscape:snap-nodes="true"
     inkscape:bbox-nodes="false"
     inkscape:snap-object-midpoints="false"
     inkscape:snap-bbox-edge-midpoints="true"
     inkscape:object-nodes="true"
     inkscape:snap-midpoints="true" />
  <metadata
     id="metadata7">
    <rdf:RDF>
      <cc:Work
         rdf:about="">
        <dc:format>image/svg+xml</dc:format>
        <dc:type
           rdf:resource="http://purl.org/dc/dcmitype/StillImage" />
        <dc:title />
      </cc:Work>
    </rdf:RDF>
  </metadata>
  <g
     inkscape:label="Layer 1"
     inkscape:groupmode="layer"
     id="layer1">
    <use
       height="2000"
       width="2000"
       transform="matrix(3.0000002,0,0,3.0000002,-4394.526,-560.64289)"
       id="use20461"
       xlink:href="#node_b"
       y="0"
       x="0" />
    <use
       height="2000"
       width="2000"
       transform="matrix(3.0000002,0,0,3.0000002,-4364.526,-590.64289)"
       id="use20463"
       xlink:href="#node_b"
       y="0"
       x="0" />
    <g
       style="display:inline"
       id="fill_pattern"
       transform="matrix(2.1818182,0,0,2.1818182,-146.18182,-508.36364)">
      <rect
         y="233"
         x="67"
         height="22"
         width="22"
         id="rect19819"
         style="opacity:0.5;fill:#000000;fill-opacity:0;stroke:none" />
      <path
         style="opacity:0.5;fill:url(#radialGradient19941);fill-opacity:1;stroke:none"
         d="m 755,-5.375 c -1.85181,0.3579741 -2.99999,0.8451577 -3,1.375 0,1.1040172 4.92801,1.9999999 11,2 6.07199,0 10.99998,-0.8959826 11,-2 0,-0.5298424 -1.14819,-1.0170259 -3,-1.375 l 0,1.375 -16,0 0,-1.375 z"
         transform="translate(-685,256)"
         id="path19821" />
      <path
         style="fill:#cc0000;fill-opacity:1;stroke:#cc0000;stroke-width:1;stroke-linecap:round;stroke-linejoin:miter;stroke-miterlimit:4;stroke-opacity:1;stroke-dashoffset:0"
         d="m 907,3.5 0,3.84375 c 0.31493,0.093144 0.655,0.15625 1,0.15625 1.932,0 3.5,-1.568 3.5,-3.5 0,-0.1676454 -0.008,-0.3386228 -0.0312,-0.5 L 907,3.5 z m 11.53125,0 C 918.50842,3.6613772 918.5,3.8323546 918.5,4 c 0,1.932 1.568,3.5 3.5,3.5 0.345,0 0.68507,-0.063106 1,-0.15625 L 923,3.5 l -4.46875,0 z M 915,8.5 c -1.932,0 -3.5,1.568 -3.5,3.5 0,1.932 1.568,3.5 3.5,3.5 1.932,0 3.5,-1.568 3.5,-3.5 0,-1.932 -1.568,-3.5 -3.5,-3.5 z m -7,8 c -0.53329,0 -1.0475,0.13013 -1.5,0.34375 l 0,3.65625 4.96875,0 c 0.0228,-0.16138 0.0312,-0.33236 0.0312,-0.5 0,-1.932 -1.568,-3.5 -3.5,-3.5 z m 14,0 c -1.932,0 -3.5,1.568 -3.5,3.5 l 4.5,0 0,-3.34375 C 922.68507,16.563106 922.345,16.5 922,16.5 z"
         transform="translate(-837,232)"
         id="path19823" />
      <path
         id="path19825"
         d="m 69.499971,235.5 16.999993,0 0,17 -16.999993,0 0,-17 z"
         style="fill:none;stroke:#555753;stroke-width:0.99999976;stroke-linecap:round;stroke-linejoin:miter;stroke-miterlimit:4;stroke-opacity:1;stroke-dashoffset:0" />
      <path
         id="path19827"
         d="m 70.499997,236.49978 15.000013,0 0,15.0001 -15.000013,0 0,-15.0001 z"
         style="fill:none;stroke:url(#linearGradient19943);stroke-width:0.99999934;stroke-linecap:round;stroke-linejoin:miter;stroke-miterlimit:4;stroke-opacity:1;stroke-dashoffset:0" />
    </g>
  </g>
</svg>
