<?xml version="1.0" encoding="UTF-8" standalone="no"?>
<!-- Created with Inkscape (http://www.inkscape.org/) -->

<svg
   xmlns:dc="http://purl.org/dc/elements/1.1/"
   xmlns:cc="http://creativecommons.org/ns#"
   xmlns:rdf="http://www.w3.org/1999/02/22-rdf-syntax-ns#"
   xmlns:svg="http://www.w3.org/2000/svg"
   xmlns="http://www.w3.org/2000/svg"
   xmlns:sodipodi="http://sodipodi.sourceforge.net/DTD/sodipodi-0.dtd"
   xmlns:inkscape="http://www.inkscape.org/namespaces/inkscape"
   width="48"
   height="48"
   id="svg2"
   sodipodi:version="0.32"
   inkscape:version="0.46+devel r21210 custom"
   version="1.0"
   sodipodi:docname="snap-bounding-box-edges.svg"
   inkscape:output_extension="org.inkscape.output.svg.inkscape">
  <defs
     id="defs4" />
  <sodipodi:namedview
     id="base"
     pagecolor="#ffffff"
     bordercolor="#666666"
     borderopacity="1.0"
     inkscape:pageopacity="0.0"
     inkscape:pageshadow="2"
     inkscape:zoom="2.8"
     inkscape:cx="5.0703744"
     inkscape:cy="-10.01251"
     inkscape:document-units="px"
     inkscape:current-layer="layer1"
     showgrid="false"
     inkscape:window-width="1024"
     inkscape:window-height="737"
     inkscape:window-x="0"
     inkscape:window-y="1" />
  <metadata
     id="metadata7">
    <rdf:RDF>
      <cc:Work
         rdf:about="">
        <dc:format>image/svg+xml</dc:format>
        <dc:type
           rdf:resource="http://purl.org/dc/dcmitype/StillImage" />
        <dc:title />
      </cc:Work>
    </rdf:RDF>
  </metadata>
  <g
     inkscape:label="Layer 1"
     inkscape:groupmode="layer"
     id="layer1">
    <g
       transform="matrix(3,0,0,3,-3948,-396)"
       style="display:inline"
       id="toggle_snap_to_bbox_path">
      <rect
         y="132"
         x="1316"
         height="16"
         width="16"
         id="rect13630"
         style="opacity:0;fill:#ffffff;fill-opacity:1;fill-rule:nonzero;stroke:none;stroke-width:1;marker:none;visibility:visible;display:inline;overflow:visible;enable-background:accumulate" />
      <g
         transform="translate(-0.2117,0.20541)"
         id="g14427">
        <path
           id="path20051"
           style="fill:#3465a4;fill-opacity:1;fill-rule:evenodd;stroke:none"
           d="m 1320.2117,143.79459 1,0 2,0 0,-1 -2,0 0,-2 -1,0 0,2 0,1 z m 0,-6 1,0 0,2 -1,0 0,-2 z m 0,-3 1,0 0,2 -1,0 0,-2 z m 0,-3 1,0 0,2 -1,0 0,-2 z m 6,11 0,1 -2,0 0,-1 2,0 z m 3,0 0,1 -2,0 0,-1 2,0 z m 3,0 0,1 -2,0 0,-1 2,0 z"
           sodipodi:nodetypes="ccccccccccccccccccccccccccccccccccccccc" />
      </g>
    </g>
  </g>
</svg>
