<?xml version="1.0" encoding="UTF-8" standalone="no"?>
<!-- Created with Inkscape (http://www.inkscape.org/) -->

<svg
   xmlns:dc="http://purl.org/dc/elements/1.1/"
   xmlns:cc="http://creativecommons.org/ns#"
   xmlns:rdf="http://www.w3.org/1999/02/22-rdf-syntax-ns#"
   xmlns:svg="http://www.w3.org/2000/svg"
   xmlns="http://www.w3.org/2000/svg"
   xmlns:xlink="http://www.w3.org/1999/xlink"
   xmlns:sodipodi="http://sodipodi.sourceforge.net/DTD/sodipodi-0.dtd"
   xmlns:inkscape="http://www.inkscape.org/namespaces/inkscape"
   width="48"
   height="48"
   id="svg2"
   sodipodi:version="0.32"
   inkscape:version="0.46+devel r21210 custom"
   version="1.0"
   sodipodi:docname="snap-bounding-box.svg"
   inkscape:output_extension="org.inkscape.output.svg.inkscape">
  <defs
     id="defs4">
    <linearGradient
       id="linearGradient2485-9">
      <stop
         id="stop2486-3"
         offset="0.0000000"
         style="stop-color:#ffffff;stop-opacity:1.0000000" />
      <stop
         id="stop2487-1"
         offset="1.0000000"
         style="stop-color:#aaaaaa;stop-opacity:1.0000000;" />
    </linearGradient>
    <linearGradient
       inkscape:collect="always"
       xlink:href="#linearGradient2485-9"
       id="linearGradient20134"
       gradientUnits="userSpaceOnUse"
       gradientTransform="matrix(1.1250004,0,0,1.1295071,-23.187525,-41.501684)"
       x1="14.714089"
       y1="395.87653"
       x2="13.558011"
       y2="406.5795" />
  </defs>
  <sodipodi:namedview
     id="base"
     pagecolor="#ffffff"
     bordercolor="#666666"
     borderopacity="1.0"
     inkscape:pageopacity="0.0"
     inkscape:pageshadow="2"
     inkscape:zoom="2.8"
     inkscape:cx="5.0703744"
     inkscape:cy="-10.01251"
     inkscape:document-units="px"
     inkscape:current-layer="layer1"
     showgrid="false"
     inkscape:window-width="1024"
     inkscape:window-height="737"
     inkscape:window-x="0"
     inkscape:window-y="1" />
  <metadata
     id="metadata7">
    <rdf:RDF>
      <cc:Work
         rdf:about="">
        <dc:format>image/svg+xml</dc:format>
        <dc:type
           rdf:resource="http://purl.org/dc/dcmitype/StillImage" />
        <dc:title />
      </cc:Work>
    </rdf:RDF>
  </metadata>
  <g
     inkscape:label="Layer 1"
     inkscape:groupmode="layer"
     id="layer1">
    <g
       transform="matrix(2.9961875,0,0,2.9961875,-3877.0666,-395.43575)"
       style="display:inline"
       id="toggle_snap_bbox">
      <rect
         style="opacity:0;fill:#ffffff;fill-opacity:0;fill-rule:nonzero;stroke:none;stroke-width:1;marker:none;visibility:visible;display:inline;overflow:visible;enable-background:accumulate"
         id="rect14408"
         width="16"
         height="16"
         x="1294"
         y="132" />
      <g
         transform="translate(-45.816174,-0.1329783)"
         id="g14420">
        <path
           id="path20126"
           style="fill:#3465a4;fill-opacity:1;fill-rule:evenodd;stroke:none"
           d="m 1342.8367,144.16959 1,0 0,1 1,0 0,-1 2,0 0,-1 -2,0 0,-2 -1,0 0,2 -1,0 0,1 z m 1,-6 1,0 0,2 -1,0 0,-2 z m 0,-3 1,0 0,2 -1,0 0,-2 z m 0,-3 1,0 0,2 -1,0 0,-2 z m 0,14 1,0 -1,0 z m 6,-3 0,1 -2,0 0,-1 2,0 z m 3,0 0,1 -2,0 0,-1 2,0 z m 3,0 0,1 -2,0 0,-1 2,0 z m -14,0 0,1 0,-1 z"
           sodipodi:nodetypes="ccccccccccccccccccccccccccccccccccccccccccccccccc" />
        <g
           id="g20128"
           transform="matrix(0.4714045,-0.4714045,0.4738685,0.4738685,1152.4018,-55.922281)">
          <path
             id="path20130"
             d="m -11.375026,409.73628 6.7500004,0 0,6.77704 -6.7500004,0 0,-6.77704 z"
             style="fill:url(#linearGradient20134);fill-opacity:1;stroke:#888a85;stroke-width:1.49609554;stroke-linecap:round;stroke-linejoin:round;stroke-miterlimit:4;stroke-opacity:1" />
          <path
             sodipodi:nodetypes="ccccc"
             id="path20132"
             d="m -10.250026,410.85544 4.4999998,0 -3e-7,4.47659 -4.4999985,0 -10e-7,-4.47659 z"
             style="fill:none;stroke:#ffffff;stroke-width:0.74804771;stroke-linecap:round;stroke-linejoin:miter;stroke-miterlimit:4;stroke-opacity:1;stroke-dasharray:none" />
        </g>
      </g>
    </g>
  </g>
</svg>
