<?xml version="1.0" encoding="UTF-8" standalone="no"?>
<!-- Created with Inkscape (http://www.inkscape.org/) -->
<svg
   xmlns:dc="http://purl.org/dc/elements/1.1/"
   xmlns:cc="http://web.resource.org/cc/"
   xmlns:rdf="http://www.w3.org/1999/02/22-rdf-syntax-ns#"
   xmlns:svg="http://www.w3.org/2000/svg"
   xmlns="http://www.w3.org/2000/svg"
   xmlns:sodipodi="http://sodipodi.sourceforge.net/DTD/sodipodi-0.dtd"
   xmlns:inkscape="http://www.inkscape.org/namespaces/inkscape"
   id="svg1725"
   sodipodi:version="0.32"
   inkscape:version="0.45+devel"
   width="210mm"
   height="297mm"
   sodipodi:docname="draw-freely.svg"
   inkscape:output_extension="org.inkscape.output.svg.inkscape"
   >
  <defs
     id="defs1727" />
  <sodipodi:namedview
     id="base"
     pagecolor="#ffffff"
     bordercolor="#666666"
     borderopacity="1.0"
     inkscape:pageopacity="1.0000000"
     inkscape:pageshadow="2"
     inkscape:zoom="0.36631945"
     inkscape:cx="441.95763"
     inkscape:cy="529.64183"
     inkscape:window-width="820"
     inkscape:window-height="656"
     inkscape:window-x="134"
     inkscape:window-y="214"
     inkscape:current-layer="svg1725" />
  <metadata
     id="metadata1728">
    <rdf:RDF>
      <cc:Work
         rdf:about="">
        <dc:format>image/svg+xml</dc:format>
        <dc:type
           rdf:resource="http://purl.org/dc/dcmitype/StillImage" />
      </cc:Work>
    </rdf:RDF>
  </metadata>
  <path
     style="font-size:10px;font-style:normal;font-variant:normal;font-weight:normal;font-stretch:normal;line-height:100%;writing-mode:lr-tb;text-anchor:start;fill:#000000;fill-opacity:1;stroke:none;stroke-width:1pt;stroke-linecap:butt;stroke-linejoin:miter;stroke-opacity:1;font-family:Pushkin"
     d="M 217.14156,941.97541 C 216.84284,941.93075 216.4695,942.14531 216.15378,942.30477 C 214.12212,943.29422 212.57482,945.12957 210.88563,946.58527 C 208.28238,948.83484 205.54164,950.86433 202.98321,953.17068 C 202.17437,952.54596 201.52162,951.77159 200.67842,951.19484 C 192.87828,945.79669 183.44166,942.92589 174.00767,942.30477 C 169.25477,941.92756 164.52521,942.36434 159.84903,943.29242 C 150.40056,945.16971 141.02046,947.95257 132.52009,952.51185 C 126.22582,956.00958 120.17217,960.04199 114.41018,964.36583 C 109.77875,967.93234 105.05646,971.89272 101.89791,976.87782 C 100.3607,979.4297 99.180422,982.42336 99.922482,985.43894 C 100.89488,988.77785 103.95087,991.09435 107.16659,992.02423 C 110.57107,993.01218 114.12907,991.74308 117.37368,990.7071 C 126.66856,987.47818 135.85531,983.31119 143.3856,976.87782 C 147.92975,973.00781 152.20194,968.43589 154.2514,962.71946 C 154.938,960.6047 155.64737,958.35868 155.23958,956.13417 C 155.02143,954.60927 152.89833,953.70102 151.61738,954.48769 C 150.65253,955.08874 149.92148,956.00992 149.64194,957.12183 C 150.13273,959.19152 150.19977,961.72217 149.31259,963.70712 C 147.60352,967.63895 144.59537,970.49978 141.41017,973.2559 C 135.93931,977.99384 129.33022,981.42248 122.64196,984.12181 C 119.06507,985.5154 115.32422,986.90625 111.44669,987.08531 C 109.82331,987.04308 108.3312,986.74122 106.83712,986.09725 C 105.238,984.96997 105.32204,982.85991 105.8491,981.15832 C 107.01214,977.77458 109.30672,975.09375 111.77604,972.59719 C 121.13101,963.55253 132.74143,956.69705 145.03197,952.51185 C 151.67408,950.31983 158.4659,948.86482 165.44666,948.23175 C 172.16391,947.74178 179.10369,948.14596 185.532,950.20719 C 190.34398,951.81057 194.93255,954.29372 198.37323,958.10949 C 193.14201,962.16754 187.86712,965.99329 182.56851,969.96305 C 174.31362,976.08244 166.14766,982.30816 157.87372,988.40244 C 150.52563,993.72182 143.26299,999.24836 136.14189,1004.8657 C 131.0538,1008.9618 126.027,1013.1626 121.32483,1017.7066 C 119.7411,1017.2032 118.3039,1016.5494 116.71497,1016.0603 C 112.22051,1014.738 107.6145,1012.9792 102.88597,1012.7676 C 95.495882,1012.5356 88.088944,1013.8136 81.154228,1016.3899 C 78.284912,1017.5332 75.20528,1018.831 73.251845,1021.3286 C 72.044638,1022.8268 72.144442,1024.8439 72.593137,1026.5968 C 73.316591,1029.5956 76.03594,1031.5944 78.849479,1032.5243 C 82.868008,1033.8689 87.166461,1034.113 91.361361,1033.8411 C 99.201612,1033.115 106.71515,1030.5724 114.08083,1027.9148 C 117.08702,1026.7563 120.22811,1025.6832 122.97131,1023.9633 C 128.16981,1025.8159 133.61578,1027.5635 139.10538,1028.2432 C 144.02001,1028.9086 148.80552,1028.1708 153.59309,1026.9264 C 162.20742,1024.6767 170.55352,1020.9774 177.95906,1016.0603 C 187.53946,1009.698 195.24381,1000.9667 201.00737,991.03646 C 203.96636,985.87317 206.86382,980.3912 208.25149,974.57303 C 209.09694,971.29271 208.85497,968.04222 208.90979,964.69477 C 208.73661,962.42996 207.68933,960.2373 206.93436,958.10949 C 208.94222,956.2757 211.16063,954.32156 213.19029,952.51185 C 215.05432,950.80284 216.9387,949.18995 218.12933,946.9147 C 218.52602,946.03654 218.88381,945.23537 218.78792,944.2806 C 218.84454,943.30855 218.03853,942.10917 217.14156,941.97541 z M 545.42132,942.63412 C 543.46997,942.90634 541.66923,944.10867 540.15304,945.26826 C 536.57935,948.31163 533.44123,951.67959 530.2749,955.1464 C 529.60403,956.36155 528.24218,956.58511 526.98194,956.79248 C 520.29817,957.99121 513.33887,958.06917 506.56776,958.10949 C 500.60959,957.9549 494.94754,956.61863 489.11656,955.47535 C 482.76943,954.09598 476.15777,952.84823 469.68952,952.1829 C 459.94721,951.15192 449.80633,951.13811 440.38475,954.15834 C 433.59923,956.35581 427.14268,960.06978 422.6046,965.68296 C 418.77549,970.39978 416.94746,976.4364 417.33592,982.47533 C 417.41843,983.7634 418.23546,985.07525 419.64111,985.10947 C 420.94125,985.2948 421.51059,984.11126 421.94589,983.13416 C 423.011,980.35251 423.85361,977.35642 424.90939,974.57303 C 426.95857,969.46525 430.64367,965.04014 435.44595,962.39011 C 442.13549,958.65764 449.94768,957.46812 457.5066,957.12183 C 465.05586,956.684 472.53248,957.87979 479.89713,959.42662 C 488.06134,961.3151 496.52284,962.95566 504.92128,963.04882 C 513.63836,963.0744 522.49209,962.41644 530.93321,960.08532 C 536.13358,958.66083 540.91748,956.24688 545.09197,952.84121 C 547.5658,950.75725 550.01598,947.68239 550.03077,944.2806 C 550.02645,944.02648 549.88905,944.08884 549.70142,943.95113 C 548.41051,943.24242 546.92102,942.59787 545.42132,942.63412 z M 201.6662,962.71946 C 202.34306,965.05087 202.93553,967.5208 202.98321,969.96305 C 202.982,973.72812 202.01812,977.32759 200.67842,980.82897 C 197.65783,988.475 193.05799,995.2107 187.50744,1001.2438 C 182.33428,1006.9537 175.97267,1011.97 169.06846,1015.4023 C 161.97566,1018.8581 154.60395,1021.4108 146.67845,1021.9877 C 139.85458,1022.4971 133.09965,1020.9044 126.59311,1019.0246 C 128.1127,1017.4009 129.83952,1015.8528 131.53203,1014.4139 C 139.66162,1007.6609 148.30211,1001.8021 156.88554,995.64603 C 164.48771,990.43349 171.86482,985.17612 179.60502,980.17067 C 187.14835,974.66654 194.59678,968.82052 201.6662,962.71946 z M 461.1288,974.24368 C 458.95464,975.25372 457.04233,977.02283 455.20181,978.52418 C 449.54353,983.49054 444.24418,988.86689 438.73839,993.99955 C 437.64741,993.12233 436.69835,992.32975 435.44595,991.69488 C 432.74625,990.55501 429.82562,989.49271 426.88482,989.39009 C 424.74173,989.25935 422.29974,990.38291 421.28756,992.35359 C 420.16445,994.46922 420.11616,996.91502 420.29941,999.26826 C 420.41886,1000.5803 421.64131,1001.6333 422.93355,1001.5734 C 424.10819,1001.3336 423.85805,999.56306 424.25068,998.60914 C 424.54801,997.082 425.85306,995.44139 427.54353,995.31668 C 430.10148,995.22079 432.62664,996.26746 434.78712,997.62186 C 432.4735,999.82886 430.14234,1001.9541 427.87288,1004.207 C 422.35764,1009.6041 416.78724,1014.9559 410.42168,1019.3526 C 407.96637,1020.9366 405.17477,1022.7098 402.1899,1022.9749 C 401.07622,1023.2153 400.2417,1022.0975 400.54354,1021.0002 C 401.26024,1018.6348 403.0771,1016.9244 404.16534,1014.7435 C 404.91644,1013.4721 403.38215,1012.2453 402.1899,1012.4384 C 400.28163,1012.4176 399.17472,1014.2869 398.23875,1015.7319 C 396.87434,1018.0931 395.52633,1020.623 394.94591,1023.3045 C 394.50872,1024.9417 395.52966,1026.401 396.59227,1027.5852 C 397.4921,1028.5353 398.4049,1029.8011 399.88524,1029.5612 C 404.65997,1029.2578 408.81938,1026.8859 412.72646,1024.2929 C 417.77558,1020.8294 422.34729,1016.8586 426.88482,1012.7676 C 431.02784,1009.0657 434.87408,1004.9026 438.73839,1000.9142 C 439.84596,1002.0174 440.99488,1003.1068 442.36059,1003.8774 C 446.26427,1005.8645 450.87675,1006.352 455.20181,1006.5121 C 457.22379,1006.521 459.13132,1006.5353 461.1288,1006.1825 C 462.49593,1005.9397 463.54047,1004.9297 463.43359,1003.549 C 463.28044,1002.9758 462.59886,1002.7263 462.11658,1002.5606 C 458.51483,1001.7938 454.85711,1002.0034 451.25066,1001.2438 C 448.09645,1000.7769 445.17363,999.20526 442.68973,997.29246 C 447.29423,992.93561 451.74255,988.31044 456.18959,983.79246 C 458.5508,981.30618 461.17327,979.06885 463.10423,976.2194 C 464.19927,974.90001 462.2326,973.80678 461.1288,974.24368 z M 623.78673,982.8048 C 621.57255,982.54918 619.29321,983.12423 617.20144,983.79246 C 611.01162,985.96952 605.55478,989.45146 600.07959,993.01189 C 595.95532,995.65467 591.93287,998.70602 588.22602,1001.903 C 583.18716,1006.2835 578.28958,1010.8361 573.73791,1015.7319 C 573.2514,1016.2976 572.57895,1016.7934 572.09195,1017.3783 C 567.37954,1019.0671 562.7414,1021.2289 557.93319,1022.6465 C 554.07095,1023.8214 550.07496,1024.1475 546.07962,1023.3045 C 544.7464,1023.0326 543.10078,1022.2669 543.11613,1020.6706 C 543.26587,1018.8472 544.73918,1017.7336 546.07962,1016.7191 C 548.61448,1015.3623 551.25063,1014.0269 553.65271,1012.4384 C 557.99426,1009.5088 562.50509,1006.6805 566.16496,1002.8902 C 567.64811,1001.2533 569.26332,999.31146 569.12846,996.96302 C 569.11688,995.63425 567.77686,994.47322 566.49432,994.3289 C 565.15458,993.95831 564.02817,994.69422 562.87252,995.31668 C 557.54001,998.21304 552.41977,1001.6855 547.72611,1005.5237 C 543.99718,1008.674 540.20078,1012.0451 537.84785,1016.3899 C 537.60138,1016.878 537.71611,1017.4982 537.5189,1018.0358 C 533.38419,1019.5961 529.25038,1021.3957 525.00662,1022.6465 C 521.14448,1023.8214 517.14839,1024.1475 513.15305,1023.3045 C 511.81993,1023.0326 510.17421,1022.267 510.18956,1020.6706 C 510.22958,1020.1835 510.29919,1019.7572 510.51891,1019.3526 C 510.81371,1019.1658 510.94536,1018.9387 511.17722,1018.695 C 511.34583,1018.4923 511.31238,1018.2204 511.50657,1018.0358 C 512.03551,1017.534 512.60349,1017.1353 513.15305,1016.7191 C 515.68791,1015.3623 518.32365,1014.0269 520.726,1012.4384 C 525.06764,1009.5088 529.5788,1006.6806 533.2384,1002.8902 C 534.72155,1001.2533 536.33635,999.31146 536.20189,996.96302 C 536.18991,995.63425 535.17915,994.47322 533.8967,994.3289 C 532.55737,993.95831 531.10161,994.69422 529.94555,995.31668 C 524.61303,998.21304 519.4933,1001.6855 514.79942,1005.5237 C 511.07061,1008.674 507.60366,1012.0451 505.25064,1016.3899 C 504.997,1016.8925 504.79263,1017.4814 504.59193,1018.0358 C 503.49455,1018.5393 502.41984,1018.9121 501.29949,1019.3526 C 497.80971,1020.8898 494.10172,1021.9473 490.43357,1022.9749 C 486.11518,1024.1681 481.76038,1025.3778 477.26299,1025.6097 C 476.20638,1025.6266 474.65773,1025.8478 474.2995,1024.6213 C 474.03208,1021.7746 475.82805,1019.1174 477.9213,1017.3783 C 481.29286,1014.5298 485.71332,1013.0299 489.77486,1011.4508 C 492.30898,1010.3606 494.96085,1009.7812 497.01886,1007.8289 C 498.1302,1006.8833 498.13678,1005.1345 497.67728,1003.8774 C 497.08979,1002.109 495.0727,1001.6618 493.39707,1001.903 C 489.55835,1002.4801 486.84463,1005.7786 483.18958,1006.8417 C 481.98069,1007.2636 480.3183,1006.9569 479.89713,1005.5237 C 479.53217,1003.8548 479.48724,1002.2699 479.23831,1000.585 C 478.5998,998.80476 476.62266,998.38296 474.9578,998.60914 C 472.83515,999.34106 471.2454,1001.0239 469.68952,1002.5606 C 466.88353,1005.6057 464.14022,1008.6994 461.7871,1012.11 C 460.9395,1013.1674 460.64575,1014.7447 461.1288,1016.0603 C 461.41946,1017.484 463.0286,1018.3296 464.42124,1018.0358 C 465.92684,1016.9661 467.10106,1015.4131 468.37251,1014.0855 C 469.83788,1012.5902 470.97651,1011.0646 472.65302,1009.8048 C 473.87528,1009.8303 475.17981,1010.6463 476.27481,1011.1216 C 477.74206,1011.4038 476.49815,1012.1169 475.94586,1012.7676 C 473.1839,1015.9562 469.85529,1018.971 467.71421,1022.6465 C 466.78153,1024.0392 467.30367,1025.7406 468.37251,1026.9264 C 469.9589,1028.6922 472.01296,1029.9942 474.2995,1030.5484 C 476.27277,1030.7758 478.25046,1030.3591 480.22608,1030.2188 C 483.65104,1029.9512 487.20468,1029.0545 490.43357,1027.9148 C 495.20787,1026.3632 499.71921,1024.451 504.26257,1022.3169 C 504.34243,1022.5442 504.47165,1022.7556 504.59193,1022.9749 C 506.02385,1025.3568 508.56985,1026.6154 511.17722,1027.256 C 517.10476,1028.6058 523.28933,1027.4671 528.95777,1025.6097 C 531.6584,1024.6802 534.23819,1023.4541 536.86019,1022.3169 C 536.94089,1022.5493 537.06645,1022.7509 537.18955,1022.9749 C 538.62147,1025.3568 541.49642,1026.6154 544.10419,1027.256 C 550.03123,1028.6058 556.21599,1027.4671 561.88434,1025.6097 C 564.72174,1024.6341 567.36898,1023.1981 570.11611,1021.9877 C 570.35195,1024.1783 571.65118,1026.4443 573.73791,1027.256 C 575.84465,1028.0878 578.14219,1027.4538 580.32372,1027.256 C 586.52306,1026.3617 592.87203,1025.1157 598.76258,1022.9749 C 602.58246,1021.5261 606.18072,1019.5912 609.95744,1018.0358 C 610.79999,1017.685 611.43637,1017.1426 612.26252,1016.7191 C 612.37761,1016.9459 612.41942,1017.1701 612.59146,1017.3783 C 614.28205,1019.2418 617.04867,1020.0657 619.50623,1020.0118 C 623.68995,1019.7974 627.69344,1018.5418 631.68915,1017.3783 C 624.98802,1023.4696 618.53222,1029.9456 611.93316,1036.1462 C 611.07209,1037.1263 609.74646,1037.4674 608.64031,1038.1218 C 602.00606,1042.0654 595.4249,1045.8742 588.88433,1049.9755 C 582.15637,1054.1411 575.65773,1058.9008 569.45781,1063.8044 C 563.6059,1068.4066 558.16085,1073.258 552.99426,1078.6221 C 549.44884,1082.3594 545.87874,1086.224 543.44548,1090.805 C 542.55257,1092.6422 541.51149,1095.0703 542.45783,1097.0604 C 543.0359,1098.0433 543.65616,1099.2555 544.76261,1099.694 C 546.11381,1099.9232 547.75643,1099.4322 549.04312,1099.0364 C 553.5589,1097.4196 557.24042,1094.4879 560.89668,1091.463 C 564.22458,1088.5253 567.50619,1085.2478 570.77482,1082.2428 C 580.23942,1073.3356 589.96685,1064.8207 599.42089,1055.9026 C 607.0257,1048.6308 614.412,1041.3226 621.81118,1033.8411 C 624.0638,1032.6703 626.45583,1031.3581 628.72566,1030.2188 C 636.49915,1026.2506 644.45731,1022.8857 652.4332,1019.3526 C 656.62235,1017.3853 660.96258,1016.0777 665.27443,1014.4139 C 666.33558,1013.8704 667.95056,1013.5347 668.56739,1012.4384 C 668.57904,1011.9393 668.35499,1011.3904 667.90856,1011.1216 C 666.55116,1010.4387 664.99312,1011.0774 663.62806,1011.4508 C 655.01753,1014.5191 646.241,1017.3115 637.61614,1020.3414 C 637.15551,1020.3872 635.46523,1021.533 636.29913,1020.6706 C 639.57205,1017.0805 643.26602,1014.0793 646.83557,1010.792 C 648.515,1009.1628 650.14234,1007.488 651.44514,1005.5237 C 651.78607,1004.4528 651.35624,1002.3564 649.79906,1002.8902 C 647.0081,1003.7499 644.75711,1005.4211 642.22571,1006.8417 C 638.3303,1009.0198 634.47785,1011.3178 630.37214,1013.0972 C 627.04755,1014.5052 623.50175,1015.7322 619.83558,1015.4023 C 618.52299,1015.4044 617.10858,1014.0515 617.85974,1012.7676 C 619.29092,1009.9961 621.26241,1007.4134 623.45738,1005.1953 C 625.72545,1003.0503 628.48759,1001.7124 631.03085,999.92706 C 631.85285,999.31226 633.47707,998.05226 632.34786,996.96302 C 631.22164,996.36742 629.8693,996.96122 628.72566,997.29246 C 625.13437,998.62042 621.72334,1000.7069 618.84793,1003.2198 C 616.25334,1005.6107 614.05507,1008.2098 612.59146,1011.4508 C 612.44252,1011.8083 612.38326,1012.3768 612.26252,1012.7676 C 610.19413,1013.5523 608.04615,1014.2214 606.00617,1015.0731 C 603.01594,1016.4376 599.92571,1017.7269 596.78675,1018.695 C 592.09061,1020.1581 587.49789,1021.5378 582.62839,1022.3169 C 581.26342,1022.4962 579.45978,1022.7257 578.67724,1021.3286 C 577.84517,1019.4372 578.90928,1017.5693 579.99437,1016.0603 C 582.88749,1012.2807 586.79728,1009.0837 590.53081,1006.1825 C 593.2075,1004.5277 595.99571,1003.0768 598.76258,1001.5734 C 603.22476,999.12226 608.01734,997.20954 612.59146,994.98773 C 615.49218,993.55662 618.37812,992.37731 621.15259,990.7071 C 623.23015,989.39195 625.41953,987.43706 625.43321,984.78012 C 625.50819,983.8 624.77791,982.92174 623.78673,982.8048 z M 206.27565,998.60914 C 204.15351,999.34106 202.56317,1001.0239 201.00737,1002.5606 C 198.20137,1005.6057 195.45807,1008.6994 193.10507,1012.11 C 192.25745,1013.1674 191.96342,1014.7447 192.44665,1016.0603 C 192.73731,1017.484 194.34654,1018.3296 195.73909,1018.0358 C 197.24478,1016.9661 198.41891,1015.4131 199.69036,1014.0855 C 201.15583,1012.5902 202.62371,1011.0646 204.30022,1009.8048 C 205.5226,1009.8303 206.49776,1010.6463 207.59266,1011.1216 C 209.05992,1011.4038 207.81599,1012.1169 207.26371,1012.7676 C 204.50188,1015.9562 201.17305,1018.971 199.03206,1022.6465 C 198.09919,1024.0392 198.62162,1025.7406 199.69036,1026.9264 C 201.27676,1028.6922 203.66027,1029.9942 205.9467,1030.5484 C 207.91988,1030.7758 209.89777,1030.3591 211.87328,1030.2188 C 215.29825,1029.9512 218.52253,1029.0545 221.75142,1027.9148 C 226.61907,1026.333 231.28324,1024.5053 235.90977,1022.3169 C 236.10501,1023.8044 236.73224,1025.2614 237.88561,1026.2684 C 240.02963,1028.3236 242.98142,1028.4858 245.78791,1028.2432 C 253.32734,1027.6596 260.40514,1024.2538 266.53155,1020.0118 C 267.0508,1020.9923 267.65861,1021.9945 268.17804,1022.9749 C 268.88062,1024.7301 270.5743,1025.8026 272.45854,1025.9393 C 278.77176,1026.1243 285.0668,1024.6634 290.89752,1022.3169 C 292.47523,1021.6413 293.94004,1021.0464 295.50738,1020.3414 C 295.4571,1020.4712 295.22737,1020.5394 295.17802,1020.6706 C 294.48862,1022.2307 294.50829,1024.0392 295.17802,1025.6097 C 295.92165,1027.4663 297.93696,1028.0017 299.7876,1027.9148 C 303.7586,1027.5823 307.72112,1026.9576 311.64157,1026.2684 C 318.99102,1025.0687 325.88241,1022.2272 332.71457,1019.3526 C 332.19081,1021.2029 331.91477,1023.0311 331.72691,1024.9505 C 331.44811,1026.6811 333.11331,1027.903 334.68988,1027.9148 C 336.79107,1027.8485 338.50883,1026.6122 340.28751,1025.6097 C 344.09083,1023.2197 347.74993,1020.5326 351.48278,1018.0358 C 355.63907,1015.0399 360.49181,1012.8876 364.98283,1010.4636 C 365.90286,1009.8411 367.01268,1009.3375 367.28762,1008.1585 L 367.28762,1007.8289 C 367.37199,1006.3877 365.97889,1005.5918 364.65348,1005.8533 C 361.66568,1006.263 359.1017,1007.8484 356.42171,1009.1456 C 352.30083,1011.3223 348.26121,1013.709 344.23878,1016.0603 C 343.32852,1016.5884 342.48542,1014.7827 341.60464,1014.4139 C 340.17751,1013.4273 338.51213,1012.1005 336.66572,1012.4384 C 332.79761,1013.3475 329.24165,1015.163 325.47045,1016.3899 C 321.66266,1017.7915 317.53977,1018.3538 313.61688,1019.3526 C 310.28018,1020.1245 307.12211,1021.1166 303.73875,1021.6582 C 302.59767,1021.8592 301.13324,1020.9793 301.76331,1019.6822 C 302.63118,1017.9457 303.83698,1016.5808 305.05576,1015.0731 C 305.80065,1014.601 306.75742,1014.2623 307.03159,1013.4267 C 307.03453,1013.215 306.77166,1013.2498 306.70224,1013.0972 C 306.6561,1012.9961 306.77432,1012.8461 306.70224,1012.7676 C 308.85456,1010.2415 311.46372,1008.3684 313.94624,1006.1825 C 314.61973,1005.4284 315.88514,1004.7275 315.59272,1003.549 C 315.297,1001.9499 313.65851,1001.4715 312.29987,1001.5734 C 310.5529,1001.9618 309.02494,1003.0914 307.68999,1004.207 C 305.16041,1006.5125 302.85507,1009.3513 300.4463,1011.7804 C 299.34834,1012.807 298.58998,1013.8059 297.81216,1015.0731 C 296.14811,1015.8289 294.53158,1016.6155 292.87324,1017.3783 C 288.5507,1019.5844 283.9029,1020.9594 279.04395,1021.3286 C 277.68143,1021.2553 275.85017,1022.0842 274.76333,1021.0002 C 274.14897,1020.039 274.06537,1018.7825 274.43397,1017.7066 C 275.56057,1015.3808 277.79606,1014.057 279.70225,1012.4384 C 280.66335,1011.5394 282.15305,1010.7291 282.66575,1009.4752 C 282.63947,1008.2993 282.35146,1006.6281 281.01926,1006.1825 C 279.3066,1005.995 277.85424,1006.5802 276.40981,1007.4993 C 275.74431,1007.1964 274.93664,1005.9416 274.10503,1005.5237 C 271.75472,1003.8224 268.66899,1003.7246 265.87325,1003.8774 C 257.78983,1004.1044 249.52112,1005.7429 242.82442,1010.4636 C 240.232,1012.2958 237.80723,1014.7489 236.56848,1017.7066 C 235.28735,1018.2884 233.92313,1018.8399 232.61733,1019.3526 C 229.12765,1020.8898 225.74892,1021.9473 222.08077,1022.9749 C 217.76251,1024.1681 213.40723,1025.3778 208.90979,1025.6097 C 207.85309,1025.6266 206.30515,1025.8478 205.9467,1024.6213 C 205.67921,1021.7746 207.47517,1019.1174 209.5685,1017.3783 C 212.94015,1014.5298 217.03125,1013.0299 221.09271,1011.4508 C 223.62684,1010.3606 226.60795,1009.7812 228.66618,1007.8289 C 229.77743,1006.8833 229.45483,1005.1345 228.99513,1003.8774 C 228.40773,1002.109 226.39045,1001.6618 224.71491,1001.903 C 220.87612,1002.4801 218.1624,1005.7786 214.50742,1006.8417 C 213.29844,1007.2636 211.63614,1006.9569 211.21498,1005.5237 C 210.85002,1003.8548 211.13444,1002.2699 210.88563,1000.585 C 210.2466,998.80476 207.94052,998.38296 206.27565,998.60914 z M 264.8856,1009.4752 C 265.91754,1009.5296 267.73813,1009.0563 267.84868,1010.4636 C 267.66155,1011.3286 267.33034,1012.3479 266.86103,1013.0972 C 264.73103,1016.3342 261.3767,1018.032 257.97095,1019.6822 C 254.22962,1021.3614 250.23465,1023.2279 246.11738,1023.6337 C 244.97619,1023.6459 243.69802,1023.8688 242.82442,1022.9749 C 242.01476,1021.7744 242.43886,1020.1504 243.15389,1019.0246 C 244.93267,1016.4494 247.65853,1014.78 250.39748,1013.4267 C 254.92399,1011.3675 259.86705,1009.6966 264.8856,1009.4752 z M 676.14034,1018.3654 C 673.77058,1019.0642 672.0043,1021.4883 672.51854,1023.9633 C 672.83122,1025.9809 674.83386,1027.2766 676.79864,1027.256 C 679.32729,1027.4255 681.44781,1025.014 681.40862,1022.6465 C 681.40806,1022.0261 681.26045,1021.2644 681.07926,1020.6706 C 680.56277,1018.6441 678.05493,1017.9343 676.14034,1018.3654 z M 98.934822,1019.0246 C 101.46591,1019.1174 104.02581,1019.5178 106.50777,1020.0118 C 109.46037,1020.6543 112.44485,1021.6702 115.39784,1022.3169 C 112.94767,1023.5207 110.0825,1024.1031 107.49554,1024.9505 C 101.8743,1026.626 96.20892,1028.4776 90.373672,1029.2316 C 87.534099,1029.4845 84.610837,1029.4424 81.812555,1028.902 C 80.049215,1028.496 78.111128,1027.5436 77.532409,1025.6097 C 76.971567,1024.1377 78.80652,1023.4829 79.837171,1022.9749 C 83.629746,1021.3604 87.310848,1020.425 91.361361,1019.6822 C 93.861602,1019.2105 96.403316,1018.9314 98.934822,1019.0246 z M 598.10388,1050.3047 C 597.60264,1051.0951 597.0774,1051.583 596.45739,1052.2807 C 593.11051,1055.91 589.46487,1059.3831 585.92083,1062.8172 C 576.9219,1071.2726 567.87624,1079.6675 558.92125,1088.1702 C 556.06334,1090.7087 553.06971,1093.2374 549.70142,1095.0849 C 548.7549,1095.4711 547.0494,1096.6717 546.40898,1095.4145 C 545.9489,1094.1201 547.07549,1092.7987 547.72611,1091.7922 C 551.77397,1086.3065 556.38865,1081.4338 561.22604,1076.6465 C 568.15575,1069.7046 576.20566,1064.0681 584.27487,1058.5361 C 588.74279,1055.552 593.16674,1052.4714 598.10388,1050.3047 z"
     id="text1784" />
  <path
     style="fill:#000000;fill-opacity:1;stroke-width:1pt"
     d="M 466.69088,586.64433 L 451.12888,586.64433 L 451.12888,587.64017 L 451.59482,587.64017 C 453.69245,587.64017 453.92518,587.7465 453.92518,588.6361 L 453.92518,589.2504 L 453.92518,599.33459 L 453.92518,599.94907 C 453.92518,600.83858 453.69245,600.94491 451.59482,600.94491 L 451.12888,600.94491 L 451.12888,601.94065 L 467.02734,601.94065 L 467.54529,596.2837 L 466.40568,596.2837 C 466.06987,597.76657 465.47369,599.08028 464.85241,599.69486 C 464.04945,600.54225 462.57338,600.94491 460.39873,600.94491 L 458.68975,600.94491 C 457.91263,600.94491 457.26569,600.81786 457.03237,600.62703 C 456.85147,600.50054 456.8254,600.37272 456.8254,599.92808 L 456.8254,594.52581 L 457.34326,594.52581 C 458.92248,594.52581 459.57001,594.65285 460.08843,595.0974 C 460.76104,595.64878 461.02011,596.32665 461.07211,597.57633 L 462.28902,597.57633 L 462.28902,590.62758 L 461.07211,590.62758 C 460.94253,592.70366 459.90656,593.53006 457.44641,593.53006 L 456.8254,593.53006 L 456.8254,588.69948 C 456.8254,587.78861 457.05862,587.64017 458.45671,587.64017 L 459.80292,587.64017 C 462.08177,587.64017 463.19503,587.83109 464.07588,588.42437 C 464.93017,588.97509 465.55155,590.16126 465.94029,592.06791 L 467.05368,592.06791 L 466.69088,586.64433 z M 432.32964,595.13989 L 435.25552,595.13989 C 437.58637,595.13989 438.80309,594.99163 439.83925,594.58938 C 441.67716,593.86856 442.71344,592.51292 442.71344,590.8395 C 442.71344,589.22977 441.80674,588.00044 440.09813,587.30149 C 439.08801,586.87811 437.48245,586.64433 435.69581,586.64433 L 426.6333,586.64433 L 426.6333,587.64017 L 427.09924,587.64017 C 429.1966,587.64017 429.42941,587.7465 429.42941,588.6361 L 429.42941,589.2504 L 429.42941,599.33459 L 429.42941,599.94907 C 429.42941,600.83858 429.1966,600.94491 427.09924,600.94491 L 426.6333,600.94491 L 426.6333,601.94065 L 435.33337,601.94065 L 435.33337,600.94491 L 434.6599,600.94491 C 432.56236,600.94491 432.32964,600.83858 432.32964,599.94907 L 432.32964,599.33459 L 432.32964,595.13989 z M 432.32964,594.14424 L 432.32964,588.72079 C 432.32964,587.7465 432.48525,587.64017 433.90922,587.64017 L 435.5666,587.64017 C 438.25929,587.64017 439.52808,588.67849 439.52808,590.9241 C 439.52808,593.10651 438.20756,594.14424 435.46296,594.14424 L 432.32964,594.14424 z M 409.80201,586.34804 L 408.7146,586.34804 L 402.75859,598.69884 C 402.24105,599.80081 402.13768,599.94907 401.74934,600.28776 C 401.33472,600.69051 400.60964,600.94491 399.91029,600.94491 L 399.80705,600.94491 L 399.80705,601.94065 L 406.66866,601.94065 L 406.66866,600.94491 L 406.15065,600.94491 C 404.75299,600.94491 404.05357,600.54225 404.05357,599.73725 C 404.05357,599.48285 404.13133,599.18674 404.28648,598.84774 L 405.14127,596.98311 L 412.00279,596.98311 L 413.40119,599.82221 C 413.55671,600.14 413.60844,600.28776 413.60844,600.3944 C 413.60844,600.73299 412.96044,600.94491 412.00279,600.94491 L 410.91528,600.94491 L 410.91528,601.94065 L 418.94266,601.94065 L 418.94266,600.94491 L 418.58026,600.94491 C 417.28481,600.94491 417.00018,600.77547 416.40502,599.58927 L 409.80201,586.34804 z M 408.5331,589.82258 L 411.45908,595.83933 L 405.65882,595.83933 L 408.5331,589.82258 z M 390.66641,586.49617 L 389.68232,586.49617 L 388.64663,587.7465 C 386.80766,586.64433 385.7986,586.32674 384.06355,586.32674 C 381.5517,586.32674 379.47983,587.15314 377.7194,588.86886 C 376.06224,590.47905 375.28512,592.25843 375.28512,594.44084 C 375.28512,598.9959 378.93603,602.25834 384.03761,602.25834 C 388.18059,602.25834 390.82183,600.26704 391.41755,596.70763 L 390.20046,596.53829 C 389.94157,597.66098 389.6305,598.42344 389.16446,599.05929 C 388.10311,600.52126 386.44573,601.26288 384.3481,601.26288 C 380.51599,601.26288 378.70339,599.08028 378.70339,594.52581 C 378.70339,592.13129 379.09145,590.52144 379.97199,589.2504 C 380.77459,588.06391 382.38014,587.32211 384.03761,587.32211 C 385.8502,587.32211 387.45566,588.1063 388.43957,589.46241 C 388.93164,590.16126 389.32001,590.98748 389.91582,592.61888 L 391.05419,592.61888 L 390.66641,586.49617 z M 364.74664,586.51729 L 363.78889,586.51729 L 362.75293,587.78861 C 361.53574,586.83526 359.87864,586.32674 358.04018,586.32674 C 354.64807,586.32674 352.36959,588.1063 352.36959,590.75503 C 352.36959,593.06384 353.76725,594.20802 357.57358,595.01293 L 360.03361,595.52164 C 361.94996,595.9238 362.13102,595.96619 362.67507,596.30565 C 363.45179,596.79259 363.86601,597.49155 363.86601,598.31785 C 363.86601,599.16515 363.47763,599.8642 362.70111,600.43666 C 361.84623,601.05087 360.99222,601.284 359.56797,601.284 C 357.65153,601.284 356.27919,600.79646 355.06229,599.69486 C 353.97468,598.69884 353.43088,597.70309 353.04269,596.07215 L 351.92934,596.07215 L 352.03257,602.11027 L 353.04269,602.11027 L 354.2075,600.66951 C 355.94255,601.83441 357.39332,602.25834 359.64518,602.25834 C 363.45179,602.25834 365.88588,600.43666 365.88588,597.59732 C 365.88588,596.2837 365.34207,595.16119 364.3327,594.35615 C 363.63319,593.80518 362.62335,593.4451 360.55156,593.02117 L 357.78101,592.44945 C 355.4766,591.96232 354.3889,591.13592 354.3889,589.84357 C 354.3889,588.36089 355.86488,587.34319 358.06575,587.34319 C 359.87864,587.34319 361.35425,587.97944 362.39003,589.18683 C 363.14099,590.05531 363.60694,590.94509 363.94395,592.02571 L 365.05725,592.02571 L 364.74664,586.51729 z M 329.73795,595.01293 L 329.73795,589.2504 L 329.73795,588.6361 C 329.73795,587.7465 329.97071,587.64017 332.06844,587.64017 L 332.56042,587.64017 L 332.56042,586.64433 L 324.04134,586.64433 L 324.04134,587.64017 L 324.50756,587.64017 C 326.60491,587.64017 326.83727,587.7465 326.83727,588.6361 L 326.83727,589.2504 L 326.83727,599.33459 L 326.83727,599.94907 C 326.83727,600.83858 326.60491,600.94491 324.50756,600.94491 L 324.04134,600.94491 L 324.04134,601.94065 L 332.56042,601.94065 L 332.56042,600.94491 L 332.06844,600.94491 C 329.97071,600.94491 329.73795,600.83858 329.73795,599.94907 L 329.73795,599.33459 L 329.73795,596.64415 L 332.74182,594.16563 L 337.2471,599.56772 C 337.66173,600.07612 337.76496,600.24559 337.76496,600.45806 C 337.76496,600.79646 337.27354,600.94491 336.00435,600.94491 L 335.20138,600.94491 L 335.20138,601.94065 L 344.05729,601.94065 L 344.05729,600.94491 L 343.56541,600.94491 C 342.14125,600.94491 341.77826,600.79646 341.02758,599.88569 L 334.7616,592.49184 L 338.62002,589.33536 C 339.86259,588.25456 341.4418,587.64017 342.99554,587.64017 L 342.99554,586.64433 L 335.01998,586.64433 L 335.01998,587.64017 L 335.66789,587.64017 C 336.85932,587.64017 337.35074,587.83109 337.35074,588.27583 C 337.35074,588.57234 336.83288,589.18683 336.08211,589.8009 L 329.73795,595.01293 z M 300.78851,586.64433 L 295.45429,586.64433 L 295.45429,587.64017 L 296.10173,587.64017 C 297.42234,587.64017 298.01796,587.8097 298.484,588.3399 L 298.484,597.3431 C 298.484,600.24559 297.96577,600.85985 295.48026,600.94491 L 295.48026,601.94065 L 302.86048,601.94065 L 302.86048,600.94491 C 300.39986,600.85985 299.88231,600.24559 299.88231,597.3431 L 299.88231,589.4834 L 311.43138,602.23735 L 312.5188,602.23735 L 312.5188,591.24188 C 312.5188,588.3399 313.03625,587.72514 315.52225,587.64017 L 315.52225,586.64433 L 308.14232,586.64433 L 308.14232,587.64017 C 310.60225,587.72514 311.12021,588.3399 311.12021,591.24188 L 311.12021,597.89411 L 300.78851,586.64433 z M 283.95759,589.2504 L 283.95759,588.6361 C 283.95759,587.7465 284.19054,587.64017 286.26182,587.64017 L 286.77978,587.64017 L 286.77978,586.64433 L 278.20888,586.64433 L 278.20888,587.64017 L 278.72683,587.64017 C 280.82428,587.64017 281.05719,587.7465 281.05719,588.6361 L 281.05719,589.2504 L 281.05719,599.33459 L 281.05719,599.94907 C 281.05719,600.83858 280.82428,600.94491 278.72683,600.94491 L 278.20888,600.94491 L 278.20888,601.94065 L 286.77978,601.94065 L 286.77978,600.94491 L 286.26182,600.94491 C 284.19054,600.94491 283.95759,600.83858 283.95759,599.94907 L 283.95759,599.33459 L 283.95759,589.2504 z"
     id="path1790" />
  <rect
     style="fill:none;fill-opacity:0.75000000;fill-rule:evenodd;stroke:none;stroke-width:1.2500000;stroke-linecap:butt;stroke-linejoin:miter;stroke-miterlimit:4.0000000;stroke-dashoffset:0.0000000;stroke-opacity:1.0000000;"
     id="rect2417"
     width="121.38228"
     height="108.26424"
     x="154.73230"
     y="423.67596"
     rx="6.1828303"
     ry="0.0000000"
     inkscape:export-filename="/home/d/ink/draw-freely.png"
     inkscape:export-xdpi="475.20001"
     inkscape:export-ydpi="475.20001" />
  <g
     id="inkscape-logo"
     transform="matrix(0.4657141,0,0,0.4657141,284.1543,392.3856)">
    <path
       d="M 163.15,27.83 L 28.81,165.3 C -16.58,221.51 59.7,214.97 92.4,231.16 C 104.13,243.15 47.44,252 59.17,264 C 70.9,275.99 130.1,287.1 141.85,299.09 C 153.58,311.08 117.84,323.8 129.57,335.79 C 141.3,347.78 168.43,336.42 173.51,364.1 C 177.13,383.88 222.4,372.6 244.54,356.4 C 256.27,344.4 222.1,345.53 233.83,333.54 C 263,303.71 290.16,322.7 300.14,292.81 C 305.07,278.04 257.2,270.04 268.95,258.05 C 302.7,238.34 419.35,225.51 364,170.16 L 224.75,27.83 C 207.72,11.48 179.3,11.3 163.15,27.83 z M 317.46,292.81 C 317.46,299.63 367.71,304.1 367.71,291.2 C 360.55,270.48 323.4,271.88 317.46,292.81 z M 91.1,329.05 C 103,339.34 121.38,326.49 126.89,312.13 C 115.36,296.81 72.2,312.68 91.1,329.05 z M 311.16,306.82 C 295.82,320.58 312.88,334.54 328,325.65 C 331.37,322.23 327.91,310.24 311.16,306.82 z"
       id="path2313" />
    <path
       d="M 131,238.6 C 134.59,240.83 188.89,251.86 202.16,254.06 C 206.76,255.03 203.5,259.77 197.16,262.97 C 182.86,266.77 113.5,238.6 131,238.6 z"
       id="path2315"
       style="fill:#ffffff" />
    <path
       d="M 216.63,37.47 L 269.78,91.45 C 274.82,96.6 274.75,106.58 271.93,109.45 L 245.54,88.34 L 240.35,119.6 L 218.3,107.96 L 182.99,130.27 L 171.3,83.24 L 152.33,116.06 L 123.33,116.06 C 111.51,116.06 110.12,101.06 120.86,90.32 C 139.62,70.07 161.15,49.43 172.85,37.47 C 184.61,25.45 205.1,25.79 216.63,37.47 z"
       id="path2317"
       style="fill:#ffffff" />
  </g>
</svg>
