<?xml version="1.0" encoding="UTF-8" standalone="no"?>
<!-- Created with Inkscape (http://www.inkscape.org/) -->

<svg
   xmlns:jessyink="https://launchpad.net/jessyink"
   xmlns:dc="http://purl.org/dc/elements/1.1/"
   xmlns:cc="http://creativecommons.org/ns#"
   xmlns:rdf="http://www.w3.org/1999/02/22-rdf-syntax-ns#"
   xmlns:svg="http://www.w3.org/2000/svg"
   xmlns="http://www.w3.org/2000/svg"
   xmlns:xlink="http://www.w3.org/1999/xlink"
   xmlns:sodipodi="http://sodipodi.sourceforge.net/DTD/sodipodi-0.dtd"
   xmlns:inkscape="http://www.inkscape.org/namespaces/inkscape"
   width="478.3808"
   height="320.73016"
   id="svg2"
   sodipodi:version="0.32"
   inkscape:version="0.47 r22583"
   version="1.0"
   sodipodi:docname="jessyInk_video.svg"
   inkscape:output_extension="org.inkscape.output.svg.inkscape">
  <defs
     id="defs4">
    <linearGradient
       id="linearGradient3654">
      <stop
         style="stop-color:#ffffff;stop-opacity:1;"
         offset="0"
         id="stop3656" />
      <stop
         style="stop-color:#bebebe;stop-opacity:1;"
         offset="1"
         id="stop3658" />
    </linearGradient>
    <linearGradient
       id="linearGradient3398">
      <stop
         style="stop-color:#d6d6d6;stop-opacity:1;"
         offset="0"
         id="stop3400" />
      <stop
         style="stop-color:#ffffff;stop-opacity:1;"
         offset="1"
         id="stop3402" />
    </linearGradient>
    <linearGradient
       id="linearGradient3388">
      <stop
         style="stop-color:#dfdfdf;stop-opacity:1;"
         offset="0"
         id="stop3390" />
      <stop
         style="stop-color:#ffffff;stop-opacity:1;"
         offset="1"
         id="stop3392" />
    </linearGradient>
    <linearGradient
       id="linearGradient3327">
      <stop
         style="stop-color:#859df1;stop-opacity:1;"
         offset="0"
         id="stop3329" />
      <stop
         style="stop-color:#ffffff;stop-opacity:1;"
         offset="1"
         id="stop3331" />
    </linearGradient>
    <linearGradient
       inkscape:collect="always"
       xlink:href="#linearGradient2953"
       id="linearGradient2985"
       x1="154.24722"
       y1="110.70377"
       x2="134.85132"
       y2="87.365448"
       gradientUnits="userSpaceOnUse"
       gradientTransform="matrix(0.9962198,-0.08686864,0.08686864,0.9962198,-7.0296853,12.597208)" />
    <linearGradient
       inkscape:collect="always"
       xlink:href="#linearGradient2953"
       id="linearGradient2977"
       x1="129.11227"
       y1="115.96979"
       x2="120.07692"
       y2="96.278084"
       gradientUnits="userSpaceOnUse"
       gradientTransform="translate(0.441989,-0.2209945)" />
    <linearGradient
       inkscape:collect="always"
       xlink:href="#linearGradient2953"
       id="linearGradient2968"
       x1="110.75861"
       y1="116.03537"
       x2="106.21297"
       y2="98.169502"
       gradientUnits="userSpaceOnUse" />
    <linearGradient
       id="linearGradient2953">
      <stop
         style="stop-color:#2502ff;stop-opacity:1;"
         offset="0"
         id="stop2955" />
      <stop
         style="stop-color:#a8a5ff;stop-opacity:1;"
         offset="1"
         id="stop2958" />
    </linearGradient>
    <linearGradient
       inkscape:collect="always"
       xlink:href="#linearGradient2953"
       id="linearGradient2960"
       x1="108.78014"
       y1="92.046555"
       x2="104.73283"
       y2="88.124817"
       gradientUnits="userSpaceOnUse" />
    <linearGradient
       inkscape:collect="always"
       xlink:href="#linearGradient2913"
       id="linearGradient2919"
       x1="35.085781"
       y1="55.376659"
       x2="25.629274"
       y2="92.503731"
       gradientUnits="userSpaceOnUse"
       gradientTransform="matrix(0.8103484,0,0,0.8087248,2.2289552,16.936481)" />
    <linearGradient
       inkscape:collect="always"
       xlink:href="#linearGradient2913"
       id="linearGradient2927"
       x1="118.00729"
       y1="86.390717"
       x2="156.74582"
       y2="86.390717"
       gradientUnits="userSpaceOnUse"
       gradientTransform="matrix(0.8103484,0,0,0.8087248,14.383651,12.295597)" />
    <linearGradient
       inkscape:collect="always"
       xlink:href="#linearGradient2913"
       id="linearGradient2943"
       x1="81.277565"
       y1="68.547112"
       x2="91.105675"
       y2="91.024132"
       gradientUnits="userSpaceOnUse"
       gradientTransform="matrix(0.7897017,-0.1817575,0.1813933,0.7881194,-4.8653748,24.856814)" />
    <linearGradient
       inkscape:collect="always"
       xlink:href="#linearGradient2913"
       id="linearGradient2935"
       x1="117.19492"
       y1="96.566895"
       x2="108.4378"
       y2="77.16523"
       gradientUnits="userSpaceOnUse"
       gradientTransform="matrix(0.8103484,0,0,0.8087248,11.876496,9.4552995)" />
    <linearGradient
       id="linearGradient2913">
      <stop
         style="stop-color:#f1ff1d;stop-opacity:1;"
         offset="0"
         id="stop2915" />
      <stop
         style="stop-color:#fba100;stop-opacity:1"
         offset="1"
         id="stop2917" />
    </linearGradient>
    <linearGradient
       inkscape:collect="always"
       xlink:href="#linearGradient2913"
       id="linearGradient2951"
       x1="34.869572"
       y1="85.162331"
       x2="69.447136"
       y2="85.162331"
       gradientUnits="userSpaceOnUse"
       gradientTransform="matrix(0.8103484,0,0,0.8087248,11.67459,15.220437)" />
    <linearGradient
       inkscape:collect="always"
       xlink:href="#linearGradient2955"
       id="linearGradient2970"
       gradientUnits="userSpaceOnUse"
       gradientTransform="matrix(1.0574713,0,0,1.0581729,53.099639,13.989279)"
       x1="22.693371"
       y1="28.950274"
       x2="108.57735"
       y2="84.930939" />
    <linearGradient
       inkscape:collect="always"
       xlink:href="#linearGradient2955"
       id="linearGradient2966"
       gradientUnits="userSpaceOnUse"
       x1="22.693371"
       y1="28.950274"
       x2="108.57735"
       y2="84.930939"
       gradientTransform="matrix(1.0511003,0,0,1.0517241,27.50652,1.2611923)" />
    <linearGradient
       id="linearGradient2955">
      <stop
         style="stop-color:#fbfcff;stop-opacity:1;"
         offset="0"
         id="stop2957" />
      <stop
         style="stop-color:#5258ef;stop-opacity:1;"
         offset="1"
         id="stop2959" />
    </linearGradient>
    <linearGradient
       inkscape:collect="always"
       xlink:href="#linearGradient2955"
       id="linearGradient2972"
       gradientUnits="userSpaceOnUse"
       x1="22.693371"
       y1="28.950274"
       x2="108.57735"
       y2="84.930939"
       gradientTransform="translate(1.5469614,-10.38674)" />
    <inkscape:perspective
       sodipodi:type="inkscape:persp3d"
       inkscape:vp_x="0 : 526.18109 : 1"
       inkscape:vp_y="0 : 1000 : 0"
       inkscape:vp_z="744.09448 : 526.18109 : 1"
       inkscape:persp3d-origin="372.04724 : 350.78739 : 1"
       id="perspective10" />
    <linearGradient
       inkscape:collect="always"
       xlink:href="#linearGradient2955"
       id="linearGradient3333"
       x1="347.24408"
       y1="126.14174"
       x2="400.7677"
       y2="267.53937"
       gradientUnits="userSpaceOnUse"
       gradientTransform="translate(8.5039369,12.755905)" />
    <radialGradient
       inkscape:collect="always"
       xlink:href="#linearGradient3388"
       id="radialGradient3433"
       gradientUnits="userSpaceOnUse"
       gradientTransform="matrix(-0.4883686,0.6863398,-0.5578719,-0.3969566,490.07776,437.40628)"
       cx="176.60922"
       cy="402.68719"
       fx="176.60922"
       fy="402.68719"
       r="30.22246" />
    <linearGradient
       inkscape:collect="always"
       xlink:href="#linearGradient3398"
       id="linearGradient3435"
       gradientUnits="userSpaceOnUse"
       x1="183.88486"
       y1="434.88504"
       x2="177.69821"
       y2="413.2713" />
    <linearGradient
       inkscape:collect="always"
       xlink:href="#linearGradient3398"
       id="linearGradient3437"
       gradientUnits="userSpaceOnUse"
       x1="211.84167"
       y1="415.36514"
       x2="198.24878"
       y2="405.86191" />
    <linearGradient
       inkscape:collect="always"
       xlink:href="#linearGradient3398"
       id="linearGradient3447"
       x1="323.48425"
       y1="440.07874"
       x2="308.64169"
       y2="331.98819"
       gradientUnits="userSpaceOnUse"
       gradientTransform="matrix(0.9709646,0,0,0.7586207,2.3456911,80.73853)" />
    <linearGradient
       inkscape:collect="always"
       xlink:href="#linearGradient3398"
       id="linearGradient3521"
       gradientUnits="userSpaceOnUse"
       gradientTransform="matrix(1.1652108,0,0,1.3041467,-12.256157,-100.64265)"
       x1="323.48425"
       y1="440.07874"
       x2="308.64169"
       y2="331.98819" />
    <radialGradient
       inkscape:collect="always"
       xlink:href="#linearGradient3388"
       id="radialGradient3523"
       gradientUnits="userSpaceOnUse"
       gradientTransform="matrix(-0.4883686,0.6863398,-0.5578719,-0.3969566,490.07776,437.40628)"
       cx="176.60922"
       cy="402.68719"
       fx="176.60922"
       fy="402.68719"
       r="30.22246" />
    <linearGradient
       inkscape:collect="always"
       xlink:href="#linearGradient3398"
       id="linearGradient3525"
       gradientUnits="userSpaceOnUse"
       x1="183.88486"
       y1="434.88504"
       x2="177.69821"
       y2="413.2713" />
    <linearGradient
       inkscape:collect="always"
       xlink:href="#linearGradient3398"
       id="linearGradient3527"
       gradientUnits="userSpaceOnUse"
       x1="211.84167"
       y1="415.36514"
       x2="198.24878"
       y2="405.86191" />
    <inkscape:perspective
       id="perspective2914"
       inkscape:persp3d-origin="0.5 : 0.33333333 : 1"
       inkscape:vp_z="1 : 0.5 : 1"
       inkscape:vp_y="0 : 1000 : 0"
       inkscape:vp_x="0 : 0.5 : 1"
       sodipodi:type="inkscape:persp3d" />
    <inkscape:perspective
       id="perspective2885"
       inkscape:persp3d-origin="0.5 : 0.33333333 : 1"
       inkscape:vp_z="1 : 0.5 : 1"
       inkscape:vp_y="0 : 1000 : 0"
       inkscape:vp_x="0 : 0.5 : 1"
       sodipodi:type="inkscape:persp3d" />
    <inkscape:perspective
       id="perspective4492"
       inkscape:persp3d-origin="0.5 : 0.33333333 : 1"
       inkscape:vp_z="1 : 0.5 : 1"
       inkscape:vp_y="0 : 1000 : 0"
       inkscape:vp_x="0 : 0.5 : 1"
       sodipodi:type="inkscape:persp3d" />
    <linearGradient
       id="linearGradient4061">
      <stop
         style="stop-color:#cccccc;stop-opacity:1;"
         offset="0"
         id="stop4063" />
      <stop
         style="stop-color:#686868;stop-opacity:1;"
         offset="1"
         id="stop4065" />
    </linearGradient>
    <linearGradient
       id="linearGradient4501">
      <stop
         style="stop-color:#cccccc;stop-opacity:1;"
         offset="0"
         id="stop4503" />
      <stop
         style="stop-color:#686868;stop-opacity:1;"
         offset="1"
         id="stop4505" />
    </linearGradient>
    <radialGradient
       inkscape:collect="always"
       xlink:href="#linearGradient4061"
       id="radialGradient4482"
       gradientUnits="userSpaceOnUse"
       gradientTransform="matrix(2.0793653,1.1633659,-0.39752037,0.710516,-120.33298,7.3257338)"
       cx="267.89597"
       cy="424.69434"
       fx="267.89597"
       fy="424.69434"
       r="50.740894" />
    <linearGradient
       id="linearGradient4508">
      <stop
         style="stop-color:#cccccc;stop-opacity:1;"
         offset="0"
         id="stop4510" />
      <stop
         style="stop-color:#686868;stop-opacity:1;"
         offset="1"
         id="stop4512" />
    </linearGradient>
    <radialGradient
       inkscape:collect="always"
       xlink:href="#linearGradient4061"
       id="radialGradient3811"
       gradientUnits="userSpaceOnUse"
       gradientTransform="matrix(2.2261425,0.84939356,-0.2902365,0.76066958,-210.78387,-103.79557)"
       cx="267.89597"
       cy="424.69434"
       fx="267.89597"
       fy="424.69434"
       r="50.740894" />
    <radialGradient
       inkscape:collect="always"
       xlink:href="#linearGradient4061"
       id="radialGradient3813"
       gradientUnits="userSpaceOnUse"
       gradientTransform="matrix(2.2261425,0.84939356,-0.2902365,0.76066958,-196.85663,-8.8111487)"
       cx="267.89597"
       cy="424.69434"
       fx="267.89597"
       fy="424.69434"
       r="50.740894" />
    <radialGradient
       inkscape:collect="always"
       xlink:href="#linearGradient4061"
       id="radialGradient3815"
       gradientUnits="userSpaceOnUse"
       gradientTransform="matrix(2.2261425,0.84939356,-0.2902365,0.76066958,-182.92939,86.173254)"
       cx="267.89597"
       cy="424.69434"
       fx="267.89597"
       fy="424.69434"
       r="50.740894" />
    <radialGradient
       inkscape:collect="always"
       xlink:href="#linearGradient4061"
       id="radialGradient3843"
       gradientUnits="userSpaceOnUse"
       gradientTransform="matrix(2.2261425,0.84939356,-0.2902365,0.76066958,-210.78387,-103.79557)"
       cx="267.89597"
       cy="424.69434"
       fx="267.89597"
       fy="424.69434"
       r="50.740894" />
    <radialGradient
       inkscape:collect="always"
       xlink:href="#linearGradient4061"
       id="radialGradient3845"
       gradientUnits="userSpaceOnUse"
       gradientTransform="matrix(2.2261425,0.84939356,-0.2902365,0.76066958,-196.85663,-8.8111487)"
       cx="267.89597"
       cy="424.69434"
       fx="267.89597"
       fy="424.69434"
       r="50.740894" />
    <radialGradient
       inkscape:collect="always"
       xlink:href="#linearGradient4061"
       id="radialGradient3847"
       gradientUnits="userSpaceOnUse"
       gradientTransform="matrix(2.2261425,0.84939356,-0.2902365,0.76066958,-182.92939,86.173254)"
       cx="267.89597"
       cy="424.69434"
       fx="267.89597"
       fy="424.69434"
       r="50.740894" />
    <linearGradient
       inkscape:collect="always"
       xlink:href="#linearGradient3654"
       id="linearGradient3660"
       x1="255.21498"
       y1="420.35464"
       x2="322.05756"
       y2="475.00314"
       gradientUnits="userSpaceOnUse" />
    <linearGradient
       inkscape:collect="always"
       xlink:href="#linearGradient3654"
       id="linearGradient3668"
       x1="252.90028"
       y1="515.85352"
       x2="319.14331"
       y2="564.18585"
       gradientUnits="userSpaceOnUse" />
    <linearGradient
       inkscape:collect="always"
       xlink:href="#linearGradient3654"
       id="linearGradient3676"
       x1="254.72079"
       y1="615.9538"
       x2="317.50601"
       y2="661.42786"
       gradientUnits="userSpaceOnUse" />
  </defs>
  <sodipodi:namedview
     id="base"
     pagecolor="#ffffff"
     bordercolor="#666666"
     borderopacity="1.0"
     gridtolerance="10000"
     guidetolerance="10"
     objecttolerance="10"
     inkscape:pageopacity="0"
     inkscape:pageshadow="2"
     inkscape:zoom="1.5433534"
     inkscape:cx="239.1904"
     inkscape:cy="160.36508"
     inkscape:document-units="px"
     inkscape:current-layer="layer1"
     showgrid="false"
     inkscape:window-width="1268"
     inkscape:window-height="746"
     inkscape:window-x="0"
     inkscape:window-y="25"
     showborder="true"
     inkscape:showpageshadow="false"
     borderlayer="true"
     inkscape:window-maximized="0" />
  <metadata
     id="metadata7">
    <rdf:RDF>
      <cc:Work
         rdf:about="">
        <dc:format>image/svg+xml</dc:format>
        <dc:type
           rdf:resource="http://purl.org/dc/dcmitype/StillImage" />
      </cc:Work>
    </rdf:RDF>
  </metadata>
  <g
     inkscape:label="Layer 1"
     inkscape:groupmode="layer"
     id="layer1"
     transform="translate(-255.05484,-196.27865)">
    <g
       id="g2879"
       transform="translate(-434.78725,69.112709)"
       jessyink:element="core.video">
      <jessyink:video />
      <rect
         style="fill:#b3b3b3;fill-opacity:1;stroke:none"
         id="rect2961"
         width="400"
         height="250"
         x="767.70032"
         y="198.79166"
         rx="0"
         ry="0"
         jessyink:video="rect"
         transform="matrix(0.99999932,-0.00116615,0.00116615,0.99999932,0,0)" />
      <rect
         style="font-size:20px;fill:#dfdfdf;fill-opacity:1;stroke:#000000;stroke-width:3.48164916;stroke-miterlimit:4;stroke-opacity:1;stroke-dasharray:none"
         id="rect2927"
         width="388.22516"
         height="75.056519"
         x="737.79498"
         y="175.88173"
         rx="12"
         ry="11.999999"
         sodipodi:insensitive="true" />
      <text
         xml:space="preserve"
         style="font-size:14px;font-style:normal;font-variant:normal;font-weight:normal;font-stretch:normal;text-align:start;line-height:125%;writing-mode:lr-tb;text-anchor:start;fill:#000000;fill-opacity:1;stroke:none;font-family:Sans;-inkscape-font-specification:Sans"
         x="788.77039"
         y="234.86638"
         id="text2886"
         sodipodi:linespacing="125%"><tspan
           sodipodi:role="line"
           id="tspan2888"
           x="788.77039"
           y="234.86638"
           jessyink:video="url">&lt;replace this text with the url of the movie&gt;</tspan></text>
      <g
         transform="matrix(0.35587188,0.26994219,-0.26994219,0.35587188,800.78552,-70.706091)"
         id="g4309"
         sodipodi:insensitive="true">
        <path
           style="fill:#000000;fill-opacity:1;stroke:none"
           d="m 209.78125,112.53125 0,290.65625 5.25,0 0,-4.21875 c 0,-1.84245 1.5013,-3.34375 3.34375,-3.34375 l 8.34375,0 c 1.84245,0 3.3125,1.5013 3.3125,3.34375 l 0,4.21875 113,0 0,-4.21875 c 0,-1.84245 1.5013,-3.34375 3.34375,-3.34375 l 8.34375,0 c 1.84245,0 3.3125,1.5013 3.3125,3.34375 l 0,4.21875 5.03125,0 0,-290.65625 -5.03125,0 0,3.34375 c 0,1.84245 -1.47005,3.3125 -3.3125,3.3125 l -8.34375,0 c -1.84245,0 -3.34375,-1.47005 -3.34375,-3.3125 l 0,-3.34375 -113,0 0,3.34375 c 0,1.84245 -1.47005,3.3125 -3.3125,3.3125 l -8.34375,0 c -1.84245,0 -3.34375,-1.47005 -3.34375,-3.3125 l 0,-3.34375 -5.25,0 z m 8.59375,13.09375 8.34375,0 c 1.84245,0 3.3125,1.5013 3.3125,3.34375 l 0,6.1875 c 0,1.84245 -1.47005,3.34375 -3.3125,3.34375 l -8.34375,0 c -1.84245,0 -3.34375,-1.5013 -3.34375,-3.34375 l 0,-6.1875 c 0,-1.84245 1.5013,-3.34375 3.34375,-3.34375 z m 128,0 8.34375,0 c 1.84245,0 3.3125,1.5013 3.3125,3.34375 l 0,6.1875 c 0,1.84245 -1.47005,3.34375 -3.3125,3.34375 l -8.34375,0 c -1.84245,0 -3.34375,-1.5013 -3.34375,-3.34375 l 0,-6.1875 c 0,-1.84245 1.5013,-3.34375 3.34375,-3.34375 z m -128,19.28125 8.34375,0 c 1.84245,0 3.3125,1.5013 3.3125,3.34375 l 0,6.1875 c 0,1.84245 -1.47005,3.34375 -3.3125,3.34375 l -8.34375,0 c -1.84245,0 -3.34375,-1.5013 -3.34375,-3.34375 l 0,-6.1875 c 0,-1.84245 1.5013,-3.34375 3.34375,-3.34375 z m 128,0 8.34375,0 c 1.84245,0 3.3125,1.5013 3.3125,3.34375 l 0,6.1875 c 0,1.84245 -1.47005,3.34375 -3.3125,3.34375 l -8.34375,0 c -1.84245,0 -3.34375,-1.5013 -3.34375,-3.34375 l 0,-6.1875 c 0,-1.84245 1.5013,-3.34375 3.34375,-3.34375 z m -128,19.28125 8.34375,0 c 1.84245,0 3.3125,1.5013 3.3125,3.34375 l 0,6.1875 c 0,1.84245 -1.47005,3.34375 -3.3125,3.34375 l -8.34375,0 c -1.84245,0 -3.34375,-1.5013 -3.34375,-3.34375 l 0,-6.1875 c 0,-1.84245 1.5013,-3.34375 3.34375,-3.34375 z m 128,0 8.34375,0 c 1.84245,0 3.3125,1.5013 3.3125,3.34375 l 0,6.1875 c 0,1.84245 -1.47005,3.34375 -3.3125,3.34375 l -8.34375,0 c -1.84245,0 -3.34375,-1.5013 -3.34375,-3.34375 l 0,-6.1875 c 0,-1.84245 1.5013,-3.34375 3.34375,-3.34375 z m -128,19.3125 8.34375,0 c 1.84245,0 3.3125,1.47005 3.3125,3.3125 l 0,6.21875 c 0,1.84245 -1.47005,3.3125 -3.3125,3.3125 l -8.34375,0 c -1.84245,0 -3.34375,-1.47005 -3.34375,-3.3125 l 0,-6.21875 c 0,-1.84245 1.5013,-3.3125 3.34375,-3.3125 z m 128,0 8.34375,0 c 1.84245,0 3.3125,1.47005 3.3125,3.3125 l 0,6.21875 c 0,1.84245 -1.47005,3.3125 -3.3125,3.3125 l -8.34375,0 c -1.84245,0 -3.34375,-1.47005 -3.34375,-3.3125 l 0,-6.21875 c 0,-1.84245 1.5013,-3.3125 3.34375,-3.3125 z m -128,19.28125 8.34375,0 c 1.84245,0 3.3125,1.47005 3.3125,3.3125 l 0,6.21875 c 0,1.84245 -1.47005,3.3125 -3.3125,3.3125 l -8.34375,0 c -1.84245,0 -3.34375,-1.47005 -3.34375,-3.3125 l 0,-6.21875 c 0,-1.84245 1.5013,-3.3125 3.34375,-3.3125 z m 128,0 8.34375,0 c 1.84245,0 3.3125,1.47005 3.3125,3.3125 l 0,6.21875 c 0,1.84245 -1.47005,3.3125 -3.3125,3.3125 l -8.34375,0 c -1.84245,0 -3.34375,-1.47005 -3.34375,-3.3125 l 0,-6.21875 c 0,-1.84245 1.5013,-3.3125 3.34375,-3.3125 z m -128,19.28125 8.34375,0 c 1.84245,0 3.3125,1.47005 3.3125,3.3125 l 0,6.21875 c 0,1.84245 -1.47005,3.3125 -3.3125,3.3125 l -8.34375,0 c -1.84245,0 -3.34375,-1.47005 -3.34375,-3.3125 l 0,-6.21875 c 0,-1.84245 1.5013,-3.3125 3.34375,-3.3125 z m 128,0 8.34375,0 c 1.84245,0 3.3125,1.47005 3.3125,3.3125 l 0,6.21875 c 0,1.84245 -1.47005,3.3125 -3.3125,3.3125 l -8.34375,0 c -1.84245,0 -3.34375,-1.47005 -3.34375,-3.3125 l 0,-6.21875 c 0,-1.84245 1.5013,-3.3125 3.34375,-3.3125 z m -128,19.28125 8.34375,0 c 1.84245,0 3.3125,1.47005 3.3125,3.3125 l 0,6.21875 c 0,1.84245 -1.47005,3.3125 -3.3125,3.3125 l -8.34375,0 c -1.84245,0 -3.34375,-1.47005 -3.34375,-3.3125 l 0,-6.21875 c 0,-1.84245 1.5013,-3.3125 3.34375,-3.3125 z m 128,0 8.34375,0 c 1.84245,0 3.3125,1.47005 3.3125,3.3125 l 0,6.21875 c 0,1.84245 -1.47005,3.3125 -3.3125,3.3125 l -8.34375,0 c -1.84245,0 -3.34375,-1.47005 -3.34375,-3.3125 l 0,-6.21875 c 0,-1.84245 1.5013,-3.3125 3.34375,-3.3125 z m -128,19.28125 8.34375,0 c 1.84245,0 3.3125,1.5013 3.3125,3.34375 l 0,6.1875 c 0,1.84245 -1.47005,3.34375 -3.3125,3.34375 l -8.34375,0 c -1.84245,0 -3.34375,-1.5013 -3.34375,-3.34375 l 0,-6.1875 c 0,-1.84245 1.5013,-3.34375 3.34375,-3.34375 z m 128,0 8.34375,0 c 1.84245,0 3.3125,1.5013 3.3125,3.34375 l 0,6.1875 c 0,1.84245 -1.47005,3.34375 -3.3125,3.34375 l -8.34375,0 c -1.84245,0 -3.34375,-1.5013 -3.34375,-3.34375 l 0,-6.1875 c 0,-1.84245 1.5013,-3.34375 3.34375,-3.34375 z m -128,19.28125 8.34375,0 c 1.84245,0 3.3125,1.5013 3.3125,3.34375 l 0,6.1875 c 0,1.84245 -1.47005,3.34375 -3.3125,3.34375 l -8.34375,0 c -1.84245,0 -3.34375,-1.5013 -3.34375,-3.34375 l 0,-6.1875 c 0,-1.84245 1.5013,-3.34375 3.34375,-3.34375 z m 128,0 8.34375,0 c 1.84245,0 3.3125,1.5013 3.3125,3.34375 l 0,6.1875 c 0,1.84245 -1.47005,3.34375 -3.3125,3.34375 l -8.34375,0 c -1.84245,0 -3.34375,-1.5013 -3.34375,-3.34375 l 0,-6.1875 c 0,-1.84245 1.5013,-3.34375 3.34375,-3.34375 z m -128,19.28125 8.34375,0 c 1.84245,0 3.3125,1.5013 3.3125,3.34375 l 0,6.1875 c 0,1.84245 -1.47005,3.34375 -3.3125,3.34375 l -8.34375,0 c -1.84245,0 -3.34375,-1.5013 -3.34375,-3.34375 l 0,-6.1875 c 0,-1.84245 1.5013,-3.34375 3.34375,-3.34375 z m 128,0 8.34375,0 c 1.84245,0 3.3125,1.5013 3.3125,3.34375 l 0,6.1875 c 0,1.84245 -1.47005,3.34375 -3.3125,3.34375 l -8.34375,0 c -1.84245,0 -3.34375,-1.5013 -3.34375,-3.34375 l 0,-6.1875 c 0,-1.84245 1.5013,-3.34375 3.34375,-3.34375 z m -128,19.3125 8.34375,0 c 1.84245,0 3.3125,1.47005 3.3125,3.3125 l 0,6.21875 c 0,1.84245 -1.47005,3.3125 -3.3125,3.3125 l -8.34375,0 c -1.84245,0 -3.34375,-1.47005 -3.34375,-3.3125 l 0,-6.21875 c 0,-1.84245 1.5013,-3.3125 3.34375,-3.3125 z m 128,0 8.34375,0 c 1.84245,0 3.3125,1.47005 3.3125,3.3125 l 0,6.21875 c 0,1.84245 -1.47005,3.3125 -3.3125,3.3125 l -8.34375,0 c -1.84245,0 -3.34375,-1.47005 -3.34375,-3.3125 l 0,-6.21875 c 0,-1.84245 1.5013,-3.3125 3.34375,-3.3125 z m -128,19.28125 8.34375,0 c 1.84245,0 3.3125,1.47005 3.3125,3.3125 l 0,6.21875 c 0,1.84245 -1.47005,3.3125 -3.3125,3.3125 l -8.34375,0 c -1.84245,0 -3.34375,-1.47005 -3.34375,-3.3125 l 0,-6.21875 c 0,-1.84245 1.5013,-3.3125 3.34375,-3.3125 z m 128,0 8.34375,0 c 1.84245,0 3.3125,1.47005 3.3125,3.3125 l 0,6.21875 c 0,1.84245 -1.47005,3.3125 -3.3125,3.3125 l -8.34375,0 c -1.84245,0 -3.34375,-1.47005 -3.34375,-3.3125 l 0,-6.21875 c 0,-1.84245 1.5013,-3.3125 3.34375,-3.3125 z m -128,19.28125 8.34375,0 c 1.84245,0 3.3125,1.47005 3.3125,3.3125 l 0,6.21875 c 0,1.84245 -1.47005,3.3125 -3.3125,3.3125 l -8.34375,0 c -1.84245,0 -3.34375,-1.47005 -3.34375,-3.3125 l 0,-6.21875 c 0,-1.84245 1.5013,-3.3125 3.34375,-3.3125 z m 128,0 8.34375,0 c 1.84245,0 3.3125,1.47005 3.3125,3.3125 l 0,6.21875 c 0,1.84245 -1.47005,3.3125 -3.3125,3.3125 l -8.34375,0 c -1.84245,0 -3.34375,-1.47005 -3.34375,-3.3125 l 0,-6.21875 c 0,-1.84245 1.5013,-3.3125 3.34375,-3.3125 z m -128,19.28125 8.34375,0 c 1.84245,0 3.3125,1.47005 3.3125,3.3125 l 0,6.21875 c 0,1.84245 -1.47005,3.3125 -3.3125,3.3125 l -8.34375,0 c -1.84245,0 -3.34375,-1.47005 -3.34375,-3.3125 l 0,-6.21875 c 0,-1.84245 1.5013,-3.3125 3.34375,-3.3125 z m 128,0 8.34375,0 c 1.84245,0 3.3125,1.47005 3.3125,3.3125 l 0,6.21875 c 0,1.84245 -1.47005,3.3125 -3.3125,3.3125 l -8.34375,0 c -1.84245,0 -3.34375,-1.47005 -3.34375,-3.3125 l 0,-6.21875 c 0,-1.84245 1.5013,-3.3125 3.34375,-3.3125 z"
           id="path4311"
           transform="translate(0,284.36221)" />
        <rect
           style="fill:url(#linearGradient3660);fill-opacity:1;stroke:none"
           id="rect4313"
           width="101.48179"
           height="82.622345"
           x="235.6795"
           y="405.14673" />
        <rect
           style="fill:url(#linearGradient3668);fill-opacity:1;stroke:none"
           id="rect4315"
           width="101.48179"
           height="82.622345"
           x="235.6795"
           y="501.14676" />
        <rect
           y="597.14679"
           x="235.6795"
           height="82.622345"
           width="101.48179"
           id="rect4317"
           style="fill:url(#linearGradient3676);fill-opacity:1;stroke:none" />
      </g>
      <text
         xml:space="preserve"
         style="font-size:20px;font-style:normal;font-variant:normal;font-weight:bold;font-stretch:normal;text-align:start;line-height:125%;writing-mode:lr-tb;text-anchor:start;fill:#000000;fill-opacity:1;stroke:none;font-family:Sans;-inkscape-font-specification:Sans Bold"
         x="811.12927"
         y="205.86632"
         id="text3701"
         sodipodi:linespacing="125%"
         sodipodi:insensitive="true"><tspan
           sodipodi:role="line"
           id="tspan3703"
           x="811.12927"
           y="205.86632">JessyInk video element</tspan></text>
    </g>
  </g>
</svg>
