<?xml version="1.0" encoding="UTF-8" standalone="no"?>
<!-- Created with Inkscape (http://www.inkscape.org/) -->

<svg xmlns:dc="http://purl.org/dc/elements/1.1/" xmlns:cc="http://creativecommons.org/ns#" xmlns:rdf="http://www.w3.org/1999/02/22-rdf-syntax-ns#" xmlns:svg="http://www.w3.org/2000/svg" xmlns="http://www.w3.org/2000/svg" xmlns:xlink="http://www.w3.org/1999/xlink" xmlns:sodipodi="http://sodipodi.sourceforge.net/DTD/sodipodi-0.dtd" xmlns:inkscape="http://www.inkscape.org/namespaces/inkscape" width="100px" height="100px" viewBox="0 0 100 100" id="SVGRoot" version="1.1" inkscape:version="0.91+devel r14699 custom" sodipodi:docname="seamless_pattern.svg" inkscape:export-xdpi="96" inkscape:export-ydpi="96" enable-background="new">
<defs id="defs4787">
<linearGradient inkscape:collect="always" id="linearGradient4217">
<stop style="stop-color:#ffffff;stop-opacity:1" offset="0" id="stop4213" />
<stop style="stop-color:#ffffff;stop-opacity:0.21960784" offset="1" id="stop4215" />
</linearGradient>
<clipPath clipPathUnits="userSpaceOnUse" id="patternClipPath">
<rect y="0" x="0" height="100" width="100" id="clipPathRect" style="color:#000000;display:inline;overflow:visible;visibility:visible;opacity:1;fill:#ffff00;fill-opacity:1;fill-rule:nonzero;stroke:none;stroke-width:20;stroke-linecap:square;stroke-linejoin:miter;stroke-miterlimit:4;stroke-dasharray:none;stroke-dashoffset:1.09889996;stroke-opacity:1;marker:none;enable-background:accumulate" />
</clipPath>
<marker inkscape:stockid="Arrow2Mend" orient="auto" refY="0.0" refX="0.0" id="Arrow2Mend" style="overflow:visible;" inkscape:isstock="true">
<path id="path19572" style="fill-rule:evenodd;stroke-width:0.625;stroke-linejoin:round;stroke:#000000;stroke-opacity:1;fill:#000000;fill-opacity:1" d="M 8.7185878,4.0337352 L -2.2072895,0.016013256 L 8.7185884,-4.0017078 C 6.9730900,-1.6296469 6.9831476,1.6157441 8.7185878,4.0337352 z " transform="scale(0.6) rotate(180) translate(0,0)" />
</marker>
<radialGradient inkscape:collect="always" xlink:href="#linearGradient4217" id="radialGradient4159" gradientUnits="userSpaceOnUse" cx="50" cy="50" fx="50" fy="50" r="50" />
</defs>
<sodipodi:namedview id="base" pagecolor="#ffffff" bordercolor="#666666" borderopacity="1.0" inkscape:pageopacity="0.0" inkscape:pageshadow="2" inkscape:zoom="0.93166" inkscape:cx="98.45167" inkscape:cy="143.1829" inkscape:document-units="px" inkscape:current-layer="patternLayer" showgrid="false" inkscape:pagecheckerboard="true" inkscape:snap-global="false" />
<metadata id="metadata4790">
<rdf:RDF>
<cc:Work rdf:about="">
<dc:format>image/svg+xml</dc:format>
<dc:type rdf:resource="http://purl.org/dc/dcmitype/StillImage" />
<dc:title></dc:title>
</cc:Work>
</rdf:RDF>
</metadata>
<g inkscape:groupmode="layer" id="patternLayer" inkscape:label="Pattern" style="display:inline">
<g id="g8891" sodipodi:insensitive="true">
<use x="0" y="0" xlink:href="#fullPattern" id="fullPatternClone" transform="translate(200,-100)" width="100" height="100" inkscape:tile-cx="50" inkscape:tile-cy="50" inkscape:tile-w="100" inkscape:tile-h="100" inkscape:tile-x0="100" inkscape:tile-y0="100" />
<use height="100%" width="100%" x="0" y="0" inkscape:tiled-clone-of="#fullPatternClone" xlink:href="#fullPatternClone" transform="translate(0,100)" id="clonePreview1" />
<use height="100%" width="100%" x="0" y="0" inkscape:tiled-clone-of="#fullPatternClone" xlink:href="#fullPatternClone" transform="translate(0,200)" id="clonePreview2" />
<use height="100%" width="100%" x="0" y="0" inkscape:tiled-clone-of="#fullPatternClone" xlink:href="#fullPatternClone" transform="translate(100)" id="clonePreview3" />
<use height="100%" width="100%" x="0" y="0" inkscape:tiled-clone-of="#fullPatternClone" xlink:href="#fullPatternClone" transform="translate(100,100)" id="clonePreview4" />
<use height="100%" width="100%" x="0" y="0" inkscape:tiled-clone-of="#fullPatternClone" xlink:href="#fullPatternClone" transform="translate(100,200)" id="clonePreview5" />
<use height="100%" width="100%" x="0" y="0" inkscape:tiled-clone-of="#fullPatternClone" xlink:href="#fullPatternClone" transform="translate(200)" id="clonePreview6" />
<use height="100%" width="100%" x="0" y="0" inkscape:tiled-clone-of="#fullPatternClone" xlink:href="#fullPatternClone" transform="translate(200,100)" id="clonePreview7" />
<use height="100%" width="100%" x="0" y="0" inkscape:tiled-clone-of="#fullPatternClone" xlink:href="#fullPatternClone" transform="translate(200,200)" id="clonePreview8" />
</g>
<use style="opacity:0.3" height="100%" width="100%" id="phantomBottom" xlink:href="#designBottom" y="0" x="0" sodipodi:insensitive="true" />
<use style="opacity:0.3" height="100%" width="100%" id="phantomTop" xlink:href="#designTop" y="0" x="0" sodipodi:insensitive="true" />
<g id="infoGroup" sodipodi:insensitive="true">
<rect style="opacity:1;fill:#ffffff;fill-opacity:1;fill-rule:evenodd;stroke:none;stroke-width:74.66007233;stroke-linecap:round;stroke-linejoin:round;stroke-miterlimit:4;stroke-dasharray:none;stroke-dashoffset:0;stroke-opacity:1;paint-order:normal" id="rect4130" width="526.66248" height="338.53928" x="-348.83969" y="-380.86212" />
<text xml:space="preserve" style="font-style:normal;font-variant:normal;font-weight:normal;font-stretch:normal;font-size:23.66861534px;line-height:125%;font-family:sans-serif;-inkscape-font-specification:Verdana;letter-spacing:0px;word-spacing:0px;fill:#000000;fill-opacity:1;stroke:none" x="-326.82172" y="-349.80621" id="text8664" sodipodi:linespacing="125%"><tspan style="font-style:normal;font-variant:normal;font-weight:bold;font-stretch:normal;font-family:sans-serif;-inkscape-font-specification:'sans-serif Bold'" sodipodi:role="line" id="tspan8666" x="-326.82172" y="-349.80621">Seamless pattern</tspan></text>
<flowRoot xml:space="preserve" id="infoText" style="font-style:normal;font-variant:normal;font-weight:normal;font-stretch:normal;font-size:13.75px;line-height:125%;font-family:sans-serif;-inkscape-font-specification:sans-serif;letter-spacing:0px;word-spacing:0px;fill:#000000;fill-opacity:1;stroke:none" transform="translate(-709.3014,-231.7039)"><flowRegion id="flowRegion11597"><rect ry="0.97061312" id="rect11599" width="491.7114" height="324.99371" x="383.75671" y="-110.4523" style="font-style:normal;font-variant:normal;font-weight:normal;font-stretch:normal;font-size:13.75px;font-family:sans-serif;-inkscape-font-specification:sans-serif" /></flowRegion><flowPara style="font-style:normal;font-variant:normal;font-weight:normal;font-stretch:normal;font-size:12.5px;font-family:Cantarell;-inkscape-font-specification:Cantarell" id="flowPara6756">Use the layers &quot;<flowSpan style="font-style:normal;font-variant:normal;font-weight:bold;font-stretch:normal;font-family:Cantarell;-inkscape-font-specification:'Cantarell Bold'" id="flowSpan7476">Pattern Foreground</flowSpan>&quot; and &quot;<flowSpan style="font-style:normal;font-variant:normal;font-weight:bold;font-stretch:normal;font-family:Cantarell;-inkscape-font-specification:'Cantarell Bold'" id="flowSpan7478">Pattern Background</flowSpan>&quot; on the pattern page to create your design. The separation into two layers will make it easier for you to create and edit overlapping content like a foreground drawing with a background fill.</flowPara><flowPara style="font-style:normal;font-variant:normal;font-weight:normal;font-stretch:normal;font-size:12.5px;font-family:Cantarell;-inkscape-font-specification:Cantarell" id="flowPara7456" /><flowPara style="font-style:normal;font-variant:normal;font-weight:normal;font-stretch:normal;font-size:12.5px;font-family:Cantarell;-inkscape-font-specification:Cantarell" id="flowPara7458">The layer named &quot;<flowSpan style="font-style:normal;font-variant:normal;font-weight:bold;font-stretch:normal;font-family:Cantarell;-inkscape-font-specification:'Cantarell Bold'" id="flowSpan7480">Pattern</flowSpan>&quot; is for using the seamless pattern, copying it to other documents, adding opacity etc. </flowPara><flowPara style="font-style:normal;font-variant:normal;font-weight:normal;font-stretch:normal;font-size:12.5px;font-family:Cantarell;-inkscape-font-specification:Cantarell" id="flowPara7460">Select the group on the page, and use <flowSpan style="font-style:normal;font-variant:normal;font-weight:bold;font-stretch:normal;font-family:Cantarell;-inkscape-font-specification:'Cantarell Bold'" id="flowSpan7484">Object-&gt;Pattern-&gt;Objects to Pattern</flowSpan> to convert your creation into a fill pattern.</flowPara><flowPara style="font-style:normal;font-variant:normal;font-weight:normal;font-stretch:normal;font-size:12.5px;font-family:Cantarell;-inkscape-font-specification:Cantarell" id="flowPara7462" /><flowPara style="font-style:normal;font-variant:normal;font-weight:normal;font-stretch:normal;font-size:12.5px;font-family:Cantarell;-inkscape-font-specification:Cantarell" id="flowPara7464">The layer &quot;<flowSpan style="font-style:normal;font-variant:normal;font-weight:bold;font-stretch:normal;font-family:Cantarell;-inkscape-font-specification:'Cantarell Bold'" id="flowSpan7482">Preview Background</flowSpan>&quot; provides an easy way to preview your creation if it contains transparency.</flowPara><flowPara style="font-style:normal;font-variant:normal;font-weight:normal;font-stretch:normal;font-size:12.5px;font-family:Cantarell;-inkscape-font-specification:Cantarell" id="flowPara7466">Changing this layer's visibility will not alter the pattern.</flowPara><flowPara style="font-style:normal;font-variant:normal;font-weight:normal;font-stretch:normal;font-size:12.5px;font-family:Cantarell;-inkscape-font-specification:Cantarell" id="flowPara7468" /><flowPara style="font-style:normal;font-variant:normal;font-weight:normal;font-stretch:normal;font-size:12.5px;font-family:Cantarell;-inkscape-font-specification:Cantarell" id="flowPara7470">If an object is moved outside the pattern/page limits, it will be difficult to select it. </flowPara><flowPara style="font-style:normal;font-variant:normal;font-weight:normal;font-stretch:normal;font-size:12.5px;font-family:Cantarell;-inkscape-font-specification:Cantarell" id="flowPara7472">To move it back onto the page, select the object using the rubberband selection (click and drag a selection box) with the selection tool.</flowPara><flowPara style="font-style:normal;font-variant:normal;font-weight:normal;font-stretch:normal;font-size:12.5px;font-family:Cantarell;-inkscape-font-specification:Cantarell" id="flowPara7474">Then move it back onto the page, using the arrow keys or the &quot;Align and Distribute&quot; dialog (Shift+Ctrl+A).</flowPara></flowRoot><path sodipodi:nodetypes="cccc" inkscape:connector-curvature="0" id="path19539" d="m -354.4906,-359.49 h -6.1704 V 51.51566 h 229.6052" style="color:#000000;text-decoration:none;text-decoration-line:none;display:inline;overflow:visible;visibility:visible;fill:none;stroke:#000000;stroke-width:3.77952766;stroke-linecap:butt;stroke-linejoin:miter;stroke-miterlimit:4;stroke-dasharray:none;stroke-dashoffset:0;stroke-opacity:1;marker:none;marker-end:url(#Arrow2Mend);enable-background:accumulate" />
</g>
<g id="textPreview" sodipodi:insensitive="true">
<path d="m -29.56541,100 0,-7.16704 2.00731,0 0,4.51126 1.91761,0 0,-4.24223 2.00731,0 0,4.24223 4.36647,0 0,2.65578 -10.2987,0 z" style="font-style:normal;font-variant:normal;font-weight:bold;font-stretch:normal;font-size:medium;line-height:125%;font-family:sans-serif;-inkscape-font-specification:'sans-serif Bold';letter-spacing:0px;word-spacing:0px;fill:#000000;fill-opacity:1;stroke:none;stroke-width:1px;stroke-linecap:butt;stroke-linejoin:miter;stroke-opacity:1" id="path9845" inkscape:connector-curvature="0" />
<path d="m -22.7433,87.81814 q 0,0.77256 0.26214,1.16575 0.26214,0.38628 0.77256,0.38628 0.46906,0 0.73808,-0.3104 0.26214,-0.31731 0.26214,-0.87604 0,-0.6967 -0.49667,-1.17266 -0.50355,-0.47596 -1.25547,-0.47596 l -0.28278,0 0,1.28303 z m -0.93124,-3.7732 4.40783,0 0,2.49017 -1.14504,0 q 0.70359,0.49666 1.02773,1.11747 0.31735,0.62082 0.31735,1.51066 0,1.20024 -0.69671,1.95213 -0.70359,0.74498 -1.82103,0.74498 -1.35893,0 -1.99355,-0.93123 -0.63462,-0.93812 -0.63462,-2.93854 l 0,-1.45547 -0.19316,0 q -0.58628,0 -0.8553,0.46216 -0.2759,0.46217 -0.2759,1.44168 0,0.79327 0.15859,1.47617 0.15868,0.6829 0.47603,1.26923 l -1.88321,0 q -0.19317,-0.79327 -0.28966,-1.59344 -0.10355,-0.80016 -0.10355,-1.60033 0,-2.09008 0.82778,-3.01441 0.8209,-0.93123 2.67642,-0.93123 z" style="font-style:normal;font-variant:normal;font-weight:bold;font-stretch:normal;font-size:medium;line-height:125%;font-family:sans-serif;-inkscape-font-specification:'sans-serif Bold';letter-spacing:0px;word-spacing:0px;fill:#000000;fill-opacity:1;stroke:none;stroke-width:1px;stroke-linecap:butt;stroke-linejoin:miter;stroke-opacity:1" id="path9847" inkscape:connector-curvature="0" />
<path d="m -26.75105,75.72598 1.87625,0 q -0.33111,0.79327 -0.49658,1.53136 -0.16556,0.73808 -0.16556,1.39338 0,0.7036 0.17932,1.04849 0.17243,0.338 0.53803,0.338 0.29663,0 0.45531,-0.25522 0.15858,-0.26212 0.23453,-0.93122 l 0.0624,-0.43458 q 0.2415,-1.89694 0.79329,-2.55225 0.55189,-0.65531 1.73142,-0.65531 1.23474,0 1.85551,0.91054 0.62086,0.91053 0.62086,2.7178 0,0.76568 -0.12419,1.58654 -0.11722,0.81396 -0.35872,1.67621 l -1.87624,0 q 0.35872,-0.73809 0.53803,-1.51067 0.17941,-0.77947 0.17941,-1.57963 0,-0.72429 -0.20005,-1.08988 -0.20004,-0.3656 -0.59325,-0.3656 -0.33111,0 -0.4897,0.25524 -0.16555,0.24832 -0.25525,1.00019 l -0.055,0.43458 q -0.20692,1.64862 -0.76568,2.31082 -0.55868,0.66221 -1.69684,0.66221 -1.22787,0 -1.82112,-0.84156 -0.59325,-0.84155 -0.59325,-2.57984 0,-0.6829 0.10355,-1.43477 0.10346,-0.75188 0.32415,-1.63483 z" style="font-style:normal;font-variant:normal;font-weight:bold;font-stretch:normal;font-size:medium;line-height:125%;font-family:sans-serif;-inkscape-font-specification:'sans-serif Bold';letter-spacing:0px;word-spacing:0px;fill:#000000;fill-opacity:1;stroke:none;stroke-width:1px;stroke-linecap:butt;stroke-linejoin:miter;stroke-opacity:1" id="path9849" inkscape:connector-curvature="0" />
<path d="m -29.18596,70.67666 2.19351,0 0,-2.54535 1.7659,0 0,2.54535 3.27654,0 q 0.53804,0 0.7312,-0.21383 0.1862,-0.21384 0.1862,-0.84846 l 0,-1.26922 1.7659,0 0,2.11768 q 0,1.46237 -0.60701,2.07628 -0.61398,0.60703 -2.07629,0.60703 l -3.27654,0 0,1.22784 -1.7659,0 0,-1.22784 -2.19351,0 0,-2.46948 z" style="font-style:normal;font-variant:normal;font-weight:bold;font-stretch:normal;font-size:medium;line-height:125%;font-family:sans-serif;-inkscape-font-specification:'sans-serif Bold';letter-spacing:0px;word-spacing:0px;fill:#000000;fill-opacity:1;stroke:none;stroke-width:1px;stroke-linecap:butt;stroke-linejoin:miter;stroke-opacity:1" id="path9851" inkscape:connector-curvature="0" />
<path d="m -20.38415,59.23292 4.05599,0 0,2.46948 -10.66429,0 0,-2.46948 1.13128,0 q -0.67598,-0.51044 -0.99334,-1.13127 -0.32423,-0.62081 -0.32423,-1.42788 0,-1.42787 1.13826,-2.3453 1.13119,-0.91744 2.91782,-0.91744 1.78654,0 2.92471,0.91744 1.13128,0.91743 1.13128,2.3453 0,0.80707 -0.31735,1.42788 -0.32414,0.62083 -1.00013,1.13127 z m -5.00108,-1.64171 q 0,0.79327 0.58637,1.22093 0.5794,0.42078 1.6762,0.42078 1.09671,0 1.68308,-0.42078 0.5794,-0.42766 0.5794,-1.22093 0,-0.79327 -0.5794,-1.20715 -0.5794,-0.42078 -1.68308,-0.42078 -1.10368,0 -1.68317,0.42078 -0.5794,0.41388 -0.5794,1.20715 z" style="font-style:normal;font-variant:normal;font-weight:bold;font-stretch:normal;font-size:medium;line-height:125%;font-family:sans-serif;-inkscape-font-specification:'sans-serif Bold';letter-spacing:0px;word-spacing:0px;fill:#000000;fill-opacity:1;stroke:none;stroke-width:1px;stroke-linecap:butt;stroke-linejoin:miter;stroke-opacity:1" id="path9853" inkscape:connector-curvature="0" />
<path d="m -24.88856,45.83706 q -0.1518,0.3242 -0.22077,0.6484 -0.0761,0.31731 -0.0761,0.64151 0,0.95193 0.61389,1.46927 0.6071,0.51045 1.74526,0.51045 l 3.55932,0 0,2.46948 -7.72574,0 0,-2.46948 1.26923,0 q -0.7588,-0.47595 -1.10367,-1.08988 -0.35185,-0.62081 -0.35185,-1.48306 0,-0.12416 0.0138,-0.26902 0.009,-0.14486 0.0413,-0.42078 l 2.23496,-0.007 z" style="font-style:normal;font-variant:normal;font-weight:bold;font-stretch:normal;font-size:medium;line-height:125%;font-family:sans-serif;-inkscape-font-specification:'sans-serif Bold';letter-spacing:0px;word-spacing:0px;fill:#000000;fill-opacity:1;stroke:none;stroke-width:1px;stroke-linecap:butt;stroke-linejoin:miter;stroke-opacity:1" id="path9855" inkscape:connector-curvature="0" />
<path d="m -23.15027,36.88348 0.7036,0 0,5.77361 q 0.86914,-0.0897 1.30372,-0.62772 0.43457,-0.53804 0.43457,-1.50375 0,-0.77948 -0.22765,-1.59344 -0.23453,-0.82086 -0.70359,-1.6831 l 1.90385,0 q 0.33111,0.87604 0.49667,1.75208 0.17243,0.87604 0.17243,1.75209 0,2.09698 -1.06231,3.26274 -1.06919,1.15886 -2.99368,1.15886 -1.89009,0 -2.97304,-1.13817 -1.08304,-1.14506 -1.08304,-3.14547 0,-1.82107 1.0968,-2.91095 1.0968,-1.09678 2.93167,-1.09678 z m -0.8209,2.53846 q -0.70359,0 -1.13119,0.41388 -0.43458,0.40698 -0.43458,1.06918 0,0.71739 0.40697,1.16576 0.40009,0.44836 1.1588,0.55873 l 0,-3.20755 z" style="font-style:normal;font-variant:normal;font-weight:bold;font-stretch:normal;font-size:medium;line-height:125%;font-family:sans-serif;-inkscape-font-specification:'sans-serif Bold';letter-spacing:0px;word-spacing:0px;fill:#000000;fill-opacity:1;stroke:none;stroke-width:1px;stroke-linecap:butt;stroke-linejoin:miter;stroke-opacity:1" id="path9857" inkscape:connector-curvature="0" />
<path d="m -26.99245,35.99364 0,-2.46947 5.33907,-1.92454 -5.33907,-1.91764 0,-2.47637 7.72574,3.04201 0,2.7109 -7.72574,3.03511 z" style="font-style:normal;font-variant:normal;font-weight:bold;font-stretch:normal;font-size:medium;line-height:125%;font-family:sans-serif;-inkscape-font-specification:'sans-serif Bold';letter-spacing:0px;word-spacing:0px;fill:#000000;fill-opacity:1;stroke:none;stroke-width:1px;stroke-linecap:butt;stroke-linejoin:miter;stroke-opacity:1" id="path9859" inkscape:connector-curvature="0" />
<path d="m -26.99245,25.80534 0,-2.46948 7.72574,0 0,2.46948 -7.72574,0 z m -3.00753,0 0,-2.46948 2.01419,0 0,2.46948 -2.01419,0 z" style="font-style:normal;font-variant:normal;font-weight:bold;font-stretch:normal;font-size:medium;line-height:125%;font-family:sans-serif;-inkscape-font-specification:'sans-serif Bold';letter-spacing:0px;word-spacing:0px;fill:#000000;fill-opacity:1;stroke:none;stroke-width:1px;stroke-linecap:butt;stroke-linejoin:miter;stroke-opacity:1" id="path9861" inkscape:connector-curvature="0" />
<path d="m -23.15027,13.23722 0.7036,0 0,5.77361 q 0.86914,-0.0897 1.30372,-0.62772 0.43457,-0.53805 0.43457,-1.50376 0,-0.77947 -0.22765,-1.59344 -0.23453,-0.82085 -0.70359,-1.6831 l 1.90385,0 q 0.33111,0.87604 0.49667,1.75208 0.17243,0.87605 0.17243,1.75209 0,2.09698 -1.06231,3.26275 -1.06919,1.15885 -2.99368,1.15885 -1.89009,0 -2.97304,-1.13816 -1.08304,-1.14506 -1.08304,-3.14548 0,-1.82106 1.0968,-2.91094 1.0968,-1.09678 2.93167,-1.09678 z m -0.8209,2.53845 q -0.70359,0 -1.13119,0.41389 -0.43458,0.40697 -0.43458,1.06918 0,0.71738 0.40697,1.16575 0.40009,0.44837 1.1588,0.55874 l 0,-3.20756 z" style="font-style:normal;font-variant:normal;font-weight:bold;font-stretch:normal;font-size:medium;line-height:125%;font-family:sans-serif;-inkscape-font-specification:'sans-serif Bold';letter-spacing:0px;word-spacing:0px;fill:#000000;fill-opacity:1;stroke:none;stroke-width:1px;stroke-linecap:butt;stroke-linejoin:miter;stroke-opacity:1" id="path9863" inkscape:connector-curvature="0" />
<path d="m -26.99245,12.06456 0,-2.400495 5.32522,-1.29682 -5.32522,-1.303718 0,-2.062494 5.2701,-1.29682 -5.2701,-1.303717 0,-2.4004958732508 L -19.26671,2.034903 l 0,2.697109 -5.31147,1.303717 5.31147,1.296819 0,2.697112 -7.72574,2.0349 z" style="font-style:normal;font-variant:normal;font-weight:bold;font-stretch:normal;font-size:medium;line-height:125%;font-family:sans-serif;-inkscape-font-specification:'sans-serif Bold';letter-spacing:0px;word-spacing:0px;fill:#000000;fill-opacity:1;stroke:none;stroke-width:1px;stroke-linecap:butt;stroke-linejoin:miter;stroke-opacity:1" id="path9865" inkscape:connector-curvature="0" />
</g>
<g inkscape:label="Helper Layer (don't use)" clip-path="url(#patternClipPath)" id="fullPattern" style="display:inline">
<g inkscape:groupmode="layer" id="designBottom" inkscape:label="Pattern Background">
<rect y="0" x="0" height="100" width="100" id="rect9111" style="color:#000000;display:inline;overflow:visible;visibility:visible;fill:url(#radialGradient4159);fill-opacity:1;fill-rule:nonzero;stroke:none;stroke-width:0;marker:none;enable-background:accumulate" />
</g>
<g inkscape:groupmode="layer" id="designTop" inkscape:label="Pattern Foreground">
<path id="path1790" d="m 84.87396,19.36488 h -4.9936 v 0.31955 h 0.14957 c 0.67301,0 0.74773,0.0342 0.74773,0.31968 v 0.197 3.23589 0.19726 c 0,0.28537 -0.0747,0.31942 -0.74773,0.31942 h -0.14957 v 0.31955 h 5.10156 l 0.16619,-1.81515 h -0.36562 c -0.10782,0.47574 -0.29915,0.89731 -0.49844,1.09457 -0.25767,0.27186 -0.73125,0.40103 -1.42912,0.40103 h -0.54844 c -0.24928,0 -0.45696,-0.0407 -0.53181,-0.10201 -0.058,-0.0405 -0.0663,-0.0815 -0.0663,-0.22416 v -1.73354 h 0.16619 c 0.50668,0 0.71449,0.0407 0.88082,0.18336 0.21578,0.177 0.29901,0.39453 0.31563,0.79542 h 0.39048 v -2.22968 h -0.39048 c -0.0416,0.66626 -0.374,0.93136 -1.16335,0.93136 h -0.19929 v -1.55005 c 0,-0.29226 0.0748,-0.33995 0.52343,-0.33995 h 0.43197 c 0.73125,0 1.08849,0.0613 1.37115,0.25172 0.27415,0.17673 0.47345,0.55735 0.59816,1.16915 h 0.35738 L 84.874,19.36488 Z m -11.02598,2.72609 h 0.93892 c 0.74787,0 1.13835,-0.0476 1.47087,-0.17659 0.58978,-0.23132 0.92216,-0.66639 0.92216,-1.20334 0,-0.51642 -0.2909,-0.91095 -0.8392,-1.13525 -0.32401,-0.13579 -0.8392,-0.21091 -1.4125,-0.21091 h -2.90809 v 0.31955 h 0.14957 c 0.67301,0 0.74773,0.0342 0.74773,0.31968 v 0.197 3.23589 0.19726 c 0,0.28537 -0.0747,0.31942 -0.74773,0.31942 h -0.14957 v 0.31955 h 2.79176 v -0.31955 h -0.21619 c -0.67301,0 -0.74773,-0.034 -0.74773,-0.31942 V 23.437 Z m 0,-0.31941 v -1.74029 c 0,-0.31266 0.05,-0.34684 0.50696,-0.34684 h 0.53181 c 0.86407,0 1.27117,0.33319 1.27117,1.05376 0,0.70031 -0.42372,1.03337 -1.30441,1.03337 z m -7.22869,-2.50167 h -0.34886 l -1.91122,3.96308 c -0.16605,0.3536 -0.19929,0.40129 -0.32387,0.50993 -0.13309,0.12917 -0.36576,0.21078 -0.59018,0.21078 h -0.0331 v 0.31955 h 2.20185 v -0.31955 h -0.16633 c -0.44845,0 -0.67288,-0.12917 -0.67288,-0.38738 0,-0.0817 0.025,-0.17673 0.0747,-0.2855 l 0.27429,-0.59829 h 2.20184 l 0.44872,0.91095 c 0.0499,0.10201 0.0665,0.14944 0.0665,0.18362 0,0.10863 -0.20794,0.1766 -0.5152,0.1766 h -0.349 v 0.31955 h 2.57584 v -0.31955 h -0.11633 c -0.41562,0 -0.50695,-0.0543 -0.69801,-0.43494 L 66.6193,19.26989 Z m -0.4071,1.11484 0.93878,1.93067 H 65.28976 Z M 60.47896,19.31745 H 60.1632 l -0.33225,0.40116 C 59.24076,19.36488 58.91702,19.263 58.36021,19.263 c -0.80596,0 -1.47073,0.26523 -2.03565,0.81569 -0.53182,0.51669 -0.7811,1.08769 -0.7811,1.78799 0,1.46168 1.17145,2.50856 2.80851,2.50856 1.3294,0 2.17685,-0.6391 2.36804,-1.78123 l -0.39049,-0.0543 c -0.0831,0.36036 -0.18294,0.60491 -0.33252,0.80894 -0.34049,0.46912 -0.8723,0.70719 -1.54545,0.70719 -1.22969,0 -1.81122,-0.70043 -1.81122,-2.16185 0,-0.7684 0.12444,-1.28495 0.40696,-1.69286 0.25767,-0.38062 0.77273,-0.61869 1.30468,-0.61869 0.58154,0 1.09673,0.25158 1.4125,0.68679 0.15782,0.22429 0.28253,0.48939 0.47372,1.01283 h 0.36521 l -0.12444,-1.96459 z m -8.31718,0.007 h -0.30739 l -0.33238,0.40791 c -0.39062,-0.3059 -0.9223,-0.46912 -1.51222,-0.46912 -1.08849,0 -1.8196,0.571 -1.8196,1.42101 0,0.74084 0.44845,1.10795 1.6699,1.36629 l 0.78934,0.16322 c 0.61491,0.12904 0.67301,0.14268 0.84758,0.25159 0.24929,0.15619 0.38224,0.38048 0.38224,0.64572 0,0.27185 -0.12471,0.49614 -0.37386,0.6799 -0.27429,0.197 -0.5483,0.27185 -1.0054,0.27185 -0.61491,0 -1.05525,-0.15646 -1.44573,-0.50993 -0.34901,-0.31968 -0.52344,-0.63909 -0.64802,-1.16253 h -0.35738 l 0.0332,1.93756 h 0.32414 l 0.37373,-0.46237 c 0.55668,0.37387 1.02229,0.50993 1.74489,0.50993 1.22144,0 2.00254,-0.58451 2.00254,-1.49573 0,-0.42143 -0.17456,-0.78165 -0.49844,-1.03999 -0.22442,-0.17673 -0.54843,-0.29239 -1.21334,-0.42831 l -0.88906,-0.18349 c -0.73935,-0.15633 -1.08835,-0.42156 -1.08835,-0.83623 0,-0.47574 0.47358,-0.80232 1.17983,-0.80232 0.58167,0 1.05511,0.20416 1.3875,0.59154 0.24105,0.27874 0.39048,0.56424 0.49871,0.91095 h 0.35725 l -0.0997,-1.76745 z m -11.23365,2.72609 v -1.84919 -0.197 c 0,-0.2855 0.0746,-0.31968 0.74773,-0.31968 h 0.15795 v -0.31955 h -2.73366 v 0.31955 h 0.14957 c 0.67301,0 0.7476,0.0342 0.7476,0.31968 v 0.197 3.23589 0.19726 c 0,0.28537 -0.0746,0.31942 -0.7476,0.31942 h -0.14957 v 0.31955 h 2.73366 v -0.31955 h -0.15795 c -0.67315,0 -0.74773,-0.0341 -0.74773,-0.31942 v -0.19726 -0.86326 l 0.96378,-0.79542 1.44574,1.73353 c 0.13309,0.16308 0.16619,0.21754 0.16619,0.28563 0,0.10864 -0.15768,0.1562 -0.56492,0.1562 h -0.25766 v 0.31955 h 2.84161 v -0.31955 h -0.15781 c -0.45696,0 -0.57343,-0.0476 -0.81434,-0.33982 l -2.01066,-2.37263 1.23806,-1.01283 c 0.39873,-0.3467 0.90555,-0.54397 1.40413,-0.54397 v -0.31955 h -2.55923 v 0.31955 h 0.20794 c 0.38225,0 0.53993,0.0613 0.53993,0.20402 0,0.0951 -0.1662,0.29226 -0.40711,0.48939 z m -9.28947,-2.68542 h -1.71165 v 0.31955 h 0.20781 c 0.42372,0 0.61491,0.0544 0.76435,0.22456 v 2.88904 c 0,0.93136 -0.16619,1.12849 -0.96378,1.15565 v 0.31955 h 2.36817 v -0.31955 c -0.78962,-0.0272 -0.95567,-0.22429 -0.95567,-1.15565 V 20.2762 l 3.70595,4.09252 h 0.34887 v -3.52827 c 0,-0.93122 0.16606,-1.12849 0.96378,-1.15578 v -0.31955 h -2.36804 v 0.31955 c 0.78935,0.0273 0.95554,0.22456 0.95554,1.15578 V 22.975 Z m -5.40071,0.83623 v -0.197 c 0,-0.2855 0.0747,-0.31968 0.73935,-0.31968 h 0.16619 v -0.31955 h -2.75014 v 0.31955 h 0.16619 c 0.67301,0 0.74773,0.0342 0.74773,0.31968 v 0.197 3.23589 0.19726 c 0,0.28537 -0.0747,0.31942 -0.74773,0.31942 h -0.16619 v 0.31955 h 2.75014 V 23.95392 H 26.9773 c -0.66463,0 -0.73935,-0.0341 -0.73935,-0.31942 v -0.19726 z" style="fill:#000000;fill-opacity:1;stroke-width:1pt" inkscape:connector-curvature="0" />
<g id="g7535" transform="matrix(1.314547,0,0,1.314547,-17.94833,-33.3228)">
<path id="path2313" d="M 49.37627,75.52654 34.51809,90.7309 c -5.02019,6.2169 3.41648,5.49357 7.03314,7.28421 1.29735,1.32611 -4.97263,2.30489 -3.67528,3.63219 1.29735,1.3261 7.84495,2.5548 9.14451,3.881 1.29736,1.3261 -2.65553,2.7329 -1.35818,4.059 1.29735,1.3261 4.29797,0.07 4.85982,3.1311 0.40038,2.1877 5.4073,0.9402 7.85601,-0.8516 1.29736,-1.3272 -2.48189,-1.2022 -1.18454,-2.5283 3.22624,-3.2993 6.23017,-1.199 7.33397,-4.5048 0.54527,-1.6336 -4.74922,-2.5184 -3.44965,-3.8445 3.73279,-2.17998 16.63444,-3.59899 10.51265,-9.72077 L 56.18931,75.52654 c -1.88354,-1.80833 -5.02683,-1.82824 -6.81304,0 z m 17.06689,29.30716 c 0,0.7543 5.55771,1.2487 5.55771,-0.1781 -0.7919,-2.2917 -4.90074,-2.1368 -5.55771,0.1781 z m -25.03571,4.0082 c 1.31615,1.1381 3.34901,-0.2832 3.95842,-1.8714 -1.27523,-1.6944 -6.04879,0.061 -3.95842,1.8714 z m 24.33892,-2.4587 c -1.69662,1.5219 0.19023,3.0659 1.86253,2.0826 0.37272,-0.3782 -0.01,-1.7043 -1.86253,-2.0826 z" inkscape:connector-curvature="0" />
<path style="fill:#ffffff" id="path2315" d="m 45.82044,98.83798 c 0.39706,0.24664 6.40271,1.46662 7.87039,1.70992 0.50876,0.1073 0.1482,0.6315 -0.55301,0.9854 -1.5816,0.4203 -9.2529,-2.69532 -7.31738,-2.69532 z" inkscape:connector-curvature="0" />
<path style="fill:#ffffff" id="path2317" d="m 55.29123,76.59274 5.87846,5.97026 c 0.55743,0.5696 0.54969,1.6734 0.23779,1.99082 l -2.91877,-2.33479 -0.57402,3.4574 -2.43876,-1.2874 -3.90533,2.46751 -1.29293,-5.20158 -2.0981,3.62994 h -3.20744 c -1.30731,0 -1.46104,-1.65902 -0.27319,-2.84688 2.07488,-2.23968 4.45613,-4.52249 5.75016,-5.84528 1.30068,-1.32943 3.5669,-1.29182 4.84213,0 z" inkscape:connector-curvature="0" />
</g>
<path id="path3959" style="font-style:normal;font-variant:normal;font-weight:normal;font-stretch:normal;font-size:medium;line-height:100%;font-family:'Euphoria Script';-inkscape-font-specification:'Euphoria Script';letter-spacing:0px;word-spacing:0px;fill:#f58908;fill-opacity:1;stroke:none;stroke-width:2.2432382px;stroke-linecap:butt;stroke-linejoin:miter;stroke-opacity:1" d="m 109.8503,40.23567 q 2.3202,-1.13792 2.5606,-3.97352 0.186,-2.4898 -0.6114,-5.68054 -4.6175,2.38741 -5.4222,7.07206 -0.039,0.31176 -0.4521,0.31617 -0.2327,-0.0181 -0.2304,-0.20804 0.2868,-2.21912 1.6902,-4.37864 1.4161,-2.13367 4.2015,-3.62721 -0.3485,-1.42876 -0.9383,-3.28215 -0.589,-1.85376 -1.0504,-3.6417 l -0.2322,0.11386 q -0.4308,7.59868 -2.1838,8.45843 -1.9593,0.96092 -3.4388,-2.05579 -1.4792,-3.01595 -1.6821,-6.68994 -0.2158,-3.70067 0.7277,-4.45045 l 0.1545,-0.0758 q 0.4384,-0.21504 0.7184,0.35587 0.056,0.83196 0.1759,2.18389 0.1055,1.32413 0.6479,4.25553 0.5302,2.90629 1.2384,4.35032 0.6952,1.41738 1.314,1.11387 0.7217,-0.35392 1.0938,-3.63852 0.5507,-4.81127 0.4321,-9.42182 -0.024,-1.93929 0.8271,-2.3566 0.5412,-0.26544 0.8324,0.32831 -0.048,1.14247 0.4702,3.95838 0.518,2.81594 1.3185,5.5575 0.788,2.71564 1.1744,4.28536 2.1236,-0.62598 3.1031,0.58868 0.169,0.20985 0.3557,0.59046 0.2016,0.41105 0.031,0.84428 -0.156,0.46367 -0.3882,0.57753 -0.036,-0.20882 -0.2945,-0.65823 -0.2394,-0.43031 -0.5463,-0.65751 -0.2817,-0.24901 -0.8327,-0.39429 -0.5509,-0.14529 -1.2443,0.006 1.6818,8.45026 -3.2164,10.8525 -2.114,1.03679 -3.5436,-0.11763 -0.06,-0.0649 -0.086,-0.11821 -0.075,-0.15224 0.1831,-0.34478 0.2581,-0.12656 0.4763,-0.007 0.9829,0.8296 2.6841,-0.005 z m -5.8407,-2.47555 q -1.4953,0.73334 -2.9885,-0.4853 -1.46703,-1.23146 -3.00964,-4.37681 -1.54261,-3.14535 -2.72572,-7.9052 -1.18349,-4.76062 -1.33672,-8.20304 -0.12779,-3.45585 0.80028,-3.91101 0.43846,-0.21504 0.69233,0.30259 0.0658,1.50318 0.46712,4.40843 0.3887,2.87934 0.85833,5.27137 0.49552,2.37934 1.42237,5.4433 0.9522,3.05057 1.95085,5.08683 0.9864,2.01114 1.9039,2.90394 0.9566,0.90675 1.6525,0.56545 0.593,-0.29083 0.8543,-1.12726 0.2762,-0.8059 0.2422,-1.46251 -0.01,-0.34475 0.3897,-0.37998 0.1659,0.013 0.154,0.1794 0.036,0.20882 0.01,0.54268 0,0.3219 -0.098,1.0397 -0.1791,1.59116 -1.2361,2.10957 z M 88.98873,24.94693 q 1.9593,-0.96092 3.08453,1.33339 0.64474,1.31462 0.47641,3.18855 -0.31956,3.13037 -2.79443,4.34415 -0.3867,0.18965 -0.70822,0.1868 -0.32152,-0.003 -0.5771,-0.19857 1.83035,-0.89767 2.31467,-3.75757 0.40304,-2.30821 -0.29248,-3.72636 -0.51818,-1.05657 -1.36892,-0.63933 -1.70147,0.83447 -1.86875,4.21028 -0.15655,3.65857 1.33529,6.70039 1.26447,2.57825 2.98667,2.37291 0.3362,-0.0327 0.7739,-0.24735 0.43847,-0.21504 0.82728,-0.66069 0.37449,-0.47641 0.55987,-0.94505 0.36747,-0.94512 0.43843,-1.91007 0.002,-0.25593 0.2859,-0.39518 0.46434,-0.22773 0.51313,-0.0628 0.0605,0.31973 -0.12521,1.24463 -0.16169,0.9103 -0.39682,1.53838 -0.22218,0.59056 -0.76883,1.23639 -0.50561,0.66347 -1.20205,1.00503 -2.73269,1.34022 -4.74476,-0.87137 -0.66188,-0.7623 -1.11734,-1.69098 -0.84709,-1.72721 -1.04663,-4.15539 -0.25398,-3.71313 1.29294,-6.16685 0.85704,-1.31743 2.1202,-1.93693 z M 78.98146,29.8549 q 1.95922,-0.96088 3.08445,1.33343 0.64474,1.31462 0.47648,3.18851 -0.31963,3.13041 -2.7945,4.34419 -0.3867,0.18965 -0.70822,0.1868 -0.32152,-0.003 -0.5771,-0.19857 1.83035,-0.89767 2.31467,-3.75757 0.40304,-2.30821 -0.29248,-3.72636 -0.51818,-1.05657 -1.36892,-0.63933 -1.70148,0.83447 -1.86875,4.21028 -0.15655,3.65857 1.33529,6.70039 1.26447,2.57825 2.98667,2.37291 0.3362,-0.0327 0.7739,-0.24735 0.43846,-0.21504 0.82728,-0.66069 0.37449,-0.47641 0.55987,-0.94505 0.36747,-0.94512 0.43843,-1.91007 0.002,-0.25593 0.2859,-0.39518 0.46434,-0.22773 0.51312,-0.0628 0.0605,0.31973 -0.1252,1.24463 -0.16169,0.9103 -0.39682,1.53838 -0.22219,0.59056 -0.76883,1.23639 -0.50561,0.66347 -1.20205,1.00503 -2.73269,1.34022 -4.74476,-0.87137 -0.66188,-0.7623 -1.11734,-1.69098 -0.84709,-1.72721 -1.04656,-4.15543 -0.25405,-3.71309 1.29294,-6.16685 0.85697,-1.31739 2.12021,-1.93693 z m -5.99756,9.27308 q -0.97961,0.48044 -2.02905,-1.65934 -0.59397,-1.2111 -0.64818,-2.49616 -1.00717,2.38069 -1.1369,7.59367 -0.1428,5.18633 0.47693,6.44995 0.15307,0.3121 -0.25951,0.51445 -0.74752,0.36661 -1.74656,-1.67041 -1.88383,-3.8411 -2.64035,-7.33988 -0.75614,-3.49801 0.35242,-4.0417 0.49022,-0.24042 0.77022,0.33049 0.65986,4.34508 2.07889,8.54256 l 0.18041,-0.0885 q -0.27614,-5.84491 0.9227,-9.79086 0.68511,-2.25485 1.87094,-2.83643 0.25805,-0.12656 0.48724,-0.0501 0.25508,0.0638 0.37081,0.29974 -0.0908,0.27117 -0.17339,0.7555 -0.0826,0.48434 0.15133,2.06843 0.21898,1.55555 1.0026,3.15334 0.1008,0.20553 -0.0278,0.26863 z m -24.00261,4.57617 q 0.93557,1.90762 2.08179,1.50599 0.0978,0.39586 -0.41752,0.6486 -1.05703,0.51841 -2.12769,-0.55616 -0.49748,-0.49258 -0.91412,-1.3421 -0.43008,-0.87692 -0.35418,-2.41655 0.14265,-3.55637 3.74658,-6.31542 1.23938,-0.92891 2.78618,-1.68752 1.5726,-0.77127 2.52802,-1.62701 0.95549,-0.85579 1.18133,-1.4387 0.58996,-1.53584 1.10553,-1.7887 0.51534,-0.25274 0.66841,0.0594 0.0373,0.0761 0.0747,0.15224 0.17425,0.81164 -0.87704,2.12424 -0.64947,0.76235 -1.57615,1.48124 -0.67528,0.77501 -0.44428,2.68066 0.2169,1.87669 1.09001,5.22196 1.27704,-0.78684 2.15358,-1.21673 0.23217,-0.11387 0.34443,0.18048 0.0503,0.36249 -0.37696,0.60037 -0.43847,0.21504 -1.90971,1.25766 1.72164,6.57513 2.03307,9.49236 0.80387,7.37746 -3.39828,9.43837 -3.01625,1.47929 -5.1168,-0.91272 -0.75172,-0.81455 -1.21951,-1.76836 -0.88479,-1.80408 -0.81608,-4.07675 0.0907,-3.46668 2.43669,-4.61725 0.33494,-0.16427 0.61589,-0.1132 0.30684,0.0384 0.53679,0.31277 -2.21705,1.08733 -2.53547,4.08967 -0.26189,2.3353 0.67368,4.24291 1.36564,2.78454 3.62846,2.44249 0.52781,-0.0983 1.2751,-0.46483 0.74752,-0.36661 1.35607,-1.21277 0.64913,-0.82829 0.76238,-2.29275 0.1518,-1.45032 0.22381,-2.41295 0.0592,-0.98843 -0.33485,-3.22587 -0.50499,-2.72598 -1.04037,-4.99039 -0.54701,-2.28988 -0.64659,-2.75286 -1.33165,0.93639 -2.07925,1.30304 -0.72163,0.35392 -1.14234,-0.24241 -0.2767,-0.50643 -0.007,-0.73301 0.20331,0.0891 0.87387,-0.23971 0.69575,-0.34123 2.10204,-1.19147 -0.59433,-2.84269 -0.77295,-4.70604 -0.19101,-1.88939 0.2038,-3.10571 -0.41258,0.20235 -1.28905,0.6322 -4.94974,2.42755 -5.50603,6.31427 -0.28375,1.83421 0.3987,3.22572 z m 13.93518,-0.27799 q 0.0635,0.1294 -0.1687,0.24327 -0.23218,0.11386 -0.51288,0.12877 -0.25856,-0.005 -0.34442,-0.18047 -1.28949,-2.62925 -1.4805,-4.51863 -0.2037,-1.91527 0.77591,-2.39571 0.25805,-0.12656 0.52806,-0.0324 0.27001,0.0942 0.41934,0.3987 -0.59114,1.72906 0.0184,4.27626 0.26186,1.05574 0.76736,2.08643 z m -26.85252,8.49992 q 1.02752,0.2043 1.69785,-0.12446 0.69575,-0.34122 0.89009,-0.66317 0.16426,0.33494 0.008,0.79861 -0.1458,0.4209 -0.7126,0.69889 -0.54123,0.26544 -1.31284,0.3228 1.13504,2.44909 1.6409,5.36728 0.49157,2.89309 0.15269,5.20195 -0.35143,2.2829 -1.51153,2.85186 -1.16009,0.56895 -2.22121,-0.0297 -1.13792,-0.68935 -2.04848,-2.54596 -0.51818,-1.05657 -0.98388,-2.33152 -0.38965,7.2914 -2.11693,8.13853 -1.70148,0.83447 -3.1179,-2.05359 -1.46645,-2.99006 -1.66579,-7.11339 -0.0901,-3.31378 0.87762,-3.94894 0.49023,-0.24042 0.75529,0.30004 0.0568,0.89757 0.17487,2.3128 0.10462,1.38783 0.596,4.34523 0.51696,2.94486 1.12362,4.18184 0.59435,1.21185 1.13557,0.94642 0.67064,-0.32891 1.02605,-3.18979 0.38152,-2.87369 0.40214,-5.57039 l 0.0595,-2.6827 q 0.0134,-1.79795 0.58076,-2.0762 0.56711,-0.27813 0.83217,0.26234 1.06992,6.15913 2.56176,9.20095 0.69552,1.41815 1.52045,1.01357 0.92808,-0.45516 1.18758,-2.46917 0.27261,-2.05255 -0.25815,-4.83011 -0.51832,-2.81671 -1.69395,-5.21378 l -0.0747,-0.15224 q -1.01258,-0.17386 -1.84406,-0.69527 -0.83021,-0.51827 -1.00791,-0.88061 -0.1904,-0.38822 -0.005,-0.85697 0.18187,-0.47636 0.56857,-0.66602 0.48946,-0.24005 1.30654,0.44707 0.80372,0.66063 1.47631,1.70663 z M 17.6483,75.44555 q -2.11398,1.03678 -3.74507,-2.28898 -0.97365,-1.98526 -1.15689,-4.83693 -0.26478,-3.99586 1.35792,-6.29505 0.70002,-0.98545 1.52495,-1.39003 0.82501,-0.40461 1.46451,-0.27442 0.66569,0.11734 0.97354,0.41963 l 0.31879,0.25915 q 0.13889,0.47959 -0.22193,0.65655 -0.41258,0.20234 -0.57982,0.0577 -0.15409,-0.17939 -0.29291,-0.27184 -0.15231,-0.11416 -0.55122,-0.21126 -0.41087,-0.11956 -0.77168,0.0574 -1.67575,0.82185 -1.56254,4.50865 0.16007,4.2389 1.6646,7.30661 0.75861,1.54679 1.37748,1.24327 0.49023,-0.24042 0.83544,-1.75254 0.3584,-1.55165 0.529,-3.68165 0.31044,-3.67077 0.34334,-6.27716 -0.0336,-2.28574 0.89444,-2.74091 0.48946,-0.24005 0.78066,0.3537 0.007,0.60105 0.0898,1.68309 0.0816,1.07901 0.80339,4.05088 0.72189,2.97183 2.02445,5.62772 1.30218,2.65513 2.10138,2.26317 0.30906,-0.15157 0.42898,-0.55978 0.13112,-0.38538 0.0723,-1.02701 -0.0605,-0.31973 0.22269,-0.45861 0.10276,-0.0504 0.19186,3.3e-4 0.0906,0.05 0.12693,0.25882 0.0363,0.20882 0.0585,0.57566 0.0356,0.39802 -0.1374,1.15429 -0.14751,0.74281 -0.61148,0.97036 -1.08275,0.53102 -2.37081,-0.59558 -1.26253,-1.13998 -2.2108,-3.07348 -0.94826,-1.93349 -1.5368,-3.85171 l -0.25806,0.12656 q -0.53045,7.19993 -2.18032,8.00909 z M 10.10761,69.96506 Q 9.127997,70.4455 8.078561,68.30572 7.484589,67.09462 7.430374,65.80956 q -1.007167,2.38069 -1.1369,7.59367 -0.142799,5.18633 0.476932,6.44996 0.153066,0.3121 -0.259514,0.51444 -0.747516,0.36661 -1.746553,-1.67041 -1.883833,-3.8411 -2.640351,-7.33988 -0.756144,-3.49801 0.352417,-4.0417 0.490225,-0.24042 0.770224,0.33049 0.659852,4.34508 2.078886,8.54257 l 0.180409,-0.0885 q -0.276139,-5.84492 0.922698,-9.79086 0.685115,-2.25486 1.87094,-2.83644 0.258053,-0.12656 0.487247,-0.0501 0.255075,0.0638 0.370808,0.29974 -0.09081,0.27117 -0.173396,0.75551 -0.08259,0.48433 0.151337,2.06842 0.218977,1.55555 1.002602,3.15335 0.1008,0.20552 -0.0278,0.26862 z m -28.80073,8.01722 q -0.95389,0.46782 -1.61132,-0.87268 -0.65744,-1.34051 -0.0747,-3.67358 0.95492,-3.92169 4.86469,-6.38313 l 1.38051,-0.77149 q 4.691995,-2.30114 8.638958,0.3997 2.388837,1.67552 3.855286,4.66559 0.607038,1.23774 1.0708788,2.7053 1.50293,4.95523 0.2604394,9.52978 -1.3613282,5.04927 -5.4861402,7.07224 -4.099006,2.01032 -6.332712,0.25966 -0.6896,-0.55889 -1.08086,-1.35665 -0.40469,-0.82516 -0.40862,-1.94224 0.0414,-2.06756 1.5108,-2.78824 0.12865,-0.0631 0.2292,0.0765 0.11675,0.10327 0.11529,0.29285 0.0214,0.17838 -0.10574,0.24072 -0.87654,0.4299 -0.96443,1.88097 -0.021,1.00087 0.30795,1.6715 0.32854,0.66987 0.8651,1.11118 1.684414,1.3477 4.803733,-0.18214 3.531898,-1.73218 4.623501,-6.74455 0.984933,-4.51244 -0.416672,-9.26146 -0.437465,-1.54471 -1.057196,-2.80833 -1.377969,-2.80965 -3.589474,-4.1236 -2.952842,-1.78231 -6.536272,-0.0249 -4.4857,2.19997 -5.24904,6.31666 -0.37568,2.1031 0.28176,3.4436 0.26506,0.54047 0.49723,0.4266 0.0993,0.59342 -0.39088,0.83384 z m 8.50402,7.94956 q -1.92191,-3.91875 -3.03383,-7.94579 -1.12499,-4.05368 -1.16871,-6.68671 -0.031,-2.67138 0.9229,-3.13921 0.41258,-0.20234 0.61418,0.20871 0.0159,2.9668 1.09898,7.39232 1.95388,8.09206 3.547261,11.34094 0.164266,0.33493 -0.196551,0.51189 Q -9.178267,87.9933 -10.19,85.9304 Z" inkscape:connector-curvature="0" />
</g>
<g id="designBottomGenerator" sodipodi:insensitive="true">
<use height="100%" width="100%" id="bottom1" transform="translate(-100,-100)" xlink:href="#designBottom" y="0" x="0" />
<use height="100%" width="100%" id="bottom2" transform="translate(0,-100)" xlink:href="#designBottom" y="0" x="0" />
<use height="100%" width="100%" id="bottom3" transform="translate(100,-100)" xlink:href="#designBottom" y="0" x="0" />
<use height="100%" width="100%" id="bottom4" transform="translate(-100)" xlink:href="#designBottom" y="0" x="0" />
<use height="100%" width="100%" id="bottom5" xlink:href="#designBottom" y="0" x="0" />
<use height="100%" width="100%" id="bottom6" transform="translate(100)" xlink:href="#designBottom" y="0" x="0" />
<use height="100%" width="100%" id="bottom7" transform="translate(-100,100)" xlink:href="#designBottom" y="0" x="0" />
<use height="100%" width="100%" id="bottom8" transform="translate(0,100)" xlink:href="#designBottom" y="0" x="0" />
<use transform="translate(100,100)" height="100%" width="100%" id="bottom9" xlink:href="#designBottom" y="0" x="0" />
</g>
<g id="designTopGenerator" sodipodi:insensitive="true">
<use height="100%" width="100%" id="top1" transform="translate(-100,-100)" xlink:href="#designTop" y="0" x="0" />
<use height="100%" width="100%" id="top2" transform="translate(0,-100)" xlink:href="#designTop" y="0" x="0" />
<use height="100%" width="100%" id="top3" transform="translate(100,-100)" xlink:href="#designTop" y="0" x="0" />
<use height="100%" width="100%" id="top4" transform="translate(-100)" xlink:href="#designTop" y="0" x="0" />
<use height="100%" width="100%" id="top5" xlink:href="#designTop" y="0" x="0" />
<use height="100%" width="100%" id="top6" transform="translate(100)" xlink:href="#designTop" y="0" x="0" />
<use height="100%" width="100%" id="top7" transform="translate(-100,100)" xlink:href="#designTop" y="0" x="0" />
<use height="100%" width="100%" id="top8" transform="translate(0,100)" xlink:href="#designTop" y="0" x="0" />
<use transform="translate(100,100)" height="100%" width="100%" id="top9" xlink:href="#designTop" y="0" x="0" />
</g>
</g>
</g>
<inkscape:_templateinfo id="_templateinfo10">
<inkscape:_name id="_name12">Seamless Pattern</inkscape:_name>
<inkscape:_shortdesc id="_shortdesc14">Seamless Pattern</inkscape:_shortdesc>
<inkscape:_keywords id="_keywords16">Seamless Pattern</inkscape:_keywords>
</inkscape:_templateinfo>
</svg>
