<?xml version="1.0" encoding="UTF-8" standalone="no"?>
<!-- Created with Inkscape (http://www.inkscape.org/) -->

<svg xmlns:dc="http://purl.org/dc/elements/1.1/" xmlns:cc="http://creativecommons.org/ns#" xmlns:rdf="http://www.w3.org/1999/02/22-rdf-syntax-ns#" xmlns:svg="http://www.w3.org/2000/svg" xmlns="http://www.w3.org/2000/svg" xmlns:sodipodi="http://sodipodi.sourceforge.net/DTD/sodipodi-0.dtd" xmlns:inkscape="http://www.inkscape.org/namespaces/inkscape" version="1.1" width="249.50522" height="249.50523" id="svg2" inkscape:version="0.48+devel r10484 custom" sodipodi:docname="too-much-ink-icon.svg" inkscape:export-filename="/home/felipe/devel/bzr-inkscape/inkscape/share/icons/too-much-ink-icon.png" inkscape:export-xdpi="5.6999998" inkscape:export-ydpi="5.6999998">
<metadata id="metadata8">
<rdf:RDF>
<cc:Work rdf:about="">
<dc:format>image/svg+xml</dc:format>
<dc:type rdf:resource="http://purl.org/dc/dcmitype/StillImage" />
<dc:title />
</cc:Work>
</rdf:RDF>
</metadata>
<sodipodi:namedview pagecolor="#ffffff" bordercolor="#666666" borderopacity="1" objecttolerance="10" gridtolerance="10" guidetolerance="10" inkscape:pageopacity="0" inkscape:pageshadow="2" inkscape:window-width="1366" inkscape:window-height="744" id="namedview6" showgrid="false" inkscape:zoom="0.3386673" inkscape:cx="194.4956" inkscape:cy="191.5572" inkscape:window-x="0" inkscape:window-y="24" inkscape:window-maximized="1" inkscape:current-layer="svg2" />
<defs id="defs4" />
<g transform="translate(-218.10454,-476.18098)" id="layer1" />
<path id="path2988" style="fill:#200e13;fill-opacity:0.96862745;fill-rule:evenodd;stroke:#20241d;stroke-width:5.49399996000000002;stroke-linecap:round;stroke-linejoin:round;stroke-miterlimit:4;stroke-opacity:1;stroke-dasharray:none" d="m 44.205845,53.627099 c 6.538205,8.776404 7.179182,14.929511 7.184639,20.799914 0.0043,4.681179 -10.770356,1.897693 -15.869168,-0.2132 -7.694024,-3.185304 -15.824487,-9.784438 -17.689511,-16.915388 -1.158352,-4.428985 0.749479,-10.229203 5.19903,-11.623732 6.495074,-2.035617 16.872258,2.176709 21.17501,7.952406 z M 30.008964,205.99522 c 9.10047,-17.44806 19.580437,-23.91826 30.209061,-29.20542 8.475488,-4.21608 14.636139,14.03423 16.113709,23.38441 2.229628,14.10927 -1.271148,31.92641 -12.249789,41.06491 -6.81876,5.67586 -19.309578,8.10365 -26.46219,2.85474 -10.440776,-7.6619 -13.599752,-26.61618 -7.610791,-38.09864 z M 173.64367,123.09593 c 1.4357,-39.91444 54.53677,19.12723 69.59235,-3.63891 8.93961,-13.51796 5.32456,-38.561425 -7.86464,-47.97932 -9.68684,-6.916994 -50.66722,5.557227 -60.7695,-0.737512 -18.8117,-11.721606 7.93318,-34.929939 -8.70266,-49.576607 -24.86167,-21.88894402 -44.62485,-21.29438502 -68.539321,1.625623 -15.178156,14.546991 10.871641,22.047341 3.192441,41.61827 -10.607154,27.033004 -39.063593,8.120474 -45.546174,36.427236 -4.104651,17.9233 1.357147,48.93421 19.081937,53.82552 13.316852,3.6749 13.818475,-22.5941 38.882527,-4.90635 25.06405,17.68776 4.4552,41.49178 10.10048,65.11007 5.64529,23.61827 22.84904,17.71636 35.42061,15.11786 15.97666,-3.30232 11.12595,-30.4217 33.70881,-33.39655 22.58287,-2.97487 16.69776,21.8648 41.58646,-0.63804 41.60195,-37.61392 -49.85797,-50.12848 -60.14333,-72.85127 l 10e-6,-2e-5 z" />
</svg>
