/* XPM */
static const char * cursor_adj_s_xpm[] = {
"32 32 3 1",
" 	c None",
".	c #FFFFFF",
"+	c #000000",
"                           ..   ",
"                          .++.  ",
"                         .+..+. ",
"                         .+..+. ",
"                          .+... ",
"                           .+.  ",
"                         .. .+. ",
"       ....              .+..+. ",
"       .++.            .. .++.  ",
"       .++.           .+.  ..   ",
"    ....++....       .+.        ",
"    .++++++++.      .+.         ",
"    .++++++++.     .+.          ",
"    ....++....    .+.           ",
"       .++.      .+.            ",
"       .++.     .+.             ",
"       ....    .+.              ",
"              .+.               ",
"             .+.                ",
"            .+.                 ",
"           .+.   ..........     ",
"          .+.    .++++++++.     ",
"         .+.     .++++++++.     ",
"        .+.      ..........     ",
"       .+.                      ",
"      .+.                       ",
"     .+.                        ",
"    .+.                         ",
"   .+.                          ",
"    .                           ",
"                                ",
"                                "};
