/* XPM */
static char const *handle_scale_nw_xpm[] = {
"13 13 3 1",
" 	c None",
".	c #000000",
"+	c #FFFFFF",
"             ",
" .......     ",
" .+++..      ",
" .++++.      ",
" .+++++.     ",
" ..+++++.  . ",
" ...+++++... ",
" .  .+++++.. ",
"     .+++++. ",
"      .++++. ",
"      ..+++. ",
"     ....... ",
"             "};

/* XPM */
static char const *handle_scale_ne_xpm[] = {
"13 13 3 1",
" 	c None",
".	c #000000",
"+	c #FFFFFF",
"             ",
"     ....... ",
"      ..+++. ",
"      .++++. ",
"     .+++++. ",
" .  .+++++.. ",
" ...+++++... ",
" ..+++++.  . ",
" .+++++.     ",
" .++++.      ",
" .+++..      ",
" .......     ",
"             "};

/* XPM */
static char const *handle_scale_h_xpm[] = {
"13 13 3 1",
" 	c None",
".	c #000000",
"+	c #FFFFFF",
"             ",
"             ",
"    .   .    ",
"   ..   ..   ",
"  ..+...+..  ",
" ..+++++++.. ",
"..+++++++++..",
" ..+++++++.. ",
"  ..+...+..  ",
"   ..   ..   ",
"    .   .    ",
"             ",
"             "};

/* XPM */
static char const *handle_scale_v_xpm[] = {
"13 13 3 1",
" 	c None",
".	c #000000",
"+	c #FFFFFF",
"      .      ",
"     ...     ",
"    ..+..    ",
"   ..+++..   ",
"  ..+++++..  ",
"    .+++.    ",
"    .+++.    ",
"    .+++.    ",
"  ..+++++..  ",
"   ..+++..   ",
"    ..+..    ",
"     ...     ",
"      .      "};

/* XPM */
static char const *handle_rotate_nw_xpm[] = {
"13 13 3 1",
" 	c None",
".	c #000000",
"+	c #FFFFFF",
"        .    ",
"        ..   ",
"       ....  ",
"     ...++.. ",
"    .++++++..",
"   .+++++++. ",
"  .++++..+.  ",
"  .+++.  .   ",
"...+++.      ",
" ..++++.     ",
"  ..++.      ",
"   ...       ",
"    .        "};

/* XPM */
static char const *handle_rotate_n_xpm[] = {
"13 13 3 1",
" 	c None",
".	c #000000",
"+	c #FFFFFF",
"    .   .    ",
"   ..   ..   ",
"  .........  ",
" ..+++++++.. ",
"..+++++++++..",
" ..+++++++.. ",
"  .........  ",
"   ..   ..   ",
"    .   .    ",
"             ",
"             ",
"             ",
"             "};

/* XPM */
static char const *handle_rotate_ne_xpm[] = {
"13 13 3 1",
" 	c None",
".	c #000000",
"+	c #FFFFFF",
"    .        ",
"   ..        ",
"  ....       ",
" ..++...     ",
"..++++++.    ",
" .+++++++.   ",
"  .+..++++.  ",
"   .  .+++.  ",
"      .+++...",
"     .++++.. ",
"      .++..  ",
"       ...   ",
"        .    "};

/* XPM */
static char const *handle_rotate_e_xpm[] = {
"13 13 3 1",
" 	c None",
".	c #000000",
"+	c #FFFFFF",
"        .    ",
"       ...   ",
"      ..+..  ",
"     ..+++.. ",
"    ...+++...",
"      .+++.  ",
"      .+++.  ",
"      .+++.  ",
"    ...+++...",
"     ..+++.. ",
"      ..+..  ",
"       ...   ",
"        .    "};

/* XPM */
static char const *handle_rotate_se_xpm[] = {
"13 13 3 1",
" 	c None",
".	c #000000",
"+	c #FFFFFF",
"        .    ",
"       ...   ",
"      .++..  ",
"     .++++.. ",
"      .+++...",
"   .  .+++.  ",
"  .+..++++.  ",
" .+++++++.   ",
"..++++++.    ",
" ..++...     ",
"  ....       ",
"   ..        ",
"    .        "};


/* XPM */
static char const *handle_rotate_s_xpm[] = {
"13 13 3 1",
" 	c None",
".	c #000000",
"+	c #FFFFFF",
"             ",
"             ",
"             ",
"             ",
"    .   .    ",
"   ..   ..   ",
"  .........  ",
" ..+++++++.. ",
"..+++++++++..",
" ..+++++++.. ",
"  .........  ",
"   ..   ..   ",
"    .   .    "};

/* XPM */
static char const *handle_rotate_sw_xpm[] = {
"13 13 3 1",
" 	c None",
".	c #000000",
"+	c #FFFFFF",
"    .        ",
"   ...       ",
"  ..++.      ",
" ..++++.     ",
"...+++.      ",
"  .+++.  .   ",
"  .++++..+.  ",
"   .+++++++. ",
"    .++++++..",
"     ...++.. ",
"       ....  ",
"        ..   ",
"        .    "};

/* XPM */
static char const *handle_rotate_w_xpm[] = {
"13 13 3 1",
" 	c None",
".	c #000000",
"+	c #FFFFFF",
"    .        ",
"   ...       ",
"  ..+..      ",
" ..+++..     ",
"...+++...    ",
"  .+++.      ",
"  .+++.      ",
"  .+++.      ",
"...+++. .    ",
" ..+++..     ",
"  ..+..      ",
"   ...       ",
"    .        "};

/* XPM */
static char const *handle_center_xpm[] = {
"13 13 3 1",
" 	c None",
".	c #000000",
"+	c #FFFFFF",
"             ",
"      .      ",
"      .      ",
"      .      ",
"    ++.++    ",
"    ++.++    ",
" ..... ..... ",
"    ++.++    ",
"    ++.++    ",
"      .      ",
"      .      ",
"      .      ",
"             "};
