<?xml version="1.0" encoding="UTF-8" standalone="no"?>
<!-- Created with Inkscape (http://www.inkscape.org/) -->
<svg
   xmlns:dc="http://purl.org/dc/elements/1.1/"
   xmlns:cc="http://creativecommons.org/ns#"
   xmlns:rdf="http://www.w3.org/1999/02/22-rdf-syntax-ns#"
   xmlns:svg="http://www.w3.org/2000/svg"
   xmlns="http://www.w3.org/2000/svg"
   xmlns:sodipodi="http://sodipodi.sourceforge.net/DTD/sodipodi-0.dtd"
   xmlns:inkscape="http://www.inkscape.org/namespaces/inkscape"
   width="48px"
   height="48px"
   id="svg5668"
   sodipodi:version="0.32"
   inkscape:version="0.46+devel r20659"
   sodipodi:docname="bitmap-trace.svg"
   inkscape:output_extension="org.inkscape.output.svg.inkscape">
  <defs
     id="defs5670" />
  <sodipodi:namedview
     id="base"
     pagecolor="#ffffff"
     bordercolor="#666666"
     borderopacity="1.0"
     inkscape:pageopacity="0.0"
     inkscape:pageshadow="2"
     inkscape:zoom="3.5"
     inkscape:cx="16.514926"
     inkscape:cy="19.806425"
     inkscape:current-layer="layer1"
     showgrid="false"
     inkscape:grid-bbox="true"
     inkscape:document-units="px"
     gridtolerance="1"
     inkscape:window-width="770"
     inkscape:window-height="575"
     inkscape:window-x="275"
     inkscape:window-y="35"
     inkscape:snap-global="true">
    <inkscape:grid
       type="xygrid"
       id="grid7154"
       empspacing="5"
       visible="true"
       enabled="true" />
  </sodipodi:namedview>
  <metadata
     id="metadata5673">
    <rdf:RDF>
      <cc:Work
         rdf:about="">
        <dc:format>image/svg+xml</dc:format>
        <dc:type
           rdf:resource="http://purl.org/dc/dcmitype/StillImage" />
        <dc:title />
      </cc:Work>
    </rdf:RDF>
  </metadata>
  <g
     id="layer1"
     inkscape:label="Layer 1"
     inkscape:groupmode="layer">
    <g
       id="selection_trace"
       style="stroke:#000000;stroke-width:0.69999999;stroke-miterlimit:4;stroke-opacity:1;stroke-dasharray:none"
       inkscape:label="#selection_trace"
       transform="matrix(3,0,0,3,-915.45,-341.5536)">
      <path
         id="rect11025"
         style="color:#000000;fill:none;stroke-linecap:round;stroke-linejoin:round;stroke-dashoffset:0;marker:none;display:inline"
         d="m 308.4986,119.5635 -2.9986,-0.0367 0,9.9744 10,0 0,-2.7702 m -7.0652,-5.4166 -0.9348,0 0,6.2117 6.1875,0 0,-0.9401 m 4.752,-6.0824 c 0,2.1757 -1.7649,3.9416 -3.9395,3.9416 -2.1745,0 -3.9394,-1.7659 -3.9394,-3.9416 0,-2.1759 1.7649,-3.9417 3.9394,-3.9417 2.1746,0 3.9395,1.7658 3.9395,3.9417 z m 2.0324,-0.004 c 0,3.2964 -2.6754,5.9719 -5.9719,5.9719 -3.2965,0 -5.9719,-2.6755 -5.9719,-5.9719 0,-3.2965 2.6754,-5.9719 5.9719,-5.9719 3.2965,0 5.9719,2.6754 5.9719,5.9719 z" />
    </g>
  </g>
</svg>
