<?xml version="1.0" encoding="UTF-8" standalone="no"?>
<!-- Created with Inkscape (http://www.inkscape.org/) -->
<svg
   xmlns:dc="http://purl.org/dc/elements/1.1/"
   xmlns:cc="http://creativecommons.org/ns#"
   xmlns:rdf="http://www.w3.org/1999/02/22-rdf-syntax-ns#"
   xmlns:svg="http://www.w3.org/2000/svg"
   xmlns="http://www.w3.org/2000/svg"
   xmlns:xlink="http://www.w3.org/1999/xlink"
   xmlns:sodipodi="http://sodipodi.sourceforge.net/DTD/sodipodi-0.dtd"
   xmlns:inkscape="http://www.inkscape.org/namespaces/inkscape"
   width="48px"
   height="48px"
   id="svg5662"
   sodipodi:version="0.32"
   inkscape:version="0.46+devel r20659"
   sodipodi:docname="text-distribute-baseline-vertical.svg"
   inkscape:output_extension="org.inkscape.output.svg.inkscape">
  <defs
     id="defs5664">
    <linearGradient
       id="linearGradient5204">
      <stop
         style="stop-color:#4e6e90;stop-opacity:1;"
         offset="0"
         id="stop5206" />
      <stop
         style="stop-color:#000000;stop-opacity:1.0000000;"
         offset="1.0000000"
         id="stop5208" />
    </linearGradient>
    <linearGradient
       inkscape:collect="always"
       xlink:href="#linearGradient5204"
       id="linearGradient12075"
       gradientUnits="userSpaceOnUse"
       gradientTransform="matrix(-1.036041,0,0,0.96320632,-10.75241,14.3406)"
       x1="13.479776"
       y1="86.265739"
       x2="17.629627"
       y2="92.007393" />
  </defs>
  <sodipodi:namedview
     id="base"
     pagecolor="#ffffff"
     bordercolor="#666666"
     borderopacity="1.0"
     inkscape:pageopacity="0.0"
     inkscape:pageshadow="2"
     inkscape:zoom="1.2374369"
     inkscape:cx="68.920174"
     inkscape:cy="-58.823132"
     inkscape:current-layer="layer1"
     showgrid="true"
     inkscape:grid-bbox="true"
     inkscape:document-units="px"
     inkscape:window-width="789"
     inkscape:window-height="658"
     inkscape:window-x="182"
     inkscape:window-y="38" />
  <metadata
     id="metadata5667">
    <rdf:RDF>
      <cc:Work
         rdf:about="">
        <dc:format>image/svg+xml</dc:format>
        <dc:type
           rdf:resource="http://purl.org/dc/dcmitype/StillImage" />
        <dc:title />
      </cc:Work>
    </rdf:RDF>
  </metadata>
  <g
     id="layer1"
     inkscape:label="Layer 1"
     inkscape:groupmode="layer">
    <g
       transform="matrix(-2,0,0,2,-19.606003,-159.92722)"
       id="distribute_baselines_vert"
       inkscape:label="#distribute_baselines_vert">
      <g
         id="use5901"
         transform="matrix(0,1,-1,0,70.1351,113.7903)">
        <path
           style="fill:none;stroke:#c80000;stroke-width:1.00000036;stroke-linecap:square;stroke-linejoin:miter;stroke-miterlimit:4;stroke-opacity:1;stroke-dasharray:none;stroke-dashoffset:0"
           d="m -10.3276,80.462739 0,22.999151"
           id="path12069"
           sodipodi:nodetypes="cc" />
        <path
           style="fill:none;stroke:#c80000;stroke-width:1.00000036;stroke-linecap:square;stroke-linejoin:miter;stroke-miterlimit:4;stroke-opacity:1;stroke-dasharray:none;stroke-dashoffset:0"
           d="m -24.3276,80.463579 0,22.999151"
           id="path12071"
           sodipodi:nodetypes="cc" />
        <path
           style="fill:#000000;fill-opacity:1;fill-rule:evenodd;stroke:none;display:inline"
           d="m -10.803,82.463611 -2.99999,-2.500001 0,2.000001 -7.00001,0 0,-2.000001 -3,2.500001 3,2.499999 0,-1.999999 7.00001,0 0,1.999999 2.99999,-2.499999 z"
           id="path12073"
           sodipodi:nodetypes="ccccccccccc" />
      </g>
      <rect
         transform="matrix(0,1,1,0,0,0)"
         y="-33.803001"
         x="79.963608"
         height="24"
         width="24"
         id="rect4421"
         style="font-size:12px;fill:none;stroke:none" />
      <path
         id="use5966"
         d="m -26.904766,99.295995 c 0.5525,0 0.969351,0.08714 1.250522,0.261414 0.276261,0.174283 0.414386,0.431112 0.414386,0.770491 0,0.31186 -0.110991,0.55723 -0.332984,0.73609 -0.226924,0.17428 -0.540171,0.26142 -0.939751,0.26142 -0.498232,0 -0.917539,-0.1651 -1.25793,-0.49532 -0.340371,-0.33479 -0.510561,-0.75214 -0.510571,-1.252039 l 0,-0.282056 1.376318,0 m -4.047564,-0.928714 0,4.395919 2.671246,0 0,-1.14198 c 0.355186,0.4678 0.754766,0.80948 1.19873,1.02503 0.443985,0.21097 0.984156,0.31645 1.620513,0.31645 0.85835,0 1.556382,-0.2316 2.094077,-0.69482 0.532774,-0.46779 0.799161,-1.07317 0.799161,-1.81615 0,-0.903491 -0.332984,-1.566206 -0.99894,-1.988148 -0.670899,-0.421923 -1.721642,-0.632894 -3.152228,-0.632903 l -1.561313,0 0,-0.192622 c 10e-6,-0.38982 0.165269,-0.674168 0.495776,-0.853045 0.330518,-0.183442 0.846021,-0.275169 1.546509,-0.275169 0.567305,0 1.095147,0.05275 1.583516,0.158226 0.488369,0.105491 0.942207,0.263717 1.361524,0.474678 l 0,-1.878069 c -0.567305,-0.128415 -1.137076,-0.224726 -1.709312,-0.288943 -0.572227,-0.06878 -1.144463,-0.103179 -1.7167,-0.103188 -1.494706,9e-6 -2.572583,0.275188 -3.233618,0.825525 -0.665947,0.545772 -0.99893,1.435505 -0.998941,2.669199"
         style="font-size:14.62716293px;font-style:normal;font-weight:normal;fill:url(#linearGradient12075);fill-opacity:1;stroke:none;font-family:Bitstream Vera Sans" />
      <path
         sodipodi:nodetypes="cccccsccccccccccc"
         style="font-size:19.23077393px;font-style:italic;font-variant:normal;font-weight:bold;font-stretch:normal;line-height:100%;writing-mode:lr-tb;text-anchor:start;fill:#000000;fill-opacity:1;stroke:none;font-family:Baskerville-Nova"
         d="m -21.48884,80.408716 c -0.7787,-0.675603 -2.1025,-0.433407 -2.6929,0.347815 -0.9754,1.183145 -1.2575,2.696662 -1.6164,4.112882 -0.2662,1.207793 -0.4334,2.434328 -0.501,3.665543 -0.7883,-1.556986 -1.6965,-3.229332 -1.713,-4.98263 -0.0218,-0.886203 0.5124,-1.637388 0.8692,-2.421086 0.2947,-0.656861 -0.5167,-1.340367 -1.2125,-1.129626 -0.8522,0.165435 -0.9942,1.10385 -0.9696,1.776748 0.0896,2.001311 0.9121,3.966407 1.7444,5.795446 1.1795,2.415398 2.8678,4.655352 5.076,6.354911 0.8684,0.622803 3.0647,1.345098 4.1492,0.969979 2,-0.993131 2,-2.979393 0,-2.979393 -0.7186,-0.323426 -2.5391,1.241314 -3.2752,1.216666 -1.2149,-0.009 -2.081,-1.049215 -2.4089,-2.04005 -0.3332,-1.310829 -0.0214,-2.665148 0.1844,-3.972115 0.3353,-1.699001 0.7126,-3.432419 1.5965,-4.969427 0.1808,-0.596946 1.5972,-0.951737 0.7698,-1.745663 z"
         id="use5968" />
    </g>
  </g>
</svg>
