<?xml version="1.0" encoding="UTF-8" standalone="no"?>
<!-- Created with Inkscape (http://www.inkscape.org/) -->
<svg
   xmlns:dc="http://purl.org/dc/elements/1.1/"
   xmlns:cc="http://creativecommons.org/ns#"
   xmlns:rdf="http://www.w3.org/1999/02/22-rdf-syntax-ns#"
   xmlns:svg="http://www.w3.org/2000/svg"
   xmlns="http://www.w3.org/2000/svg"
   xmlns:xlink="http://www.w3.org/1999/xlink"
   xmlns:sodipodi="http://sodipodi.sourceforge.net/DTD/sodipodi-0.dtd"
   xmlns:inkscape="http://www.inkscape.org/namespaces/inkscape"
   width="48"
   height="48"
   id="svg2"
   sodipodi:version="0.32"
   inkscape:version="0.46+devel r20659"
   version="1.0"
   sodipodi:docname="image-filter-flood.svg"
   inkscape:output_extension="org.inkscape.output.svg.inkscape"
   inkscape:export-filename="/home/felipe/devel/inkscape/inkscape/share/icons/feBlend-icon.png"
   inkscape:export-xdpi="90"
   inkscape:export-ydpi="90">
  <defs
     id="defs4">
    <linearGradient
       y2="914.67297"
       x2="1179.2837"
       y1="909.65936"
       x1="1180.5682"
       gradientUnits="userSpaceOnUse"
       id="linearGradient13634"
       xlink:href="#linearGradient13616-7"
       inkscape:collect="always" />
    <linearGradient
       id="linearGradient13616-7">
      <stop
         id="stop13618-5"
         offset="0"
         style="stop-color:#3465a4;stop-opacity:1;" />
      <stop
         id="stop13620-5"
         offset="0.86907172"
         style="stop-color:#729fcf;stop-opacity:1" />
    </linearGradient>
  </defs>
  <sodipodi:namedview
     id="base"
     pagecolor="#ffffff"
     bordercolor="#666666"
     borderopacity="1.0"
     inkscape:pageopacity="0.0"
     inkscape:pageshadow="2"
     inkscape:zoom="3.8080646"
     inkscape:cx="22.10465"
     inkscape:cy="29.326213"
     inkscape:document-units="px"
     inkscape:current-layer="layer1"
     showgrid="false"
     inkscape:window-width="964"
     inkscape:window-height="717"
     inkscape:window-x="50"
     inkscape:window-y="16" />
  <metadata
     id="metadata7">
    <rdf:RDF>
      <cc:Work
         rdf:about="">
        <dc:format>image/svg+xml</dc:format>
        <dc:type
           rdf:resource="http://purl.org/dc/dcmitype/StillImage" />
        <dc:title />
        <dc:date>2007-07-03</dc:date>
        <dc:creator>
          <cc:Agent>
            <dc:title>Felipe Corrêa da Silva Sanches</dc:title>
          </cc:Agent>
        </dc:creator>
        <dc:rights>
          <cc:Agent>
            <dc:title>Felipe Corrêa da Silva Sanches</dc:title>
          </cc:Agent>
        </dc:rights>
        <dc:publisher>
          <cc:Agent>
            <dc:title>Felipe Corrêa da Silva Sanches</dc:title>
          </cc:Agent>
        </dc:publisher>
        <dc:identifier />
        <dc:source />
        <dc:relation />
        <dc:language />
        <dc:subject>
          <rdf:Bag>
            <rdf:li>feBlend Example</rdf:li>
          </rdf:Bag>
        </dc:subject>
        <dc:coverage />
        <dc:description>this is an image originaly intended to be used in Inkscape</dc:description>
        <dc:contributor>
          <cc:Agent>
            <dc:title />
          </cc:Agent>
        </dc:contributor>
        <cc:license
           rdf:resource="http://creativecommons.org/licenses/by-sa/3.0/" />
      </cc:Work>
      <cc:License
         rdf:about="http://creativecommons.org/licenses/by-sa/3.0/">
        <cc:permits
           rdf:resource="http://creativecommons.org/ns#Reproduction" />
        <cc:permits
           rdf:resource="http://creativecommons.org/ns#Distribution" />
        <cc:requires
           rdf:resource="http://creativecommons.org/ns#Notice" />
        <cc:requires
           rdf:resource="http://creativecommons.org/ns#Attribution" />
        <cc:permits
           rdf:resource="http://creativecommons.org/ns#DerivativeWorks" />
        <cc:requires
           rdf:resource="http://creativecommons.org/ns#ShareAlike" />
      </cc:License>
    </rdf:RDF>
  </metadata>
  <g
     inkscape:label="Camada 1"
     inkscape:groupmode="layer"
     id="layer1"
     transform="translate(-155.36416,-264.88732)">
    <g
       transform="matrix(0.5,0,0,0.5,77.774105,132.57464)"
       id="layer1-6"
       inkscape:label="Camada 1">
      <rect
         y="270.00949"
         x="160.78661"
         height="85.645119"
         width="85.424026"
         id="rect3279"
         style="opacity:0.43324938;fill:#ffff11;fill-opacity:1;fill-rule:evenodd;stroke:#000000;stroke-width:2.90045166;stroke-linecap:round;stroke-linejoin:round;stroke-miterlimit:4;stroke-opacity:1;stroke-dasharray:2.90045164, 5.80090327;stroke-dashoffset:0" />
      <g
         transform="matrix(2.0980395,0,0,2.0980395,-2327.2244,-1605.9813)"
         inkscape:label="#draw_paintbucket"
         id="draw_paintbucket_alt"
         style="display:inline">
        <rect
           y="896"
           x="1200"
           height="24"
           width="23.999989"
           id="rect13894"
           style="opacity:0.24267782;fill:#ffffff;fill-opacity:0;stroke:none;display:inline" />
        <path
           id="path12994"
           d="m 1209.602,913.7266 12.5331,-5.70441 c 0.6919,-0.31489 0.4374,-3.31056 -1.087,-6.20439 -1.5244,-2.89385 -3.7443,-4.59544 -4.4361,-4.28055 l -12.5332,5.70438"
           style="fill:#729fcf;fill-opacity:1;stroke:#204a87;stroke-width:0.99999988;stroke-miterlimit:4;stroke-opacity:1;stroke-dasharray:none"
           sodipodi:nodetypes="ccscc" />
        <path
           sodipodi:nodetypes="ccscc"
           style="fill:none;stroke:#ffffff;stroke-width:1;stroke-miterlimit:4;stroke-opacity:0.50196078;stroke-dasharray:none"
           d="m 1210.512,912.2405 10.7003,-4.93386 c 0.6888,-0.31606 0.2661,-2.40395 -1.2516,-5.30857 -1.5177,-2.90466 -2.8234,-3.63042 -3.5121,-3.31436 l -10.5466,4.81929"
           id="path13019" />
        <path
           id="path16802"
           d="m 1205.6217,903.09453 c 1.5468,1.14905 2.8846,3.26079 2.8846,3.26079 8.7468,-1.64385 6.0769,-5.67022 13.0596,-1.78114 -1.0282,-3.08066 -3.1005,-6.29666 -5.0289,-6.46499 l -10.9153,4.98534 z"
           style="fill:#ffffff;fill-opacity:0.45263157;stroke:none"
           sodipodi:nodetypes="ccccc" />
        <path
           style="fill:none;stroke:#2e3436;stroke-width:3;stroke-linecap:butt;stroke-linejoin:miter;stroke-miterlimit:4;stroke-opacity:1;stroke-dasharray:none"
           d="M 1211.9375,903.68752 C 1210,897.19519 1205,897.19519 1206.9198,901.48193"
           id="path12998"
           sodipodi:nodetypes="cs" />
        <path
           sodipodi:type="arc"
           style="fill:#d3d7cf;fill-opacity:1;stroke:#2e3436;stroke-width:0.65625;stroke-linejoin:round;stroke-miterlimit:4;stroke-opacity:1;stroke-dasharray:none"
           id="path13000"
           sodipodi:cx="12.875"
           sodipodi:cy="14.875"
           sodipodi:rx="1.3125"
           sodipodi:ry="1.3125"
           d="m 14.1875,14.875 c 0,0.7245 -0.588,1.3125 -1.3125,1.3125 -0.7245,0 -1.3125,-0.588 -1.3125,-1.3125 0,-0.7245 0.588,-1.3125 1.3125,-1.3125 0.7245,0 1.3125,0.588 1.3125,1.3125 z"
           transform="matrix(1.5238095,0,0,1.5238095,1192.881,882.83333)" />
        <path
           sodipodi:nodetypes="cs"
           id="path13626"
           d="M 1212.4375,905.4375 C 1211,897 1205,897.22097 1206.9198,901.37141"
           style="fill:none;stroke:#d3d7cf;stroke-width:0.99999994;stroke-linecap:butt;stroke-linejoin:miter;stroke-opacity:1" />
        <path
           sodipodi:type="arc"
           style="fill:url(#linearGradient13634);fill-opacity:1;fill-rule:nonzero;stroke:#204a87;stroke-width:0.99739033;stroke-linecap:butt;stroke-linejoin:miter;stroke-miterlimit:4;stroke-opacity:1;stroke-dasharray:none;stroke-dashoffset:0;marker:none;visibility:visible;display:inline;overflow:visible;enable-background:accumulate"
           id="path13632"
           sodipodi:cx="1179.2773"
           sodipodi:cy="912.95593"
           sodipodi:rx="2.3422911"
           sodipodi:ry="5.038136"
           d="m 1181.6196,912.95593 c 0,2.78105 -1.0493,5.03814 -2.3423,5.03814 -1.2929,0 -2.3422,-2.25709 -2.3422,-5.03814 0,-2.78105 1.0493,-5.03813 2.3422,-5.03813 1.293,0 2.3423,2.25708 2.3423,5.03813 z"
           transform="matrix(0.7582508,-0.3582535,0.5932037,1.0454619,-228.78018,376.45604)" />
        <path
           sodipodi:nodetypes="cssccc"
           id="path13628"
           d="m 1207.3552,914.42745 c -4.6649,0.13871 -5.8592,1.06954 -5.87,2.01101 -0.012,1.03528 1.6166,2.08356 6.5038,2.10535 17.9954,0.0802 17.3244,-3.941 2.4065,-4.01199 -0.2649,-0.59702 -0.6607,-1.53182 -1.3678,-4.23893 -1.0277,-0.29289 -0.9694,2.79421 -1.6725,4.13456 z"
           style="fill:#fce94f;fill-opacity:1;fill-rule:nonzero;stroke:#c4a000;stroke-width:1.00000095;stroke-linecap:butt;stroke-linejoin:miter;stroke-miterlimit:4;stroke-opacity:1;stroke-dasharray:none;stroke-dashoffset:0;marker:none;visibility:visible;display:inline;overflow:visible;enable-background:accumulate" />
        <path
           d="m 1208.7812,911.8125 c -0.01,0.0418 -0.021,0.0505 -0.031,0.0937 -0.1959,0.86587 -0.3213,1.99811 -0.7812,2.875 a 0.71508143,0.71508143 0 0 1 -0.5938,0.375 c -2.2873,0.068 -3.7076,0.32107 -4.4375,0.625 -0.3649,0.15197 -0.5389,0.33413 -0.625,0.4375 -0.086,0.10337 -0.093,0.12986 -0.094,0.21875 -9e-4,0.0705 -2e-4,0.14718 0.125,0.28125 0.1251,0.13407 0.3738,0.29974 0.8124,0.46875 0.8773,0.33802 2.4504,0.61433 4.8438,0.625 4.4723,0.0199 7.7664,-0.2072 9.9375,-0.5625 1.0855,-0.17765 1.9108,-0.39436 2.4063,-0.59375 0.1548,-0.0623 0.2223,-0.10378 0.3124,-0.15625 -0.021,-0.0122 -0.01,-0.0186 -0.031,-0.0312 -0.3452,-0.1812 -1.0043,-0.37794 -1.9062,-0.5625 -1.804,-0.36913 -4.6151,-0.63865 -8.3126,-0.65625 a 0.71508143,0.71508143 0 0 1 -0.6562,-0.4375 c -0.186,-0.41925 -0.589,-1.7594 -0.9688,-3 z"
           id="path14055"
           style="fill:#fce94f;fill-opacity:1;fill-rule:nonzero;stroke:#ffffff;stroke-width:0.5;stroke-linecap:butt;stroke-linejoin:miter;stroke-miterlimit:4;stroke-opacity:1;stroke-dasharray:none;stroke-dashoffset:0;marker:none;visibility:visible;display:inline;overflow:visible;enable-background:accumulate"
           inkscape:original="M 1209.0312 910.28125 C 1208.0035 909.98834 1208.0468 913.09715 1207.3438 914.4375 C 1202.6788 914.57623 1201.5108 915.49603 1201.5 916.4375 C 1201.4882 917.47276 1203.1128 918.50946 1208 918.53125 C 1225.9954 918.61147 1225.3241 914.60224 1210.4062 914.53125 C 1210.1413 913.93425 1209.7383 912.98836 1209.0312 910.28125 z "
           inkscape:radius="-0.71500993"
           sodipodi:type="inkscape:offset" />
      </g>
    </g>
  </g>
</svg>
