<?xml version="1.0" encoding="UTF-8" standalone="no"?>
<!-- Created with Inkscape (http://www.inkscape.org/) -->
<svg
   xmlns:dc="http://purl.org/dc/elements/1.1/"
   xmlns:cc="http://creativecommons.org/ns#"
   xmlns:rdf="http://www.w3.org/1999/02/22-rdf-syntax-ns#"
   xmlns:svg="http://www.w3.org/2000/svg"
   xmlns="http://www.w3.org/2000/svg"
   xmlns:sodipodi="http://sodipodi.sourceforge.net/DTD/sodipodi-0.dtd"
   xmlns:inkscape="http://www.inkscape.org/namespaces/inkscape"
   width="48"
   height="48"
   id="svg2"
   sodipodi:version="0.32"
   inkscape:version="0.46+devel r20659"
   version="1.0"
   sodipodi:docname="image-filter-offset.svg"
   inkscape:output_extension="org.inkscape.output.svg.inkscape"
   inkscape:export-filename="/home/felipe/devel/inkscape/inkscape/share/icons/feBlend-icon.png"
   inkscape:export-xdpi="90"
   inkscape:export-ydpi="90">
  <defs
     id="defs4" />
  <sodipodi:namedview
     id="base"
     pagecolor="#ffffff"
     bordercolor="#666666"
     borderopacity="1.0"
     inkscape:pageopacity="0.0"
     inkscape:pageshadow="2"
     inkscape:zoom="2.6927083"
     inkscape:cx="11.568965"
     inkscape:cy="11.919367"
     inkscape:document-units="px"
     inkscape:current-layer="layer1"
     showgrid="false"
     inkscape:window-width="964"
     inkscape:window-height="717"
     inkscape:window-x="50"
     inkscape:window-y="16" />
  <metadata
     id="metadata7">
    <rdf:RDF>
      <cc:Work
         rdf:about="">
        <dc:format>image/svg+xml</dc:format>
        <dc:type
           rdf:resource="http://purl.org/dc/dcmitype/StillImage" />
        <dc:title />
        <dc:date>2007-07-03</dc:date>
        <dc:creator>
          <cc:Agent>
            <dc:title>Felipe Corrêa da Silva Sanches</dc:title>
          </cc:Agent>
        </dc:creator>
        <dc:rights>
          <cc:Agent>
            <dc:title>Felipe Corrêa da Silva Sanches</dc:title>
          </cc:Agent>
        </dc:rights>
        <dc:publisher>
          <cc:Agent>
            <dc:title>Felipe Corrêa da Silva Sanches</dc:title>
          </cc:Agent>
        </dc:publisher>
        <dc:identifier />
        <dc:source />
        <dc:relation />
        <dc:language />
        <dc:subject>
          <rdf:Bag>
            <rdf:li>feBlend Example</rdf:li>
          </rdf:Bag>
        </dc:subject>
        <dc:coverage />
        <dc:description>this is an image originaly intended to be used in Inkscape</dc:description>
        <dc:contributor>
          <cc:Agent>
            <dc:title />
          </cc:Agent>
        </dc:contributor>
        <cc:license
           rdf:resource="http://creativecommons.org/licenses/by-sa/3.0/" />
      </cc:Work>
      <cc:License
         rdf:about="http://creativecommons.org/licenses/by-sa/3.0/">
        <cc:permits
           rdf:resource="http://creativecommons.org/ns#Reproduction" />
        <cc:permits
           rdf:resource="http://creativecommons.org/ns#Distribution" />
        <cc:requires
           rdf:resource="http://creativecommons.org/ns#Notice" />
        <cc:requires
           rdf:resource="http://creativecommons.org/ns#Attribution" />
        <cc:permits
           rdf:resource="http://creativecommons.org/ns#DerivativeWorks" />
        <cc:requires
           rdf:resource="http://creativecommons.org/ns#ShareAlike" />
      </cc:License>
    </rdf:RDF>
  </metadata>
  <g
     inkscape:label="Camada 1"
     inkscape:groupmode="layer"
     id="layer1"
     transform="translate(-155.36416,-264.88732)">
    <g
       transform="matrix(0.5,0,0,0.5,77.842858,131.91214)"
       id="layer1-7"
       inkscape:label="Camada 1">
      <g
         transform="matrix(0.1810525,0,0,0.1810525,154.52853,194.85918)"
         id="g3224">
        <path
           style="opacity:0.41176471;fill:#000000;fill-opacity:0.15602836;fill-rule:evenodd;stroke:#000000;stroke-width:15;stroke-linecap:round;stroke-linejoin:round;stroke-miterlimit:4;stroke-opacity:1;stroke-dasharray:30.00000011, 30.00000011;stroke-dashoffset:0"
           d="m 299.34303,432.45045 c -36.90338,1.53204 -71.82466,22.37438 -92.45149,52.72948 -10.98739,15.28152 -20.65359,32.22384 -36.12645,43.52626 -12.86528,8.01243 -28.49411,8.64022 -43.20213,9.21234 -22.61304,1.17086 -45.948572,2.61558 -66.806587,12.26949 -19.874008,9.61918 -32.796032,32.93332 -28.493522,54.89304 3.288033,18.65843 16.838645,34.32817 33.384472,42.90754 15.384366,9.28652 32.790252,16.14016 45.091127,29.73433 11.08539,12.87386 13.04611,31.83195 7.46046,47.52909 -5.47418,20.81684 -11.93778,42.14313 -9.61572,63.91922 1.76997,15.2426 13.5542,29.55959 29.04688,32.07582 15.50383,2.98055 31.17937,-1.1078 46.06257,-5.2587 17.73086,-5.49551 34.75577,-14.11802 53.46826,-15.80297 11.87569,-0.19046 22.46255,6.2334 31.81802,12.87892 20.10787,13.40209 39.94218,28.15876 63.25989,35.5227 13.47223,4.2631 28.58264,6.11629 42.02668,0.76754 10.70809,-4.20376 19.68675,-13.03222 23.14965,-24.11388 4.46863,-12.67209 2.51522,-26.63268 -1.988,-39.00425 -5.67097,-17.9021 -15.3303,-34.84866 -16.61281,-53.90659 0.30188,-11.93262 9.15772,-22.21396 19.79721,-26.78103 18.46402,-10.76796 36.02374,-24.51152 46.85634,-43.2892 11.21099,-18.09097 17.5252,-39.68259 15.59281,-61.02992 -1.3449,-9.99328 -6.24482,-20.55885 -15.80185,-25.03105 -11.13998,-5.55663 -23.98898,-4.17763 -35.95711,-3.13762 -16.45198,1.48709 -33.57293,3.83916 -49.59792,-1.52357 -14.79946,-3.54102 -24.21162,-20.2249 -20.84978,-34.82055 3.92917,-19.8499 11.60968,-39.34389 10.44651,-59.88844 -0.80341,-18.76162 -14.34037,-35.94881 -32.09412,-41.77258 -5.71087,-2.01655 -11.81297,-2.92666 -17.86339,-2.60542 z"
           id="path2447" />
        <path
           style="fill:#000000;fill-opacity:0.12765958;fill-rule:evenodd;stroke:#000000;stroke-width:15;stroke-linecap:round;stroke-linejoin:round;stroke-miterlimit:4;stroke-opacity:1;stroke-dasharray:none;stroke-dashoffset:0"
           d="m 346.79768,464.3826 c -36.90338,1.53204 -71.82466,22.37438 -92.45149,52.72948 -10.98739,15.28152 -20.65359,32.22384 -36.12645,43.52626 -12.86528,8.01243 -28.49411,8.64022 -43.20213,9.21234 -22.61304,1.17086 -45.94857,2.61558 -66.80659,12.26949 -19.87401,9.61918 -32.79603,32.93332 -28.49352,54.89304 3.28803,18.65843 16.83864,34.32817 33.38447,42.90754 15.38437,9.28652 32.79025,16.14016 45.09113,29.73433 11.08539,12.87386 13.04611,31.83195 7.46046,47.52909 -5.47418,20.81684 -11.93778,42.14313 -9.61572,63.91922 1.76997,15.2426 13.5542,29.55959 29.04688,32.07582 15.50383,2.98055 31.17937,-1.1078 46.06257,-5.2587 17.73086,-5.49551 34.75577,-14.11802 53.46826,-15.80297 11.87569,-0.19046 22.46255,6.2334 31.81802,12.87892 20.10787,13.40209 39.94218,28.15876 63.25989,35.5227 13.47223,4.2631 28.58264,6.11629 42.02668,0.76754 10.70809,-4.20376 19.68675,-13.03222 23.14965,-24.11388 4.46863,-12.67209 2.51522,-26.63268 -1.988,-39.00425 -5.67097,-17.9021 -15.3303,-34.84866 -16.61281,-53.90659 0.30188,-11.93262 9.15772,-22.21396 19.79721,-26.78103 18.46402,-10.76796 36.02374,-24.51152 46.85634,-43.2892 11.21099,-18.09097 17.5252,-39.68259 15.59281,-61.02992 -1.3449,-9.99328 -6.24482,-20.55885 -15.80185,-25.03105 -11.13998,-5.55663 -23.98898,-4.17763 -35.95711,-3.13762 -16.45198,1.48709 -33.57293,3.83916 -49.59792,-1.52357 -14.79946,-3.54102 -24.21162,-20.2249 -20.84978,-34.82055 3.92917,-19.8499 11.60968,-39.34389 10.44651,-59.88844 -0.80341,-18.76162 -14.34037,-35.94881 -32.09412,-41.77258 -5.71087,-2.01655 -11.81297,-2.92666 -17.86339,-2.60542 z"
           id="path2450" />
      </g>
    </g>
  </g>
</svg>
