<?xml version="1.0" encoding="UTF-8" standalone="no"?>
<!-- Created with Inkscape (http://www.inkscape.org/) -->
<svg
   xmlns:dc="http://purl.org/dc/elements/1.1/"
   xmlns:cc="http://creativecommons.org/ns#"
   xmlns:rdf="http://www.w3.org/1999/02/22-rdf-syntax-ns#"
   xmlns:svg="http://www.w3.org/2000/svg"
   xmlns="http://www.w3.org/2000/svg"
   xmlns:xlink="http://www.w3.org/1999/xlink"
   xmlns:sodipodi="http://sodipodi.sourceforge.net/DTD/sodipodi-0.dtd"
   xmlns:inkscape="http://www.inkscape.org/namespaces/inkscape"
   width="48px"
   height="48px"
   id="svg5662"
   sodipodi:version="0.32"
   inkscape:version="0.46+devel r20659"
   sodipodi:docname="path-effect-parameter-next.svg"
   inkscape:output_extension="org.inkscape.output.svg.inkscape">
  <defs
     id="defs5664">
    <linearGradient
       inkscape:collect="always"
       xlink:href="#linearGradient3480"
       id="linearGradient6931"
       gradientUnits="userSpaceOnUse"
       x1="10.192928"
       y1="249.821"
       x2="12.50002"
       y2="255.5" />
    <linearGradient
       id="linearGradient3480">
      <stop
         id="stop3482"
         offset="0.0000000"
         style="stop-color:#646464;stop-opacity:1.0000000;" />
      <stop
         id="stop3484"
         offset="1.0000000"
         style="stop-color:#000000;stop-opacity:1.0000000;" />
    </linearGradient>
    <inkscape:path-effect
       fuse_tolerance="0"
       vertical_pattern="false"
       prop_units="false"
       tang_offset="0"
       normal_offset="0"
       spacing="0"
       copytype="single_stretched"
       deactivate_knotholder="false"
       is_visible="true"
       effect="skeletal"
       id="path-effect9860"
       prop_scale="1.03"
       pattern="m -5.9285923,-249.1605 c -79.6766667,41.19183 -119.9999977,66 -119.9999977,84 0,18 39.627421,78.060299 81.20529,83.999999 23.999999,-42.000009 0.198,-107.913639 38.7947077,-168.000009 z m 48.0000033,24 c -35.5373733,26.69247 -55.886853,92.32867 0,125.999999 -33.7742133,-73.402349 -2.21862,-123.150159 0,-125.999999 z m 59.999999,18 c -39.433499,30.44095 -29.999999,60 0,84 -17.999999,-36 -2.249192,-83.71203 0,-84 z m 90,-15.20529 c -14.56533,3.47366 -20.97027,27.14064 -30,33.20529 -17.44857,11.71897 -30.32565,8.61993 -30.0738,23.94621 0.32679,19.8855 7.51704,13.55934 30.0738,24.05379 7.03944,3.27506 21.34167,31.55019 30,32.79471 -12,-42 -12,-78 0,-114 z"
       scale_y_rel="true"
       pattern-nodetypes="czcccccccccssscc" />
  </defs>
  <sodipodi:namedview
     id="base"
     pagecolor="#ffffff"
     bordercolor="#666666"
     borderopacity="1.0"
     inkscape:pageopacity="0.0"
     inkscape:pageshadow="2"
     inkscape:zoom="3.5"
     inkscape:cx="26.865729"
     inkscape:cy="37"
     inkscape:current-layer="layer1"
     showgrid="true"
     inkscape:grid-bbox="true"
     inkscape:document-units="px"
     inkscape:window-width="755"
     inkscape:window-height="630"
     inkscape:window-x="234"
     inkscape:window-y="56"
     showguides="true"
     inkscape:guide-bbox="true" />
  <metadata
     id="metadata5667">
    <rdf:RDF>
      <cc:Work
         rdf:about="">
        <dc:format>image/svg+xml</dc:format>
        <dc:type
           rdf:resource="http://purl.org/dc/dcmitype/StillImage" />
        <dc:title />
      </cc:Work>
    </rdf:RDF>
  </metadata>
  <g
     id="layer1"
     inkscape:label="Layer 1"
     inkscape:groupmode="layer">
    <path
       sodipodi:nodetypes="cc"
       inkscape:original-d="M 8.4480079,35.366938 C 10.878008,24.197218 16.537208,15.058678 34.687811,9.0928784"
       inkscape:path-effect="#path-effect9860"
       id="path9858"
       d="m 5.8589783,15.473555 c -1.0241055,3.544515 -1.3038887,6.516436 -1.284183,8.995277 0.019706,2.478841 0.34671,4.465357 0.7658413,6.033926 0.4191313,1.568569 0.935516,2.71963 1.4671151,3.513182 0.531599,0.793553 1.0813763,1.229412 1.6402569,1.350998 1.1177611,0.243172 3.7986614,-0.438368 6.4540264,-1.321815 1.327683,-0.441724 2.645888,-0.931865 3.757488,-1.449818 1.1116,-0.517953 2.013203,-1.060978 2.55583,-1.7252 -0.96249,-1.05083 -2.146079,-2.039511 -3.487929,-3.014695 -1.34185,-0.975183 -2.844087,-1.929182 -4.374731,-2.974963 C 11.822049,23.834666 10.259459,22.69811 8.901004,21.23017 7.5425493,19.76223 6.3739475,17.959188 5.8589773,15.473554 z m 7.5860537,-3.579387 c -0.367425,1.168012 -0.491012,2.417414 -0.363871,3.625141 0.12714,1.207727 0.504694,2.372448 1.090079,3.406657 0.994157,1.762805 2.571641,3.091371 4.387058,3.951779 1.602345,0.742405 3.354226,1.101436 5.253182,1.079641 -2.085121,-1.25843 -3.901184,-2.458208 -5.3662,-3.684626 -1.465017,-1.226419 -2.573555,-2.477761 -3.341255,-3.663895 -0.767701,-1.186135 -1.197177,-2.300037 -1.419648,-3.152538 -0.222471,-0.852501 -0.244794,-1.439134 -0.239345,-1.562159 z m 8.394966,-3.1008067 c -0.717352,1.5196637 -0.982001,2.8279317 -0.933734,3.9176447 0.04827,1.089712 0.407694,1.964161 0.965846,2.671818 1.116303,1.415314 2.998979,2.188496 5.169756,2.74378 C 25.070588,16.593445 23.607198,14.390052 22.766897,12.45784 21.926596,10.525628 21.713322,8.8862564 21.839998,8.7933613 z M 32.417499,2.1855845 c -0.86476,0.4976564 -1.256595,1.5434789 -1.521016,2.5980286 -0.26442,1.0545497 -0.404734,2.118835 -0.813077,2.6906502 -0.789061,1.1049432 -1.576121,1.7368919 -2.071738,2.3179968 -0.495618,0.5811049 -0.692171,1.1051579 -0.268539,1.9883239 0.549655,1.145887 0.936847,1.442445 1.561784,1.476883 0.624937,0.03444 1.500301,-0.199062 2.986322,-0.05569 0.463752,0.04474 1.407911,0.765796 2.33318,1.464391 0.925269,0.698595 1.832401,1.371779 2.317414,1.284434 C 35.470424,13.640127 34.309322,11.410974 33.531872,9.1514711 32.754422,6.8919682 32.362624,4.5962353 32.417499,2.1855845 z"
       style="fill:#ffffff;fill-opacity:1;fill-rule:evenodd;stroke:#4d4d4d;stroke-width:3px;stroke-linecap:butt;stroke-linejoin:round;stroke-opacity:1" />
    <path
       style="fill:none;stroke:#008000;stroke-width:3.00000072;stroke-linecap:round;stroke-linejoin:round;stroke-miterlimit:0;stroke-opacity:1;stroke-dasharray:none"
       d="M 7.5714079,40.339498 C 9.9888077,20.886628 24.295508,10.362898 40.571411,7.3394984"
       id="path9256"
       sodipodi:nodetypes="cc" />
    <rect
       y="0"
       x="0"
       height="48"
       width="48"
       id="rect9258"
       style="fill:none;stroke:none;stroke-width:1;marker:none;display:inline" />
    <g
       id="use9872"
       transform="matrix(3,0,0,3,0.07140785,-732.16049)">
      <path
         style="color:#000000;fill:#ffd400;fill-opacity:1;fill-rule:evenodd;stroke:url(#linearGradient6931);stroke-width:1.00260592;stroke-linecap:round;stroke-linejoin:round;stroke-miterlimit:4;stroke-opacity:1;stroke-dasharray:none;stroke-dashoffset:0;marker:none;display:inline"
         d="m 15.50002,251.5 0,0 0,8 0,0 0,-4 -6,4 0,-8 6,4 0,-4 z"
         id="path6927"
         sodipodi:nodetypes="ccccccccc" />
      <path
         style="fill:none;stroke:#ffffff;stroke-width:1.0026058px;stroke-linecap:round;stroke-linejoin:miter;stroke-opacity:1"
         d="m 10.43978,257.6603 3.2458,-2.2228"
         id="path6929"
         sodipodi:nodetypes="cc" />
    </g>
    <rect
       rx="3.0330782"
       ry="3.0330782"
       y="4.3395081"
       x="40.571228"
       height="6.0799866"
       width="6.0661564"
       id="use10185"
       style="color:#000000;fill:#ffffff;fill-opacity:0.39215692;fill-rule:evenodd;stroke:#0000ff;stroke-width:3.00000215;stroke-linecap:round;stroke-linejoin:round;stroke-miterlimit:0;stroke-opacity:1;stroke-dasharray:none;stroke-dashoffset:0;marker:none;display:inline" />
    <rect
       rx="3.0330782"
       ry="3.0330782"
       y="40.339497"
       x="4.571228"
       height="6.0799866"
       width="6.0661564"
       id="use10187"
       style="color:#000000;fill:#ffffff;fill-opacity:0.39215692;fill-rule:evenodd;stroke:#0000ff;stroke-width:3.00000215;stroke-linecap:round;stroke-linejoin:round;stroke-miterlimit:0;stroke-opacity:1;stroke-dasharray:none;stroke-dashoffset:0;marker:none;display:inline" />
  </g>
</svg>
