<?xml version="1.0" encoding="UTF-8" standalone="no"?>
<!-- Created with Inkscape (http://www.inkscape.org/) -->
<svg
   xmlns:dc="http://purl.org/dc/elements/1.1/"
   xmlns:cc="http://creativecommons.org/ns#"
   xmlns:rdf="http://www.w3.org/1999/02/22-rdf-syntax-ns#"
   xmlns:svg="http://www.w3.org/2000/svg"
   xmlns="http://www.w3.org/2000/svg"
   xmlns:sodipodi="http://sodipodi.sourceforge.net/DTD/sodipodi-0.dtd"
   xmlns:inkscape="http://www.inkscape.org/namespaces/inkscape"
   width="48px"
   height="48px"
   id="svg5668"
   sodipodi:version="0.32"
   inkscape:version="0.46+devel r20653"
   sodipodi:docname="text-remove-from-path.svg"
   inkscape:output_extension="org.inkscape.output.svg.inkscape">
  <defs
     id="defs5670" />
  <sodipodi:namedview
     id="base"
     pagecolor="#ffffff"
     bordercolor="#666666"
     borderopacity="1.0"
     inkscape:pageopacity="0.0"
     inkscape:pageshadow="2"
     inkscape:zoom="3.5"
     inkscape:cx="17.349053"
     inkscape:cy="34.307435"
     inkscape:current-layer="layer1"
     showgrid="false"
     inkscape:grid-bbox="true"
     inkscape:document-units="px"
     gridtolerance="1"
     inkscape:window-width="770"
     inkscape:window-height="575"
     inkscape:window-x="255"
     inkscape:window-y="52"
     inkscape:snap-global="true">
    <inkscape:grid
       type="xygrid"
       id="grid7154"
       empspacing="5"
       visible="true"
       enabled="true" />
  </sodipodi:namedview>
  <metadata
     id="metadata5673">
    <rdf:RDF>
      <cc:Work
         rdf:about="">
        <dc:format>image/svg+xml</dc:format>
        <dc:type
           rdf:resource="http://purl.org/dc/dcmitype/StillImage" />
        <dc:title></dc:title>
      </cc:Work>
    </rdf:RDF>
  </metadata>
  <g
     id="layer1"
     inkscape:label="Layer 1"
     inkscape:groupmode="layer">
    <g
       transform="matrix(3,0,0,3,-839.98517,-132)"
       id="remove_from_path"
       inkscape:label="#remove_from_path">
      <rect
         y="44"
         x="280"
         height="16"
         width="16"
         id="rect8477"
         style="color:#000000;fill:none;stroke-width:0.53149599;stroke-linecap:butt;stroke-linejoin:round;stroke-miterlimit:4;stroke-opacity:1;stroke-dasharray:none;stroke-dashoffset:0;marker:none;display:inline" />
      <g
         id="g12114">
        <g
           id="g13610">
          <path
             id="path9935"
             style="fill:none;stroke:#000000;stroke-width:1px;stroke-linecap:round;stroke-linejoin:round;stroke-opacity:1"
             d="m 283.5,49.5 1.7679,-1.80656 c 0.5,-0.5 1.5,-0.5 2,0 l 1,1 c 0.5,0.5 0.5,1.5 0,2 L 286.5,52.5 l -6,-6 M 293.7061,45 c -0.2173,-0.36011 -0.8214,-0.60415 -1.2708,-0.5 l -1.9971,0.42262 c -0.5148,0.17433 -0.7976,0.85161 -0.6547,1.29675 l 0.2592,1.91231 c 0.0876,0.4703 0.8162,0.92394 1.3837,0.82963 l 1.5871,-0.28322 c 0.6641,-0.14912 1.0187,-0.68512 0.9865,-1.14375 M 285.5,53.5 c -0.1399,0.48808 -0.5893,0.89879 -1,1 l -2,-0.80656 C 281.8066,53.52383 281.1905,53.85716 281,54.5 l -0.4613,1.84525 c -0.1429,0.69344 0.0625,1.46425 0.6547,1.65475 l 1.9971,0.38394 c 0.6041,0.16961 1.2731,-0.51299 1.3095,-1.07738 0.0677,-1.05151 0.2321,-1.90973 0,-2.80656" />
        </g>
        <path
           sodipodi:nodetypes="cc"
           id="path9203"
           d="m 288.5,53.5 c 1.5,-2 4,-3 7,-3"
           style="fill:none;stroke:#646464;stroke-width:1.00000024;stroke-linecap:round;stroke-linejoin:round;stroke-miterlimit:0;stroke-opacity:1;stroke-dasharray:none" />
      </g>
      <path
         style="fill:#c80000;fill-opacity:1;fill-rule:evenodd;stroke:none"
         d="m 287,55 1,0 1.5,1.5 1.5,-1.5 1,0 0,1 -1.5,1.5 1.5,1.5 0,1 -1,0 -1.5,-1.5 -1.5,1.5 -1,0 0,-1 1.5,-1.5 -1.5,-1.5 0,-1 z"
         id="path13657"
         sodipodi:nodetypes="ccccccccccccccccc" />
    </g>
  </g>
</svg>
