<?xml version="1.0" encoding="UTF-8" standalone="no"?>
<!-- Created with Inkscape (http://www.inkscape.org/) -->
<svg
   xmlns:dc="http://purl.org/dc/elements/1.1/"
   xmlns:cc="http://creativecommons.org/ns#"
   xmlns:rdf="http://www.w3.org/1999/02/22-rdf-syntax-ns#"
   xmlns:svg="http://www.w3.org/2000/svg"
   xmlns="http://www.w3.org/2000/svg"
   xmlns:xlink="http://www.w3.org/1999/xlink"
   xmlns:sodipodi="http://sodipodi.sourceforge.net/DTD/sodipodi-0.dtd"
   xmlns:inkscape="http://www.inkscape.org/namespaces/inkscape"
   width="48px"
   height="48px"
   id="svg17007"
   sodipodi:version="0.32"
   inkscape:version="0.46+devel r20659"
   sodipodi:docname="tool-tweak.svg"
   inkscape:output_extension="org.inkscape.output.svg.inkscape">
  <defs
     id="defs17009">
    <linearGradient
       inkscape:collect="always"
       xlink:href="#linearGradient1610"
       id="linearGradient4415"
       gradientUnits="userSpaceOnUse"
       gradientTransform="matrix(0.9891733,0,0,0.9571849,-1182.248,9.280945)"
       x1="1095.3066"
       y1="180.82251"
       x2="1095.3198"
       y2="214.02989" />
    <linearGradient
       id="linearGradient1610">
      <stop
         id="stop1611"
         offset="0.0000000"
         style="stop-color:#000000;stop-opacity:1.0000000" />
      <stop
         id="stop3053"
         offset="0.35076979"
         style="stop-color:#7f7f7f;stop-opacity:1.0000000" />
      <stop
         id="stop3054"
         offset="0.59668732"
         style="stop-color:#bfbfbf;stop-opacity:1.0000000" />
      <stop
         id="stop3055"
         offset="0.78382427"
         style="stop-color:#dfdfdf;stop-opacity:1.0000000" />
      <stop
         id="stop1612"
         offset="1.0000000"
         style="stop-color:#ffffff;stop-opacity:1.0000000" />
    </linearGradient>
  </defs>
  <sodipodi:namedview
     id="base"
     pagecolor="#ffffff"
     bordercolor="#666666"
     borderopacity="1.0"
     inkscape:pageopacity="0.0"
     inkscape:pageshadow="2"
     inkscape:zoom="3.5"
     inkscape:cx="23.815389"
     inkscape:cy="30.426407"
     inkscape:current-layer="layer1"
     showgrid="true"
     inkscape:grid-bbox="true"
     inkscape:document-units="px"
     inkscape:window-width="679"
     inkscape:window-height="436"
     inkscape:window-x="335"
     inkscape:window-y="159" />
  <metadata
     id="metadata17012">
    <rdf:RDF>
      <cc:Work
         rdf:about="">
        <dc:format>image/svg+xml</dc:format>
        <dc:type
           rdf:resource="http://purl.org/dc/dcmitype/StillImage" />
        <dc:title />
      </cc:Work>
    </rdf:RDF>
  </metadata>
  <g
     id="layer1"
     inkscape:label="Layer 1"
     inkscape:groupmode="layer">
    <g
       transform="matrix(1.9221844,0,0,1.9610846,212.42041,-353.04131)"
       id="draw_tweak"
       inkscape:label="#g4398">
      <rect
         style="color:#000000;fill:none;stroke:none;stroke-width:1;marker:none;display:inline"
         id="rect4400"
         width="24.97159"
         height="24.47625"
         x="-110.5099"
         y="180.0235" />
      <path
         style="fill:url(#linearGradient4415);fill-opacity:1;fill-rule:nonzero;stroke:#000000;stroke-width:0.91853738;stroke-linecap:butt;stroke-linejoin:miter;stroke-miterlimit:4;stroke-opacity:1;stroke-dasharray:none;stroke-dashoffset:0;marker:none;visibility:visible;display:inline"
         d="m -109.5169,193.9456 c 8.2165,1.6913 5.1224,-7.85 10.71653,-11.5841 1.72915,-1.1542 6.23552,-0.8058 7.60383,2.2962 1.01863,2.3092 0.57299,3.7792 -0.88086,3.3379 -1.52946,-0.4643 -1.24291,-2.3104 -3.81779,-1.813 -1.3025,0.2516 -2.0822,2.3434 -1.10913,4.6913 1.09776,2.6488 3.352,4.4227 8.9464,3.0717 l 0,9.5976 -21.45898,0 0,-9.5976 z"
         id="rect4412"
         sodipodi:nodetypes="cssssscccc" />
      <path
         style="fill:none;stroke:#ffffff;stroke-width:0.91853738;stroke-linecap:butt;stroke-linejoin:miter;stroke-miterlimit:4;stroke-opacity:1;stroke-dasharray:none;stroke-dashoffset:0;marker:none;visibility:visible;display:inline"
         d="m -96.8577,182.6385 c -2.71067,0.552 -4.0177,3.4163 -4.8477,5.9037 -0.7259,2.2595 -1.4136,5.0237 -3.7439,6.0105 -1.0107,0.3882 -2.9612,0.5448 -4.0361,0.3826 l -0.0291,8.5583 21.4833,0.06 0,-8.5582 c -2.78224,0.4279 -5.92299,0.3649 -8.21536,-1.4697 -2.01583,-1.6882 -2.67843,-5.0914 -1.22227,-7.3482 1.45069,-1.684 4.46573,-0.982 5.41291,0.8999 0.78385,0.398 0.53026,-0.7543 0.39943,-1.2072 -0.63017,-2.1587 -3.02208,-3.4761 -5.20121,-3.2317 z"
         id="path4416"
         sodipodi:nodetypes="ccccccccccsc" />
    </g>
  </g>
</svg>
