/* XPM */
static const char * cursor_pencil_xpm[] = {
"32 32 3 1",
" 	c None",
".	c #FFFFFF",
"+	c #000000",
"   ...                          ",
"   .+.                          ",
"   .+.                          ",
"....+....                       ",
".+++ +++.                       ",
"....+....                       ",
"   .+.                          ",
"   .+. ...                      ",
"   ... .++...                   ",
"       .+++++...                ",
"        .+++.+++..              ",
"        .++.....++.             ",
"        .+........+.            ",
"         .+......+.+.           ",
"         .+....+++..+.          ",
"         .+...+...+..+.         ",
"          .+..+....+..+.        ",
"          .+.++.....+..+.       ",
"           .+..+.....+. +.      ",
"            .+..+.....+.        ",
"             .+..+... .+.       ",
"              .+..+. . .        ",
"               .+..+. .         ",
"                .+ .+.          ",
"                 .+ .           ",
"                  .             ",
"                                ",
"                                ",
"                                ",
"                                ",
"                                ",
"                                "};
