<?xml version="1.0" encoding="UTF-8" standalone="no"?>
<svg
   xmlns:svg="http://www.w3.org/2000/svg"
   xmlns="http://www.w3.org/2000/svg"
   xmlns:inkscape="http://www.inkscape.org/namespaces/inkscape"
   version="1.0"
   width="864"
   height="648">
  <path
     d="M 501.05404,466.85224 C 476.23121,464.26 450.75956,455.65261 431.87769,443.47613 C 411.95632,430.91317 396.56831,411.01358 396.56831,387 C 395.84362,362.80636 412.72694,342.89906 432.21417,330.29284 C 440.0046,325.25324 455.28275,317.82286 461.75,315.92839 C 463.24592,315.49019 464.58333,314.62784 466,313.97757 C 460.54092,310.85142 454.62917,308.18456 449.14094,304.90725 C 430.18578,293.04365 414.6003,275.02312 414.6003,252 C 413.48545,214.23492 454.91385,193.54639 486.5,184.14099 C 495.98819,181.95601 510.61229,180.02198 517.75,180.0082 L 522,180 L 522,198 L 518.7101,198 C 490.39366,199.42169 468,224.07106 468,252 C 467.62164,280.07697 490.67991,304.37293 518.7101,306 C 519.80673,306 520.90337,306 522,306 L 522,323.55734 L 514.90208,324.67499 C 493.1939,327.67962 477.89904,345.53362 471.28084,365.47892 C 467.15061,378.95077 466.81709,395.06873 471.28084,408.52108 C 474.68237,422.00803 482.98703,432.65142 493.36034,441.06884 C 501.39086,447.58519 511.75825,448.93827 522,450.44266 L 522,468 L 515.75,467.86712 C 512.3125,467.79404 505.69932,467.33734 501.05404,466.85224 z"/>
</svg>
