<?xml version="1.0" encoding="UTF-8" standalone="no"?>
<!-- Created with Inkscape (http://www.inkscape.org/) -->

<svg
   xmlns:dc="http://purl.org/dc/elements/1.1/"
   xmlns:cc="http://creativecommons.org/ns#"
   xmlns:rdf="http://www.w3.org/1999/02/22-rdf-syntax-ns#"
   xmlns:svg="http://www.w3.org/2000/svg"
   xmlns="http://www.w3.org/2000/svg"
   xmlns:xlink="http://www.w3.org/1999/xlink"
   xmlns:sodipodi="http://sodipodi.sourceforge.net/DTD/sodipodi-0.dtd"
   xmlns:inkscape="http://www.inkscape.org/namespaces/inkscape"
   width="48"
   height="48"
   id="svg2880"
   sodipodi:version="0.32"
   inkscape:version="0.46+devel r21165 custom"
   version="1.0"
   sodipodi:docname="draw-geometry-show-measuring-info.svg"
   inkscape:output_extension="org.inkscape.output.svg.inkscape">
  <defs
     id="defs2882">
    <linearGradient
       inkscape:collect="always"
       id="linearGradient3740"
       gradientUnits="userSpaceOnUse"
       x1="899.69342"
       y1="116.86476"
       x2="906.64484"
       y2="132.82727"
       xlink:href="/home/tweenk/#linearGradient1887" />
    <linearGradient
       id="linearGradient1887">
      <stop
         id="stop1888"
         offset="0.0000000"
         style="stop-color:#fffdf8;stop-opacity:1.0000000;" />
      <stop
         id="stop1889"
         offset="1.0000000"
         style="stop-color:#cdccc7;stop-opacity:1.0000000;" />
    </linearGradient>
    <linearGradient
       xlink:href="#linearGradient1887"
       gradientTransform="matrix(2.0000001,0,0,2.0000001,-1781.98,-228.21803)"
       y2="132.82727"
       x2="906.64484"
       y1="116.86476"
       x1="899.69342"
       gradientUnits="userSpaceOnUse"
       id="linearGradient3597"
       inkscape:collect="always" />
  </defs>
  <sodipodi:namedview
     id="base"
     pagecolor="#ffffff"
     bordercolor="#666666"
     borderopacity="1.0"
     inkscape:pageopacity="0.0"
     inkscape:pageshadow="2"
     inkscape:zoom="1.4"
     inkscape:cx="15.910119"
     inkscape:cy="38.775355"
     inkscape:document-units="px"
     inkscape:current-layer="layer1"
     showgrid="false"
     inkscape:window-width="1024"
     inkscape:window-height="737"
     inkscape:window-x="0"
     inkscape:window-y="1" />
  <metadata
     id="metadata2885">
    <rdf:RDF>
      <cc:Work
         rdf:about="">
        <dc:format>image/svg+xml</dc:format>
        <dc:type
           rdf:resource="http://purl.org/dc/dcmitype/StillImage" />
        <dc:title></dc:title>
      </cc:Work>
    </rdf:RDF>
  </metadata>
  <g
     inkscape:label="Layer 1"
     inkscape:groupmode="layer"
     id="layer1">
    <path
       sodipodi:nodetypes="cccccccc"
       id="rect5189-6"
       d="m 1.0000291,1.0000015 45.9998819,0 1.2e-4,28.8510415 -8.36358,0 -9.21454,17.148961 -1.23994,-17.148961 -27.1816419,0 -3e-4,-28.8510415 z"
       style="color:#000000;fill:url(#linearGradient3597);fill-opacity:1;fill-rule:evenodd;stroke:#000000;stroke-width:1.99999857;stroke-linecap:round;stroke-linejoin:round;stroke-miterlimit:4;stroke-opacity:1;stroke-dashoffset:0;marker:none;display:inline" />
    <g
       style="font-size:8.74605656px;writing-mode:lr-tb"
       id="text3706"
       transform="matrix(2.0000001,0,0,2.0000001,-1781.98,-228.21803)">
      <path
         d="m 895.99405,119.29585 c -0.84773,-0.0207 -1.20026,0.90061 -1.27292,1.60217 -0.0917,1.04553 -0.16819,2.19733 0.35882,3.14607 0.41648,0.73692 1.61508,0.62486 1.91767,-0.15314 0.43913,-1.01113 0.38314,-2.17037 0.23062,-3.23901 -0.11066,-0.63205 -0.47841,-1.38829 -1.23419,-1.35609 z m 0,-0.68328 c 0.95681,-0.0602 1.75787,0.70179 1.98172,1.59211 0.31196,1.15879 0.31439,2.42417 -0.0466,3.572 -0.25633,0.88825 -1.128,1.55578 -2.06715,1.44765 -1.03314,0.005 -1.76992,-0.9324 -1.93065,-1.88214 -0.22337,-1.20675 -0.23824,-2.52448 0.29066,-3.65638 0.3215,-0.67313 1.02532,-1.10265 1.77201,-1.07324 z"
         id="path3719" />
      <path
         d="m 899.71795,124.01907 c 0.30036,0 0.60073,0 0.90109,0 0,0.36157 0,0.72314 0,1.08471 -0.30036,0 -0.60073,0 -0.90109,0 0,-0.36157 0,-0.72314 0,-1.08471 z"
         id="path3721" />
      <path
         d="m 903.24542,124.37779 c 1.00357,0 2.00715,0 3.01072,0 0,0.242 0,0.48399 0,0.72599 -1.34949,0 -2.69897,0 -4.04846,0 0,-0.242 0,-0.48399 0,-0.72599 0.95244,-1.03556 2.05014,-1.94675 2.88394,-3.08493 0.43708,-0.57314 0.32843,-1.53951 -0.39176,-1.82918 -0.82389,-0.32425 -1.72065,0.0454 -2.44948,0.44286 0,-0.2904 0,-0.58079 0,-0.87119 1.07463,-0.45607 2.49913,-0.71183 3.45362,0.13582 0.78212,0.71284 0.60707,1.99676 -0.072,2.7189 -0.75829,0.86206 -1.59084,1.65991 -2.38662,2.48772 z"
         id="path3723" />
      <path
         d="m 910.68469,121.666 c 0.89363,0.12497 1.4826,1.05773 1.2925,1.92328 -0.0941,1.00279 -1.11367,1.5906 -2.04198,1.62018 -0.72256,0.0699 -1.45173,-0.0589 -2.13313,-0.29781 0,-0.27759 0,-0.55517 0,-0.83276 0.83664,0.45611 1.92451,0.60201 2.80073,0.17757 0.80169,-0.43444 0.69059,-1.81155 -0.19684,-2.08095 -0.48076,-0.18386 -1.00008,-0.10942 -1.50209,-0.12512 0,-0.2363 0,-0.47261 0,-0.70891 0.6676,-0.0288 1.50939,0.14892 1.9565,-0.47536 0.4177,-0.66094 -0.14468,-1.53437 -0.90782,-1.51097 -0.66571,-0.0681 -1.33009,0.0928 -1.95831,0.2995 0,-0.25623 0,-0.51247 0,-0.7687 1.08005,-0.28661 2.40764,-0.52909 3.35334,0.23188 0.80208,0.64443 0.62653,2.14224 -0.3992,2.46393 l -0.12785,0.0456 -0.13585,0.0387"
         id="path3725" />
    </g>
  </g>
</svg>
