<?xml version="1.0" encoding="UTF-8" standalone="no"?>
<!-- Created with Inkscape (http://www.inkscape.org/) -->

<svg
   xmlns:dc="http://purl.org/dc/elements/1.1/"
   xmlns:cc="http://creativecommons.org/ns#"
   xmlns:rdf="http://www.w3.org/1999/02/22-rdf-syntax-ns#"
   xmlns:svg="http://www.w3.org/2000/svg"
   xmlns="http://www.w3.org/2000/svg"
   xmlns:sodipodi="http://sodipodi.sourceforge.net/DTD/sodipodi-0.dtd"
   xmlns:inkscape="http://www.inkscape.org/namespaces/inkscape"
   width="48"
   height="48"
   id="svg5612"
   sodipodi:version="0.32"
   inkscape:version="0.46+devel r21158 custom"
   version="1.0"
   sodipodi:docname="draw-geometry-circle-from-radius.svg"
   inkscape:output_extension="org.inkscape.output.svg.inkscape">
  <defs
     id="defs5614" />
  <sodipodi:namedview
     id="base"
     pagecolor="#ffffff"
     bordercolor="#666666"
     borderopacity="1.0"
     inkscape:pageopacity="0.0"
     inkscape:pageshadow="2"
     inkscape:zoom="1.4"
     inkscape:cx="58.664837"
     inkscape:cy="-9.7753035"
     inkscape:document-units="px"
     inkscape:current-layer="layer1"
     showgrid="false"
     inkscape:window-width="675"
     inkscape:window-height="429"
     inkscape:window-x="339"
     inkscape:window-y="125" />
  <metadata
     id="metadata5617">
    <rdf:RDF>
      <cc:Work
         rdf:about="">
        <dc:format>image/svg+xml</dc:format>
        <dc:type
           rdf:resource="http://purl.org/dc/dcmitype/StillImage" />
        <dc:title></dc:title>
      </cc:Work>
    </rdf:RDF>
  </metadata>
  <g
     inkscape:label="Layer 1"
     inkscape:groupmode="layer"
     id="layer1">
    <path
       inkscape:label="circle_with_radius"
       id="circle_with_radius"
       d="m 45.793259,24.192487 c 0,2.88181 -0.572913,5.762508 -1.675716,8.424976 -1.102804,2.662432 -2.734782,5.10459 -4.772244,7.142303 -2.037462,2.037857 -4.479333,3.669476 -7.140977,4.77228 -2.661643,1.102445 -5.541266,1.675358 -8.421247,1.675358 -2.879981,-3.59e-4 -5.75817,-0.573272 -8.418021,-1.676434 C 12.705204,43.428166 10.2662,41.796189 8.2312478,39.758512 6.1962953,37.720763 4.5668275,35.27882 3.4658163,32.616567 2.3648052,29.95435 1.7926092,27.073974 1.7926092,24.192487 c 0,-2.881523 0.572196,-5.761898 1.6732071,-8.424115 C 4.5668275,13.106155 6.1962953,10.664176 8.2312478,8.6264267 10.2662,6.5887136 12.705204,4.9568796 15.365054,3.8539324 c 2.659851,-1.1029471 5.53804,-1.6761469 8.418021,-1.6763262 2.879981,-1.434e-4 5.759604,0.5726979 8.421247,1.6753941 2.661644,1.102732 5.103515,2.7344585 7.140977,4.7721716 2.037462,2.0377491 3.66944,4.4798711 4.772244,7.1423391 1.102803,2.662432 1.675716,5.543131 1.675716,8.424976"
       style="fill:none;stroke:#5a5a5a;stroke-width:3.58518767;stroke-linecap:square;stroke-linejoin:bevel;stroke-miterlimit:4.26999998;stroke-opacity:1;stroke-dasharray:none;stroke-dashoffset:23.2" />
    <path
       id="path4418-8-1-0-1-0"
       style="fill:none;stroke:#5a5a5a;stroke-width:3.58518767;stroke-linecap:round;stroke-linejoin:round;stroke-miterlimit:0;stroke-opacity:1;stroke-dasharray:none"
       d="M 22.980351,24.825129 42.404181,12.675932"
       sodipodi:nodetypes="cc" />
    <rect
       style="color:#000000;fill:#ff2100;fill-opacity:0.39215692;fill-rule:evenodd;stroke:#d40000;stroke-width:2.31032252;stroke-linecap:round;stroke-linejoin:round;stroke-miterlimit:0;stroke-opacity:1;stroke-dasharray:none;stroke-dashoffset:0;marker:none;display:inline"
       id="use5845-6-1-4"
       width="9.1430817"
       height="9.1735134"
       x="18.635113"
       y="20.094896" />
    <rect
       style="color:#000000;fill:#ff2100;fill-opacity:0.39215692;fill-rule:evenodd;stroke:#d40000;stroke-width:2.31032252;stroke-linecap:round;stroke-linejoin:round;stroke-miterlimit:0;stroke-opacity:1;stroke-dasharray:none;stroke-dashoffset:0;marker:none;display:inline"
       id="use5845-6-1-9-8"
       width="9.1430817"
       height="9.1735134"
       x="37.701771"
       y="8.0471048" />
  </g>
</svg>
