<?xml version="1.0" encoding="UTF-8" standalone="no"?>
<!-- Created with Inkscape (http://www.inkscape.org/) -->

<svg
   xmlns:dc="http://purl.org/dc/elements/1.1/"
   xmlns:cc="http://creativecommons.org/ns#"
   xmlns:rdf="http://www.w3.org/1999/02/22-rdf-syntax-ns#"
   xmlns:svg="http://www.w3.org/2000/svg"
   xmlns="http://www.w3.org/2000/svg"
   xmlns:sodipodi="http://sodipodi.sourceforge.net/DTD/sodipodi-0.dtd"
   xmlns:inkscape="http://www.inkscape.org/namespaces/inkscape"
   width="48"
   height="48"
   id="svg5612"
   sodipodi:version="0.32"
   inkscape:version="0.46+devel r21158 custom"
   version="1.0"
   sodipodi:docname="draw-geometry-line-segment.svg"
   inkscape:output_extension="org.inkscape.output.svg.inkscape">
  <defs
     id="defs5614" />
  <sodipodi:namedview
     id="base"
     pagecolor="#ffffff"
     bordercolor="#666666"
     borderopacity="1.0"
     inkscape:pageopacity="0.0"
     inkscape:pageshadow="2"
     inkscape:zoom="0.98994949"
     inkscape:cx="81.290933"
     inkscape:cy="47.08426"
     inkscape:document-units="px"
     inkscape:current-layer="layer1"
     showgrid="false"
     inkscape:window-width="675"
     inkscape:window-height="429"
     inkscape:window-x="339"
     inkscape:window-y="125" />
  <metadata
     id="metadata5617">
    <rdf:RDF>
      <cc:Work
         rdf:about="">
        <dc:format>image/svg+xml</dc:format>
        <dc:type
           rdf:resource="http://purl.org/dc/dcmitype/StillImage" />
        <dc:title></dc:title>
      </cc:Work>
    </rdf:RDF>
  </metadata>
  <g
     inkscape:label="Layer 1"
     inkscape:groupmode="layer"
     id="layer1">
    <g
       id="circle_3pts"
       inkscape:label="circle_3pts"
       transform="matrix(3.3484942,0,0,3.3484942,-2157.184,-294.21276)">
      <path
         style="fill:none;stroke:#5a5a5a;stroke-width:1;stroke-linecap:square;stroke-linejoin:bevel;stroke-miterlimit:4.26999998;stroke-opacity:1;stroke-dasharray:none;stroke-dashoffset:23.2"
         d="m 658.0599,95.55848 c 0,0.80381 -0.1598,1.60731 -0.4674,2.34994 -0.3076,0.74262 -0.7628,1.4238 -1.3311,1.99217 -0.5683,0.56841 -1.2494,1.02351 -1.9918,1.33111 -0.7424,0.3075 -1.5456,0.4673 -2.3489,0.4673 -0.8033,-1e-4 -1.6061,-0.1599 -2.348,-0.4676 -0.7419,-0.3076 -1.4222,-0.7628 -1.9898,-1.33116 -0.5676,-0.56838 -1.0221,-1.2495 -1.3292,-1.99207 -0.3071,-0.74256 -0.4667,-1.54597 -0.4667,-2.34969 0,-0.80373 0.1596,-1.60714 0.4667,-2.3497 0.3071,-0.74256 0.7616,-1.42369 1.3292,-1.99207 0.5676,-0.56837 1.2479,-1.02353 1.9898,-1.33117 0.7419,-0.30764 1.5447,-0.46752 2.348,-0.46757 0.8033,-4e-5 1.6065,0.15974 2.3489,0.46731 0.7424,0.30758 1.4235,0.76271 1.9918,1.33108 0.5683,0.56838 1.0235,1.24955 1.3311,1.99218 0.3076,0.74262 0.4674,1.54612 0.4674,2.34994"
         id="path2526" />
      <rect
         y="88.512123"
         x="648.94171"
         height="2.5587261"
         width="2.5502379"
         id="use5845-6"
         style="color:#000000;fill:#ff2100;fill-opacity:0.39215692;fill-rule:evenodd;stroke:#d40000;stroke-width:0.64440769;stroke-linecap:round;stroke-linejoin:round;stroke-miterlimit:0;stroke-opacity:1;stroke-dasharray:none;stroke-dashoffset:0;marker:none;display:inline" />
      <rect
         y="94.853058"
         x="644.5473"
         height="2.5587261"
         width="2.5502379"
         id="use5845-6-1"
         style="color:#000000;fill:#ff2100;fill-opacity:0.39215692;fill-rule:evenodd;stroke:#d40000;stroke-width:0.64440769;stroke-linecap:round;stroke-linejoin:round;stroke-miterlimit:0;stroke-opacity:1;stroke-dasharray:none;stroke-dashoffset:0;marker:none;display:inline" />
      <rect
         y="98.055122"
         x="655.61548"
         height="2.5587261"
         width="2.5502379"
         id="use5845-6-1-9"
         style="color:#000000;fill:#ff2100;fill-opacity:0.39215692;fill-rule:evenodd;stroke:#d40000;stroke-width:0.64440769;stroke-linecap:round;stroke-linejoin:round;stroke-miterlimit:0;stroke-opacity:1;stroke-dasharray:none;stroke-dashoffset:0;marker:none;display:inline" />
    </g>
  </g>
</svg>
