<?xml version="1.0" encoding="UTF-8" standalone="no"?>
<!-- Created with Inkscape (http://www.inkscape.org/) -->
<svg
   xmlns:dc="http://purl.org/dc/elements/1.1/"
   xmlns:cc="http://creativecommons.org/ns#"
   xmlns:rdf="http://www.w3.org/1999/02/22-rdf-syntax-ns#"
   xmlns:svg="http://www.w3.org/2000/svg"
   xmlns="http://www.w3.org/2000/svg"
   xmlns:xlink="http://www.w3.org/1999/xlink"
   xmlns:sodipodi="http://sodipodi.sourceforge.net/DTD/sodipodi-0.dtd"
   xmlns:inkscape="http://www.inkscape.org/namespaces/inkscape"
   width="48px"
   height="48px"
   id="svg23291"
   sodipodi:version="0.32"
   inkscape:version="0.46+devel r20659"
   sodipodi:docname="text-direction-horizontal.svg"
   inkscape:output_extension="org.inkscape.output.svg.inkscape">
  <defs
     id="defs23293">
    <linearGradient
       id="linearGradient6524">
      <stop
         style="stop-color:#ffffff;stop-opacity:1.0000000"
         offset="0.0000000"
         id="stop6526" />
      <stop
         style="stop-color:#e2e1e1;stop-opacity:1.0000000;"
         offset="1.0000000"
         id="stop6528" />
    </linearGradient>
    <linearGradient
       inkscape:collect="always"
       xlink:href="#linearGradient6524"
       id="linearGradient3749"
       gradientUnits="userSpaceOnUse"
       x1="860.23901"
       y1="45.306683"
       x2="843.9635"
       y2="28.964588" />
  </defs>
  <sodipodi:namedview
     id="base"
     pagecolor="#ffffff"
     bordercolor="#666666"
     borderopacity="1.0"
     inkscape:pageopacity="0.0"
     inkscape:pageshadow="2"
     inkscape:zoom="3.5"
     inkscape:cx="14.061513"
     inkscape:cy="21.887178"
     inkscape:current-layer="layer1"
     showgrid="true"
     inkscape:grid-bbox="true"
     inkscape:document-units="px"
     inkscape:window-width="817"
     inkscape:window-height="562"
     inkscape:window-x="5"
     inkscape:window-y="30" />
  <metadata
     id="metadata23296">
    <rdf:RDF>
      <cc:Work
         rdf:about="">
        <dc:format>image/svg+xml</dc:format>
        <dc:type
           rdf:resource="http://purl.org/dc/dcmitype/StillImage" />
        <dc:title />
      </cc:Work>
    </rdf:RDF>
  </metadata>
  <g
     id="layer1"
     inkscape:label="Layer 1"
     inkscape:groupmode="layer">
    <g
       id="writing_mode_lr"
       style="stroke:none"
       inkscape:label="#writing_mode_lr"
       transform="matrix(2,0,0,2,-1679.0492,-49.9982)">
      <g
         id="use5602"
         style="stroke:none"
         transform="translate(-0.4754,-9e-4)">
        <path
           sodipodi:nodetypes="cccccccc"
           id="path3731"
           d="m 841,26 22,0 1,1 0,20 -2,2 -20,0 -1,-1 0,-22 z"
           style="color:#000000;fill:#000000;fill-opacity:0.06666673;fill-rule:evenodd;stroke:none;stroke-width:1;marker:none;display:inline" />
        <path
           style="color:#000000;fill:#000000;fill-opacity:1;fill-rule:evenodd;stroke-width:1;marker:none;display:inline"
           d="m 840,26 1,0 0,20 -1,0 0,-20 z"
           id="path3733" />
        <rect
           y="26"
           x="861"
           height="20"
           width="1"
           id="rect3735"
           style="color:#000000;fill:#000000;fill-opacity:1;fill-rule:evenodd;stroke:none;stroke-width:1;marker:none;display:inline" />
        <rect
           transform="matrix(0,-1,1,0,0,0)"
           y="841"
           x="-26"
           height="20"
           width="1"
           id="rect3737"
           style="color:#000000;fill:#000000;fill-opacity:1;fill-rule:evenodd;stroke:none;stroke-width:1;marker:none;display:inline" />
        <rect
           transform="matrix(0,-1,1,0,0,0)"
           y="841"
           x="-47"
           height="20"
           width="1"
           id="rect3739"
           style="color:#000000;fill:#000000;fill-opacity:1;fill-rule:evenodd;stroke:none;stroke-width:1;marker:none;display:inline" />
        <rect
           y="26"
           x="841"
           height="20"
           width="20"
           id="rect3741"
           style="color:#000000;fill:url(#linearGradient3749);fill-opacity:1;fill-rule:evenodd;stroke:none;stroke-width:1;marker:none;display:inline" />
        <path
           style="fill:#ffffff;fill-opacity:1;fill-rule:evenodd;stroke:none"
           d="m 842,46 -1,0 0,-20 20,0 0,1 -19,0 0,19 z"
           id="path3743" />
        <path
           style="fill:none;stroke:#383838;stroke-width:1.00000012px;stroke-linecap:round;stroke-linejoin:miter;stroke-opacity:1"
           d="m 843.5,34.75 0,-4 c 0,-3 5,-3 5,0 l 0,4"
           id="path3745"
           sodipodi:nodetypes="cccc" />
        <path
           style="fill:none;stroke:#383838;stroke-width:1.00000012px;stroke-linecap:butt;stroke-linejoin:miter;stroke-opacity:1"
           d="m 843.5,32 5.1429,0"
           id="path3747" />
      </g>
      <path
         style="fill:#5a5a5a;fill-opacity:1;fill-rule:evenodd;stroke:none"
         d="m 860,31 0,-1 -1,0 0,-1 -1,0 0,-1 -1,0 0,2 -7,0 0,1 7,0 0,2 1,0 0,-1 1,0 0,-1 1,0 z"
         id="path6495"
         sodipodi:nodetypes="ccccccccccccccccc" />
      <path
         style="fill:#5a5a5a;fill-opacity:1;fill-rule:evenodd;stroke:none"
         d="m 860,37 0,-1 -1,0 0,-1 -1,0 0,-1 -1,0 0,2 -15,0 0,1 15,0 0,2 1,0 0,-1 1,0 0,-1 1,0 z"
         id="path6497"
         sodipodi:nodetypes="ccccccccccccccccc" />
      <use
         x="0"
         y="0"
         xlink:href="#path6497"
         id="use5502"
         transform="translate(0.0246,5.9991)"
         width="1250"
         height="1250" />
    </g>
  </g>
</svg>
