<?xml version="1.0" encoding="UTF-8" standalone="no"?>
<!-- Created with Inkscape (http://www.inkscape.org/) -->
<svg
   xmlns:dc="http://purl.org/dc/elements/1.1/"
   xmlns:cc="http://creativecommons.org/ns#"
   xmlns:rdf="http://www.w3.org/1999/02/22-rdf-syntax-ns#"
   xmlns:svg="http://www.w3.org/2000/svg"
   xmlns="http://www.w3.org/2000/svg"
   xmlns:xlink="http://www.w3.org/1999/xlink"
   xmlns:sodipodi="http://sodipodi.sourceforge.net/DTD/sodipodi-0.dtd"
   xmlns:inkscape="http://www.inkscape.org/namespaces/inkscape"
   width="48px"
   height="48px"
   id="svg17007"
   sodipodi:version="0.32"
   inkscape:version="0.46+devel r20659"
   sodipodi:docname="object-visible.svg"
   inkscape:output_extension="org.inkscape.output.svg.inkscape">
  <defs
     id="defs17009">
    <linearGradient
       inkscape:collect="always"
       xlink:href="#linearGradient2485"
       id="linearGradient12592"
       gradientUnits="userSpaceOnUse"
       gradientTransform="matrix(1,0,0,-1,0.453976,493.3688)"
       x1="712.98596"
       y1="249.98053"
       x2="717.60321"
       y2="244.67865" />
    <linearGradient
       id="linearGradient2485">
      <stop
         id="stop2486"
         offset="0.0000000"
         style="stop-color:#ffffff;stop-opacity:1.0000000" />
      <stop
         id="stop2487"
         offset="1.0000000"
         style="stop-color:#aaaaaa;stop-opacity:1.0000000;" />
    </linearGradient>
    <linearGradient
       inkscape:collect="always"
       xlink:href="#linearGradient12513"
       id="linearGradient12519"
       x1="64.608963"
       y1="715.75946"
       x2="61.995983"
       y2="712.16724"
       gradientUnits="userSpaceOnUse" />
    <linearGradient
       id="linearGradient12513">
      <stop
         style="stop-color:black;stop-opacity:1;"
         offset="0"
         id="stop12515" />
      <stop
         style="stop-color:#2a2a2a;stop-opacity:1;"
         offset="1"
         id="stop12517" />
    </linearGradient>
  </defs>
  <sodipodi:namedview
     id="base"
     pagecolor="#ffffff"
     bordercolor="#666666"
     borderopacity="1.0"
     inkscape:pageopacity="0.0"
     inkscape:pageshadow="2"
     inkscape:zoom="3.5"
     inkscape:cx="23.815389"
     inkscape:cy="30.426407"
     inkscape:current-layer="layer1"
     showgrid="true"
     inkscape:grid-bbox="true"
     inkscape:document-units="px"
     inkscape:window-width="679"
     inkscape:window-height="436"
     inkscape:window-x="335"
     inkscape:window-y="159" />
  <metadata
     id="metadata17012">
    <rdf:RDF>
      <cc:Work
         rdf:about="">
        <dc:format>image/svg+xml</dc:format>
        <dc:type
           rdf:resource="http://purl.org/dc/dcmitype/StillImage" />
        <dc:title />
      </cc:Work>
    </rdf:RDF>
  </metadata>
  <g
     id="layer1"
     inkscape:label="Layer 1"
     inkscape:groupmode="layer">
    <g
       style="display:inline"
       transform="matrix(3.2760894,0,0,2.5444375,-2316.6803,-599.68043)"
       id="visible"
       inkscape:label="#visible">
      <rect
         style="color:#000000;fill:#ffffff;fill-opacity:0;fill-rule:evenodd;stroke:none;stroke-width:0.83269;marker:none;display:inline"
         id="rect6472"
         width="14.52438"
         height="18.612591"
         x="707.14807"
         y="235.935" />
      <g
         id="g1661"
         transform="translate(0,-0.9)">
        <path
           id="path4926"
           style="color:#000000;fill:url(#linearGradient12592);fill-opacity:1;fill-rule:evenodd;stroke:#000000;stroke-width:1.10190868;stroke-linecap:round;stroke-linejoin:miter;stroke-miterlimit:4;stroke-opacity:1;stroke-dasharray:none;stroke-dashoffset:0;marker:none;display:inline"
           d="m 718.3596,243.1986 c 1.0177,0.7535 1.9383,1.9048 2.7914,3.5759 -1.8334,3.5913 -3.3519,5.0981 -6.102,5.0981 -2.75,0 -5.5802,-1.8728 -7.196,-5.1815 1.8334,-3.5914 5.4431,-5.3526 8.3072,-4.6092 m -4.3843,0.3061 -1.0395,-4.0779 m -1.5179,5.9334 -1.55,-2.5302 m 7.259,0.2222 0.1148,-4.7275 m 2.4251,5.351 1.5295,-3.7884 m 0.6191,5.3042 1.6145,-1.9398"
           sodipodi:nodetypes="ccscscccccccccc" />
        <path
           sodipodi:type="arc"
           style="color:#000000;fill:url(#linearGradient12519);fill-opacity:1;fill-rule:evenodd;stroke:none;stroke-width:3.02474809;marker:none;display:inline"
           id="path5671"
           sodipodi:cx="63.5"
           sodipodi:cy="714"
           sodipodi:rx="3.5"
           sodipodi:ry="4"
           d="m 67,714 c 0,2.208 -1.568,4 -3.5,4 -1.932,0 -3.5,-1.792 -3.5,-4 0,-2.208 1.568,-4 3.5,-4 1.932,0 3.5,1.792 3.5,4 z"
           transform="matrix(0.842506,0,0,0.954024,661.2863,-434.5226)" />
        <path
           sodipodi:type="arc"
           style="color:#000000;fill:#ffffff;fill-opacity:1;fill-rule:evenodd;stroke:none;stroke-width:3.02474809;marker:none;display:inline"
           id="path12489"
           sodipodi:cx="63.5"
           sodipodi:cy="714"
           sodipodi:rx="3.5"
           sodipodi:ry="4"
           d="m 67,714 c 0,2.208 -1.568,4 -3.5,4 -1.932,0 -3.5,-1.792 -3.5,-4 0,-2.208 1.568,-4 3.5,-4 1.932,0 3.5,1.792 3.5,4 z"
           transform="matrix(0.269046,0,0,0.308688,696.6634,24.57494)" />
      </g>
    </g>
  </g>
</svg>
