<?xml version="1.0" encoding="UTF-8" standalone="no"?>
<!-- Created with Inkscape (http://www.inkscape.org/) -->
<svg
   xmlns:dc="http://purl.org/dc/elements/1.1/"
   xmlns:cc="http://creativecommons.org/ns#"
   xmlns:rdf="http://www.w3.org/1999/02/22-rdf-syntax-ns#"
   xmlns:svg="http://www.w3.org/2000/svg"
   xmlns="http://www.w3.org/2000/svg"
   xmlns:sodipodi="http://sodipodi.sourceforge.net/DTD/sodipodi-0.dtd"
   xmlns:inkscape="http://www.inkscape.org/namespaces/inkscape"
   width="48px"
   height="48px"
   id="svg17007"
   sodipodi:version="0.32"
   inkscape:version="0.46+devel r20659"
   sodipodi:docname="fill-pattern.svg"
   inkscape:output_extension="org.inkscape.output.svg.inkscape">
  <defs
     id="defs17009" />
  <sodipodi:namedview
     id="base"
     pagecolor="#ffffff"
     bordercolor="#666666"
     borderopacity="1.0"
     inkscape:pageopacity="0.0"
     inkscape:pageshadow="2"
     inkscape:zoom="1.2374369"
     inkscape:cx="-3.7386459"
     inkscape:cy="-26.217947"
     inkscape:current-layer="layer1"
     showgrid="true"
     inkscape:grid-bbox="true"
     inkscape:document-units="px"
     inkscape:window-width="947"
     inkscape:window-height="491"
     inkscape:window-x="34"
     inkscape:window-y="146"
     inkscape:snap-global="true"
     inkscape:snap-bbox="false" />
  <metadata
     id="metadata17012">
    <rdf:RDF>
      <cc:Work
         rdf:about="">
        <dc:format>image/svg+xml</dc:format>
        <dc:type
           rdf:resource="http://purl.org/dc/dcmitype/StillImage" />
        <dc:title />
      </cc:Work>
    </rdf:RDF>
  </metadata>
  <g
     id="layer1"
     inkscape:label="Layer 1"
     inkscape:groupmode="layer">
    <rect
       y="-18.360001"
       x="36.005005"
       height="48"
       width="48"
       id="rect4991"
       style="fill:none;stroke:none;stroke-width:1;marker:none;display:inline" />
    <g
       transform="matrix(3,0,0,3,-1115.6418,-409.30755)"
       style="fill:#000000"
       id="g7655" />
    <g
       id="fill_pattern"
       transform="matrix(2.3999029,0,0,2.3999029,-1607.9335,-155.99172)"
       inkscape:label="#fill_pattern">
      <rect
         inkscape:label="#ccc"
         y="66"
         x="671"
         height="18"
         width="18"
         id="rect4541"
         style="color:#000000;fill:#99b6d4;fill-opacity:1;fill-rule:evenodd;stroke:none;stroke-width:1.00000036;marker:none;display:inline" />
      <path
         style="fill:#ffffff;fill-opacity:1;stroke:#000000;stroke-width:0;stroke-linejoin:round;stroke-miterlimit:4;stroke-opacity:1"
         d="m 676.7274,66.00001 -3.2727,3.42857 4.0909,4.28572 4.0909,-4.28572 -3.2727,-3.42857 -1.6364,0 z m 4.9091,3.42857 4.0909,4.28572 3.2727,-3.42858 0,-1.71428 -2.4545,-2.57143 -1.6364,0 -3.2727,3.42857 z m 4.0909,4.28572 -4.0909,4.28571 4.0909,4.28572 3.2727,-3.42858 0,-1.71428 -3.2727,-3.42857 z m 0,8.57143 -1.6364,1.71428 3.2728,0 -1.6364,-1.71428 z m -4.0909,-4.28572 -4.0909,-4.28571 -4.0909,4.28571 4.0909,4.28572 4.0909,-4.28572 z m -4.0909,4.28572 -1.6364,1.71428 3.2727,0 -1.6363,-1.71428 z m -4.0909,-4.28572 -2.4546,-2.57143 0,5.14286 2.4546,-2.57143 z m 0,-8.57143 -2.4546,-2.57143 0,5.14286 2.4546,-2.57143 z"
         id="rect4545" />
      <rect
         style="color:#000000;fill:none;stroke:#000000;stroke-width:0.99999893;stroke-linecap:round;stroke-linejoin:round;stroke-miterlimit:4;stroke-opacity:1;stroke-dasharray:none;stroke-dashoffset:0;marker:none;display:inline"
         id="rect4381"
         width="19.000811"
         height="18.99999"
         x="670.49939"
         y="65.5" />
    </g>
  </g>
</svg>
