<?xml version="1.0" encoding="UTF-8" standalone="no"?>
<svg
   xmlns:svg="http://www.w3.org/2000/svg"
   xmlns="http://www.w3.org/2000/svg"
   version="1.0"
   width="864"
   height="648">
  <path
     d="M 312,36 L 306,36 L 306,18 L 270,18 L 270,33 L 257.02684,33 C 254.86698,25.169754 250.63249,18.043924 242.5,18.043924 L 234,18 L 234,0 L 630,0 L 630,18 L 625.5651,18 C 615.63677,17.396793 609.71136,24.314484 606.8449,33 L 594,33 L 594,18 L 522,18 L 522,36 L 516,36 L 516,48 L 513,48 L 513,41.272727 L 507.72727,36 L 320.84615,36 L 315,41.846154 L 315,48 L 312,48 L 312,36 z"/>
</svg>
