<?xml version="1.0" encoding="UTF-8" standalone="no"?>
<svg
   xmlns:svg="http://www.w3.org/2000/svg"
   xmlns="http://www.w3.org/2000/svg"
   version="1.0"
   width="864"
   height="648">
  <path
     d="M 413.74236,645.64547 C 383.0319,635.17985 363.9313,598.29804 370.41198,561.97779 372.2609,551.61571 374.419,546.6985 395.41883,505 l 18.3818,-37 36.39874,0 18.3818,37 c 20.99983,41.6985 23.15793,46.61571 25.00685,56.97779 5.44246,30.50163 -6.58165,61.17182 -30.16644,76.94629 -14.36564,9.56051 -33.1973,11.79876 -49.67922,6.72139 z M 441.26639,611.4249 C 453.76562,607.16598 466.11947,585.75784 461.95112,567 460.95667,562.52492 433.16738,505 432,505 c -1.16738,0 -28.95667,57.52492 -29.95112,62 -3.22119,14.49556 1.38417,29.9298 11.61874,38.93863 7.65072,6.73443 15.09954,9.74518 27.59877,5.48627 z"/>
</svg>
