<?xml version="1.0" encoding="UTF-8" standalone="no"?>
<svg
   xmlns:svg="http://www.w3.org/2000/svg"
   xmlns="http://www.w3.org/2000/svg"
   version="1.0"
   width="864"
   height="648">
  <path
     d="M 413.74236,645.64547 C 383.0319,635.17985 363.9313,598.29804 370.41198,561.97779 C 372.2609,551.61571 374.419,546.6985 395.41883,505 L 413.80063,468.5 L 450.19937,468.5 L 468.58117,505 C 489.581,546.6985 491.7391,551.61571 493.58802,561.97779 C 499.03048,592.47942 487.00637,623.14961 463.42158,638.92408 C 449.05594,648.48459 430.22428,650.72284 413.74236,645.64547 z M 441.26639,611.4249 C 453.76562,607.16598 466.11947,585.75784 461.95112,567 C 460.95667,562.52492 433.16738,505 432,505 C 430.83262,505 403.04333,562.52492 402.04888,567 C 398.82769,581.49556 403.43305,596.9298 413.66762,605.93863 C 421.31834,612.67306 428.76716,615.68381 441.26639,611.4249 z"/>
</svg>
