<?xml version="1.0" encoding="UTF-8" standalone="no"?>
<svg
   xmlns:svg="http://www.w3.org/2000/svg"
   xmlns="http://www.w3.org/2000/svg"
   version="1.0"
   width="864"
   height="648">
  <path
     d="M 195.07094,35.141836 C 192.93943,26.618646 186.69352,21 178,21 L 178,0 L 300,0 C 304.92852,4.0636792 307.05515,13.545636 308.01012,20 L 290,20 L 290,434 L 196,434 C 194.50054,301.07612 198.17114,168.04946 195.07094,35.141836 z M 574,56 L 556,56 L 556,20 L 520,20 C 520.33022,13.651854 521.21314,4.0134453 526.71404,1.1368684e-13 L 686,1.1368684e-13 L 686,21 C 676.96001,20.374092 671.60532,27.237265 668.92906,35.141836 L 668,434 L 574,434 L 574,56 z"/>
</svg>
