<?xml version="1.0" encoding="UTF-8" standalone="no"?>
<svg
   xmlns:svg="http://www.w3.org/2000/svg"
   xmlns="http://www.w3.org/2000/svg"
   version="1.0"
   width="864"
   height="648">
  <path
     d="m 234,18 0,-18 94,0 0,18 -6.57692,0 c -5.94588,-0.462067 -11.16407,6.690532 -8.71399,14 L 309,32 l -3,0 0,-14 -36,0 0.43636,14 -15.80952,0 C 251.35659,20.992194 245.07284,18.057219 234,18 z m 360,0 -72,0 0,14 -2.86353,0 c -0.0921,-0.480406 -3.84556,0.500695 -3.84556,-0.218182 C 517.61482,24.518889 512.35553,18.083131 506.36364,18 L 499,18 l 0,-18 131,0 0,18 -4.4349,0 c -8.8741,-0.217422 -13.97429,5.278338 -16.21086,14 L 594,32 594,18 z"/>
</svg>
