<?xml version="1.0" encoding="UTF-8" standalone="no"?>
<svg
   xmlns:svg="http://www.w3.org/2000/svg"
   xmlns="http://www.w3.org/2000/svg"
   version="1.0"
   width="864"
   height="648">
  <path
     d="M 234,18 L 234,0 L 328,0 L 328,18 L 321.42308,18 C 315.4772,17.537933 309.60446,20.486336 309,26.923077 L 309,30 L 306,30 L 306,18 L 270,18 L 270,33 L 257.02684,33 C 253.75659,21.992194 245.07284,18.057219 234,18 z M 594,18 L 522,18 L 522,30 L 519.13647,30 C 519.04442,29.519594 519,27.355241 519,26.636364 C 518.70573,19.373435 512.35553,18.083131 506.36364,18 L 499,18 L 499,0 L 630,0 L 630,18 L 625.5651,18 C 616.691,17.782578 608.53626,24.060156 607.3906,33 L 594,33 L 594,18 z"/>
</svg>
