<?xml version="1.0" encoding="UTF-8"?>
<!-- 
NOTE: this file is currently (0.48+) edited manually.
Insert the new markers into the <defs>. 
-->
<svg xmlns="http://www.w3.org/2000/svg"
     xmlns:inkscape="http://www.inkscape.org/namespaces/inkscape"
     id="InkscapeMarkers">
  <defs id="defs3">

    <!-- Arrows -->

    <!-- 1 LARGE -->
    <marker style="overflow:visible" id="Arrow1Lstart" refX="0.0" refY="0.0" orient="auto" inkscape:stockid="Arrow1Lstart">
      <path transform="scale(0.8) translate(12.5,0)" style="fill-rule:evenodd;stroke:#000000;stroke-width:1.0pt" d="M 0.0,0.0 L 5.0,-5.0 L -12.5,0.0 L 5.0,5.0 L 0.0,0.0 z "/>
    </marker>
    <marker style="overflow:visible;" id="Arrow1Lend" refX="0.0" refY="0.0" orient="auto" inkscape:stockid="Arrow1Lend">
      <path transform="scale(0.8) rotate(180) translate(12.5,0)" style="fill-rule:evenodd;stroke:#000000;stroke-width:1.0pt;" d="M 0.0,0.0 L 5.0,-5.0 L -12.5,0.0 L 5.0,5.0 L 0.0,0.0 z "/>
    </marker>

    <!-- 1 Medium -->
    <marker style="overflow:visible" id="Arrow1Mstart" refX="0.0" refY="0.0" orient="auto" inkscape:stockid="Arrow1Mstart">
      <path transform="scale(0.4) translate(10,0)" style="fill-rule:evenodd;stroke:#000000;stroke-width:1.0pt" d="M 0.0,0.0 L 5.0,-5.0 L -12.5,0.0 L 5.0,5.0 L 0.0,0.0 z "/>
    </marker>
    <marker style="overflow:visible;" id="Arrow1Mend" refX="0.0" refY="0.0" orient="auto" inkscape:stockid="Arrow1Mend">
      <path transform="scale(0.4) rotate(180) translate(10,0)" style="fill-rule:evenodd;stroke:#000000;stroke-width:1.0pt;" d="M 0.0,0.0 L 5.0,-5.0 L -12.5,0.0 L 5.0,5.0 L 0.0,0.0 z "/>
    </marker>

    <!-- 1 small -->
    <marker style="overflow:visible" id="Arrow1Sstart" refX="0.0" refY="0.0" orient="auto" inkscape:stockid="Arrow1Sstart">
      <path transform="scale(0.2) translate(6,0)" style="fill-rule:evenodd;stroke:#000000;stroke-width:1.0pt" d="M 0.0,0.0 L 5.0,-5.0 L -12.5,0.0 L 5.0,5.0 L 0.0,0.0 z "/>
    </marker>
    <marker style="overflow:visible;" id="Arrow1Send" refX="0.0" refY="0.0" orient="auto" inkscape:stockid="Arrow1Send">
      <path transform="scale(0.2) rotate(180) translate(6,0)" style="fill-rule:evenodd;stroke:#000000;stroke-width:1.0pt;" d="M 0.0,0.0 L 5.0,-5.0 L -12.5,0.0 L 5.0,5.0 L 0.0,0.0 z "/>
    </marker>

    <!-- 2 LARGE -->
    <marker style="overflow:visible" id="Arrow2Lstart" refX="0.0" refY="0.0" orient="auto" inkscape:stockid="Arrow2Lstart">
      <path transform="scale(1.1) translate(1,0)" d="M 8.7185878,4.0337352 L -2.2072895,0.016013256 L 8.7185884,-4.0017078 C 6.9730900,-1.6296469 6.9831476,1.6157441 8.7185878,4.0337352 z " style="fill-rule:evenodd;stroke-width:0.62500000;stroke-linejoin:round"/>
    </marker>
    <marker style="overflow:visible;" id="Arrow2Lend" refX="0.0" refY="0.0" orient="auto" inkscape:stockid="Arrow2Lend">
      <path transform="scale(1.1) rotate(180) translate(1,0)" d="M 8.7185878,4.0337352 L -2.2072895,0.016013256 L 8.7185884,-4.0017078 C 6.9730900,-1.6296469 6.9831476,1.6157441 8.7185878,4.0337352 z " style="fill-rule:evenodd;stroke-width:0.62500000;stroke-linejoin:round;"/>
    </marker>

    <!-- 2 Medium -->
    <marker style="overflow:visible" id="Arrow2Mstart" refX="0.0" refY="0.0" orient="auto" inkscape:stockid="Arrow2Mstart">
      <path transform="scale(0.6) translate(0,0)" d="M 8.7185878,4.0337352 L -2.2072895,0.016013256 L 8.7185884,-4.0017078 C 6.9730900,-1.6296469 6.9831476,1.6157441 8.7185878,4.0337352 z " style="fill-rule:evenodd;stroke-width:0.62500000;stroke-linejoin:round"/>
    </marker>
    <marker style="overflow:visible;" id="Arrow2Mend" refX="0.0" refY="0.0" orient="auto" inkscape:stockid="Arrow2Mend">
      <path transform="scale(0.6) rotate(180) translate(0,0)" d="M 8.7185878,4.0337352 L -2.2072895,0.016013256 L 8.7185884,-4.0017078 C 6.9730900,-1.6296469 6.9831476,1.6157441 8.7185878,4.0337352 z " style="fill-rule:evenodd;stroke-width:0.62500000;stroke-linejoin:round;"/>
    </marker>

    <!-- 2 small -->
    <marker style="overflow:visible" id="Arrow2Sstart" refX="0.0" refY="0.0" orient="auto" inkscape:stockid="Arrow2Sstart">
      <path transform="scale(0.3) translate(-2.3,0)" d="M 8.7185878,4.0337352 L -2.2072895,0.016013256 L 8.7185884,-4.0017078 C 6.9730900,-1.6296469 6.9831476,1.6157441 8.7185878,4.0337352 z " style="fill-rule:evenodd;stroke-width:0.62500000;stroke-linejoin:round"/>
    </marker>
    <marker style="overflow:visible;" id="Arrow2Send" refX="0.0" refY="0.0" orient="auto" inkscape:stockid="Arrow2Send">
      <path transform="scale(0.3) rotate(180) translate(-2.3,0)" d="M 8.7185878,4.0337352 L -2.2072895,0.016013256 L 8.7185884,-4.0017078 C 6.9730900,-1.6296469 6.9831476,1.6157441 8.7185878,4.0337352 z " style="fill-rule:evenodd;stroke-width:0.62500000;stroke-linejoin:round;"/>
    </marker>

    <!-- Tail -->
    <marker style="overflow:visible" id="Tail" refX="0.0" refY="0.0" orient="auto" inkscape:stockid="Tail">
      <g transform="scale(-1.2)">
        <path style="fill:none;fill-rule:evenodd;stroke:#000000;stroke-width:0.8;stroke-linecap:round" d="M -3.8048674,-3.9585227 L 0.54352094,0"/>
        <path style="fill:none;fill-rule:evenodd;stroke:#000000;stroke-width:0.8;stroke-linecap:round" d="M -1.2866832,-3.9585227 L 3.0617053,0"/>
        <path style="fill:none;fill-rule:evenodd;stroke:#000000;stroke-width:0.8;stroke-linecap:round" d="M 1.3053582,-3.9585227 L 5.6537466,0"/>
        <path style="fill:none;fill-rule:evenodd;stroke:#000000;stroke-width:0.8;stroke-linecap:round" d="M -3.8048674,4.1775838 L 0.54352094,0.21974226"/>
        <path style="fill:none;fill-rule:evenodd;stroke:#000000;stroke-width:0.8;stroke-linecap:round" d="M -1.2866832,4.1775838 L 3.0617053,0.21974226"/>
        <path style="fill:none;fill-rule:evenodd;stroke:#000000;stroke-width:0.8;stroke-linecap:round" d="M 1.3053582,4.1775838 L 5.6537466,0.21974226"/>
      </g>
    </marker>

    <!-- distance markers -->
    <marker inkscape:stockid="DistanceStart" orient="auto" refY="0.0" refX="0.0" id="DistanceStart" style="overflow:visible">
      <g id="g2300">
        <path id="path2306" d="M 0,0 L 2,0" style="fill:none;stroke:#ffffff;stroke-width:1.15;stroke-linecap:square"/>
        <path id="path2302" d="M 0,0 L 13,4 L 9,0 13,-4 L 0,0 z " style="fill:#000000;fill-rule:evenodd;stroke:none"/>
        <path id="path2304" d="M 0,-4 L 0,40" style="fill:none;stroke:#000000;stroke-width:1;stroke-linecap:square"/>
      </g>
    </marker>
    <marker inkscape:stockid="DistanceEnd" orient="auto" refY="0.0" refX="0.0" id="DistanceEnd" style="overflow:visible">
      <g id="g2301">
        <path id="path2316" d="M 0,0 L -2,0" style="fill:none;stroke:#ffffff;stroke-width:1.15;stroke-linecap:square"/>
        <path id="path2312" d="M 0,0 L -13,4 L -9,0 -13,-4 L 0,0 z " style="fill:#000000;fill-rule:evenodd;stroke:none"/>
        <path id="path2314" d="M 0,-4 L 0,40" style="fill:none;stroke:#000000;stroke-width:1;stroke-linecap:square"/>
      </g>
    </marker>

    <!-- round dots -->
    <marker style="overflow:visible" id="DotL" refX="0.0" refY="0.0" orient="auto" inkscape:stockid="DotL">
      <path transform="scale(0.8) translate(7.4, 1)" style="fill-rule:evenodd;stroke:#000000;stroke-width:1.0pt" d="M -2.5,-1.0 C -2.5,1.7600000 -4.7400000,4.0 -7.5,4.0 C -10.260000,4.0 -12.5,1.7600000 -12.5,-1.0 C -12.5,-3.7600000 -10.260000,-6.0 -7.5,-6.0 C -4.7400000,-6.0 -2.5,-3.7600000 -2.5,-1.0 z "/>
    </marker>
    <marker style="overflow:visible" id="DotM" refX="0.0" refY="0.0" orient="auto" inkscape:stockid="DotM">
      <path transform="scale(0.4) translate(7.4, 1)" style="fill-rule:evenodd;stroke:#000000;stroke-width:1.0pt" d="M -2.5,-1.0 C -2.5,1.7600000 -4.7400000,4.0 -7.5,4.0 C -10.260000,4.0 -12.5,1.7600000 -12.5,-1.0 C -12.5,-3.7600000 -10.260000,-6.0 -7.5,-6.0 C -4.7400000,-6.0 -2.5,-3.7600000 -2.5,-1.0 z "/>
    </marker>
    <marker style="overflow:visible" id="DotS" refX="0.0" refY="0.0" orient="auto" inkscape:stockid="DotS">
      <path transform="scale(0.2) translate(7.4, 1)" style="fill-rule:evenodd;stroke:#000000;stroke-width:1.0pt" d="M -2.5,-1.0 C -2.5,1.7600000 -4.7400000,4.0 -7.5,4.0 C -10.260000,4.0 -12.5,1.7600000 -12.5,-1.0 C -12.5,-3.7600000 -10.260000,-6.0 -7.5,-6.0 C -4.7400000,-6.0 -2.5,-3.7600000 -2.5,-1.0 z "/>
    </marker>

    <!-- squares -->
    <marker style="overflow:visible" id="SquareL" refX="0.0" refY="0.0" orient="auto" inkscape:stockid="SquareL">
      <path transform="scale(0.8)" style="fill-rule:evenodd;stroke:#000000;stroke-width:1.0pt" d="M -5.0,-5.0 L -5.0,5.0 L 5.0,5.0 L 5.0,-5.0 L -5.0,-5.0 z "/>
    </marker>
    <marker style="overflow:visible" id="SquareM" refX="0.0" refY="0.0" orient="auto" inkscape:stockid="SquareM">
      <path transform="scale(0.4)" style="fill-rule:evenodd;stroke:#000000;stroke-width:1.0pt" d="M -5.0,-5.0 L -5.0,5.0 L 5.0,5.0 L 5.0,-5.0 L -5.0,-5.0 z "/>
    </marker>
    <marker style="overflow:visible" id="SquareS" refX="0.0" refY="0.0" orient="auto" inkscape:stockid="SquareS">
      <path transform="scale(0.2)" style="fill-rule:evenodd;stroke:#000000;stroke-width:1.0pt" d="M -5.0,-5.0 L -5.0,5.0 L 5.0,5.0 L 5.0,-5.0 L -5.0,-5.0 z "/>
    </marker>

    <!-- diamonds -->
    <marker style="overflow:visible" id="DiamondL" refX="0.0" refY="0.0" orient="auto" inkscape:stockid="DiamondL">       
      <path transform="scale(0.8)" style="fill-rule:evenodd;stroke:#000000;stroke-width:1.0pt" d="M 0,-7.0710768 L -7.0710894,0 L 0,7.0710589 L 7.0710462,0 L 0,-7.0710768 z "/>
    </marker>
    <marker style="overflow:visible" id="DiamondM" refX="0.0" refY="0.0" orient="auto" inkscape:stockid="DiamondM">
      <path transform="scale(0.4)" style="fill-rule:evenodd;stroke:#000000;stroke-width:1.0pt" d="M 0,-7.0710768 L -7.0710894,0 L 0,7.0710589 L 7.0710462,0 L 0,-7.0710768 z "/>
    </marker>
    <marker style="overflow:visible" id="DiamondS" refX="0.0" refY="0.0" orient="auto" inkscape:stockid="DiamondS">
      <path transform="scale(0.2)" style="fill-rule:evenodd;stroke:#000000;stroke-width:1.0pt" d="M 0,-7.0710768 L -7.0710894,0 L 0,7.0710589 L 7.0710462,0 L 0,-7.0710768 z "/>
    </marker>

    <!-- diamonds placed at the start of the line -->
    <marker style="overflow:visible" id="DiamondLstart" refX="0.0" refY="0.0" orient="auto" inkscape:stockid="DiamondLstart">       
      <path transform="scale(0.8) translate(7,0)" style="fill-rule:evenodd;stroke:#000000;stroke-width:1.0pt" d="M 0,-7.0710768 L -7.0710894,0 L 0,7.0710589 L 7.0710462,0 L 0,-7.0710768 z "/>
    </marker>
    <marker style="overflow:visible" id="DiamondMstart" refX="0.0" refY="0.0" orient="auto" inkscape:stockid="DiamondMstart">
      <path transform="scale(0.4) translate(6.5,0)" style="fill-rule:evenodd;stroke:#000000;stroke-width:1.0pt" d="M 0,-7.0710768 L -7.0710894,0 L 0,7.0710589 L 7.0710462,0 L 0,-7.0710768 z "/>
    </marker>
    <marker style="overflow:visible" id="DiamondSstart" refX="0.0" refY="0.0" orient="auto" inkscape:stockid="DiamondSstart">
      <path transform="scale(0.2) translate(6,0)" style="fill-rule:evenodd;stroke:#000000;stroke-width:1.0pt" d="M 0,-7.0710768 L -7.0710894,0 L 0,7.0710589 L 7.0710462,0 L 0,-7.0710768 z "/>
    </marker>

    <!-- diamonds placed at the end of the line -->
    <marker style="overflow:visible" id="DiamondLend" refX="0.0" refY="0.0" orient="auto" inkscape:stockid="DiamondLend">       
      <path transform="scale(0.8) translate(-7,0)" style="fill-rule:evenodd;stroke:#000000;stroke-width:1.0pt" d="M 0,-7.0710768 L -7.0710894,0 L 0,7.0710589 L 7.0710462,0 L 0,-7.0710768 z "/>
    </marker>
    <marker style="overflow:visible" id="DiamondMend" refX="0.0" refY="0.0" orient="auto" inkscape:stockid="DiamondMend">
      <path transform="scale(0.4) translate(-6.5,0)" style="fill-rule:evenodd;stroke:#000000;stroke-width:1.0pt" d="M 0,-7.0710768 L -7.0710894,0 L 0,7.0710589 L 7.0710462,0 L 0,-7.0710768 z "/>
    </marker>
    <marker style="overflow:visible" id="DiamondSend" refX="0.0" refY="0.0" orient="auto" inkscape:stockid="DiamondSend">
      <path transform="scale(0.2) translate(-6,0)" style="fill-rule:evenodd;stroke:#000000;stroke-width:1.0pt" d="M 0,-7.0710768 L -7.0710894,0 L 0,7.0710589 L 7.0710462,0 L 0,-7.0710768 z "/>
    </marker>

    <!-- empty diamonds -->
    <marker style="overflow:visible" id="EmptyDiamondL" refX="0.0" refY="0.0" orient="auto" inkscape:stockid="EmptyDiamondL">       
      <path transform="scale(0.8)" style="fill-rule:evenodd;fill:#FFFFFF;stroke:#000000;stroke-width:1.0pt" d="M 0,-7.0710768 L -7.0710894,0 L 0,7.0710589 L 7.0710462,0 L 0,-7.0710768 z "/>
    </marker>
    <marker style="overflow:visible" id="EmptyDiamondM" refX="0.0" refY="0.0" orient="auto" inkscape:stockid="EmptyDiamondM">
      <path transform="scale(0.4)" style="fill-rule:evenodd;fill:#FFFFFF;stroke:#000000;stroke-width:1.0pt" d="M 0,-7.0710768 L -7.0710894,0 L 0,7.0710589 L 7.0710462,0 L 0,-7.0710768 z "/>
    </marker>
    <marker style="overflow:visible" id="EmptyDiamondS" refX="0.0" refY="0.0" orient="auto" inkscape:stockid="EmptyDiamondS">
      <path transform="scale(0.2)" style="fill-rule:evenodd;fill:#FFFFFF;stroke:#000000;stroke-width:1.0pt" d="M 0,-7.0710768 L -7.0710894,0 L 0,7.0710589 L 7.0710462,0 L 0,-7.0710768 z "/>
    </marker>

    <!-- empty diamonds placed at the start of the line -->
    <marker style="overflow:visible" id="EmptyDiamondLstart" refX="0.0" refY="0.0" orient="auto" inkscape:stockid="EmptyDiamondLstart">       
      <path transform="scale(0.8) translate(7,0)" style="fill-rule:evenodd;fill:#FFFFFF;stroke:#000000;stroke-width:1.0pt" d="M 0,-7.0710768 L -7.0710894,0 L 0,7.0710589 L 7.0710462,0 L 0,-7.0710768 z "/>
    </marker>
    <marker style="overflow:visible" id="EmptyDiamondMstart" refX="0.0" refY="0.0" orient="auto" inkscape:stockid="EmptyDiamondMstart">
      <path transform="scale(0.4) translate(6.5,0)" style="fill-rule:evenodd;fill:#FFFFFF;stroke:#000000;stroke-width:1.0pt" d="M 0,-7.0710768 L -7.0710894,0 L 0,7.0710589 L 7.0710462,0 L 0,-7.0710768 z "/>
    </marker>
    <marker style="overflow:visible" id="EmptyDiamondSstart" refX="0.0" refY="0.0" orient="auto" inkscape:stockid="EmptyDiamondSstart">
      <path transform="scale(0.2) translate(6,0)" style="fill-rule:evenodd;fill:#FFFFFF;stroke:#000000;stroke-width:1.0pt" d="M 0,-7.0710768 L -7.0710894,0 L 0,7.0710589 L 7.0710462,0 L 0,-7.0710768 z "/>
    </marker>

    <!-- empty diamonds placed at the end of the line -->
    <marker style="overflow:visible" id="EmptyDiamondLend" refX="0.0" refY="0.0" orient="auto" inkscape:stockid="EmptyDiamondLend">       
      <path transform="scale(0.8) translate(-7,0)" style="fill-rule:evenodd;fill:#FFFFFF;stroke:#000000;stroke-width:1.0pt" d="M 0,-7.0710768 L -7.0710894,0 L 0,7.0710589 L 7.0710462,0 L 0,-7.0710768 z "/>
    </marker>
    <marker style="overflow:visible" id="EmptyDiamondMend" refX="0.0" refY="0.0" orient="auto" inkscape:stockid="EmptyDiamondMend">
      <path transform="scale(0.4) translate(-6.5,0)" style="fill-rule:evenodd;fill:#FFFFFF;stroke:#000000;stroke-width:1.0pt" d="M 0,-7.0710768 L -7.0710894,0 L 0,7.0710589 L 7.0710462,0 L 0,-7.0710768 z "/>
    </marker>
    <marker style="overflow:visible" id="EmptyDiamondSend" refX="0.0" refY="0.0" orient="auto" inkscape:stockid="EmptyDiamondSend">
      <path transform="scale(0.2) translate(-6,0)" style="fill-rule:evenodd;fill:#FFFFFF;stroke:#000000;stroke-width:1.0pt" d="M 0,-7.0710768 L -7.0710894,0 L 0,7.0710589 L 7.0710462,0 L 0,-7.0710768 z "/>
    </marker>


    <!-- triangles -->
    <marker style="overflow:visible" id="TriangleInL" refX="0.0" refY="0.0" orient="auto" inkscape:stockid="TriangleInL">
      <path transform="scale(-0.8)" style="fill-rule:evenodd;stroke:#000000;stroke-width:1.0pt" d="M 5.77,0.0 L -2.88,5.0 L -2.88,-5.0 L 5.77,0.0 z "/>
    </marker>
    <marker style="overflow:visible" id="TriangleInM" refX="0.0" refY="0.0" orient="auto" inkscape:stockid="TriangleInM">
      <path transform="scale(-0.4)" style="fill-rule:evenodd;stroke:#000000;stroke-width:1.0pt" d="M 5.77,0.0 L -2.88,5.0 L -2.88,-5.0 L 5.77,0.0 z "/>
    </marker>
    <marker style="overflow:visible" id="TriangleInS" refX="0.0" refY="0.0" orient="auto" inkscape:stockid="TriangleInS">
      <path transform="scale(-0.2)" style="fill-rule:evenodd;stroke:#000000;stroke-width:1.0pt" d="M 5.77,0.0 L -2.88,5.0 L -2.88,-5.0 L 5.77,0.0 z "/>
    </marker>
    <marker style="overflow:visible" id="TriangleOutL" refX="0.0" refY="0.0" orient="auto" inkscape:stockid="TriangleOutL">
      <path transform="scale(0.8)" style="fill-rule:evenodd;stroke:#000000;stroke-width:1.0pt" d="M 5.77,0.0 L -2.88,5.0 L -2.88,-5.0 L 5.77,0.0 z "/>
    </marker>
    <marker style="overflow:visible" id="TriangleOutM" refX="0.0" refY="0.0" orient="auto" inkscape:stockid="TriangleOutM">
      <path transform="scale(0.4)" style="fill-rule:evenodd;stroke:#000000;stroke-width:1.0pt" d="M 5.77,0.0 L -2.88,5.0 L -2.88,-5.0 L 5.77,0.0 z "/>
    </marker>
    <marker style="overflow:visible" id="TriangleOutS" refX="0.0" refY="0.0" orient="auto" inkscape:stockid="TriangleOutS">
      <path transform="scale(0.2)" style="fill-rule:evenodd;stroke:#000000;stroke-width:1.0pt" d="M 5.77,0.0 L -2.88,5.0 L -2.88,-5.0 L 5.77,0.0 z "/>
    </marker>

    <!-- Empty Triangles -->
    <marker style="overflow:visible" id="EmptyTriangleInL" refX="0.0" refY="0.0" orient="auto" inkscape:stockid="EmptyTriangleInL">
      <path transform="scale(-0.8) translate(-6,0)" style="fill-rule:evenodd;fill:#FFFFFF;stroke:#000000;stroke-width:1.0pt" d="M 5.77,0.0 L -2.88,5.0 L -2.88,-5.0 L 5.77,0.0 z "/>
    </marker>
    <marker style="overflow:visible" id="EmptyTriangleInM" refX="0.0" refY="0.0" orient="auto" inkscape:stockid="EmptyTriangleInM">
      <path transform="scale(-0.4) translate(-4.5,0)" style="fill-rule:evenodd;fill:#FFFFFF;stroke:#000000;stroke-width:1.0pt" d="M 5.77,0.0 L -2.88,5.0 L -2.88,-5.0 L 5.77,0.0 z "/>
    </marker>
    <marker style="overflow:visible" id="EmptyTriangleInS" refX="0.0" refY="0.0" orient="auto" inkscape:stockid="EmptyTriangleInS">
      <path transform="scale(-0.2) translate(-3.0,0)" style="fill-rule:evenodd;fill:#FFFFFF;stroke:#000000;stroke-width:1.0pt" d="M 5.77,0.0 L -2.88,5.0 L -2.88,-5.0 L 5.77,0.0 z "/>
    </marker>
    <marker style="overflow:visible" id="EmptyTriangleOutL" refX="0.0" refY="0.0" orient="auto" inkscape:stockid="EmptyTriangleOutL">
      <path transform="scale(0.8) translate(-6,0)" style="fill-rule:evenodd;fill:#FFFFFF;stroke:#000000;stroke-width:1.0pt" d="M 5.77,0.0 L -2.88,5.0 L -2.88,-5.0 L 5.77,0.0 z "/>
    </marker>
    <marker style="overflow:visible" id="EmptyTriangleOutM" refX="0.0" refY="0.0" orient="auto" inkscape:stockid="EmptyTriangleOutM">
      <path transform="scale(0.4) translate(-4.5,0)" style="fill-rule:evenodd;fill:#FFFFFF;stroke:#000000;stroke-width:1.0pt" d="M 5.77,0.0 L -2.88,5.0 L -2.88,-5.0 L 5.77,0.0 z "/>
    </marker>
    <marker style="overflow:visible" id="EmptyTriangleOutS" refX="0.0" refY="0.0" orient="auto" inkscape:stockid="EmptyTriangleOutS">
      <path transform="scale(0.2) translate(-3.0,0)" style="fill-rule:evenodd;fill:#FFFFFF;stroke:#000000;stroke-width:1.0pt" d="M 5.77,0.0 L -2.88,5.0 L -2.88,-5.0 L 5.77,0.0 z "/>
    </marker>

    <!-- stops -->
    <marker style="overflow:visible" id="StopL" refX="0.0" refY="0.0" orient="auto" inkscape:stockid="StopL">
      <path transform="scale(0.8)" style="fill:none;fill-opacity:0.75000000;fill-rule:evenodd;stroke:#000000;stroke-width:1.0pt" d="M 0.0,5.65 L 0.0,-5.65"/>
    </marker>
    <marker style="overflow:visible" id="StopM" refX="0.0" refY="0.0" orient="auto" inkscape:stockid="StopM">
      <path transform="scale(0.4)" style="fill:none;fill-opacity:0.75000000;fill-rule:evenodd;stroke:#000000;stroke-width:1.0pt" d="M 0.0,5.65 L 0.0,-5.65"/>
    </marker>
    <marker style="overflow:visible" id="StopS" refX="0.0" refY="0.0" orient="auto" inkscape:stockid="StopS">
      <path transform="scale(0.2)" style="fill:none;fill-opacity:0.75000000;fill-rule:evenodd;stroke:#000000;stroke-width:1.0pt" d="M 0.0,5.65 L 0.0,-5.65"/>
    </marker>

    <!-- filled semicircles -->
    <marker style="overflow:visible" id="SemiCircleIn" refX="0.0" refY="0.0" orient="auto" inkscape:stockid="SemiCircleIn">
      <path transform="scale(0.6)" style="fill-rule:evenodd;stroke:#000000;stroke-width:1.0pt" d="M -0.37450702,-0.045692580 C -0.37450702,2.7143074 1.8654930,4.9543074 4.6254930,4.9543074 L 4.6254930,-5.0456926 C 1.8654930,-5.0456926 -0.37450702,-2.8056926 -0.37450702,-0.045692580 z "/>
    </marker>
    <marker style="overflow:visible" id="SemiCircleOut" refX="0.0" refY="0.0" orient="auto" inkscape:stockid="SemiCircleOut">
      <path transform="scale(0.6) translate(7.125493,0.763446)" style="fill-rule:evenodd;stroke:#000000;stroke-width:1.0pt" d="M -2.5,-0.80913858 C -2.5,1.9508614 -4.7400000,4.1908614 -7.5,4.1908614 L -7.5,-5.8091386 C -4.7400000,-5.8091386 -2.5,-3.5691386 -2.5,-0.80913858 z "/>
    </marker>

    <!-- non-filled semicircles -->
    <marker style="overflow:visible" id="CurveIn" refX="0.0" refY="0.0" orient="auto" inkscape:stockid="CurveIn">
      <path transform="scale(0.6)" style="fill-rule:evenodd;stroke:#000000;stroke-width:1.0pt;fill:none" d="M 4.6254930,-5.0456926 C 1.8654930,-5.0456926 -0.37450702,-2.8056926 -0.37450702,-0.045692580 C -0.37450702,2.7143074 1.8654930,4.9543074 4.6254930,4.9543074"/>
    </marker>
    <marker style="overflow:visible" id="CurveOut" refX="0.0" refY="0.0" orient="auto" inkscape:stockid="CurveOut">
      <path transform="scale(0.6)" style="fill:none;fill-rule:evenodd;stroke:#000000;stroke-width:1.0pt" d="M -5.4129913,-5.0456926 C -2.6529913,-5.0456926 -0.41299131,-2.8056926 -0.41299131,-0.045692580 C -0.41299131,2.7143074 -2.6529913,4.9543074 -5.4129913,4.9543074"/>
    </marker>
    <marker style="overflow:visible" id="CurvyCross" refX="0.0" refY="0.0" orient="auto" inkscape:stockid="CurvyCross">
      <g transform="scale(0.6)">
        <path style="fill:none;fill-rule:evenodd;stroke:#000000;stroke-width:1.0pt" d="M 4.6254930,-5.0456926 C 1.8654930,-5.0456926 -0.37450702,-2.8056926 -0.37450702,-0.045692580 C -0.37450702,2.7143074 1.8654930,4.9543074 4.6254930,4.9543074"/>
        <path style="fill:none;fill-rule:evenodd;stroke:#000000;stroke-width:1.0pt" d="M -5.4129913,-5.0456926 C -2.6529913,-5.0456926 -0.41299131,-2.8056926 -0.41299131,-0.045692580 C -0.41299131,2.7143074 -2.6529913,4.9543074 -5.4129913,4.9543074"/>
      </g>
    </marker>

    <!-- scissors -->
    <marker style="overflow:visible" id="Scissors" refX="0.0" refY="0.0" orient="auto" inkscape:stockid="Scissors">
      <path style="fill:#000000;" d="M 9.0898857,-3.6061018 C 8.1198849,-4.7769976 6.3697607,-4.7358294 5.0623558,-4.2327734 L -3.1500488,-1.1548705 C -5.5383421,-2.4615840 -7.8983361,-2.0874077 -7.8983361,-2.7236578 C -7.8983361,-3.2209742 -7.4416699,-3.1119800 -7.5100293,-4.4068519 C -7.5756648,-5.6501286 -8.8736064,-6.5699315 -10.100428,-6.4884954 C -11.327699,-6.4958500 -12.599867,-5.5553341 -12.610769,-4.2584343 C -12.702194,-2.9520479 -11.603560,-1.7387447 -10.304005,-1.6532027 C -8.7816644,-1.4265411 -6.0857470,-2.3487593 -4.8210600,-0.082342643 C -5.7633447,1.6559151 -7.4350844,1.6607341 -8.9465707,1.5737277 C -10.201445,1.5014928 -11.708664,1.8611256 -12.307219,3.0945882 C -12.885586,4.2766744 -12.318421,5.9591904 -10.990470,6.3210002 C -9.6502788,6.8128279 -7.8098011,6.1912892 -7.4910978,4.6502760 C -7.2454393,3.4624530 -8.0864637,2.9043186 -7.7636052,2.4731223 C -7.5199917,2.1477623 -5.9728246,2.3362771 -3.2164999,1.0982979 L 5.6763468,4.2330688 C 6.8000164,4.5467672 8.1730685,4.5362646 9.1684433,3.4313614 L -0.051640930,-0.053722219 L 9.0898857,-3.6061018 z M -9.2179159,-5.5066058 C -7.9233569,-4.7838060 -8.0290767,-2.8230356 -9.3743431,-2.4433169 C -10.590861,-2.0196559 -12.145370,-3.2022863 -11.757521,-4.5207817 C -11.530373,-5.6026336 -10.104134,-6.0014137 -9.2179159,-5.5066058 z M -9.1616516,2.5107591 C -7.8108215,3.0096239 -8.0402087,5.2951947 -9.4138723,5.6023681 C -10.324932,5.9187072 -11.627422,5.4635705 -11.719569,4.3902287 C -11.897178,3.0851737 -10.363484,1.9060805 -9.1616516,2.5107591 z " id="schere"/>
    </marker>

    <!-- Others -->
    <marker style="overflow:visible" id="Legs" refX="0.0" refY="0.0" orient="auto" inkscape:stockid="Legs">
      <g transform="scale(-0.7)">
        <g transform="matrix(0,-1.000000,-1.000000,0,20.70862,21.31391)">
          <path style="fill:none;fill-opacity:0.75000000;fill-rule:evenodd;stroke:#000000;stroke-width:1.0000000pt" d="M 21.221250,20.675360 C 14.311099,25.396517 18.766725,27.282204 15.380179,34.118595"/>
          <path style="fill:none;fill-opacity:0.75000000;fill-rule:evenodd;stroke:#000000;stroke-width:1.0000000pt" d="M 21.398110,20.548120 C 20.037601,28.895644 24.934182,29.318060 25.903151,34.373078"/>
        </g>
        <path style="fill:#030300;fill-rule:evenodd;stroke-width:1.0000000pt" d="M -14.090070,-6.7318716 L -15.012238,-2.6884886 L -11.049487,-3.9115586 L -14.090070,-6.7318716 z "/>
        <path style="fill:#030300;fill-rule:evenodd;stroke-width:1.0000000pt" d="M -15.215679,4.5567534 L -13.341552,8.2563664 L -11.074678,4.7835114 L -15.215679,4.5567534 z "/>
      </g>
    </marker>

    <marker style="overflow:visible" id="Torso" refX="0.0" refY="0.0" orient="auto" inkscape:stockid="Torso">
      <g transform="scale(0.7)">
        <path style="fill:none;fill-opacity:0.75000000;fill-rule:evenodd;stroke:#000000;stroke-width:1.2500000" d="M -4.7792281,-3.2395420 C -2.4288541,-2.8736027 0.52103922,-1.3019943 0.25792722,0.38794346 C -0.0051877922,2.0778819 -2.2126741,2.6176539 -4.5630471,2.2517169 C -6.9134221,1.8857769 -8.5210350,0.75201414 -8.2579220,-0.93792336 C -7.9948090,-2.6278615 -7.1296041,-3.6054813 -4.7792281,-3.2395420 z "/>
        <path style="fill:none;fill-opacity:0.75000000;fill-rule:evenodd;stroke:#000000;stroke-width:1.0000000pt" d="M 4.4598789,0.088665736 C -2.5564571,-4.3783320 5.2248769,-3.9061806 -0.84829578,-8.7197331"/>
        <path style="fill:none;fill-opacity:0.75000000;fill-rule:evenodd;stroke:#000000;stroke-width:1.0000000pt" d="M 4.9298719,0.057520736 C -1.3872731,1.7494689 1.8027579,5.4782079 -4.9448731,7.5462725"/>
        <rect style="fill-rule:evenodd;stroke-width:1.0000000pt" width="2.6366582" height="2.7608147" x="-10.391706" y="-1.7408575" transform="matrix(0.527536,-0.849533,0.887668,0.460484,0,0)"/>
        <rect style="fill-rule:evenodd;stroke-width:1.0000000pt" width="2.7327356" height="2.8614161" x="4.9587269" y="-7.9629307" transform="matrix(0.671205,-0.741272,0.790802,0.612072,0,0)"/>
        <path style="fill:#ff0000;fill-opacity:0.75000000;fill-rule:evenodd;stroke:#000000;stroke-width:1.0000000pt" d="M 16.779951 -28.685045 A 0.60731727 0.60731727 0 1 0 15.565317,-28.685045 A 0.60731727 0.60731727 0 1 0 16.779951 -28.685045 z" transform="matrix(0,-1.109517,1.109517,0,25.96648,19.71619)"/>
        <path style="fill:#ff0000;fill-opacity:0.75000000;fill-rule:evenodd;stroke:#000000;stroke-width:1.0000000pt" d="M 16.779951 -28.685045 A 0.60731727 0.60731727 0 1 0 15.565317,-28.685045 A 0.60731727 0.60731727 0 1 0 16.779951 -28.685045 z" transform="matrix(0,-1.109517,1.109517,0,26.82450,16.99126)"/>
      </g>
    </marker>

    <marker style="overflow:visible" id="Club" refX="0.0" refY="0.0" orient="auto" inkscape:stockid="Club">
      <path transform="scale(0.6)" style="fill-rule:evenodd;stroke:#000000;stroke-width:0.74587913pt" d="M -1.5971367,-7.0977635 C -3.4863874,-7.0977635 -5.0235187,-5.5606321 -5.0235187,-3.6713813 C -5.0235187,-3.0147015 -4.7851656,-2.4444556 -4.4641095,-1.9232271 C -4.5028609,-1.8911157 -4.5437814,-1.8647646 -4.5806531,-1.8299921 C -5.2030765,-2.6849849 -6.1700514,-3.2751330 -7.3077730,-3.2751330 C -9.1970245,-3.2751331 -10.734155,-1.7380016 -10.734155,0.15124914 C -10.734155,2.0404999 -9.1970245,3.5776313 -7.3077730,3.5776313 C -6.3143268,3.5776313 -5.4391540,3.1355702 -4.8137404,2.4588126 C -4.9384274,2.8137041 -5.0235187,3.1803000 -5.0235187,3.5776313 C -5.0235187,5.4668819 -3.4863874,7.0040135 -1.5971367,7.0040135 C 0.29211394,7.0040135 1.8292454,5.4668819 1.8292454,3.5776313 C 1.8292454,2.7842354 1.5136868,2.0838028 1.0600576,1.5031550 C 2.4152718,1.7663868 3.7718375,2.2973711 4.7661444,3.8340272 C 4.0279463,3.0958289 3.5540908,1.7534117 3.5540908,-0.058529361 L 2.9247554,-0.10514681 L 3.5074733,-0.12845553 C 3.5074733,-1.9403966 3.9580199,-3.2828138 4.6962183,-4.0210121 C 3.7371277,-2.5387813 2.4390549,-1.9946496 1.1299838,-1.7134486 C 1.5341802,-2.2753578 1.8292454,-2.9268556 1.8292454,-3.6713813 C 1.8292454,-5.5606319 0.29211394,-7.0977635 -1.5971367,-7.0977635 z "/>
    </marker>

    <marker style="overflow:visible" orient="auto" refY="0" refX="0" id="RazorWire" inkscape:stockid="RazorWire">
      <path d="M 0.022727273,-0.74009011 L 0.022727273,0.69740989 L -7.7585227,3.0099099 L 10.678977,3.0099099 L 3.4914773,0.69740989 L 3.4914773,-0.74009011 L 10.741477,-2.8963401 L -7.7272727,-2.8963401 L 0.022727273,-0.74009011 z " style="fill:#808080;fill-opacity:1;fill-rule:evenodd;stroke:#000000;stroke-width:0.1pt" transform="scale(0.8,0.8)"/>
    </marker>

    <!-- Infinite lines -->
    <marker orient="auto" refY="0" refX="0" id="InfiniteLineEnd" inkscape:stockid="InfiniteLineEnd" style="overflow:visible">
      <g style="fill:#000000">
        <circle cx="3" cy="0" r="0.8"/>
        <circle cx="6.5" cy="0" r="0.8"/>
        <circle cx="10" cy="0" r="0.8"/>
      </g>
    </marker>
    <marker orient="auto" refY="0" refX="0" id="InfiniteLineStart" inkscape:stockid="InfiniteLineStart" style="overflow:visible">
      <g transform="translate(-13,0)" style="fill:#000000">
        <circle cx="3" cy="0" r="0.8"/>
        <circle cx="6.5" cy="0" r="0.8"/>
        <circle cx="10" cy="0" r="0.8"/>
      </g>
    </marker>

    <marker id="ExperimentalArrow" refX="5.0" refY="3.0" orient="auto-start-reverse" inkscape:stockid="ExperimentalArrow">
      <path style="fill:context-stroke" d="m 10,3 -10,3 0,-6 z"/>
    </marker>

  </defs>
</svg>
