<?xml version="1.0" encoding="UTF-8" standalone="no"?>
<!-- Created with Inkscape (http://www.inkscape.org/) -->
<svg
   xmlns:dc="http://purl.org/dc/elements/1.1/"
   xmlns:cc="http://web.resource.org/cc/"
   xmlns:rdf="http://www.w3.org/1999/02/22-rdf-syntax-ns#"
   xmlns:svg="http://www.w3.org/2000/svg"
   xmlns="http://www.w3.org/2000/svg"
   xmlns:sodipodi="http://sodipodi.sourceforge.net/DTD/sodipodi-0.dtd"
   xmlns:inkscape="http://www.inkscape.org/namespaces/inkscape"
   id="svg1725"
   sodipodi:version="0.32"
   inkscape:version="0.45+devel"
   width="210mm"
   height="297mm"
   sodipodi:docname="draw-freely.ru.svg"
   inkscape:output_extension="org.inkscape.output.svg.inkscape"
   >
  <defs
     id="defs1727" />
  <sodipodi:namedview
     id="base"
     pagecolor="#ffffff"
     bordercolor="#666666"
     borderopacity="1.0"
     inkscape:pageopacity="1.0000000"
     inkscape:pageshadow="2"
     inkscape:zoom="0.36631945"
     inkscape:cx="453.44213"
     inkscape:cy="474.56956"
     inkscape:window-width="820"
     inkscape:window-height="656"
     inkscape:window-x="415"
     inkscape:window-y="342"
     inkscape:current-layer="svg1725" />
  <metadata
     id="metadata1728">
    <rdf:RDF>
      <cc:Work
         rdf:about="">
        <dc:format>image/svg+xml</dc:format>
        <dc:type
           rdf:resource="http://purl.org/dc/dcmitype/StillImage" />
      </cc:Work>
    </rdf:RDF>
  </metadata>
  <path
     style="fill:#000000;fill-opacity:1;stroke-width:1pt"
     d="M 466.69088,586.64433 L 451.12888,586.64433 L 451.12888,587.64017 L 451.59482,587.64017 C 453.69245,587.64017 453.92518,587.7465 453.92518,588.6361 L 453.92518,589.2504 L 453.92518,599.33459 L 453.92518,599.94907 C 453.92518,600.83858 453.69245,600.94491 451.59482,600.94491 L 451.12888,600.94491 L 451.12888,601.94065 L 467.02734,601.94065 L 467.54529,596.2837 L 466.40568,596.2837 C 466.06987,597.76657 465.47369,599.08028 464.85241,599.69486 C 464.04945,600.54225 462.57338,600.94491 460.39873,600.94491 L 458.68975,600.94491 C 457.91263,600.94491 457.26569,600.81786 457.03237,600.62703 C 456.85147,600.50054 456.8254,600.37272 456.8254,599.92808 L 456.8254,594.52581 L 457.34326,594.52581 C 458.92248,594.52581 459.57001,594.65285 460.08843,595.0974 C 460.76104,595.64878 461.02011,596.32665 461.07211,597.57633 L 462.28902,597.57633 L 462.28902,590.62758 L 461.07211,590.62758 C 460.94253,592.70366 459.90656,593.53006 457.44641,593.53006 L 456.8254,593.53006 L 456.8254,588.69948 C 456.8254,587.78861 457.05862,587.64017 458.45671,587.64017 L 459.80292,587.64017 C 462.08177,587.64017 463.19503,587.83109 464.07588,588.42437 C 464.93017,588.97509 465.55155,590.16126 465.94029,592.06791 L 467.05368,592.06791 L 466.69088,586.64433 z M 432.32964,595.13989 L 435.25552,595.13989 C 437.58637,595.13989 438.80309,594.99163 439.83925,594.58938 C 441.67716,593.86856 442.71344,592.51292 442.71344,590.8395 C 442.71344,589.22977 441.80674,588.00044 440.09813,587.30149 C 439.08801,586.87811 437.48245,586.64433 435.69581,586.64433 L 426.6333,586.64433 L 426.6333,587.64017 L 427.09924,587.64017 C 429.1966,587.64017 429.42941,587.7465 429.42941,588.6361 L 429.42941,589.2504 L 429.42941,599.33459 L 429.42941,599.94907 C 429.42941,600.83858 429.1966,600.94491 427.09924,600.94491 L 426.6333,600.94491 L 426.6333,601.94065 L 435.33337,601.94065 L 435.33337,600.94491 L 434.6599,600.94491 C 432.56236,600.94491 432.32964,600.83858 432.32964,599.94907 L 432.32964,599.33459 L 432.32964,595.13989 z M 432.32964,594.14424 L 432.32964,588.72079 C 432.32964,587.7465 432.48525,587.64017 433.90922,587.64017 L 435.5666,587.64017 C 438.25929,587.64017 439.52808,588.67849 439.52808,590.9241 C 439.52808,593.10651 438.20756,594.14424 435.46296,594.14424 L 432.32964,594.14424 z M 409.80201,586.34804 L 408.7146,586.34804 L 402.75859,598.69884 C 402.24105,599.80081 402.13768,599.94907 401.74934,600.28776 C 401.33472,600.69051 400.60964,600.94491 399.91029,600.94491 L 399.80705,600.94491 L 399.80705,601.94065 L 406.66866,601.94065 L 406.66866,600.94491 L 406.15065,600.94491 C 404.75299,600.94491 404.05357,600.54225 404.05357,599.73725 C 404.05357,599.48285 404.13133,599.18674 404.28648,598.84774 L 405.14127,596.98311 L 412.00279,596.98311 L 413.40119,599.82221 C 413.55671,600.14 413.60844,600.28776 413.60844,600.3944 C 413.60844,600.73299 412.96044,600.94491 412.00279,600.94491 L 410.91528,600.94491 L 410.91528,601.94065 L 418.94266,601.94065 L 418.94266,600.94491 L 418.58026,600.94491 C 417.28481,600.94491 417.00018,600.77547 416.40502,599.58927 L 409.80201,586.34804 z M 408.5331,589.82258 L 411.45908,595.83933 L 405.65882,595.83933 L 408.5331,589.82258 z M 390.66641,586.49617 L 389.68232,586.49617 L 388.64663,587.7465 C 386.80766,586.64433 385.7986,586.32674 384.06355,586.32674 C 381.5517,586.32674 379.47983,587.15314 377.7194,588.86886 C 376.06224,590.47905 375.28512,592.25843 375.28512,594.44084 C 375.28512,598.9959 378.93603,602.25834 384.03761,602.25834 C 388.18059,602.25834 390.82183,600.26704 391.41755,596.70763 L 390.20046,596.53829 C 389.94157,597.66098 389.6305,598.42344 389.16446,599.05929 C 388.10311,600.52126 386.44573,601.26288 384.3481,601.26288 C 380.51599,601.26288 378.70339,599.08028 378.70339,594.52581 C 378.70339,592.13129 379.09145,590.52144 379.97199,589.2504 C 380.77459,588.06391 382.38014,587.32211 384.03761,587.32211 C 385.8502,587.32211 387.45566,588.1063 388.43957,589.46241 C 388.93164,590.16126 389.32001,590.98748 389.91582,592.61888 L 391.05419,592.61888 L 390.66641,586.49617 z M 364.74664,586.51729 L 363.78889,586.51729 L 362.75293,587.78861 C 361.53574,586.83526 359.87864,586.32674 358.04018,586.32674 C 354.64807,586.32674 352.36959,588.1063 352.36959,590.75503 C 352.36959,593.06384 353.76725,594.20802 357.57358,595.01293 L 360.03361,595.52164 C 361.94996,595.9238 362.13102,595.96619 362.67507,596.30565 C 363.45179,596.79259 363.86601,597.49155 363.86601,598.31785 C 363.86601,599.16515 363.47763,599.8642 362.70111,600.43666 C 361.84623,601.05087 360.99222,601.284 359.56797,601.284 C 357.65153,601.284 356.27919,600.79646 355.06229,599.69486 C 353.97468,598.69884 353.43088,597.70309 353.04269,596.07215 L 351.92934,596.07215 L 352.03257,602.11027 L 353.04269,602.11027 L 354.2075,600.66951 C 355.94255,601.83441 357.39332,602.25834 359.64518,602.25834 C 363.45179,602.25834 365.88588,600.43666 365.88588,597.59732 C 365.88588,596.2837 365.34207,595.16119 364.3327,594.35615 C 363.63319,593.80518 362.62335,593.4451 360.55156,593.02117 L 357.78101,592.44945 C 355.4766,591.96232 354.3889,591.13592 354.3889,589.84357 C 354.3889,588.36089 355.86488,587.34319 358.06575,587.34319 C 359.87864,587.34319 361.35425,587.97944 362.39003,589.18683 C 363.14099,590.05531 363.60694,590.94509 363.94395,592.02571 L 365.05725,592.02571 L 364.74664,586.51729 z M 329.73795,595.01293 L 329.73795,589.2504 L 329.73795,588.6361 C 329.73795,587.7465 329.97071,587.64017 332.06844,587.64017 L 332.56042,587.64017 L 332.56042,586.64433 L 324.04134,586.64433 L 324.04134,587.64017 L 324.50756,587.64017 C 326.60491,587.64017 326.83727,587.7465 326.83727,588.6361 L 326.83727,589.2504 L 326.83727,599.33459 L 326.83727,599.94907 C 326.83727,600.83858 326.60491,600.94491 324.50756,600.94491 L 324.04134,600.94491 L 324.04134,601.94065 L 332.56042,601.94065 L 332.56042,600.94491 L 332.06844,600.94491 C 329.97071,600.94491 329.73795,600.83858 329.73795,599.94907 L 329.73795,599.33459 L 329.73795,596.64415 L 332.74182,594.16563 L 337.2471,599.56772 C 337.66173,600.07612 337.76496,600.24559 337.76496,600.45806 C 337.76496,600.79646 337.27354,600.94491 336.00435,600.94491 L 335.20138,600.94491 L 335.20138,601.94065 L 344.05729,601.94065 L 344.05729,600.94491 L 343.56541,600.94491 C 342.14125,600.94491 341.77826,600.79646 341.02758,599.88569 L 334.7616,592.49184 L 338.62002,589.33536 C 339.86259,588.25456 341.4418,587.64017 342.99554,587.64017 L 342.99554,586.64433 L 335.01998,586.64433 L 335.01998,587.64017 L 335.66789,587.64017 C 336.85932,587.64017 337.35074,587.83109 337.35074,588.27583 C 337.35074,588.57234 336.83288,589.18683 336.08211,589.8009 L 329.73795,595.01293 z M 300.78851,586.64433 L 295.45429,586.64433 L 295.45429,587.64017 L 296.10173,587.64017 C 297.42234,587.64017 298.01796,587.8097 298.484,588.3399 L 298.484,597.3431 C 298.484,600.24559 297.96577,600.85985 295.48026,600.94491 L 295.48026,601.94065 L 302.86048,601.94065 L 302.86048,600.94491 C 300.39986,600.85985 299.88231,600.24559 299.88231,597.3431 L 299.88231,589.4834 L 311.43138,602.23735 L 312.5188,602.23735 L 312.5188,591.24188 C 312.5188,588.3399 313.03625,587.72514 315.52225,587.64017 L 315.52225,586.64433 L 308.14232,586.64433 L 308.14232,587.64017 C 310.60225,587.72514 311.12021,588.3399 311.12021,591.24188 L 311.12021,597.89411 L 300.78851,586.64433 z M 283.95759,589.2504 L 283.95759,588.6361 C 283.95759,587.7465 284.19054,587.64017 286.26182,587.64017 L 286.77978,587.64017 L 286.77978,586.64433 L 278.20888,586.64433 L 278.20888,587.64017 L 278.72683,587.64017 C 280.82428,587.64017 281.05719,587.7465 281.05719,588.6361 L 281.05719,589.2504 L 281.05719,599.33459 L 281.05719,599.94907 C 281.05719,600.83858 280.82428,600.94491 278.72683,600.94491 L 278.20888,600.94491 L 278.20888,601.94065 L 286.77978,601.94065 L 286.77978,600.94491 L 286.26182,600.94491 C 284.19054,600.94491 283.95759,600.83858 283.95759,599.94907 L 283.95759,599.33459 L 283.95759,589.2504 z"
     id="path1790" />
  <rect
     style="fill:none;fill-opacity:0.75000000;fill-rule:evenodd;stroke:none;stroke-width:1.2500000;stroke-linecap:butt;stroke-linejoin:miter;stroke-miterlimit:4.0000000;stroke-dashoffset:0.0000000;stroke-opacity:1.0000000;"
     id="rect2417"
     width="121.38228"
     height="108.26424"
     x="154.73230"
     y="423.67596"
     rx="6.1828303"
     ry="0.0000000"
     inkscape:export-filename="/home/d/ink/draw-freely.png"
     inkscape:export-xdpi="475.20001"
     inkscape:export-ydpi="475.20001" />
  <path
     style="font-size:91.1083374px;font-style:normal;font-variant:normal;font-weight:normal;font-stretch:normal;line-height:100%;writing-mode:lr-tb;text-anchor:start;fill:#000000;fill-opacity:1;stroke:none;stroke-width:1pt;stroke-linecap:butt;stroke-linejoin:miter;stroke-opacity:1;font-family:Pushkin"
     d="M 511.84498,930.29223 C 498.54088,930.33085 485.37228,933.1155 472.75748,937.19828 C 470.75608,937.99628 468.46258,938.58775 467.01298,940.26858 C 467.19898,942.0437 470.20868,941.14355 471.50118,941.15628 C 476.19768,940.43544 480.71018,938.86292 485.36768,937.94311 C 497.71198,935.20606 510.47658,933.52838 523.10458,935.09361 C 532.97988,936.32964 542.86888,938.4426 551.97028,942.57282 C 556.78128,944.72603 561.19498,947.67918 565.16578,951.13445 C 570.37228,955.5321 575.68238,959.95453 579.78298,965.44334 C 584.73928,972.38588 586.77788,981.15001 586.24218,989.59614 C 585.39438,996.92523 581.11148,1003.272 576.47248,1008.7822 C 571.86958,1014.0406 566.82678,1019.2175 560.42158,1022.2433 C 557.93028,1023.311 555.10328,1024.1536 552.39188,1023.535 C 550.50808,1022.8131 551.57388,1020.4111 552.49858,1019.3107 C 554.74138,1016.6409 557.77868,1014.7277 560.98448,1013.4207 C 562.76248,1012.6436 565.07158,1011.856 565.42598,1009.6481 C 566.19708,1007.6349 564.03118,1005.9866 562.19368,1006.9191 C 558.40488,1008.3558 555.22978,1010.9922 552.05008,1013.4313 C 550.76338,1014.7157 548.70438,1014.2079 547.04538,1014.6819 C 544.06538,1015.0952 541.05018,1015.5554 538.04108,1015.46 C 536.34598,1015.0959 534.62548,1014.7365 533.04698,1013.9937 C 534.22618,1011.4074 535.75388,1008.7499 535.67158,1005.8242 C 535.45848,1003.4725 533.47018,1001.4661 531.22968,1000.917 C 528.15088,1000.9056 525.25918,1002.2221 522.43668,1003.3163 C 517.24068,1005.4203 512.64728,1008.8127 508.89748,1012.9576 C 505.72438,1016.5226 502.73568,1020.4984 501.38178,1025.136 C 500.85208,1026.8841 500.92368,1028.9098 502.21678,1030.3151 C 503.23558,1031.8335 505.03118,1032.8166 506.88138,1032.5277 C 513.07768,1032.2345 518.35528,1028.4131 522.66368,1024.2636 C 525.01828,1022.0651 527.30918,1019.8045 529.58698,1017.5287 C 533.06618,1019.0813 536.94038,1019.3863 540.69578,1019.0255 C 542.83708,1018.8782 544.96868,1018.5867 547.07118,1018.1549 C 545.53508,1019.9144 544.23458,1022.2832 545.00248,1024.6734 C 545.58788,1027.1877 547.83398,1029.4981 550.56868,1029.2346 C 558.75648,1029.1102 566.18808,1024.7038 572.18658,1019.445 C 579.55298,1012.9194 585.36008,1004.6026 588.90708,995.42035 C 590.87648,990.33367 591.46168,984.73992 590.48558,979.36603 C 589.07978,970.47975 583.89388,962.68994 577.61538,956.44724 C 573.15898,951.996 568.38428,947.84564 563.30798,944.11601 C 553.90918,937.6774 542.71498,934.58667 531.66238,932.40491 C 525.13408,931.1439 518.50238,930.29937 511.84498,930.29223 z M 118.57791,951.01584 C 109.47238,951.53248 100.93169,955.23731 92.965294,959.4326 C 84.104329,964.17896 75.959667,970.40636 69.410098,978.05555 C 67.270128,980.74666 64.905278,983.94387 65.469748,987.59094 C 65.709818,990.65561 67.970368,993.2687 70.836628,994.24918 C 73.328318,995.20443 76.029287,995.43295 78.676882,995.44409 C 68.976888,1004.1837 58.949828,1012.5494 49.068399,1021.0768 C 47.106267,1022.9268 44.902109,1024.641 43.488895,1026.9685 C 42.852141,1028.7536 44.589579,1030.9633 46.499757,1030.2966 C 49.855338,1027.9377 52.713088,1024.9438 55.734358,1022.1849 C 61.201998,1017.003 66.759058,1011.9065 72.714258,1007.2898 C 81.921368,999.80436 91.205189,992.41061 100.28398,984.76997 C 103.4415,981.92946 106.8215,979.17526 109.11005,975.54975 C 109.99927,974.08213 109.74705,971.51931 107.96874,970.86107 C 106.06142,970.426 104.66592,972.33066 103.19394,973.23442 C 98.100871,977.35594 93.300982,981.90832 87.598975,985.20857 C 84.442812,987.06171 81.498069,989.64312 77.76037,990.17199 C 75.687156,990.17917 73.368808,989.52944 72.033118,987.85715 C 71.132958,986.25945 72.232408,984.4078 72.937908,982.95179 C 75.772185,978.2233 79.984291,974.52068 84.157299,971.00085 C 90.886667,965.59449 98.398604,961.05455 106.53478,958.11459 C 112.20439,956.17027 118.67206,955.0126 124.39075,957.39989 C 126.12127,958.09 127.4686,959.84014 127.18014,961.76405 C 126.84536,967.79442 123.25467,973.00632 119.46759,977.47279 C 116.75893,980.72805 113.57053,983.53245 110.16955,986.0427 C 105.22389,989.90432 99.898958,993.2741 95.120826,997.34767 C 93.371098,998.96744 96.12844,1000.79 97.592686,999.24219 C 103.18015,996.43332 108.38864,992.914 113.41288,989.20357 C 118.72082,985.16604 123.42722,980.35854 127.60704,975.17226 C 130.82575,970.96968 133.92826,966.19623 134.18105,960.74884 C 134.39509,957.43263 131.52999,955.00564 128.8103,953.69338 C 125.61774,952.20435 122.17323,950.78692 118.57791,951.01584 z M 452.14098,952.37759 C 448.78408,952.65035 445.79298,954.42734 442.85088,955.92362 C 437.05428,959.09035 431.68118,962.95368 426.12668,966.51419 C 419.48088,970.79914 412.95518,975.2801 406.78678,980.23493 C 399.33188,986.12432 392.18998,992.39748 384.85848,998.43515 C 379.37148,1002.6294 373.43728,1006.3621 368.86148,1011.6173 C 367.53548,1012.7243 366.74768,1014.8961 364.77828,1014.53 C 353.84098,1017.8531 343.05498,1021.6944 331.98698,1024.5783 C 329.52758,1025.1057 327.03048,1025.9417 324.49468,1025.7317 C 322.46658,1025.4293 322.30028,1023.0099 323.59838,1021.754 C 325.99698,1018.6047 329.19038,1016.1596 332.33938,1013.8106 C 334.73738,1012.3666 337.13708,1010.9218 339.65248,1009.6874 C 340.61298,1010.9465 341.74448,1013.2107 343.62418,1012.5695 C 345.43548,1011.4661 346.70808,1009.5697 347.47268,1007.625 C 347.71258,1004.8645 344.60908,1002.9548 342.11078,1003.5595 C 337.96608,1004.5392 334.39718,1007.0285 330.85528,1009.2837 C 326.41798,1012.3122 321.83898,1015.4403 318.70088,1019.8828 C 316.87138,1022.3331 316.60548,1026.1228 318.78508,1028.439 C 321.19158,1030.6446 324.75928,1030.3111 327.75358,1029.8753 C 336.38838,1028.3542 344.69558,1025.4459 352.98968,1022.6768 C 355.88768,1021.673 358.77688,1020.6442 361.62778,1019.5162 C 359.92108,1021.8294 358.25278,1024.5299 358.37518,1027.511 C 359.05438,1029.6639 361.12778,1031.3381 363.33618,1031.7395 C 367.64548,1032.0582 371.82068,1030.3935 375.61258,1028.5037 C 379.03818,1026.6183 382.48078,1024.7636 385.92128,1022.9062 C 389.79468,1025.0917 394.12268,1027.1955 398.69728,1026.5577 C 404.15688,1025.9932 409.52328,1024.7126 414.77978,1023.1599 C 413.90868,1025.324 413.11428,1028.0912 414.75038,1030.1056 C 415.78008,1031.7277 417.64948,1032.8377 419.60698,1032.5277 C 425.80388,1032.2344 431.08158,1028.4131 435.38948,1024.2636 C 437.74408,1022.0651 440.03498,1019.8045 442.31278,1017.5287 C 445.79748,1019.084 449.67778,1019.3837 453.43928,1019.0363 C 456.63038,1018.8026 459.83268,1018.3555 462.88898,1017.3837 C 460.92488,1019.6296 458.75078,1021.9202 457.90678,1024.8488 C 457.17488,1027.9923 459.79318,1031.3076 463.02068,1031.3418 C 468.67348,1031.5905 473.82478,1028.5209 478.14118,1025.1762 C 491.32178,1014.5335 502.79078,1001.8599 512.51268,988.00329 C 516.37028,982.57794 520.05888,977.01589 524.35998,971.92334 C 527.82808,971.41567 531.30228,971.00002 534.79228,970.75222 C 541.76078,970.03568 548.68038,968.86167 555.52678,967.39344 C 559.19148,966.37691 562.96938,965.04326 565.80018,962.40847 C 567.45268,961.26182 567.67338,957.84836 564.92648,958.74224 C 560.98768,958.51889 557.46148,960.6343 553.67918,961.36252 C 550.61008,961.90832 547.46438,961.56384 544.36118,961.65375 C 542.23208,961.23294 540.86378,964.18177 543.31828,964.898 C 544.03588,965.41477 541.10758,965.36906 540.29968,965.6442 C 536.41398,966.27417 532.47108,966.38722 528.58128,966.98941 C 526.64368,967.13203 524.67088,967.67616 522.74048,967.32209 C 520.82638,967.73902 519.62958,969.54235 518.35098,970.88669 C 514.49228,975.53767 511.40658,980.75771 507.90258,985.6702 C 505.53048,989.10368 503.24638,992.60573 500.50898,995.76645 C 496.35758,1000.8417 492.20108,1005.9205 487.77198,1010.7587 C 487.83508,1008.1846 487.10238,1004.9436 484.35298,1004.0257 C 481.58218,1002.9607 478.86838,1004.6626 476.54298,1006.003 C 472.63118,1008.3853 468.92778,1011.1564 465.72328,1014.4387 C 464.12308,1013.6862 462.31448,1014.4423 460.64348,1014.5505 C 457.37558,1015.0185 454.07098,1015.5482 450.76728,1015.46 C 449.06058,1015.0933 447.32698,1014.7375 445.73598,1013.9937 C 446.91148,1011.4034 448.47408,1008.7544 448.39728,1005.8242 C 448.18468,1003.4725 446.19598,1001.4661 443.95548,1000.917 C 440.87668,1000.9055 437.98488,1002.2221 435.16288,1003.3163 C 429.96638,1005.4203 425.37358,1008.8128 421.62328,1012.9576 C 419.78958,1014.9429 418.13748,1017.0977 416.73048,1019.4074 C 411.74098,1020.1615 406.94558,1021.9924 401.87008,1022.2364 C 398.81478,1022.4254 395.37768,1022.6425 392.80498,1020.6599 C 395.83218,1018.4843 399.06898,1016.1563 400.65668,1012.6622 C 401.36028,1011.2198 401.29948,1008.5648 399.17498,1008.52 C 396.42708,1008.58 394.16908,1010.4729 392.01168,1011.9683 C 389.43658,1014.0026 386.80638,1016.0121 384.63298,1018.4862 C 380.20158,1021.059 376.00218,1024.0373 371.42578,1026.3517 C 369.51298,1027.1879 367.46038,1028.2941 365.31268,1027.9544 C 363.34178,1026.6813 365.36448,1024.2204 366.26098,1022.8757 C 369.41218,1018.6714 372.91418,1014.712 376.71468,1011.0868 C 380.01348,1007.9434 383.77818,1005.3625 387.49478,1002.7545 C 394.74438,999.05727 402.25528,995.89896 409.67228,992.55635 C 418.62648,988.53955 427.53858,984.24254 435.44178,978.36027 C 442.31608,973.38454 449.00618,968.02314 454.62068,961.62694 C 455.81918,960.15066 457.44278,958.33323 456.63878,956.28433 C 455.95648,954.41862 454.29808,952.38443 452.14098,952.37759 z M 566.43278,958.70909 C 566.71418,958.64356 565.57288,958.57374 566.43278,958.70909 z M 451.25748,956.90534 C 453.04238,958.11523 450.26188,960.29957 449.40148,961.43253 C 443.97088,966.90125 437.97178,971.79529 431.71338,976.28442 C 423.91758,981.92779 415.14418,986.03392 406.17148,989.42431 C 405.01938,989.80595 402.51088,990.9801 402.24938,990.82148 C 409.21148,984.99513 416.06838,979.01947 423.40148,973.65819 C 430.73488,968.4979 438.04728,963.25149 445.91778,958.92936 C 447.61548,958.09555 449.33728,957.07533 451.25748,956.90534 z M 287.05273,975.05209 C 284.47022,975.39318 282.31973,977.0807 280.1636,978.4195 C 274.41197,982.43771 268.898,986.81975 263.76273,991.60296 C 262.47934,992.98581 260.78922,994.2742 260.32923,996.18059 C 260.42944,998.26654 263.53545,998.57299 264.64928,997.08255 C 269.47898,992.92065 273.59316,987.91149 278.98021,984.4146 C 282.10182,982.13816 285.57099,980.25912 288.26117,977.44832 C 289.01908,976.59293 288.27197,974.88352 287.05273,975.05209 z M 610.82418,997.35809 C 608.50288,997.97688 606.60568,999.61554 604.60358,1000.8816 C 599.74288,1004.0626 595.38628,1007.9215 591.23588,1011.9668 C 587.22038,1015.8981 583.02928,1019.7317 579.72618,1024.3033 C 578.68658,1025.4098 578.35258,1027.6985 580.05568,1028.3534 C 582.25378,1029.2303 584.17618,1027.3814 585.52678,1025.8681 C 587.90388,1023.045 590.33878,1020.0035 593.88008,1018.6099 C 598.18028,1016.6035 603.07848,1015.1399 607.82488,1016.1973 C 608.83598,1016.5344 611.23738,1017.0963 609.48628,1018.2461 C 607.59888,1020.6655 605.67668,1023.5776 605.95428,1026.7829 C 606.75798,1028.6938 608.96548,1029.4194 610.73838,1030.1682 C 616.24638,1032.1562 622.26318,1031.7977 627.89368,1030.5474 C 632.03678,1029.6851 636.13378,1028.6089 640.19778,1027.4299 C 640.30208,1029.4658 641.80708,1031.2927 643.56268,1032.2094 C 645.74618,1032.9829 648.15478,1032.3154 650.31418,1031.7542 C 656.53008,1029.8192 661.10458,1024.9348 665.66918,1020.558 C 667.15028,1019.5767 668.18498,1016.6657 670.16978,1018.0789 C 674.79858,1019.7441 679.83108,1019.1577 684.59078,1018.4868 C 687.11768,1017.9856 689.86198,1017.6129 691.95168,1015.9893 C 693.64438,1014.2101 690.49028,1013.768 689.25678,1014.2443 C 685.24978,1014.7695 681.22948,1015.5641 677.17908,1015.46 C 675.48398,1015.0959 673.76348,1014.7365 672.18498,1013.9937 C 673.36418,1011.4074 674.89138,1008.7499 674.80958,1005.8242 C 674.59638,1003.4726 672.60818,1001.466 670.36768,1000.917 C 667.28888,1000.9055 664.39718,1002.2221 661.57468,1003.3163 C 656.37868,1005.4203 651.78528,1008.8127 648.03548,1012.9576 C 645.11628,1016.1867 642.48848,1019.7835 640.89748,1023.8587 C 633.49678,1025.8532 625.96568,1028.0958 618.22098,1027.7847 C 616.05708,1027.5433 613.43708,1027.282 612.03858,1025.3993 C 611.69378,1023.4607 613.95918,1022.1981 615.01198,1020.812 C 616.27038,1019.5772 617.46078,1018.2239 619.18588,1017.6551 C 623.83288,1015.2009 628.34988,1012.3977 632.33318,1008.9521 C 633.63808,1007.6442 635.48208,1006.1155 635.19948,1004.062 C 634.52228,1002.4013 632.43718,1001.171 630.71268,1002.0974 C 626.21098,1004.1214 622.28888,1007.2024 618.46748,1010.2804 C 617.09418,1011.0582 615.63048,1013.1772 614.34428,1013.1832 C 612.06088,1010.7397 608.44098,1010.7353 605.37658,1011.1909 C 603.25488,1011.4065 601.14838,1011.8927 599.00848,1011.8612 C 602.45728,1006.7932 608.16098,1004.1123 612.72448,1000.2431 C 613.43928,999.17359 611.92948,997.50339 610.82418,997.35809 z M 205.96248,1000.8923 C 202.70921,1001.1526 199.89108,1003.0759 197.23562,1004.8153 C 193.61022,1007.4562 190.32969,1010.8357 188.52551,1014.9952 C 187.23615,1016.0338 185.10401,1016.1955 183.46529,1016.8736 C 173.90121,1019.8349 164.44608,1023.2302 154.65031,1025.3678 C 152.88558,1025.6102 150.6666,1026.4316 149.24445,1024.9378 C 148.00139,1023.1249 150.061,1021.4246 151.50678,1020.5761 C 152.15209,1019.369 152.59276,1018.2626 153.92208,1017.4134 C 156.26105,1015.3341 158.76189,1013.4465 161.53293,1011.9816 C 162.94374,1011.325 164.57463,1009.9202 165.90684,1009.9015 C 166.84996,1011.1781 168.23397,1013.5562 170.07683,1012.3804 C 171.67355,1011.1965 172.88749,1009.4734 173.58712,1007.625 C 173.82428,1004.8845 170.75312,1002.9502 168.26014,1003.5595 C 164.10442,1004.5376 160.51967,1007.0222 156.96973,1009.2837 C 152.5642,1012.296 148.00179,1015.4035 144.86876,1019.8102 C 143.85785,1021.5892 141.36687,1021.6076 139.60981,1022.4246 C 136.23464,1023.3522 132.87009,1024.5874 129.34689,1024.7411 C 127.52458,1024.7347 124.89728,1024.3085 124.63419,1022.0902 C 124.63693,1020.0996 126.90215,1019.2476 128.27988,1018.2195 C 131.02295,1016.3673 134.37226,1014.6426 135.38039,1011.2304 C 136.08082,1009.6851 135.73261,1006.1133 133.2662,1007.2347 C 129.51683,1009.2794 126.44275,1012.3208 123.01231,1014.8316 C 115.77415,1020.5331 106.92613,1024.9193 97.520855,1024.7371 C 96.086435,1024.7969 93.502314,1024.2133 94.14531,1022.2647 C 95.54591,1019.6951 97.95952,1017.8667 100.07023,1015.9008 C 103.11504,1013.2071 106.37111,1010.6899 108.99729,1007.5633 C 110.16014,1005.643 107.85488,1004.0959 106.29526,1005.5734 C 101.84756,1008.0358 98.030252,1011.4701 94.24808,1014.8325 C 92.01895,1016.9947 89.554772,1019.0877 88.125044,1021.8983 C 87.27873,1024.6785 89.407407,1027.5526 91.95493,1028.5393 C 94.437167,1029.5351 97.169092,1029.0098 99.767792,1029.0005 C 104.24125,1028.8032 108.73378,1027.9895 112.77507,1025.9924 C 114.42359,1025.2498 116.0466,1024.4552 117.65766,1023.6412 C 119.63385,1025.5638 121.88439,1027.3956 124.6837,1027.8728 C 129.97194,1029.0772 135.29501,1027.3617 140.28488,1025.7094 C 141.54763,1025.5787 143.8311,1023.5422 143.57405,1025.9047 C 144.00855,1028.3959 146.44243,1029.9585 148.84163,1030.1041 C 153.25213,1030.4731 157.57683,1029.1353 161.81536,1028.1071 C 170.41743,1025.7195 178.89448,1022.8786 187.24377,1019.7192 C 188.7116,1018.7569 189.27428,1021.4507 190.88261,1021.6482 C 194.50074,1023.3077 198.54174,1022.036 202.1955,1021.19 C 203.43169,1020.9371 205.60234,1020.1051 206.207,1020.1423 C 199.72001,1026.0734 193.46511,1032.2533 187.04248,1038.2524 C 176.68894,1044.5014 165.83811,1050.0062 156.21696,1057.3952 C 146.19334,1064.9039 136.40171,1072.9111 128.35705,1082.5712 C 126.18517,1085.3573 123.82003,1088.2935 123.21196,1091.8631 C 122.93146,1093.7083 124.13304,1095.6125 125.72428,1096.4488 C 128.72705,1096.7053 131.53323,1095.1617 134.05046,1093.6967 C 140.32386,1089.8523 145.31467,1084.3683 150.74031,1079.4771 C 162.24391,1068.6875 174.06201,1058.2369 185.29651,1047.1599 C 189.34766,1043.2193 193.38621,1039.2666 197.34898,1035.2349 C 204.97046,1031.2078 212.77946,1027.5563 220.69213,1024.1437 C 223.89357,1022.7624 227.05156,1021.2767 230.29323,1019.9974 C 229.06895,1021.3378 228.45024,1023.2481 229.27856,1024.9702 C 230.44428,1027.9324 233.83632,1029.4306 236.88291,1029.1181 C 242.49479,1029.0522 248.29071,1028.6572 253.40689,1026.135 C 255.16164,1025.3571 256.88649,1024.5087 258.59898,1023.6412 C 260.53017,1025.5023 262.69329,1027.3164 265.40905,1027.8184 C 270.15165,1028.9793 275.00493,1027.7325 279.53381,1026.2842 C 283.72868,1024.844 288.03462,1023.4929 291.81702,1021.1297 C 293.71953,1020.4907 293.08984,1017.7454 291.05266,1018.5818 C 286.76147,1019.9645 282.68766,1021.991 278.3004,1023.0943 C 274.82644,1023.9567 271.14922,1025.463 267.56258,1024.3163 C 265.357,1023.8395 264.96316,1020.7978 266.97043,1019.786 C 269.90789,1017.4852 273.71141,1016.0076 275.71238,1012.6926 C 276.57253,1011.0905 277.49877,1008.0196 275.39364,1007.0378 C 273.51162,1007.0518 272.10167,1008.6765 270.5939,1009.632 C 264.92272,1014.0766 259.39545,1018.9054 252.67796,1021.7296 C 247.84685,1023.8065 242.52185,1025.1118 237.24229,1024.6186 C 235.34325,1024.7025 234.24709,1022.5133 235.74895,1021.2054 C 239.32915,1016.8069 244.10415,1013.6177 248.09305,1009.6202 C 249.31089,1008.5117 251.18812,1006.774 249.69594,1005.109 C 247.863,1004.6527 246.20147,1006.3108 244.6757,1007.1393 C 241.37969,1009.436 238.30316,1012.0307 235.33598,1014.7337 C 227.01343,1017.6887 218.6743,1020.5997 210.34273,1023.5274 C 214.57043,1018.6738 219.79497,1014.8097 224.18019,1010.1074 C 225.59476,1009.2782 225.31761,1005.9221 223.30544,1006.5942 C 219.26828,1008.0473 215.72617,1010.5627 211.97254,1012.5956 C 207.27898,1015.3445 202.25636,1018.0734 196.70984,1018.374 C 195.3078,1018.7263 192.48857,1017.5443 194.10998,1016.0224 C 193.88504,1014.4065 195.56074,1013.1165 196.31155,1011.7328 C 198.08774,1009.1227 200.58628,1007.1633 203.21829,1005.4784 C 204.6212,1004.4057 206.41819,1003.6911 207.39408,1002.162 C 207.66932,1001.2812 206.69931,1000.8045 205.96248,1000.8923 z M 435.02468,1009.5062 C 436.59088,1010.7904 436.86508,1013.0285 436.92908,1014.9381 C 437.10238,1016.7286 435.28138,1017.5872 434.28418,1018.7914 C 430.77378,1022.1191 427.20448,1025.6013 422.73798,1027.5992 C 421.08128,1028.7119 418.23308,1028.2228 419.07988,1025.6986 C 419.94088,1022.191 422.53308,1019.4683 424.84658,1016.8235 C 427.60108,1013.6044 431.10518,1011.1084 435.02468,1009.5062 z M 522.29898,1009.5062 C 523.89088,1010.77 524.18078,1013.0257 524.24008,1014.9381 C 524.41338,1016.7289 522.59198,1017.5875 521.59418,1018.7914 C 518.07608,1022.123 514.49328,1025.6035 510.01658,1027.5992 C 508.35398,1028.713 505.53438,1028.222 506.39088,1025.6986 C 507.25188,1022.191 509.84408,1019.4683 512.15708,1016.8235 C 514.91618,1013.6107 518.37778,1011.1093 522.29898,1009.5062 z M 661.43648,1009.5062 C 663.02888,1010.77 663.31878,1013.0257 663.37808,1014.9381 C 663.55138,1016.7289 661.72998,1017.5875 660.73208,1018.7914 C 657.21398,1022.123 653.63118,1025.6035 649.15458,1027.5992 C 647.40858,1028.8027 644.57648,1028.0946 645.56928,1025.5414 C 646.01808,1023.8034 646.96998,1022.0876 648.12168,1020.6043 C 651.21788,1016.6283 654.70098,1012.7283 659.31388,1010.4987 C 660.00898,1010.1409 660.71768,1009.8109 661.43648,1009.5062 z M 480.48398,1010.7224 C 482.53338,1010.4014 483.69208,1013.0938 483.04198,1014.6225 C 478.68968,1018.5462 474.31638,1022.5862 469.12628,1025.3804 C 467.72458,1026.003 465.11618,1027.4412 464.38808,1025.3271 C 463.70608,1023.0537 465.64038,1021.2175 467.05108,1019.7301 C 470.34128,1016.6058 473.91138,1013.7047 477.91638,1011.5514 C 478.72748,1011.1608 479.57848,1010.8025 480.48398,1010.7224 z M 701.85298,1020.7687 C 698.69678,1020.6541 696.21558,1024.6398 697.82918,1027.4103 C 699.21048,1029.9248 703.45668,1030.0668 704.79368,1027.4158 C 706.07398,1025.3681 705.70748,1021.8013 703.09228,1021.0098 C 702.69108,1020.878 702.27308,1020.8052 701.85298,1020.7687 z M 175.26348,1050.5862 C 172.54381,1054.2715 168.98773,1057.2307 165.7706,1060.4678 C 156.60996,1069.1121 147.35014,1077.6524 138.21115,1086.321 C 135.35731,1088.7434 132.53155,1091.3783 129.04172,1092.8503 C 126.59082,1094.042 126.76676,1090.6459 128.16356,1089.57 C 132.76975,1083.3002 138.28907,1077.7574 143.91662,1072.4099 C 151.09377,1065.8631 159.09079,1060.2864 167.2229,1055.0007 C 169.8171,1053.383 172.4422,1051.7808 175.26348,1050.5862 z"
     id="text2418" />
  <g
     id="inkscape-logo"
     transform="matrix(0.4657141,0,0,0.4657141,284.1543,392.3856)">
    <path
       d="M 163.15,27.83 L 28.81,165.3 C -16.58,221.51 59.7,214.97 92.4,231.16 C 104.13,243.15 47.44,252 59.17,264 C 70.9,275.99 130.1,287.1 141.85,299.09 C 153.58,311.08 117.84,323.8 129.57,335.79 C 141.3,347.78 168.43,336.42 173.51,364.1 C 177.13,383.88 222.4,372.6 244.54,356.4 C 256.27,344.4 222.1,345.53 233.83,333.54 C 263,303.71 290.16,322.7 300.14,292.81 C 305.07,278.04 257.2,270.04 268.95,258.05 C 302.7,238.34 419.35,225.51 364,170.16 L 224.75,27.83 C 207.72,11.48 179.3,11.3 163.15,27.83 z M 317.46,292.81 C 317.46,299.63 367.71,304.1 367.71,291.2 C 360.55,270.48 323.4,271.88 317.46,292.81 z M 91.1,329.05 C 103,339.34 121.38,326.49 126.89,312.13 C 115.36,296.81 72.2,312.68 91.1,329.05 z M 311.16,306.82 C 295.82,320.58 312.88,334.54 328,325.65 C 331.37,322.23 327.91,310.24 311.16,306.82 z"
       id="path2313" />
    <path
       d="M 131,238.6 C 134.59,240.83 188.89,251.86 202.16,254.06 C 206.76,255.03 203.5,259.77 197.16,262.97 C 182.86,266.77 113.5,238.6 131,238.6 z"
       id="path2315"
       style="fill:#ffffff" />
    <path
       d="M 216.63,37.47 L 269.78,91.45 C 274.82,96.6 274.75,106.58 271.93,109.45 L 245.54,88.34 L 240.35,119.6 L 218.3,107.96 L 182.99,130.27 L 171.3,83.24 L 152.33,116.06 L 123.33,116.06 C 111.51,116.06 110.12,101.06 120.86,90.32 C 139.62,70.07 161.15,49.43 172.85,37.47 C 184.61,25.45 205.1,25.79 216.63,37.47 z"
       id="path2317"
       style="fill:#ffffff" />
  </g>
</svg>
