<?xml version="1.0" encoding="UTF-8" standalone="no"?>
<!DOCTYPE svg PUBLIC "-//W3C//DTD SVG 20010904//EN"
"http://www.w3.org/TR/2001/REC-SVG-20010904/DTD/svg10.dtd"
[
 <!ATTLIST svg
  xmlns:xlink CDATA #FIXED "http://www.w3.org/1999/xlink">
]>
<!-- Created with Sodipodi ("http://www.sodipodi.com/") -->
<svg
   id="svg472"
   sodipodi:version="0.32pre"
   xmlns="http://www.w3.org/2000/svg"
   xmlns:sodipodi="http://sodipodi.sourceforge.net/DTD/sodipodi-0.dtd"
   xmlns:xlink="http://www.w3.org/1999/xlink"
   width="210mm"
   height="210mm"
   sodipodi:docbase="/home/lauris/cvs/sodipodi/samples"
   sodipodi:docname="/home/lauris/cvs/sodipodi/samples/orav.svg">
  <defs
     id="defs474">
    <linearGradient
       id="linearGradient496">
      <stop
         style="stop-color:#ffff7f;stop-opacity:0.658824;"
         offset="0.000000"
         id="stop497" />
      <stop
         style="stop-color:#ffff7f;stop-opacity:0;"
         offset="1.000000"
         id="stop498" />
    </linearGradient>
    <linearGradient
       id="linearGradient485">
      <stop
         style="stop-color:#ff5200;stop-opacity:1;"
         offset="0.000000"
         id="stop486" />
      <stop
         style="stop-color:#720000;stop-opacity:1;"
         offset="1.000000"
         id="stop487" />
    </linearGradient>
    <linearGradient
       id="linearGradient477">
      <stop
         style="stop-color:#ff8d00;stop-opacity:1;"
         offset="0.000000"
         id="stop478" />
      <stop
         style="stop-color:#ff3f00;stop-opacity:1;"
         offset="1.000000"
         id="stop479" />
    </linearGradient>
    <radialGradient
       xlink:href="#linearGradient477"
       id="radialGradient480"
       cx="0.53846157"
       cy="0.50000000"
       fx="0.53846157"
       fy="0.50000000"
       r="0.66683644"
       gradientUnits="objectBoundingBox"
       spreadMethod="pad" />
    <radialGradient
       xlink:href="#linearGradient485"
       id="radialGradient484"
       cx="0.41860467"
       cy="0.57031250"
       fx="0.20155039"
       fy="0.78906250"
       r="0.43075046"
       gradientUnits="objectBoundingBox"
       spreadMethod="pad" />
    <radialGradient
       xlink:href="#linearGradient496"
       id="radialGradient489"
       cx="0.49386612"
       cy="0.48700377"
       fx="0.49386612"
       fy="0.48700377"
       r="0.71423900"
       gradientUnits="objectBoundingBox"
       spreadMethod="pad" />
  </defs>
  <sodipodi:namedview
     id="base" />
  <path
     sodipodi:type="arc"
     style="fill:url(#radialGradient484);fill-opacity:1;fill-rule:evenodd;stroke:#000000;stroke-opacity:1;stroke-width:5;stroke-linejoin:miter;stroke-linecap:butt;stroke-dasharray:none;"
     id="path476"
     d="M 707.055786 362.613220 A 335.440399 335.440430 0 1 0 36.174988,362.613220 A 335.44 335.44 0 1 0 707.056 362.613 L 371.615387 362.613220 z"
     sodipodi:cx="371.615387"
     sodipodi:cy="362.613220"
     sodipodi:rx="335.440399"
     sodipodi:ry="335.440430"
     transform="translate(0.431824,9.433999)" />
  <path
     d="M 241.283 356.671 C 240.273 355.787 236.241 356.303 234.836 357.545 C 233.11 359.072 233.418 362.887 231.89 364.98 C 230.143 367.375 227.165 368.856 225.011 371.01 C 220.421 375.6 216.62 381.179 211.659 385.211 C 208.857 387.487 205.209 388.879 201.72 389.934 C 195.588 391.788 188.664 391.577 182.796 393.938 C 178.11 395.823 173.628 399.184 170.058 402.672 C 168.29 404.4 166.54 407.285 166.783 409.586 C 167.16 413.146 170.317 416.651 171.919 420.255 C 172.743 422.11 172.524 424.874 174.061 425.963 C 177.605 428.475 182.598 430.327 187.163 431.058 C 194.769 432.277 202.901 432.59 210.575 431.815 C 216.123 431.255 221.999 426.346 226.83 427.054 C 230.207 427.549 231.92 433.338 235.2 435.425 C 240.471 438.778 247.427 440.105 252.482 443.376 C 253.613 444.108 254.424 446.983 253.76 447.434 C 252.788 448.093 249.636 446.949 247.574 446.706 C 240.057 445.821 233.675 440.22 226.466 438.336 C 223 437.43 219.188 438.336 215.549 438.336 C 209.899 438.336 203.587 440.023 199.172 442.703 C 197.129 443.943 195.887 446.521 197.716 447.434 C 200.223 448.685 210.048 445.287 210.59 446.617 C 211.098 447.864 203.009 450.222 201.356 452.529 C 200.669 453.489 201.986 456.43 203.175 456.532 C 206.231 456.794 214.308 452.189 214.791 453.3 C 215.262 454.385 206.906 457.89 205.723 460.171 C 205.208 461.165 207.676 463.612 208.998 463.447 C 212.529 463.006 218.437 457.401 220.28 458.352 C 221.396 458.928 215.058 463.578 214.821 465.63 C 214.694 466.732 216.892 468.48 219.188 467.814 C 224.38 466.308 228.132 460.391 234.473 459.08 C 243.571 457.198 253.328 457.327 262.131 455.076 C 264.245 454.536 266.53 452.566 267.226 450.709 C 267.985 448.684 267.228 445.687 266.498 443.431 C 265.893 441.563 262.42 439.138 263.222 438.336 C 264.482 437.076 269.644 438.058 272.684 437.244 C 276.437 436.238 280.77 435.296 283.602 432.877 C 286.593 430.322 288.998 426.151 290.153 422.323 C 291.303 418.509 289.737 413.921 290.517 409.95 C 291.071 407.128 292.466 404.26 294.156 401.944 C 295.741 399.771 297.987 397.78 300.342 396.485 C 302.839 395.111 308.543 393.26 308.713 393.938 C 308.907 394.716 303.309 398.15 301.434 400.852 C 299.185 404.094 296.89 407.969 296.339 411.77 C 295.799 415.49 296.767 419.978 298.159 423.415 C 298.83 425.073 300.749 426.795 302.526 427.054 C 307.421 427.766 313.227 425.697 318.175 426.327 C 319.899 426.547 320.927 429.22 322.542 429.602 C 324.078 429.966 326.801 429.664 327.627 428.564 C 328.621 427.238 326.933 422.534 328.001 422.323 C 329.484 422.031 332.756 426.321 335.279 427.054 C 336.516 427.413 338.689 426.636 339.282 425.599 C 340.144 424.089 338.599 419.562 339.646 419.412 C 341.146 419.198 344.41 423.48 346.924 424.507 C 347.749 424.844 349.462 424.298 349.664 423.506 C 350.187 421.457 348.133 416.32 349.1 415.986 C 350.211 415.602 353.796 421.212 355.897 421.352 C 357.374 421.451 359.787 418.475 359.832 416.702 C 359.907 413.705 358.191 409.689 356.255 407.043 C 354.614 404.8 348.126 404.177 349.1 402.035 C 352.914 393.649 363.943 384.645 370.618 375.457 C 373.125 372.006 375.266 367.988 376.645 364.116 C 377.036 363.016 376.621 360.638 375.929 360.539 C 374.951 360.4 372.781 362.14 371.637 363.401 C 368.13 367.267 362.475 376.639 361.978 375.921 C 361.401 375.088 366.826 364.61 368.417 358.75 C 369.449 354.951 370.117 350.629 369.848 346.945 C 369.767 345.842 367.827 343.661 367.367 344.388 C 365.561 347.238 364.915 353.447 363.051 357.677 C 361.807 360.5 358.452 366.457 358.043 365.547 C 357.379 364.072 359.832 355.538 359.832 350.523 C 359.832 344.21 359.662 337.182 358.043 331.563 C 357.635 330.147 354.861 328.633 352.992 328.912 C 351.26 329.171 354.746 347.628 352.256 352.316 C 351.849 353.082 350.321 352.562 350.141 351.488 C 349.828 349.63 349.07 336.327 346.447 329.861 C 345.765 328.179 342.672 319.657 339.552 318.506 C 337.923 317.905 337.199 318.141 336.76 319.348 C 336.162 320.992 343.002 339.29 342.579 341.818 C 342.207 343.362 341.711 343.561 340.106 341.993 C 335.851 333.43 331.48 320.419 320.46 310.807 C 318.569 309.593 316.88 309.096 315.798 310.852 C 315.49 312.374 315.601 313.997 317.215 316.051 C 318.27 317.394 325.521 325.584 326.263 330.261 C 326.704 331.837 325.621 331.444 324.065 329.697 C 317.377 323.101 309.332 314.062 299.574 308.772 C 296.023 307.507 295.625 310.189 295.599 311.873 C 303.373 320.121 311.716 323.2 312.994 327.759 C 312.609 328.663 311.291 328.927 309.393 327.977 C 301.783 321.611 287.269 310.129 284.807 309.848 C 283.915 309.746 279.933 310.785 283.034 313.139 C 287.386 317.437 299.201 324.392 300.625 327.181 C 300.492 328.365 299.194 329.083 297.766 328.253 C 294.136 324.988 290.858 321.512 285.473 319.524 C 278.417 316.921 271.913 311.995 267.794 311.714 C 265.58 312.777 265.413 314.45 266.645 316.876 C 271.433 319.3 277.621 321.056 284.458 325.725 C 285.23 327.829 284.075 328.174 282.87 327.646 C 271.716 322.762 264.287 318.8 255.365 317.555 C 252.897 317.933 252.402 319.79 253.967 320.702 C 257.374 322.685 265.03 325.238 270.543 326.632 C 272.087 327.714 272.087 329.571 270.173 329.593 C 258.468 325.114 248.935 323.133 238.162 322.493 C 237.669 323.505 237.017 325.574 237.991 326.046 C 243.735 328.828 256.611 329.447 261.206 332.279 C 261.068 333.533 258.968 334.179 257.702 333.926 C 248.316 332.047 237.421 331.428 218.122 331.856 C 215.631 331.8 215.734 334.534 217.479 336.226 C 230.116 336.504 236.059 336.504 244.476 337.764 C 245.716 338.98 246.817 339.391 244.965 340.379 C 235.055 339.868 216.141 341.14 212.291 341.822 C 208.44 342.505 205.81 343.206 203.871 344.353 C 201.933 345.501 201.201 346.861 205.54 348.196 C 211.214 347.497 225.996 345.431 228.89 345.935 C 231.784 346.439 232.83 347.179 230.492 348.679 C 220.909 349.405 204.221 354.65 198.513 356.952 C 197.097 358.619 198.817 360.372 200.867 360.539 C 211.532 358.146 228.698 354.65 240.46 351.917 C 252.222 349.184 272.849 341.291 280.893 339.308 C 288.937 337.325 309.122 334.623 319.235 338.04 C 335.03 344.001 342.818 353.696 346.097 359.055 C 349.335 363.391 353.944 374.041 352.781 382.269 C 351.56 383.736 349.653 383.259 347.227 381.14 C 345.043 372.133 341.547 358.623 330.715 351.576 C 323.247 346.717 316.434 344.318 305.157 343.055 C 293.288 341.724 280.99 345.749 274.935 348.121 C 266.519 351.417 258.738 357.511 254.124 361.389 C 249.716 366.657 246.022 371.021 241.731 377.957 C 240.525 378.905 237.916 377.219 238.84 373.399 C 238.482 369.958 240.131 366.29 240.659 362.64 C 240.945 360.661 242.214 357.486 241.283 356.671 z M 230.597 407.532 C 230.597 414 225.832 418.878 214.361 418.878 C 202.89 418.878 191.276 411.302 191.354 408.181 C 191.432 405.085 198.944 397.851 210.744 396 C 223.59 393.986 230.597 401.064 230.597 407.532 z M 219.563 405.677 C 218.513 410.464 219.533 412.504 210.002 411.736 C 204.89 411.325 201.355 410.186 202.11 407.068 C 202.879 403.893 202.141 401.847 210.373 400.731 C 216.565 399.891 220.264 402.482 219.563 405.677 z M 181.721 409.201 C 182.416 410.953 181.121 411.769 177.727 410.902 C 174.923 410.186 173.528 410.091 173.454 408.552 C 173.346 406.29 176.407 405.827 178.376 405.738 C 181.619 405.592 181.044 407.496 181.721 409.201 z M 197.514 424.239 C 198.217 425.029 197.646 426.613 189.556 424.444 C 183.88 423.914 180.765 423.911 181.602 422.205 C 182.141 421.103 185.306 420.428 189.857 421.694 C 194.921 423.175 196.981 423.65 197.514 424.239 z M 339.037 373.916 C 337.8 375.375 330.636 368.61 326.911 364.1 C 320.146 355.91 305.431 354.415 291.762 358.274 C 278.818 361.929 263.793 373.831 257.29 380.86 C 249.846 388.907 252.399 392.697 247.63 390.009 C 245.203 388.642 248.254 379.886 253.786 373.25 C 259.994 365.805 277.222 351.355 290.527 349.587 C 309.324 347.088 318.826 351.35 326.724 357.551 C 332.361 361.977 338.794 372.533 339.037 373.916 z M 341.865 398.22 C 336.738 406.152 331.971 405.125 328.693 406.598 C 325.414 408.071 319.36 413.714 317.648 411.759 C 317.007 410.867 317.084 409.931 320.233 408.269 C 323.738 406.418 328.613 402.158 332.971 399.021 C 337.329 395.884 336.23 389.822 339.508 388.349 C 342.786 386.876 343.901 395.071 341.865 398.22 z M 311.294 379.613 C 317.502 387.315 307.155 384.662 300.263 390.074 C 297.543 392.21 290.749 392.316 286.262 401.824 C 282.215 410.397 284.868 417.959 277.003 429.549 C 275.175 432.243 259.53 432.949 255.433 429.408 C 254.49 426.98 267.225 424.592 273.495 414.835 C 275.253 412.098 278.103 405.887 279.536 397.115 C 280.888 390.764 291.528 382.277 295.428 380.931 C 299.991 379.355 306.757 377.498 311.294 379.613 z "
     transform="matrix(2.909374,0.000000,0.000000,2.909374,-415.0860,-751.9644)"
     id="path481"
     style="fill:#000000;stroke-width:1px;stroke:none;stroke-opacity:1;stroke-linecap:butt;stroke-linejoin:miter;fill-opacity:1;fill-rule:evenodd;"
     sodipodi:nodetypes="ccccccccccccccccccccccccccccccccccccccccccccccccccccccccccccccccccccccccccccccccccccccccccccccccccccccccccccccccccccccccccccccccccccccccccccccccccccccccccccccccccccccccccccccccc" />
  <path
     d="M 241.283 356.671 C 240.273 355.787 236.241 356.303 234.836 357.545 C 233.11 359.072 233.418 362.887 231.89 364.98 C 230.143 367.375 227.165 368.856 225.011 371.01 C 220.421 375.6 216.62 381.179 211.659 385.211 C 208.857 387.487 205.209 388.879 201.72 389.934 C 195.588 391.788 188.664 391.577 182.796 393.938 C 178.11 395.823 173.628 399.184 170.058 402.672 C 168.29 404.4 166.54 407.285 166.783 409.586 C 167.16 413.146 170.317 416.651 171.919 420.255 C 172.743 422.11 172.524 424.874 174.061 425.963 C 177.605 428.475 182.598 430.327 187.163 431.058 C 194.769 432.277 202.901 432.59 210.575 431.815 C 216.123 431.255 221.999 426.346 226.83 427.054 C 230.207 427.549 231.92 433.338 235.2 435.425 C 240.471 438.778 247.427 440.105 252.482 443.376 C 253.613 444.108 254.424 446.983 253.76 447.434 C 252.788 448.093 249.636 446.949 247.574 446.706 C 240.057 445.821 233.675 440.22 226.466 438.336 C 223 437.43 219.188 438.336 215.549 438.336 C 209.899 438.336 203.587 440.023 199.172 442.703 C 197.129 443.943 195.887 446.521 197.716 447.434 C 200.223 448.685 210.048 445.287 210.59 446.617 C 211.098 447.864 203.009 450.222 201.356 452.529 C 200.669 453.489 201.986 456.43 203.175 456.532 C 206.231 456.794 214.308 452.189 214.791 453.3 C 215.262 454.385 206.906 457.89 205.723 460.171 C 205.208 461.165 207.676 463.612 208.998 463.447 C 212.529 463.006 218.437 457.401 220.28 458.352 C 221.396 458.928 215.058 463.578 214.821 465.63 C 214.694 466.732 216.892 468.48 219.188 467.814 C 224.38 466.308 228.132 460.391 234.473 459.08 C 243.571 457.198 253.328 457.327 262.131 455.076 C 264.245 454.536 266.53 452.566 267.226 450.709 C 267.985 448.684 267.228 445.687 266.498 443.431 C 265.893 441.563 262.42 439.138 263.222 438.336 C 264.482 437.076 269.644 438.058 272.684 437.244 C 276.437 436.238 280.77 435.296 283.602 432.877 C 286.593 430.322 288.998 426.151 290.153 422.323 C 291.303 418.509 289.737 413.921 290.517 409.95 C 291.071 407.128 292.466 404.26 294.156 401.944 C 295.741 399.771 297.987 397.78 300.342 396.485 C 302.839 395.111 308.543 393.26 308.713 393.938 C 308.907 394.716 303.309 398.15 301.434 400.852 C 299.185 404.094 296.89 407.969 296.339 411.77 C 295.799 415.49 296.767 419.978 298.159 423.415 C 298.83 425.073 300.749 426.795 302.526 427.054 C 307.421 427.766 313.227 425.697 318.175 426.327 C 319.899 426.547 320.927 429.22 322.542 429.602 C 324.078 429.966 326.801 429.664 327.627 428.564 C 328.621 427.238 326.933 422.534 328.001 422.323 C 329.484 422.031 332.756 426.321 335.279 427.054 C 336.516 427.413 338.689 426.636 339.282 425.599 C 340.144 424.089 338.599 419.562 339.646 419.412 C 341.146 419.198 344.41 423.48 346.924 424.507 C 347.749 424.844 349.462 424.298 349.664 423.506 C 350.187 421.457 348.133 416.32 349.1 415.986 C 350.211 415.602 353.796 421.212 355.897 421.352 C 357.374 421.451 359.787 418.475 359.832 416.702 C 359.907 413.705 358.191 409.689 356.255 407.043 C 354.614 404.8 348.126 404.177 349.1 402.035 C 352.914 393.649 363.943 384.645 370.618 375.457 C 373.125 372.006 375.266 367.988 376.645 364.116 C 377.036 363.016 376.621 360.638 375.929 360.539 C 374.951 360.4 372.781 362.14 371.637 363.401 C 368.13 367.267 362.475 376.639 361.978 375.921 C 361.401 375.088 366.826 364.61 368.417 358.75 C 369.449 354.951 370.117 350.629 369.848 346.945 C 369.767 345.842 367.827 343.661 367.367 344.388 C 365.561 347.238 364.915 353.447 363.051 357.677 C 361.807 360.5 358.452 366.457 358.043 365.547 C 357.379 364.072 359.832 355.538 359.832 350.523 C 359.832 344.21 359.662 337.182 358.043 331.563 C 357.635 330.147 354.861 328.633 352.992 328.912 C 351.26 329.171 354.746 347.628 352.256 352.316 C 351.849 353.082 350.321 352.562 350.141 351.488 C 349.828 349.63 349.07 336.327 346.447 329.861 C 345.765 328.179 342.672 319.657 339.552 318.506 C 337.923 317.905 337.199 318.141 336.76 319.348 C 336.162 320.992 343.002 339.29 342.579 341.818 C 342.207 343.362 341.711 343.561 340.106 341.993 C 335.851 333.43 331.48 320.419 320.46 310.807 C 318.569 309.593 316.88 309.096 315.798 310.852 C 315.49 312.374 315.601 313.997 317.215 316.051 C 318.27 317.394 325.521 325.584 326.263 330.261 C 326.704 331.837 325.621 331.444 324.065 329.697 C 317.377 323.101 309.332 314.062 299.574 308.772 C 296.023 307.507 295.625 310.189 295.599 311.873 C 303.373 320.121 311.716 323.2 312.994 327.759 C 312.609 328.663 311.291 328.927 309.393 327.977 C 301.783 321.611 287.269 310.129 284.807 309.848 C 283.915 309.746 279.933 310.785 283.034 313.139 C 287.386 317.437 299.201 324.392 300.625 327.181 C 300.492 328.365 299.194 329.083 297.766 328.253 C 294.136 324.988 290.858 321.512 285.473 319.524 C 278.417 316.921 271.913 311.995 267.794 311.714 C 265.58 312.777 265.413 314.45 266.645 316.876 C 271.433 319.3 277.621 321.056 284.458 325.725 C 285.23 327.829 284.075 328.174 282.87 327.646 C 271.716 322.762 264.287 318.8 255.365 317.555 C 252.897 317.933 252.402 319.79 253.967 320.702 C 257.374 322.685 265.03 325.238 270.543 326.632 C 272.087 327.714 272.087 329.571 270.173 329.593 C 258.468 325.114 248.935 323.133 238.162 322.493 C 237.669 323.505 237.017 325.574 237.991 326.046 C 243.735 328.828 256.611 329.447 261.206 332.279 C 261.068 333.533 258.968 334.179 257.702 333.926 C 248.316 332.047 237.421 331.428 218.122 331.856 C 215.631 331.8 215.734 334.534 217.479 336.226 C 230.116 336.504 236.059 336.504 244.476 337.764 C 245.716 338.98 246.817 339.391 244.965 340.379 C 235.055 339.868 216.141 341.14 212.291 341.822 C 208.44 342.505 205.81 343.206 203.871 344.353 C 201.933 345.501 201.201 346.861 205.54 348.196 C 211.214 347.497 225.996 345.431 228.89 345.935 C 231.784 346.439 232.83 347.179 230.492 348.679 C 220.909 349.405 204.221 354.65 198.513 356.952 C 197.097 358.619 198.817 360.372 200.867 360.539 C 211.532 358.146 228.698 354.65 240.46 351.917 C 252.222 349.184 272.849 341.291 280.893 339.308 C 288.937 337.325 309.122 334.623 319.235 338.04 C 335.03 344.001 342.818 353.696 346.097 359.055 C 349.335 363.391 353.944 374.041 352.781 382.269 C 351.56 383.736 349.653 383.259 347.227 381.14 C 345.043 372.133 341.547 358.623 330.715 351.576 C 323.247 346.717 316.434 344.318 305.157 343.055 C 293.288 341.724 280.99 345.749 274.935 348.121 C 266.519 351.417 258.738 357.511 254.124 361.389 C 249.716 366.657 246.022 371.021 241.731 377.957 C 240.525 378.905 237.916 377.219 238.84 373.399 C 238.482 369.958 240.131 366.29 240.659 362.64 C 240.945 360.661 242.214 357.486 241.283 356.671 z M 230.597 407.532 C 230.597 414 225.832 418.878 214.361 418.878 C 202.89 418.878 191.276 411.302 191.354 408.181 C 191.432 405.085 198.944 397.851 210.744 396 C 223.59 393.986 230.597 401.064 230.597 407.532 z M 219.563 405.677 C 218.513 410.464 219.533 412.504 210.002 411.736 C 204.89 411.325 201.355 410.186 202.11 407.068 C 202.879 403.893 202.141 401.847 210.373 400.731 C 216.565 399.891 220.264 402.482 219.563 405.677 z M 181.721 409.201 C 182.416 410.953 181.121 411.769 177.727 410.902 C 174.923 410.186 173.528 410.091 173.454 408.552 C 173.346 406.29 176.407 405.827 178.376 405.738 C 181.619 405.592 181.044 407.496 181.721 409.201 z M 197.514 424.239 C 198.217 425.029 197.646 426.613 189.556 424.444 C 183.88 423.914 180.765 423.911 181.602 422.205 C 182.141 421.103 185.306 420.428 189.857 421.694 C 194.921 423.175 196.981 423.65 197.514 424.239 z M 339.037 373.916 C 337.8 375.375 330.636 368.61 326.911 364.1 C 320.146 355.91 305.431 354.415 291.762 358.274 C 278.818 361.929 263.793 373.831 257.29 380.86 C 249.846 388.907 252.399 392.697 247.63 390.009 C 245.203 388.642 248.254 379.886 253.786 373.25 C 259.994 365.805 277.222 351.355 290.527 349.587 C 309.324 347.088 318.826 351.35 326.724 357.551 C 332.361 361.977 338.794 372.533 339.037 373.916 z M 341.865 398.22 C 336.738 406.152 331.971 405.125 328.693 406.598 C 325.414 408.071 319.36 413.714 317.648 411.759 C 317.007 410.867 317.084 409.931 320.233 408.269 C 323.738 406.418 328.613 402.158 332.971 399.021 C 337.329 395.884 336.23 389.822 339.508 388.349 C 342.786 386.876 343.901 395.071 341.865 398.22 z M 311.294 379.613 C 317.502 387.315 307.155 384.662 300.263 390.074 C 297.543 392.21 290.749 392.316 286.262 401.824 C 282.215 410.397 284.868 417.959 277.003 429.549 C 275.175 432.243 259.53 432.949 255.433 429.408 C 254.49 426.98 267.225 424.592 273.495 414.835 C 275.253 412.098 278.103 405.887 279.536 397.115 C 280.888 390.764 291.528 382.277 295.428 380.931 C 299.991 379.355 306.757 377.498 311.294 379.613 z "
     transform="matrix(2.909374,0.000000,0.000000,2.909374,-424.3871,-756.6150)"
     id="path482"
     style="fill:#000000;stroke-width:1px;stroke:none;stroke-opacity:1;stroke-linecap:butt;stroke-linejoin:miter;fill-opacity:1;fill-rule:evenodd;"
     sodipodi:nodetypes="ccccccccccccccccccccccccccccccccccccccccccccccccccccccccccccccccccccccccccccccccccccccccccccccccccccccccccccccccccccccccccccccccccccccccccccccccccccccccccccccccccccccccccccccccc" />
  <path
     d="M 241.283 356.671 C 240.273 355.787 236.241 356.303 234.836 357.545 C 233.11 359.072 233.418 362.887 231.89 364.98 C 230.143 367.375 227.165 368.856 225.011 371.01 C 220.421 375.6 216.62 381.179 211.659 385.211 C 208.857 387.487 205.209 388.879 201.72 389.934 C 195.588 391.788 188.664 391.577 182.796 393.938 C 178.11 395.823 173.628 399.184 170.058 402.672 C 168.29 404.4 166.54 407.285 166.783 409.586 C 167.16 413.146 170.317 416.651 171.919 420.255 C 172.743 422.11 172.524 424.874 174.061 425.963 C 177.605 428.475 182.598 430.327 187.163 431.058 C 194.769 432.277 202.901 432.59 210.575 431.815 C 216.123 431.255 221.999 426.346 226.83 427.054 C 230.207 427.549 231.92 433.338 235.2 435.425 C 240.471 438.778 247.427 440.105 252.482 443.376 C 253.613 444.108 254.424 446.983 253.76 447.434 C 252.788 448.093 249.636 446.949 247.574 446.706 C 240.057 445.821 233.675 440.22 226.466 438.336 C 223 437.43 219.188 438.336 215.549 438.336 C 209.899 438.336 203.587 440.023 199.172 442.703 C 197.129 443.943 195.887 446.521 197.716 447.434 C 200.223 448.685 210.048 445.287 210.59 446.617 C 211.098 447.864 203.009 450.222 201.356 452.529 C 200.669 453.489 201.986 456.43 203.175 456.532 C 206.231 456.794 214.308 452.189 214.791 453.3 C 215.262 454.385 206.906 457.89 205.723 460.171 C 205.208 461.165 207.676 463.612 208.998 463.447 C 212.529 463.006 218.437 457.401 220.28 458.352 C 221.396 458.928 215.058 463.578 214.821 465.63 C 214.694 466.732 216.892 468.48 219.188 467.814 C 224.38 466.308 228.132 460.391 234.473 459.08 C 243.571 457.198 253.328 457.327 262.131 455.076 C 264.245 454.536 266.53 452.566 267.226 450.709 C 267.985 448.684 267.228 445.687 266.498 443.431 C 265.893 441.563 262.42 439.138 263.222 438.336 C 264.482 437.076 269.644 438.058 272.684 437.244 C 276.437 436.238 280.77 435.296 283.602 432.877 C 286.593 430.322 288.998 426.151 290.153 422.323 C 291.303 418.509 289.737 413.921 290.517 409.95 C 291.071 407.128 292.466 404.26 294.156 401.944 C 295.741 399.771 297.987 397.78 300.342 396.485 C 302.839 395.111 308.543 393.26 308.713 393.938 C 308.907 394.716 303.309 398.15 301.434 400.852 C 299.185 404.094 296.89 407.969 296.339 411.77 C 295.799 415.49 296.767 419.978 298.159 423.415 C 298.83 425.073 300.749 426.795 302.526 427.054 C 307.421 427.766 313.227 425.697 318.175 426.327 C 319.899 426.547 320.927 429.22 322.542 429.602 C 324.078 429.966 326.801 429.664 327.627 428.564 C 328.621 427.238 326.933 422.534 328.001 422.323 C 329.484 422.031 332.756 426.321 335.279 427.054 C 336.516 427.413 338.689 426.636 339.282 425.599 C 340.144 424.089 338.599 419.562 339.646 419.412 C 341.146 419.198 344.41 423.48 346.924 424.507 C 347.749 424.844 349.462 424.298 349.664 423.506 C 350.187 421.457 348.133 416.32 349.1 415.986 C 350.211 415.602 353.796 421.212 355.897 421.352 C 357.374 421.451 359.787 418.475 359.832 416.702 C 359.907 413.705 358.191 409.689 356.255 407.043 C 354.614 404.8 348.126 404.177 349.1 402.035 C 352.914 393.649 363.943 384.645 370.618 375.457 C 373.125 372.006 375.266 367.988 376.645 364.116 C 377.036 363.016 376.621 360.638 375.929 360.539 C 374.951 360.4 372.781 362.14 371.637 363.401 C 368.13 367.267 362.475 376.639 361.978 375.921 C 361.401 375.088 366.826 364.61 368.417 358.75 C 369.449 354.951 370.117 350.629 369.848 346.945 C 369.767 345.842 367.827 343.661 367.367 344.388 C 365.561 347.238 364.915 353.447 363.051 357.677 C 361.807 360.5 358.452 366.457 358.043 365.547 C 357.379 364.072 359.832 355.538 359.832 350.523 C 359.832 344.21 359.662 337.182 358.043 331.563 C 357.635 330.147 354.861 328.633 352.992 328.912 C 351.26 329.171 354.746 347.628 352.256 352.316 C 351.849 353.082 350.321 352.562 350.141 351.488 C 349.828 349.63 349.07 336.327 346.447 329.861 C 345.765 328.179 342.672 319.657 339.552 318.506 C 337.923 317.905 337.199 318.141 336.76 319.348 C 336.162 320.992 343.002 339.29 342.579 341.818 C 342.207 343.362 341.711 343.561 340.106 341.993 C 335.851 333.43 331.48 320.419 320.46 310.807 C 318.569 309.593 316.88 309.096 315.798 310.852 C 315.49 312.374 315.601 313.997 317.215 316.051 C 318.27 317.394 325.521 325.584 326.263 330.261 C 326.704 331.837 325.621 331.444 324.065 329.697 C 317.377 323.101 309.332 314.062 299.574 308.772 C 296.023 307.507 295.625 310.189 295.599 311.873 C 303.373 320.121 311.716 323.2 312.994 327.759 C 312.609 328.663 311.291 328.927 309.393 327.977 C 301.783 321.611 287.269 310.129 284.807 309.848 C 283.915 309.746 279.933 310.785 283.034 313.139 C 287.386 317.437 299.201 324.392 300.625 327.181 C 300.492 328.365 299.194 329.083 297.766 328.253 C 294.136 324.988 290.858 321.512 285.473 319.524 C 278.417 316.921 271.913 311.995 267.794 311.714 C 265.58 312.777 265.413 314.45 266.645 316.876 C 271.433 319.3 277.621 321.056 284.458 325.725 C 285.23 327.829 284.075 328.174 282.87 327.646 C 271.716 322.762 264.287 318.8 255.365 317.555 C 252.897 317.933 252.402 319.79 253.967 320.702 C 257.374 322.685 265.03 325.238 270.543 326.632 C 272.087 327.714 272.087 329.571 270.173 329.593 C 258.468 325.114 248.935 323.133 238.162 322.493 C 237.669 323.505 237.017 325.574 237.991 326.046 C 243.735 328.828 256.611 329.447 261.206 332.279 C 261.068 333.533 258.968 334.179 257.702 333.926 C 248.316 332.047 237.421 331.428 218.122 331.856 C 215.631 331.8 215.734 334.534 217.479 336.226 C 230.116 336.504 236.059 336.504 244.476 337.764 C 245.716 338.98 246.817 339.391 244.965 340.379 C 235.055 339.868 216.141 341.14 212.291 341.822 C 208.44 342.505 205.81 343.206 203.871 344.353 C 201.933 345.501 201.201 346.861 205.54 348.196 C 211.214 347.497 225.996 345.431 228.89 345.935 C 231.784 346.439 232.83 347.179 230.492 348.679 C 220.909 349.405 204.221 354.65 198.513 356.952 C 197.097 358.619 198.817 360.372 200.867 360.539 C 211.532 358.146 228.698 354.65 240.46 351.917 C 252.222 349.184 272.849 341.291 280.893 339.308 C 288.937 337.325 309.122 334.623 319.235 338.04 C 335.03 344.001 342.818 353.696 346.097 359.055 C 349.335 363.391 353.944 374.041 352.781 382.269 C 351.56 383.736 349.653 383.259 347.227 381.14 C 345.043 372.133 341.547 358.623 330.715 351.576 C 323.247 346.717 316.434 344.318 305.157 343.055 C 293.288 341.724 280.99 345.749 274.935 348.121 C 266.519 351.417 258.738 357.511 254.124 361.389 C 249.716 366.657 246.022 371.021 241.731 377.957 C 240.525 378.905 237.916 377.219 238.84 373.399 C 238.482 369.958 240.131 366.29 240.659 362.64 C 240.945 360.661 242.214 357.486 241.283 356.671 z M 230.597 407.532 C 230.597 414 225.832 418.878 214.361 418.878 C 202.89 418.878 191.276 411.302 191.354 408.181 C 191.432 405.085 198.944 397.851 210.744 396 C 223.59 393.986 230.597 401.064 230.597 407.532 z M 219.563 405.677 C 218.513 410.464 219.533 412.504 210.002 411.736 C 204.89 411.325 201.355 410.186 202.11 407.068 C 202.879 403.893 202.141 401.847 210.373 400.731 C 216.565 399.891 220.264 402.482 219.563 405.677 z M 181.721 409.201 C 182.416 410.953 181.121 411.769 177.727 410.902 C 174.923 410.186 173.528 410.091 173.454 408.552 C 173.346 406.29 176.407 405.827 178.376 405.738 C 181.619 405.592 181.044 407.496 181.721 409.201 z M 197.514 424.239 C 198.217 425.029 197.646 426.613 189.556 424.444 C 183.88 423.914 180.765 423.911 181.602 422.205 C 182.141 421.103 185.306 420.428 189.857 421.694 C 194.921 423.175 196.981 423.65 197.514 424.239 z M 339.037 373.916 C 337.8 375.375 330.636 368.61 326.911 364.1 C 320.146 355.91 305.431 354.415 291.762 358.274 C 278.818 361.929 263.793 373.831 257.29 380.86 C 249.846 388.907 252.399 392.697 247.63 390.009 C 245.203 388.642 248.254 379.886 253.786 373.25 C 259.994 365.805 277.222 351.355 290.527 349.587 C 309.324 347.088 318.826 351.35 326.724 357.551 C 332.361 361.977 338.794 372.533 339.037 373.916 z M 341.865 398.22 C 336.738 406.152 331.971 405.125 328.693 406.598 C 325.414 408.071 319.36 413.714 317.648 411.759 C 317.007 410.867 317.084 409.931 320.233 408.269 C 323.738 406.418 328.613 402.158 332.971 399.021 C 337.329 395.884 336.23 389.822 339.508 388.349 C 342.786 386.876 343.901 395.071 341.865 398.22 z M 311.294 379.613 C 317.502 387.315 307.155 384.662 300.263 390.074 C 297.543 392.21 290.749 392.316 286.262 401.824 C 282.215 410.397 284.868 417.959 277.003 429.549 C 275.175 432.243 259.53 432.949 255.433 429.408 C 254.49 426.98 267.225 424.592 273.495 414.835 C 275.253 412.098 278.103 405.887 279.536 397.115 C 280.888 390.764 291.528 382.277 295.428 380.931 C 299.991 379.355 306.757 377.498 311.294 379.613 z "
     transform="matrix(2.909374,0.000000,0.000000,2.909375,-418.6571,-757.3790)"
     id="path11"
     style="fill:url(#radialGradient480);stroke-width:1px;stroke:#000000;stroke-opacity:1;stroke-linecap:butt;stroke-linejoin:miter;fill-opacity:1;fill-rule:evenodd;"
     sodipodi:nodetypes="ccccccccccccccccccccccccccccccccccccccccccccccccccccccccccccccccccccccccccccccccccccccccccccccccccccccccccccccccccccccccccccccccccccccccccccccccccccccccccccccccccccccccccccccccc" />
  <path
     transform="matrix(-0.453615,-0.548101,-0.382548,0.295668,805.0790,363.5971)"
     style="font-size:12;fill:#ffff81;fill-opacity:0.33;fill-rule:evenodd;stroke-width:5;"
     d="M 745.99 395.466 C 745.99 580.629 552.068 618.541 366.905 618.541 C 181.742 618.541 -9.22319 589.451 -9.22319 404.288 C -9.22314 219.125 214.563 24.2319 371.615 27.1728 C 556.664 31.2713 745.99 210.303 745.99 395.466 z "
     id="path495"
     sodipodi:nodetypes="cscsc" />
</svg>
