<?xml version="1.0" encoding="UTF-8" standalone="no"?>
<!-- Created with Inkscape (http://www.inkscape.org/) -->
<svg
   xmlns:dc="http://purl.org/dc/elements/1.1/"
   xmlns:cc="http://creativecommons.org/ns#"
   xmlns:rdf="http://www.w3.org/1999/02/22-rdf-syntax-ns#"
   xmlns:svg="http://www.w3.org/2000/svg"
   xmlns="http://www.w3.org/2000/svg"
   xmlns:sodipodi="http://sodipodi.sourceforge.net/DTD/sodipodi-0.dtd"
   xmlns:inkscape="http://www.inkscape.org/namespaces/inkscape"
   width="744.09448819"
   height="1052.3622047"
   id="svg2385"
   sodipodi:version="0.32"
   inkscape:version="0.46dev+devel"
   sodipodi:docname="patterns.svg"
   inkscape:output_extension="org.inkscape.output.svg.inkscape">
  <defs
     id="defs2387">
    <pattern
       patternUnits="userSpaceOnUse"
       width="375"
       height="400"
       patternTransform="translate(-60.357157,80.93362)"
       id="Camoflage1"
       inkscape:stockid="Camoflage1">
      <g
         id="g3410"
         transform="translate(-86.78572,-269.50504)">
        <path
           style="fill:#344a33;fill-opacity:1;fill-rule:evenodd;stroke:none;stroke-width:2;stroke-linecap:round;stroke-linejoin:round;marker:none;marker-start:none;marker-mid:none;marker-end:none;stroke-miterlimit:4;stroke-dashoffset:0;stroke-opacity:1;visibility:visible;display:inline;overflow:visible;enable-background:accumulate"
           d="M 86.785721,269.50504 C 211.78572,269.50504 336.78571,269.50504 461.78571,269.50504 C 461.78571,402.83838 461.78571,536.17172 461.78571,669.50507 C 336.78571,669.50507 211.78572,669.50507 86.785721,669.50507 C 86.785721,536.17172 86.785721,402.83838 86.785721,269.50504 z"
           id="rect5504" />
        <g
           style="fill:#463a28;fill-opacity:1"
           id="g5707"
           transform="matrix(0.5,0,0,0.5,161.78572,352.00504)">
          <path
             style="fill:#463a28;fill-opacity:1;fill-rule:evenodd;stroke:none;stroke-width:2;stroke-linecap:round;stroke-linejoin:round;marker:none;marker-start:none;marker-mid:none;marker-end:none;stroke-miterlimit:4;stroke-dasharray:none;stroke-dashoffset:0;stroke-opacity:1;visibility:visible;display:inline;overflow:visible;enable-background:accumulate"
             d="M 600,178.3125 C 560.9718,190.23609 519.23142,189.943 479.2324,183.58137 C 455.91863,186.85335 438.6287,213.0562 412.9531,203.14395 C 384.72342,200.46079 356.54175,204.91806 328.40625,206.6875 C 309.80679,190.51798 275.5331,228.01818 306.60363,234.35438 C 327.21041,236.13274 348.99205,229.34166 368.6202,238.96286 C 383.03721,247.89498 390.80821,258.69348 408.52975,259.35075 C 420.65658,274.33253 386.67568,270.06237 378.49429,268.50292 C 357.20754,270.43447 385.06038,292.40177 395.89413,290.84821 C 424.57955,294.51758 449.80997,275.99395 477.40519,272.72187 C 495.59025,279.79965 463.28266,296.42853 453.10542,296.25027 C 438.77812,294.52412 418.70378,307.5854 439.24681,316.57961 C 457.03328,324.06187 485.20136,315.6769 493.52515,338.09849 C 485.05706,361.17371 449.06479,351.39653 431.3372,343.36946 C 413.3336,329.69129 390.44245,339.2216 375.76725,353.01286 C 362.30454,365.82569 347.05144,376.83253 329.96393,383.66916 C 312.79055,403.57697 345.99784,415.97253 357.26514,402.87028 C 362.16172,424.28058 326.75116,414.47611 324.65875,431.46397 C 341.97433,441.26615 373.47349,430.48774 380.50227,454.94005 C 378.50896,479.29656 348.43538,488.1591 329.17533,477.22535 C 300.59871,468.45477 269.93813,460.27341 240.21428,468.49495 C 224.26176,471.40112 206.54703,476.88729 191.78629,467.16252 C 172.25055,457.59685 155.90526,442.9903 138,430.875 C 124.82435,404.14389 96.097731,387.06068 66.77564,384.89384 C 46.983492,374.55582 15.716311,362.52951 -2.282448,380.95695 C -5.6298787,405.02891 31.60324,403.21984 46.194987,414.65601 C 67.224691,420.95286 69.502363,454.05149 42.915406,450.3716 C 12.992072,451.16256 -21.439268,452.42079 -45.709807,431.77421 C -57.746848,419.46719 -61.574015,401.73579 -71.239048,387.69557 C -88.819336,367.48362 -61.456973,351.68466 -42.52683,355.29267 C -16.517643,355.02567 -17.113346,321.14423 -10.032761,303.6493 C -25.652075,288.65287 -40.742762,321.49828 -56.006286,324.40349 C -78.301507,322.32683 -83.577925,292.54331 -82.521738,274.14543 C -80.525803,250.6224 -107.32356,242.23529 -114.75183,221.64385 C -125.66217,204.22344 -139.46065,220.00407 -131.81122,234.93249 C -120.79306,259.93733 -133.28408,286.85898 -127.92893,312.71526 C -124.86763,334.36768 -91.797898,344.01882 -99.659635,368.31744 C -111.9451,383.16468 -125.62248,410.58051 -150,399.78125 C -150,424.25 -150,448.71875 -150,473.1875 C -125.30269,478.55314 -132.23089,508.53743 -136.68285,526.11838 C -138.43501,548.92086 -115.87089,560.38278 -97.390118,566.07493 C -79.986174,572.02017 -63.202237,582.32233 -55.644919,599.77715 C -37.724139,622.34618 -5.8980426,618.23531 19.446005,623.42603 C 38.438078,629.09079 57.258014,637.08858 77.557095,634.88882 C 128.37087,635.23606 179.18578,634.85598 230,635 C 205.84063,620.83122 176.50197,628.46778 150.73537,620.05795 C 174.60283,613.03718 202.17526,628.03641 223.8125,611.9375 C 248.78825,599.49177 208.49474,588.82607 196.47023,593.89047 C 174.71624,597.9448 151.74707,602.93754 130.46343,593.72497 C 109.73413,583.38102 90.847273,567.8944 76.969842,549.34068 C 58.947902,527.80309 79.814308,500.29175 105.42004,509.85857 C 127.25509,513.81889 153.17184,511.94791 169.88153,529.05732 C 154.10229,533.04212 132.70142,517.97588 116.70256,530.21739 C 97.280417,546.03872 118.15776,574.26225 136.67585,579.62956 C 161.10524,588.78285 187.82371,576.76469 211.86586,587.81049 C 236.00146,599.16787 265.11503,595.52406 286.27075,579.46833 C 302.27056,568.41722 341.07603,576.81712 350.42122,572.42007 C 333.30003,581.5014 328.49346,610.22805 355.05456,600.49324 C 381.61252,594.84322 406.63806,583.78482 433.09375,577.75 C 452.41307,583.09171 483.37151,598.3695 495.9802,574.9068 C 501.83348,555.71931 521.52401,550.72137 534.71044,538.65134 C 552.05837,518.92838 517.04754,523.81027 505.63566,523.33304 C 486.28654,522.77548 466.99591,521.03283 447.75,519.03125 C 462.81851,495.21542 494.29622,493.76023 519.56791,495.61739 C 546.58943,483.00825 582.39655,482.54353 600,455 C 598.13132,432.49033 603.72725,402.98135 597.22016,384.82096 C 567.63138,377.72131 602.65922,349.51762 600,332.29775 C 600,280.96933 600,229.64092 600,178.3125 z"
             id="path7788" />
          <path
             style="fill:#463a28;fill-opacity:1;fill-rule:evenodd;stroke:none;stroke-width:2;stroke-linecap:round;stroke-linejoin:round;marker:none;marker-start:none;marker-mid:none;marker-end:none;stroke-miterlimit:4;stroke-dasharray:none;stroke-dashoffset:0;stroke-opacity:1;visibility:visible;display:inline;overflow:visible;enable-background:accumulate"
             d="M -74.21875,518.0625 C -97.532029,526.84534 -124.31648,516.12875 -145.99294,521.80691 C -157.07219,543.33847 -145.46303,569.61518 -149.82028,593.1077 C -151.22992,611.61736 -155.632,643.958 -127.31965,634.91312 C -97.56125,634.56007 -67.597061,636.44687 -37.975648,633.48968 C -24.011204,634.58277 -7.730403,614.17191 -30.230968,612.94587 C -58.089596,611.71943 -54.502085,572.23962 -26.809976,574.07618 C -3.7616291,572.76152 19.404551,568.60793 38.632247,555.21542 C 54.406891,535.66479 16.639648,537.4674 5.6061115,542.3299 C -14.881968,542.18723 -29.999844,552.53409 -44.080767,565.8849 C -59.331679,563.48656 -73.922138,550.93444 -92.005349,556.88509 C -113.45267,558.01013 -95.924538,533.25425 -81.630813,540.38308 C -67.55624,534.65595 -37.894114,553.61971 -34.982958,532.88634 C -41.444011,521.25781 -61.50352,518.49614 -74.21875,518.0625 z"
             id="path5796" />
          <path
             style="fill:#463a28;fill-opacity:1;fill-rule:evenodd;stroke:none;stroke-width:2;stroke-linecap:round;stroke-linejoin:round;marker:none;marker-start:none;marker-mid:none;marker-end:none;stroke-miterlimit:4;stroke-dasharray:none;stroke-dashoffset:0;stroke-opacity:1;visibility:visible;display:inline;overflow:visible;enable-background:accumulate"
             d="M -77.873596,101.50716 C -61.245089,117.64155 -35.033062,101.77578 -18.96641,106.88853 C -35.237467,127.78531 -1.393194,135.4048 13.663625,126.66821 C 34.89484,135.6596 46.79924,108.96223 66.603391,111.44195 C 88.453893,118.35276 111.50664,110.51142 133.55792,110.93186 C 146.55268,107.75207 177.04975,127.45927 155.1974,134.64651 C 137.04103,134.20975 117.48882,127.55746 101.06375,135.57103 C 85.282354,153.17274 113.74835,148.42576 123.93652,148.06098 C 140.63071,156.25108 158.46564,163.67046 170.94204,144.75875 C 186.61428,132.31139 207.87804,136.55529 226.07408,130.77488 C 253.2695,131.01454 234.16817,157.84989 216.71152,157.16308 C 198.7641,167.88257 177.59445,162.93401 158.94134,169.74621 C 132.0165,184.95184 160.5623,207.3923 178.16718,209.89288 C 179.35787,231.23739 144.38756,225.71289 129.35168,230.2114 C 112.39415,234.81707 82.21103,217.18789 76.26304,240.87848 C 74.364051,262.69129 119.45728,261.71923 96.662278,283.47911 C 88.080886,299.44928 50.228889,285.83742 65.63105,310.92485 C 75.750001,333.57177 38.484971,313.14712 25.461286,318.33897 C 13.084707,327.75807 -11.260124,313.71043 3.7571764,300.45377 C 11.434506,299.00498 32.809861,302.77229 26.839799,288.87577 C 10.009379,286.65107 -14.890031,301.33033 -25.642138,281.73026 C -18.642314,263.90055 -43.26899,246.9759 -27.986896,233.26265 C -22.287553,229.75683 -48.133549,238.29817 -42.82788,222.37193 C -36.804283,205.57694 -39.335684,190.42615 -41.601638,174.04638 C -34.701647,169.19415 -17.617598,153.50734 -37.551968,156.06121 C -47.733336,158.338 -62.292843,150.37308 -69.392309,151.23918 C -69.143672,139.70311 -75.979842,120.78313 -89.516733,134.31439 C -114.48333,130.59825 -92.908128,101.248 -77.873596,101.50716 z"
             id="path7734" />
          <path
             style="fill:#463a28;fill-opacity:1;fill-rule:evenodd;stroke:none;stroke-width:2;stroke-linecap:round;stroke-linejoin:round;marker:none;marker-start:none;marker-mid:none;marker-end:none;stroke-miterlimit:4;stroke-dasharray:none;stroke-dashoffset:0;stroke-opacity:1;visibility:visible;display:inline;overflow:visible;enable-background:accumulate"
             d="M 119.84375,-165 C 116.55605,-137.63483 82.136543,-140.8134 64.585585,-150.95381 C 42.657992,-148.52709 33.487861,-122.14193 11.296753,-119.48033 C -14.956841,-116.94025 8.724653,-83.186637 -17.272078,-79.091404 C -56.271551,-65.964781 -100.87951,-67.422553 -135.5732,-42.601196 C -153.88135,-26.02471 -143.98209,0.66104425 -141.75106,21.550641 C -139.41228,45.169295 -104.8702,34.373931 -105.62878,58.104666 C -99.88204,87.281897 -68.317286,57.85886 -53.203032,52.771645 C -31.034611,41.210521 -11.896402,68.35352 10.154427,60.876309 C 22.041386,48.348923 39.71052,45.854962 56.278291,45.240165 C 74.791031,44.990132 88.864035,30.99015 107.72263,32.386571 C 139.31096,29.879523 171.07101,32.348427 202.60591,30.205733 C 222.38069,27.043123 242.20902,24.33804 262.1632,22.913351 C 283.34445,19.446955 304.97179,9.012804 326.55556,15.928249 C 343.0278,36.999022 366.29602,17.73392 374.88781,0.83252835 C 395.27031,-11.98577 420.43515,-10.36595 443.40291,-13.363418 C 463.41746,-11.221475 493.073,-9.7262895 498.82062,-34.799399 C 499.96518,-55.190353 474.41183,-61.506322 458.11267,-61.252433 C 432.2803,-55.690605 406.92388,-44.314422 379.859,-46.245972 C 366.36643,-42.028583 332.93198,-23.175882 332.14683,-47.095432 C 340.84935,-53.140815 360.005,-71.805854 336.97426,-71.342275 C 312.87478,-71.978569 288.31459,-52.549989 265.03125,-66.28125 C 256.29968,-89.716211 287.55404,-98.793223 305.29942,-98.953457 C 330.80316,-102.26198 356.29202,-97.825698 381.0485,-92.039187 C 398.27215,-93.695405 428.2822,-82.086489 438.57725,-95.697418 C 432.71298,-113.67489 417.9726,-119.83093 401.58536,-126.65135 C 390.59899,-136.20394 361.63418,-122.21602 362.3914,-146.59951 C 376.52028,-165.21647 341.31817,-156.43754 331.0427,-152.22123 C 315.82774,-145.26649 299.20695,-144.54857 283.12284,-142.63725 C 259.17659,-143.95789 249.18753,-174.25757 223.05266,-165 C 188.64969,-165 154.24672,-165 119.84375,-165 z M 107.125,-108.5 C 128.38316,-98.01963 149.6985,-87.606953 171.60196,-78.527392 C 189.18651,-73.970661 221.49652,-93.304944 228.63425,-72.459147 C 215.60169,-56.322305 190.57895,-71.098376 172.44572,-67.07811 C 149.71192,-65.477984 123.37092,-58.850857 104.07423,-75.051797 C 92.33144,-81.647119 51.714851,-77.224849 65.846293,-98.56076 C 79.069296,-104.07793 95.620235,-98.359316 107.125,-108.5 z"
             id="rect8003" />
          <path
             style="fill:#463a28;fill-opacity:1;fill-rule:evenodd;stroke:none;stroke-width:2;stroke-linecap:round;stroke-linejoin:round;marker:none;marker-start:none;marker-mid:none;marker-end:none;stroke-miterlimit:4;stroke-dasharray:none;stroke-dashoffset:0;stroke-opacity:1;visibility:visible;display:inline;overflow:visible;enable-background:accumulate"
             d="M -150,-165 C -150,-134.44681 -150,-103.89363 -150,-73.340441 C -140.61765,-68.983534 -119.38649,-66.831173 -133.93959,-81.861962 C -146.58406,-107.44924 -107.83816,-92.75624 -99.971858,-110.81272 C -80.328926,-132.7819 -125.5577,-128.47939 -121.46043,-151.4257 C -117.12376,-175.27835 -85.779279,-157.04536 -69.257858,-162.19872 C -60.864156,-162.37777 -40.952456,-165.98736 -60.241665,-165.04239 C -90.159175,-164.91682 -120.08079,-165.04639 -150,-165 z"
             id="path5784" />
          <path
             style="fill:#463a28;fill-opacity:1;fill-rule:evenodd;stroke:none;stroke-width:2;stroke-linecap:round;stroke-linejoin:round;marker:none;marker-start:none;marker-mid:none;marker-end:none;stroke-miterlimit:4;stroke-dasharray:none;stroke-dashoffset:0;stroke-opacity:1;visibility:visible;display:inline;overflow:visible;enable-background:accumulate"
             d="M 473.65625,509.15625 C 452.23435,504.27714 441.38758,551.9757 468.79666,538.90239 C 490.0883,528.91627 469.81717,571.56403 493.35967,560.89729 C 504.02442,567.41758 538.46246,558.65834 517.05399,575.90948 C 503.23494,582.52043 508.45682,593.84743 514.49657,602.52906 C 510.23237,616.21174 501.0172,641.75342 526.02598,635 C 550.68398,635 575.34199,635 600,635 C 600,598.17708 600,561.35417 600,524.53125 C 583.61035,540.60487 555.55001,533.91297 536.55551,537.10475 C 524.20559,532.17097 531.39231,516.63881 531.49871,513.09697 C 510.74195,511.89181 492.69949,524.01848 473.65625,509.15625 z"
             id="path5798" />
          <path
             style="fill:#463a28;fill-opacity:1;fill-rule:evenodd;stroke:none;stroke-width:2;stroke-linecap:round;stroke-linejoin:round;marker:none;marker-start:none;marker-mid:none;marker-end:none;stroke-miterlimit:4;stroke-dasharray:none;stroke-dashoffset:0;stroke-opacity:1;visibility:visible;display:inline;overflow:visible;enable-background:accumulate"
             d="M 510,-165 C 507.76594,-149.14505 537.19808,-169.76082 521.77358,-156.73511 C 509.53045,-141.8066 534.93641,-126.4828 526.17039,-110.74519 C 535.75929,-86.341399 574.9418,-114.84067 580.16042,-97.956099 C 570.19292,-90.967137 533.39897,-90.853289 556.43525,-73.165806 C 570.23065,-73.551812 587.4083,-72.641186 598.8024,-76.81393 C 603.2078,-95.887376 597.25477,-116.10819 600.01989,-135.69372 C 603.62599,-153.05407 599.55212,-171.96154 578.11523,-165 C 555.41016,-165 532.70508,-165 510,-165 z"
             id="path5800" />
          <path
             style="fill:#463a28;fill-opacity:1;fill-rule:evenodd;stroke:none;stroke-width:2;stroke-linecap:round;stroke-linejoin:round;marker:none;marker-start:none;marker-mid:none;marker-end:none;stroke-miterlimit:4;stroke-dasharray:none;stroke-dashoffset:0;stroke-opacity:1;visibility:visible;display:inline;overflow:visible;enable-background:accumulate"
             d="M 297.21875,609.28125 C 273.46025,616.1688 245.09918,607.60686 224.73328,624.85922 C 213.11509,642.37653 249.13135,636.39917 258.09352,631.30518 C 277.00428,620.10222 298.75461,616.21278 320.47687,617.71114 C 335.24027,616.78868 337.51199,610.24465 321.56497,611.42423 C 313.43621,610.90937 305.2618,610.66696 297.21875,609.28125 z"
             id="path5822" />
          <path
             style="fill:#463a28;fill-opacity:1;fill-rule:evenodd;stroke:none;stroke-width:2;stroke-linecap:round;stroke-linejoin:round;marker:none;marker-start:none;marker-mid:none;marker-end:none;stroke-miterlimit:4;stroke-dasharray:none;stroke-dashoffset:0;stroke-opacity:1;visibility:visible;display:inline;overflow:visible;enable-background:accumulate"
             d="M -126.65625,154.8125 C -137.65164,170.98081 -158.1924,184.02989 -150,206.62782 C -150,252.75188 -150,298.87594 -150,345 C -142.65262,328.634 -127.35272,305.18164 -107.98862,321.93111 C -82.30595,327.84545 -77.109546,291.18448 -85.353062,274.0778 C -96.52125,258.5404 -116.6047,286.21421 -119.61219,262.30309 C -129.44547,242.2393 -130.48206,220.83466 -121.03275,200.45634 C -119.58276,186.12172 -97.174418,152.99817 -126.65625,154.8125 z M -150,385 C -150,410.08333 -150,435.16667 -150,460.25 C -135.22832,443.43612 -139.87129,419.80931 -133.97218,400.02584 C -131.70397,390.18552 -140.50369,382.29601 -150,385 z"
             id="path5872" />
        </g>
        <g
           style="fill:#758949;fill-opacity:1"
           id="g5530"
           transform="matrix(0.5,0,0,0.5,161.78572,352.00504)">
          <path
             style="fill:#758949;fill-opacity:1;fill-rule:evenodd;stroke:none;stroke-width:2;stroke-linecap:round;stroke-linejoin:round;marker:none;marker-start:none;marker-mid:none;marker-end:none;stroke-miterlimit:4;stroke-dasharray:none;stroke-dashoffset:0;stroke-opacity:1;visibility:visible;display:inline;overflow:visible;enable-background:accumulate"
             d="M -19.0924,152.66341 C -0.33673698,165.15403 -44.49543,173.8283 -22.905071,182.65794 C -18.54332,203.39238 -55.957832,201.55928 -44.511408,225.00589 C -39.954394,238.05753 -60.169307,248.5393 -56.909999,229.87633 C -54.10811,217.22369 -58.6002,202.32662 -73.928587,208.11824 C -89.423514,197.34078 -51.695567,192.14186 -64.568613,177.55036 C -70.646392,150.41484 -39.259345,153.9189 -22.517701,154.63005 L -19.0924,152.66341 L -19.0924,152.66341 z"
             id="path7689" />
          <path
             style="fill:#758949;fill-opacity:1;fill-rule:evenodd;stroke:none;stroke-width:2;stroke-linecap:round;stroke-linejoin:round;marker:none;marker-start:none;marker-mid:none;marker-end:none;stroke-miterlimit:4;stroke-dasharray:none;stroke-dashoffset:0;stroke-opacity:1;visibility:visible;display:inline;overflow:visible;enable-background:accumulate"
             d="M 233.78259,202.06966 C 212.16589,215.21564 251.36354,241.04513 228.20325,248.17475 C 216.08402,262.58458 197.51297,272.26531 181.50412,258.72298 C 166.30652,253.67545 158.15117,286.79767 173.60507,270.65846 C 187.54622,263.53104 197.63014,287.67754 178.1472,284.19542 C 152.85823,293.41799 187.3178,304.91564 198.17145,295.59141 C 222.20443,290.74059 214.91059,317.19242 210.32006,329.77063 C 226.07164,327.95456 237.46744,305.50775 255.75975,301.38014 C 272.51202,302.12067 241.6916,291.45276 238.658,291.39602 C 231.70832,281.96812 211.89022,280.53036 228.79932,270.14177 C 241.55723,253.97414 263.95987,244.39278 283.67091,248.93703 C 307.01059,259.2273 306.3368,290.7677 287.32183,305.10162 C 275.75154,324.09751 301.61754,317.86609 306.13934,305.33012 C 313.26978,295.78009 319.99147,293.76786 321.83261,307.15377 C 328.47486,315.89893 343.14066,299.23931 334.21886,313.06465 C 343.56471,330.86345 365.60061,294.38571 355.93291,281.41756 C 335.82756,263.68768 377.04036,269.18575 373.14748,254.75806 C 355.21451,239.30847 329.89098,254.37709 312.623,257.32531 C 303.21109,240.04092 290.43456,225.80552 269.48746,228.43483 C 253.32005,225.85032 240.03253,216.37615 233.78259,202.06966 z"
             id="path7371" />
          <path
             style="fill:#758949;fill-opacity:1;fill-rule:evenodd;stroke:none;stroke-width:2;stroke-linecap:round;stroke-linejoin:round;marker:none;marker-start:none;marker-mid:none;marker-end:none;stroke-miterlimit:4;stroke-dasharray:none;stroke-dashoffset:0;stroke-opacity:1;visibility:visible;display:inline;overflow:visible;enable-background:accumulate"
             d="M -130,-165 C -146.49769,-154.42156 -111.92947,-144.5646 -116.15405,-130.84479 C -106.83767,-127.73833 -105.61982,-157.36836 -93.415403,-141.70111 C -92.028803,-125.61379 -124.29964,-103.20914 -96.213044,-92.855104 C -71.406323,-90.77515 -92.001523,-126.69834 -70.547222,-124.69802 C -48.241706,-125.91491 -96.93226,-142.02181 -76.377445,-155.53013 C -56.893448,-158.32469 -51.4101,-131.61182 -35.806168,-126.65376 C -16.916873,-131.91825 -55.218514,-163.60127 -27.063501,-154.42567 C -2.8907885,-146.00753 17.057577,-129.19011 39.176425,-116.89444 C 40.828181,-101.31122 15.033318,-93.682562 13.535756,-75.677063 C -0.37828521,-55.259758 31.471091,-32.696022 45.974419,-49.748205 C 60.624449,-69.816324 14.547147,-63.868185 33.18132,-81.896732 C 45.279325,-99.115132 64.649578,-103.93261 83.254507,-110.52315 C 95.273047,-125.33876 123.0444,-137.03237 134.74167,-115.23233 C 132.97206,-91.529309 161.87584,-99.012314 158.79436,-119.17447 C 159.87696,-142.2619 119.58761,-129.29635 123.97776,-151.36786 C 142.39791,-170.59991 102.67406,-166.1289 101.60779,-163.01403 C 114.78769,-137.92159 71.243867,-145.88312 57.367459,-143.84072 C 36.664562,-144.79146 -2.2215065,-141.17461 -8.2029868,-163.788 C 10.582593,-166.93156 -21.788979,-163.983 -28.4375,-165 C -62.291667,-165 -96.145833,-165 -130,-165 z"
             id="path8024" />
          <path
             style="fill:#758949;fill-opacity:1;fill-rule:evenodd;stroke:none;stroke-width:2;stroke-linecap:round;stroke-linejoin:round;marker:none;marker-start:none;marker-mid:none;marker-end:none;stroke-miterlimit:4;stroke-dasharray:none;stroke-dashoffset:0;stroke-opacity:1;visibility:visible;display:inline;overflow:visible;enable-background:accumulate"
             d="M 80.180199,-53.140072 C 56.900998,-52.66268 89.138776,-31.342988 99.278111,-34.180921 C 122.69525,-29.03195 145.24717,-45.94854 168.53596,-38.850481 C 186.0505,-14.683789 148.37069,-10.383668 133.39692,-6.339632 C 116.03188,0.59143379 112.88983,23.829447 134.59291,24.996409 C 135.04648,35.775723 104.86436,26.141445 93.677303,32.376561 C 38.303987,40.303225 -18.3699,41.542509 -73.682735,32.866618 C -97.562813,31.831162 -123.6608,45.595968 -130.4805,69.639017 C -113.54059,88.374976 -88.665186,64.747881 -69.062929,62.697704 C -43.559308,53.796822 -17.61881,64.805129 4.8234527,76.600625 C 24.493052,85.249827 46.587148,90.598904 68.023734,86.259013 C 89.548369,90.484786 106.94287,57.041602 127.4163,72.700118 C 123.3018,103.63437 177.87609,71.627917 171.78326,106.81958 C 170.41815,134.09273 132.04107,130.40424 126.88682,154.05953 C 126.56475,179.76904 158.65099,187.07502 178.86063,186.68069 C 198.98632,179.98264 183.58242,152.1744 203.06644,141.9228 C 215.75097,130.29803 231.00575,120.2055 247.65407,115.73786 C 269.91263,113.67925 284.04711,143.4952 306.96309,134.03038 C 318.78699,136.86792 329.08619,132.32021 316.0971,122.6243 C 303.68063,100.91325 279.41535,95.542938 257.06624,92.728835 C 243.72093,93.65616 207.00611,77.408218 234.47357,68.069853 C 256.96812,62.338168 277.17862,77.229518 296.53533,85.874324 C 321.83047,88.892566 310.68178,57.703569 308.68882,43.767382 C 299.16363,20.644863 271.75931,28.61719 252.56021,29.583729 C 242.30752,32.841392 223.41277,25.117594 240.43871,17.169635 C 247.4694,-3.0147355 201.52254,6.1498915 215.98039,-13.696391 C 232.97181,-27.984252 257.28425,-32.2212 278.73902,-28.691326 C 295.00824,-22.015005 253.84312,-1.5986415 280.7253,-3.2398112 C 303.38486,-7.5019499 326.57772,-10.184416 349.30667,-5.8816837 C 363.00157,-4.5681637 369.72989,-23.494969 351.42874,-21.061353 C 329.11462,-15.869152 301.77645,-7.3119302 287.44709,-31.455496 C 266.75617,-42.578286 241.95369,-29.973106 220.60777,-38.314668 C 203.58764,-45.622534 230.86667,-69.353469 208.09589,-60.375783 C 188.17696,-54.085945 167.42358,-55.103147 146.9814,-57.48771 C 128.54644,-59.556702 109.67062,-59.219266 91.876513,-53.596489 C 88.021667,-52.967249 84.073561,-52.601963 80.180199,-53.140072 z"
             id="rect5572" />
          <path
             style="fill:#758949;fill-opacity:1;fill-rule:evenodd;stroke:none;stroke-width:2;stroke-linecap:round;stroke-linejoin:round;marker:none;marker-start:none;marker-mid:none;marker-end:none;stroke-miterlimit:4;stroke-dasharray:none;stroke-dashoffset:0;stroke-opacity:1;visibility:visible;display:inline;overflow:visible;enable-background:accumulate"
             d="M 512.8764,-62.71159 C 540.67933,-53.738444 506.59958,-23.828148 488.54163,-31.107143 C 464.95176,-28.723086 440.37835,-29.36166 417.8608,-24.858592 C 399.32458,-29.592825 415.08114,-41.282991 426.28627,-35.644928 C 447.54405,-37.616535 468.49265,-43.81631 488.62341,-50.619636 C 496.80594,-54.453942 504.42607,-59.442964 512.8764,-62.71159 z"
             id="path5592" />
          <path
             style="fill:#758949;fill-opacity:1;fill-rule:evenodd;stroke:none;stroke-width:2;stroke-linecap:round;stroke-linejoin:round;marker:none;marker-start:none;marker-mid:none;marker-end:none;stroke-miterlimit:4;stroke-dasharray:none;stroke-dashoffset:0;stroke-opacity:1;visibility:visible;display:inline;overflow:visible;enable-background:accumulate"
             d="M 451.0014,-1.4615901 C 468.72641,-0.84083946 461.65334,26.56324 466.65128,33.645706 C 440.21171,40.460469 480.44657,55.015075 478.44694,33.704419 C 469.6302,18.486988 488.07662,21.67123 488.64916,34.861549 C 501.90926,41.444773 521.23309,44.311366 536.67186,53.170526 C 549.65354,68.129946 520.18302,89.230333 512.17874,103.75947 C 496.8977,110.25598 479.09081,134.66777 505.0439,140.11283 C 513.16095,142.65052 534.58504,164.0698 513.40034,153.39605 C 493.09689,147.18908 475.0712,131.34515 453.16925,133.20465 C 436.76263,138.6156 398.13413,129.67164 423.38542,110.11021 C 430.94682,105.7632 458.16066,91.780845 436.08316,89.728961 C 420.12616,97.581798 403.32623,80.553392 423.55064,71.954039 C 434.3064,69.172107 470.86688,67.501978 454.31376,50.572618 C 445.78414,48.466727 418.50001,43.82582 441.34184,38.155862 C 452.56167,26.652662 419.24921,0.098983748 451.0014,-1.4615901 z"
             id="path5007" />
          <path
             style="fill:#758949;fill-opacity:1;fill-rule:evenodd;stroke:none;stroke-width:2;stroke-linecap:round;stroke-linejoin:round;marker:none;marker-start:none;marker-mid:none;marker-end:none;stroke-miterlimit:4;stroke-dasharray:none;stroke-dashoffset:0;stroke-opacity:1;visibility:visible;display:inline;overflow:visible;enable-background:accumulate"
             d="M 120.75009,286.17163 C 95.028658,279.49571 71.76948,297.1846 51.206777,309.94735 C 35.800931,326.94744 7.6251687,339.42251 -8.8273945,316.96279 C -29.14186,299.55673 -58.821128,323.63768 -39.10783,345.14013 C -28.354603,366.76956 -3.6950262,371.32252 13.216701,386.15884 C 29.06957,397.51152 48.529852,384.46093 65.904937,391.70269 C 92.54678,397.36586 109.08754,423.01954 114.13211,448.21592 C 116.59252,470.54798 134.87457,469.71039 150.04693,460.21826 C 165.38452,461.61036 176.73945,476.34642 192.19419,480.40615 C 206.60037,486.07875 225.07175,491.64634 239.13735,483.12087 C 252.95702,467.14368 198.09366,455.84002 228.87856,455.98406 C 250.782,455.77591 272.42431,461.8401 294.35862,459.63354 C 310.46003,437.52559 276.75329,415.77641 257.09558,428.80318 C 235.117,436.21972 209.7345,435.85084 191.90132,419.57496 C 174.24063,414.63977 157.61303,394.5528 180.2009,385.13275 C 175.73083,357.87977 144.84257,376.75847 127.83834,370.29957 C 110.59424,367.21917 75.42216,347.01349 104.39169,332.55913 C 113.58113,322.98175 140.06645,349.01186 131.8489,326.88224 C 127.76231,310.40384 94.619808,329.44141 100.70546,311.85529 C 112.45844,298.60444 137.61688,328.8119 141.16824,310.9416 C 136.58273,303.30963 104.50287,300.1303 116.58583,292.7695 C 121.00292,292.82271 128.2608,290.43271 120.75009,286.17163 z"
             id="path7658" />
          <path
             style="fill:#758949;fill-opacity:1;fill-rule:evenodd;stroke:none;stroke-width:2;stroke-linecap:round;stroke-linejoin:round;marker:none;marker-start:none;marker-mid:none;marker-end:none;stroke-miterlimit:4;stroke-dasharray:none;stroke-dashoffset:0;stroke-opacity:1;visibility:visible;display:inline;overflow:visible;enable-background:accumulate"
             d="M 562.09521,205.85091 C 573.78472,200.52422 605.25395,210.7769 580.04877,219.9967 C 562.6327,226.27699 531.0349,224.83361 522.78396,236.94049 C 532.80553,257.10449 504.18582,266.11917 490.34544,257.81359 C 481.84791,265.49152 457.32062,273.06728 467.43787,252.5995 C 479.46467,245.0221 513.43622,239.57772 490.56082,222.88408 C 502.98598,210.70546 523.13777,218.58678 538.10114,210.88756 C 546.00467,208.80411 553.97193,206.85713 562.09521,205.85091 z"
             id="path7828" />
          <path
             style="fill:#758949;fill-opacity:1;fill-rule:evenodd;stroke:none;stroke-width:2;stroke-linecap:round;stroke-linejoin:round;marker:none;marker-start:none;marker-mid:none;marker-end:none;stroke-miterlimit:4;stroke-dasharray:none;stroke-dashoffset:0;stroke-opacity:1;visibility:visible;display:inline;overflow:visible;enable-background:accumulate"
             d="M 473.9389,414.66342 C 501.01065,421.92561 445.05102,444.21419 469.7836,436.78269 C 481.93179,439.69087 488.67219,451.51409 500.50502,440.1716 C 519.85457,432.38993 541.15744,440.21776 558.63407,427.95979 C 570.70956,426.5152 567.74792,443.3355 574.53587,449.93445 C 569.05959,472.07801 541.02262,468.42125 523.53535,472.90411 C 497.11312,478.13736 470.40331,482.78502 444.29779,489.08433 C 428.58814,496.15 436.67198,519.82676 453.42263,508.0874 C 475.1135,501.79971 497.85618,499.73157 518.20157,510.65445 C 533.9779,515.2508 572.55442,494.80081 569.8489,521.94856 C 552.92711,541.23557 527.66773,522.38829 506.50373,526.54043 C 492.94437,527.70565 455.88877,520.85209 470.48569,545.27639 C 476.06799,565.64111 437.60159,563.86066 423.02196,561.45536 C 411.29843,558.31632 422.44567,523.73191 396.85943,534.22231 C 373.44412,536.23729 348.26303,539.12817 326.51863,528.04 C 313.70813,506.17145 352.11784,512.54695 357.53359,513.49426 C 372.66983,497.03748 398.98452,509.52881 416.14879,496.49546 C 428.84357,482.99231 399.88285,459.60639 425.60423,454.27059 C 438.10678,452.09878 429.34967,446.71536 429.187,442.46856 C 439.38101,428.03824 455.94731,416.04859 473.9389,414.66342 z"
             id="path7887" />
          <path
             style="fill:#758949;fill-opacity:1;fill-rule:evenodd;stroke:none;stroke-width:2;stroke-linecap:round;stroke-linejoin:round;marker:none;marker-start:none;marker-mid:none;marker-end:none;stroke-miterlimit:4;stroke-dasharray:none;stroke-dashoffset:0;stroke-opacity:1;visibility:visible;display:inline;overflow:visible;enable-background:accumulate"
             d="M 275.17969,501.89288 C 292.41046,488.93356 311.66832,520.89654 286.51367,524.00824 C 262.77003,525.07871 239.55917,532.6382 216.36335,531.99299 C 197.44894,538.06739 173.98127,510.85252 200.54153,504.63313 C 217.36868,497.76813 234.99472,502.85934 252.08083,504.59147 C 259.85808,504.64778 267.57845,503.43782 275.17969,501.89288 z"
             id="path5163" />
          <path
             style="fill:#758949;fill-opacity:1;fill-rule:evenodd;stroke:none;stroke-width:2;stroke-linecap:round;stroke-linejoin:round;marker:none;marker-start:none;marker-mid:none;marker-end:none;stroke-miterlimit:4;stroke-dasharray:none;stroke-dashoffset:0;stroke-opacity:1;visibility:visible;display:inline;overflow:visible;enable-background:accumulate"
             d="M 90.9076,421.85043 C 115.09703,434.20582 79.915299,449.14045 75.308223,461.93336 C 76.046019,476.83815 111.89321,493.20553 88.037794,505.81413 C 65.591046,511.71068 67.119603,539.38197 74.391274,554.82894 C 68.793264,561.20241 60.646908,573.13814 74.985172,566.19817 C 90.053169,573.43068 77.355327,594.52274 69.679461,593.93622 C 78.245678,606.2621 82.148524,640.73894 58.958409,631.43723 C 43.811707,614.82844 51.809349,588.9768 38.187876,571.49062 C 15.582278,566.92726 11.083179,531.72147 38.271194,531.79018 C 51.983461,522.08795 23.004788,527.28618 25.987579,516.2216 C 14.80197,507.37827 -24.167255,523.46707 -13.648781,497.96581 C 4.8444979,484.19734 29.168137,497.07104 49.732627,490.957 C 72.736827,477.87787 64.285087,445.58398 79.401763,426.71993 C 82.216738,423.40345 86.609826,421.65582 90.9076,421.85043 z"
             id="path5341" />
          <path
             style="fill:#758949;fill-opacity:1;fill-rule:evenodd;stroke:none;stroke-width:2;stroke-linecap:round;stroke-linejoin:round;marker:none;marker-start:none;marker-mid:none;marker-end:none;stroke-miterlimit:4;stroke-dasharray:none;stroke-dashoffset:0;stroke-opacity:1;visibility:visible;display:inline;overflow:visible;enable-background:accumulate"
             d="M -79.875,564.1875 C -85.413494,581.54046 -46.054367,608.53243 -78.955426,614.35585 C -97.039228,617.31734 -117.37093,620.22153 -130,635 C -82.896152,634.67814 -35.759893,635.6675 11.32319,634.46001 C 29.818346,631.87316 32.140663,603.45246 9.8619926,611.03868 C -9.0138706,604.23776 -29.929795,628.83228 -44.497667,610.05501 C -56.171108,594.63755 -68.690314,579.51294 -79.875,564.1875 z M 150,603.12744 C 144.33799,627.03509 108.91194,611.08329 99.920534,630.96969 C 117.08106,647.78624 135.13637,622.45302 152.77059,622.46081 C 175.97976,626.83382 198.48663,638.5444 222.86425,633.69982 C 235.37977,636.40315 262.36411,617.72598 238.08787,614.45641 C 217.83535,612.63682 197.97212,611.03801 177.76431,613.75035 C 164.75186,616.28172 153.08343,579.32386 144.86097,597.48094 C 146.79122,599.18587 148.55008,600.98934 150,603.12744 z"
             id="path5363" />
          <path
             style="opacity:1;fill:#758949;fill-opacity:1;fill-rule:evenodd;stroke:none;stroke-width:5;stroke-linecap:round;stroke-linejoin:round;marker:none;marker-start:none;marker-mid:none;marker-end:none;stroke-miterlimit:4;stroke-dasharray:none;stroke-dashoffset:0;stroke-opacity:1;visibility:visible;display:inline;overflow:visible;enable-background:accumulate"
             d="M 540.84375,255.5 C 524.77837,267.03284 546.19953,290.83182 557.71419,298.35641 C 573.54456,321.3173 550.89833,343.34866 529.81759,350.34852 C 514.88494,360.4626 498.1466,378.82224 478.61894,367.63443 C 457.08572,358.23246 456.52871,329.75536 472.8043,314.9998 C 480.38092,309.56062 496.0595,280.61611 476.60121,293.06074 C 454.72603,306.35485 466.22508,259.54833 454.89798,269.26833 C 449.41634,295.56383 437.08738,322.41751 413.27721,336.76546 C 397.55484,352.3281 376.85427,358.48854 357.90338,368.55816 C 335.40339,385.98673 351.74602,414.69181 371.73442,425.79331 C 380.95606,437.38648 405.65496,466.90934 416.51781,447.0041 C 406.76636,425.21168 374.88136,424.09044 368.52294,399.81773 C 380.29497,378.69863 405.38237,401.15567 419.46569,408.93228 C 436.02036,418.39766 440.37474,399.05175 423.21414,395.46693 C 407.60555,387.72489 417.30343,366.27364 433.41138,377.23984 C 455.43609,387.15753 477.49405,397.60367 498.73594,408.73559 C 517.53053,426.44816 537.35605,442.84777 556.80719,459.80932 C 571.99262,479.76631 610.18785,470.05057 600.63899,441.69686 C 595.54242,428.91073 609.33928,397.22211 584.62564,408.65874 C 566.4015,407.97823 544.29643,410.0073 527.95502,401.13548 C 525.18466,385.4316 540.09913,372.88449 550.00707,362.35304 C 562.30644,351.13011 577.49682,343.2451 593.52304,339.2492 C 607.77445,328.86674 599.68106,310.07074 582.58148,312.48024 C 568.2709,296.30942 567.30023,269.82682 548.2246,257.37506 C 545.91946,256.28571 543.41184,255.5324 540.84375,255.5 z"
             id="rect7802" />
          <path
             style="opacity:1;fill:#758949;fill-opacity:1;fill-rule:evenodd;stroke:none;stroke-width:5;stroke-linecap:round;stroke-linejoin:round;marker:none;marker-start:none;marker-mid:none;marker-end:none;stroke-miterlimit:4;stroke-dasharray:none;stroke-dashoffset:0;stroke-opacity:1;visibility:visible;display:inline;overflow:visible;enable-background:accumulate"
             d="M -94.40625,299.0625 C -112.30479,303.29172 -145.9452,302.3286 -150,322.5 C -154.82493,347.83322 -128.32744,317.83591 -114.93766,319.20519 C -86.634138,311.94629 -56.693045,319.59895 -30.86186,331.76977 C -10.525922,320.97991 -47.44079,311.61772 -56.852601,308.21916 C -68.863855,303.5383 -81.342994,299.03743 -94.40625,299.0625 z M -150,405 C -148.70479,423.4915 -152.58146,450.96524 -148.07755,463.88406 C -127.98237,452.64414 -103.14679,452.01399 -84.900063,437.13814 C -76.646309,411.70421 -111.26733,402.90657 -130.09896,401.64055 C -136.85852,401.25771 -143.83558,402.042 -150,405 z"
             id="path6151" />
        </g>
        <g
           style="fill:#17181f;fill-opacity:1"
           id="g5672"
           transform="matrix(0.5,0,0,0.5,161.78572,352.05246)">
          <path
             style="opacity:0.6;fill:#17181f;fill-opacity:1;fill-rule:evenodd;stroke:none;stroke-width:2;stroke-linecap:round;stroke-linejoin:round;marker:none;marker-start:none;marker-mid:none;marker-end:none;stroke-miterlimit:4;stroke-dasharray:none;stroke-dashoffset:0;stroke-opacity:1;visibility:visible;display:inline;overflow:visible;enable-background:accumulate"
             d="M 44.4702,84.288406 C 42.091438,86.145868 43.127035,87.588739 44.4702,84.288406 z"
             id="path5621" />
          <path
             style="fill:#17181f;fill-opacity:1;fill-rule:evenodd;stroke:none;stroke-width:2;stroke-linecap:round;stroke-linejoin:round;marker:none;marker-start:none;marker-mid:none;marker-end:none;stroke-miterlimit:4;stroke-dasharray:none;stroke-dashoffset:0;stroke-opacity:1;visibility:visible;display:inline;overflow:visible;enable-background:accumulate"
             d="M 435.3139,39.97591 C 437.06909,40.076375 435.81801,39.307265 435.3139,39.97591 z"
             id="path5005" />
          <path
             style="fill:#17181f;fill-opacity:1;fill-rule:evenodd;stroke:none;stroke-width:2;stroke-linecap:round;stroke-linejoin:round;marker:none;marker-start:none;marker-mid:none;marker-end:none;stroke-miterlimit:4;stroke-dasharray:none;stroke-dashoffset:0;stroke-opacity:1;visibility:visible;display:inline;overflow:visible;enable-background:accumulate"
             d="M 569.3764,220.56966 C 571.9468,219.774 568.52277,218.32964 569.3764,220.56966 z"
             id="path7844" />
          <path
             style="fill:#17181f;fill-opacity:1;fill-rule:evenodd;stroke:none;stroke-width:2;stroke-linecap:round;stroke-linejoin:round;marker:none;marker-start:none;marker-mid:none;marker-end:none;stroke-miterlimit:4;stroke-dasharray:none;stroke-dashoffset:0;stroke-opacity:1;visibility:visible;display:inline;overflow:visible;enable-background:accumulate"
             d="M -40.7798,446.38217 L -40.5611,446.38216 L -40.7798,446.38216 L -40.7798,446.38217 z"
             id="path5285" />
          <path
             style="fill:#17181f;fill-opacity:1;fill-rule:evenodd;stroke:none;stroke-width:2;stroke-linecap:round;stroke-linejoin:round;marker:none;marker-start:none;marker-mid:none;marker-end:none;stroke-miterlimit:4;stroke-dashoffset:0;stroke-opacity:1;visibility:visible;display:inline;overflow:visible;enable-background:accumulate"
             d="M 417.375,581.875 C 398.23842,581.95261 380.9837,586.23401 363.10546,590.95915 C 345.11386,599.3583 386.04033,605.87596 363.22474,611.21061 C 343.55798,611.4737 359.75281,626.18065 370.68539,619.52955 C 386.17458,614.37165 400.00891,607.47943 416.33756,607.20839 C 422.33329,590.87639 379.92034,607.34998 399.56874,591.52946 C 402.11288,588.62332 427.0422,589.39613 417.375,581.875 z"
             id="path5703" />
          <path
             style="fill:#17181f;fill-opacity:1;fill-rule:evenodd;stroke:none;stroke-width:2;stroke-linecap:round;stroke-linejoin:round;marker:none;marker-start:none;marker-mid:none;marker-end:none;stroke-miterlimit:4;stroke-dasharray:none;stroke-dashoffset:0;stroke-opacity:1;visibility:visible;display:inline;overflow:visible;enable-background:accumulate"
             d="M 355.75,406.9375 C 345.56388,426.0014 359.1194,445.64121 379.07924,449.54879 C 393.82147,459.64254 403.06589,489.47619 378.32656,492.9377 C 364.3645,500.19704 346.70784,507.29342 332.94018,495.49897 C 312.88178,487.07785 321.29008,464.15261 317.02727,448.90206 C 308.64236,458.48096 307.85587,480.42852 304.43882,495.17305 C 296.13731,513.38996 275.07407,521.18759 264.68538,538.07432 C 258.72619,552.71066 249.92406,565.68809 244.87269,580.69233 C 243.8916,598.63568 249.49155,617.08366 244.25251,634.90516 C 271.07719,640.67992 252.79515,609.00133 258.21837,595.08584 C 263.56395,569.72256 282.66485,597.3186 269.91802,608.24762 C 252.70063,621.88301 294.19985,644.00285 290.42871,630.90949 C 274.42316,617.49587 289.74997,597.36853 280.91815,580.77404 C 270.53503,561.57272 289.09359,546.56979 306.82304,545.8126 C 313.96284,540.5344 322.80177,529.55842 316.0247,545.18566 C 308.60537,559.66866 323.18514,573.12799 322.77249,550.68625 C 328.96364,526.8909 339.40006,578.58137 350.15552,564.25783 C 348.08241,555.73167 331.63408,532.83178 349.91324,546.9961 C 358.98478,556.44046 371.46366,549.01214 358.27326,539.42158 C 349.75457,522.00148 376.91503,513.41146 391.29759,515.02573 C 404.98658,509.11394 425.63948,502.07931 427.10063,484.59512 C 421.41615,461.50352 450.42775,457.18433 466.51889,462.31189 C 490.5195,463.93345 514.03981,456.77291 537.13808,451.28942 C 551.66909,448.93258 576.00615,418.96143 546.68449,423.72116 C 527.18764,414.42204 511.90789,442.33089 489.89505,433.58522 C 459.88577,432.46378 430.62175,456.07687 401.08714,441.56634 C 382.70096,434.48271 371.33393,417.6585 355.75,406.9375 z"
             id="path7926" />
          <path
             style="fill:#17181f;fill-opacity:1;fill-rule:evenodd;stroke:none;stroke-width:2;stroke-linecap:round;stroke-linejoin:round;marker:none;marker-start:none;marker-mid:none;marker-end:none;stroke-miterlimit:4;stroke-dasharray:none;stroke-dashoffset:0;stroke-opacity:1;visibility:visible;display:inline;overflow:visible;enable-background:accumulate"
             d="M -26.7174,185.81966 C -4.0098553,189.70865 -24.996306,210.3349 -34.568505,217.51102 C -39.374022,239.73649 -17.31602,208.81746 -8.7950088,211.18391 C 7.9901974,223.44369 -31.19801,234.13688 -20.724683,250.75256 C -10.009786,262.06324 7.0549158,278.13173 -17.995052,280.53608 C -14.593884,283.82485 -4.1634577,280.20309 -1.9521021,288.34982 C 7.1720813,283.65511 30.926548,277.87659 13.464553,292.74616 C -12.105803,296.79798 15.175329,317.06954 21.452199,327.93856 C 23.165075,343.55278 2.9447882,317.84288 -4.2937255,317.43716 C -28.648015,311.36465 -14.59221,277.07648 -41.598326,277.18581 C -50.194432,267.24899 -55.047827,248.22406 -57.829235,234.09376 C -45.571841,221.69787 -61.987591,197.55616 -39.5298,192.22591 C -36.326866,188.08119 -30.491696,189.04501 -26.7174,185.81966 z"
             id="path7716" />
          <path
             style="fill:#17181f;fill-opacity:1;fill-rule:evenodd;stroke:none;stroke-width:2;stroke-linecap:round;stroke-linejoin:round;marker:none;marker-start:none;marker-mid:none;marker-end:none;stroke-miterlimit:4;stroke-dasharray:none;stroke-dashoffset:0;stroke-opacity:1;visibility:visible;display:inline;overflow:visible;enable-background:accumulate"
             d="M 55.8764,52.19466 C 78.42105,57.603097 31.912434,89.563881 53.025401,80.097415 C 71.395742,82.048424 64.699326,116.82887 55.896201,127.42373 C 36.265498,131.55419 36.368566,155.47217 19.776035,162.612 C 15.135319,173.29288 -8.2881837,180.14189 0.013073532,161.73614 C -6.0568102,140.26524 -28.842067,169.33644 -43.099959,158.23895 C -55.07686,156.30076 -73.653246,174.81885 -71.911667,151.83985 C -75.676723,146.07712 -74.836019,122.5497 -67.447132,136.60143 C -70.518853,154.71606 -56.847856,142.72352 -60.010673,131.58286 C -50.276328,124.99009 -58.894539,159.06822 -41.321116,150.58195 C -29.086041,152.77698 -5.0233919,148.48577 -11.680612,132.40668 C 13.073034,127.59598 -28.953048,103.29237 -6.4724541,103.00918 C -0.97616008,125.04698 16.324021,106.49612 8.4787608,91.834571 C 11.912743,74.662113 22.715098,85.114453 19.746542,97.39331 C 22.728566,89.987689 28.087982,66.534574 42.915578,59.842796 C 46.86112,56.779141 50.46518,52.453407 55.8764,52.19466 z"
             id="path5623" />
          <path
             style="fill:#17181f;fill-opacity:1;fill-rule:evenodd;stroke:none;stroke-width:2;stroke-linecap:round;stroke-linejoin:round;marker:none;marker-start:none;marker-mid:none;marker-end:none;stroke-miterlimit:4;stroke-dasharray:none;stroke-dashoffset:0;stroke-opacity:1;visibility:visible;display:inline;overflow:visible;enable-background:accumulate"
             d="M 312.7514,36.81966 C 333.34747,31.401667 319.5201,68.441375 339.83746,53.566197 C 355.78551,62.978406 336.46994,71.570441 334.11063,79.235311 C 342.92616,82.750286 353.36192,85.892182 344.44794,97.07138 C 353.13481,99.680872 367.80263,101.4738 378.48664,102.47669 C 391.60432,100.0021 399.45504,92.651245 405.87991,81.436808 C 420.96747,87.675238 377.67502,107.47014 401.45704,104.08614 C 401.11307,116.86669 376.63812,106.04361 368.31644,111.68428 C 354.6963,120.75759 339.01461,116.71344 332.78718,100.52794 C 310.13001,94.775552 300.90085,68.842896 300.36981,48.584844 C 302.11336,42.960505 306.22679,36.96671 312.7514,36.81966 z"
             id="path5610" />
          <path
             style="fill:#17181f;fill-opacity:1;fill-rule:evenodd;stroke:none;stroke-width:2;stroke-linecap:round;stroke-linejoin:round;marker:none;marker-start:none;marker-mid:none;marker-end:none;stroke-miterlimit:4;stroke-dasharray:none;stroke-dashoffset:0;stroke-opacity:1;visibility:visible;display:inline;overflow:visible;enable-background:accumulate"
             d="M 124.5639,61.38216 C 141.86957,61.999583 123.81392,93.281371 146.27501,82.862634 C 164.25953,65.635897 179.16545,98.94966 171.85521,113.64131 C 163.31727,122.19319 159.43917,139.92521 151.0479,144.66797 C 152.15373,135.43673 152.69056,126.58948 143.80276,125.53414 C 153.70918,118.32189 175.29174,92.812676 148.31451,94.460706 C 138.69975,102.75295 133.01085,118.90287 121.86881,123.96076 C 117.94256,117.99051 123.62102,114.94683 118.44058,110.97526 C 132.06756,112.79376 142.77448,86.452109 123.19448,95.627738 C 118.38087,100.72292 103.55892,124.36983 106.20946,104.38774 C 106.32095,94.245924 132.54315,86.253389 113.6889,81.81966 C 96.133012,83.671967 89.213759,111.18571 73.6889,109.56966 C 73.979266,101.06484 107.16208,83.463376 83.630113,87.231582 C 77.083278,94.797653 57.400466,93.831385 72.357393,82.939066 C 90.393009,80.118794 103.40114,65.319028 121.03373,61.716329 L 124.5639,61.38216 L 124.5639,61.38216 z"
             id="path7545" />
          <path
             style="fill:#17181f;fill-opacity:1;fill-rule:evenodd;stroke:none;stroke-width:2;stroke-linecap:round;stroke-linejoin:round;marker:none;marker-start:none;marker-mid:none;marker-end:none;stroke-miterlimit:4;stroke-dasharray:none;stroke-dashoffset:0;stroke-opacity:1;visibility:visible;display:inline;overflow:visible;enable-background:accumulate"
             d="M 600,65 C 578.44626,70.035438 558.89045,80.922364 538.30579,88.790259 C 514.41018,94.174095 529.54185,115.83295 543.78907,121.90416 C 557.72678,137.02075 513.3288,132.24488 530.28669,143.13904 C 539.03884,141.78552 565.46415,141.97721 547.52518,153.81703 C 538.66981,160.20491 537.70301,174.85804 535.41034,183.98382 C 560.54828,189.76904 547.66435,147.86495 574.68871,149.6931 C 585.78027,143.91815 584.79001,125.62148 600,132.53798 C 601.99559,117.9295 599.77776,112.22914 584.96723,117.77326 C 576.0424,121.47639 552.11115,108.3818 573.01631,108.23018 C 583.6032,111.96731 602.15495,100.22679 581.56979,100.45032 C 579.29218,94.783557 601.68988,90.527546 584.67026,89.034851 C 576.76399,91.731666 557.54346,111.00704 555.73629,94.681181 C 565.08383,78.373541 603.5063,84.36811 600,65 z"
             id="path5033" />
          <path
             style="fill:#17181f;fill-opacity:1;fill-rule:evenodd;stroke:none;stroke-width:2;stroke-linecap:round;stroke-linejoin:round;marker:none;marker-start:none;marker-mid:none;marker-end:none;stroke-miterlimit:4;stroke-dasharray:none;stroke-dashoffset:0;stroke-opacity:1;visibility:visible;display:inline;overflow:visible;enable-background:accumulate"
             d="M 205.9995,403.16223 C 222.11032,400.36794 234.22608,391.73902 232.58489,373.8308 C 234.46142,365.52617 241.61768,336.0594 248.46141,356.98829 C 252.94517,369.13649 233.99896,393.45689 257.80199,385.07399 C 268.68871,382.75334 290.53258,383.38617 294.04026,392.77848 C 277.20445,399.38823 256.3135,394.78984 241.16093,401.13832 C 235.56234,410.65226 211.00023,414.91855 205.9995,403.16223 z"
             id="path7676" />
          <path
             style="fill:#17181f;fill-opacity:1;fill-rule:evenodd;stroke:none;stroke-width:2;stroke-linecap:round;stroke-linejoin:round;marker:none;marker-start:none;marker-mid:none;marker-end:none;stroke-miterlimit:4;stroke-dasharray:none;stroke-dashoffset:0;stroke-opacity:1;visibility:visible;display:inline;overflow:visible;enable-background:accumulate"
             d="M 332.84521,139.47591 C 352.86336,130.37893 349.48719,158.0158 337.83227,165.1431 C 331.73254,174.88427 336.69702,200.27118 341.49184,178.33777 C 346.58488,160.05391 367.84603,164.00085 379.37756,152.62683 C 390.41833,146.21053 420.42764,167.53057 397.0291,174.30124 C 386.41744,176.48614 377.45733,201.18513 392.49764,186.37277 C 397.06861,174.41338 406.44248,182.57147 408.95805,183.42573 C 414.06862,158.07711 439.23552,174.17432 455.67523,175.73978 C 482.82835,175.89799 468.28596,213.05776 450.94774,215.55093 C 440.5384,213.90766 408.3691,216.49907 415.6889,229.19466 C 427.15641,218.38675 460.83373,219.2539 448.60067,241.17129 C 438.83288,257.20986 415.75061,243.92853 406.29537,261.49953 C 391.08786,275.57613 384.19839,295.78452 370.46324,311.24814 C 357.43525,323.15136 348.30847,340.65641 355.16,358.49928 C 355.38978,339.32188 365.82354,311.75169 386.9702,310.44466 C 390.79263,318.10086 381.50198,352.17174 396.40869,334.55762 C 395.8317,322.81162 391.00031,291.04052 411.28651,308.87745 C 418.02605,318.0178 441.99608,305.67194 422.28373,302.69761 C 401.13999,302.83995 404.7143,267.45358 420.79988,260.30624 C 433.24116,248.44349 445.4147,261.68433 446.94429,271.27377 C 452.0901,255.38675 460.19705,240.36658 466.78328,225.05332 C 471.3314,209.36145 489.97144,199.82503 488.54862,182.33544 C 482.70784,169.02668 470.17338,165.75998 457.20317,160.56935 C 448.66104,148.76452 427.42748,161.94475 413.98242,156.48377 C 397.448,150.31587 389.62953,129.94727 371.87152,126.59474 C 355.03002,131.2439 340.26518,134.17847 326.38395,121.03098 C 314.58858,114.72248 291.51758,99.562899 287.56055,121.92946 C 279.3978,133.69029 264.78051,107.84837 251.05015,111.58063 C 232.48803,106.00314 213.2278,123.15701 212.83089,141.34499 C 222.16228,137.38876 231.95235,131.69426 237.38134,144.66747 C 246.01203,142.67051 253.71941,121.98499 267.02565,134.67045 C 270.66491,149.68239 250.66548,157.81045 243.52582,169.2024 C 239.27104,182.89397 207.44324,183.27869 212.04438,189.76755 C 222.00943,184.89948 237.87778,186.18874 235.55274,197.50936 C 243.16597,193.24594 248.7688,163.46321 256.02812,185.52728 C 259.30317,197.66992 288.97453,203.59813 270.94811,188.43023 C 258.54165,178.82529 257.70232,156.45211 274.00936,150.46986 C 293.39435,140.3143 298.83953,166.6168 282.4552,174.58968 C 268.62472,190.5277 298.71467,167.77341 288.78583,185.39428 C 297.13372,199.24699 295.40684,171.12357 298.90543,165.09303 C 307.59366,154.06359 322.33405,149.65605 332.84521,139.47591 z"
             id="path7569" />
          <path
             style="fill:#17181f;fill-opacity:1;fill-rule:evenodd;stroke:none;stroke-width:2;stroke-linecap:round;stroke-linejoin:round;marker:none;marker-start:none;marker-mid:none;marker-end:none;stroke-miterlimit:4;stroke-dasharray:none;stroke-dashoffset:0;stroke-opacity:1;visibility:visible;display:inline;overflow:visible;enable-background:accumulate"
             d="M 560.34521,226.19466 C 570.69454,239.56638 539.99966,265.0514 568.24425,267.62012 C 575.31612,273.07916 605.89715,265.09325 589.36965,277.63751 C 576.20991,280.31028 543.93914,271.60621 552.43914,295.32113 C 554.64854,309.83666 530.24484,319.81309 550.73876,329.86029 C 557.79406,341.68142 559.53205,356.25414 577.32206,352.02168 C 587.42779,349.24118 607.05893,360.35101 588.54964,364.58709 C 564.99925,354.58418 559.0157,381.19507 561.11901,398.8737 C 562.25993,410.79242 550.11809,418.98278 552.78376,402.28569 C 552.20201,389.5725 541.44037,357.28522 526.46733,375.7178 C 515.22478,382.67202 505.20825,407.77162 490.57646,397.43455 C 497.81301,379.72574 521.22839,373.7392 529.1544,355.5832 C 532.41931,340.67835 534.22843,308.96386 509.70774,318.28496 C 492.01447,328.64908 466.84538,312.54846 484.47352,294.38791 C 502.42992,288.05667 520.19646,314.18776 537.56071,300.13924 C 546.96238,284.52762 534.38505,268.67019 526.479,256.33973 C 532.00027,248.64024 547.65482,259.18666 547.32592,242.5976 C 550.05678,236.27854 553.51643,228.78959 560.34521,226.19466 z"
             id="path7851" />
          <path
             style="fill:#17181f;fill-opacity:1;fill-rule:evenodd;stroke:none;stroke-width:2;stroke-linecap:round;stroke-linejoin:round;marker:none;marker-start:none;marker-mid:none;marker-end:none;stroke-miterlimit:4;stroke-dasharray:none;stroke-dashoffset:0;stroke-opacity:1;visibility:visible;display:inline;overflow:visible;enable-background:accumulate"
             d="M -55.5298,-47.11784 C -46.847607,-36.949618 -63.249185,-11.023951 -39.965445,-13.941994 C -33.287917,3.1383127 3.1004625,-19.203441 6.6670763,7.7494197 C -5.9922045,13.522905 -19.20047,-5.9738596 -34.8111,3.16341 C -46.610512,-0.3879598 -36.169287,23.36222 -51.0611,11.75716 C -42.695593,27.198247 -46.887404,50.869248 -67.774571,52.93546 C -84.797965,48.901416 -97.365221,70.083846 -110.2591,67.709843 C -120.80375,52.397657 -113.8986,21.858629 -91.193888,27.681153 C -76.723747,29.255663 -58.147564,32.595952 -65.560463,11.6206 C -66.480904,0.48781391 -99.369043,-14.114395 -76.027625,-17.707284 C -62.994294,-15.800841 -70.688428,-45.1749 -55.5298,-47.11784 z"
             id="path7865" />
          <path
             style="fill:#17181f;fill-opacity:1;fill-rule:evenodd;stroke:none;stroke-width:2;stroke-linecap:round;stroke-linejoin:round;marker:none;marker-start:none;marker-mid:none;marker-end:none;stroke-miterlimit:4;stroke-dasharray:none;stroke-dashoffset:0;stroke-opacity:1;visibility:visible;display:inline;overflow:visible;enable-background:accumulate"
             d="M -15.6143,356.37335 C -22.403173,348.83063 -23.847293,321.53264 -34.489275,341.94889 C -39.58243,350.62995 -72.942118,356.79425 -56.9094,339.77171 C -55.617849,321.05302 -79.360657,353.51043 -86.4827,358.69466 C -94.385792,362.87469 -115.11741,390.63515 -94.150446,376.7933 C -78.640382,368.8715 -85.08388,396.03006 -75.739242,402.81566 C -69.384613,424.63267 -74.873372,371.69165 -63.846324,395.54027 C -62.987584,403.27091 -53.017697,420.96631 -52.531147,403.75393 C -61.296008,392.46749 -72.899481,371.94425 -48.689134,371.77027 C -35.270978,369.22249 -35.187949,352.82877 -19.106794,359.58745 L -17.247051,358.49013 L -15.6143,356.37334 L -15.6143,356.37335 z"
             id="path5063" />
          <path
             style="fill:#17181f;fill-opacity:1;fill-rule:evenodd;stroke:none;stroke-width:2;stroke-linecap:round;stroke-linejoin:round;marker:none;marker-start:none;marker-mid:none;marker-end:none;stroke-miterlimit:4;stroke-dasharray:none;stroke-dashoffset:0;stroke-opacity:1;visibility:visible;display:inline;overflow:visible;enable-background:accumulate"
             d="M 169.3139,461.53842 C 184.14255,467.81097 192.62438,486.0979 210.32585,485.60358 C 226.18786,487.98866 242.80098,487.03873 258.16596,484.20278 C 262.32862,488.35318 238.27376,499.63396 252.96739,499.02631 C 266.88805,497.13142 265.22926,523.52747 259.04175,529.63398 C 254.22504,515.81311 235.402,515.91588 220.92055,516.42327 C 208.87869,513.23268 197.25303,513.89383 194.48603,526.77728 C 180.21929,539.76238 172.6587,525.31067 167.48008,513.51821 C 158.05933,511.10611 135.15473,513.71987 133.96725,503.36357 C 145.53598,492.59566 179.90963,511.12997 177.43667,487.44154 C 177.55876,481.14904 158.92597,462.94332 169.3139,461.53842 z"
             id="path5266" />
          <path
             style="fill:#17181f;fill-opacity:1;fill-rule:evenodd;stroke:none;stroke-width:2;stroke-linecap:round;stroke-linejoin:round;marker:none;marker-start:none;marker-mid:none;marker-end:none;stroke-miterlimit:4;stroke-dasharray:none;stroke-dashoffset:0;stroke-opacity:1;visibility:visible;display:inline;overflow:visible;enable-background:accumulate"
             d="M -40.6861,443.03842 C -21.520982,445.72357 -2.0978504,465.14468 -10.440908,485.44007 C -19.57033,496.44196 -29.373421,509.94759 -32.266278,522.07079 C -47.029658,509.95561 -22.895695,492.76471 -21.759138,482.93371 C -34.249304,490.86897 -43.020668,472.21898 -26.364469,473.5633 C -19.96338,466.90381 -46.450745,470.49859 -43.742038,482.06718 C -59.084002,491.76118 -55.148323,462.12979 -40.126756,463.89505 C -15.251819,461.29746 -52.618149,451.19604 -40.6861,443.03842 z"
             id="path5306" />
          <path
             style="fill:#17181f;fill-opacity:1;fill-rule:evenodd;stroke:none;stroke-width:2;stroke-linecap:round;stroke-linejoin:round;marker:none;marker-start:none;marker-mid:none;marker-end:none;stroke-miterlimit:4;stroke-dasharray:none;stroke-dashoffset:0;stroke-opacity:1;visibility:visible;display:inline;overflow:visible;enable-background:accumulate"
             d="M 78.813904,492.81967 C 88.192007,510.5364 111.96257,487.89386 120.67632,503.74975 C 115.91346,513.5498 99.194065,520.60989 115.11249,531.09693 C 120.82836,548.58055 103.41767,532.34572 101.62971,533.18887 C 96.278951,545.21022 125.88747,547.53361 108.65652,554.63899 C 89.357774,550.90477 97.998149,508.07179 76.012264,530.57044 C 70.225804,521.2258 58.023418,537.39857 52.928584,521.66838 C 50.288637,503.30086 72.306848,505.90213 78.813904,492.81967 z"
             id="path5321" />
          <path
             style="fill:#17181f;fill-opacity:1;fill-rule:evenodd;stroke:none;stroke-width:2;stroke-linecap:round;stroke-linejoin:round;marker:none;marker-start:none;marker-mid:none;marker-end:none;stroke-miterlimit:4;stroke-dasharray:none;stroke-dashoffset:0;stroke-opacity:1;visibility:visible;display:inline;overflow:visible;enable-background:accumulate"
             d="M 478.44601,-72.782677 C 478.18308,-83.682977 491.73421,-106.25362 470.27227,-95.140732 C 460.35655,-92.70644 432.83302,-106.30542 455.38914,-110.77542 C 466.31347,-123.7424 435.07313,-114.25259 428.14026,-113.79573 C 418.57182,-110.67234 394.6112,-113.29785 393.98151,-103.34469 C 405.83703,-104.77129 416.82843,-97.845455 405.26993,-87.088703 C 406.25592,-78.639428 394.4587,-54.213653 408.576,-70.884521 C 423.5927,-90.312841 410.9486,-56.836501 413.97176,-51.449931 C 427.90157,-56.316666 416.00976,-97.808562 442.90163,-79.639321 C 454.72524,-73.048931 465.10048,-88.276306 473.50308,-72.331093 L 475.30878,-71.99872 L 478.44601,-72.782677 L 478.44601,-72.782677 z"
             id="path5609" />
          <path
             style="fill:#17181f;fill-opacity:1;fill-rule:evenodd;stroke:none;stroke-width:2;stroke-linecap:round;stroke-linejoin:round;marker:none;marker-start:none;marker-mid:none;marker-end:none;stroke-miterlimit:4;stroke-dasharray:none;stroke-dashoffset:0;stroke-opacity:1;visibility:visible;display:inline;overflow:visible;enable-background:accumulate"
             d="M 54.288948,1.4176929 C 47.103815,-16.418719 53.991227,-42.708321 75.519253,-45.931621 C 89.742419,-42.596997 107.71086,-43.539054 118.94255,-44.488809 C 113.54221,-26.528976 88.429767,-39.100016 79.536139,-34.829042 C 95.289613,-18.824562 75.016422,-19.849314 70.4529,-26.339676 C 69.373322,-8.026323 106.20672,-21.88204 90.647848,-3.7720807 C 77.195088,4.6920197 59.241143,-31.932932 61.53605,-2.4336952 C 62.413787,1.1675092 56.571886,5.1005716 54.288948,1.4176929 z"
             id="path5613" />
          <path
             style="fill:#17181f;fill-opacity:1;fill-rule:evenodd;stroke:none;stroke-width:2;stroke-linecap:round;stroke-linejoin:round;marker:none;marker-start:none;marker-mid:none;marker-end:none;stroke-miterlimit:4;stroke-dasharray:none;stroke-dashoffset:0;stroke-opacity:1;visibility:visible;display:inline;overflow:visible;enable-background:accumulate"
             d="M 333.56274,16.595617 C 344.78235,18.575327 361.14341,24.846613 365.95072,9.7524275 C 374.71774,3.2401935 383.33513,-14.773815 394.14266,-11.198642 C 395.57353,1.4766261 385.20986,10.753342 376.35645,18.027388 C 375.8011,26.170779 390.68747,25.10814 396.29608,29.802798 C 402.66081,31.180516 428.19339,54.88613 409.57861,49.049688 C 396.11147,44.021423 382.16244,40.03896 370.57271,31.047608 C 358.09465,37.10961 334.6711,32.854953 333.56275,16.595618 L 333.56274,16.595617 z"
             id="path5615" />
          <path
             style="fill:#17181f;fill-opacity:1;fill-rule:evenodd;stroke:none;stroke-width:2;stroke-linecap:round;stroke-linejoin:round;marker:none;marker-start:none;marker-mid:none;marker-end:none;stroke-miterlimit:4;stroke-dasharray:none;stroke-dashoffset:0;stroke-opacity:1;visibility:visible;display:inline;overflow:visible;enable-background:accumulate"
             d="M 233.92886,-120.42481 C 245.53401,-107.50877 213.36393,-81.435144 241.72248,-78.732832 C 250.55875,-74.717267 282.70763,-79.616609 260.58025,-67.054387 C 246.86746,-68.206019 214.69471,-73.649277 225.85986,-48.931441 C 224.63349,-36.963497 203.81649,-26.156608 222.78386,-16.286359 C 232.36584,-8.1743389 230.32204,10.256773 247.86517,4.9157882 C 257.68076,3.1290113 282.07737,12.01049 262.1333,17.967617 C 238.49261,7.917342 231.83898,35.071937 234.95992,52.933239 C 237.24194,63.962892 224.10309,73.841805 226.20923,56.772433 C 225.18903,44.505284 215.76332,10.934869 200.54432,29.642171 C 189.26405,36.419552 178.64473,60.250469 164.49666,51.02117 C 171.46238,33.298808 195.02566,27.240748 203.00145,9.1172438 C 205.88734,-5.4886735 207.92699,-37.434148 183.72319,-28.335443 C 166.08533,-18.076441 140.56931,-34.025912 158.05259,-52.35153 C 176.14595,-58.517252 193.81623,-32.558227 211.41443,-46.558925 C 221.27008,-62.364304 207.05067,-78.044404 200.08146,-90.91006 C 205.12846,-98.126749 221.29713,-88.353982 220.26116,-104.20445 C 222.83272,-110.26675 227.66338,-118.37402 233.92886,-120.42481 z"
             id="path5617" />
          <path
             style="fill:#17181f;fill-opacity:1;fill-rule:evenodd;stroke:none;stroke-width:2;stroke-linecap:round;stroke-linejoin:round;marker:none;marker-start:none;marker-mid:none;marker-end:none;stroke-miterlimit:4;stroke-dasharray:none;stroke-dashoffset:0;stroke-opacity:1;visibility:visible;display:inline;overflow:visible;enable-background:accumulate"
             d="M 558.90625,509.90625 C 539.59229,517.18247 519.10411,520.6773 498.51472,520.909 C 484.10937,516.35643 460.99361,514.61239 460.89259,534.43065 C 452.24758,543.10681 468.31782,556.48931 458.38561,565.73412 C 465.92608,580.01258 482.35757,592.87196 478.46076,610.80392 C 469.72727,621.16781 464.48694,640.71557 484.25658,634.90516 C 495.36263,637.24017 478.21626,623.90766 487.02795,616.56505 C 483.61439,600.78011 495.80157,598.31964 506.17663,607.79177 C 515.34257,615.67005 533.66221,607.57066 514.80791,603.7463 C 502.51861,604.74673 503.96463,597.51512 506.54778,590.03197 C 486.56969,601.26531 482.69918,577.57233 477.59035,563.85998 C 471.43819,547.95527 470.3288,528.398 492.97655,531.88813 C 513.38552,525.68472 514.21631,550.43567 526.60047,559.82621 C 531.25689,569.22667 551.49324,568.70506 535.34923,559.7176 C 522.03536,551.67061 513.79295,525.37592 538.22326,528.77868 C 555.64056,531.12749 554.87448,556.62426 575.53817,555.05775 C 592.12836,561.51787 605.26724,559.98892 600,539.57687 C 593.8472,541.8263 574.11257,554.9933 563.37091,540.95255 C 546.44421,534.68613 553.95453,518.2873 561.55635,510.86457 L 558.90625,509.90625 z"
             id="path5786" />
          <path
             style="fill:#17181f;fill-opacity:1;fill-rule:evenodd;stroke:none;stroke-width:2;stroke-linecap:round;stroke-linejoin:round;marker:none;marker-start:none;marker-mid:none;marker-end:none;stroke-miterlimit:4;stroke-dasharray:none;stroke-dashoffset:0;stroke-opacity:1;visibility:visible;display:inline;overflow:visible;enable-background:accumulate"
             d="M 470,-165.09483 C 463.3597,-144.15801 494.00173,-138.29358 491.06633,-119.94404 C 490.50738,-103.77386 485.82806,-79.478483 503.30594,-72.742811 C 507.16833,-70.47484 521.99297,-83.950779 516.53725,-68.776509 C 513.52264,-49.912184 516.70947,-25.731628 535.39917,-16.125453 C 551.00304,-9.792406 575.37638,-17.042608 550.51928,-27.731361 C 556.65072,-39.723064 554.21294,-45.855189 540.02468,-45.090813 C 517.1071,-56.70456 542.05397,-73.859539 556.96747,-61.306358 C 573.04075,-58.242872 589.20293,-54.98055 600,-41.393787 C 598.83333,-50.390343 589.91203,-57.816304 600,-63.689303 C 596.20315,-69.665527 564.34502,-58.787857 581.16762,-76.241803 C 589.53667,-85.01728 580.93163,-114.7305 576.33094,-91.684658 C 575.49286,-72.620949 547.32862,-61.733901 537.03125,-80 C 526.03831,-95.605164 551.03078,-102.00913 561.03125,-92.8125 C 576.4159,-92.302758 545.52767,-104.36319 565.27003,-105.19152 C 572.97282,-120.97588 543.7365,-98.314666 536.03327,-104.23849 C 525.68218,-116.52585 494.98465,-114.7526 497.88661,-135.056 C 511.72186,-144.19715 534.29675,-130.71774 545,-149.21875 C 524.01628,-142.2159 503.0226,-153.15908 487.56886,-165.09484 C 481.71257,-165.09484 475.85627,-165.09485 470,-165.09483 z"
             id="path5788" />
          <path
             style="fill:#17181f;fill-opacity:1;fill-rule:evenodd;stroke:none;stroke-width:2;stroke-linecap:round;stroke-linejoin:round;marker:none;marker-start:none;marker-mid:none;marker-end:none;stroke-miterlimit:4;stroke-dasharray:none;stroke-dashoffset:0;stroke-opacity:1;visibility:visible;display:inline;overflow:visible;enable-background:accumulate"
             d="M -150,-65.90625 C -152.53053,-57.76331 -143.6332,-62.93222 -150,-65.90625 z M -150,-46.15625 C -152.42111,-34.89794 -132.80492,-34.56705 -147.875,-44 L -150,-46.15625 z"
             id="path5802" />
          <path
             style="fill:#17181f;fill-opacity:1;fill-rule:evenodd;stroke:none;stroke-width:2;stroke-linecap:round;stroke-linejoin:round;marker:none;marker-start:none;marker-mid:none;marker-end:none;stroke-miterlimit:4;stroke-dasharray:none;stroke-dashoffset:0;stroke-opacity:1;visibility:visible;display:inline;overflow:visible;enable-background:accumulate"
             d="M -147.40625,510.78125 C -151.8401,520.25465 -137.88064,532.32921 -150,540.11073 C -154.88437,557.92651 -144.67429,562.67592 -128.47854,560.46692 C -107.81612,563.55337 -83.737776,572.70872 -67.239183,554.33279 C -77.444266,557.64222 -101.17688,566.01013 -116.70379,555.926 C -143.7874,544.79803 -83.651314,538.70668 -102.54374,528.30932 C -114.04666,527.59768 -140.50038,557.88976 -137.13298,530.60728 C -132.17789,523.87911 -142.21251,513.81919 -147.40625,510.78125 z"
             id="path5804" />
          <path
             style="fill:#17181f;fill-opacity:1;fill-rule:evenodd;stroke:none;stroke-width:2;stroke-linecap:round;stroke-linejoin:round;marker:none;marker-start:none;marker-mid:none;marker-end:none;stroke-miterlimit:4;stroke-dasharray:none;stroke-dashoffset:0;stroke-opacity:1;visibility:visible;display:inline;overflow:visible;enable-background:accumulate"
             d="M 244.15625,-165 C 239.39228,-156.7475 230.68364,-124.44169 249.35732,-136.51056 C 262.7606,-140.95893 248.6946,-156.82311 257.84375,-165 C 253.28125,-165 248.71875,-165 244.15625,-165 z M 282.25,-165 C 285.76663,-157.4851 302.91036,-151.93027 293.34375,-165 C 289.64583,-165 285.94792,-165 282.25,-165 z"
             id="path5808" />
          <path
             style="fill:#17181f;fill-opacity:1;fill-rule:evenodd;stroke:none;stroke-width:2;stroke-linecap:round;stroke-linejoin:round;marker:none;marker-start:none;marker-mid:none;marker-end:none;stroke-miterlimit:4;stroke-dasharray:none;stroke-dashoffset:0;stroke-opacity:1;visibility:visible;display:inline;overflow:visible;enable-background:accumulate"
             d="M -148.34375,65 C -153.9448,71.344893 -147.94962,79.819182 -142.27667,68.433623 C -139.20743,63.527591 -146.00019,65.357677 -148.34375,65 z M -121.125,106.21875 C -133.68633,114.0345 -157.06725,108.38287 -150,130.33203 C -146.28299,135.35947 -140.64117,112.48342 -129.78931,122.65151 C -115.70265,136.79532 -109.18286,109.70366 -121.125,106.21875 z"
             id="path5818" />
        </g>
      </g>
    </pattern>
    <pattern
       id="Ermine1"
       patternTransform="translate(1955.063,1007.812)"
       height="797.1563"
       width="783.0938"
       patternUnits="userSpaceOnUse"
       inkscape:stockid="Ermine1">
      <g
         id="g2575">
        <path
           id="path3042"
           d="M 566.875,361.3125 C 529.0236,361.3125 498.2813,392.0549 498.2813,429.9063 C 498.2812,467.7576 529.0236,498.4688 566.875,498.4688 C 604.7264,498.4688 635.4376,467.7577 635.4375,429.9063 C 635.4375,392.0549 604.7264,361.3124 566.875,361.3125 z "
           style="fill:black;fill-opacity:1;fill-rule:evenodd;stroke:none;stroke-width:1;stroke-linecap:butt;stroke-linejoin:miter;stroke-miterlimit:4;stroke-opacity:1" />
        <path
           id="path3052"
           d="M 177.1563,0.3438 C 139.3049,0.3438 108.5937,31.0549 108.5938,68.9063 C 108.5937,106.7576 139.3049,137.5 177.1563,137.5 C 215.0076,137.5 245.7187,106.7577 245.7188,68.9063 C 245.7187,31.0548 215.0077,0.3437 177.1563,0.3438 z "
           style="fill:black;fill-opacity:1;fill-rule:evenodd;stroke:none;stroke-width:1;stroke-linecap:butt;stroke-linejoin:miter;stroke-miterlimit:4;stroke-opacity:1" />
        <path
           id="path3050"
           d="M 783.0938,117.9375 C 780.7361,124.8667 779.4375,132.2766 779.4375,140 C 779.4375,147.7184 780.739,155.1372 783.0938,162.0625 L 783.0938,117.9375 z "
           style="opacity:0;fill:black;fill-opacity:1;fill-rule:evenodd;stroke:none;stroke-width:1;stroke-linecap:butt;stroke-linejoin:miter;stroke-miterlimit:4;stroke-opacity:1" />
        <path
           id="path3048"
           d="M 285.7188,140.7813 C 247.8674,140.7813 217.1562,171.4923 217.1563,209.3438 C 217.1562,247.1952 247.8674,277.9063 285.7188,277.9063 C 323.5701,277.9062 354.2812,247.1952 354.2813,209.3438 C 354.2812,171.4922 323.5702,140.7812 285.7188,140.7813 z "
           style="fill:black;fill-opacity:1;fill-rule:evenodd;stroke:none;stroke-width:1;stroke-linecap:butt;stroke-linejoin:miter;stroke-miterlimit:4;stroke-opacity:1" />
        <path
           id="path3044"
           d="M 161.375,165.0625 C 144.5529,433.1274 73.2846,537.8537 28.5938,722.3125 L 126.6875,653.7188 L 180,722.25 L 233.3125,653.6563 L 325.6875,722.2188 C 273.5294,536.1817 207.5474,433.4236 192.75,165.0625 L 161.375,165.0625 z "
           style="fill:black;fill-opacity:1;fill-rule:evenodd;stroke:none;stroke-width:1;stroke-linecap:butt;stroke-linejoin:miter;stroke-miterlimit:4;stroke-opacity:1" />
        <path
           id="path3036"
           d="M 551.0938,526.0313 C 543.9707,639.5402 527.0898,723.766 506.5938,797.1563 L 624,797.1563 C 604.2615,723.9134 588.7464,639.8817 582.4688,526.0313 L 551.0938,526.0313 z "
           style="fill:black;fill-opacity:1;fill-rule:evenodd;stroke:none;stroke-width:1;stroke-linecap:butt;stroke-linejoin:miter;stroke-miterlimit:4;stroke-opacity:1" />
        <path
           id="path3040"
           d="M 675.4375,501.75 C 637.5861,501.75 606.8751,532.4611 606.875,570.3125 C 606.875,608.1639 637.586,638.9062 675.4375,638.9063 C 713.2889,638.9063 744.0001,608.1639 744,570.3125 C 744,532.4611 713.2888,501.75 675.4375,501.75 z "
           style="fill:black;fill-opacity:1;fill-rule:evenodd;stroke:none;stroke-width:1;stroke-linecap:butt;stroke-linejoin:miter;stroke-miterlimit:4;stroke-opacity:1" />
        <path
           id="path3046"
           d="M 68.5938,143.625 C 30.7424,143.625 0,174.3673 0,212.2188 C 0,250.0702 30.7423,280.7812 68.5938,280.7813 C 106.4451,280.7813 137.1562,250.0701 137.1563,212.2188 C 137.1563,174.3674 106.4451,143.625 68.5938,143.625 z "
           style="fill:black;fill-opacity:1;fill-rule:evenodd;stroke:none;stroke-width:1;stroke-linecap:butt;stroke-linejoin:miter;stroke-miterlimit:4;stroke-opacity:1" />
        <path
           id="path3054"
           d="M 507.4063,0 C 479.357,101.3316 444.3358,181.7154 418.3125,289.125 L 516.4063,220.5313 L 569.7188,289.0938 L 623.0313,220.5 L 715.4063,289.0313 C 685.0745,180.844 650.0844,100.8068 623.1875,0 L 507.4063,0 z "
           style="fill:black;fill-opacity:1;fill-rule:evenodd;stroke:none;stroke-width:1;stroke-linecap:butt;stroke-linejoin:miter;stroke-miterlimit:4;stroke-opacity:1" />
        <path
           id="path3038"
           d="M 458.2813,504.625 C 420.4299,504.625 389.7186,535.3361 389.7188,573.1875 C 389.7187,611.0389 420.4299,641.75 458.2813,641.75 C 496.1326,641.75 526.8751,611.0389 526.875,573.1875 C 526.875,535.3361 496.1327,504.6251 458.2813,504.625 z "
           style="fill:black;fill-opacity:1;fill-rule:evenodd;stroke:none;stroke-width:1;stroke-linecap:butt;stroke-linejoin:miter;stroke-miterlimit:4;stroke-opacity:1" />
      </g>
    </pattern>
  </defs>
  <sodipodi:namedview
     id="base"
     pagecolor="#ffffff"
     bordercolor="#666666"
     borderopacity="1.0"
     gridtolerance="10000"
     guidetolerance="10"
     objecttolerance="10"
     inkscape:pageopacity="0.0"
     inkscape:pageshadow="2"
     inkscape:zoom="0.7"
     inkscape:cx="231.47403"
     inkscape:cy="634.24082"
     inkscape:document-units="px"
     inkscape:current-layer="layer1"
     inkscape:window-width="1280"
     inkscape:window-height="968"
     inkscape:window-x="-4"
     inkscape:window-y="-4" />
  <metadata
     id="metadata2390">
    <rdf:RDF>
      <cc:Work
         rdf:about="">
        <dc:format>image/svg+xml</dc:format>
        <dc:type
           rdf:resource="http://purl.org/dc/dcmitype/StillImage" />
      </cc:Work>
    </rdf:RDF>
  </metadata>
  <g
     inkscape:label="Layer 1"
     inkscape:groupmode="layer"
     id="layer1" />
</svg>
