/* XPM */
static char * inkscape_xpm[] = {
"32 32 60 1",
" 	c None",
".	c #000000",
"+	c #050505",
"@	c #646464",
"#	c #404040",
"$	c #232323",
"%	c #C9C9C9",
"&	c #FFFFFF",
"*	c #FEFEFE",
"=	c #939393",
"-	c #070707",
";	c #5F5F5F",
">	c #F2F2F2",
",	c #CECECE",
"'	c #252525",
")	c #030303",
"!	c #9E9E9E",
"~	c #5A5A5A",
"{	c #9C9C9C",
"]	c #FBFBFB",
"^	c #9B9B9B",
"/	c #0D0D0D",
"(	c #707070",
"_	c #D1D1D1",
":	c #ADADAD",
"<	c #565656",
"[	c #929292",
"}	c #C7C7C7",
"|	c #272727",
"1	c #1B1B1B",
"2	c #F8F8F8",
"3	c #656565",
"4	c #636363",
"5	c #DADADA",
"6	c #181818",
"7	c #171717",
"8	c #454545",
"9	c #3A3A3A",
"0	c #EDEDED",
"a	c #0A0A0A",
"b	c #1A1A1A",
"c	c #BBBBBB",
"d	c #1F1F1F",
"e	c #020202",
"f	c #525252",
"g	c #010101",
"h	c #3D3D3D",
"i	c #1C1C1C",
"j	c #505050",
"k	c #0B0B0B",
"l	c #060606",
"m	c #080808",
"n	c #878888",
"o	c #999A9A",
"p	c #7A7C7C",
"q	c #484949",
"r	c #282828",
"s	c #202020",
"t	c #555656",
"u	c #808282",
"                                ",
"              ....              ",
"             .+@#..             ",
"            .$%&*=-.            ",
"           .;>&&&&,'.           ",
"          )!&&&&&&&>~.          ",
"         .{&&&]&&&&&&^/         ",
"        .(&&&_:&&&&&<[}|        ",
"       .12&&&34&&>5&6.78.       ",
"      ..9&&&0ab*cdefg.....      ",
"     ...d(<hi..jg..........     ",
"    ........................    ",
"   ..........................   ",
"  ............................  ",
" .............................. ",
"................................",
"................................",
"  ..............................",
"     .......................... ",
"       ...kl.................   ",
"      ....mnopqrg.........      ",
"    .........stuk......         ",
"     ..................         ",
"        ................   ...  ",
"           .............. ....  ",
"        .. .............        ",
"       ... ...........   .      ",
"       .. ..........     ..     ",
"           .........            ",
"              .......           ",
"               ....             ",
"                                "};
