<?xml version="1.0" encoding="UTF-8" standalone="no"?>
<!-- Created with Inkscape (http://www.inkscape.org/) -->

<svg xmlns:dc="http://purl.org/dc/elements/1.1/" xmlns:cc="http://creativecommons.org/ns#" xmlns:rdf="http://www.w3.org/1999/02/22-rdf-syntax-ns#" xmlns:svg="http://www.w3.org/2000/svg" xmlns="http://www.w3.org/2000/svg" xmlns:xlink="http://www.w3.org/1999/xlink" xmlns:sodipodi="http://sodipodi.sourceforge.net/DTD/sodipodi-0.dtd" xmlns:inkscape="http://www.inkscape.org/namespaces/inkscape" id="svg1725" sodipodi:version="0.32" inkscape:version="0.91+devel r14709" width="210mm" height="297mm" sodipodi:docname="inkscape-text.svg" inkscape:output_extension="org.inkscape.output.svg.inkscape" version="1.1" viewBox="0 0 793.7008 1122.52">
<defs id="defs1727">
<filter inkscape:collect="always" id="filter6017" style="color-interpolation-filters:sRGB">
<feGaussianBlur inkscape:collect="always" stdDeviation="0.80546496" id="feGaussianBlur6019" />
</filter>
<filter inkscape:collect="always" id="filter6031" style="color-interpolation-filters:sRGB">
<feGaussianBlur inkscape:collect="always" stdDeviation="3.4903482" id="feGaussianBlur6033" />
</filter>
<linearGradient inkscape:collect="always" xlink:href="#linearGradient5785" id="linearGradient9175" gradientUnits="userSpaceOnUse" x1="82.11859" y1="20" x2="60" y2="40" />
<linearGradient gradientUnits="userSpaceOnUse" id="linearGradient5785">
<stop id="stop5787" offset="0" style="stop-color:#c0cdf9;stop-opacity:1" />
<stop id="stop5789" offset="1" style="stop-color:#07092d;stop-opacity:0.28804347" />
</linearGradient>
<filter inkscape:collect="always" id="filter8490" style="color-interpolation-filters:sRGB">
<feGaussianBlur inkscape:collect="always" stdDeviation="2.4163949" id="feGaussianBlur8492" />
</filter>
<linearGradient gradientUnits="userSpaceOnUse" y2="60" x2="58" y1="35" x1="33" xlink:href="#WhiteTransparent-4" id="shinySpecular-4" gradientTransform="matrix(1.009184,0,0,1.009184,-0.3890738,-0.3831933)" />
<linearGradient gradientUnits="userSpaceOnUse" id="WhiteTransparent-4">
<stop id="stop7606-4" offset="0" style="stop-color:white;stop-opacity:1" />
<stop id="stop7608-7" offset="1" style="stop-color:white;stop-opacity:0" />
</linearGradient>
<linearGradient gradientUnits="userSpaceOnUse" y2="50" x2="90" y1="20" x1="60" xlink:href="#WhiteTransparent-4" id="IcecapTip-6" />
<radialGradient inkscape:collect="always" xlink:href="#WhiteTransparent-4" id="radialGradient9177" gradientUnits="userSpaceOnUse" gradientTransform="matrix(1.570052,0,0,1.05093,-75.50011,-22.09591)" cx="116.3104" cy="250.8974" fx="116.3104" fy="250.8974" r="30.59958" />
<radialGradient inkscape:collect="always" xlink:href="#WhiteTransparent-4" id="radialGradient8574" cx="132.4443" cy="251.994" fx="132.4443" fy="251.994" r="30.59958" gradientTransform="matrix(2.003253,0,0,1.340898,-132.8752,-95.16607)" gradientUnits="userSpaceOnUse" />
<filter inkscape:collect="always" id="filter8732" x="-0.07807916" width="1.156158" y="-0.1142206" height="1.228441" style="color-interpolation-filters:sRGB">
<feGaussianBlur inkscape:collect="always" stdDeviation="1.9579068" id="feGaussianBlur8734" />
</filter>
<radialGradient inkscape:collect="always" xlink:href="#WhiteTransparent-4" id="radialGradient8744" cx="210.25" cy="168.5" fx="210.25" fy="168.5" r="34.25" gradientTransform="matrix(1,0,0,0.4233577,0,97.16423)" gradientUnits="userSpaceOnUse" />
<radialGradient inkscape:collect="always" xlink:href="#WhiteTransparent-4" id="radialGradient8768" gradientUnits="userSpaceOnUse" gradientTransform="matrix(1,0,0,0.4233577,0,97.16423)" cx="217.5" cy="182.0819" fx="217.5" fy="182.0819" r="34.25" />
<filter inkscape:collect="always" id="filter8764" x="-0.07426214" width="1.148524" y="-0.1754123" height="1.350825" style="color-interpolation-filters:sRGB">
<feGaussianBlur inkscape:collect="always" stdDeviation="2.1195652" id="feGaussianBlur8766" />
</filter>
<linearGradient inkscape:collect="always" xlink:href="#WhiteTransparent-4" id="linearGradient8912" x1="231.625" y1="195.1875" x2="231.75" y2="201.5" gradientUnits="userSpaceOnUse" />
<linearGradient inkscape:collect="always" xlink:href="#WhiteTransparent-4" id="linearGradient8910" x1="231.3765" y1="195.6213" x2="231.3765" y2="200.0714" gradientUnits="userSpaceOnUse" />
<filter inkscape:collect="always" id="filter8906" x="-0.08544133" width="1.170883" y="-0.278232" height="1.556464" style="color-interpolation-filters:sRGB">
<feGaussianBlur inkscape:collect="always" stdDeviation="0.56515877" id="feGaussianBlur8908" />
</filter>
<radialGradient inkscape:collect="always" xlink:href="#WhiteTransparent-4" id="radialGradient8922" cx="228.2188" cy="204.8323" fx="228.2188" fy="204.8323" r="14.09375" gradientTransform="matrix(1,0,0,0.1477455,0,174.5692)" gradientUnits="userSpaceOnUse" />
<filter inkscape:collect="always" id="filter8980" x="-0.06986277" width="1.139725" y="-0.4728589" height="1.945718" style="color-interpolation-filters:sRGB">
<feGaussianBlur inkscape:collect="always" stdDeviation="0.82052366" id="feGaussianBlur8982" />
</filter>
<radialGradient inkscape:collect="always" xlink:href="#WhiteTransparent-4" id="radialGradient8994" gradientUnits="userSpaceOnUse" gradientTransform="matrix(1,0,0,0.1477455,0,174.5692)" cx="228.2188" cy="204.8323" fx="228.2188" fy="204.8323" r="14.09375" />
<radialGradient inkscape:collect="always" xlink:href="#WhiteTransparent-4" id="radialGradient9004" cx="89.875" cy="187.8694" fx="89.875" fy="187.8694" r="22.75" gradientTransform="matrix(1,0,0,0.4070844,0,115.7601)" gradientUnits="userSpaceOnUse" />
<radialGradient inkscape:collect="always" xlink:href="#WhiteTransparent-4" id="radialGradient9046" cx="90.28125" cy="230.8363" fx="90.28125" fy="230.8363" r="10.46875" gradientTransform="matrix(1.185075,-0.3283582,0.1228557,0.4433973,-45.06831,152.9216)" gradientUnits="userSpaceOnUse" />
<filter inkscape:collect="always" id="filter9068" x="-0.07617928" width="1.152359" y="-0.1655701" height="1.33114" style="color-interpolation-filters:sRGB">
<feGaussianBlur inkscape:collect="always" stdDeviation="0.66458488" id="feGaussianBlur9070" />
</filter>
<radialGradient inkscape:collect="always" xlink:href="#WhiteTransparent-4" id="radialGradient11553" gradientUnits="userSpaceOnUse" gradientTransform="matrix(1.722153,0,0,1.694977,-49.39526,-14.07806)" cx="68.39994" cy="21.22575" fx="68.39994" fy="21.22575" r="54.7834" />
<filter inkscape:collect="always" id="filter9298" style="color-interpolation-filters:sRGB">
<feGaussianBlur inkscape:collect="always" stdDeviation="0.32610678" id="feGaussianBlur9300" />
</filter>
<linearGradient inkscape:collect="always" xlink:href="#WhiteTransparent-4" id="linearGradient5905" x1="95.5" y1="208.1644" x2="153.5" y2="223.5" gradientUnits="userSpaceOnUse" />
<filter inkscape:collect="always" id="filter5983-5" x="-0.08250898" width="1.165018" y="-0.1223357" height="1.244671" style="color-interpolation-filters:sRGB">
<feGaussianBlur inkscape:collect="always" stdDeviation="3.6868363" id="feGaussianBlur5985-9" />
</filter>
<linearGradient inkscape:collect="always" xlink:href="#linearGradient5793-6" id="linearGradient5801" x1="57.2252" y1="76.24634" x2="53.63158" y2="84.48032" gradientUnits="userSpaceOnUse" gradientTransform="matrix(0.8852575,0,0,0.8852575,5.177215,9.229337)" />
<linearGradient inkscape:collect="always" id="linearGradient5793-6">
<stop style="stop-color:#eeeeec;stop-opacity:1;" offset="0" id="stop5795-2" />
<stop style="stop-color:#eeeeec;stop-opacity:0;" offset="1" id="stop5797-1" />
</linearGradient>
<radialGradient inkscape:collect="always" xlink:href="#WhiteTransparent-4" id="radialGradient5811" cx="181.2273" cy="214.5512" fx="181.2273" fy="214.5512" r="22.4664" gradientTransform="matrix(1.351523,0,0,1.717571,-63.70565,-153.9557)" gradientUnits="userSpaceOnUse" />
<filter inkscape:collect="always" id="filter5845" style="color-interpolation-filters:sRGB">
<feGaussianBlur inkscape:collect="always" stdDeviation="1.2409356" id="feGaussianBlur5847" />
</filter>
<linearGradient inkscape:collect="always" xlink:href="#WhiteTransparent-4" id="linearGradient5822" gradientUnits="userSpaceOnUse" gradientTransform="matrix(0.4927913,0,0,0.4927913,-6.000388,-9.722518)" x1="73.7121" y1="180.4757" x2="82.75407" y2="187.6597" />
<linearGradient y2="144.5" x2="153.7005" y1="217.5" x1="180.8129" gradientTransform="translate(-130.1657,-83.35279)" gradientUnits="userSpaceOnUse" id="linearGradient1030" xlink:href="#linearGradient10981-3" inkscape:collect="always" />
<linearGradient inkscape:collect="always" id="linearGradient10981-3">
<stop style="stop-color:#729fcf;stop-opacity:1;" offset="0" id="stop10983-2" />
<stop style="stop-color:#729fcf;stop-opacity:0;" offset="1" id="stop10985-3" />
</linearGradient>
<filter inkscape:collect="always" id="filter10997-7" style="color-interpolation-filters:sRGB">
<feGaussianBlur inkscape:collect="always" stdDeviation="2.7696726" id="feGaussianBlur10999-0" />
</filter>
<linearGradient inkscape:collect="always" xlink:href="#WhiteTransparent-4" id="linearGradient10664" gradientUnits="userSpaceOnUse" x1="231.625" y1="195.1875" x2="231.75" y2="201.5" />
<linearGradient inkscape:collect="always" xlink:href="#WhiteTransparent-4" id="linearGradient10666" gradientUnits="userSpaceOnUse" x1="231.3765" y1="195.6213" x2="231.3765" y2="200.0714" />
<linearGradient inkscape:collect="always" xlink:href="#WhiteTransparent-4" id="linearGradient10668" gradientUnits="userSpaceOnUse" x1="231.625" y1="195.1875" x2="231.75" y2="201.5" />
<linearGradient inkscape:collect="always" xlink:href="#WhiteTransparent-4" id="linearGradient10670" gradientUnits="userSpaceOnUse" x1="231.3765" y1="195.6213" x2="231.3765" y2="200.0714" />
</defs>
<sodipodi:namedview id="base" pagecolor="#ffffff" bordercolor="#666666" borderopacity="1.0" inkscape:pageopacity="1.0000000" inkscape:pageshadow="2" inkscape:zoom="0.3663194" inkscape:cx="441.9576" inkscape:cy="529.6418" inkscape:window-width="820" inkscape:window-height="656" inkscape:window-x="134" inkscape:window-y="214" inkscape:current-layer="svg1725" inkscape:document-units="px" showgrid="false" />
<metadata id="metadata1728">
<rdf:RDF>
<cc:Work rdf:about="">
<dc:format>image/svg+xml</dc:format>
<dc:type rdf:resource="http://purl.org/dc/dcmitype/StillImage" />
<dc:title />
</cc:Work>
</rdf:RDF>
</metadata>
<text xml:space="preserve" style="font-style:normal;font-variant:normal;font-weight:normal;font-stretch:normal;font-size:95.7550049px;line-height:100%;font-family:'Euphoria Script';-inkscape-font-specification:'Euphoria Script';letter-spacing:0px;word-spacing:0px;fill:#000000;fill-opacity:1;stroke:none;stroke-width:0.498724px;stroke-linecap:butt;stroke-linejoin:miter;stroke-opacity:1" x="203.6835" y="814.5174" id="text9320"><tspan sodipodi:role="line" id="tspan9318" x="203.6835" y="814.5174" style="font-style:normal;font-variant:normal;font-weight:normal;font-stretch:normal;font-family:'Euphoria Script';-inkscape-font-specification:'Euphoria Script';stroke-width:0.498724px">Draw Freely</tspan></text>
<g style="display:inline;enable-background:new" transform="matrix(3.080382,0,0,3.079418,199.7108,215.352)" id="g9139">
<g style="opacity:0.7832512" transform="translate(3.68968e-7,0.4883067)" id="g6035">
<path inkscape:connector-curvature="0" sodipodi:nodetypes="ccccccccccccccccccccccc" style="fill:#000000;fill-opacity:1;filter:url(#filter6017)" d="m 54.1,12.98831 -41.2,42.2 c -15.6,15.6 10.1,14.3 19.4,20.2 4.3,2.8 -13.8,6.4 -10.1,10.1 3.6,3.7 21.7,7.1 25.3,10.7 3.6,3.69999 -7.3,7.59999 -3.7,11.29999 3.5,3.7 11.9,0.2 13.4,8.6 1.1,6.2 15.4,3.1 21.8,-2.2 4,-3.4 -6.9,-3.4 -3.3,-7.1 9,-9.09999 17,-4.1 20.3,-12.49999 1.8,-4.5 -13.6,-7.7 -9.5,-10.6 9.8,-6.9 45.8,-10.4 29.2,-27 l -42.7,-43.7 c -5.3,-5.000003 -14,-5.000003 -18.9,0 z m 47.3,81.3 c 0,2.1 16.3,3.3 15.4,-0.5 -1.3,-6.4 -13.6,-5.9 -15.4,0.5 z M 31.9,105.3883 c 3.7,3.2 9.3,-0.7 11.1,-5.2 -3.6,-4.69999 -16.9,0.3 -11.1,5.2 z m 67.5,-6.69999 c -4.6,4.19999 0.8,8.59999 5.3,5.69999 1.2,-0.8 -0.1,-4.7 -5.3,-5.69999 z" id="path5987" />
<path inkscape:connector-curvature="0" id="path6021" d="m 54.1,13.96492 -41.2,42.2 c -15.6,15.6 10.1,14.3 19.4,20.2 4.3,2.8 -13.8,6.4 -10.1,10.1 3.6,3.7 21.7,7.1 25.3,10.7 3.6,3.69998 -7.3,7.59998 -3.7,11.29998 3.5,3.7 11.9,0.2 13.4,8.6 1.1,6.2 15.4,3.1 21.8,-2.2 4,-3.4 -6.9,-3.4 -3.3,-7.1 9,-9.09998 17,-4.1 20.3,-12.49998 1.8,-4.5 -13.6,-7.7 -9.5,-10.6 9.8,-6.9 45.8,-10.4 29.2,-27 l -42.7,-43.7 c -5.3,-5 -14,-5 -18.9,0 z m 47.3,81.3 c 0,2.1 16.3,3.3 15.4,-0.5 -1.3,-6.4 -13.6,-5.9 -15.4,0.5 z M 31.9,106.3649 c 3.7,3.2 9.3,-0.7 11.1,-5.2 -3.6,-4.69998 -16.9,0.3 -11.1,5.2 z m 67.5,-6.69998 c -4.6,4.19998 0.8,8.59998 5.3,5.69998 1.2,-0.8 -0.1,-4.7 -5.3,-5.69998 z" style="opacity:0.5763547;fill:#000000;fill-opacity:1;filter:url(#filter6031)" sodipodi:nodetypes="ccccccccccccccccccccccc" />
</g>
<path inkscape:connector-curvature="0" sodipodi:nodetypes="ccccccccccccccccccccccc" style="fill:#000000;fill-opacity:1" d="M 54.1,12.5 12.9,54.7 C -2.7,70.3 23,69 32.3,74.9 36.6,77.7 18.5,81.3 22.2,85 c 3.6,3.7 21.7,7.1 25.3,10.7 3.6,3.7 -7.3,7.6 -3.7,11.3 3.5,3.7 11.9,0.2 13.4,8.6 1.1,6.2 15.4,3.1 21.8,-2.2 4,-3.4 -6.9,-3.4 -3.3,-7.1 9,-9.1 17,-4.1 20.3,-12.5 1.8,-4.5 -13.6,-7.7 -9.5,-10.6 9.8,-6.9 45.8,-10.4 29.2,-27 L 73,12.5 c -5.3,-5 -14,-5 -18.9,0 z m 47.3,81.3 c 0,2.1 16.3,3.3 15.4,-0.5 -1.3,-6.4 -13.6,-5.9 -15.4,0.5 z m -69.5,11.1 c 3.7,3.2 9.3,-0.7 11.1,-5.2 -3.6,-4.7 -16.9,0.3 -11.1,5.2 z m 67.5,-6.7 c -4.6,4.2 0.8,8.6 5.3,5.7 1.2,-0.8 -0.1,-4.7 -5.3,-5.7 z" id="use7631" />
<path inkscape:connector-curvature="0" sodipodi:nodetypes="ccccccccccccccccccccccc" style="fill:none" d="M 54.1,12.5 12.9,54.7 C -2.7,70.3 23,69 32.3,74.9 36.6,77.7 18.5,81.3 22.2,85 c 3.6,3.7 21.7,7.1 25.3,10.7 3.6,3.7 -7.3,7.6 -3.7,11.3 3.5,3.7 11.9,0.2 13.4,8.6 1.1,6.2 15.4,3.1 21.8,-2.2 4,-3.4 -6.9,-3.4 -3.3,-7.1 9,-9.1 17,-4.1 20.3,-12.5 1.8,-4.5 -13.6,-7.7 -9.5,-10.6 9.8,-6.9 45.8,-10.4 29.2,-27 L 73,12.5 c -5.3,-5 -14,-5 -18.9,0 z m 47.3,81.3 c 0,2.1 16.3,3.3 15.4,-0.5 -1.3,-6.4 -13.6,-5.9 -15.4,0.5 z m -69.5,11.1 c 3.7,3.2 9.3,-0.7 11.1,-5.2 -3.6,-4.7 -16.9,0.3 -11.1,5.2 z m 67.5,-6.7 c -4.6,4.2 0.8,8.6 5.3,5.7 1.2,-0.8 -0.1,-4.7 -5.3,-5.7 z" id="use7639" />
<path inkscape:connector-curvature="0" d="M 54.1,12.5 12.9,54.7 C -2.7,70.3 23,69 32.3,74.9 36.6,77.7 18.5,81.3 22.2,85 c 3.6,3.7 21.7,7.1 25.3,10.7 3.6,3.7 -7.3,7.6 -3.7,11.3 3.5,3.7 11.9,0.2 13.4,8.6 1.1,6.2 15.4,3.1 21.8,-2.2 4,-3.4 -6.9,-3.4 -3.3,-7.1 9,-9.1 17,-4.1 20.3,-12.5 1.8,-4.5 -13.6,-7.7 -9.5,-10.6 9.8,-6.9 45.8,-10.4 29.2,-27 L 73,12.5 c -5.3,-5 -14,-5 -18.9,0 z m -9.9,64.7 c 0.9,0 30.8,4 19.3,7.1 -4.4,1.2 -24.6,-7.1 -19.3,-7.1 z m 57.2,16.6 c 0,2.1 16.3,3.3 15.4,-0.5 -1.3,-6.4 -13.6,-5.9 -15.4,0.5 z m -69.5,11.1 c 3.7,3.2 9.3,-0.7 11.1,-5.2 -3.6,-4.7 -16.9,0.3 -11.1,5.2 z m 67.5,-6.7 c -4.6,4.2 0.8,8.6 5.3,5.7 1.2,-0.8 -0.1,-4.7 -5.3,-5.7 z" id="use7641" style="fill:url(#linearGradient9175);filter:url(#filter8490)" transform="matrix(0.9905442,0,0,0.9905442,0.6051535,0.604136)" />
<path inkscape:connector-curvature="0" id="path7643" d="m 16.56522,57.03937 c -11.201945,11.10103 8.47714,7.97256 23.6149,13.92674 l 31.2847,-55.00052 c -4.74316,-4.84409 -10.79826,-4.44041 -15.13776,0 z" style="opacity:0.5052631;fill:url(#shinySpecular-4);stroke:none" class="specularity" />
<path inkscape:connector-curvature="0" d="m 70.5,15.5 16.3,16.6 c 1.5,1.5 1.5,4.6 0.6,5.5 L 79.3,31 77.7,40.7 71,37.1 60.1,44 56.5,29.5 50.7,42.1 36.2,42 c -2.8,0 -2.4,-2.9 0.5,-5.8 5.7,-6.3 16.8,-17 20.3,-20.7 3.6,-3.7 9.9,-3.6 13.5,0 z" style="opacity:1;fill:url(#IcecapTip-6)" class="full-specularity" id="icecap-7" />
<path inkscape:connector-curvature="0" style="opacity:0.2167488;fill:url(#radialGradient9177);fill-opacity:1;fill-rule:evenodd;stroke:none" d="m 113,203.5 c 0,0 3.3405,5.1007 3,7.5 -0.6682,4.7087 -10.8094,7.0584 -8.5625,11.25 2.2199,4.1411 10.2214,1.794 16.9375,6.125 6.6875,4.3125 4.8895,13.1015 9.75,15.3125 9.4792,4.312 34.375,-7.4375 33.125,-7.1875 -1.25,0.25 -24.5701,5.0954 -29.8201,0.8454 -5.986,-4.8457 -7.7022,-8.2302 -12.1174,-11.0954 -4.1375,-2.685 -9.9497,-3.7804 -11.3025,-5.9787 -1.3528,-2.1982 2.7092,-5.0346 2.99,-9.2713 0.1686,-2.5444 -4,-7.5 -4,-7.5 z" id="path8566" transform="matrix(0.5296484,0,0,0.5296484,-11.72226,-13.86416)" sodipodi:nodetypes="csszsszszsc" />
<path inkscape:connector-curvature="0" sodipodi:nodetypes="csszscssc" transform="matrix(0.5296484,0,0,0.5296484,-11.72226,-13.86416)" id="path8718" d="m 113,203.5 c 0,0 3.3405,5.1007 3,7.5 -0.6682,4.7087 -10.8094,7.0584 -8.5625,11.25 2.2199,4.1411 10.2214,1.794 16.9375,6.125 6.6875,4.3125 4.8895,13.1015 9.75,15.3125 9.4792,4.312 34.375,-7.4375 33.125,-7.1875 -41.3396,0.1574 -33.6249,-10.4946 -49.5625,-17.5 -2.303,-1.0123 -0.9683,-3.7633 -0.6875,-8 0.1686,-2.5444 -4,-7.5 -4,-7.5 z" style="opacity:0.2758621;fill:url(#radialGradient8574);fill-opacity:1;fill-rule:evenodd;stroke:none;filter:url(#filter8732)" />
<path inkscape:connector-curvature="0" style="opacity:0.453202;fill:url(#radialGradient8744);fill-opacity:1;fill-rule:evenodd;stroke:none" d="M 183.25,181.75 C 220.3537,168.0954 232.2736,166.2194 244.5,154 230.3393,165.9537 200.4015,172.3658 176,183 Z" id="path8736" transform="matrix(0.5296484,0,0,0.5296484,-11.72226,-13.86416)" sodipodi:nodetypes="cccc" />
<path inkscape:connector-curvature="0" sodipodi:nodetypes="cccc" transform="matrix(0.5296484,0,0,0.5296484,-11.72226,-14.79104)" id="path8746" d="m 183.25,181.75 c 61.1037,-21.6546 50.7736,-21.5306 61.25,-27.75 -19.4277,7.4367 -55.7345,8.2298 -68.5,29 z" style="opacity:0.5123153;fill:url(#radialGradient8768);fill-opacity:1;fill-rule:evenodd;stroke:none;filter:url(#filter8764)" />
<ellipse style="display:inline;overflow:visible;visibility:visible;opacity:0.2857143;fill:url(#linearGradient10664);fill-opacity:1;fill-rule:nonzero;stroke:none;stroke-width:1;marker:none;enable-background:accumulate" id="path8864" transform="matrix(0.5296484,0,0,0.5296484,-12.38432,-14.79104)" cx="229.9375" cy="199.0625" rx="7.9375" ry="2.4375" />
<ellipse transform="matrix(0.7131486,0,0,1.140781,-54.5779,-134.955)" id="path8874" style="display:inline;overflow:visible;visibility:visible;opacity:0.6206894;fill:url(#linearGradient10666);fill-opacity:1;fill-rule:nonzero;stroke:none;stroke-width:1;marker:none;filter:url(#filter8906);enable-background:accumulate" cx="229.9375" cy="199.0625" rx="7.9375" ry="2.4375" />
<path inkscape:connector-curvature="0" style="fill:url(#radialGradient8922);fill-opacity:1;fill-rule:evenodd;stroke:none;filter:url(#filter8980)" d="m 214.125,203.75 c 3.7695,3.4842 24.7558,5.2722 28.1875,-1 -6.7366,4.7839 -21.7168,3.1026 -28.1875,1 z" id="path8914" transform="matrix(0.5296484,0,0,0.5296484,-11.72226,-14.23868)" sodipodi:nodetypes="ccc" />
<ellipse transform="matrix(0.2042516,-0.1035605,0.2395168,0.4723972,5.754795,30.28656)" id="path8984" style="display:inline;overflow:visible;visibility:visible;opacity:0.2857143;fill:url(#linearGradient10668);fill-opacity:1;fill-rule:nonzero;stroke:none;stroke-width:1;marker:none;enable-background:accumulate" cx="229.9375" cy="199.0625" rx="6.508443" ry="3.082082" />
<ellipse style="display:inline;overflow:visible;visibility:visible;opacity:0.6206894;fill:url(#linearGradient10670);fill-opacity:1;fill-rule:nonzero;stroke:none;stroke-width:1;marker:none;filter:url(#filter8906);enable-background:accumulate" id="path8986" transform="matrix(0.2750159,-0.1394397,0.5158824,1.017471,-65.3535,-69.30064)" cx="229.9375" cy="199.0625" rx="7.055552" ry="2.140048" />
<path inkscape:connector-curvature="0" sodipodi:nodetypes="ccc" transform="matrix(0.2042516,-0.1035605,0.2395168,0.4723972,6.259901,30.64976)" id="path8988" d="m 217.0575,201.9403 c 3.7695,3.4842 26.9713,8.9112 25.255,0.8097 -3.3174,5.3233 -18.7842,1.2929 -25.255,-0.8097 z" style="fill:url(#radialGradient8994);fill-opacity:1;fill-rule:evenodd;stroke:none;filter:url(#filter8980)" />
<path inkscape:connector-curvature="0" style="fill:url(#radialGradient9004);fill-opacity:1;fill-rule:evenodd;stroke:none" d="m 68.25,186 c 0,-0.6206 38.8462,11.8385 45.5,18.5 -5.4712,-5.3385 -33.15971,-17.6161 -37.375,-17.75 -4.21529,-0.1339 -7.625,-0.5 -8.125,-0.75 z" id="path8996" transform="matrix(0.5296484,0,0,0.5296484,-11.72226,-13.86416)" sodipodi:nodetypes="cczc" />
<g id="g9018" transform="matrix(0.8790148,-0.1929959,0.2338341,0.6959295,-20.20953,36.72556)">
<ellipse style="display:inline;overflow:visible;visibility:visible;opacity:0.2857143;fill:url(#linearGradient8912);fill-opacity:1;fill-rule:nonzero;stroke:none;stroke-width:1;marker:none;enable-background:accumulate" id="path9006" transform="matrix(0.5296484,0,0,0.5296484,-84.4165,-4.727724)" cx="229.9375" cy="199.0625" rx="7.9375" ry="2.4375" />
<ellipse transform="matrix(0.7131486,0,0,1.140781,-126.6101,-124.8917)" id="path9008" style="display:inline;overflow:visible;visibility:visible;opacity:0.6206894;fill:url(#linearGradient8910);fill-opacity:1;fill-rule:nonzero;stroke:none;stroke-width:1;marker:none;filter:url(#filter8906);enable-background:accumulate" cx="229.9375" cy="199.0625" rx="7.9375" ry="2.4375" />
</g>
<path inkscape:connector-curvature="0" style="opacity:0.6157635;fill:url(#radialGradient9046);fill-opacity:1;fill-rule:evenodd;stroke:none;filter:url(#filter9068)" d="m 80.5,220.0625 c 0,0 2.10339,5.6508 7.875,5.9375 5.83887,0.2901 12.5032,-7.007 13.0625,-9.625 -1,2.25 -6.59033,9.0333 -13.8125,8.9375 -4.09986,-0.054 -7.125,-5.25 -7.125,-5.25 z" id="path9038" transform="matrix(0.5296484,0,0,0.5296484,-11.62295,-14.42691)" sodipodi:nodetypes="czczc" />
<path inkscape:label="top_inner_highlight" d="m 64.08984,10.40625 c -1.75641,-0.0642 -3.53481,0.19172 -5.23632,0.67383 C 48.75344,18.29439 41.15155,28.7189 32.0332,37.1875 24.68746,45.58535 15.17856,52.47861 9.548828,62.14258 c 0.596672,6.24231 9.564872,5.67737 14.029292,7.91406 3.46379,1.38101 13.30841,2.59285 9.56836,7.99805 -1.74307,2.41658 -13.64572,4.65125 -7.34375,7.45898 7.47175,4.02082 17.59234,3.98525 23.45118,10.40039 2.7408,4.48694 -9.36857,9.27724 -1.70899,11.40044 5.57964,0.1822 10.71821,3.3659 11.73438,9.1289 6.17264,2.7286 13.71658,-0.6452 18.86328,-4.3223 -5.55418,-1.5174 -5.55274,-7.3567 -0.32617,-9.5156 C 82.57834,98.029 92.5197,99.83023 94.50391,92.71484 92.16265,88.92491 82.47771,88.09048 85.26758,82.42188 95.3438,75.35726 110.0656,75.75354 118.1523,65.88281 119.068,57.88155 109.7179,53.64169 105.5312,47.87695 93.28559,35.96979 82.14809,22.68263 69.19336,11.65625 c -1.61304,-0.80102 -3.3471,-1.1858 -5.10352,-1.25 z m 46.28906,79.89453 c -1.1032,-0.20204 -2.1672,0.11783 -3.2578,0.25391 -0.9653,0.43818 -2.0399,0.69494 -2.7793,1.5039 -0.4961,0.33192 -0.8508,0.77967 -1.0742,1.33203 1.4228,0.55094 2.9817,0.47581 4.4726,0.71485 1.0356,0.1537 2.0722,0.24151 3.1114,0.0664 1.1999,-0.13042 2.4232,-0.17871 3.6093,-0.35938 0.6225,-0.16463 0.9685,-0.49543 0.4786,-1.06641 -0.2173,-0.79852 -1.0187,-1.14865 -1.5762,-1.68554 -0.9745,-0.34629 -1.9259,-0.79917 -2.9844,-0.75977 z m -71.52929,9.01563 c -1.10482,0.12695 -2.20964,0.2539 -3.31445,0.38086 -0.92467,0.47913 -1.89749,0.89393 -2.79297,1.41213 -0.44958,0.4196 -0.95034,1.001 -0.66992,1.6523 0.33451,0.5928 0.83812,1.1316 1.47265,1.4278 0.42182,0.2925 0.99531,0.3742 1.48828,0.3457 0.84734,-0.2763 1.77522,-0.3976 2.57227,-0.7715 0.7857,-0.6845 1.67666,-1.275 2.39648,-2.0176 0.35256,-0.5641 0.70604,-1.1273 1.0586,-1.6914 -0.59122,-0.55877 -1.47261,-0.4951 -2.21094,-0.73829 z m 61.0293,0.49414 c -0.0293,0.0312 -0.0586,0.0625 -0.0879,0.0937 -0.45772,0.5953 -0.86608,1.3787 -0.57032,2.1367 0.43895,0.9727 1.6036,1.3792 2.6094,1.3184 0.6259,-0.029 1.2477,-0.2146 1.789,-0.5313 -0.1335,-0.6783 -0.629,-1.208 -1.1074,-1.6758 -0.7477,-0.6609 -1.683,-1.0654 -2.63279,-1.34175 z" inkscape:href="#use7639" id="87235" style="fill:none;stroke:url(#radialGradient11553);stroke-width:1.0035907;stroke-miterlimit:4;stroke-dasharray:none;stroke-opacity:1;filter:url(#filter9298)" xlink:href="#use7639" inkscape:original="M 63.40039 8.75 C 59.95039 8.75 56.54961 10 54.09961 12.5 L 12.90039 54.69922 C -2.699609 70.29922 23.00078 69.00039 32.30078 74.90039 C 36.60078 77.70039 18.49922 81.3 22.19922 85 C 25.79922 88.7 43.9 92.09922 47.5 95.69922 C 51.1 99.39922 40.20078 103.3 43.80078 107 C 47.30078 110.7 55.69922 107.1996 57.19922 115.5996 C 58.29922 121.7996 72.6 118.7004 79 113.4004 C 83 110.0004 72.09922 110.0008 75.69922 106.3008 C 84.69922 97.20078 92.7 102.2008 96 93.80078 C 97.8 89.30078 82.4 86.09922 86.5 83.19922 C 96.3 76.29922 132.2992 72.79922 115.6992 56.19922 L 73 12.5 C 70.35 10 66.85039 8.75 63.40039 8.75 z M 109.2871 88.75 C 105.8246 88.875 102.3004 90.60078 101.4004 93.80078 C 101.4004 95.90078 117.7008 97.10078 116.8008 93.30078 C 116.1508 90.10078 112.7496 88.625 109.2871 88.75 z M 38.93164 97.83984 C 33.94414 97.49297 27.55039 101.2254 31.90039 104.9004 C 35.60039 108.1004 41.2 104.1992 43 99.69922 C 42.1 98.52422 40.59414 97.95547 38.93164 97.83984 z M 99.40039 98.19922 C 94.80039 102.3992 100.1992 106.8004 104.6992 103.9004 C 105.8992 103.1004 104.6004 99.19922 99.40039 98.19922 z " inkscape:radius="-1.456531" sodipodi:type="inkscape:offset" />
<path inkscape:connector-curvature="0" sodipodi:nodetypes="csssssscs" transform="matrix(0.4883067,0,0,0.4883067,-5.810401,-7.704252)" id="path5897" d="m 95.5,172 c -5.09061,1.5019 -21.59202,7.7371 -19.25,12.5 2.2436,4.5627 40.6114,6.4013 46.5,20 2.5679,5.9301 -5.8924,10.4033 -3.75,16.5 1.6497,4.6948 14.412,16.4908 22.486,22.0678 6.333,4.3744 14.651,-3.5224 11.264,-10.0678 -5.3959,-10.4276 18.4427,-23.1991 29.25,-29 6.3052,-3.3844 -13,-20 -13,-20 0,0 -73.5,-12 -73.5,-12 z" style="opacity:0.3251231;fill:url(#linearGradient5905);fill-opacity:1;fill-rule:evenodd;stroke:none;filter:url(#filter5983-5)" />
<path inkscape:connector-curvature="0" sodipodi:nodetypes="cssssssssss" id="path5783" d="m 41.74217,78.53304 c 2.23193,1.63922 6.63675,0.65053 9.28212,1.84176 6.34952,2.85921 14.15494,6.04542 12.71857,0.40455 0,0 -1.61577,1.34204 -1.61577,1.34204 0,0 -0.0315,-2.55754 -0.0315,-2.55754 0,0 -3.75198,0.91629 -3.75198,0.91629 0,0 -2.90617,-2.33276 -4.23852,-3.10199 -0.27829,-0.16067 -1.7077,1.29281 -1.7077,1.29281 0,0 -0.25697,-1.5438 -0.25697,-1.5438 -1.85737,-0.19764 -3.69616,-0.28481 -5.31515,-0.27182 -3.88094,0.0311 -6.49906,0.63774 -5.08307,1.6777 z" style="fill:url(#linearGradient5801);fill-opacity:1;fill-rule:evenodd;stroke:none" />
<path inkscape:connector-curvature="0" sodipodi:nodetypes="csssssc" transform="matrix(0.4883067,0,0,0.4883067,-5.810401,-7.704252)" id="path5803" d="m 182.75,187.25 c -1.7598,6.4783 21.6278,15.2799 19.875,19.75 -3.859,9.8416 -24.976,3.1375 -41.125,23.75 -2.3132,2.9525 3.25,13.5 2.5,12.25 -0.75,-1.25 -6.4649,-9.9629 -5,-14.25 4.5942,-13.4452 49.0128,-18.4575 40.875,-24.875 -4.6799,-3.6906 -21.5055,-13.8872 -17.125,-16.625 z" style="opacity:0.4778325;fill:url(#radialGradient5811);fill-opacity:1;fill-rule:evenodd;stroke:none;filter:url(#filter5845)" />
<ellipse transform="matrix(0.4883067,0,0,0.4883067,-6.359746,-8.009444)" id="path6041" style="display:inline;overflow:visible;visibility:visible;opacity:0.5862069;fill:#ffffff;fill-opacity:1;fill-rule:nonzero;stroke:none;stroke-width:1;marker:none;enable-background:accumulate" cx="233.9375" cy="201.1875" rx="2.5625" ry="1.0625" />
<ellipse style="display:inline;overflow:visible;visibility:visible;opacity:0.5862069;fill:#ffffff;fill-opacity:1;fill-rule:nonzero;stroke:none;stroke-width:1;marker:none;enable-background:accumulate" id="path6043" transform="matrix(0.3096579,0,0,0.4883067,27.52844,1.573576)" cx="233.9375" cy="201.1875" rx="2.5625" ry="1.0625" />
<ellipse style="display:inline;overflow:visible;visibility:visible;opacity:0.5862069;fill:#ffffff;fill-opacity:1;fill-rule:nonzero;stroke:none;stroke-width:1;marker:none;enable-background:accumulate" id="path6045" transform="matrix(0.5478563,0,0,0.4883067,-92.10223,1.115795)" cx="233.9375" cy="201.1875" rx="2.5625" ry="1.0625" />
<path inkscape:connector-curvature="0" sodipodi:nodetypes="ccc" id="path5049" d="m 36.67228,76.52865 c -7.15299,4.42411 -18.27403,6.03423 -6.10383,8.97264 -1.44971,-3.2281 3.13858,-2.87202 6.10383,-8.97264 z" style="display:inline;overflow:visible;visibility:visible;opacity:0.2512315;fill:url(#linearGradient5822);fill-opacity:1;fill-rule:nonzero;stroke:none;stroke-width:2.0478933;marker:none;enable-background:accumulate" />
<path inkscape:connector-curvature="0" style="color:#000000;display:inline;overflow:visible;visibility:visible;opacity:0.3631579;fill:url(#linearGradient1030);fill-opacity:1;fill-rule:nonzero;stroke:none;stroke-width:2;marker:none;filter:url(#filter10997-7);enable-background:accumulate" d="m 8.83428,171.6472 c 0,0 22.59178,-2.1279 27.81802,-8.6464 3.05755,-3.8136 -12.15146,-8.2638 -8.86827,-12 12.35008,-14.0541 22.73076,-13.4673 37.05025,-19.3536 14.31949,-5.8862 9.03544,-8.769 4.40381,-11.3535 -7.9325,-4.4264 -25.58722,-9.1424 -19.74696,-19.6465 5.87688,-10.56993 57.34317,-25.24999 57.34317,-25.24999 15.5962,-5.32843 13.6391,-14.96447 6,-23 L 66.83428,6.647214 c 0,0 2.28296,43.388646 -7,61.999996 -11.4715,22.99914 -72.54408,48.66179 -47,51.49999 9,1 13.32065,4.0705 17,11 7.57631,14.2688 -21,40.5 -21,40.5 z" id="path10207" sodipodi:nodetypes="csszsscccsssc" transform="matrix(0.4883067,0,0,0.4883067,57.7504,32.99748)" />
</g>
<text xml:space="preserve" style="font-style:normal;font-variant:normal;font-weight:normal;font-stretch:normal;font-size:14.5288191px;line-height:100%;font-family:sans-serif;-inkscape-font-specification:sans-serif;letter-spacing:0px;word-spacing:0px;fill:#000000;fill-opacity:1;stroke:none;stroke-width:0.9080512px;stroke-linecap:butt;stroke-linejoin:miter;stroke-opacity:1" x="115.818" y="708.1778" id="text7847"><tspan sodipodi:role="line" id="tspan7845" x="115.818" y="708.1778" style="font-style:normal;font-variant:normal;font-weight:normal;font-stretch:normal;font-size:121.0734863px;font-family:'Linux Libertine Display O';-inkscape-font-specification:'Linux Libertine Display O';stroke-width:0.9080512px">INKSCAPE</tspan></text>
</svg>
