/* XPM */
static char * cursor_ellipse_xpm[] = {
"32 32 4 1",
" 	c None",
".	c #FFFFFF",
"+	c #000000",
"r	c #FFACB5",
"   ...                          ",
"   .+.                          ",
"   .+.                          ",
"....+....                       ",
".+++ +++.                       ",
"....+....                       ",
"   .+.                          ",
"   .+.       .......            ",
"   ...    ....+++++....         ",
"         ..+++rrrrr+++..        ",
"        ..+rrrrrrrrrrr+..       ",
"       ..+rrrrrrrrrrrrr+..      ",
"       .+rrrrrrrrrrrrrrr+.      ",
"       .+rrrrrrrrrrrrrrr+.      ",
"       .+rrrrrrrrrrrrrrr+.      ",
"       ..+rrrrrrrrrrrrr+..      ",
"        ..+rrrrrrrrrrr+..       ",
"         ..+++rrrrr+++..        ",
"          ....+++++....         ",
"             .......            ",
"                                ",
"                                ",
"                                ",
"                                ",
"                                ",
"                                ",
"                                ",
"                                ",
"                                ",
"                                ",
"                                ",
"                                "};
