/* XPM */
static char * cursor_pen_xpm[] = {
"32 32 6 1",
" 	c None",
".	c #FFFFFF",
"+	c #000000",
"y	c #FFFF00",
"s	c #B0C4DE",
"b	c #6495ED",
"   ...                          ",
"   .+.                          ",
"   .+.                          ",
"....+....                       ",
".+++ +++.                       ",
"....+....                       ",
"   .+..                         ",
"   .+..  .                      ",
"   ...  .+.                     ",
"       .+s+.                    ",
"        .+s+. ...               ",
"         .+s+.+++..             ",
"          .+s+sss++.            ",
"           .+sss+yy+...         ",
"          .+sss+yyyy+++..       ",
"          .+ss+yyyy+bbb++.      ",
"          .+s+yyyy+bbbbbb+.     ",
"           .+yyyy+bbbbbbbb+.    ",
"           .+yyy+bbbbbbbbbbb    ",
"            .+y+bbbbbbbbbbb     ",
"             .+bbbbbbbbbbb      ",
"             .+bbbbbbbbbbb      ",
"              .+bbbbbbbbb       ",
"              .+bbbbbbbb        ",
"               .+bbbbb          ",
"                .+bbb           ",
"                 .              ",
"                                ",
"                                ",
"                                ",
"                                ",
"                                "};
