/* XPM */
static char * cursor_pencil_xpm[] = {
"32 32 53 1",
" 	c None",
".	c #FFFFFF",
"+	c #000000",
"@	c #FFE082",
"#	c #FFE597",
"$	c #FDF6D5",
"%	c #FFCF3E",
"&	c #FFD75D",
"*	c #FAE584",
"=	c #FCF0BA",
"-	c #FFC619",
";	c #FDBF4B",
">	c #FDD166",
",	c #FCF2C4",
"'	c #FEAD32",
")	c #FDC04D",
"!	c #FCD268",
"~	c #FDF6D8",
"{	c #FF9F1D",
"]	c #FEAE34",
"^	c #FDC04F",
"/	c #FCD36A",
"(	c #FCF0B9",
"_	c #FEB035",
":	c #FDC250",
"<	c #FBD46B",
"[	c #FDF4CF",
"}	c #FEB137",
"|	c #FDC351",
"1	c #FCD56D",
"2	c #FEB239",
"3	c #FDC554",
"4	c #FCD76F",
"5	c #FBEA9E",
"6	c #FCF2C2",
"7	c #FEB33A",
"8	c #FCC655",
"9	c #FBD770",
"0	c #FEB43C",
"a	c #FDC757",
"b	c #FCD973",
"c	c #F8C0B9",
"d	c #F8BFBA",
"e	c #FEB63E",
"f	c #F9BFB9",
"g	c #F8C0BA",
"h	c #F8BFB9",
"i	c #FA9F95",
"j	c #F9AAA2",
"k	c #F9B5AD",
"l	c #F97F72",
"m	c #FA8A7D",
"n	c #FA958A",
"   ...                          ",
"   .+.                          ",
"   .+.                          ",
"....+....                       ",
".+++ +++.                       ",
"....+....                       ",
"   .+.                          ",
"   .+.                          ",
"   ...                          ",
"         ..                     ",
"         .+......               ",
"          .++++++.              ",
"          .++@#+$+.             ",
"          .+%&++*=+.            ",
"          .+-+;>+*,+.           ",
"          .+++')!+*~+.          ",
"          .+{{+]^/+*(+.         ",
"           .+{{+_:<+*[+.        ",
"            .+{{+}|1+*[+.       ",
"             .+{{+234+56+.      ",
"              .+{{+789+*++.     ",
"               .+{{+0ab+cd+.    ",
"                .+{{+e+fgh+.    ",
"                 .+{{+ijk+.     ",
"                  .++lmn+.      ",
"                   .+ll+.       ",
"                    .++.        ",
"                     ..         ",
"                                ",
"                                ",
"                                ",
"                                "};
