/* XPM */
static char * cursor_pen_xpm[] = {
"32 32 72 1",
" 	c None",
".	c #FFFFFF",
"+	c #000000",
"@	c #D7E4F3",
"#	c #D2DFEF",
"$	c #CDDAEC",
"%	c #C6D6EA",
"&	c #D3DFF1",
"*	c #D9E5F3",
"=	c #DFEAF7",
"-	c #C0D1E6",
";	c #C6D6E9",
">	c #CCDBED",
",	c #FCF4CC",
"'	c #FEFAEA",
")	c #AFC4DE",
"!	c #B4C8E0",
"~	c #BBCDE3",
"{	c #FAE584",
"]	c #FCF1BE",
"^	c #FCF1BD",
"/	c #F8DB7B",
"(	c #FBE382",
"_	c #D9EDF0",
":	c #E8F4F6",
"<	c #F2F8F9",
"[	c #F3C365",
"}	c #F6CC6C",
"|	c #F7D473",
"1	c #F9DB7B",
"2	c #ADD8DF",
"3	c #C3E2E7",
"4	c #BEE0E5",
"5	c #D3EAEE",
"6	c #EEAD4F",
"7	c #F0B556",
"8	c #F1BC5D",
"9	c #F3C465",
"0	c #94C2D0",
"a	c #9DCAD6",
"b	c #A7D3DD",
"c	c #D6EBEF",
"d	c #79A8C0",
"e	c #83B1C5",
"f	c #8CBACB",
"g	c #95C2D1",
"h	c #9ECBD7",
"i	c #A8D4DD",
"j	c #5E8EAE",
"k	c #6897B4",
"l	c #71A0BA",
"m	c #7AA8C0",
"n	c #84B1C6",
"o	c #96C3D2",
"p	c #A8D5DD",
"q	c #5686A8",
"r	c #5686A9",
"s	c #608FAF",
"t	c #6898B5",
"u	c #71A0BB",
"v	c #7BA9C1",
"w	c #84B2C6",
"x	c #8EBBCC",
"y	c #96C4D2",
"z	c #A0CCD7",
"A	c #5786AA",
"B	c #6090B0",
"C	c #6998B5",
"D	c #73A1BA",
"E	c #7CAAC1",
"F	c #85B3C7",
"G	c #5887A9",
"   ...                          ",
"   .+.                          ",
"   .+.                          ",
"....+....                       ",
".+++ +++.                       ",
"....+....                       ",
"   .+..                         ",
"   .+..  .                      ",
"   ...  .+.                     ",
"       .+@+.                    ",
"        .+#+. ...               ",
"         .+$+.+++..             ",
"          .+%+&*=++.            ",
"           .+-;>+,'+...         ",
"          .+)!~+{{]^+++..       ",
"          .+))+/({{+_:<++.      ",
"          .+)+[}|1+22345:+.     ",
"           .+6789+22222233+.    ",
"           .+666+0ab2222224c    ",
"            .+6+defghi22222     ",
"             .+jklmnfohp22      ",
"             .+qrstuvwxyz       ",
"              .+qqABCDEF        ",
"              .+qqqqGBC         ",
"               .+qqqqq          ",
"                .+qqq           ",
"                 .qq            ",
"                                ",
"                                ",
"                                ",
"                                ",
"                                "};
