/* XPM */
static char * cursor_arc_xpm[] = {
"32 32 4 1",
" 	c None",
".	c #FFFFFF",
"+	c #000000",
"r	c #FFACB5",
"   ...                          ",
"   .+.                          ",
"   .+.                          ",
"....+....                       ",
".+++ +++.                       ",
"....+....                       ",
"   .+.                          ",
"   .+.         .....            ",
"   ...         .+++....         ",
"               .+rr+++..        ",
"               .+rrrrr+..       ",
"               .+rrrrrr+..      ",
"              ..+rrrrrrr+.      ",
"            ...++rrrrrrr+.      ",
"          ...++rrrrrrrrr+.      ",
"        ...++rrrrrrrrrr+..      ",
"        .++rrrrrrrrrrr+..       ",
"        ...++rrrrrr+++..        ",
"          ...++++++....         ",
"            ........            ",
"                                ",
"                                ",
"                                ",
"                                ",
"                                ",
"                                ",
"                                ",
"                                ",
"                                ",
"                                ",
"                                ",
"                                "};
