/* XPM */
static char * cursor_calligraphy_xpm[] = {
"32 32 72 1",
" 	c None",
".	c #FFFFFF",
"+	c #000000",
"@	c #FDF0A2",
"#	c #FEFADE",
"$	c #FBE887",
"%	c #FDEE8C",
"&	c #FEFCE9",
"*	c #F6CF6F",
"=	c #FBE583",
"-	c #FCEB91",
";	c #FDF8D0",
">	c #FFFEFA",
",	c #F4C667",
"'	c #F5CC6B",
")	c #FCE685",
"!	c #FDF4BD",
"~	c #F3C362",
"{	c #F4C868",
"]	c #FBE382",
"^	c #FCEDA1",
"/	c #F1BA5A",
"(	c #F3BF60",
"_	c #FAE07F",
":	c #FBE584",
"<	c #F0B657",
"[	c #F1BC5C",
"}	c #F7D271",
"|	c #F8D776",
"1	c #F9DC7B",
"2	c #EEAD4F",
"3	c #F0B354",
"4	c #F1B959",
"5	c #F3C363",
"6	c #F6CE6E",
"7	c #F7D373",
"8	c #EFB051",
"9	c #F0B556",
"0	c #F2BA5B",
"a	c #F3C060",
"b	c #F4C566",
"c	c #F5CB6B",
"d	c #F7D070",
"e	c #F9FCFC",
"f	c #EEAC4E",
"g	c #F0B253",
"h	c #F1B758",
"i	c #F1BD5E",
"j	c #F3C262",
"k	c #DCF0F1",
"l	c #EFF7F8",
"m	c #F3F9FA",
"n	c #F0B355",
"o	c #9FC8D6",
"p	c #ABD4DD",
"q	c #BFE3E7",
"r	c #DAEFF0",
"s	c #F0F8F9",
"t	c #7BAAC0",
"u	c #87B5C8",
"v	c #94C1D0",
"w	c #A0CDD8",
"x	c #ADD9E0",
"y	c #5E8DAE",
"z	c #6A99B6",
"A	c #77A5BE",
"B	c #83B1C5",
"C	c #8FBDCD",
"D	c #5A89AB",
"E	c #6796B3",
"F	c #72A1BB",
"G	c #5686A9",
"   ...                          ",
"   .+.                          ",
"   .+.                          ",
"....+....                       ",
".+++ +++.                       ",
"....+....                       ",
"   .+.                          ",
"   .+.                          ",
"   ...   ..                     ",
"        .++...                  ",
"       .+.++++..                ",
"       .++.+@#++..              ",
"        .++.+$%&++.             ",
"        .+*+.+=-;>+.            ",
"        .+,'+.++)!+.            ",
"         .+~{+..+]^+.           ",
"         .+/(+...+_:+.          ",
"          .+<[+.+}|1+..         ",
"          .+234+5+67+.+.        ",
"           .++890abcd+e+.       ",
"            ..+fghij+klm+.      ",
"              .+++n+opqrs+.     ",
"               ...+tuvwx+.      ",
"                .+yzABC+.       ",
"                 .+DEF+.        ",
"                  .+G+.         ",
"                   .+.          ",
"                    .           ",
"                                ",
"                                ",
"                                ",
"                                "};
