/* XPM */
static char * cursor_star_xpm[] = {
"32 32 33 1",
" 	c None",
".	c #FFFFFF",
"+	c #000000",
"@	c #FFF7CC",
"#	c #FFF6CC",
"$	c #FFF5C6",
"%	c #FFF5C3",
"&	c #FFF3B4",
"*	c #FFF1A7",
"=	c #FFF5BF",
"-	c #FFF3B1",
";	c #FFF1A3",
">	c #FFEF95",
",	c #FFED87",
"'	c #FFEB79",
")	c #FFEB74",
"!	c #FFF4BB",
"~	c #FFF2AD",
"{	c #FFF09F",
"]	c #FFEE91",
"^	c #FFEC84",
"/	c #FFEB75",
"(	c #FFF1A9",
"_	c #FFF09B",
":	c #FFEE8E",
"<	c #FFEC7F",
"[	c #FFEF97",
"}	c #FFED8A",
"|	c #FFEB7C",
"1	c #FFEF94",
"2	c #FFED86",
"3	c #FFEB78",
"4	c #FFEC82",
"   ...                          ",
"   .+.                          ",
"   .+.                          ",
"....+....                       ",
".+++ +++.                       ",
"....+....      ..               ",
"   .+.        .++.              ",
"   .+.        .++.              ",
"   ...        .++.              ",
"             .+@#+.             ",
"      ........+#$+........      ",
"       .++++++#%&*++++++.       ",
"        .++##@=-;>,')++.        ",
"         ..++!~{]^/++..         ",
"           .+(_:<))+.           ",
"           .+[}|)))+.           ",
"          .+123++)))+.          ",
"          .+4++..++)+.          ",
"         .+<+..  ..+)+.         ",
"         .++.      .++.         ",
"         .+.        .+.         ",
"         ..          ..         ",
"                                ",
"                                ",
"                                ",
"                                ",
"                                ",
"                                ",
"                                ",
"                                ",
"                                ",
"                                "};
