/* XPM */
static char * cursor_pencil_xpm[] = {
"32 32 6 1",
" 	c None",
".	c #FFFFFF",
"+	c #000000",
"y	c #FFA01E",
"b	c #FFBF00",
"p	c #FA8072",
"   ...                          ",
"   .+.                          ",
"   .+.                          ",
"....+....                       ",
".+++ +++.                       ",
"....+....                       ",
"   .+.                          ",
"   .+.                          ",
"   ...                          ",
"         ..                     ",
"         .+......               ",
"          .++++++.              ",
"          .++bb+y+.             ",
"          .+bb++yy+.            ",
"          .+b+yy+yy+.           ",
"          .+++yyy+yy+.          ",
"          .+yy+yyy+yy+.         ",
"           .+yy+yyy+yy+.        ",
"            .+yy+yyy+yy+.       ",
"             .+yy+yyy+yy+.      ",
"              .+yy+yyy+y++.     ",
"               .+yy+yyy+pp+.    ",
"                .+yy+y+ppp+.    ",
"                 .+yy+ppp+.     ",
"                  .++ppp+.      ",
"                   .+pp+.       ",
"                    .++.        ",
"                     ..         ",
"                                ",
"                                ",
"                                ",
"                                "};
