/* XPM */
static char * cursor_pen_xpm[] = {
"32 32 4 1",
"x	c None",
".	c #FFFFFF",
"+	c #000000",
";	c #FFFF00",
"xxx...xxxxxxxxxxxxxxxxxxxxxxxxxx",
"xxx.+.xxxxxxxxxxxxxxxxxxxxxxxxxx",
"xxx.+.xxxxxxxxxxxxxxxxxxxxxxxxxx",
"....+....xxxxxxxxxxxxxxxxxxxxxxx",
".+++x+++.xxxxxxxxxxxxxxxxxxxxxxx",
"....+....xxxxxxxxxxxxxxxxxxxxxxx",
"xxx.+..xxxxxxxxxxxxxxxxxxxxxxxxx",
"xxx.+..xx.xxxxxxxxxxxxxxxxxxxxxx",
"xxx...xx.+.xxxxxxxxxxxxxxxxxxxxx",
"xxxxxxx.+.+.xxxxxxxxxxxxxxxxxxxx",
"xxxxxxxx.+.+.x...xxxxxxxxxxxxxxx",
"xxxxxxxxx.+.+.+++..xxxxxxxxxxxxx",
"xxxxxxxxxx.+.+...++.xxxxxxxxxxxx",
"xxxxxxxxxxx.+...+;;+...xxxxxxxxx",
"xxxxxxxxxx.+...+;;;;+++..xxxxxxx",
"xxxxxxxxxx.+..+;;;;+...++.xxxxxx",
"xxxxxxxxxx.+.+;;;;+......+.xxxxx",
"xxxxxxxxxxx.+;;;;+........+.xxxx",
"xxxxxxxxxxx.+;;;+...........xxxx",
"xxxxxxxxxxxx.+;+...........xxxxx",
"xxxxxxxxxxxxx.+...........xxxxxx",
"xxxxxxxxxxxxx.+...........xxxxxx",
"xxxxxxxxxxxxxx.+.........xxxxxxx",
"xxxxxxxxxxxxxx.+........xxxxxxxx",
"xxxxxxxxxxxxxxx.+.....xxxxxxxxxx",
"xxxxxxxxxxxxxxxx.+...xxxxxxxxxxx",
"xxxxxxxxxxxxxxxxx.xxxxxxxxxxxxxx",
"xxxxxxxxxxxxxxxxxxxxxxxxxxxxxxxx",
"xxxxxxxxxxxxxxxxxxxxxxxxxxxxxxxx",
"xxxxxxxxxxxxxxxxxxxxxxxxxxxxxxxx",
"xxxxxxxxxxxxxxxxxxxxxxxxxxxxxxxx",
"xxxxxxxxxxxxxxxxxxxxxxxxxxxxxxxx"};
