/* XPM */
static char * cursor_dropper_xpm[] = {
"32 32 4 1",
" 	c None",
".	c #FFFFFF",
"+	c #000000",
"b	c #8AB3DF",
"       .                        ",
"      .+.                       ",
"      .+.                       ",
"      .+.                       ",
"      .+.                       ",
"      .+.                       ",
" .....   .....                  ",
".+++++   +++++.                 ",
" .....   .....                  ",
"      .+.                       ",
"      .+.                       ",
"      .+.                       ",
"      .+.   ....                ",
"      .+.   .+++.               ",
"       .    .+b++.              ",
"            .+bb++.             ",
"             .+bb++.            ",
"              .+bb++.           ",
"               .+bb++.          ",
"                .+..++. .       ",
"                 .+..++.+.      ",
"                  .+..++++.     ",
"                   .+.++++.     ",
"                    .++++++..   ",
"                   .+++++++++.  ",
"                    .+..++++++. ",
"                     ..+.+++++. ",
"                       .+.++++. ",
"                       .+..++.  ",
"                        .+++.   ",
"                         ...    ",
"                                "};
