/* XPM */
static char const *cursor_paintbucket_xpm[] = {
"32 32 3 1",
" 	c None",
".	c #000000",
"+	c #FFFFFF",
"                                ",
"                                ",
"         ++       ++++          ",
"        +..+    ++....+         ",
"       +.++.+ ++..++++.+        ",
"       +.++.++..+++++++.+       ",
"       +.++...+++++++++.+       ",
"      +.++...+++++++++++.+      ",
"      +...++.++++++++++++.+     ",
"     +...+++.++++++++++++.+     ",
"     +.+..+++.+++++++++++.+     ",
"     +.++..++.++++++++++++.+    ",
"     +.+++.++.++++++++++++.+    ",
"     +.+++.....+++++++++++.+    ",
"     +.++++..+.+++++++++++.+    ",
"      +.++++..++++++++++++.+    ",
"      +.++++.++++++++++++..+    ",
"      +..+++..+++++++++..++     ",
"       +.++++.+++++++..++       ",
"       +..+++.+++++..++         ",
"        +.++..+++..++           ",
"        +.....+..++             ",
"        +......++               ",
"        +....++                 ",
"        +...+                   ",
"        +...+                   ",
"        +..+                    ",
"         +.+                    ",
"         +.+                    ",
"          +                     ",
"                                ",
"                                "};
