/* XPM */
static char * cursor_calligraphy_xpm[] = {
"32 32 5 1",
" 	c None",
".	c #FFFFFF",
"+	c #000000",
"g	c #FFBF00",
"b	c #B0DDE2",
"   ...                          ",
"   .+.                          ",
"   .+.                          ",
"....+....                       ",
".+++ +++.                       ",
"....+....                       ",
"   .+.                          ",
"   .+.                          ",
"   ...   ..                     ",
"        .++...                  ",
"       .+.++++..                ",
"       .++.+gg++..              ",
"        .++.+ggg++.             ",
"        .+g+.+gggg+.            ",
"        .+gg+.++gg+.            ",
"         .+gg+..+gg+.           ",
"         .+gg+...+gg+.          ",
"          .+gg+.+ggg+..         ",
"          .+ggg+g+gg+.+.        ",
"           .++ggggggg+.+.       ",
"            ..+ggggg+b..+.      ",
"              .+++.+b.b..+.     ",
"               ...+b.b.++.      ",
"                .+bbb.b+.       ",
"                 .+bbb+.        ",
"                  .+b+.         ",
"                   .+.          ",
"                    .           ",
"                                ",
"                                ",
"                                ",
"                                "};
