/* XPM */
static char * cursor_rect_xpm[] = {
"32 32 72 1",
" 	c None",
".	c #FFFFFF",
"+	c #000000",
"@	c #D4DFE9",
"#	c #D3DEE9",
"$	c #CDDAE6",
"%	c #C7D6E4",
"&	c #C1D2E2",
"*	c #BACDDF",
"=	c #B4C9DE",
"-	c #AEC5DB",
";	c #A8C1D8",
">	c #A2BDD6",
",	c #9CB8D4",
"'	c #98B6D3",
")	c #CFDCE7",
"!	c #C8D8E4",
"~	c #C3D3E2",
"{	c #BCCFE0",
"]	c #B6CADE",
"^	c #B0C6DB",
"/	c #AAC2D9",
"(	c #A3BED6",
"_	c #9DB9D4",
":	c #D1DCE8",
"<	c #CAD8E5",
"[	c #C4D4E3",
"}	c #BDD0E0",
"|	c #B7CCDF",
"1	c #B2C7DC",
"2	c #ABC2DA",
"3	c #A4BFD7",
"4	c #9EBBD5",
"5	c #99B6D3",
"6	c #D2DEE9",
"7	c #CCD9E6",
"8	c #C6D5E3",
"9	c #BFD1E2",
"0	c #B9CCDF",
"a	c #B3C8DC",
"b	c #ACC4DA",
"c	c #A6C0D8",
"d	c #A0BCD6",
"e	c #9AB7D3",
"f	c #C7D6E5",
"g	c #C0D1E2",
"h	c #BBCEDF",
"i	c #B4C9DD",
"j	c #AEC5DA",
"k	c #A8C0D9",
"l	c #A2BCD6",
"m	c #9BB8D3",
"n	c #C9D7E5",
"o	c #C2D3E2",
"p	c #BCCEE0",
"q	c #AFC6DC",
"r	c #A3BED7",
"s	c #BECFE1",
"t	c #B7CBDE",
"u	c #B1C6DC",
"v	c #ABC2D9",
"w	c #A5BED7",
"x	c #9EBAD4",
"y	c #BED1E1",
"z	c #B2C8DC",
"A	c #ACC3DA",
"B	c #A6BFD8",
"C	c #9FBBD6",
"D	c #B3C8DD",
"E	c #AEC4DA",
"F	c #A7C0D8",
"G	c #A1BCD6",
"   ...                          ",
"   .+.                          ",
"   .+.                          ",
"....+....                       ",
".+++ +++.                       ",
"....+....                       ",
"   .+.                          ",
"   .+. .................        ",
"   ... .+++++++++++++++.        ",
"       .+@@#$%&*=-;>,'+.        ",
"       .+@@)!~{]^/(_''+.        ",
"       .+@:<[}|12345''+.        ",
"       .+67890abcde'''+.        ",
"       .+$fghijklm''''+.        ",
"       .+nop]q/r_'''''+.        ",
"       .+[stuvwx''''''+.        ",
"       .+y0zABCe''''''+.        ",
"       .+*DEFGm'''''''+.        ",
"       .+++++++++++++++.        ",
"       .................        ",
"                                ",
"                                ",
"                                ",
"                                ",
"                                ",
"                                ",
"                                ",
"                                ",
"                                ",
"                                ",
"                                ",
"                                "};
