/* XPM */
static char const *cursor_node_m_xpm[] = {
"32 32 3 1",
" 	g None",
".	g #FFFFFF",
"+	g #000000",
" .                              ",
".+.                             ",
" .+.                            ",
" .++.                           ",
"  .++.                          ",
"  .+++.                         ",
"   .+++.                        ",
"   .++++.                       ",
"    .++++.                      ",
"    .+++++.                     ",
"     .+++++.                    ",
"     .++++++.      +++          ",
"      .+++++.    +.+..+         ",
"      .+++..    +..+..++++      ",
"       .+.      +..+..+..+      ",
"        .       +..+..+..++     ",
"              +++..+..+..+.+    ",
"             +..+..+..+..+.+    ",
"             +..+..+..+..+.+    ",
"             +..+..+..+..+.+    ",
"             +.............+    ",
"              +............+    ",
"              +...........+     ",
"               +..........+     ",
"                +.........+     ",
"                +........+      ",
"                 +.......+      ",
"                 +.......+      ",
"                 +++++++++      ",
"                                ",
"                                ",
"                                "};
