/* XPM */
static char * cursor_arc_xpm[] = {
"32 32 44 1",
" 	c None",
".	c #FFFFFF",
"+	c #000000",
"@	c #FFE4E7",
"#	c #FFE1E4",
"$	c #FFDFE3",
"%	c #FFD8DD",
"&	c #FFD1D6",
"*	c #FFCACF",
"=	c #FFC2C9",
"-	c #FFD7DC",
";	c #FFD0D5",
">	c #FFC9CE",
",	c #FFC1C8",
"'	c #FFB9C1",
")	c #FFB2BA",
"!	c #FFCED4",
"~	c #FFC7CD",
"{	c #FFC0C6",
"]	c #FFB8C0",
"^	c #FFB1B9",
"/	c #FFACB5",
"(	c #FFC6CC",
"_	c #FFBFC6",
":	c #FFB8BE",
"<	c #FFAFB8",
"[	c #FFCCD2",
"}	c #FFC5CB",
"|	c #FFBDC4",
"1	c #FFB6BE",
"2	c #FFAFB7",
"3	c #FFD2D7",
"4	c #FFCAD1",
"5	c #FFC4CA",
"6	c #FFBCC3",
"7	c #FFB5BD",
"8	c #FFAEB6",
"9	c #FFD8DC",
"0	c #FFCAD0",
"a	c #FFC3C9",
"b	c #FFBAC2",
"c	c #FFB3BB",
"d	c #FFC1C7",
"e	c #FFBAC1",
"   ...                          ",
"   .+.                          ",
"   .+.                          ",
"....+....                       ",
".+++ +++.                       ",
"....+....                       ",
"   .+.                          ",
"   .+.         .....            ",
"   ...         .+++....         ",
"               .+@#+++..        ",
"               .+$%&*=+..       ",
"               .+-;>,')+..      ",
"              ..+!~{]^//+.      ",
"            ...++(_:<///+.      ",
"          ...++[}|12////+.      ",
"        ...++345678////+..      ",
"        .++9&0abc/////+..       ",
"        ...++de)///+++..        ",
"          ...++++++....         ",
"            ........            ",
"                                ",
"                                ",
"                                ",
"                                ",
"                                ",
"                                ",
"                                ",
"                                ",
"                                ",
"                                ",
"                                ",
"                                "};
