/* XPM */
static char * cursor_text_xpm[] = {
"32 32 25 1",
" 	c None",
".	c #FFFFFF",
"+	c #000000",
"@	c #979797",
"#	c #454444",
"$	c #747474",
"%	c #202021",
"&	c #A3A3A3",
"*	c #505050",
"=	c #7F7F7E",
"-	c #2D2D2C",
";	c #5A5B5B",
">	c #080909",
",	c #8B8B8B",
"'	c #373737",
")	c #676666",
"!	c #141314",
"~	c #434443",
"{	c #0D0D0D",
"]	c #292928",
"^	c #343434",
"/	c #030303",
"(	c #737373",
"_	c #202020",
":	c #504F4F",
"       .                        ",
"      .+.                       ",
"      .+.                       ",
"      .+.                       ",
"      .+.                       ",
"      .+.                       ",
" .....   .....                  ",
".+++++   +++++.                 ",
" .....   .....                  ",
"      .+.                       ",
"      .+.                       ",
"      .+.    ....               ",
"      .+.   .@#++.              ",
"      .+.   .$%++.              ",
"       .   .&*++++.             ",
"           .=-++++.             ",
"           .;>++++.             ",
"          .,'+..+++.            ",
"          .)!+..+++.            ",
"          .~++{]^/+.            ",
"         .(_++++++++.           ",
"         .:++....+++.           ",
"          ...    ...            ",
"                                ",
"                                ",
"                                ",
"                                ",
"                                ",
"                                ",
"                                ",
"                                ",
"                                "};
