/* XPM */
static char * cursor_zoom_out_xpm[] = {
"32 32 4 1",
" 	c None",
".	c #FFFFFF",
"+	c #000000",
"b	c #FFA01E",
"     ...                        ",
"   ..+++..                      ",
"  .++   ++.                     ",
" .+       +.                    ",
" .+       +.                    ",
".+  .....  +.                   ",
".+  +++++  +.                   ",
".+  .....  +.                   ",
" .+       +.                    ",
" .+       +.                    ",
"  .++   ++.+..                  ",
"   ..+++..+.++.                 ",
"     ...  .+bb+.                ",
"          .+bbb+.               ",
"           .+bbb+.              ",
"            .+bbb+.             ",
"             .+bbb+.            ",
"              .+bb+.            ",
"               .++.             ",
"                ..              ",
"                                ",
"                                ",
"                                ",
"                                ",
"                                ",
"                                ",
"                                ",
"                                ",
"                                ",
"                                ",
"                                ",
"                                "};
