/* XPM */
static char * cursor_ellipse_xpm[] = {
"32 32 33 1",
" 	c None",
".	c #FFFFFF",
"+	c #000000",
"@	c #FFDBDF",
"#	c #FFD2D7",
"$	c #FFCACF",
"%	c #FFC2C9",
"&	c #FFB9C1",
"*	c #FFE4E7",
"=	c #FFDBE0",
"-	c #FFD3D8",
";	c #FFBAC1",
">	c #FFB1BA",
",	c #FFACB5",
"'	c #FFDCDF",
")	c #FFCAD0",
"!	c #FFB9C2",
"~	c #FFDCE1",
"{	c #FFD4D8",
"]	c #FFCBD1",
"^	c #FFC2C8",
"/	c #FFBAC2",
"(	c #FFB2BA",
"_	c #FFDDE1",
":	c #FFD4D9",
"<	c #FFC3C9",
"[	c #FFBBC2",
"}	c #FFD5D9",
"|	c #FFCCD1",
"1	c #FFC3CA",
"2	c #FFB2BB",
"3	c #FFCCD2",
"4	c #FFB3BB",
"   ...                          ",
"   .+.                          ",
"   .+.                          ",
"....+....                       ",
".+++ +++.                       ",
"....+....                       ",
"   .+.                          ",
"   .+.       .......            ",
"   ...    ....+++++....         ",
"         ..+++@#$%&+++..        ",
"        ..+**=-$%;>,,,+..       ",
"       ..+**'-)%!>,,,,,+..      ",
"       .+**~{]^/(,,,,,,,+.      ",
"       .+*_:]<[(,,,,,,,,+.      ",
"       .+_}|1;2,,,,,,,,,+.      ",
"       ..+31[4,,,,,,,,,+..      ",
"        ..+[(,,,,,,,,,+..       ",
"         ..+++,,,,,+++..        ",
"          ....+++++....         ",
"             .......            ",
"                                ",
"                                ",
"                                ",
"                                ",
"                                ",
"                                ",
"                                ",
"                                ",
"                                ",
"                                ",
"                                ",
"                                "};
