/* XPM */
static char * cursor_star_xpm[] = {
"32 32 4 1",
" 	c None",
".	c #FFFFFF",
"+	c #000000",
"y	c #FFEB74",
"   ...                          ",
"   .+.                          ",
"   .+.                          ",
"....+....                       ",
".+++ +++.                       ",
"....+....      ..               ",
"   .+.        .++.              ",
"   .+.        .++.              ",
"   ...        .++.              ",
"             .+yy+.             ",
"      ........+yy+........      ",
"       .++++++yyyy++++++.       ",
"        .++yyyyyyyyyy++.        ",
"         ..++yyyyyy++..         ",
"           .+yyyyyy+.           ",
"           .+yyyyyy+.           ",
"          .+yyy++yyy+.          ",
"          .+y++..++y+.          ",
"         .+y+..  ..+y+.         ",
"         .++.      .++.         ",
"         .+.        .+.         ",
"         ..          ..         ",
"                                ",
"                                ",
"                                ",
"                                ",
"                                ",
"                                ",
"                                ",
"                                ",
"                                ",
"                                "};
