<?xml version="1.0" encoding="UTF-8" standalone="no"?>
<!-- Created with Inkscape (http://www.inkscape.org/)         -->
<!-- Created by Tavmjong Bah based on AIGA and NPS symbols.   -->
<!-- See http://www.aiga.org/symbol-signs/ and                -->
<!--     http://www.nps.gov/hfc/carto/map-symbols.cfm         -->
<!-- Symbols are in the public domain.                        -->
<!-- THIS FILE HAS BEEN HAND-EDITTED TO PROVIDE CLEAN SVG, DO NOT ARBITRARILY CHANGE -->
<svg
   xmlns="http://www.w3.org/2000/svg"
   xmlns:xlink="http://www.w3.org/1999/xlink"
   xmlns:dc="http://purl.org/dc/elements/1.1/"
   xmlns:cc="http://creativecommons.org/ns#"
   xmlns:rdf="http://www.w3.org/1999/02/22-rdf-syntax-ns#"
   width="720"
   height="1008"
   viewBox="0,0,720,1008"
   version="1.1"
   style="fill:black;stroke:black">
  <metadata>
    <rdf:RDF>
      <cc:Work
         rdf:about="">
        <dc:format>image/svg+xml</dc:format>
        <dc:type
           rdf:resource="http://purl.org/dc/dcmitype/StillImage" />
        <dc:title>Symbol Signs</dc:title>
        <dc:rights>
          <cc:Agent>
            <dc:title></dc:title>
          </cc:Agent>
        </dc:rights>
        <dc:publisher>
          <cc:Agent>
            <dc:title>AIGA</dc:title>
          </cc:Agent>
        </dc:publisher>
        <dc:source>http://www.aiga.org/symbol-signs/</dc:source>
        <dc:description>This system of 50 symbol signs was designed for use at the crossroads of modern life. Produced through a collaboration between AIGA and the U.S. Department of Transportation (DOT), they are an example of how public-minded designers can address a universal communication need.</dc:description>
        <cc:license
           rdf:resource="http://creativecommons.org/licenses/publicdomain/" />
        <dc:creator>
          <cc:Agent>
            <dc:title>Various</dc:title>
          </cc:Agent>
        </dc:creator>
        <dc:date>01-01-1974</dc:date>
      </cc:Work>
      <cc:License
         rdf:about="http://creativecommons.org/licenses/publicdomain/">
        <cc:permits
           rdf:resource="http://creativecommons.org/ns#Reproduction" />
        <cc:permits
           rdf:resource="http://creativecommons.org/ns#Distribution" />
        <cc:permits
           rdf:resource="http://creativecommons.org/ns#DerivativeWorks" />
      </cc:License>
    </rdf:RDF>
  </metadata>
  <title>AIGA Symbol Signs</title>
  <desc>Passenger/Pedestrian Symbols</desc>
  <defs>

    <symbol id="Telephone">
      <title>Telephone</title>
      <g style="stroke:none">
	<path d="m 23,36 c 0,24 11,30 13,30 l 0,-17 c -3,0 -3,-8 -3,-13 0,-5 0,-13 3,-13 L 36,6 C 33,6 23,12 23,36 z"/>
	<path id="ear1" d="m 42,23 a 2,2 0 0 0 2,-2 L 44,8 A 2,2 0 0 0 42,6 l -4,0 0,17 z"/>
	<use y="43" xlink:href="#ear1"/>
      </g>
    </symbol>

    <symbol id="Telephone_Inv">
      <title>Telephone</title>
      <rect x="0.5" y="0.5" width="71" height="71" ry="6" style="stroke:white"/>
      <g style="fill:white;stroke:none">
	<path d="m 23,36 c 0,24 11,30 13,30 l 0,-17 c -3,0 -3,-8 -3,-13 0,-5 0,-13 3,-13 L 36,6 C 33,6 23,12 23,36 z"/>
	<path id="ear2" d="m 42,23 a 2,2 0 0 0 2,-2 L 44,8 A 2,2 0 0 0 42,6 l -4,0 0,17 z"/>
	<use y="43" xlink:href="#ear2"/>
      </g>
    </symbol>

    <symbol id="Mail">
      <title>Mail</title>
      <g style="fill:none;stroke-width:4">
	<path d="m 10.5,55.1 51,0 0,-37.6 -51,0 0,37.6 z" />
	<path d="m 11,17.75 22,22.6 c 1.6,1.6 4.4,1.6 6,0.0125 L 61,17.75" />
	<path d="m 12,54  16.9,-17" />
	<path d="m 60,54 -16.9,-17" />
      </g>
    </symbol>

    <symbol id="Mail_Inv">
      <title>Mail</title>
      <rect x="0.5" y="0.5" width="71" height="71" ry="6" style="stroke:white"/>
      <g style="fill:none;stroke:white;stroke-width:4">
        <path d="m 10.5,55.1 51,0 0,-37.6 -51,0 0,37.6 z"/>
        <path d="m 11,17.75 22,22.6 c 1.6,1.6 4.4,1.6 6,0.0125 L 61,17.75"/>
        <path d="m 12,54  16.9,-17"/>
        <path d="m 60,54 -16.9,-17"/>
      </g>
    </symbol>

    <symbol id="CurrencyExchange">
      <title>Currency Exchange</title>
      <rect x="11" y="14" width="50" height="22" style="fill:none;stroke-width:5.25"/>
      <g style="stroke:none">
	<!-- Dollar -->
	<circle cx="36" cy="25" r="7.25"/>
	<path d="m 35.1,19 0,1.2 c -0.6,0.1 -1.2,0.4 -1.6,0.7 -0.7,0.5 -1.2,1.2 -1.2,2.1 0,0.7 0.3,1.5 0.9,2 0.4,0.4 1.2,0.7 1.9,0.8 l 0,2.1 C 34.4,27.7 33.9,27 33.9,26.6 l -1.8,0 c 0,1 0.5,1.7 1.2,2.3 0.5,0.4 1.1,0.8 1.8,0.9 l 0,1.2 1.8,0 0,-1.2 c 0.6,-0.1 1.2,-0.3 1.7,-0.6 0.7,-0.5 1.3,-1.25 1.3,-2.2 0,-0.8 -0.3,-1.6 -1,-2.1 -0.5,-0.3 -1.3,-0.6 -2,-0.7 l 0,-2.1 c 0.6,0.3 1,0.9 1,1.3 l 1.8,0 c 0,-1.5 -1.2,-2.8 -2.8,-3.2 l 0,-1.2 z m 0,4.9 c -0.8,-0.2 -1,-0.5 -1,-0.9 0,-0.4 0.5,-0.8 1,-0.9 z m 1.8,2.1 c 0.8,0.2 1.2,0.4 1.2,1 0,0.5 -0.6,0.8 -1.2,1 z" style="fill:white"/>
	<!-- Pound -->
	<circle cx="48" cy="38" r="7.25"/>
	<path d="m 48,32.6 c -1.6,0 -3.1,1.1 -3.1,2.7 0,0.5 0.1,0.9 0.2,1.3 l -1.1,0 0,1.8 1.4,0 c 0.2,1 -0.3,1.5 -0.8,2.2 l 0,1.8 6.6,0 0,-1.8 -4.4,0 c 0.4,-0.8 0.6,-1.5 0.5,-2.2 l 1.5,0 0,-1.8 -1.9,0 c -0.1,-0.5 -0.2,-1 -0.2,-1.3 0,-0.4 0.5,-0.9 1.3,-0.9 1,0 1.3,0.7 1.3,1.5 l 1.8,0 c 0,-1 -0.3,-1.8 -0.9,-2.4 -0.6,-0.6 -1.3,-0.9 -2.2,-0.9 z" style="fill:white"/>
	<!-- Franc -->
	<circle cx="21" cy="48" r="7.25"/>
	<path d="m 21.9,46.6 0,5.8 1.8,0 0,-2.4 c 0,-1.6 1.8,-1.7 1.8,-1.7 l 0,-1.7 c -0.4,0 -1.3,0.2 -1.8,1 l 0,-1 z M 21,42.8 c -1.6,0 -2.7,1.2 -2.7,2.7 l 0,1.1 -1.1,0 0,1.8 1.1,0 0,4 1.8,0 0,-4 1.3,0 0,-1.8 -1.3,0 0,-1.1 c 0,-0.7 0.3,-1 0.9,-1 0.6,0 0.9,0.3 0.9,1 l 0,0.5 1.8,0 0,-0.5 C 23.7,44 22.6,42.8 21,42.8 z" style="fill:white"/>
	<!-- Yen -->
	<circle cx="43" cy="56" r="7.25"/>
	<path d="m 41,51.8 2,3.4 2,-3.4 2,0 -3.1,5.4 2.3,0 0,1.8 -2.3,0 0,2.4 -1.8,0 0,-2.4 -2.3,0 0,-1.8 2.3,0 -3.1,-5.4 z" style="fill:white"/>
      </g>
    </symbol>

    <symbol id="CurrencyExchange_Inv">
      <title>Currency Exchange</title>
      <rect x="0.5" y="0.5" width="71" height="71" ry="6" style="stroke:white"/>
      <rect x="11" y="14" width="50" height="22" style="fill:none;stroke:white;stroke-width:5.25"/>
      <g style="stroke:none">
	<!-- Dollar -->
	<circle cx="36" cy="25" r="7.25" style="fill:white"/>
	<path d="m 35.1,19 0,1.2 c -0.6,0.1 -1.2,0.4 -1.6,0.7 -0.7,0.5 -1.2,1.2 -1.2,2.1 0,0.7 0.3,1.5 0.9,2 0.4,0.4 1.2,0.7 1.9,0.8 l 0,2.1 C 34.4,27.7 33.9,27 33.9,26.6 l -1.8,0 c 0,1 0.5,1.7 1.2,2.3 0.5,0.4 1.1,0.8 1.8,0.9 l 0,1.2 1.8,0 0,-1.2 c 0.6,-0.1 1.2,-0.3 1.7,-0.6 0.7,-0.5 1.3,-1.25 1.3,-2.2 0,-0.8 -0.3,-1.6 -1,-2.1 -0.5,-0.3 -1.3,-0.6 -2,-0.7 l 0,-2.1 c 0.6,0.3 1,0.9 1,1.3 l 1.8,0 c 0,-1.5 -1.2,-2.8 -2.8,-3.2 l 0,-1.2 z m 0,4.9 c -0.8,-0.2 -1,-0.5 -1,-0.9 0,-0.4 0.5,-0.8 1,-0.9 z m 1.8,2.1 c 0.8,0.2 1.2,0.4 1.2,1 0,0.5 -0.6,0.8 -1.2,1 z"/>
	<!-- Pound -->
	<circle cx="48" cy="38" r="7.25" style="fill:white"/>
	<path d="m 48,32.6 c -1.6,0 -3.1,1.1 -3.1,2.7 0,0.5 0.1,0.9 0.2,1.3 l -1.1,0 0,1.8 1.4,0 c 0.2,1 -0.3,1.5 -0.8,2.2 l 0,1.8 6.6,0 0,-1.8 -4.4,0 c 0.4,-0.8 0.6,-1.5 0.5,-2.2 l 1.5,0 0,-1.8 -1.9,0 c -0.1,-0.5 -0.2,-1 -0.2,-1.3 0,-0.4 0.5,-0.9 1.3,-0.9 1,0 1.3,0.7 1.3,1.5 l 1.8,0 c 0,-1 -0.3,-1.8 -0.9,-2.4 -0.6,-0.6 -1.3,-0.9 -2.2,-0.9 z"/>
	<!-- Franc -->
	<circle cx="21" cy="48" r="7.25" style="fill:white"/>
	<path d="m 21.9,46.6 0,5.8 1.8,0 0,-2.4 c 0,-1.6 1.8,-1.7 1.8,-1.7 l 0,-1.7 c -0.4,0 -1.3,0.2 -1.8,1 l 0,-1 z M 21,42.8 c -1.6,0 -2.7,1.2 -2.7,2.7 l 0,1.1 -1.1,0 0,1.8 1.1,0 0,4 1.8,0 0,-4 1.3,0 0,-1.8 -1.3,0 0,-1.1 c 0,-0.7 0.3,-1 0.9,-1 0.6,0 0.9,0.3 0.9,1 l 0,0.5 1.8,0 0,-0.5 C 23.7,44 22.6,42.8 21,42.8 z"/>
	<!-- Yen -->
	<circle cx="43" cy="56" r="7.25" style="fill:white"/>
	<path d="m 41,51.8 2,3.4 2,-3.4 2,0 -3.1,5.4 2.3,0 0,1.8 -2.3,0 0,2.4 -1.8,0 0,-2.4 -2.3,0 0,-1.8 2.3,0 -3.1,-5.4 z"/>
      </g>
    </symbol>

    <symbol id="CurrencyExchangeEuro">
      <title>Currency Exchange - Euro</title>
      <rect x="11" y="14" width="50" height="22" style="fill:none;stroke-width:5.25"/>
      <g style="stroke:none">
	<!-- Dollar -->
	<circle cx="36" cy="25" r="7.25"/>
	<path d="m 35.1,19 0,1.2 c -0.6,0.1 -1.2,0.4 -1.6,0.7 -0.7,0.5 -1.2,1.2 -1.2,2.1 0,0.7 0.3,1.5 0.9,2 0.4,0.4 1.2,0.7 1.9,0.8 l 0,2.1 C 34.4,27.7 33.9,27 33.9,26.6 l -1.8,0 c 0,1 0.5,1.7 1.2,2.3 0.5,0.4 1.1,0.8 1.8,0.9 l 0,1.2 1.8,0 0,-1.2 c 0.6,-0.1 1.2,-0.3 1.7,-0.6 0.7,-0.5 1.3,-1.25 1.3,-2.2 0,-0.8 -0.3,-1.6 -1,-2.1 -0.5,-0.3 -1.3,-0.6 -2,-0.7 l 0,-2.1 c 0.6,0.3 1,0.9 1,1.3 l 1.8,0 c 0,-1.5 -1.2,-2.8 -2.8,-3.2 l 0,-1.2 z m 0,4.9 c -0.8,-0.2 -1,-0.5 -1,-0.9 0,-0.4 0.5,-0.8 1,-0.9 z m 1.8,2.1 c 0.8,0.2 1.2,0.4 1.2,1 0,0.5 -0.6,0.8 -1.2,1 z" style="fill:white"/>
	<!-- Pound -->
	<circle cx="48" cy="38" r="7.25"/>
	<path d="m 48,32.6 c -1.6,0 -3.1,1.1 -3.1,2.7 0,0.5 0.1,0.9 0.2,1.3 l -1.1,0 0,1.8 1.4,0 c 0.2,1 -0.3,1.5 -0.8,2.2 l 0,1.8 6.6,0 0,-1.8 -4.4,0 c 0.4,-0.8 0.6,-1.5 0.5,-2.2 l 1.5,0 0,-1.8 -1.9,0 c -0.1,-0.5 -0.2,-1 -0.2,-1.3 0,-0.4 0.5,-0.9 1.3,-0.9 1,0 1.3,0.7 1.3,1.5 l 1.8,0 c 0,-1 -0.3,-1.8 -0.9,-2.4 -0.6,-0.6 -1.3,-0.9 -2.2,-0.9 z" style="fill:white"/>
	<!-- Euro -->
	<circle cx="21" cy="48" r="7.25"/>
	<path d="m 21,42.7 c -1.21,0 -2.3,0.5 -3,1.5 -0.4,0.6 -0.7,1.3 -0.9,2.2 l -0.7,0 0,1.2 0.6,0 0,0.8 -0.6,0 0,1.2 0.7,0 c 0.2,0.9 0.5,1.6 0.9,2.2 0.7,1 1.79,1.5 3,1.5 1.21,0 2.3,-0.5 3,-1.5 0.3,-0.5 0.5,-1 0.7,-1.6 l -1.9,0 c -0.1,0.3 -0.2,0.4 -0.3,0.6 -0.3,0.5 -0.7,0.8 -1.5,0.8 -0.8,0 -1.2,-0.3 -1.5,-0.8 -0.12,-0.3 -0.4,-0.7 -0.5,-1.2 l 3.6,0 0,-1.2 -3.7,0 0,-0.8 3.7,0 0,-1.2 -3.6,0 c 0.1,-0.5 0.3,-0.9 0.5,-1.2 0.3,-0.5 0.7,-0.8 1.5,-0.8 0.8,0 1.2,0.3 1.5,0.8 0.1,0.2 0.2,0.3 0.3,0.6 l 1.9,0 c -0.2,-0.6 -0.4,-1.1 -0.7,-1.6 -0.7,-1 -1.8,-1.5 -3,-1.5 z" style="fill:white"/>
	<!-- Yen -->
	<circle cx="43" cy="56" r="7.25"/>
	<path d="m 41,51.8 2,3.4 2,-3.4 2,0 -3.1,5.4 2.3,0 0,1.8 -2.3,0 0,2.4 -1.8,0 0,-2.4 -2.3,0 0,-1.8 2.3,0 -3.1,-5.4 z" style="fill:white"/>
      </g>
    </symbol>

    <symbol id="CurrencyExchangeEuro_Inv">
      <title>Currency Exchange - Euro</title>
      <rect x="0.5" y="0.5" width="71" height="71" ry="6" style="stroke:white"/>
      <rect x="11" y="14" width="50" height="22" style="fill:none;stroke:white;stroke-width:5.25"/>
      <g style="stroke:none">
	<!-- Dollar -->
	<circle cx="36" cy="25" r="7.25" style="fill:white"/>
	<path d="m 35.1,19 0,1.2 c -0.6,0.1 -1.2,0.4 -1.6,0.7 -0.7,0.5 -1.2,1.2 -1.2,2.1 0,0.7 0.3,1.5 0.9,2 0.4,0.4 1.2,0.7 1.9,0.8 l 0,2.1 C 34.4,27.7 33.9,27 33.9,26.6 l -1.8,0 c 0,1 0.5,1.7 1.2,2.3 0.5,0.4 1.1,0.8 1.8,0.9 l 0,1.2 1.8,0 0,-1.2 c 0.6,-0.1 1.2,-0.3 1.7,-0.6 0.7,-0.5 1.3,-1.25 1.3,-2.2 0,-0.8 -0.3,-1.6 -1,-2.1 -0.5,-0.3 -1.3,-0.6 -2,-0.7 l 0,-2.1 c 0.6,0.3 1,0.9 1,1.3 l 1.8,0 c 0,-1.5 -1.2,-2.8 -2.8,-3.2 l 0,-1.2 z m 0,4.9 c -0.8,-0.2 -1,-0.5 -1,-0.9 0,-0.4 0.5,-0.8 1,-0.9 z m 1.8,2.1 c 0.8,0.2 1.2,0.4 1.2,1 0,0.5 -0.6,0.8 -1.2,1 z"/>
	<!-- Pound -->
	<circle cx="48" cy="38" r="7.25" style="fill:white"/>
	<path d="m 48,32.6 c -1.6,0 -3.1,1.1 -3.1,2.7 0,0.5 0.1,0.9 0.2,1.3 l -1.1,0 0,1.8 1.4,0 c 0.2,1 -0.3,1.5 -0.8,2.2 l 0,1.8 6.6,0 0,-1.8 -4.4,0 c 0.4,-0.8 0.6,-1.5 0.5,-2.2 l 1.5,0 0,-1.8 -1.9,0 c -0.1,-0.5 -0.2,-1 -0.2,-1.3 0,-0.4 0.5,-0.9 1.3,-0.9 1,0 1.3,0.7 1.3,1.5 l 1.8,0 c 0,-1 -0.3,-1.8 -0.9,-2.4 -0.6,-0.6 -1.3,-0.9 -2.2,-0.9 z"/>
	<!-- Euro -->
	<circle cx="21" cy="48" r="7.25" style="fill:white"/>
	<path d="m 21,42.7 c -1.21,0 -2.3,0.5 -3,1.5 -0.4,0.6 -0.7,1.3 -0.9,2.2 l -0.7,0 0,1.2 0.6,0 0,0.8 -0.6,0 0,1.2 0.7,0 c 0.2,0.9 0.5,1.6 0.9,2.2 0.7,1 1.79,1.5 3,1.5 1.21,0 2.3,-0.5 3,-1.5 0.3,-0.5 0.5,-1 0.7,-1.6 l -1.9,0 c -0.1,0.3 -0.2,0.4 -0.3,0.6 -0.3,0.5 -0.7,0.8 -1.5,0.8 -0.8,0 -1.2,-0.3 -1.5,-0.8 -0.12,-0.3 -0.4,-0.7 -0.5,-1.2 l 3.6,0 0,-1.2 -3.7,0 0,-0.8 3.7,0 0,-1.2 -3.6,0 c 0.1,-0.5 0.3,-0.9 0.5,-1.2 0.3,-0.5 0.7,-0.8 1.5,-0.8 0.8,0 1.2,0.3 1.5,0.8 0.1,0.2 0.2,0.3 0.3,0.6 l 1.9,0 c -0.2,-0.6 -0.4,-1.1 -0.7,-1.6 -0.7,-1 -1.8,-1.5 -3,-1.5 z"/>
	<!-- Yen -->
	<circle cx="43" cy="56" r="7.25" style="fill:white"/>
	<path d="m 41,51.8 2,3.4 2,-3.4 2,0 -3.1,5.4 2.3,0 0,1.8 -2.3,0 0,2.4 -1.8,0 0,-2.4 -2.3,0 0,-1.8 2.3,0 -3.1,-5.4 z"/>
      </g>
    </symbol>

    <symbol id="Cashier">
      <title>Cashier</title>
      <g style="fill:none;stroke-width:6">
	<circle cx="36" cy="36" r="24"/>
	<path d="m 45,30 c 0,-4 -4,-6 -9,-6 -5,0 -9,2 -9,6 0,4 4,5.5 9,6 5,0.5 10,1 10,6 0,5 -5,6 -10,6 -5,0 -9,-3 -9,-7 m 9,-24 0,38"/>
      </g>
    </symbol>

    <symbol id="Cashier_Inv">
      <title>Cashier</title>
      <rect x="0.5" y="0.5" width="71" height="71" ry="6" style="stroke:white"/>
      <g style="fill:none;stroke:white;stroke-width:6">
	<circle cx="36" cy="36" r="24"/>
	<path d="m 45,30 c 0,-4 -4,-6 -9,-6 -5,0 -9,2 -9,6 0,4 4,5.5 9,6 5,0.5 10,1 10,6 0,5 -5,6 -10,6 -5,0 -9,-3 -9,-7 m 9,-24 0,38"/>
      </g>
    </symbol>

    <symbol id="FirstAid">
      <title>First Aid</title>
      <path d="m 44,13 0,15 15,0 0,16 -15,0 0,15 -16,0 0,-15 -15,0 0,-16 15,0 0,-15 z" style="stroke:none"/>
    </symbol>

    <symbol id="FirstAid_Inv">
      <title>First Aid</title>
      <rect x="0.5" y="0.5" width="71" height="71" ry="6" style="stroke:white"/>
      <path d="m 44,13 0,15 15,0 0,16 -15,0 0,15 -16,0 0,-15 -15,0 0,-16 15,0 0,-15 z" style="fill:white;stroke:none"/>
    </symbol>

    <symbol id="LostAndFound">
      <title>Lost and Found</title>
      <!-- Question Mark -->
      <path d="m 30.6,14.6 c 0,-3 0.6,-6.6 5.4,-6.6 2.4,0 4.8,1.8 4.8,4.2 0,2.4 -1.2,3.6 -2.4,4.2 -1.2,0.6 -2.4,1.2 -2.4,3 0,1.8 0,3.6 0,3.6 m 0,1.5 0,4" style="fill:none;stroke-width:4"/>
      <!-- Umbrella -->
      <path d="m 51,28 -38,8 0,2 38,8 0,-7 8,0 a 3.5,3.5 0 0 1 0,7 2,2 0 0 0 0,4 7.5,7.5 0 0 0 0,-15 l -8,0 z" style="stroke:none"/>
      <path d="m 12,38 -6,0 a 1,1 0 0 1 0,-2 l 6,0 z" style="stroke:none"/>
      <!-- Glove -->
      <path d="m 49.5,56 a 1.5,1.5 0 0 1 1.5,1.5 l 0,7 -5,-1.5 -26,0 a 1.5,1.5 0 0 1 0,-3 l 13.5,0 0,-1 -13.5,0 a 1.5,1.5 0 0 1 0,-3 l 13.5,0 0,-1 -13.5,0 a 1.5,1.5 0 0 1 0,-3 l 13.5,0 0,-1 -13.5,0 a 1.5,1.5 0 0 1 0,-3 l 12,0 -4.5,-1.25 a 1.85,1.85 0 0 1 1,-3.5 L 51,48 51,52.5 A 1.5,1.5 0 0 1 49.5,54 l -2,0 a 1,1 0 0 0 0,2 z" style="stroke:none"/>
    </symbol>

    <symbol id="LostAndFound_Inv">
      <title>Lost and Found</title>
      <rect x="0.5" y="0.5" width="71" height="71" ry="6" style="stroke:white"/>
      <!-- Question Mark -->
      <path d="m 30.6,14.6 c 0,-3 0.6,-6.6 5.4,-6.6 2.4,0 4.8,1.8 4.8,4.2 0,2.4 -1.2,3.6 -2.4,4.2 -1.2,0.6 -2.4,1.2 -2.4,3 0,1.8 0,3.6 0,3.6 m 0,1.5 0,4" style="fill:none;stroke:white;stroke-width:4"/>
      <!-- Umbrella -->
      <path d="m 51,28 -38,8 0,2 38,8 0,-7 8,0 a 3.5,3.5 0 0 1 0,7 2,2 0 0 0 0,4 7.5,7.5 0 0 0 0,-15 l -8,0 z" style="fill:white;stroke:none"/>
      <path d="m 12,38 -6,0 a 1,1 0 0 1 0,-2 l 6,0 z" style="fill:white;stroke:none"/>
      <!-- Glove -->
      <path d="m 49.5,56 a 1.5,1.5 0 0 1 1.5,1.5 l 0,7 -5,-1.5 -26,0 a 1.5,1.5 0 0 1 0,-3 l 13.5,0 0,-1 -13.5,0 a 1.5,1.5 0 0 1 0,-3 l 13.5,0 0,-1 -13.5,0 a 1.5,1.5 0 0 1 0,-3 l 13.5,0 0,-1 -13.5,0 a 1.5,1.5 0 0 1 0,-3 l 12,0 -4.5,-1.25 a 1.85,1.85 0 0 1 1,-3.5 L 51,48 51,52.5 A 1.5,1.5 0 0 1 49.5,54 l -2,0 a 1,1 0 0 0 0,2 z" style="fill:white;stroke:none"/>
    </symbol>

    <symbol id="CoatCheck">
      <title>Coat Check</title>
      <path d="M 36,31 61,45.5 A 3.5,3.5 0 0 1 59.5,52 l -47,0 A 3.5,3.5 0 0 1 11,45.5 L 36,31 36,28 A 4,4 0 0 0 34,24.6 5.5,5.5 0 1 1 41.5,20" style="fill:none;stroke-width:4;stroke-linecap:round"/>
    </symbol>

    <symbol id="CoatCheck_Inv">
      <title>Coat Check</title>
      <rect x="0.5" y="0.5" width="71" height="71" ry="6" style="stroke:white"/>
      <path d="M 36,31 61,45.5 A 3.5,3.5 0 0 1 59.5,52 l -47,0 A 3.5,3.5 0 0 1 11,45.5 L 36,31 36,28 A 4,4 0 0 0 34,24.6 5.5,5.5 0 1 1 41.5,20" style="fill:none;stroke:white;stroke-width:4;stroke-linecap:round"/>
    </symbol>

    <symbol id="BaggageLockers">
      <title>Baggage Lockers</title>
      <!-- key -->
      <path d="m 34.625,11 a 7.5,7.5 0 1 0 0,7 l 2.375,0 2.5,-2.5 2,2 2,-2 2,2 2,-2 2,2 2.5,-2.5 c 0.5,-0.5 0.5,-1 0,-1.5 L 49.5,11 z M 27,14.5 a 2,2 0 1 1 -4,0 2,2 0 1 1 4,0 z" style="stroke:none"/>
      <!-- locker -->
      <rect x="16.5" y="26.5" width="39" height="32" style="fill:white;stroke-width:5"/>
      <!-- bag -->
      <path d="M 33.5,31.5 A 1.5,1.5 0 0 0 32,33 l 0,2.5 -3,0 0,18 14.5,0 0,-18 -3.5,0 0,-2.5 a 1.5,1.5 0 0 0 -1.5,-1.5 l -5,0 z m 0,1.5 5,0 0,2.5 -5,0 0,-2.5 z m -8,2.5 A 2.5,2.5 0 0 0 23,38 l 0,13 a 2.5,2.5 0 0 0 2.5,2.5 l 2,0 0,-18 -2,0 z m 19.5,0 0,18 1.5,0 A 2.5,2.5 0 0 0 49,51 l 0,-13 a 2.5,2.5 0 0 0 -2.5,-2.5 l -1.5,0 z" style="stroke:none"/>
    </symbol>

    <symbol id="BaggageLockers_Inv">
      <title>Baggage Lockers</title>
      <rect x="0.5" y="0.5" width="71" height="71" ry="6" style="stroke:white"/>
      <!-- key -->
      <path d="m 34.625,11 a 7.5,7.5 0 1 0 0,7 l 2.375,0 2.5,-2.5 2,2 2,-2 2,2 2,-2 2,2 2.5,-2.5 c 0.5,-0.5 0.5,-1 0,-1.5 L 49.5,11 z M 27,14.5 a 2,2 0 1 1 -4,0 2,2 0 1 1 4,0 z" style="fill:white;stroke:none"/>
      <!-- locker -->
      <rect x="16.5" y="26.5" width="39" height="32" style="fill:none;stroke:white;stroke-width:5"/>
      <!-- bag -->
      <path d="M 33.5,31.5 A 1.5,1.5 0 0 0 32,33 l 0,2.5 -3,0 0,18 14.5,0 0,-18 -3.5,0 0,-2.5 a 1.5,1.5 0 0 0 -1.5,-1.5 l -5,0 z m 0,1.5 5,0 0,2.5 -5,0 0,-2.5 z m -8,2.5 A 2.5,2.5 0 0 0 23,38 l 0,13 a 2.5,2.5 0 0 0 2.5,2.5 l 2,0 0,-18 -2,0 z m 19.5,0 0,18 1.5,0 A 2.5,2.5 0 0 0 49,51 l 0,-13 a 2.5,2.5 0 0 0 -2.5,-2.5 l -1.5,0 z" style="fill:white;stroke:none"/>
    </symbol>

    <symbol id="Escalator">
      <title>Escalator</title>
      <path d="m 55,28 c -1,0 -2,0 -3,1 L 27,54 c -2,2 -4,3 -6,3 l -9,0 a 6,6 270 1 1 0,-12 l 5,0 c 1,0 2,0 3,-1 L 45,19 c 2,-2 4,-3 6,-3 l 9,0 a 6,6 90 1 1 0,12 z" style="fill:none;stroke-width:4"/>
      <path d="m 27,35 9,-9 0,-3 a 4.5,4.5 0 0 0 -9,0 z" style="stroke:none"/>
      <circle cx="31.5" cy="13.5" r="4.5" style="stroke:none"/>
    </symbol>

    <symbol id="Escalator_Inv">
      <title>Escalator</title>
      <rect x="0.5" y="0.5" width="71" height="71" ry="6" style="stroke:white"/>
      <path d="m 55,28 c -1,0 -2,0 -3,1 L 27,54 c -2,2 -4,3 -6,3 l -9,0 a 6,6 270 1 1 0,-12 l 5,0 c 1,0 2,0 3,-1 L 45,19 c 2,-2 4,-3 6,-3 l 9,0 a 6,6 90 1 1 0,12 z" style="fill:none;stroke:white;stroke-width:4"/>
      <path d="m 27,35 9,-9 0,-3 a 4.5,4.5 0 0 0 -9,0 z" style="fill:white;stroke:none"/>
      <circle cx="31.5" cy="13.5" r="4.5" style="fill:white;stroke:none"/>
    </symbol>

    <symbol id="EscalatorDown">
      <title>Escalator Down</title>
      <path d="m 55,28 c -1,0 -2,0 -3,1 L 27,54 c -2,2 -4,3 -6,3 l -9,0 a 6,6 270 1 1 0,-12 l 5,0 c 1,0 2,0 3,-1 L 45,19 c 2,-2 4,-3 6,-3 l 9,0 a 6,6 90 1 1 0,12 z" style="fill:none;stroke-width:4"/>
      <path d="m 27,35 9,-9 0,-3 a 4.5,4.5 0 0 0 -9,0 z" style="stroke:none"/>
      <circle cx="31.5" cy="13.5" r="4.5" style="stroke:none"/>
      <path d="M 42,57 54,45 m -12,3 0,9 9,0" style="fill:none;stroke-width:4;stroke-linecap:round;stroke-linejoin:round"/>
    </symbol>

    <symbol id="EscalatorDown_Inv">
      <title>Escalator Down</title>
      <rect x="0.5" y="0.5" width="71" height="71" ry="6" style="stroke:white"/>
      <path d="m 55,28 c -1,0 -2,0 -3,1 L 27,54 c -2,2 -4,3 -6,3 l -9,0 a 6,6 270 1 1 0,-12 l 5,0 c 1,0 2,0 3,-1 L 45,19 c 2,-2 4,-3 6,-3 l 9,0 a 6,6 90 1 1 0,12 z" style="fill:none;stroke:white;stroke-width:4"/>
      <path d="m 27,35 9,-9 0,-3 a 4.5,4.5 0 0 0 -9,0 z" style="fill:white;stroke:none"/>
      <circle cx="31.5" cy="13.5" r="4.5" style="fill:white;stroke:none"/>
      <path d="M 42,57 54,45 m -12,3 0,9 9,0" style="fill:none;stroke:white;stroke-width:4;stroke-linecap:round;stroke-linejoin:round"/>
    </symbol>

    <symbol id="EscalatorUp">
      <title>Escalator Up</title>
      <path d="m 55,28 c -1,0 -2,0 -3,1 L 27,54 c -2,2 -4,3 -6,3 l -9,0 a 6,6 270 1 1 0,-12 l 5,0 c 1,0 2,0 3,-1 L 45,19 c 2,-2 4,-3 6,-3 l 9,0 a 6,6 90 1 1 0,12 z" style="fill:none;stroke-width:4"/>
      <path d="m 27,35 9,-9 0,-3 a 4.5,4.5 0 0 0 -9,0 z" style="stroke:none"/>
      <circle cx="31.5" cy="13.5" r="4.5" style="stroke:none"/>
      <path d="M 54,45 42,57 m 12,-3 0,-9 -9,0" style="fill:none;stroke-width:4;stroke-linecap:round;stroke-linejoin:round"/>
    </symbol>

    <symbol id="EscalatorUp_Inv">
      <title>Escalator Up</title>
      <rect x="0.5" y="0.5" width="71" height="71" ry="6" style="stroke:white"/>
      <path d="m 55,28 c -1,0 -2,0 -3,1 L 27,54 c -2,2 -4,3 -6,3 l -9,0 a 6,6 270 1 1 0,-12 l 5,0 c 1,0 2,0 3,-1 L 45,19 c 2,-2 4,-3 6,-3 l 9,0 a 6,6 90 1 1 0,12 z" style="fill:none;stroke:white;stroke-width:4"/>
      <path d="m 27,35 9,-9 0,-3 a 4.5,4.5 0 0 0 -9,0 z" style="fill:white;stroke:none"/>
      <circle cx="31.5" cy="13.5" r="4.5" style="fill:white;stroke:none"/>
      <path d="M 54,45 42,57 m 12,-3 0,-9 -9,0" style="fill:none;stroke:white;stroke-width:4;stroke-linecap:round;stroke-linejoin:round"/>
    </symbol>

    <symbol id="Stairs">
      <title>Stairs</title>
      <path d="m 9,56.5 12,0 0,-10 10,0 0,-10 10,0 0,-10 10,0 0,-10 12,0" style="fill:none;stroke-width:5"/>
    </symbol>

    <symbol id="Stairs_Inv">
      <title>Stairs</title>
      <rect x="0.5" y="0.5" width="71" height="71" ry="6" style="stroke:white"/>
      <path d="m 9,56.5 12,0 0,-10 10,0 0,-10 10,0 0,-10 10,0 0,-10 12,0" style="fill:none;stroke:white;stroke-width:5"/>
    </symbol>

    <symbol id="StairsDown">
      <title>Stairs Down</title>
      <path d="m 9,56.5 12,0 0,-10 10,0 0,-10 10,0 0,-10 10,0 0,-10 12,0" style="fill:none;stroke-width:5"/>
      <path d="M 42,57 54,45 m -12,3 0,9 9,0" style="fill:none;stroke-width:4;stroke-linecap:round;stroke-linejoin:round"/>
    </symbol>

    <symbol id="StairsDown_Inv">
      <title>Stairs Down</title>
      <rect x="0.5" y="0.5" width="71" height="71" ry="6" style="stroke:white"/>
      <path d="m 9,56.5 12,0 0,-10 10,0 0,-10 10,0 0,-10 10,0 0,-10 12,0" style="fill:none;stroke:white;stroke-width:5"/>
      <path d="M 42,57 54,45 m -12,3 0,9 9,0" style="fill:none;stroke:white;stroke-width:4;stroke-linecap:round;stroke-linejoin:round"/>
    </symbol>

    <symbol id="StairsUp">
      <title>Stairs Up</title>
      <path d="m 9,56.5 12,0 0,-10 10,0 0,-10 10,0 0,-10 10,0 0,-10 12,0" style="fill:none;stroke-width:5"/>
      <path d="M 54,45 42,57 m 12,-3 0,-9 -9,0" style="fill:none;stroke-width:4;stroke-linecap:round;stroke-linejoin:round"/>
    </symbol>

    <symbol id="StairsUp_Inv">
      <title>Stairs Up</title>
      <rect x="0.5" y="0.5" width="71" height="71" ry="6" style="stroke:white"/>
      <path d="m 9,56.5 12,0 0,-10 10,0 0,-10 10,0 0,-10 10,0 0,-10 12,0" style="fill:none;stroke:white;stroke-width:5"/>
      <path d="M 54,45 42,57 m 12,-3 0,-9 -9,0" style="fill:none;stroke:white;stroke-width:4;stroke-linecap:round;stroke-linejoin:round"/>
    </symbol>

    <symbol id="Elevator">
      <title>Elevator</title>
      <g style="fill:none;stroke-width:5;stroke-linecap:round;stroke-linejoin:round">
        <!-- Arrow up -->
        <path d="m 26.5,23.5 0,-17 M 20,14 26.5,6.5 33,14"/>
        <!-- Arrow down -->
        <path d="m 45.5,6.5 0,17 M 39,16 45.5,23.5 52,16"/>
      </g>
      <rect x="17" y="28" width="38" height="38" ry="5" style="stroke:none"/>
      <rect x="22" y="33" width="28" height="28"        style="fill:white;stroke:none"/>
      <g id="person1" style="stroke:none">
	<circle cx="27.5" cy="38.75" r="1.75"/>
	<path d="m 24.5,41 a 1,1 0 0 0 -1,1 l 0,7 a 1,1 0 0 0 1,1 l 0.25,0 0,8.5 a 1.25,1.25 0 1 0 2.5,0 l 0,-8.5 0.5,0 0,8.5 a 1.25,1.25 0 1 0 2.5,0 l 0,-8.5 0.25,0 a 1,1 0 0 0 1,-1 l 0,-7 a 1,1 0 0 0 -1,-1 l -6,0 z"/>
      </g>
      <use x="8.5" xlink:href="#person1"/>
      <use x="17"  xlink:href="#person1"/>
    </symbol>

    <symbol id="Elevator_Inv">
      <title>Elevator</title>
      <rect x="0.5" y="0.5" width="71" height="71" ry="6" style="stroke:white"/>
      <g style="fill:none;stroke:white;stroke-width:5;stroke-linecap:round;stroke-linejoin:round">
        <!-- Arrow up -->
        <path d="m 26.5,23.5 0,-17 M 20,14 26.5,6.5 33,14"/>
        <!-- Arrow down -->
        <path d="m 45.5,6.5 0,17 M 39,16 45.5,23.5 52,16"/>
      </g>
      <rect x="17" y="28" width="38" height="38" ry="5" style="fill:white;stroke:none"/>
      <rect x="22" y="33" width="28" height="28"        style="stroke:none"/>
      <g id="person2" style="fill:white;stroke:none">
	<circle cx="27.5" cy="38.75" r="1.75"/>
	<path d="m 24.5,41 a 1,1 0 0 0 -1,1 l 0,7 a 1,1 0 0 0 1,1 l 0.25,0 0,8.5 a 1.25,1.25 0 1 0 2.5,0 l 0,-8.5 0.5,0 0,8.5 a 1.25,1.25 0 1 0 2.5,0 l 0,-8.5 0.25,0 a 1,1 0 0 0 1,-1 l 0,-7 a 1,1 0 0 0 -1,-1 l -6,0 z"/>
      </g>
      <use x="8.5" xlink:href="#person2"/>
      <use x="17"  xlink:href="#person2"/>
    </symbol>

    <symbol id="ToiletsMen">
      <title>Toilets - Men</title>
      <g style="stroke:none">
	<circle cx="36" cy="9" r="5"/>
	<path d="m 24,22 0,15.5 a 2.25,2.25 0 0 0 4.5,0 l 0,-14.5 1,0 0,39.5 a 3,3 0 0 0 6,0 l 0,-22.5 1,0 0,22.5 a 3,3 0 0 0 6,0 l 0,-39.5 1,0 0,14.5 a 2.25,2.25 0 0 0 4.5,0 L 48,22 a 7,7 0 0 0 -7,-7 l -10,0 a 7,7 0 0 0 -7,7 z"/>
      </g>
    </symbol>

    <symbol id="ToiletsMen_Inv">
      <title>Toilets - Men</title>
      <rect x="0.5" y="0.5" width="71" height="71" ry="6" style="stroke:white"/>
      <g style="fill:white;stroke:none">
	<circle cx="36" cy="9" r="5"/>
	<path d="m 24,22 0,15.5 a 2.25,2.25 0 0 0 4.5,0 l 0,-14.5 1,0 0,39.5 a 3,3 0 0 0 6,0 l 0,-22.5 1,0 0,22.5 a 3,3 0 0 0 6,0 l 0,-39.5 1,0 0,14.5 a 2.25,2.25 0 0 0 4.5,0 L 48,22 a 7,7 0 0 0 -7,-7 l -10,0 a 7,7 0 0 0 -7,7 z"/>
      </g>
    </symbol>

    <symbol id="ToiletsWomen">
      <title>Toilets - Women</title>
      <g style="stroke:none">
	<circle cx="36" cy="10" r="5"/>
	<path d="m 35.5,64 a 2.5,2.5 0 0 1 -5,0 l 0,-17 -6.5,0 7,-23.5 -1,0 -4.1,13.4 a 2.1,2.1 0 0 1 -4,-1.2 L 26.5,20.5 A 6.5,6.5 0 0 1 33,16 l 6,0 a 6.5,6.5 0 0 1 6.5,4.5 l 4.6,15.2 a 2.1,2.1 0 0 1 -4,1.2 L 42,23.5 l -1,0 7,23.5 -6.5,0 0,17 a 2.5,2.5 0 0 1 -5,0 l 0,-17 -1,0 z"/>
      </g>
    </symbol>

    <symbol id="ToiletsWomen_Inv">
      <title>Toilets - Women</title>
      <rect x="0.5" y="0.5" width="71" height="71" ry="6" style="stroke:white"/>
      <g  style="fill:white;stroke:none">
	<circle cx="36" cy="10" r="5"/>
	<path d="m 35.5,64 a 2.5,2.5 0 0 1 -5,0 l 0,-17 -6.5,0 7,-23.5 -1,0 -4.1,13.4 a 2.1,2.1 0 0 1 -4,-1.2 L 26.5,20.5 A 6.5,6.5 0 0 1 33,16 l 6,0 a 6.5,6.5 0 0 1 6.5,4.5 l 4.6,15.2 a 2.1,2.1 0 0 1 -4,1.2 L 42,23.5 l -1,0 7,23.5 -6.5,0 0,17 a 2.5,2.5 0 0 1 -5,0 l 0,-17 -1,0 z"/>
      </g>
    </symbol>

    <symbol id="Toilets">
      <title>Toilets</title>
      <g style="stroke:none">
	<!-- Divider -->
	<rect x="33.5" y="12" width="5" height="48"/>
	<!-- Woman -->
	<circle cx="19.5" cy="15" r="4"/>
	<path d="m 19,44.5 0,14 a 2,2 0 0 1 -4,0 l 0,-14 -5,0 5.5,-18.5 -1,0 -3,10.5 A 1.821,1.821 0 0 1 8,35.5 l 3.5,-12 A 5.7,4.6 0 0 1 17,20 l 5,0 a 5.7,4.6 0 0 1 5.5,3.5 l 3.5,12 a 1.821,1.821 0 0 1 -3.5,1 l -3,-10.5 -1,0 5.5,18.5 -5,0 0,14 a 2,2 0 0 1 -4,0 l 0,-14 z"/>
	<!-- Man -->
	<circle cx="52.5" cy="15" r="4"/>
	<path d="m 43,25 0,13 a 1.75,1.75 0 0 0 3.5,0 l 0,-11.5 1,0 0,31.75 a 2.25,2.25 0 0 0 4.5,0 l 0,-18.75 1,0 0,18.75 a 2.25,2.25 0 0 0 4.5,0 l 0,-31.75 1,0 0,11.5 a 1.75,1.75 0 0 0 3.5,0 l 0,-13 a 5,5 0 0 0 -5,-5 l -9,0 a 5,5 0 0 0 -5,5 z"/>
      </g>
    </symbol>

    <symbol id="Toilets_Inv">
      <title>Toilets</title>
      <rect x="0.5" y="0.5" width="71" height="71" ry="6" style="stroke:white"/>
      <g style="fill:white;stroke:none">
	<!-- Divider -->
	<rect x="33.5" y="12" width="5" height="48"/>
	<!-- Woman -->
	<circle cx="19.5" cy="15" r="4"/>
	<path d="m 19,44.5 0,14 a 2,2 0 0 1 -4,0 l 0,-14 -5,0 5.5,-18.5 -1,0 -3,10.5 A 1.821,1.821 0 0 1 8,35.5 l 3.5,-12 A 5.7,4.6 0 0 1 17,20 l 5,0 a 5.7,4.6 0 0 1 5.5,3.5 l 3.5,12 a 1.821,1.821 0 0 1 -3.5,1 l -3,-10.5 -1,0 5.5,18.5 -5,0 0,14 a 2,2 0 0 1 -4,0 l 0,-14 z"/>
	<!-- Man -->
	<circle cx="52.5" cy="15" r="4"/>
	<path d="m 43,25 0,13 a 1.75,1.75 0 0 0 3.5,0 l 0,-11.5 1,0 0,31.75 a 2.25,2.25 0 0 0 4.5,0 l 0,-18.75 1,0 0,18.75 a 2.25,2.25 0 0 0 4.5,0 l 0,-31.75 1,0 0,11.5 a 1.75,1.75 0 0 0 3.5,0 l 0,-13 a 5,5 0 0 0 -5,-5 l -9,0 a 5,5 0 0 0 -5,5 z"/>
      </g>
    </symbol>

    <symbol id="Nursery">
      <title>Nursery</title>
      <g style="stroke:none">
	<circle cx="36" cy="15.75" r="7.5"/>
	<path d="m 28,39.5 0,-5.5 -6,6 a 2.475,2.475 0 0 1 -3.5,-3.5 l 10,-10 c 1,-1 1.5,-1.5 3,-1.5 l 9,0 c 1.5,0 2,0.5 3,1.5 l 10,10 A 2.475,2.475 0 0 1 50,40 l -6,-6 0,5.5 z"/>
	<path id="leg1" d="M 34,48.5 29.5,53 34,57.5 A 2.475,2.475 0 0 1 30.5,61 L 23,53.5 a 4.2,4.2 0 0 1 0,-6 l 5,-5 z"/>
	<use xlink:href="#leg1" transform="matrix(-1,0,0,1,72,0)"/>
      </g>
    </symbol>

    <symbol id="Nursery_Inv">
      <title>Nursery</title>
      <rect x="0.5" y="0.5" width="71" height="71" ry="6" style="stroke:white"/>
      <g style="fill:white;stroke:none">
	<circle cx="36" cy="15.75" r="7.5"/>
	<path d="m 28,39.5 0,-5.5 -6,6 a 2.475,2.475 0 0 1 -3.5,-3.5 l 10,-10 c 1,-1 1.5,-1.5 3,-1.5 l 9,0 c 1.5,0 2,0.5 3,1.5 l 10,10 A 2.475,2.475 0 0 1 50,40 l -6,-6 0,5.5 z"/>
	<path id="leg2" d="M 34,48.5 29.5,53 34,57.5 A 2.475,2.475 0 0 1 30.5,61 L 23,53.5 a 4.2,4.2 0 0 1 0,-6 l 5,-5 z"/>
	<use xlink:href="#leg2" transform="matrix(-1,0,0,1,72,0)"/>
      </g>
    </symbol>

    <symbol id="DrinkingFountain">
      <title>Drinking Fountain</title>
      <g style="stroke:none">
	<circle cx="45" cy="16" r="5.5"/>
	<path d="m 34,28.5 0,5 a 2.5,2.5 0 0 0 0.75,1.75 l 6.5,6.5 a 2.475,2.475 0 0 0 3.5,-3.5 L 39,32.5 l 0,-10 a 5.5,5.5 0 0 0 -8,-5 L 19,24 a 5,5 0 0 0 -3,5 l 0,32.5 a 4,4 0 0 0 8,0 l 0,-27 z"/> 
	<path d="m 54.5,45 7,0 0,-16 -17,0 a 2.5,2.5 0 0 0 -1.75,4.25 z"/>
	<!-- Water Drops -->
	<circle cx="47.75" cy="27.25" r="0.7"/>
	<circle cx="49.5"  cy="27.25" r="0.7"/>
	<circle cx="47.75" cy="25.25" r="0.7"/>
	<circle cx="49.75" cy="25.25" r="0.7"/>
	<circle cx="48.5"  cy="23.25" r="0.7"/>
	<circle cx="50.75" cy="23.75" r="0.7"/>
	<circle cx="49.75" cy="21.75" r="0.75"/>
	<circle cx="51.5"  cy="21.0"  r="0.75"/>
	<circle cx="51.5"  cy="21.0"  r="0.75"/>
	<circle cx="52.5"  cy="23.0"  r="0.75"/>
	<circle cx="53.75" cy="21.0"  r="0.85"/>
	<circle cx="54.25" cy="23.5"  r="0.85"/>
	<circle cx="55.5"  cy="22.0"  r="0.9"/>
	<circle cx="55.75" cy="25.25" r="0.9"/>
	<circle cx="57.25" cy="23.5"  r="0.9"/>
      </g>
    </symbol>

    <symbol id="DrinkingFountain_Inv">
      <title>Drinking Fountain</title>
      <rect x="0.5" y="0.5" width="71" height="71" ry="6" style="stroke:white"/>
      <g style="fill:white;stroke:none">
	<circle cx="45" cy="16" r="5.5"/>
	<path d="m 34,28.5 0,5 a 2.5,2.5 0 0 0 0.75,1.75 l 6.5,6.5 a 2.475,2.475 0 0 0 3.5,-3.5 L 39,32.5 l 0,-10 a 5.5,5.5 0 0 0 -8,-5 L 19,24 a 5,5 0 0 0 -3,5 l 0,32.5 a 4,4 0 0 0 8,0 l 0,-27 z"/> 
	<path d="m 54.5,45 7,0 0,-16 -17,0 a 2.5,2.5 0 0 0 -1.75,4.25 z"/>
	<!-- Water Drops -->
	<circle cx="47.75" cy="27.25" r="0.7"/>
	<circle cx="49.5"  cy="27.25" r="0.7"/>
	<circle cx="47.75" cy="25.25" r="0.7"/>
	<circle cx="49.75" cy="25.25" r="0.7"/>
	<circle cx="48.5"  cy="23.25" r="0.7"/>
	<circle cx="50.75" cy="23.75" r="0.7"/>
	<circle cx="49.75" cy="21.75" r="0.75"/>
	<circle cx="51.5"  cy="21.0"  r="0.75"/>
	<circle cx="51.5"  cy="21.0"  r="0.75"/>
	<circle cx="52.5"  cy="23.0"  r="0.75"/>
	<circle cx="53.75" cy="21.0"  r="0.85"/>
	<circle cx="54.25" cy="23.5"  r="0.85"/>
	<circle cx="55.5"  cy="22.0"  r="0.9"/>
	<circle cx="55.75" cy="25.25" r="0.9"/>
	<circle cx="57.25" cy="23.5"  r="0.9"/>
      </g>
    </symbol>

    <symbol id="WaitingRoom">
      <title>Waiting Room</title>
      <!-- Clock -->
      <circle cx="49.5" cy="17" r="8" style="fill:white;stroke-width:1.75"/>
      <path d="m 49.5,12 0,5 4.5,-2" style="fill:none;stroke-width:1.25;stroke-linecap:round;stroke-linejoin:round"/> 
      <!-- Person -->
      <circle cx="25" cy="14" r="6" style="stroke:none"/>
      <path d="m 42,63 a 3,3 0 0 0 6,0 L 48,43.5 A 4.5,4.5 0 0 0 43.5,39 L 33.875,39 31,25 a 5.5,5.5 0 0 0 -10.75,2.25 l 3.375,16.5 A 5.5,5.5 0 0 0 29,48 l 13,0 z" style="stroke:none"/>
      <!-- Bench -->
      <path d="m 17.25,30.5 3,14.5 c 1,3.5 4,6.5 7.5,6.5 l 9.5,0" style="fill:none;stroke-width:5;stroke-linecap:round"/>
    </symbol>

    <symbol id="WaitingRoom_Inv">
      <title>Waiting Room</title>
      <rect x="0.5" y="0.5" width="71" height="71" ry="6" style="stroke:white"/>
      <!-- Clock -->
      <circle cx="49.5" cy="17" r="8" style="stroke:white;stroke-width:1.75"/>
      <path d="m 49.5,12 0,5 4.5,-2" style="fill:none;stroke:white;stroke-width:1.25;stroke-linecap:round;stroke-linejoin:round"/> 
      <!-- Person -->
      <circle cx="25" cy="14" r="6" style="fill:white;stroke:none"/>
      <path d="m 42,63 a 3,3 0 0 0 6,0 L 48,43.5 A 4.5,4.5 0 0 0 43.5,39 L 33.875,39 31,25 a 5.5,5.5 0 0 0 -10.75,2.25 l 3.375,16.5 A 5.5,5.5 0 0 0 29,48 l 13,0 z" style="fill:white;stroke:none"/>
      <!-- Bench -->
      <path d="m 17.25,30.5 3,14.5 c 1,3.5 4,6.5 7.5,6.5 l 9.5,0" style="fill:none;stroke:white;stroke-width:5;stroke-linecap:round"/>
    </symbol>

    <symbol id="Information">
      <title>Information</title>
      <circle cx="36" cy="36" r="24" style="fill:none;stroke-width:6"/>
      <path d="m 27,32 c 0,-5 1,-11 9,-11 4,0 8,3 8,7 0,4 -2,6 -4,7 -2,1 -4,2 -4,5 0,3 0,6 0,6" style="fill:none;stroke-width:6"/>
      <rect x="33" y="48" width="6" height="6" style="stroke:none"/>
    </symbol>

    <symbol id="Information_Inv">
      <title>Information</title>
      <rect x="0.5" y="0.5" width="71" height="71" ry="6" style="stroke:white"/>
      <circle cx="36" cy="36" r="24" style="fill:none;stroke:white;stroke-width:6"/>
      <path d="m 27,32 c 0,-5 1,-11 9,-11 4,0 8,3 8,7 0,4 -2,6 -4,7 -2,1 -4,2 -4,5 0,3 0,6 0,6" style="fill:none;stroke:white;stroke-width:6"/>
      <rect x="33" y="48" width="6" height="6" style="fill:white;stroke:none"/>
    </symbol>

    <symbol id="HotelInformation">
      <title>Hotel Information</title>
      <!-- Question mark w/ circle -->
      <circle cx="36" cy="20" r="11" style="fill:none;stroke-width:3"/>
      <path d="m 31.5,18 c 0,-2.5 0.5,-5.5 4.5,-5.5 2,0 4,1.5 4,3.5 0,2 -1,3 -2,3.5 -1,0.5 -2,1 -2,2.5 0,1.5 0,3 0,3" style="fill:none;stroke-width:3"/>
      <rect x="34.5" y="26" width="3" height="3" style="stroke:none"/>
      <!-- Bed -->
      <path d="m 9,32 0,31 6,0 0,-8 42,0 0,8 6,0 0,-24 a 3,3 0 0 0 -6,0 l 0,9 -42,0 0,-16 a 3,3 0 0 0 -6,0 z" style="stroke:none"/>
      <path d="m 52,36 a 4,4 0 0 1 4,4 l 0,7 -24,0 0,-11 z" style="stroke:none"/>
      <path d="m 18.5,44.5 10,0 0,-6" style="fill:none;stroke-width:5;stroke-linecap:round"/>
      <circle cx="20.75" cy="36.75" r="4.75" style="stroke:none"/>
    </symbol>

    <symbol id="HotelInformation_Inv">
      <title>Hotel Information</title>
      <rect x="0.5" y="0.5" width="71" height="71" ry="6" style="stroke:white"/>
      <!-- Question mark w/ circle -->
      <circle cx="36" cy="20" r="11" style="fill:none;stroke:white;stroke-width:3"/>
      <path d="m 31.5,18 c 0,-2.5 0.5,-5.5 4.5,-5.5 2,0 4,1.5 4,3.5 0,2 -1,3 -2,3.5 -1,0.5 -2,1 -2,2.5 0,1.5 0,3 0,3" style="fill:none;stroke:white;stroke-width:3"/>
      <rect x="34.5" y="26" width="3" height="3" style="fill:white;stroke:none"/>
      <!-- Bed -->
      <path d="m 9,32 0,31 6,0 0,-8 42,0 0,8 6,0 0,-24 a 3,3 0 0 0 -6,0 l 0,9 -42,0 0,-16 a 3,3 0 0 0 -6,0 z" style="fill:white;stroke:none"/>
      <path d="m 52,36 a 4,4 0 0 1 4,4 l 0,7 -24,0 0,-11 z" style="fill:white;stroke:none"/>
      <path d="m 18.5,44.5 10,0 0,-6" style="fill:none;stroke:white;stroke-width:5;stroke-linecap:round"/>
      <circle cx="20.75" cy="36.75" r="4.75" style="fill:white;stroke:none"/>
    </symbol>

    <symbol id="AirTransportation">
      <title>Air Transportation</title>
      <path d="m 39,10 0,18 25,15 0,7 -25,-9 0,14 6,4 0,6 -9,-3 -9,3 0,-6 6,-4 0,-14 -25,9 0,-7 25,-15 0,-18 a 3,3 0 0 1 6,0 z" style="stroke:none"/>
    </symbol>

    <symbol id="AirTransportation_Inv">
      <title>Air Transportation</title>
      <rect x="0.5" y="0.5" width="71" height="71" ry="6" style="stroke:white"/>
      <path d="m 39,10 0,18 25,15 0,7 -25,-9 0,14 6,4 0,6 -9,-3 -9,3 0,-6 6,-4 0,-14 -25,9 0,-7 25,-15 0,-18 a 3,3 0 0 1 6,0 z" style="fill:white;stroke:none"/>
    </symbol>

    <symbol id="Heliport">
      <title>Heliport</title>
      <!-- Pontoon -->
      <path d="m 31,53 30,0" style="fill:none;stroke-width:6;stroke-linecap:round"/>
      <!-- Body -->
      <path d="M 30.5,42 29,38 10,30.5 C 7.5,29.5 8,26 11,26 l 41,0 c 4.5,0 7.4,3 8.5,6 l 3,8 c 1,3 -0.5,5 -3.5,5 l -26,0 c -2.5,0 -3,-1.5 -3.5,-3 z" style="stroke:none"/>
      <!-- Windows -->
      <g style="fill:white;stroke:none">
	<path d="m 40,36 4.5,0 0,-7 -4.5,0 z"/>
	<path d="m 47,36 4.5,0 0,-7 -4.5,0 z"/>
	<path d="m 58,32.5 1.5,3.5 -5.5,0 0,-7 c 1.5,0.3 3.1,1.5 4,3.5 z"/>
      </g>
      <!-- Roter -->
      <g style="fill:none;stroke-width:3">
	<path d="m 38.5,20 0,6"/>
	<path d="m 33.5,19.5 10,0" style="stroke-width:1.5"/>
	<path d="m 15.5,19.5 17,0" style="stroke-linecap:round"/>
	<path d="m 44.5,19.5 17,0" style="stroke-linecap:round"/>
      </g>
      <!-- Tail Roter -->
      <circle cx="10.5" cy="28.5" r="5.5" style="fill:none;stroke-width:2.5"/>
    </symbol>

    <symbol id="Heliport_Inv">
      <title>Heliport</title>
      <rect x="0.5" y="0.5" width="71" height="71" ry="6" style="stroke:white"/>
      <!-- Pontoon -->
      <path d="m 31,53 30,0" style="fill:none;stroke:white;stroke-width:6;stroke-linecap:round"/>
      <!-- Body -->
      <path d="M 30.5,42 29,38 10,30.5 C 7.5,29.5 8,26 11,26 l 41,0 c 4.5,0 7.4,3 8.5,6 l 3,8 c 1,3 -0.5,5 -3.5,5 l -26,0 c -2.5,0 -3,-1.5 -3.5,-3 z" style="fill:white;stroke:none"/>
      <!-- Windows -->
      <g style="stroke:none">
	<path d="m 40,36 4.5,0 0,-7 -4.5,0 z"/>
	<path d="m 47,36 4.5,0 0,-7 -4.5,0 z"/>
	<path d="m 58,32.5 1.5,3.5 -5.5,0 0,-7 c 1.5,0.3 3.1,1.5 4,3.5 z"/>
      </g>
      <!-- Roter -->
      <g style="fill:none;stroke:white;stroke-width:3">
	<path d="m 38.5,20 0,6"/>
	<path d="m 33.5,19.5 10,0" style="stroke-width:1.5"/>
	<path d="m 15.5,19.5 17,0" style="stroke-linecap:round"/>
	<path d="m 44.5,19.5 17,0" style="stroke-linecap:round"/>
      </g>
      <!-- Tail Roter -->
      <circle cx="10.5" cy="28.5" r="5.5" style="fill:none;stroke:white;stroke-width:2.5"/>
    </symbol>

    <symbol id="Taxi">
      <title>Taxi</title>
      <path d="m 23,54 0,5 a 3.5,3.5 0 0 1 -7,0 l 0,-5 -4,0 0,-14 a 4,4 0 0 1 4,-4 l 4,-10 a 6,6 0 0 1 6,-4 l 5,0 0,-2.5 A 1.5,1.5 0 0 1 32.5,18 l 7,0 a 1.5,1.5 0 0 1 1.5,1.5 l 0,2.5 5,0 a 6,6 0 0 1 6,4 l 4,10 a 4,4 0 0 1 4,4 l 0,14 -4,0 0,5 a 3.5,3.5 0 0 1 -7,0 l 0,-5 z m -3,-18 3.5,-8.5 a 2.2,2.2 0 0 1 2,-1.5 l 21,0 a 2.2,2.2 0 0 1 2,1.5 L 52,36 z" style="stroke:none;fill-rule:evenodd"/>
      <circle cx="19.5" cy="43" r="3.5" style="fill:white;stroke:none"/>
      <circle cx="51.5" cy="43" r="3.5" style="fill:white;stroke:none"/>
    </symbol>

    <symbol id="Taxi_Inv">
      <title>Taxi</title>
      <rect x="0.5" y="0.5" width="71" height="71" ry="6" style="stroke:white"/>
      <path d="m 23,54 0,5 a 3.5,3.5 0 0 1 -7,0 l 0,-5 -4,0 0,-14 a 4,4 0 0 1 4,-4 l 4,-10 a 6,6 0 0 1 6,-4 l 5,0 0,-2.5 A 1.5,1.5 0 0 1 32.5,18 l 7,0 a 1.5,1.5 0 0 1 1.5,1.5 l 0,2.5 5,0 a 6,6 0 0 1 6,4 l 4,10 a 4,4 0 0 1 4,4 l 0,14 -4,0 0,5 a 3.5,3.5 0 0 1 -7,0 l 0,-5 z m -3,-18 3.5,-8.5 a 2.2,2.2 0 0 1 2,-1.5 l 21,0 a 2.2,2.2 0 0 1 2,1.5 L 52,36 z" style="fill:white;stroke:none;fill-rule:evenodd"/>
      <circle cx="19.5" cy="43" r="3.5" style="stroke:none"/>
      <circle cx="51.5" cy="43" r="3.5" style="stroke:none"/>
    </symbol>

    <symbol id="Bus">
      <title>Bus</title>
      <path d="m 14,58 4,0 0,4 a 3,3 0 0 0 6,0 l 0,-4 24,0 0,4 a 3,3 0 0 0 6,0 l 0,-4 4,0 0,-23 -2,-16 a 8,8 0 0 0 -6,-6 40,40 0 0 0 -28,0 8,8 0 0 0 -6,6 l -2,16 0,23 z M 22,20 a 2.5,2.5 0 0 0 -2.5,2 L 18,35 a 1.5,1.75 0 0 0 1.5,2 l 33,0 A 1.5,1.75 0 0 0 54,35 L 52.5,22 A 2.5,2.5 0 0 0 50,20 z" style="stroke:none;fill-rule:evenodd"/>
      <path d="m 27,16.5 18,0" style="fill:none;stroke:white;stroke-width:3;stroke-linecap:round"/>
      <circle cx="21" cy="48" r="3" style="fill:white;stroke:none"/>
      <circle cx="51" cy="48" r="3" style="fill:white;stroke:none"/>
    </symbol>

    <symbol id="Bus_Inv">
      <title>Bus</title>
      <rect x="0.5" y="0.5" width="71" height="71" ry="6" style="stroke:white"/>
      <path d="m 14,58 4,0 0,4 a 3,3 0 0 0 6,0 l 0,-4 24,0 0,4 a 3,3 0 0 0 6,0 l 0,-4 4,0 0,-23 -2,-16 a 8,8 0 0 0 -6,-6 40,40 0 0 0 -28,0 8,8 0 0 0 -6,6 l -2,16 0,23 z M 22,20 a 2.5,2.5 0 0 0 -2.5,2 L 18,35 a 1.5,1.75 0 0 0 1.5,2 l 33,0 A 1.5,1.75 0 0 0 54,35 L 52.5,22 A 2.5,2.5 0 0 0 50,20 z" style="fill:white;stroke:none;fill-rule:evenodd"/>
      <path d="m 27,16.5 18,0" style="fill:none;stroke-width:3;stroke-linecap:round"/>
      <circle cx="21" cy="48" r="3" style="stroke:none"/>
      <circle cx="51" cy="48" r="3" style="stroke:none"/>
    </symbol>

    <symbol id="GroundTransportation">
      <title>Ground Transportation</title>
      <!-- Taxi -->
      <path d="m 11.5,48 0,3 a 2,2 0 0 1 -4,0 L 7.4,48 5,48 5,39.5 A 2.5,2.5 0 0 1 7.5,37 L 10,31 a 4,4 0 0 1 3.5,-2 l 3,0 0,-1.5 a 1,1 0 0 1 1,-1 l 4,0 a 1,1 0 0 1 1,1 l 0,1.5 3,0 a 4,4 0 0 1 3.5,2 l 2.5,6 a 2.5,2.5 0 0 1 2.5,2.5 l 0,8.5 -2.5,0 0,3 a 2,2 0 0 1 -4,0 l 0,-3 z M 10,37 12,32 a 1.5,1.5 0 0 1 1.5,-1 l 12,0 a 2.5,1.5 0 0 1 1.5,1 l 2,5 z" style="stroke:none;fill-rule:evenodd"/>
      <circle cx="9.5" cy="41.5" r="2" style="fill:white;stroke:none"/>
      <circle cx="29.5" cy="41.5" r="2" style="fill:white;stroke:none"/>
      <!-- Bus -->
      <path d="m 36,48 2.5,0 0,3 a 2,2 0 0 0 4,0 l 0,-3 18,0 0,3 a 2,2 0 0 0 4,0 l 0,-3 L 67,48 67,31.5 65.5,20 a 5.6,5.6 0 0 0 -4,-4 28,28 0 0 0 -20,0 5.6,5.6 0 0 0 -4,4 L 36,31.5 36,48 M 41.5,21 a 1.75,1.75 0 0 0 -2,1.5 l -1,9 a 1,1.225 0 0 0 1,1.5 l 24,0 a 1,1.225 0 0 0 1,-1.5 l -1,-9 A 1.75,1.75 0 0 0 61.128,21 zz" style="stroke:none;fill-rule:evenodd"/>
      <path d="m 45,18 13,0" style="fill:none;stroke:white;stroke-width:2;stroke-linecap:round"/>
      <circle cx="40.5" cy="40.5" r="2.25" style="fill:white;stroke:none"/>
      <circle cx="62.5" cy="40.5" r="2.25" style="fill:white;stroke:none"/>
    </symbol>

    <symbol id="GroundTransportation_Inv">
      <title>Ground Transportation</title>
      <rect x="0.5" y="0.5" width="71" height="71" ry="6" style="stroke:white"/>
      <!-- Taxi -->
      <path d="m 11.5,48 0,3 a 2,2 0 0 1 -4,0 L 7.4,48 5,48 5,39.5 A 2.5,2.5 0 0 1 7.5,37 L 10,31 a 4,4 0 0 1 3.5,-2 l 3,0 0,-1.5 a 1,1 0 0 1 1,-1 l 4,0 a 1,1 0 0 1 1,1 l 0,1.5 3,0 a 4,4 0 0 1 3.5,2 l 2.5,6 a 2.5,2.5 0 0 1 2.5,2.5 l 0,8.5 -2.5,0 0,3 a 2,2 0 0 1 -4,0 l 0,-3 z M 10,37 12,32 a 1.5,1.5 0 0 1 1.5,-1 l 12,0 a 2.5,1.5 0 0 1 1.5,1 l 2,5 z" style="fill:white;stroke:none;fill-rule:evenodd"/>
      <circle cx="9.5" cy="41.5" r="2" style="stroke:none"/>
      <circle cx="29.5" cy="41.5" r="2" style="stroke:none"/>
      <!-- Bus -->
      <path d="m 36,48 2.5,0 0,3 a 2,2 0 0 0 4,0 l 0,-3 18,0 0,3 a 2,2 0 0 0 4,0 l 0,-3 L 67,48 67,31.5 65.5,20 a 5.6,5.6 0 0 0 -4,-4 28,28 0 0 0 -20,0 5.6,5.6 0 0 0 -4,4 L 36,31.5 36,48 M 41.5,21 a 1.75,1.75 0 0 0 -2,1.5 l -1,9 a 1,1.225 0 0 0 1,1.5 l 24,0 a 1,1.225 0 0 0 1,-1.5 l -1,-9 A 1.75,1.75 0 0 0 61.128,21 zz" style="fill:white;stroke:none;fill-rule:evenodd"/>
      <path d="m 45,18 13,0" style="fill:none;stroke-width:2;stroke-linecap:round"/>
      <circle cx="40.5" cy="40.5" r="2.25" style="stroke:none"/>
      <circle cx="62.5" cy="40.5" r="2.25" style="stroke:none"/>
    </symbol>

    <symbol id="RailTransportation">
      <title>Rail Transportation</title>
      <g style="stroke:none">
	<path d="m 27,12 a 8,8 0 0 0 -8,8 l 0,26 a 8,8 0 0 0 6.156,7.781 L 17,66 l 5,0 6,-9 16,0 6,9 5,0 -8.156,-12.219 A 8,8 0 0 0 53,46 l 0,-26 a 8,8 0 0 0 -8,-8 z m 5,2 8,0 a 1,1 0 0 1 1,1 l 0,2 a 1,1 0 0 1 -1,1 l -8,0 a 1,1 0 0 1 -1,-1 l 0,-2 a 1,1 0 0 1 1,-1 z m -5,6 18,0 a 4,4 0 0 1 4,4 l 0,4 a 4,4 0 0 1 -4,4 l -18,0 a 4,4 0 0 1 -4,-4 l 0,-4 a 4,4 0 0 1 4,-4 z m 2.75,26 a 3.25,3.25 0 1 1 -6.5,0 3.25,3.25 0 1 1 6.5,0 z m 18.75,0 a 3.25,3.25 0 1 1 -6.5,0 3.25,3.25 0 1 1 6.5,0 z"/>
	<circle cx="33.25" cy="9.5" r="2"/>
	<circle cx="38.75" cy="9.5" r="2"/>
      </g>
    </symbol>

    <symbol id="RailTransportation_Inv">
      <title>Rail Transportation</title>
      <rect x="0.5" y="0.5" width="71" height="71" ry="6" style="stroke:white"/>
      <g style="fill:white;stroke:none">
	<path d="m 27,12 a 8,8 0 0 0 -8,8 l 0,26 a 8,8 0 0 0 6.156,7.781 L 17,66 l 5,0 6,-9 16,0 6,9 5,0 -8.156,-12.219 A 8,8 0 0 0 53,46 l 0,-26 a 8,8 0 0 0 -8,-8 z m 5,2 8,0 a 1,1 0 0 1 1,1 l 0,2 a 1,1 0 0 1 -1,1 l -8,0 a 1,1 0 0 1 -1,-1 l 0,-2 a 1,1 0 0 1 1,-1 z m -5,6 18,0 a 4,4 0 0 1 4,4 l 0,4 a 4,4 0 0 1 -4,4 l -18,0 a 4,4 0 0 1 -4,-4 l 0,-4 a 4,4 0 0 1 4,-4 z m 2.75,26 a 3.25,3.25 0 1 1 -6.5,0 3.25,3.25 0 1 1 6.5,0 z m 18.75,0 a 3.25,3.25 0 1 1 -6.5,0 3.25,3.25 0 1 1 6.5,0 z"/>
	<circle cx="33.25" cy="9.5" r="2"/>
	<circle cx="38.75" cy="9.5" r="2"/>
      </g>
    </symbol>

    <symbol id="WaterTransportation">
      <title>Water Transportation</title>
      <path d="m 32,8 0,5 -7,0 0,4 -4,0 0,8.25 -3,1.25 C 17,26.9 16.6,28 17,29 l 4,9 0,13.5 c -2,-0.5 -2.5,-2 -6,-2 -4,0 -4,2 -7,2 l 0,5 c 4,0 4,-2 7,-2 3,0 3,2 7,2 4,0 4,-2 7,-2 3,0 4,2 7,2 3,0 3,-2 7,-2 4,0 3,2 7,2 4,0 4,-2 7,-2 3,0 3,2 7,2 l 0,-5 c -3,0 -3,-2 -7,-2 -3.5,0 -4,1.5 -6,2 L 51,38 55,29 c 0.44,-1 0,-2.1 -1,-2.5 l -3,-1.25 0,-8.25 -4,0 0,-4 -7,0 0,-5 z m -3,9 14,0 0,4 4,0 0,2.5 L 36,19 25,23.5 25,21 29,21 z M 15,57.5 c -4,0 -4,2 -7,2 l 0,5 c 4,0 4,-2 7,-2 3,0 3,2 7,2 4,0 4,-2 7,-2 3,0 3,2 7,2 4,0 4,-2 7,-2 3,0 3,2 7,2 4,0 4,-2 7,-2 3,0 3,2 7,2 l 0,-5 c -3,0 -3,-2 -7,-2 -4,0 -4,2 -7,2 -3,0 -3,-2 -7,-2 -4,0 -4,2 -7,2 -3,0 -3,-2 -7,-2 -4,0 -4,2 -7,2 -3,0 -3,-2 -7,-2 z" style="stroke:none"/>
    </symbol>

    <symbol id="WaterTransportation_Inv">
      <title>Water Transportation</title>
      <rect x="0.5" y="0.5" width="71" height="71" ry="6" style="stroke:white"/>
      <path d="m 32,8 0,5 -7,0 0,4 -4,0 0,8.25 -3,1.25 C 17,26.9 16.6,28 17,29 l 4,9 0,13.5 c -2,-0.5 -2.5,-2 -6,-2 -4,0 -4,2 -7,2 l 0,5 c 4,0 4,-2 7,-2 3,0 3,2 7,2 4,0 4,-2 7,-2 3,0 4,2 7,2 3,0 3,-2 7,-2 4,0 3,2 7,2 4,0 4,-2 7,-2 3,0 3,2 7,2 l 0,-5 c -3,0 -3,-2 -7,-2 -3.5,0 -4,1.5 -6,2 L 51,38 55,29 c 0.44,-1 0,-2.1 -1,-2.5 l -3,-1.25 0,-8.25 -4,0 0,-4 -7,0 0,-5 z m -3,9 14,0 0,4 4,0 0,2.5 L 36,19 25,23.5 25,21 29,21 z M 15,57.5 c -4,0 -4,2 -7,2 l 0,5 c 4,0 4,-2 7,-2 3,0 3,2 7,2 4,0 4,-2 7,-2 3,0 3,2 7,2 4,0 4,-2 7,-2 3,0 3,2 7,2 4,0 4,-2 7,-2 3,0 3,2 7,2 l 0,-5 c -3,0 -3,-2 -7,-2 -4,0 -4,2 -7,2 -3,0 -3,-2 -7,-2 -4,0 -4,2 -7,2 -3,0 -3,-2 -7,-2 -4,0 -4,2 -7,2 -3,0 -3,-2 -7,-2 z" style="fill:white;stroke:none"/>
    </symbol>

    <symbol id="CarRental">
      <title>Car Rental</title>
      <g style="stroke:none;fill-rule:evenodd">
	<!-- Key -->
	<path d="m 34.5,10 a 9.25,9.25 0 1 0 0,9 l 5,0 2.5,-2.5 2,2 2,-2 2,2 2,-2 2,2 4,-4 c 0.24,-0.24 0.24,-0.76 0,-1 L 52.5,10 z M 25,14.5 a 2.5,2.5 0 0 1 -5,0 2.5,2.5 0 0 1 5,0 z"/>
	<!-- Car -->
	<path d="m 45.5,27 c 3,0 4.26,1.5 5,3.5 L 54,40 c 1.5,0 4,1.8 4,5 l 0,12 -3,0 0,4 a 3.5,3.5 0 0 1 -7,0 l 0,-4 -24,0 0,4 a 3.5,3.5 0 0 1 -7,0 l 0,-4 -3,0 0,-12 c 0,-3.2 2.5,-5 4,-5 l 3.5,-9.5 c 0.74,-2 2,-3.5 5,-3.5 z m 5,13 -29,0 2.75,-7.5 c 0.36,-1 1,-2 2.25,-2 l 19,0 c 1.25,0 1.89,1 2.25,2 z M 23.5,47 a 3,3 0 1 1 -6,0 3,3 0 1 1 6,0 z M 54.5,47 a 3,3 0 1 1 -6,0 3,3 0 1 1 6,0 z"/>
      </g>
    </symbol>

    <symbol id="CarRental_Inv">
      <title>Car Rental</title>
      <rect x="0.5" y="0.5" width="71" height="71" ry="6" style="stroke:white"/>
      <g style="fill:white;stroke:none;fill-rule:evenodd">
	<!-- Key -->
	<path d="m 34.5,10 a 9.25,9.25 0 1 0 0,9 l 5,0 2.5,-2.5 2,2 2,-2 2,2 2,-2 2,2 4,-4 c 0.24,-0.24 0.24,-0.76 0,-1 L 52.5,10 z M 25,14.5 a 2.5,2.5 0 0 1 -5,0 2.5,2.5 0 0 1 5,0 z"/>
	<!-- Car -->
	<path d="m 45.5,27 c 3,0 4.26,1.5 5,3.5 L 54,40 c 1.5,0 4,1.8 4,5 l 0,12 -3,0 0,4 a 3.5,3.5 0 0 1 -7,0 l 0,-4 -24,0 0,4 a 3.5,3.5 0 0 1 -7,0 l 0,-4 -3,0 0,-12 c 0,-3.2 2.5,-5 4,-5 l 3.5,-9.5 c 0.74,-2 2,-3.5 5,-3.5 z m 5,13 -29,0 2.75,-7.5 c 0.36,-1 1,-2 2.25,-2 l 19,0 c 1.25,0 1.89,1 2.25,2 z M 23.5,47 a 3,3 0 1 1 -6,0 3,3 0 1 1 6,0 z M 54.5,47 a 3,3 0 1 1 -6,0 3,3 0 1 1 6,0 z"/>
      </g>
    </symbol>

    <symbol id="Restaurant">
      <title>Restaurant</title>
      <g style="stroke:none">
	<path d="m 30,30 0,33 a 3,3 0 0 1 -6,0 L 24,30 A 4,4 0 0 1 20,26 L 20,8 a 1,1 0 0 1 2,0 l 0,14 2,0 0,-14 a 1,1 0 0 1 2,0 l 0,14 2,0 0,-14 a 1,1 0 0 1 2,0 l 0,14 2,0 0,-14 a 1,1 0 0 1 2,0 l 0,18 a 4,4 0 0 1 -4,4 z"/>
	<path d="m 50,63 a 3,3 0 0 1 -6,0 l 0,-20 -3,0 0,-31.5 a 4.5,4.5 0 0 1 9,0 z"/>
      </g>
    </symbol>

    <symbol id="Restaurant_Inv">
      <title>Restaurant</title>
      <rect x="0.5" y="0.5" width="71" height="71" ry="6" style="stroke:white"/>
      <g style="fill:white;stroke:none">
	<path d="m 30,30 0,33 a 3,3 0 0 1 -6,0 L 24,30 A 4,4 0 0 1 20,26 L 20,8 a 1,1 0 0 1 2,0 l 0,14 2,0 0,-14 a 1,1 0 0 1 2,0 l 0,14 2,0 0,-14 a 1,1 0 0 1 2,0 l 0,14 2,0 0,-14 a 1,1 0 0 1 2,0 l 0,18 a 4,4 0 0 1 -4,4 z"/>
	<path d="m 50,63 a 3,3 0 0 1 -6,0 l 0,-20 -3,0 0,-31.5 a 4.5,4.5 0 0 1 9,0 z"/>
      </g>
    </symbol>

    <symbol id="Coffeeshop">
      <title>Coffeeshop</title>
      <g style="stroke:none;fill-rule:evenodd">
	<path d="m 20,45 a 5,5 0 0 0 5,5 l 22,0 a 5,5 0 0 0 5,-5 l 0,-1 1,0 a 10,10 0 0 0 0,-20 l -33,0 z M 52,28 l 0,12 1,0 a 6,6 0 0 0 0,-12 z"/>
	<path d="m 8,52 a 6,6 0 0 0 6,6 l 44,0 a 6,6 0 0 0 6,-6 z"/>
      </g>
    </symbol>

    <symbol id="Coffeeshop_Inv">
      <title>Coffeeshop</title>
      <rect x="0.5" y="0.5" width="71" height="71" ry="6" style="stroke:white"/>
      <g style="fill:white;stroke:none;fill-rule:evenodd">
	<path d="m 20,45 a 5,5 0 0 0 5,5 l 22,0 a 5,5 0 0 0 5,-5 l 0,-1 1,0 a 10,10 0 0 0 0,-20 l -33,0 z M 52,28 l 0,12 1,0 a 6,6 0 0 0 0,-12 z"/>
	<path d="m 8,52 a 6,6 0 0 0 6,6 l 44,0 a 6,6 0 0 0 6,-6 z"/>
      </g>
    </symbol>

    <symbol id="Bar">
      <title>Bar</title>
      <path d="m 59,14 -20,24 0,16 11,0 a 3,3 0 0 1 0,6 l -28,0 a 3,3 0 0 1 0,-6 L 33,54 33,38 13,14 z M 36,27.5 a 3.5,3.5 0 0 0 7,0 3.5,3.5 0 0 0 -7,0 z" style="stroke:none"/>
    </symbol>

    <symbol id="Bar_Inv">
      <title>Bar</title>
      <rect x="0.5" y="0.5" width="71" height="71" ry="6" style="stroke:white"/>
      <path d="m 59,14 -20,24 0,16 11,0 a 3,3 0 0 1 0,6 l -28,0 a 3,3 0 0 1 0,-6 L 33,54 33,38 13,14 z M 36,27.5 a 3.5,3.5 0 0 0 7,0 3.5,3.5 0 0 0 -7,0 z" style="fill:white;stroke:none"/>
    </symbol>

    <symbol id="Shops">
      <title>Shops</title>
      <g style="stroke:none">
	<!-- Pipe -->
	<path d="m 19.5,11 0,5 c 0,1.1 1,1.5 2,1 l 13.9,-6.4 c 0.4,-0.2 0.9,0 1.1,0.4 l 1.1,2.3 c 0.2,0.4 0,0.9 -0.4,1.1 L 18,23.1 c -3.5,1.6 -7,-0.6 -7,-3.6 L 11,11 z"/>
	<!-- Book -->
	<path d="M 27.5,22 14,28 c -2.2,1 -3,2.4 -3,4.5 l 0,21 a 5.5,5.5 0 0 0 5.5,5.5 l 18.5,0 0,-3.5 a 2,2 0 0 1 0,-4 L 35,26 27.5,26 z m 0.5,8 3,0 0,18 -11,0 8,-3.5 z m -11.5,22 13,0 a 2,2 0 0 0 0,3 l -13,0 a 1.5,1.5 0 0 1 0,-3 z"/>
	<!-- Present -->
	<path d="m 49,10.5 -4,1.3 1.9,6.2 -4.3,-3.4 -2.6,3.4 5,4 -5,0 0,37 22,0 0,-37 -5,0 5,-4 L 59.4,14.6 55.1,18 57,11.8 53,10.5 51,17 z m -5,15.5 5,0 0,6 -5,0 z m 9,0 5,0 0,6 -5,0 z m -9,10 5,0 0,19 -5,0 z m 9,0 5,0 0,19 -5,0 z"/>
      </g>
    </symbol>

    <symbol id="Shops_Inv">
      <title>Shops</title>
      <rect x="0.5" y="0.5" width="71" height="71" ry="6" style="stroke:white"/>
      <g style="fill:white;stroke:none">
	<!-- Pipe -->
	<path d="m 19.5,11 0,5 c 0,1.1 1,1.5 2,1 l 13.9,-6.4 c 0.4,-0.2 0.9,0 1.1,0.4 l 1.1,2.3 c 0.2,0.4 0,0.9 -0.4,1.1 L 18,23.1 c -3.5,1.6 -7,-0.6 -7,-3.6 L 11,11 z"/>
	<!-- Book -->
	<path d="M 27.5,22 14,28 c -2.2,1 -3,2.4 -3,4.5 l 0,21 a 5.5,5.5 0 0 0 5.5,5.5 l 18.5,0 0,-3.5 a 2,2 0 0 1 0,-4 L 35,26 27.5,26 z m 0.5,8 3,0 0,18 -11,0 8,-3.5 z m -11.5,22 13,0 a 2,2 0 0 0 0,3 l -13,0 a 1.5,1.5 0 0 1 0,-3 z"/>
	<!-- Present -->
	<path d="m 49,10.5 -4,1.3 1.9,6.2 -4.3,-3.4 -2.6,3.4 5,4 -5,0 0,37 22,0 0,-37 -5,0 5,-4 L 59.4,14.6 55.1,18 57,11.8 53,10.5 51,17 z m -5,15.5 5,0 0,6 -5,0 z m 9,0 5,0 0,6 -5,0 z m -9,10 5,0 0,19 -5,0 z m 9,0 5,0 0,19 -5,0 z"/>
      </g>
    </symbol>

    <symbol id="BarberShopBeautySalon">
      <title>Barber Shop - Beauty Salon</title>
      <g style="stroke:none">
	<!-- Scissors -->
	<path d="m 31,39 0,16.5 A 6.5,6.5 0 1 0 34,49 L 34,33 31,7 a 1.01,1.01 0 0 0 -2,0 l -3,26 0,16 a 6.5,6.5 0 1 0 3,6 l 0,-16 z m 6,21.5 c -0.3,2 0.4,5.5 1.8,6.8 1.5,1.3 3.2,-0.4 2.5,-1.8 -0.8,-1.4 -1.8,-2.2 -1,-5.5 z m -11,-6 a 3.5,3.5 0 1 1 -7,0 3.5,3.5 0 1 1 7,0 z m 15,0 a 3.5,3.5 0 1 1 -7,0 3.5,3.5 0 1 1 7,0 z"/>
	<!-- Comb -->
	<path d="m 38,13 c -2,0 -2,2.5 0,2.5 l 8,0 0,1 -8,0 c -2,0 -2,2.5 0,2.5 l 8,0 0,1 -8,0 c -2,0 -2,2.5 0,2.5 l 8,0 0,1 -8,0 c -2,0 -2,2.5 0,2.5 l 8,0 0,1 -8,0 c -2,0 -2,2.5 0,2.5 l 8,0 0,1 -8,0 c -2,0 -2,2.5 0,2.5 l 8,0 0,1 -8,0 c -2,0 -2,2.5 0,2.5 l 8,0 0,1 -8,0 c -2,0 -2,2.5 0,2.5 l 8,0 0,24 a 3,3 0 0 0 6,0 L 52,10 A 4,4 0 0 0 48,6 L 38,6 c -2,0 -2,2.5 0,2.5 l 8,0 0,1 -8,0 c -2,0 -2,2.5 0,2.5 l 8,0 0,1 z"/>
      </g>
    </symbol>

    <symbol id="BarberShopBeautySalon_Inv">
      <title>Barber Shop - Beauty Salon</title>
      <rect x="0.5" y="0.5" width="71" height="71" ry="6" style="stroke:white"/>
      <g style="fill:white;stroke:none">
	<!-- Scissors -->
	<path d="m 31,39 0,16.5 A 6.5,6.5 0 1 0 34,49 L 34,33 31,7 a 1.01,1.01 0 0 0 -2,0 l -3,26 0,16 a 6.5,6.5 0 1 0 3,6 l 0,-16 z m 6,21.5 c -0.3,2 0.4,5.5 1.8,6.8 1.5,1.3 3.2,-0.4 2.5,-1.8 -0.8,-1.4 -1.8,-2.2 -1,-5.5 z m -11,-6 a 3.5,3.5 0 1 1 -7,0 3.5,3.5 0 1 1 7,0 z m 15,0 a 3.5,3.5 0 1 1 -7,0 3.5,3.5 0 1 1 7,0 z"/>
	<!-- Comb -->
	<path d="m 38,13 c -2,0 -2,2.5 0,2.5 l 8,0 0,1 -8,0 c -2,0 -2,2.5 0,2.5 l 8,0 0,1 -8,0 c -2,0 -2,2.5 0,2.5 l 8,0 0,1 -8,0 c -2,0 -2,2.5 0,2.5 l 8,0 0,1 -8,0 c -2,0 -2,2.5 0,2.5 l 8,0 0,1 -8,0 c -2,0 -2,2.5 0,2.5 l 8,0 0,1 -8,0 c -2,0 -2,2.5 0,2.5 l 8,0 0,1 -8,0 c -2,0 -2,2.5 0,2.5 l 8,0 0,24 a 3,3 0 0 0 6,0 L 52,10 A 4,4 0 0 0 48,6 L 38,6 c -2,0 -2,2.5 0,2.5 l 8,0 0,1 -8,0 c -2,0 -2,2.5 0,2.5 l 8,0 0,1 z"/>
      </g>
    </symbol>

    <symbol id="BarberShop">
      <title>Barber Shop</title>
      <g style="stroke:none">
	<!-- Scissors -->
	<path d="m 23,39 0,16.5 A 6.5,6.5 0 1 0 26,49 L 26,33 23,7 a 1.01,1.01 0 0 0 -2,0 l -3,26 0,16 a 6.5,6.5 0 1 0 3,6 l 0,-16 z m 6,21.5 c -0.3,2 0.4,5.5 1.8,6.8 1.5,1.3 3.2,-0.4 2.5,-1.8 -0.8,-1.4 -1.8,-2.2 -1,-5.5 z m -11,-6 a 3.5,3.5 0 0 1 -7,0 3.5,3.5 0 1 1 7,0 z m 15,0 a 3.5,3.5 0 0 1 -7,0 3.5,3.5 0 1 1 7,0 z"/>
	<!-- Comb -->
	<path d="m 30,13 c -2,0 -2,2.5 0,2.5 l 8,0 0,1 -8,0 c -2,0 -2,2.5 0,2.5 l 8,0 0,1 -8,0 c -2,0 -2,2.5 0,2.5 l 8,0 0,1 -8,0 c -2,0 -2,2.5 0,2.5 l 8,0 0,1 -8,0 c -2,0 -2,2.5 0,2.5 l 8,0 0,1 -8,0 c -2,0 -2,2.5 0,2.5 l 8,0 0,1 -8,0 c -2,0 -2,2.5 0,2.5 l 8,0 0,1 -8,0 c -2,0 -2,2.5 0,2.5 l 8,0 0,24 a 3,3 0 0 0 6,0 L 44,10 A 4,4 0 0 0 40,6 L 30,6 c -2,0 -2,2.5 0,2.5 l 8,0 0,1 -8,0 c -2,0 -2,2.5 0,2.5 l 8,0 0,1 z"/>
	<!-- Man -->
	<circle cx="58" cy="10" r="3"/>
	<path d="m 51,17.5 0,9.5 a 1.25,1.25 0 0 0 2.5,0 l 0,-8.5 0.5,0 0,23.5 a 1.75,1.75 0 0 0 3.5,0 l 0,-13.5 1,0 0,13.5 a 1.75,1.75 0 0 0 3.5,0 l 0,-23.5 0.5,0 0,8.5 a 1.25,1.25 0 0 0 2.5,0 l 0,-9.5 a 4,4 0 0 0 -4,-4 l -6,0 a 4,4 0 0 0 -4,4 z"/>
      </g>
    </symbol>

    <symbol id="BarberShop_Inv">
      <title>Barber Shop</title>
      <rect x="0.5" y="0.5" width="71" height="71" ry="6" style="stroke:white"/>
      <g style="fill:white;stroke:none">
	<!-- Scissors -->
	<path d="m 23,39 0,16.5 A 6.5,6.5 0 1 0 26,49 L 26,33 23,7 a 1.01,1.01 0 0 0 -2,0 l -3,26 0,16 a 6.5,6.5 0 1 0 3,6 l 0,-16 z m 6,21.5 c -0.3,2 0.4,5.5 1.8,6.8 1.5,1.3 3.2,-0.4 2.5,-1.8 -0.8,-1.4 -1.8,-2.2 -1,-5.5 z m -11,-6 a 3.5,3.5 0 0 1 -7,0 3.5,3.5 0 1 1 7,0 z m 15,0 a 3.5,3.5 0 0 1 -7,0 3.5,3.5 0 1 1 7,0 z"/>
	<!-- Comb -->
	<path d="m 30,13 c -2,0 -2,2.5 0,2.5 l 8,0 0,1 -8,0 c -2,0 -2,2.5 0,2.5 l 8,0 0,1 -8,0 c -2,0 -2,2.5 0,2.5 l 8,0 0,1 -8,0 c -2,0 -2,2.5 0,2.5 l 8,0 0,1 -8,0 c -2,0 -2,2.5 0,2.5 l 8,0 0,1 -8,0 c -2,0 -2,2.5 0,2.5 l 8,0 0,1 -8,0 c -2,0 -2,2.5 0,2.5 l 8,0 0,1 -8,0 c -2,0 -2,2.5 0,2.5 l 8,0 0,24 a 3,3 0 0 0 6,0 L 44,10 A 4,4 0 0 0 40,6 L 30,6 c -2,0 -2,2.5 0,2.5 l 8,0 0,1 -8,0 c -2,0 -2,2.5 0,2.5 l 8,0 0,1 z"/>
	<!-- Man -->
	<circle cx="58" cy="10" r="3"/>
	<path d="m 51,17.5 0,9.5 a 1.25,1.25 0 0 0 2.5,0 l 0,-8.5 0.5,0 0,23.5 a 1.75,1.75 0 0 0 3.5,0 l 0,-13.5 1,0 0,13.5 a 1.75,1.75 0 0 0 3.5,0 l 0,-23.5 0.5,0 0,8.5 a 1.25,1.25 0 0 0 2.5,0 l 0,-9.5 a 4,4 0 0 0 -4,-4 l -6,0 a 4,4 0 0 0 -4,4 z"/>
      </g>
    </symbol>

    <symbol id="BeautySalon">
      <title>Beauty Salon</title>
      <g style="stroke:none">
	<!-- Scissors -->
	<path d="m 23,39 0,16.5 A 6.5,6.5 0 1 0 26,49 L 26,33 23,7 a 1.01,1.01 0 0 0 -2,0 l -3,26 0,16 a 6.5,6.5 0 1 0 3,6 l 0,-16 z m 6,21.5 c -0.3,2 0.4,5.5 1.8,6.8 1.5,1.3 3.2,-0.4 2.5,-1.8 -0.8,-1.4 -1.8,-2.2 -1,-5.5 z m -11,-6 a 3.5,3.5 0 0 1 -7,0 3.5,3.5 0 1 1 7,0 z m 15,0 a 3.5,3.5 0 0 1 -7,0 3.5,3.5 0 1 1 7,0 z"/>
	<!-- Comb -->
	<path d="m 30,13 c -2,0 -2,2.5 0,2.5 l 8,0 0,1 -8,0 c -2,0 -2,2.5 0,2.5 l 8,0 0,1 -8,0 c -2,0 -2,2.5 0,2.5 l 8,0 0,1 -8,0 c -2,0 -2,2.5 0,2.5 l 8,0 0,1 -8,0 c -2,0 -2,2.5 0,2.5 l 8,0 0,1 -8,0 c -2,0 -2,2.5 0,2.5 l 8,0 0,1 -8,0 c -2,0 -2,2.5 0,2.5 l 8,0 0,1 -8,0 c -2,0 -2,2.5 0,2.5 l 8,0 0,24 a 3,3 0 0 0 6,0 L 44,10 A 4,4 0 0 0 40,6 L 30,6 c -2,0 -2,2.5 0,2.5 l 8,0 0,1 -8,0 c -2,0 -2,2.5 0,2.5 l 8,0 0,1 z"/>
	<!-- Woman -->
	<circle cx="58" cy="10" r="3"/>
	<path d="m 57.5,42.25 a 1.5,1.5 0 0 1 -3,0 l 0,-10.2 L 51,32 55,18 54.25,18 52,25.75 c -0.5,1.75 -2.75,1 -2.25,-0.75 l 2.55,-8.75 c 0.2,-1 1.5,-2.75 3.7,-2.75 l 4,0 c 2.25,0 3.5,1.75 3.825,2.75 L 66.25,25 c 0.5,1.75 -1.75,2.5 -2.25,0.75 l -2.25,-8 -0.75,0 4,14.25 -3.5,0 0,10.25 a 1.5,1.5 0 0 1 -3,0 l 0,-10.25 -1,0 z"/>
      </g>
    </symbol>

    <symbol id="BeautySalon_Inv">
      <title>Beauty Salon</title>
      <rect x="0.5" y="0.5" width="71" height="71" ry="6" style="stroke:white"/>
      <g style="fill:white;stroke:none">
	<!-- Scissors -->
	<path d="m 23,39 0,16.5 A 6.5,6.5 0 1 0 26,49 L 26,33 23,7 a 1.01,1.01 0 0 0 -2,0 l -3,26 0,16 a 6.5,6.5 0 1 0 3,6 l 0,-16 z m 6,21.5 c -0.3,2 0.4,5.5 1.8,6.8 1.5,1.3 3.2,-0.4 2.5,-1.8 -0.8,-1.4 -1.8,-2.2 -1,-5.5 z m -11,-6 a 3.5,3.5 0 0 1 -7,0 3.5,3.5 0 1 1 7,0 z m 15,0 a 3.5,3.5 0 0 1 -7,0 3.5,3.5 0 1 1 7,0 z"/>
	<!-- Comb -->
	<path d="m 30,13 c -2,0 -2,2.5 0,2.5 l 8,0 0,1 -8,0 c -2,0 -2,2.5 0,2.5 l 8,0 0,1 -8,0 c -2,0 -2,2.5 0,2.5 l 8,0 0,1 -8,0 c -2,0 -2,2.5 0,2.5 l 8,0 0,1 -8,0 c -2,0 -2,2.5 0,2.5 l 8,0 0,1 -8,0 c -2,0 -2,2.5 0,2.5 l 8,0 0,1 -8,0 c -2,0 -2,2.5 0,2.5 l 8,0 0,1 -8,0 c -2,0 -2,2.5 0,2.5 l 8,0 0,24 a 3,3 0 0 0 6,0 L 44,10 A 4,4 0 0 0 40,6 L 30,6 c -2,0 -2,2.5 0,2.5 l 8,0 0,1 -8,0 c -2,0 -2,2.5 0,2.5 l 8,0 0,1 z"/>
	<!-- Woman -->
	<circle cx="58" cy="10" r="3"/>
	<path d="m 57.5,42.25 a 1.5,1.5 0 0 1 -3,0 l 0,-10.2 L 51,32 55,18 54.25,18 52,25.75 c -0.5,1.75 -2.75,1 -2.25,-0.75 l 2.55,-8.75 c 0.2,-1 1.5,-2.75 3.7,-2.75 l 4,0 c 2.25,0 3.5,1.75 3.825,2.75 L 66.25,25 c 0.5,1.75 -1.75,2.5 -2.25,0.75 l -2.25,-8 -0.75,0 4,14.25 -3.5,0 0,10.25 a 1.5,1.5 0 0 1 -3,0 l 0,-10.25 -1,0 z"/>
      </g>
    </symbol>

    <symbol id="TicketPurchase">
      <title>Ticket Purchase</title>
      <g style="stroke:none">
	<!-- Seller -->
	<circle cx="21" cy="15" r="4.75"/>
	<path d="m 12.75,36 2.5,-9 1,0 -2.5,9 14.5,0 -2.5,-9 1,0 1.5,4.5 c 0.7,2 2.25,2 3.5,0.5 l 5,-6 A 1.863,1.863 0 0 0 33.9,23.6 l -3,3.65 L 30.25,25 C 29.5,22.5 27,20.5 24,20.5 l -6,0 c -3,0 -5.5,2 -6.25,4.5 l -3,11 z"/>
	<!-- Buyer -->
	<circle cx="54" cy="15" r="4.75"/>
	<path d="m 60,37 3,0 0,-13 a 3.5,3.5 0 0 0 -3.5,-3.5 l -11,0 A 4.5,4.5 0 0 0 45,22 l -9,11 a 2.15,2.15 0 0 0 3.25,2.75 L 48,25.5 l 0,38 a 2.75,2.75 0 0 0 5.5,0 l 0,-21.5 1,0 0,21.5 a 2.75,2.75 0 0 0 5.5,0 z"/>
	<!-- Ticket -->
	<rect x="35" y="14.5" width="4" height="9.5"/>
	<!-- Counter -->
	<rect x="6" y="37" width="60" height="6"/>
      </g>
    </symbol>

    <symbol id="TicketPurchase_Inv">
      <title>Ticket Purchase</title>
      <rect x="0.5" y="0.5" width="71" height="71" ry="6" style="stroke:white"/>
      <g style="fill:white;stroke:none">
	<!-- Seller -->
	<circle cx="21" cy="15" r="4.75"/>
	<path d="m 12.75,36 2.5,-9 1,0 -2.5,9 14.5,0 -2.5,-9 1,0 1.5,4.5 c 0.7,2 2.25,2 3.5,0.5 l 5,-6 A 1.863,1.863 0 0 0 33.9,23.6 l -3,3.65 L 30.25,25 C 29.5,22.5 27,20.5 24,20.5 l -6,0 c -3,0 -5.5,2 -6.25,4.5 l -3,11 z"/>
	<!-- Buyer -->
	<circle cx="54" cy="15" r="4.75"/>
	<path d="m 60,37 3,0 0,-13 a 3.5,3.5 0 0 0 -3.5,-3.5 l -11,0 A 4.5,4.5 0 0 0 45,22 l -9,11 a 2.15,2.15 0 0 0 3.25,2.75 L 48,25.5 l 0,38 a 2.75,2.75 0 0 0 5.5,0 l 0,-21.5 1,0 0,21.5 a 2.75,2.75 0 0 0 5.5,0 z"/>
	<!-- Ticket -->
	<rect x="35" y="14.5" width="4" height="9.5"/>
	<!-- Counter -->
	<rect x="6" y="37" width="60" height="6"/>
      </g>
    </symbol>

    <symbol id="BaggageCheckIn">
      <title>Baggage Check In</title>
      <path d="m 31,14 a 3,3 0 0 0 -3,3 l 0,5 -6,0 0,36 29,0 0,-36 -7,0 0,-5 a 3,3 0 0 0 -3,-3 l -10,0 z m 0,3 10,0 0,5 -10,0 0,-5 z m -16,5 a 5,5 0 0 0 -5,5 l 0,26 a 5,5 0 0 0 5,5 l 4,0 0,-36 -4,0 z m 39,0 0,36 3,0 a 5,5 0 0 0 5,-5 l 0,-26 a 5,5 0 0 0 -5,-5 l -3,0 z" style="stroke:none"/>
    </symbol>

    <symbol id="BaggageCheckIn_Inv">
      <title>Baggage Check In</title>
      <rect x="0.5" y="0.5" width="71" height="71" ry="6" style="stroke:white"/>
      <path d="m 31,14 a 3,3 0 0 0 -3,3 l 0,5 -6,0 0,36 29,0 0,-36 -7,0 0,-5 a 3,3 0 0 0 -3,-3 l -10,0 z m 0,3 10,0 0,5 -10,0 0,-5 z m -16,5 a 5,5 0 0 0 -5,5 l 0,26 a 5,5 0 0 0 5,5 l 4,0 0,-36 -4,0 z m 39,0 0,36 3,0 a 5,5 0 0 0 5,-5 l 0,-26 a 5,5 0 0 0 -5,-5 l -3,0 z" style="fill:white;stroke:none"/>
    </symbol>

    <symbol id="BaggageClaim">
      <title>Baggage Claim</title>
      <path d="m 31,14 a 3,3 0 0 0 -3,3 l 0,5 -6,0 0,36 29,0 0,-36 -7,0 0,-5 a 3,3 0 0 0 -3,-3 l -10,0 z m 0,3 10,0 0,5 -10,0 0,-5 z m -16,5 a 5,5 0 0 0 -5,5 l 0,26 a 5,5 0 0 0 5,5 l 4,0 0,-36 -4,0 z m 39,0 0,36 3,0 a 5,5 0 0 0 5,-5 l 0,-26 a 5,5 0 0 0 -5,-5 l -3,0 z" style="stroke:none"/>
    </symbol>

    <symbol id="BaggageClaim_Inv">
      <title>Baggage Claim</title>
      <rect x="0.5" y="0.5" width="71" height="71" ry="6" style="stroke:white"/>
      <path d="m 31,14 a 3,3 0 0 0 -3,3 l 0,5 -6,0 0,36 29,0 0,-36 -7,0 0,-5 a 3,3 0 0 0 -3,-3 l -10,0 z m 0,3 10,0 0,5 -10,0 0,-5 z m -16,5 a 5,5 0 0 0 -5,5 l 0,26 a 5,5 0 0 0 5,5 l 4,0 0,-36 -4,0 z m 39,0 0,36 3,0 a 5,5 0 0 0 5,-5 l 0,-26 a 5,5 0 0 0 -5,-5 l -3,0 z" style="fill:white;stroke:none"/>
    </symbol>

    <symbol id="Customs">
      <title>Customs</title>
      <g style="stroke:none">
	<!-- Bag -->
	<path d="m 11,53 4,0 0,-23 -4,0 a 3,3 0 0 0 -3,3 l 0,17 a 3,3 0 0 0 3,3 m 27,4 0,-4 -23,0 0,4 a 3,3 0 0 0 3,3 l 17,0 a 3,3 0 0 0 3,-3 z"/>
	<!-- Official -->
	<path d="m 43,19 -2.5,3 3,0 A 6.25,6.25 0 0 0 56,22 l 0,-3 z m 13,-6 0,4.5 -13,0 L 40,13 z M 55.25,30 41,30 a 5.2,5.3 0 0 0 -4,1.8 L 25,47.5 a 2.93,2.93 0 0 0 4.6,3.6 L 41,36 41,49 z m 7.75,4 0,26 -22,0 0,-7 16,0 0,-3 -13,0 15,-20 a 4,4 0 0 1 4,4 z"/>
      </g>
    </symbol>

    <symbol id="Customs_Inv">
      <title>Customs</title>
      <rect x="0.5" y="0.5" width="71" height="71" ry="6" style="stroke:white"/>
      <g style="fill:white;stroke:none">
	<!-- Bag -->
	<path d="m 11,53 4,0 0,-23 -4,0 a 3,3 0 0 0 -3,3 l 0,17 a 3,3 0 0 0 3,3 m 27,4 0,-4 -23,0 0,4 a 3,3 0 0 0 3,3 l 17,0 a 3,3 0 0 0 3,-3 z"/>
	<!-- Official -->
	<path d="m 43,19 -2.5,3 3,0 A 6.25,6.25 0 0 0 56,22 l 0,-3 z m 13,-6 0,4.5 -13,0 L 40,13 z M 55.25,30 41,30 a 5.2,5.3 0 0 0 -4,1.8 L 25,47.5 a 2.93,2.93 0 0 0 4.6,3.6 L 41,36 41,49 z m 7.75,4 0,26 -22,0 0,-7 16,0 0,-3 -13,0 15,-20 a 4,4 0 0 1 4,4 z"/>
      </g>
    </symbol>

    <symbol id="Immigration">
      <title>Immigration</title>
      <g style="stroke:none">
	<!-- Passport -->
	<path d="m 14,15 0,13 6.25,4.75 C 21.12,33.37 22,32.62 22,31.5 l 0,-3.5 1,0 a 2,2 0 0 0 2,-2 l 0,-9 A 2,2 0 0 0 23,15 z m 2.5,1.25 6.5,0 A 0.75,0.75 0 0 1 23.75,17 l 0,9 A 0.75,0.75 0 0 1 23,26.75 l -1,0 0,-5.25 C 22,20.9 22,20.1 21.5,19.75 Z"/>
	<!-- Official -->
	<path d="m 37,19 -2.5,3 3,0 A 6.25,6.25 0 0 0 50,22 L 50,19 z m 13,-6 0,4.5 -13,0 L 34,13 Z M 49.25,30 35,30 a 5.2,5.3 0 0 0 -4,1.8 L 25.75,38.75 18.5,33 A 2.82,2.82 0 0 0 15,37.4 l 9.5,7.6 a 3,3 0 0 0 4,-0.5 L 35,36 35,49 z m 7.75,4 0,26 -22,0 0,-7 16,0 0,-3 -13,0 15,-20 A 4,4 0 0 1 57,34 Z"/>
      </g>
    </symbol>

    <symbol id="Immigration_Inv">
      <title>Immigration</title>
      <rect x="0.5" y="0.5" width="71" height="71" ry="6" style="stroke:white"/>
      <g style="fill:white;stroke:none">
	<!-- Passport -->
	<path d="m 14,15 0,13 6.25,4.75 C 21.12,33.37 22,32.62 22,31.5 l 0,-3.5 1,0 a 2,2 0 0 0 2,-2 l 0,-9 A 2,2 0 0 0 23,15 z m 2.5,1.25 6.5,0 A 0.75,0.75 0 0 1 23.75,17 l 0,9 A 0.75,0.75 0 0 1 23,26.75 l -1,0 0,-5.25 C 22,20.9 22,20.1 21.5,19.75 Z"/>
	<!-- Official -->
	<path d="m 37,19 -2.5,3 3,0 A 6.25,6.25 0 0 0 50,22 L 50,19 z m 13,-6 0,4.5 -13,0 L 34,13 Z M 49.25,30 35,30 a 5.2,5.3 0 0 0 -4,1.8 L 25.75,38.75 18.5,33 A 2.82,2.82 0 0 0 15,37.4 l 9.5,7.6 a 3,3 0 0 0 4,-0.5 L 35,36 35,49 z m 7.75,4 0,26 -22,0 0,-7 16,0 0,-3 -13,0 15,-20 A 4,4 0 0 1 57,34 Z"/>
      </g>
    </symbol>

    <symbol id="DepartingFlights">
      <title>Departing Flights</title>
      <g style="stroke:none">
	<path d="M 56,11 42,25 12,17 7,22 32,35 22,45 l -8,-1 -4,4 9,5 5,9 4,-4 -1,-8 10,-10 13,25 5,-5 -8,-30 14,-14 a 3.54,3.54 0 0 0 -5,-5 z"/>
      </g>
    </symbol>

    <symbol id="DepartingFlights_Inv">
      <title>Departing Flights</title>
      <rect x="0.5" y="0.5" width="71" height="71" ry="6" style="stroke:white"/>
      <g style="fill:white;stroke:none">
	<path d="M 56,11 42,25 12,17 7,22 32,35 22,45 l -8,-1 -4,4 9,5 5,9 4,-4 -1,-8 10,-10 13,25 5,-5 -8,-30 14,-14 a 3.54,3.54 0 0 0 -5,-5 z"/>
      </g>
    </symbol>

    <symbol id="ArrivingFlights">
      <title>Arriving Flights</title>
      <g style="stroke:none">
	<circle cx="34" cy="11" r="5"/>
	<path d="m 13,9 14.5,14.5 0,41 a 3,3 0 0 0 6,0 l 0,-22.5 1,0 0,22.5 a 3,3 0 0 0 6,0 l 0,-5.5 11.5,0 0,-18 -3,0 0,-2.5 A 1.5,1.5 0 0 0 47.5,37 L 46,37 46,24 A 7,7 0 0 0 39,17 L 28,17 16.5,5.5 A 2.48,2.48 0 0 0 13,9 z m 27.5,16.5 1,0 0,15.5 -1,0 z M 43,39 l 4,0 0,2 -4,0 z m 10,20 2,0 a 3,3 0 0 0 3,-3 l 0,-12 a 3,3 0 0 0 -3,-3 l -2,0 z" />
      </g>
    </symbol>

    <symbol id="ArrivingFlights_Inv">
      <title>Arriving Flights</title>
      <rect x="0.5" y="0.5" width="71" height="71" ry="6" style="stroke:white"/>
      <g style="fill:white;stroke:none">
	<circle cx="34" cy="11" r="5"/>
	<path d="m 13,9 14.5,14.5 0,41 a 3,3 0 0 0 6,0 l 0,-22.5 1,0 0,22.5 a 3,3 0 0 0 6,0 l 0,-5.5 11.5,0 0,-18 -3,0 0,-2.5 A 1.5,1.5 0 0 0 47.5,37 L 46,37 46,24 A 7,7 0 0 0 39,17 L 28,17 16.5,5.5 A 2.48,2.48 0 0 0 13,9 z m 27.5,16.5 1,0 0,15.5 -1,0 z M 43,39 l 4,0 0,2 -4,0 z m 10,20 2,0 a 3,3 0 0 0 3,-3 l 0,-12 a 3,3 0 0 0 -3,-3 l -2,0 z" />
      </g>
    </symbol>

    <symbol id="Smoking">
      <title>Smoking</title>
      <rect x="8" y="46" height="8" width="48" style="stroke:none"/>
      <rect x="57.75" y="46" width="2.5" height="8" style="stroke:none"/>
      <rect x="61.75" y="46" width="2.5" height="8" style="stroke:none"/>
      <path d="m 59,44 0,-5 a 3.5,3.5 0 0 0 -3.5,-3.5 l -9,0 A 5,5 0 0 1 42,28 6.5,6.5 0 0 1 42,15" style="fill:none;stroke-width:2.5"/>
      <path d="m 63,44 0,-6 a 9,9 0 0 0 -9,-9 l -5,0 A 6.5,6.5 0 0 0 44,18" style="fill:none;stroke-width:2.5"/>
    </symbol>
    
    <symbol id="Smoking_Inv">
      <title>Smoking</title>
      <rect x="0.5" y="0.5" width="71" height="71" ry="6" style="stroke:white"/>
      <rect x="8" y="46" height="8" width="48" style="fill:white;stroke:none"/>
      <rect x="57.75" y="46" width="2.5" height="8" style="fill:white;stroke:none"/>
      <rect x="61.75" y="46" width="2.5" height="8" style="fill:white;stroke:none"/>
      <path d="m 59,44 0,-5 a 3.5,3.5 0 0 0 -3.5,-3.5 l -9,0 A 5,5 0 0 1 42,28 6.5,6.5 0 0 1 42,15" style="fill:none;stroke:white;stroke-width:2.5"/>
      <path d="m 63,44 0,-6 a 9,9 0 0 0 -9,-9 l -5,0 A 6.5,6.5 0 0 0 44,18" style="fill:none;stroke:white;stroke-width:2.5"/>
    </symbol>
    
    <symbol id="NoSmoking">
      <title>No Smoking</title>
      <rect x="18" y="37" height="5" width="30" style="stroke:none"/>
      <rect x="49" y="37" width="1.5" height="5" style="stroke:none"/>
      <rect x="51.5" y="37" width="1.5" height="5" style="stroke:none"/>
      <path d="m 49.75,35.75 0,-3.125 a 2.1875,2.1875 0 0 0 -2.1875,-2.1875 l -5.625,0 A 3.125,3.125 0 0 1 39.25,25.75 a 4.0625,4.0625 0 1 1 0,-8.125" style="fill:none;stroke-width:1.5"/>
      <path d="m 52.25,35.75 0,-3.75 a 5.625,5.625 0 0 0 -5.5,-5.625 l -3.125,0 A 4.0625,4.0625 0 0 0 40.5,19.5" style="fill:none;stroke-width:1.5"/>
      <path d="m 18,18 36,36" style="fill:none;stroke:white;stroke-width:6.25"/>
      <path d="m 18,18 36,36" style="fill:none;stroke-width:6.25"/>
      <circle cx="36" cy="36" r="24" style="fill:none;stroke-width:6"/>
    </symbol>
    
    <symbol id="NoSmoking_Inv">
      <title>No Smoking</title>
      <rect x="0.5" y="0.5" width="71" height="71" ry="6" style="stroke:white"/>
      <rect x="18" y="37" height="5" width="30" style="fill:white;stroke:none"/>
      <rect x="49" y="37" width="1.5" height="5" style="fill:white;stroke:none"/>
      <rect x="51.5" y="37" width="1.5" height="5" style="fill:white;stroke:none"/>
      <path d="m 49.75,35.75 0,-3.125 a 2.1875,2.1875 0 0 0 -2.1875,-2.1875 l -5.625,0 A 3.125,3.125 0 0 1 39.25,25.75 a 4.0625,4.0625 0 1 1 0,-8.125" style="fill:none;stroke:white;stroke-width:1.5"/>
      <path d="m 52.25,35.75 0,-3.75 a 5.625,5.625 0 0 0 -5.5,-5.625 l -3.125,0 A 4.0625,4.0625 0 0 0 40.5,19.5" style="fill:none;stroke:white;stroke-width:1.5"/>
      <path d="m 18,18 36,36" style="fill:none;stroke-width:6.25"/>
      <path d="m 18,18 36,36" style="fill:none;stroke:white;stroke-width:6.25"/>
      <circle cx="36" cy="36" r="24" style="fill:none;stroke:white;stroke-width:6"/>
    </symbol>
    
    <symbol id="Parking">
      <title>Parking</title>
      <path d="m 25,60 0,-45 14,0 a 12.5,12.5 0 0 1 0,25 l -9,0" style="fill:none;stroke-width:10"/>
    </symbol>

    <symbol id="Parking_Inv">
      <title>Parking</title>
      <rect x="0.5" y="0.5" width="71" height="71" ry="6" style="stroke:white"/>
      <path d="m 25,60 0,-45 14,0 a 12.5,12.5 0 0 1 0,25 l -9,0" style="fill:none;stroke:white;stroke-width:10"/>
    </symbol>
    
    <symbol id="NoParking">
      <title>No Parking</title>
      <path d="m 30,52 0,-29 9,0 a 8,8 0 0 1 0,16 l -6,0" style="fill:none;stroke-width:6"/>
      <path d="m 18,18 36,36" style="fill:none;stroke:white;stroke-width:6.25"/>
      <path d="m 18,18 36,36" style="fill:none;stroke-width:6.25"/>
      <circle cx="36" cy="36" r="24" style="fill:none;stroke-width:6"/>
    </symbol>
    
    <symbol id="NoParking_Inv">
      <title>No Parking</title>
      <rect x="0.5" y="0.5" width="71" height="71" ry="6" style="stroke:white"/>
      <path d="m 30,52 0,-29 9,0 a 8,8 0 0 1 0,16 l -6,0" style="fill:none;stroke:white;stroke-width:6"/>
      <path d="m 18,18 36,36" style="fill:none;stroke-width:6.25"/>
      <path d="m 18,18 36,36" style="fill:none;stroke:white;stroke-width:6.25"/>
      <circle cx="36" cy="36" r="24" style="fill:none;stroke:white;stroke-width:6"/>
    </symbol>
    
    <symbol id="NoDogs">
      <title>No Dogs</title>
      <path d="m 28,42 0,7 a 3,3 0 0 1 -6,0 l 0,-15 -2,0 a 2.5,2.5 0 0 1 0,-5 l 19,0 9,-9 0,5 6,6 c 1,1 1,3 -1,3 l -7,0 0,15 a 3,3 0 0 1 -6,0 l 0,-7 z" style="stroke:none"/>
      <path d="m 18,18 36,36" style="fill:none;stroke:white;stroke-width:6.25"/>
      <path d="m 18,18 36,36" style="fill:none;stroke-width:6.25"/>
      <circle cx="36" cy="36" r="24" style="fill:none;stroke-width:6"/>
    </symbol>
    
    <symbol id="NoDogs_Inv">
      <title>No Dogs</title>
      <rect x="0.5" y="0.5" width="71" height="71" ry="6" style="stroke:white"/>
      <path d="m 28,42 0,7 a 3,3 0 0 1 -6,0 l 0,-15 -2,0 a 2.5,2.5 0 0 1 0,-5 l 19,0 9,-9 0,5 6,6 c 1,1 1,3 -1,3 l -7,0 0,15 a 3,3 0 0 1 -6,0 l 0,-7 z" style="fill:white;stroke:none"/>
      <path d="m 18,18 36,36" style="fill:none;stroke-width:6.25"/>
      <path d="m 18,18 36,36" style="fill:none;stroke:white;stroke-width:6.25"/>
      <circle cx="36" cy="36" r="24" style="fill:none;stroke:white;stroke-width:6"/>
    </symbol>
    
    <symbol id="NoEntry">
      <title>No Entry</title>
      <circle cx="36" cy="36" r="27" style="stroke:none"/>
      <rect x="14" y="32" width="44" height="8" style="fill:white;stroke:none"/>
    </symbol>

    <symbol id="NoEntry_Inv">
      <title>No Entry</title>
      <rect x="0.5" y="0.5" width="71" height="71" ry="6" style="stroke:white"/>
      <circle cx="36" cy="36" r="27" style="fill:white;stroke:none"/>
      <rect x="14" y="32" width="44" height="8" style="stroke:none"/>
    </symbol>

    <symbol id="Exit">
      <title>Exit</title>
      <path d="m 32,9.3 a 27,27 0 0 0 0,53.4 z m 8,0 a 27,27 0 0 1 0,53.4 z" style="stroke:none"/>
    </symbol>

    <symbol id="Exit_Inv">
      <title>Exit</title>
      <rect x="0.5" y="0.5" width="71" height="71" ry="6" style="stroke:white"/>
      <path d="m 32,9.3 a 27,27 0 0 0 0,53.4 z m 8,0 a 27,27 0 0 1 0,53.4 z" style="fill:white;stroke:none"/>
    </symbol>

    <symbol id="FireExtinguisher">
      <title>Fire Extinguisher</title>
      <path d="m 32,17 a 11.5,11.5 0 0 0 -8,11 l 0,35 a 3,3 0 0 0 3,3 l 15,0 a 3,3 0 0 0 3,-3 L 45,28 A 11.5,11.5 0 0 0 37,17 l 0,-2 8,0 0,2 18,2 0,-12 -18,2 0,2 -8,0 0,-2 -1.5,0 a 4.6,4.6 0 1 0 -8,3.5 15,15 0 0 0 -7,7 1.904,1.904 0 1 0 3.5,1.5 12,12 0 0 1 8,-6 z M 29,9.5 a 2,2 0 0 0 4,0 2,2 0 0 0 -4,0 z" style="stroke:none;fill-rule:evenodd"/>
    </symbol>

    <symbol id="FireExtinguisher_Inv">
      <title>Fire Extinguisher</title>
      <rect x="0.5" y="0.5" width="71" height="71" ry="6" style="stroke:white"/>
      <path d="m 32,17 a 11.5,11.5 0 0 0 -8,11 l 0,35 a 3,3 0 0 0 3,3 l 15,0 a 3,3 0 0 0 3,-3 L 45,28 A 11.5,11.5 0 0 0 37,17 l 0,-2 8,0 0,2 18,2 0,-12 -18,2 0,2 -8,0 0,-2 -1.5,0 a 4.6,4.6 0 1 0 -8,3.5 15,15 0 0 0 -7,7 1.904,1.904 0 1 0 3.5,1.5 12,12 0 0 1 8,-6 z M 29,9.5 a 2,2 0 0 0 4,0 2,2 0 0 0 -4,0 z" style="fill:white;stroke:none;fill-rule:evenodd"/>
    </symbol>

    <symbol id="RightArrow">
      <title>Right Arrow</title>
      <path d="M 63,36 41,58 26,58 42,42 10,42 10,30 42,30 26,14 41,14 z" style="stroke:none"/>
    </symbol>

    <symbol id="RightArrow_Inv">
      <title>Right Arrow</title>
      <rect x="0.5" y="0.5" width="71" height="71" ry="6" style="stroke:white"/>
      <path d="M 63,36 41,58 26,58 42,42 10,42 10,30 42,30 26,14 41,14 z" style="fill:white;stroke:none"/>
    </symbol>

    <symbol id="ForwardAndRightArrow">
      <title>Forward and Right Arrow</title>
      <path d="M 56,16 56,48 45,59 45,35 22,58 14,50 37,27 13,27 24,16 z" style="stroke:none"/>
    </symbol>

    <symbol id="ForwardAndRightArrow_Inv">
      <title>Forward and Right Arrow</title>
      <rect x="0.5" y="0.5" width="71" height="71" ry="6" style="stroke:white"/>
      <path d="M 56,16 56,48 45,59 45,35 22,58 14,50 37,27 13,27 24,16 z" style="fill:white;stroke:none"/>
    </symbol>

    <symbol id="UpArrow">
      <title>Up Arrow</title>
      <path d="M 36,9 58,31 58,46 42,30 42,62 30,62 30,30 14,46 14,31 z" style="stroke:none"/>
    </symbol>

    <symbol id="UpArrow_Inv">
      <title>Up Arrow</title>
      <rect x="0.5" y="0.5" width="71" height="71" ry="6" style="stroke:white"/>
      <path d="M 36,9 58,31 58,46 42,30 42,62 30,62 30,30 14,46 14,31 z" style="fill:white;stroke:none"/>
    </symbol>

    <symbol id="ForwardAndLeftArrow">
      <title>Forward and Left Arrow</title>
      <path d="M 16,16 48,16 59,27 35,27 58,50 50,58 27,35 27,59 16,48 z" style="stroke:none"/>
    </symbol>

    <symbol id="ForwardAndLeftArrow_Inv">
      <title>Forward and Left Arrow</title>
      <rect x="0.5" y="0.5" width="71" height="71" ry="6" style="stroke:white"/>
      <path d="M 16,16 48,16 59,27 35,27 58,50 50,58 27,35 27,59 16,48 z" style="fill:white;stroke:none"/>
    </symbol>

    <symbol id="LeftArrow">
      <title>Left Arrow</title>
      <path d="m 9,36 22,-22 15,0 -16,16 32,0 0,12 -32,0 16,16 -15,0 z" style="stroke:none"/>
    </symbol>

    <symbol id="LeftArrow_Inv">
      <title>Left Arrow</title>
      <rect x="0.5" y="0.5" width="71" height="71" ry="6" style="stroke:white"/>
      <path d="m 9,36 22,-22 15,0 -16,16 32,0 0,12 -32,0 16,16 -15,0 z" style="fill:white;stroke:none"/>
    </symbol>

    <symbol id="LeftAndDownArrow">
      <title>Left and Down Arrow</title>
      <path d="m 16.125,55.875 0,-32 11,-11 0,24 23,-23 8,8 -23,23 24,0 -11,11 z" style="stroke:none"/>
    </symbol>

    <symbol id="LeftAndDownArrow_Inv">
      <title>Left and Down Arrow</title>
      <rect x="0.5" y="0.5" width="71" height="71" ry="6" style="stroke:white"/>
      <path d="m 16.125,55.875 0,-32 11,-11 0,24 23,-23 8,8 -23,23 24,0 -11,11 z" style="fill:white;stroke:none"/>
    </symbol>

    <symbol id="DownArrow">
      <title>Down Arrow</title>
      <path d="M 36,63 14,41 14,26 30,42 30,10 42,10 42,42 58,26 58,41 z" style="stroke:none"/>
    </symbol>

    <symbol id="DownArrow_Inv">
      <title>Down Arrow</title>
      <rect x="0.5" y="0.5" width="71" height="71" ry="6" style="stroke:white"/>
      <path d="M 36,63 14,41 14,26 30,42 30,10 42,10 42,42 58,26 58,41 z" style="fill:white;stroke:none"/>
    </symbol>

    <symbol id="RightAndDownArrow">
      <title>Right and Down Arrow</title>
      <path d="M 56,56 24,56 13,45 37,45 14,22 22,14 45,37 45,13 56,24 z" style="stroke:none"/>
    </symbol>

    <symbol id="RightAndDownArrow_Inv">
      <title>Right and Down Arrow</title>
      <rect x="0.5" y="0.5" width="71" height="71" ry="6" style="stroke:white"/>
      <path d="M 56,56 24,56 13,45 37,45 14,22 22,14 45,37 45,13 56,24 z" style="fill:white;stroke:none"/>
    </symbol>

    <symbol id="WheelChair1996">
      <title>NPS Wheelchair Accessible - 1996</title>
      <g style="stroke:none">
	<circle cx="30" cy="11.75" r="5"/>
	<path d="M 51,36.5 C 50.48,35.61 49.5,35 48.5,35 L 36,35 35.8,31 45,31 a 2.25,2.25 0 0 0 0,-4.5 l -9.5,0 -0.2,-4.3 c -0.18,-2.6 -2.2,-4.75 -4.9,-4.6 -2.7,0.15 -5,2.5 -4.8,5.1 L 26.45,38 c 0.2,2.6 2.45,4.5 5.05,4.5 l 16.5,0 6.5,11.5 a 2.916,2.916 0 0 0 5,-3 z"/> 
	<path d="M 23.2,29 A 19,19 0 1 0 50.9,52.5 L 48.2,48 A 15,15 0 1 1 23.5,33.8 z"/> 
      </g>
    </symbol>

    <symbol id="WheelChairInv">
      <title>NPS Wheelchair Accessible - 1996</title>
      <rect x="0.5" y="0.5" width="71" height="71" ry="6" style="stroke:white"/>
      <g style="fill:white;stroke:none">
	<circle cx="30" cy="11.75" r="5"/>
	<path d="M 51,36.5 C 50.48,35.61 49.5,35 48.5,35 L 36,35 35.8,31 45,31 a 2.25,2.25 0 0 0 0,-4.5 l -9.5,0 -0.2,-4.3 c -0.18,-2.6 -2.2,-4.75 -4.9,-4.6 -2.7,0.15 -5,2.5 -4.8,5.1 L 26.45,38 c 0.2,2.6 2.45,4.5 5.05,4.5 l 16.5,0 6.5,11.5 a 2.916,2.916 0 0 0 5,-3 z"/> 
	<path d="M 23.2,29 A 19,19 0 1 0 50.9,52.5 L 48.2,48 A 15,15 0 1 1 23.5,33.8 z"/> 
      </g>
    </symbol>

    <symbol id="WheelChair">
      <title>NPS Wheelchair Accessible</title>
      <g style="stroke:none">
	<circle cx="30" cy="11.75" r="5"/>
	<path d="m 63.5,55.5 a 2.25,2.25 0 0 0 0,-4.5 l -4,0 L 51,36.5 C 50.48,35.61 49.5,35 48.5,35 L 36,35 35.8,31 45,31 a 2.25,2.25 0 0 0 0,-4.5 l -9.5,0 -0.2,-4.3 c -0.18,-2.6 -2.2,-4.75 -4.9,-4.6 -2.7,0.15 -5,2.5 -4.8,5.1 L 26.45,38 c 0.2,2.6 2.45,4.5 5.05,4.5 l 16.5,0 6.5,11.5 c 0.25,0.5 1.3,1.5 2.5,1.5 z"/> 
	<path d="M 23.2,29 A 19,19 0 1 0 50.9,52.5 L 48.2,48 A 15,15 0 1 1 23.5,33.8 z"/> 
      </g>
    </symbol>

    <symbol id="WheelChair_Inv">
      <title>NPS Wheelchair Accessible</title>
      <rect x="0.5" y="0.5" width="71" height="71" ry="6" style="stroke:white"/>
      <g style="fill:white;stroke:none">
	<circle cx="30" cy="11.75" r="5"/>
	<path d="m 63.5,55.5 a 2.25,2.25 0 0 0 0,-4.5 l -4,0 L 51,36.5 C 50.48,35.61 49.5,35 48.5,35 L 36,35 35.8,31 45,31 a 2.25,2.25 0 0 0 0,-4.5 l -9.5,0 -0.2,-4.3 c -0.18,-2.6 -2.2,-4.75 -4.9,-4.6 -2.7,0.15 -5,2.5 -4.8,5.1 L 26.45,38 c 0.2,2.6 2.45,4.5 5.05,4.5 l 16.5,0 6.5,11.5 c 0.25,0.5 1.3,1.5 2.5,1.5 z"/> 
	<path d="M 23.2,29 A 19,19 0 1 0 50.9,52.5 L 48.2,48 A 15,15 0 1 1 23.5,33.8 z"/> 
      </g>
    </symbol>

    <symbol id="WheelChairNew">
      <title>New Wheelchair Accessible</title>
      <g style="stroke:none">
	<circle cx="37" cy="12.5" r="5"/>
	<path d="m 15.9,31.3 5.3,-7.7 c 0.3,-0.4 0.9,-0.8 1.3,-1 L 32,18.5 c 4,-1.8 7,2 6.5,4.7 l -2,9.8 9.5,2 c 1.3,0.3 2.1,0.9 2.8,2 l 7.3,12.3 2.8,-1.9 c 2.2,-1.5 4.5,1.7 2.2,3.3 l -5.6,3.8 c -1,0.7 -2.5,0.4 -3,-0.5 l -7,-12 -15,-3 c -2,-0.4 -3.8,-3 -3.5,-5 l 2,-10 -4.5,2 -5.4,7.6 c -1.5,2.2 -4.8,0 -3.2,-2.4 z"/> 
	<path d="m 25,36 1,-5.4 a 16,16 0 1 0 22,20 L 45,45.4 A 12,12 0 1 1 25,36 z"/> 
      </g>
    </symbol>

    <symbol id="WheelChairNew_Inv">
      <title>New Wheelchair Accessible</title>
      <rect x="0.5" y="0.5" width="71" height="71" ry="6" style="stroke:white"/>
      <g style="fill:white;stroke:none">
	<circle cx="37" cy="12.5" r="5"/>
	<path d="m 15.9,31.3 5.3,-7.7 c 0.3,-0.4 0.9,-0.8 1.3,-1 L 32,18.5 c 4,-1.8 7,2 6.5,4.7 l -2,9.8 9.5,2 c 1.3,0.3 2.1,0.9 2.8,2 l 7.3,12.3 2.8,-1.9 c 2.2,-1.5 4.5,1.7 2.2,3.3 l -5.6,3.8 c -1,0.7 -2.5,0.4 -3,-0.5 l -7,-12 -15,-3 c -2,-0.4 -3.8,-3 -3.5,-5 l 2,-10 -4.5,2 -5.4,7.6 c -1.5,2.2 -4.8,0 -3.2,-2.4 z"/> 
	<path d="m 25,36 1,-5.4 a 16,16 0 1 0 22,20 L 45,45.4 A 12,12 0 1 1 25,36 z"/> 
      </g>
    </symbol>

  </defs>

  <use x="0"   y="0"   xlink:href="#Telephone"/>
  <use x="0"   y="72"  xlink:href="#Telephone_Inv"/>
  <use x="72"  y="0"   xlink:href="#Mail"/>
  <use x="72"  y="72"  xlink:href="#Mail_Inv"/>
  <use x="144" y="0"   xlink:href="#CurrencyExchange"/>
  <use x="144" y="72"  xlink:href="#CurrencyExchange_Inv"/>
  <use x="216" y="0"   xlink:href="#CurrencyExchangeEuro"/>
  <use x="216" y="72"  xlink:href="#CurrencyExchangeEuro_Inv"/>
  <use x="288" y="0"   xlink:href="#Cashier"/>
  <use x="288" y="72"  xlink:href="#Cashier_Inv"/>
  <use x="360" y="0"   xlink:href="#FirstAid"/>
  <use x="360" y="72"  xlink:href="#FirstAid_Inv"/>
  <use x="432" y="0"   xlink:href="#LostAndFound"/>
  <use x="432" y="72"  xlink:href="#LostAndFound_Inv"/>
  <use x="504" y="0"   xlink:href="#CoatCheck"/>
  <use x="504" y="72"  xlink:href="#CoatCheck_Inv"/>
  <use x="576" y="0"   xlink:href="#BaggageLockers"/>
  <use x="576" y="72"  xlink:href="#BaggageLockers_Inv"/>
  <use x="648" y="0"   xlink:href="#Escalator"/>
  <use x="648" y="72"  xlink:href="#Escalator_Inv"/>

  <use x="0"   y="144" xlink:href="#EscalatorDown"/>
  <use x="0"   y="216" xlink:href="#EscalatorDown_Inv"/>
  <use x="72"  y="144" xlink:href="#EscalatorUp"/>
  <use x="72"  y="216" xlink:href="#EscalatorUp_Inv"/>
  <use x="144" y="144" xlink:href="#Stairs"/>
  <use x="144" y="216" xlink:href="#Stairs_Inv"/>
  <use x="216" y="144" xlink:href="#StairsDown"/>
  <use x="216" y="216" xlink:href="#StairsDown_Inv"/>
  <use x="288" y="144" xlink:href="#StairsUp"/>
  <use x="288" y="216" xlink:href="#StairsUp_Inv"/>
  <use x="360" y="144" xlink:href="#Elevator"/>
  <use x="360" y="216" xlink:href="#Elevator_Inv"/>
  <use x="432" y="144" xlink:href="#ToiletsMen"/>
  <use x="432" y="216" xlink:href="#ToiletsMen_Inv"/>
  <use x="504" y="144" xlink:href="#ToiletsWomen"/>
  <use x="504" y="216" xlink:href="#ToiletsWomen_Inv"/>
  <use x="576" y="144" xlink:href="#Toilets"/>
  <use x="576" y="216" xlink:href="#Toilets_Inv"/>
  <use x="648" y="144" xlink:href="#Nursery"/>
  <use x="648" y="216" xlink:href="#Nursery_Inv"/>

  <use x="0"   y="288" xlink:href="#DrinkingFountain"/>
  <use x="0"   y="360" xlink:href="#DrinkingFountain_Inv"/>
  <use x="72"  y="288" xlink:href="#WaitingRoom"/>
  <use x="72"  y="360" xlink:href="#WaitingRoom_Inv"/>
  <use x="144" y="288" xlink:href="#Information"/>
  <use x="144" y="360" xlink:href="#Information_Inv"/>
  <use x="216" y="288" xlink:href="#HotelInformation"/>
  <use x="216" y="360" xlink:href="#HotelInformation_Inv"/>
  <use x="288" y="288" xlink:href="#AirTransportation"/>
  <use x="288" y="360" xlink:href="#AirTransportation_Inv"/>
  <use x="360" y="288" xlink:href="#Heliport"/>
  <use x="360" y="360" xlink:href="#Heliport_Inv"/>
  <use x="432" y="288" xlink:href="#Taxi"/>
  <use x="432" y="360" xlink:href="#Taxi_Inv"/>
  <use x="504" y="288" xlink:href="#Bus"/>
  <use x="504" y="360" xlink:href="#Bus_Inv"/>
  <use x="576" y="288" xlink:href="#GroundTransportation"/>
  <use x="576" y="360" xlink:href="#GroundTransportation_Inv"/>
  <use x="648" y="288" xlink:href="#RailTransportation"/>
  <use x="648" y="360" xlink:href="#RailTransportation_Inv"/>

  <use x="0"   y="432" xlink:href="#WaterTransportation"/>
  <use x="0"   y="504" xlink:href="#WaterTransportation_Inv"/>
  <use x="72"  y="432" xlink:href="#CarRental"/>
  <use x="72"  y="504" xlink:href="#CarRental_Inv"/>
  <use x="144" y="432" xlink:href="#Restaurant"/>
  <use x="144" y="504" xlink:href="#Restaurant_Inv"/>
  <use x="216" y="432" xlink:href="#Coffeeshop"/>
  <use x="216" y="504" xlink:href="#Coffeeshop_Inv"/>
  <use x="288" y="432" xlink:href="#Bar"/>
  <use x="288" y="504" xlink:href="#Bar_Inv"/>
  <use x="360" y="432" xlink:href="#Shops"/>
  <use x="360" y="504" xlink:href="#Shops_Inv"/>
  <use x="432" y="432" xlink:href="#BarberShopBeautySalon"/>
  <use x="432" y="504" xlink:href="#BarberShopBeautySalon_Inv"/>
  <use x="504" y="432" xlink:href="#BarberShop"/>
  <use x="504" y="504" xlink:href="#BarberShop_Inv"/>
  <use x="576" y="432" xlink:href="#BeautySalon"/>
  <use x="576" y="504" xlink:href="#BeautySalon_Inv"/>
  <use x="648" y="432" xlink:href="#TicketPurchase"/>
  <use x="648" y="504" xlink:href="#TicketPurchase_Inv"/>

  <use x="0"   y="576" xlink:href="#BaggageCheckIn"/>
  <use x="0"   y="648" xlink:href="#BaggageCheckIn_Inv"/>
  <use x="72"  y="576" xlink:href="#BaggageClaim"/>
  <use x="72"  y="648" xlink:href="#BaggageClaim_Inv"/>
  <use x="144" y="576" xlink:href="#Customs"/>
  <use x="144" y="648" xlink:href="#Customs_Inv"/>
  <use x="216" y="576" xlink:href="#Immigration"/>
  <use x="216" y="648" xlink:href="#Immigration_Inv"/>
  <use x="288" y="576" xlink:href="#DepartingFlights"/>
  <use x="288" y="648" xlink:href="#DepartingFlights_Inv"/>
  <use x="360" y="576" xlink:href="#ArrivingFlights"/>
  <use x="360" y="648" xlink:href="#ArrivingFlights_Inv"/>
  <use x="432" y="576" xlink:href="#Smoking"/>
  <use x="432" y="648" xlink:href="#Smoking_Inv"/>
  <use x="504" y="576" xlink:href="#NoSmoking"/>
  <use x="504" y="648" xlink:href="#NoSmoking_Inv"/>
  <use x="576" y="576" xlink:href="#Parking"/>
  <use x="576" y="648" xlink:href="#Parking_Inv"/>
  <use x="648" y="576" xlink:href="#NoParking"/>
  <use x="648" y="648" xlink:href="#NoParking_Inv"/>

  <use x="0"   y="720" xlink:href="#NoDogs"/>
  <use x="0"   y="792" xlink:href="#NoDogs_Inv"/>
  <use x="72"  y="720" xlink:href="#NoEntry"/>
  <use x="72"  y="792" xlink:href="#NoEntry_Inv"/>
  <use x="144" y="720" xlink:href="#Exit"/>
  <use x="144" y="792" xlink:href="#Exit_Inv"/>
  <use x="216" y="720" xlink:href="#FireExtinguisher"/>
  <use x="216" y="792" xlink:href="#FireExtinguisher_Inv"/>
  <use x="288" y="720" xlink:href="#LitterDisposal"/>
  <use x="288" y="792" xlink:href="#LitterDisposal_Inv"/>

  <use x="432" y="720" xlink:href="#WheelChair1996"/>
  <use x="432" y="792" xlink:href="#WheelChairInv"/>
  <use x="504" y="720" xlink:href="#WheelChair"/>
  <use x="504" y="792" xlink:href="#WheelChair_Inv"/>
  <use x="576" y="720" xlink:href="#WheelChairNew"/>
  <use x="576" y="792" xlink:href="#WheelChairNew_Inv"/>


  <use x="0"   y="864" xlink:href="#RightArrow"/>
  <use x="0"   y="936" xlink:href="#RightArrow_Inv"/>
  <use x="72"  y="864" xlink:href="#ForwardAndRightArrow"/>
  <use x="72"  y="936" xlink:href="#ForwardAndRightArrow_Inv"/>
  <use x="144" y="864" xlink:href="#UpArrow"/>
  <use x="144" y="936" xlink:href="#UpArrow_Inv"/>
  <use x="216" y="864" xlink:href="#ForwardAndLeftArrow"/>
  <use x="216" y="936" xlink:href="#ForwardAndLeftArrow_Inv"/>
  <use x="288" y="864" xlink:href="#LeftArrow"/>
  <use x="288" y="936" xlink:href="#LeftArrow_Inv"/>
  <use x="360" y="864" xlink:href="#LeftAndDownArrow"/>
  <use x="360" y="936" xlink:href="#LeftAndDownArrow_Inv"/>
  <use x="432" y="864" xlink:href="#DownArrow"/>
  <use x="432" y="936" xlink:href="#DownArrow_Inv"/>
  <use x="504" y="864" xlink:href="#RightAndDownArrow"/>
  <use x="504" y="936" xlink:href="#RightAndDownArrow_Inv"/>

</svg>
