<?xml version="1.0" encoding="UTF-8" standalone="no"?>
<!-- Created with Inkscape (http://www.inkscape.org/)         -->
<!-- Created by Tavmjong Bah based on AIGA and NPS symbols.   -->
<!-- See http://www.aiga.org/symbol-signs/ and                -->
<!--     http://www.nps.gov/hfc/carto/map-symbols.cfm         -->
<!-- Symbols are in the public domain.                        -->
<!-- THIS FILE HAS BEEN HAND-EDITTED TO PROVIDE CLEAN SVG, DO NOT ARBITRARILY CHANGE -->
<svg
   xmlns="http://www.w3.org/2000/svg"
   xmlns:xlink="http://www.w3.org/1999/xlink"
   xmlns:dc="http://purl.org/dc/elements/1.1/"
   xmlns:cc="http://creativecommons.org/ns#"
   xmlns:rdf="http://www.w3.org/1999/02/22-rdf-syntax-ns#"
   width="720"
   height="1008"
   viewBox="0,0,720,1008"
   version="1.1"
   style="fill:black;stroke:black">
  <metadata
     id="metadata17272">
    <rdf:RDF>
      <cc:Work
         rdf:about="">
        <dc:format>image/svg+xml</dc:format>
        <dc:type
           rdf:resource="http://purl.org/dc/dcmitype/StillImage" />
        <dc:title>NPS Map Signs</dc:title>
        <dc:rights>
          <cc:Agent>
            <dc:title />
          </cc:Agent>
        </dc:rights>
        <dc:publisher>
          <cc:Agent>
            <dc:title>NPS</dc:title>
          </cc:Agent>
        </dc:publisher>
        <dc:source>http://www.nps.gov/hfc/carto/map-symbols.cfm</dc:source>
        <dc:description>Map symbols from the United States National Park Service</dc:description>
        <cc:license
           rdf:resource="http://creativecommons.org/licenses/publicdomain/" />
        <dc:creator>
          <cc:Agent>
            <dc:title>Various</dc:title>
          </cc:Agent>
        </dc:creator>
        <dc:date>Various</dc:date>
      </cc:Work>
      <cc:License
         rdf:about="http://creativecommons.org/licenses/publicdomain/">
        <cc:permits
           rdf:resource="http://creativecommons.org/ns#Reproduction" />
        <cc:permits
           rdf:resource="http://creativecommons.org/ns#Distribution" />
        <cc:permits
           rdf:resource="http://creativecommons.org/ns#DerivativeWorks" />
      </cc:License>
    </rdf:RDF>
  </metadata>
  <title>United States National Park Service Map Symbols</title>
  <desc>Symbols for use on maps.</desc>
  <defs>

    <symbol id="Airport">
      <title>Airport</title>
      <path d="m 39,10 0,18 25,15 0,7 -25,-9 0,14 6,4 0,6 -9,-3 -9,3 0,-6 6,-4 0,-14 -25,9 0,-7 25,-15 0,-18 a 3,3 0 0 1 6,0 z" style="stroke:none"/>
    </symbol>

    <symbol id="Airport_Inv">
      <title>Airport</title>
      <rect x="0.5" y="0.5" width="71" height="71" ry="6" style="stroke:white"/>
      <path d="m 39,10 0,18 25,15 0,7 -25,-9 0,14 6,4 0,6 -9,-3 -9,3 0,-6 6,-4 0,-14 -25,9 0,-7 25,-15 0,-18 a 3,3 0 0 1 6,0 z" style="fill:white;stroke:none"/>
    </symbol>

    <symbol id="Amphitheatre">
      <title>Amphitheatre</title>
      <circle cx="36" cy="8.5" r="3.5" style="stroke:none"/>
      <path d="m 42,13.5 a 4.5,4.5 0 0 1 4.5,4.5 l 0,8.5 a 1.5,1.5 0 0 1 -3,0 l 0,-8 -3,0 0,10.5 a 20,20 0 0 1 -9,0 l 0,-10.5 -3,0 0,8 a 1.5,1.5 0 0 1 -3,0 l 0,-8.5 A 4.5,4.5 0 0 1 30,13.5 Z" style="stroke:none"/>
      <path d="m 51.1,34.4 a 27,27 0 0 1 -30.2,0" style="fill:none;stroke-width:5.5"/>
      <path d="m 57.3,43.5 a 38,38 0 0 1 -42.6,0" style="fill:none;stroke-width:5.5"/>
      <path d="m 63.4,52.6 a 49,49 0 0 1 -54.8,0" style="fill:none;stroke-width:5.5"/>
    </symbol>

    <symbol id="Amphitheatre_Inv">
      <title>Amphitheatre</title>
      <rect x="0.5" y="0.5" width="71" height="71" ry="6" style="stroke:white"/>
      <circle cx="36" cy="8.5" r="3.5" style="fill:white;stroke:none"/>
      <path d="m 42,13.5 a 4.5,4.5 0 0 1 4.5,4.5 l 0,8.5 a 1.5,1.5 0 0 1 -3,0 l 0,-8 -3,0 0,10.5 a 20,20 0 0 1 -9,0 l 0,-10.5 -3,0 0,8 a 1.5,1.5 0 0 1 -3,0 l 0,-8.5 A 4.5,4.5 0 0 1 30,13.5 Z" style="fill:white;stroke:none"/>
      <path d="m 51.1,34.4 a 27,27 0 0 1 -30.2,0" style="fill:none;stroke:white;stroke-width:5.5"/>
      <path d="m 57.3,43.5 a 38,38 0 0 1 -42.6,0" style="fill:none;stroke:white;stroke-width:5.5"/>
      <path d="m 63.4,52.6 a 49,49 0 0 1 -54.8,0" style="fill:none;stroke:white;stroke-width:5.5"/>
    </symbol>

    <symbol id="BicycleTrail">
      <title>Bicycle Trail</title>
      <circle cx="42" cy="12.75" r="4.75" style="stroke:none"/>
      <path d="m 42,29.25 a 2.5,2.5 0 0 1 -1.75,-1.25 l -3,-5 -6.5,6.5 5.75,3.25 a 3.5,3.5 0 0 1 2.25,3.5 l 0,13.5 a 2.75,2.75 0 0 1 -5.5,0 l 0,-11 -10.5,-5.8 a 4,4 0 0 1 -1,-6.25 l 9.75,-9.75 a 4.25,4.25 0 0 1 7,0.5 l 5,8 8.5,0 a 1.875,1.875 0 0 1 0,3.75 z" style="stroke:none"/>
      <circle cx="17.25" cy="49" r="11.75" style="fill:none;stroke-width:2.5"/>
      <circle cx="55" cy="49" r="11.75" style="fill:none;stroke-width:2.5"/>
    </symbol>

    <symbol id="BicycleTrail_Inv">
      <title>Bicycle Trail</title>
      <rect x="0.5" y="0.5" width="71" height="71" ry="6" style="stroke:white"/>
      <circle cx="42" cy="12.75" r="4.75" style="fill:white;stroke:none"/>
      <path d="m 42,29.25 a 2.5,2.5 0 0 1 -1.75,-1.25 l -3,-5 -6.5,6.5 5.75,3.25 a 3.5,3.5 0 0 1 2.25,3.5 l 0,13.5 a 2.75,2.75 0 0 1 -5.5,0 l 0,-11 -10.5,-5.8 a 4,4 0 0 1 -1,-6.25 l 9.75,-9.75 a 4.25,4.25 0 0 1 7,0.5 l 5,8 8.5,0 a 1.875,1.875 0 0 1 0,3.75 z" style="fill:white;stroke:none"/>
      <circle cx="17.25" cy="49" r="11.75" style="fill:none;stroke:white;stroke-width:2.5"/>
      <circle cx="55" cy="49" r="11.75" style="fill:none;stroke:white;stroke-width:2.5"/>
    </symbol>

    <symbol id="BoatLaunch">
      <title>Boat Launch</title>
      <path d="m 27.5,17.75 6.625,-4.625 2.375,0.5 -6.625,4.75 36.875,10 -2.75,9.875 -36.875,-10 c -14.25,-4.25 -11.75,-13.75 -11.75,-13.75 z" style="stroke:none"/>
      <path d="m 32.25,35.5 c 0.375,-0.625 0.875,-1.25 1.5,-1.75 l -27.75,-7.625 0,2.25 z" style="stroke:none"/>
      <path d="m 47.375,39.75 c 0,-0.625 -0.25,-1.75 -0.5,-2.375 l 16.64316,4.63626 -0.51816,1.98874 z" style="stroke:none"/>
      <path d="m 66,59.5 c -2.5,0 -5,-1.75 -7.5,-1.75 -2.5,0 -5,1.75 -7.5,1.75 -2.5,0 -5,-1.75 -7.5,-1.75 -2.5,0 -5,1.75 -7.5,1.75 -2.5,0 -5,-1.75 -7.5,-1.75 -2.5,0 -5,1.75 -7.5,1.75 -2.5,0 -5,-1.75 -7.5,-1.75 -2.5,0 -5,1.75 -7.5,1.75 l 0,-22 60,16.5 z" style="stroke:none"/>
      <circle cx="39" cy="40.5" r="4.5" style="fill:none;stroke-width:3.5"/>
    </symbol>

    <symbol id="BoatLaunch_Inv">
      <title>Boat Launch</title>
      <rect x="0.5" y="0.5" width="71" height="71" ry="6" style="stroke:white"/>
      <path d="m 27.5,17.75 6.625,-4.625 2.375,0.5 -6.625,4.75 36.875,10 -2.75,9.875 -36.875,-10 c -14.25,-4.25 -11.75,-13.75 -11.75,-13.75 z" style="fill:white;stroke:none"/>
      <path d="m 32.25,35.5 c 0.375,-0.625 0.875,-1.25 1.5,-1.75 l -27.75,-7.625 0,2.25 z" style="fill:white;stroke:none"/>
      <path d="m 47.375,39.75 c 0,-0.625 -0.25,-1.75 -0.5,-2.375 l 16.64316,4.63626 -0.51816,1.98874 z" style="fill:white;stroke:none"/>
      <path d="m 66,59.5 c -2.5,0 -5,-1.75 -7.5,-1.75 -2.5,0 -5,1.75 -7.5,1.75 -2.5,0 -5,-1.75 -7.5,-1.75 -2.5,0 -5,1.75 -7.5,1.75 -2.5,0 -5,-1.75 -7.5,-1.75 -2.5,0 -5,1.75 -7.5,1.75 -2.5,0 -5,-1.75 -7.5,-1.75 -2.5,0 -5,1.75 -7.5,1.75 l 0,-22 60,16.5 z" style="fill:white;stroke:none"/>
      <circle cx="39" cy="40.5" r="4.5" style="fill:none;stroke:white;stroke-width:3.5"/>
    </symbol>

    <symbol id="BoatTour">
      <title>Boat Tour</title>
      <path d="m 6,54 c 2.5,0 5,-1.75 7.5,-1.75 2.5,0 5,1.75 7.5,1.75 2.5,0 5,-1.75 7.5,-1.75 2.5,0 5,1.75 7.5,1.75 2.5,0 5,-1.75 7.5,-1.75 2.5,0 5,1.75 7.5,1.75 2.5,0 5,-1.75 7.5,-1.75 2.5,0 5,1.75 7.5,1.75 l 0,5.5 c -2.5,0 -5,-1.75 -7.5,-1.75 -2.5,0 -5,1.75 -7.5,1.75 -2.5,0 -5,-1.75 -7.5,-1.75 -2.5,0 -5,1.75 -7.5,1.75 -2.5,0 -5,-1.75 -7.5,-1.75 -2.5,0 -5,1.75 -7.5,1.75 -2.5,0 -5,-1.75 -7.5,-1.75 -2.5,0 -5,1.75 -7.5,1.75 z" style="stroke:none"/>
      <path d="m 6,35.625 61,0 c -3.5,6.375 -11,13.125 -16,13.125 -2.5,0 -5,-1.75 -7.5,-1.75 -2.5,0 -5,1.75 -7.5,1.75 -2.5,0 -5,-1.75 -7.5,-1.75 -2.5,0 -5,1.75 -7.5,1.75 -2.5,0 -5,-1.75 -7.5,-1.75 -2.5,0 -5,1.75 -7.5,1.75 z" style="stroke:none"/>
      <path d="m 40,21.625 9,0 c 0,0 2.375,0 3.125,1.625 l 3.375,8 -11.5,0 z m -24,8.625 c 0,0.625 -0.375,1 -1,1 l -5,0 c -0.625,0 -1,-0.375 -1,-1 l 0,-7.625 c 0,-0.625 0.375,-1 1,-1 l 5,0 c 0.625,0 1,0.375 1,1 z m -10,3.25 53,0 -5.375,-12.625 c -1.5,-3.25 -5.375,-2.875 -5.375,-2.875 l -42.25,0 m 30.25,12.25 c 0,0.625 -0.375,1 -1,1 l -5,0 c -0.625,0 -1,-0.375 -1,-1 l 0,-7.625 c 0,-0.625 0.375,-1 1,-1 l 5,0 c 0.625,0 1,0.375 1,1 z m -10,0 c 0,0.625 -0.375,1 -1,1 l -5,0 c -0.625,0 -1,-0.375 -1,-1 l 0,-7.625 c 0,-0.625 0.375,-1 1,-1 l 5,0 c 0.625,0 1,0.375 1,1 z" style="stroke:none"/>
    </symbol>

    <symbol id="BoatTour_Inv">
      <title>Boat Tour</title>
      <rect x="0.5" y="0.5" width="71" height="71" ry="6" style="stroke:white"/>
      <path d="m 6,54 c 2.5,0 5,-1.75 7.5,-1.75 2.5,0 5,1.75 7.5,1.75 2.5,0 5,-1.75 7.5,-1.75 2.5,0 5,1.75 7.5,1.75 2.5,0 5,-1.75 7.5,-1.75 2.5,0 5,1.75 7.5,1.75 2.5,0 5,-1.75 7.5,-1.75 2.5,0 5,1.75 7.5,1.75 l 0,5.5 c -2.5,0 -5,-1.75 -7.5,-1.75 -2.5,0 -5,1.75 -7.5,1.75 -2.5,0 -5,-1.75 -7.5,-1.75 -2.5,0 -5,1.75 -7.5,1.75 -2.5,0 -5,-1.75 -7.5,-1.75 -2.5,0 -5,1.75 -7.5,1.75 -2.5,0 -5,-1.75 -7.5,-1.75 -2.5,0 -5,1.75 -7.5,1.75 z" style="fill:white;stroke:none"/>
      <path d="m 6,35.625 61,0 c -3.5,6.375 -11,13.125 -16,13.125 -2.5,0 -5,-1.75 -7.5,-1.75 -2.5,0 -5,1.75 -7.5,1.75 -2.5,0 -5,-1.75 -7.5,-1.75 -2.5,0 -5,1.75 -7.5,1.75 -2.5,0 -5,-1.75 -7.5,-1.75 -2.5,0 -5,1.75 -7.5,1.75 z" style="fill:white;stroke:none"/>
      <path d="m 40,21.625 9,0 c 0,0 2.375,0 3.125,1.625 l 3.375,8 -11.5,0 z m -24,8.625 c 0,0.625 -0.375,1 -1,1 l -5,0 c -0.625,0 -1,-0.375 -1,-1 l 0,-7.625 c 0,-0.625 0.375,-1 1,-1 l 5,0 c 0.625,0 1,0.375 1,1 z m -10,3.25 53,0 -5.375,-12.625 c -1.5,-3.25 -5.375,-2.875 -5.375,-2.875 l -42.25,0 m 30.25,12.25 c 0,0.625 -0.375,1 -1,1 l -5,0 c -0.625,0 -1,-0.375 -1,-1 l 0,-7.625 c 0,-0.625 0.375,-1 1,-1 l 5,0 c 0.625,0 1,0.375 1,1 z m -10,0 c 0,0.625 -0.375,1 -1,1 l -5,0 c -0.625,0 -1,-0.375 -1,-1 l 0,-7.625 c 0,-0.625 0.375,-1 1,-1 l 5,0 c 0.625,0 1,0.375 1,1 z" style="fill:white;stroke:none"/>
    </symbol>

    <symbol id="BusStop">
      <title>Bus Stop</title>
      <path d="m 14,58 4,0 0,4 a 3,3 0 0 0 6,0 l 0,-4 24,0 0,4 a 3,3 0 0 0 6,0 l 0,-4 4,0 0,-23 -2,-16 a 8,8 0 0 0 -6,-6 40,40 0 0 0 -28,0 8,8 0 0 0 -6,6 l -2,16 0,23 z M 22,20 a 2.5,2.5 0 0 0 -2.5,2 L 18,35 a 1.5,1.75 0 0 0 1.5,2 l 33,0 A 1.5,1.75 0 0 0 54,35 L 52.5,22 A 2.5,2.5 0 0 0 50,20 z" style="stroke:none;fill-rule:evenodd"/>
      <path d="m 27,16.5 18,0" style="fill:none;stroke:white;stroke-width:3;stroke-linecap:round"/>
      <circle cx="21" cy="48" r="3" style="fill:white;stroke:none"/>
      <circle cx="51" cy="48" r="3" style="fill:white;stroke:none"/>
    </symbol>

    <symbol id="BusStop_Inv">
      <title>Bus Stop</title>
      <rect x="0.5" y="0.5" width="71" height="71" ry="6" style="stroke:white"/>
      <path d="m 14,58 4,0 0,4 a 3,3 0 0 0 6,0 l 0,-4 24,0 0,4 a 3,3 0 0 0 6,0 l 0,-4 4,0 0,-23 -2,-16 a 8,8 0 0 0 -6,-6 40,40 0 0 0 -28,0 8,8 0 0 0 -6,6 l -2,16 0,23 z M 22,20 a 2.5,2.5 0 0 0 -2.5,2 L 18,35 a 1.5,1.75 0 0 0 1.5,2 l 33,0 A 1.5,1.75 0 0 0 54,35 L 52.5,22 A 2.5,2.5 0 0 0 50,20 z" style="fill:white;stroke:none;fill-rule:evenodd"/>
      <path d="m 27,16.5 18,0" style="fill:none;stroke-width:3;stroke-linecap:round"/>
      <circle cx="21" cy="48" r="3" style="stroke:none"/>
      <circle cx="51" cy="48" r="3" style="stroke:none"/>
    </symbol>

    <symbol id="Campfire">
      <title>Campfire</title>
      <g style="stroke:none">
	<path d="m 12,50.5 -5.5,0 0,10.5 c 0,3.5 3,5.75 6.5,5.75 l 46,0 c 3.5,0 6.5,-2.25 6.5,-5.75 l 0,-10.5 -5.5,0 0,9.5 c 0,1 -1,2 -2,2 l -44,0 c -1,0 -2,-1 -2,-2 z"/>
	<path d="m 32.5,53.25 -14.5,4.75 0,-8 2.625,-0.875 z"/>
	<path d="m 54,57.5 0,-8 -36,-12 0,8 z"/>
	<path d="m 39,41.75 15,-5.125 0,8.375 -2.5,0.875 z"/>
	<path d="m 26.5,37.5 c -1.5,-1.5 -9.5,-11 -1,-19.5 7,-7 7.5,-12 5,-15 0,0 17.5,7 7.5,24 -2,3 -6,6.5 -4,13 z"/>
	<path d="m 37,39.75 c -0.5,-1.25 -2,-4.25 3,-10.25 3,-3.5 3.5,-8 4,-10 0,0 9,5 0.25,17.75 z"/>
      </g>
    </symbol>

    <symbol id="Campfire_Inv">
      <title>Campfire</title>
      <rect x="0.5" y="0.5" width="71" height="71" ry="6" style="stroke:white"/>
      <g style="fill:white;stroke:none">
	<path d="m 12,50.5 -5.5,0 0,10.5 c 0,3.5 3,5.75 6.5,5.75 l 46,0 c 3.5,0 6.5,-2.25 6.5,-5.75 l 0,-10.5 -5.5,0 0,9.5 c 0,1 -1,2 -2,2 l -44,0 c -1,0 -2,-1 -2,-2 z"/>
	<path d="m 32.5,53.25 -14.5,4.75 0,-8 2.625,-0.875 z"/>
	<path d="m 54,57.5 0,-8 -36,-12 0,8 z"/>
	<path d="m 39,41.75 15,-5.125 0,8.375 -2.5,0.875 z"/>
	<path d="m 26.5,37.5 c -1.5,-1.5 -9.5,-11 -1,-19.5 7,-7 7.5,-12 5,-15 0,0 17.5,7 7.5,24 -2,3 -6,6.5 -4,13 z"/>
	<path d="m 37,39.75 c -0.5,-1.25 -2,-4.25 3,-10.25 3,-3.5 3.5,-8 4,-10 0,0 9,5 0.25,17.75 z"/>
      </g>
    </symbol>

    <symbol id="Campground">
      <title>Campground</title>
      <path d="m 60,56.5 -24,-45.5 -24,45.5 -4.5,0 0,3.5 57,0 0,-3.5 z m -36.5,0 12.5,-24 12.5,24 z" style="stroke:none"/>
    </symbol>

    <symbol id="Campground_Inv">
      <title>Campground</title>
      <rect x="0.5" y="0.5" width="71" height="71" ry="6" style="stroke:white"/>
      <path d="m 60,56.5 -24,-45.5 -24,45.5 -4.5,0 0,3.5 57,0 0,-3.5 z m -36.5,0 12.5,-24 12.5,24 z" style="fill:white;stroke:none"/>
    </symbol>

    <symbol id="CanoeAccess">
      <title>CanoeAccess</title>
      <path d="m 6,56.5 c 2.5,0 5,-1.75 7.5,-1.75 2.5,0 5,1.75 7.5,1.75 2.5,0 5,-1.75 7.5,-1.75 2.5,0 5,1.75 7.5,1.75 2.5,0 5,-1.75 7.5,-1.75 2.5,0 5,1.75 7.5,1.75 2.5,0 5,-1.75 7.5,-1.75 2.5,0 5,1.75 7.5,1.75 l 0,5.5 c -2.5,0 -5,-1.75 -7.5,-1.75 -2.5,0 -5,1.75 -7.5,1.75 -2.5,0 -5,-1.75 -7.5,-1.75 -2.5,0 -5,1.75 -7.5,1.75 -2.5,0 -5,-1.75 -7.5,-1.75 -2.5,0 -5,1.75 -7.5,1.75 -2.5,0 -5,-1.75 -7.5,-1.75 -2.5,0 -5,1.75 -7.5,1.75 z" style="stroke:none"/>
      <path d="m 6,51 c 2.5,0 5,-1.75 7.5,-1.75 2.5,0 5,1.75 7.5,1.75 2.5,0 5,-1.75 7.5,-1.75 2.5,0 5,1.75 7.5,1.75 2.5,0 5,-1.75 7.5,-1.75 2.5,0 5,1.75 7.5,1.75 2.5,0 5,-1.75 7.5,-1.75 1.126762,0 2.375,0.375 3.375,0.75 1.625,-1.75 2.75,-4.5 2.75,-7 0,-5.5 -4.625,-10 -10.125,-10 l -1.25,0.125 c -1.25,4.875 -6.25,5.25 -6.25,5.25 l -23.25,0 -1.875,-1.125 4.625,-7.875 5.25,3 c 3,1.875 4.5,-0.875 4.5,-0.875 l 5.25,-8.375 c 2.125,-3.625 -2.5,-6.5 -4.75,-2.875 l -3.625,5.875 -8.5,-4.75 c -5.875,-3.25 -8.5,2.125 -8.5,2.125 l -6.625,11.5 c -1.125,2.375 -0.25,3.375 -0.25,3.375 l -3.25,0 0,12.625" style="stroke:none"/>
      <circle cx="27" cy="14.625" r="5.5" style="stroke:none"/>
    </symbol>

    <symbol id="CanoeAccess_Inv">
      <title>CanoeAccess</title>
      <rect x="0.5" y="0.5" width="71" height="71" ry="6" style="stroke:white"/>
      <path d="m 6,56.5 c 2.5,0 5,-1.75 7.5,-1.75 2.5,0 5,1.75 7.5,1.75 2.5,0 5,-1.75 7.5,-1.75 2.5,0 5,1.75 7.5,1.75 2.5,0 5,-1.75 7.5,-1.75 2.5,0 5,1.75 7.5,1.75 2.5,0 5,-1.75 7.5,-1.75 2.5,0 5,1.75 7.5,1.75 l 0,5.5 c -2.5,0 -5,-1.75 -7.5,-1.75 -2.5,0 -5,1.75 -7.5,1.75 -2.5,0 -5,-1.75 -7.5,-1.75 -2.5,0 -5,1.75 -7.5,1.75 -2.5,0 -5,-1.75 -7.5,-1.75 -2.5,0 -5,1.75 -7.5,1.75 -2.5,0 -5,-1.75 -7.5,-1.75 -2.5,0 -5,1.75 -7.5,1.75 z" style="fill:white;stroke:none"/>
      <path d="m 6,51 c 2.5,0 5,-1.75 7.5,-1.75 2.5,0 5,1.75 7.5,1.75 2.5,0 5,-1.75 7.5,-1.75 2.5,0 5,1.75 7.5,1.75 2.5,0 5,-1.75 7.5,-1.75 2.5,0 5,1.75 7.5,1.75 2.5,0 5,-1.75 7.5,-1.75 1.126762,0 2.375,0.375 3.375,0.75 1.625,-1.75 2.75,-4.5 2.75,-7 0,-5.5 -4.625,-10 -10.125,-10 l -1.25,0.125 c -1.25,4.875 -6.25,5.25 -6.25,5.25 l -23.25,0 -1.875,-1.125 4.625,-7.875 5.25,3 c 3,1.875 4.5,-0.875 4.5,-0.875 l 5.25,-8.375 c 2.125,-3.625 -2.5,-6.5 -4.75,-2.875 l -3.625,5.875 -8.5,-4.75 c -5.875,-3.25 -8.5,2.125 -8.5,2.125 l -6.625,11.5 c -1.125,2.375 -0.25,3.375 -0.25,3.375 l -3.25,0 0,12.625" style="fill:white;stroke:none"/>
      <circle cx="27" cy="14.625" r="5.5" style="fill:white;stroke:none"/>
    </symbol>

    <symbol id="CrosscountrySkiTrail">
      <title>Crosscountry Ski Trail</title>
      <g style="stroke:none">
	<path d="m 66,60 c 0,1.5 -1.5,3 -3,3 l -48,0 0,2 48,0 c 2.5,0 5,-2 5,-5 z"/>
	<path d="m 5,41 0,3 15,14.75 c 1.75,1.75 4.5,-0.375 4.5,-0.375 l -1.25,-1.625 c 0,0 -1.5,1 -2.25,0.25 z"/>
	<path d="m 66,22 1.75,0.75 -18.5,37.5 -2.25,0 z"/>
	<path d="m 21.5,26.5 -16.5,0 0,2 16.5,0 z"/>
	<path d="m 35,19 -7.5,8.5 c -2.25,2.5 -5.75,-0.75 -3.5,-3.25 l 8,-9.25 c 0.75,-0.75 1.25,-1 2,-1 l 11.75,0 c 1,0 1.75,0.5 2.25,1 l 7.5,7.25 6,-6 c 2.25,-2.25 5.75,1.125 3.5,3.5 l -7.25,7.5 c -2.25,2.25 -4,0.5 -4,0.5 l -4.75,-4.75 -7.25,8.25 6.75,6.75 c 0,0 1.25,1 0.5,3.5 l -3.75,16.75 c -1,4.375 -7,2.875 -6,-1.5 l 3,-13.5 -7.5,-7.25 -6.25,7.125 c -0.5,0.625 -1.5,1.125 -4,1.125 l -12.875,0 c -4.625,0 -4.625,-6.25 -0.125,-6.25 l 11.25,0 16.5,-19 z"/>
	<circle cx="51.625" cy="10.5" r="4.75"/>
      </g>
    </symbol>

    <symbol id="CrosscountrySkiTrail_Inv">
      <title>Crosscountry Ski Trail</title>
      <rect x="0.5" y="0.5" width="71" height="71" ry="6" style="stroke:white"/>
      <g style="fill:white;stroke:none">
	<path d="m 66,60 c 0,1.5 -1.5,3 -3,3 l -48,0 0,2 48,0 c 2.5,0 5,-2 5,-5 z"/>
	<path d="m 5,41 0,3 15,14.75 c 1.75,1.75 4.5,-0.375 4.5,-0.375 l -1.25,-1.625 c 0,0 -1.5,1 -2.25,0.25 z"/>
	<path d="m 66,22 1.75,0.75 -18.5,37.5 -2.25,0 z"/>
	<path d="m 21.5,26.5 -16.5,0 0,2 16.5,0 z"/>
	<path d="m 35,19 -7.5,8.5 c -2.25,2.5 -5.75,-0.75 -3.5,-3.25 l 8,-9.25 c 0.75,-0.75 1.25,-1 2,-1 l 11.75,0 c 1,0 1.75,0.5 2.25,1 l 7.5,7.25 6,-6 c 2.25,-2.25 5.75,1.125 3.5,3.5 l -7.25,7.5 c -2.25,2.25 -4,0.5 -4,0.5 l -4.75,-4.75 -7.25,8.25 6.75,6.75 c 0,0 1.25,1 0.5,3.5 l -3.75,16.75 c -1,4.375 -7,2.875 -6,-1.5 l 3,-13.5 -7.5,-7.25 -6.25,7.125 c -0.5,0.625 -1.5,1.125 -4,1.125 l -12.875,0 c -4.625,0 -4.625,-6.25 -0.125,-6.25 l 11.25,0 16.5,-19 z"/>
	<circle cx="51.625" cy="10.5" r="4.75"/>
      </g>
    </symbol>

    <symbol id="DownhillSkiing">
      <title>Downhill Skiing</title>
      <g style="stroke:none">
	<path d="m 57.25,64.25 c 2.5,1.5 5.25,0.75 6.75,-1.5 l -1.75,-1 c -1,1.5 -2.5,1.75 -4,1 l -50.75,-29.75 -1,1.5 z"/>
	<path d="m 39,11.25 c -5.75,-3.5 -11.25,1.75 -10,6.75 l 3.5,11.25 -10.25,3.25 c -4.25,1.5 -2.25,8.5 2.5,6.75 l 13.75,-4.5 c 2,-0.75 3,-2.25 2.5,-3.75 l -2,-7.5 8.25,4.75 1,7.25 c 0.25,1.25 0.25,1.75 1.25,2.5 l 11,6.5 c 3,1.75 5.5,-2.5 2.5,-4.25 l -8.5,-5 -1,-13 c -0.25,-2 -0.75,-2.75 -2,-3.75 z"/>
	<circle cx="59.75" cy="24.75" r="4.75"/>
      </g>
    </symbol>

    <symbol id="DownhillSkiing_Inv">
      <title>Downhill Skiing</title>
      <rect x="0.5" y="0.5" width="71" height="71" ry="6" style="stroke:white"/>
      <g style="fill:white;stroke:none">
	<path d="m 57.25,64.25 c 2.5,1.5 5.25,0.75 6.75,-1.5 l -1.75,-1 c -1,1.5 -2.5,1.75 -4,1 l -50.75,-29.75 -1,1.5 z"/>
	<path d="m 39,11.25 c -5.75,-3.5 -11.25,1.75 -10,6.75 l 3.5,11.25 -10.25,3.25 c -4.25,1.5 -2.25,8.5 2.5,6.75 l 13.75,-4.5 c 2,-0.75 3,-2.25 2.5,-3.75 l -2,-7.5 8.25,4.75 1,7.25 c 0.25,1.25 0.25,1.75 1.25,2.5 l 11,6.5 c 3,1.75 5.5,-2.5 2.5,-4.25 l -8.5,-5 -1,-13 c -0.25,-2 -0.75,-2.75 -2,-3.75 z"/>
	<circle cx="59.75" cy="24.75" r="4.75"/>
      </g>
    </symbol>

    <symbol id="DrinkingWater">
      <title>Drinking Water</title>
      <path d="m 22.5,61.5 -8,-50.5 5.5,0 7,45.5 18,0 7,-45.5 5.5,0 -8,50.5 z" style="stroke:none"/>
      <path d="m 48,20 c -0.5,0.5 -2,1 -3.5,1 -1.5,0 -3,-0.5 -4,-2 -1,1.5 -3,2 -4.5,2 -1.5,0 -3.5,-0.5 -4.3362,-2.1243 C 30.5,20.5 29,21 27.5,21 26,21 24.5,20.5 24,20 l -1,-5.5 c 1,1.5 2.5,2.5 4.5,2.5 2,0 3,-1 4,-2.5 1,1.5 2.7042,2.5 4.5,2.5 1.8104,0 3.5,-1 4.5,-2.5 1,1.5 2,2.5 4,2.5 2,0 3.5,-1 4.5,-2.5 z" style="stroke:none"/>
    </symbol>

    <symbol id="DrinkingWater_Inv">
      <title>Drinking Water</title>
      <rect x="0.5" y="0.5" width="71" height="71" ry="6" style="stroke:white"/>
      <path d="m 22.5,61.5 -8,-50.5 5.5,0 7,45.5 18,0 7,-45.5 5.5,0 -8,50.5 z" style="fill:white;stroke:none"/>
      <path d="m 48,20 c -0.5,0.5 -2,1 -3.5,1 -1.5,0 -3,-0.5 -4,-2 -1,1.5 -3,2 -4.5,2 -1.5,0 -3.5,-0.5 -4.3362,-2.1243 C 30.5,20.5 29,21 27.5,21 26,21 24.5,20.5 24,20 l -1,-5.5 c 1,1.5 2.5,2.5 4.5,2.5 2,0 3,-1 4,-2.5 1,1.5 2.7042,2.5 4.5,2.5 1.8104,0 3.5,-1 4.5,-2.5 1,1.5 2,2.5 4,2.5 2,0 3.5,-1 4.5,-2.5 z" style="fill:white;stroke:none"/>
    </symbol>

    <symbol id="FirstAid">
      <title>First Aid</title>
      <path d="m 44,13 0,15 15,0 0,16 -15,0 0,15 -16,0 0,-15 -15,0 0,-16 15,0 0,-15 z" style="stroke:none"/>
    </symbol>

    <symbol id="FirstAid_Inv">
      <title>First Aid</title>
      <rect x="0.5" y="0.5" width="71" height="71" ry="6" style="stroke:white"/>
      <path d="m 44,13 0,15 15,0 0,16 -15,0 0,15 -16,0 0,-15 -15,0 0,-16 15,0 0,-15 z" style="fill:white;stroke:none"/>
    </symbol>

    <symbol id="Fishing">
      <title>Fishing</title>
      <path d="m 65,62 c -14,0 -29,-2.5 -39.75,-11.375 -0.25,-0.25 -0.125,-0.625 0.25,-0.625 l 11,0 c 0.5,0 1,-0.5 1,-1 0,-0.5 -0.25,-0.75 -0.75,-1 l -10,-4.75 c -0.25,-0.25 -0.25,-0.75 0,-1 0,0 12.325,-10.5 38.25,-10.25 z m -23.5,-17 a 2.375,2.375 0 0 0 0,-4.75 2.375,2.375 0 0 0 0,4.75 z" style="stroke:none"/>
      <path d="m 33,20.25 a 2.5,2.5 0 0 0 -3.5,3.25 l -14.25,13.25 a 3.05,3.05 0 1 1 -3.25,-5 l 0.25,2.25 5.25,-6.75 -5.75,2 a 5.4,5.4 0 1 0 5.25,9 l 14,-13.25 a 2.5,2.5 0 0 0 3.5,-3.25 c 9.5,-7.5 17.5,-11 25,-11 1.5,0 3.5,0.25 5.5,0.75 l 0,-2 c -2,-0.5 -4,-0.75 -5.5,-0.75 -8.5,0 -17,3.75 -26.5,11.5 z" style="stroke:none"/>
    </symbol>

    <symbol id="Fishing_Inv">
      <title>Fishing</title>
      <rect x="0.5" y="0.5" width="71" height="71" ry="6" style="stroke:white"/>
      <path d="m 65,62 c -14,0 -29,-2.5 -39.75,-11.375 -0.25,-0.25 -0.125,-0.625 0.25,-0.625 l 11,0 c 0.5,0 1,-0.5 1,-1 0,-0.5 -0.25,-0.75 -0.75,-1 l -10,-4.75 c -0.25,-0.25 -0.25,-0.75 0,-1 0,0 12.325,-10.5 38.25,-10.25 z m -23.5,-17 a 2.375,2.375 0 0 0 0,-4.75 2.375,2.375 0 0 0 0,4.75 z" style="fill:white;stroke:none"/>
      <path d="m 33,20.25 a 2.5,2.5 0 0 0 -3.5,3.25 l -14.25,13.25 a 3.05,3.05 0 1 1 -3.25,-5 l 0.25,2.25 5.25,-6.75 -5.75,2 a 5.4,5.4 0 1 0 5.25,9 l 14,-13.25 a 2.5,2.5 0 0 0 3.5,-3.25 c 9.5,-7.5 17.5,-11 25,-11 1.5,0 3.5,0.25 5.5,0.75 l 0,-2 c -2,-0.5 -4,-0.75 -5.5,-0.75 -8.5,0 -17,3.75 -26.5,11.5 z" style="fill:white;stroke:none"/>
    </symbol>

    <symbol id="FoodService">
      <title>Food Service</title>
      <g style="stroke:none">
	<path d="m 30,30 0,33 a 3,3 0 0 1 -6,0 L 24,30 A 4,4 0 0 1 20,26 L 20,8 a 1,1 0 0 1 2,0 l 0,14 2,0 0,-14 a 1,1 0 0 1 2,0 l 0,14 2,0 0,-14 a 1,1 0 0 1 2,0 l 0,14 2,0 0,-14 a 1,1 0 0 1 2,0 l 0,18 a 4,4 0 0 1 -4,4 z"/>
	<path d="m 50,63 a 3,3 0 0 1 -6,0 l 0,-20 -3,0 0,-31.5 a 4.5,4.5 0 0 1 9,0 z"/>
      </g>
    </symbol>

    <symbol id="FoodService_Inv">
      <title>Food Service</title>
      <rect x="0.5" y="0.5" width="71" height="71" ry="6" style="stroke:white"/>
      <g style="fill:white;stroke:none">
	<path d="m 30,30 0,33 a 3,3 0 0 1 -6,0 L 24,30 A 4,4 0 0 1 20,26 L 20,8 a 1,1 0 0 1 2,0 l 0,14 2,0 0,-14 a 1,1 0 0 1 2,0 l 0,14 2,0 0,-14 a 1,1 0 0 1 2,0 l 0,14 2,0 0,-14 a 1,1 0 0 1 2,0 l 0,18 a 4,4 0 0 1 -4,4 z"/>
	<path d="m 50,63 a 3,3 0 0 1 -6,0 l 0,-20 -3,0 0,-31.5 a 4.5,4.5 0 0 1 9,0 z"/>
      </g>
    </symbol>

    <symbol id="FourWheelDriveRoad">
      <title>Four Wheel Drive Road</title>
      <path d="m 64.5,37.75 0,-7.25 c 0,-2 -1.5,-2.5 -2.5,-2.5 l -14.25,0 -5.25,-8.75 -3,0 5.25,8.75 -4,6.75 -9.25,0 c -3,-6.25 -9.5,-6 -9.5,-6 l -17,0 0,15.25 2.5,0 a 10.6,10.6 0 0 1 21,0 l 15,0 a 10.6,10.6 0 0 1 21,0 l 1,0 c 1,0 1.75,-0.75 1.75,-1.75 l 0,-4.5 z" style="stroke:none"/>
      <g style="fill:none;stroke-width:4">
	<circle cx="18" cy="45.375" r="5"/>
	<circle cx="54" cy="45.375" r="5"/>
      </g>
    </symbol>

    <symbol id="FourWheelDriveRoad_Inv">
      <title>Four Wheel Drive Road</title>
      <rect x="0.5" y="0.5" width="71" height="71" ry="6" style="stroke:white"/>
      <path d="m 64.5,37.75 0,-7.25 c 0,-2 -1.5,-2.5 -2.5,-2.5 l -14.25,0 -5.25,-8.75 -3,0 5.25,8.75 -4,6.75 -9.25,0 c -3,-6.25 -9.5,-6 -9.5,-6 l -17,0 0,15.25 2.5,0 a 10.6,10.6 0 0 1 21,0 l 15,0 a 10.6,10.6 0 0 1 21,0 l 1,0 c 1,0 1.75,-0.75 1.75,-1.75 l 0,-4.5 z" style="fill:white;stroke:none"/>
      <g style="fill:none;stroke:white;stroke-width:4">
	<circle cx="18" cy="45.375" r="5"/>
	<circle cx="54" cy="45.375" r="5"/>
      </g>
    </symbol>

    <symbol id="GasStation">
      <title>Gas Station</title>
      <path d="m 19,63 0,-49 c 0,-2 2,-4 4,-4 l 14,0 c 2,0 4,2 4,4 l 0,18 4,0 c 2.5,0 5,2.5 5,5 l 0,20.5 c 0,1.5 1,2.5 2.5,2.5 1.5,0 3.25,-1 3.25,-3 l -2,-12.25 -0.75,-3.75 0.5,-12.25 -1.25,0 c -2.25,0 -4,-2.125 -4,-4 l 0.25,-6.25 -3.5,-3.875 2,-1.625 7.25,7.25 c 1.25,1.25 1.75,2.5 1.75,4.25 l 0,16.5 0.5,3.5 2.25,13 c 0,3.25 -3.5,5.5 -6.25,5.5 -2.5,0 -5.5,-2.5 -5.5,-5.5 l 0,-20.5 c 0,-1 -1,-2 -2,-2 l -4,0 0,28 -22,0 m 34,-36.25 0,-2.75 c 0,-1 -0.25,-1.625 -1,-1.75 -0.25,-0.25 -1.25,-0.25 -1.25,-0.25 l 0,3 c 0,1 0.5,1.25 2.25,1.75 z m -15,-12.25 c 0,-1 -0.5,-1.5 -1.375,-1.5 l -13.125,0 c -1,0 -1.5,0.5 -1.5,1.5 l 0,10.5 c 0,1 0.5,1.5 1.5,1.5 l 13,0 c 1,0 1.5,-0.5 1.5,-1.5 z" style="stroke:none"/>
    </symbol>

    <symbol id="GasStation_Inv">
      <title>Gas Station</title>
      <rect x="0.5" y="0.5" width="71" height="71" ry="6" style="stroke:white"/>
      <path d="m 19,63 0,-49 c 0,-2 2,-4 4,-4 l 14,0 c 2,0 4,2 4,4 l 0,18 4,0 c 2.5,0 5,2.5 5,5 l 0,20.5 c 0,1.5 1,2.5 2.5,2.5 1.5,0 3.25,-1 3.25,-3 l -2,-12.25 -0.75,-3.75 0.5,-12.25 -1.25,0 c -2.25,0 -4,-2.125 -4,-4 l 0.25,-6.25 -3.5,-3.875 2,-1.625 7.25,7.25 c 1.25,1.25 1.75,2.5 1.75,4.25 l 0,16.5 0.5,3.5 2.25,13 c 0,3.25 -3.5,5.5 -6.25,5.5 -2.5,0 -5.5,-2.5 -5.5,-5.5 l 0,-20.5 c 0,-1 -1,-2 -2,-2 l -4,0 0,28 -22,0 m 34,-36.25 0,-2.75 c 0,-1 -0.25,-1.625 -1,-1.75 -0.25,-0.25 -1.25,-0.25 -1.25,-0.25 l 0,3 c 0,1 0.5,1.25 2.25,1.75 z m -15,-12.25 c 0,-1 -0.5,-1.5 -1.375,-1.5 l -13.125,0 c -1,0 -1.5,0.5 -1.5,1.5 l 0,10.5 c 0,1 0.5,1.5 1.5,1.5 l 13,0 c 1,0 1.5,-0.5 1.5,-1.5 z" style="fill:white;stroke:none"/>
    </symbol>

    <symbol id="Golfing">
      <title>Golfing</title>
      <path d="m 54.5,22.75 -27.75,-18.25 -2.5,3.5 c -1.375,2 1.375,3.75 2.625,1.75 l 1.375,-2 22.5,15 -18.25,3.25 c -1.5,0.25 -2.25,1.5 -2,2.75 l 4,15.5 -13,19.5 c -1.75,2.75 2.5,6 4.75,2.75 l 13.75,-20.5 0.75,2.75 -2.25,15.25 c -0.5,4 5,4.5 5.5,1 l 2.25,-15.5 c 0.125,-0.75 -0.25,-2 -0.25,-2 l -4.5,-18.25 12,-2 c 2.125,-0.5 2.75,-3 1,-4.5 z" style="stroke:none"/>
      <circle cx="31.5" cy="19.75" r="4.75" style="stroke:none"/>
    </symbol>

    <symbol id="Golfing_Inv">
      <title>Golfing</title>
      <rect x="0.5" y="0.5" width="71" height="71" ry="6" style="stroke:white"/>
      <path d="m 54.5,22.75 -27.75,-18.25 -2.5,3.5 c -1.375,2 1.375,3.75 2.625,1.75 l 1.375,-2 22.5,15 -18.25,3.25 c -1.5,0.25 -2.25,1.5 -2,2.75 l 4,15.5 -13,19.5 c -1.75,2.75 2.5,6 4.75,2.75 l 13.75,-20.5 0.75,2.75 -2.25,15.25 c -0.5,4 5,4.5 5.5,1 l 2.25,-15.5 c 0.125,-0.75 -0.25,-2 -0.25,-2 l -4.5,-18.25 12,-2 c 2.125,-0.5 2.75,-3 1,-4.5 z" style="fill:white;stroke:none"/>
      <circle cx="31.5" cy="19.75" r="4.75" style="fill:white;stroke:none"/>
    </symbol>

    <symbol id="HorsebackRiding">
      <title>Horseback Riding</title>
      <path d="m 7,34.75 a 6,6 0 0 1 6,-6 l 13,0 0,-9.5 a 4,4 0 0 1 8,0 l 0,1.625 6.25,1.625 c 1,0.25 1.75,1.25 1.5,2.25 -0.25,1 -1.25,1.75 -2.5,1.5 l -5.25,-1.25 0,3.75 6.25,0 17,-17.625 -0.5,4.625 8.25,5.5 c 1.375,0.875 1.875,2.5 1,4 -0.625,1.125 -1.875,1.625 -3,1.375 l -0.625,-0.125 c -0.75,3.25 -3.625,5.5 -7.125,5.5 -0.75,0 -1.375,0 -2,-0.25 l -6.25,12.75 0,17.75 a 2.75,2.75 0 0 1 -5.5,0 l 0,-18 -14,0 -2.5,4.25 5.5,12.75 a 2.75,2.75 0 0 1 -5,2.25 l -6,-14.125 0,-4.625 -2.7625,4.2557 0.0125,13.2443 a 2.75,2.75 0 0 1 -5.5,0 l 0,-15.25 2.25,-3.5 0,-12.125 -2.25,3.375 0,10 -4.25,0 z m 49.5,-9.5 -2.5,5.125 c 0.5,0.125 0.75,0.125 1.25,0.125 2.75,0 5,-2 5.625,-4.375 z" style="stroke:none"/>
      <circle cx="30" cy="10" r="4" style="stroke:none"/>
    </symbol>

    <symbol id="HorsebackRiding_Inv">
      <title>Horseback Riding</title>
      <rect x="0.5" y="0.5" width="71" height="71" ry="6" style="stroke:white"/>
      <path d="m 7,34.75 a 6,6 0 0 1 6,-6 l 13,0 0,-9.5 a 4,4 0 0 1 8,0 l 0,1.625 6.25,1.625 c 1,0.25 1.75,1.25 1.5,2.25 -0.25,1 -1.25,1.75 -2.5,1.5 l -5.25,-1.25 0,3.75 6.25,0 17,-17.625 -0.5,4.625 8.25,5.5 c 1.375,0.875 1.875,2.5 1,4 -0.625,1.125 -1.875,1.625 -3,1.375 l -0.625,-0.125 c -0.75,3.25 -3.625,5.5 -7.125,5.5 -0.75,0 -1.375,0 -2,-0.25 l -6.25,12.75 0,17.75 a 2.75,2.75 0 0 1 -5.5,0 l 0,-18 -14,0 -2.5,4.25 5.5,12.75 a 2.75,2.75 0 0 1 -5,2.25 l -6,-14.125 0,-4.625 -2.7625,4.2557 0.0125,13.2443 a 2.75,2.75 0 0 1 -5.5,0 l 0,-15.25 2.25,-3.5 0,-12.125 -2.25,3.375 0,10 -4.25,0 z m 49.5,-9.5 -2.5,5.125 c 0.5,0.125 0.75,0.125 1.25,0.125 2.75,0 5,-2 5.625,-4.375 z" style="fill:white;stroke:none"/>
      <circle cx="30" cy="10" r="4" style="fill:white;stroke:none"/>
    </symbol>

    <symbol id="Hospital">
      <title>Hospital</title>
      <path d="m 45.5,13.5 0,15 -19,0 0,-15 -10,0 0,45 10,0 0,-20 19,0 0,20 10,0 0,-45 z" style="stroke:none"/>
    </symbol>

    <symbol id="Hospital_Inv">
      <title>Hospital</title>
      <rect x="0.5" y="0.5" width="71" height="71" ry="6" style="stroke:white"/>
      <path d="m 45.5,13.5 0,15 -19,0 0,-15 -10,0 0,45 10,0 0,-20 19,0 0,20 10,0 0,-45 z" style="fill:white;stroke:none"/>
    </symbol>

    <symbol id="IceSkating">
      <title>Ice Skating</title>
      <g style="stroke:none">
	<path d="m 41,61.5 13,0 c 0.625,0 1,-0.25 1,-1 l 0,-1 2,0 c 0,3 -1,4 -2.25,4 l -13.75,0 z"/>
	<path d="m 8.75,51.75 9.25,9.25 c 0.375,0.375 0.75,0.5 1.25,0 l 0.75,-0.75 1.375,1.375 c -2,2 -3.5,2 -4.25,1.25 l -9.75,-9.75 z"/>
	<path d="m 30.5,37.25 -15,14.875 c -3.02521,3 1.25,7.25 4.25,4.25 l 15,-15 z"/>
	<path d="m 33,37 c -1,-1 -1.75,-2.5 -1.75,-4 0,-1.5 0.5,-3 1.5,-4 l 7.5,-7.5 -17.75,0 a 2.5,2.5 0 0 1 0,-5 l 25.5,0 c 1,0 3.5,0.75 4.5,3.25 0.625,1.5 0.5,3.75 -0.75,5 l -10,10 7.75,7.75 c 0.5,0.5 0.75,1 0.75,2 l 0,13 a 3,3 0 0 1 -6,0 l 0,-9.25 z"/>
	<circle cx="55.25" cy="13.25" r="5"/>
      </g>
    </symbol>

    <symbol id="IceSkating_Inv">
      <title>Ice Skating</title>
      <rect x="0.5" y="0.5" width="71" height="71" ry="6" style="stroke:white"/>
      <g style="fill:white;stroke:none">
	<path d="m 41,61.5 13,0 c 0.625,0 1,-0.25 1,-1 l 0,-1 2,0 c 0,3 -1,4 -2.25,4 l -13.75,0 z"/>
	<path d="m 8.75,51.75 9.25,9.25 c 0.375,0.375 0.75,0.5 1.25,0 l 0.75,-0.75 1.375,1.375 c -2,2 -3.5,2 -4.25,1.25 l -9.75,-9.75 z"/>
	<path d="m 30.5,37.25 -15,14.875 c -3.02521,3 1.25,7.25 4.25,4.25 l 15,-15 z"/>
	<path d="m 33,37 c -1,-1 -1.75,-2.5 -1.75,-4 0,-1.5 0.5,-3 1.5,-4 l 7.5,-7.5 -17.75,0 a 2.5,2.5 0 0 1 0,-5 l 25.5,0 c 1,0 3.5,0.75 4.5,3.25 0.625,1.5 0.5,3.75 -0.75,5 l -10,10 7.75,7.75 c 0.5,0.5 0.75,1 0.75,2 l 0,13 a 3,3 0 0 1 -6,0 l 0,-9.25 z"/>
	<circle cx="55.25" cy="13.25" r="5"/>
      </g>
    </symbol>

    <symbol id="Information">
      <title>Information</title>
      <circle cx="36" cy="36" r="24" style="fill:none;stroke-width:6"/>
      <path d="m 27,32 c 0,-5 1,-11 9,-11 4,0 8,3 8,7 0,4 -2,6 -4,7 -2,1 -4,2 -4,5 0,3 0,6 0,6" style="fill:none;stroke-width:6"/>
      <rect x="33" y="48" width="6" height="6" style="stroke:none"/>
    </symbol>

    <symbol id="Information_Inv">
      <title>Information</title>
      <rect x="0.5" y="0.5" width="71" height="71" ry="6" style="stroke:white"/>
      <circle cx="36" cy="36" r="24" style="fill:none;stroke:white;stroke-width:6"/>
      <path d="m 27,32 c 0,-5 1,-11 9,-11 4,0 8,3 8,7 0,4 -2,6 -4,7 -2,1 -4,2 -4,5 0,3 0,6 0,6" style="fill:none;stroke:white;stroke-width:6"/>
      <rect x="33" y="48" width="6" height="6" style="fill:white;stroke:none"/>
    </symbol>

    <symbol id="LitterReceptacle">
      <title>Litter Receptacle</title>
      <g id="TrashCan" style="stroke:none">
	<path d="m 29.5,66 4.5,-24.5 -3.5,0 -4,21 -9,0 -3.5,-21 -3.5,0 4,24.5 z"/>
	<rect x="20" y="46" width="3.75" height="3.75"/>
	<rect x="-14.5" y="43.5" width="3.75" height="3.75" transform="matrix(0.707,-0.707,0.707,0.707,0,0)"/>
	<rect x="-12" y="37" width="3.75" height="3.75" transform="matrix(0.707,-0.707,0.707,0.707,0,0)"/>
      </g>
      <path d="m 40,20.5 c 1,-1.5 2.5,-2.5 5,-2.5 l 11,0 c 4,0 7,2.75 7,6 l 0,15 a 2,2 0 0 1 -4,0 l 0,-15 -2.5,0 0,39.25 a 2.75,2.75 0 0 1 -5.5,0 l 0,-22.25 -3,0 0,22.25 a 2.75,2.75 0 0 1 -5.5,0 l 0,-39.25 -5,7.25 c -0.375,0.5 -1,0.75 -1.5,0.75 l -8.5,0 a 2,2 0 0 1 0,-4 l 7.5,0 z" style="stroke:none"/>
      <circle cx="49.5" cy="11.5" r="4.75" style="stroke:none"/>
    </symbol>

    <symbol id="LitterReceptacle_Inv">
      <title>Litter Receptacle</title>
      <rect x="0.5" y="0.5" width="71" height="71" ry="6" style="stroke:white"/>
      <g id="TrashCan" style="fill:white;stroke:none">
	<path d="m 29.5,66 4.5,-24.5 -3.5,0 -4,21 -9,0 -3.5,-21 -3.5,0 4,24.5 z"/>
	<rect x="20" y="46" width="3.75" height="3.75"/>
	<rect x="-14.5" y="43.5" width="3.75" height="3.75" transform="matrix(0.707,-0.707,0.707,0.707,0,0)"/>
	<rect x="-12" y="37" width="3.75" height="3.75" transform="matrix(0.707,-0.707,0.707,0.707,0,0)"/>
      </g>
      <path d="m 40,20.5 c 1,-1.5 2.5,-2.5 5,-2.5 l 11,0 c 4,0 7,2.75 7,6 l 0,15 a 2,2 0 0 1 -4,0 l 0,-15 -2.5,0 0,39.25 a 2.75,2.75 0 0 1 -5.5,0 l 0,-22.25 -3,0 0,22.25 a 2.75,2.75 0 0 1 -5.5,0 l 0,-39.25 -5,7.25 c -0.375,0.5 -1,0.75 -1.5,0.75 l -8.5,0 a 2,2 0 0 1 0,-4 l 7.5,0 z" style="fill:white;stroke:none"/>
      <circle cx="49.5" cy="11.5" r="4.75" style="fill:white;stroke:none"/>
    </symbol>

    <symbol id="Lodging">
      <title>Lodging</title>
      <g style="stroke:none">
	<path d="m 12.5,42.25 0,8.75 -4.5,0 0,-31.5 a 2.25,2.25 0 0 1 4.5,0 l 0,18.5 51.5,0 0,13 -4.5,0 0,-8.625 z"/>
	<path d="m 17.75,34.75 a 2,2 0 0 1 0,-4 l 8.5,0 0,-6.25 c 0,-1 0.75,-2 2,-2 l 32.5,3.25 c 1.75,0.25 3.25,1.75 3.25,3.25 l 0,5.75 z"/>
	<circle cx="19.625" cy="24.375" r="4.125"/>
      </g>
    </symbol>

    <symbol id="Lodging_Inv">
      <title>Lodging</title>
      <rect x="0.5" y="0.5" width="71" height="71" ry="6" style="stroke:white"/>
      <g style="fill:white;stroke:none">
	<path d="m 12.5,42.25 0,8.75 -4.5,0 0,-31.5 a 2.25,2.25 0 0 1 4.5,0 l 0,18.5 51.5,0 0,13 -4.5,0 0,-8.625 z"/>
	<path d="m 17.75,34.75 a 2,2 0 0 1 0,-4 l 8.5,0 0,-6.25 c 0,-1 0.75,-2 2,-2 l 32.5,3.25 c 1.75,0.25 3.25,1.75 3.25,3.25 l 0,5.75 z"/>
	<circle cx="19.625" cy="24.375" r="4.125"/>
      </g>
    </symbol>

    <symbol id="Marina">
      <title>Marina</title>
      <path d="m 36,65 c -10,0 -18.5,-6.5 -21.75,-15.75 l -1.75,0.625 c -1.875,0.5 -3.25,-0.875 -3,-2.625 l 1.75,-11 c 0.25,-1.5 2.25,-2.5 3.75,-1 l 8,7.5 c 1.25,1 1,3.5 -0.75,4 l -2,0.75 c 2,5.5 6.75,9.75 12.75,10.75 l 0,-35.5 a 8,8 0 1 1 6,0 l 0,35.5 c 6,-1 10.75,-5.25 12.75,-10.75 l -2,-0.75 c -1.75,-0.5 -2,-3 -0.75,-4 l 8,-7.5 c 1.5,-1.5 3.5,-0.5 3.75,1 l 1.75,11 c 0.25,1.75 -1.125,3.125 -3,2.625 l -1.75,-0.625 c -3.25,9.25 -11.75,15.75 -21.75,15.75 z m 0,-46.5 a 3.25,3.25 0 0 0 0,-6.5 3.25,3.25 0 0 0 0,6.5 z" style="stroke:none"/>
    </symbol>

    <symbol id="Marina_Inv">
      <title>Marina</title>
      <rect x="0.5" y="0.5" width="71" height="71" ry="6" style="stroke:white"/>
      <path d="m 36,65 c -10,0 -18.5,-6.5 -21.75,-15.75 l -1.75,0.625 c -1.875,0.5 -3.25,-0.875 -3,-2.625 l 1.75,-11 c 0.25,-1.5 2.25,-2.5 3.75,-1 l 8,7.5 c 1.25,1 1,3.5 -0.75,4 l -2,0.75 c 2,5.5 6.75,9.75 12.75,10.75 l 0,-35.5 a 8,8 0 1 1 6,0 l 0,35.5 c 6,-1 10.75,-5.25 12.75,-10.75 l -2,-0.75 c -1.75,-0.5 -2,-3 -0.75,-4 l 8,-7.5 c 1.5,-1.5 3.5,-0.5 3.75,1 l 1.75,11 c 0.25,1.75 -1.125,3.125 -3,2.625 l -1.75,-0.625 c -3.25,9.25 -11.75,15.75 -21.75,15.75 z m 0,-46.5 a 3.25,3.25 0 0 0 0,-6.5 3.25,3.25 0 0 0 0,6.5 z" style="fill:white;stroke:none"/>
    </symbol>

    <symbol id="MotorBikeTrail">
      <title>Motorbike Trail</title>
      <g style="stroke:none">
	<path d="m 36.625,26.25 6.125,0 a 1.75,1.75 0 0 1 0,3.5 l -7.25,0 c -0.75,0 -1.625,-0.25 -2.25,-1.25 l -2.75,-4.25 -5.25,8 7.25,3.75 c 2,1 2,2.5 2,3.5 l 0,13.5 a 2.75,2.75 0 0 1 -5.5,0 l 0,-11 -11.5,-6.25 c -2,-1.25 -2.25,-3.75 -1.25,-5.25 l 8.5,-13 c 1.25,-1.875 4.5,-2.25 6,-0.25 z"/>
	<path d="m 26.5,43.75 0,2.5 -13.5,-7.5 c -2.5,-1.25 -5,-1 -7,0 -0.5,0.25 -1.25,-0.5 -0.5,-1.25 2.5,-2.125 6.5,-2 9,-0.5 z"/>
	<path d="m 40,53 c -0.75,0.75 -1.75,1.5 -3,1.5 l 0,-15.75 10.75,-3 2.75,5.25 z"/>
	<path d="m 55.875,42.625 -4.875,-9.875 c -0.75,-1.5 -2,-2.25 -3.5,-2.25 l -3.25,0 c -1.5,0 -1.5,2.25 0,2.25 l 3.25,0 c 0.5,0 1.25,0.5 1.5,1.25 l 4.625,9.375 z"/>
	<path d="m 61.5,36 c -2.75,-1.375 -5,-1 -6.75,0.75 l -1.25,-2.5 c 3,-1.25 6.5,-1.5 8.875,0.75 0.625,0.625 -0.125,1.375 -0.875,1 z"/>
	<path d="m 38.25,10 a 5,5 0 0 1 -9.25,3.75 l -2.75,0 a 7.25,7.25 0 1 1 14,-3.75 z"/>
      </g>
      <g style="fill:none;stroke-width:3">
	<circle cx="15.5" cy="54.25" r="8.75"/>
	<circle cx="58.25" cy="54.25" r="8.75"/>
      </g>
    </symbol>

    <symbol id="MotorBikeTrail_Inv">
      <title>Motorbike Trail</title>
      <rect x="0.5" y="0.5" width="71" height="71" ry="6" style="stroke:white"/>
      <g style="fill:white;stroke:none">
	<path d="m 36.625,26.25 6.125,0 a 1.75,1.75 0 0 1 0,3.5 l -7.25,0 c -0.75,0 -1.625,-0.25 -2.25,-1.25 l -2.75,-4.25 -5.25,8 7.25,3.75 c 2,1 2,2.5 2,3.5 l 0,13.5 a 2.75,2.75 0 0 1 -5.5,0 l 0,-11 -11.5,-6.25 c -2,-1.25 -2.25,-3.75 -1.25,-5.25 l 8.5,-13 c 1.25,-1.875 4.5,-2.25 6,-0.25 z"/>
	<path d="m 26.5,43.75 0,2.5 -13.5,-7.5 c -2.5,-1.25 -5,-1 -7,0 -0.5,0.25 -1.25,-0.5 -0.5,-1.25 2.5,-2.125 6.5,-2 9,-0.5 z"/>
	<path d="m 40,53 c -0.75,0.75 -1.75,1.5 -3,1.5 l 0,-15.75 10.75,-3 2.75,5.25 z"/>
	<path d="m 55.875,42.625 -4.875,-9.875 c -0.75,-1.5 -2,-2.25 -3.5,-2.25 l -3.25,0 c -1.5,0 -1.5,2.25 0,2.25 l 3.25,0 c 0.5,0 1.25,0.5 1.5,1.25 l 4.625,9.375 z"/>
	<path d="m 61.5,36 c -2.75,-1.375 -5,-1 -6.75,0.75 l -1.25,-2.5 c 3,-1.25 6.5,-1.5 8.875,0.75 0.625,0.625 -0.125,1.375 -0.875,1 z"/>
	<path d="m 38.25,10 a 5,5 0 0 1 -9.25,3.75 l -2.75,0 a 7.25,7.25 0 1 1 14,-3.75 z"/>
      </g>
      <g style="fill:none;stroke:white;stroke-width:3">
	<circle cx="15.5" cy="54.25" r="8.75"/>
	<circle cx="58.25" cy="54.25" r="8.75"/>
      </g>
    </symbol>


    <symbol id="RadiatorWater">
      <title>Radiator Water</title>
      <g style="stroke:none">
	<path d="m 17.75,48 c 0.5,-4 2,-6 3.25,-6.5 6.5,-1.5 18.25,-2.25 23,-2.5 l -11.75,-19.625 3.5,0 11.5,19.125 7.25,-12 c 1,-1.5 2.25,-2 4.5,-2 l 7,0 0,3 -7,0 c -1.5,0 -2,1 -2.5,1.75 l -5.75,9.5 15.25,0 0,15.75 -20.5,0 a 11.03,11.03 0 0 0 -22,0 l -4,0 c -1,0 -2.25,-0.5 -2.25,-2 z"/>
	<path d="m 20,33.5 c 0,-2 4,-11 4,-11 0,0 4,9 4,11 a 4,4 0 0 1 -8,0 z"/>
	<path d="m 6,6.5 c 5,0.75 15,5.5 18.625,12.5 l -4.625,3.5 c 0,0 -5,-6.5 -14,-8 z"/>
      </g>
      <circle cx="34.5" cy="55.25" r="5.5" style="fill:none;stroke-width:4.5"/>
    </symbol>


    <symbol id="RadiatorWater_Inv">
      <title>Radiator Water</title>
      <rect x="0.5" y="0.5" width="71" height="71" ry="6" style="stroke:white"/>
      <g style="fill:white;stroke:none">
	<path d="m 17.75,48 c 0.5,-4 2,-6 3.25,-6.5 6.5,-1.5 18.25,-2.25 23,-2.5 l -11.75,-19.625 3.5,0 11.5,19.125 7.25,-12 c 1,-1.5 2.25,-2 4.5,-2 l 7,0 0,3 -7,0 c -1.5,0 -2,1 -2.5,1.75 l -5.75,9.5 15.25,0 0,15.75 -20.5,0 a 11.03,11.03 0 0 0 -22,0 l -4,0 c -1,0 -2.25,-0.5 -2.25,-2 z"/>
	<path d="m 20,33.5 c 0,-2 4,-11 4,-11 0,0 4,9 4,11 a 4,4 0 0 1 -8,0 z"/>
	<path d="m 6,6.5 c 5,0.75 15,5.5 18.625,12.5 l -4.625,3.5 c 0,0 -5,-6.5 -14,-8 z"/>
      </g>
      <circle cx="34.5" cy="55.25" r="5.5" style="fill:none;stroke:white;stroke-width:4.5"/>
    </symbol>


    <symbol id="Recycling">
      <title>Recycling</title>
      <g style="stroke:none">
	<path d="m 55.5,14.75 -5.25,3 -3.5,-6 c -0.5,-0.875 -1.5,-1.5 -2.875,-1.5 l -10.5,0 c 0.75,0.75 0.875,1 1.25,1.625 l 6.5,11.25 -5.25,3 13,0 z"/>
	<path d="m 53.875,45.5 5.25,0 c 3.125,0 5,-3.375 3.5,-6 l -6.625,-11.6 -9,5.25 z"/>
	<path d="m 46,64.5 0,-6 7,0 c 1,0 2,-0.5 2.75,-1.75 l 5.25,-9 c -1,0.25 -1.375,0.25 -2,0.25 l -13,0 0,-6 -6.5,11.25 z"/>
	<path d="m 20.25,48 -2.625,4.5 c -1.5,2.75 0.375,6 3.375,6 l 13.25,0 0,-10.5 z"/>
	<path d="m 7.75,31.75 5.25,3 -3.5,6 c -0.5,0.875 -0.5,2 0.125,3.25 l 5.125,9 c 0.25,-1 0.375,-1.25 0.75,-1.875 l 6.5,-11.25 5.25,3 -6.5,-11.25 z"/>
	<path d="m 35,17.5 -2.5,-4.5 c -1.625,-2.625 -5.375,-2.625 -6.875,0 l -6.625,11.5 9,5.25 z"/>
      </g>
    </symbol>

    <symbol id="Recycling_Inv">
      <title>Recycling</title>
      <rect x="0.5" y="0.5" width="71" height="71" ry="6" style="stroke:white"/>
      <g style="fill:white;stroke:none">
	<path d="m 55.5,14.75 -5.25,3 -3.5,-6 c -0.5,-0.875 -1.5,-1.5 -2.875,-1.5 l -10.5,0 c 0.75,0.75 0.875,1 1.25,1.625 l 6.5,11.25 -5.25,3 13,0 z"/>
	<path d="m 53.875,45.5 5.25,0 c 3.125,0 5,-3.375 3.5,-6 l -6.625,-11.6 -9,5.25 z"/>
	<path d="m 46,64.5 0,-6 7,0 c 1,0 2,-0.5 2.75,-1.75 l 5.25,-9 c -1,0.25 -1.375,0.25 -2,0.25 l -13,0 0,-6 -6.5,11.25 z"/>
	<path d="m 20.25,48 -2.625,4.5 c -1.5,2.75 0.375,6 3.375,6 l 13.25,0 0,-10.5 z"/>
	<path d="m 7.75,31.75 5.25,3 -3.5,6 c -0.5,0.875 -0.5,2 0.125,3.25 l 5.125,9 c 0.25,-1 0.375,-1.25 0.75,-1.875 l 6.5,-11.25 5.25,3 -6.5,-11.25 z"/>
	<path d="m 35,17.5 -2.5,-4.5 c -1.625,-2.625 -5.375,-2.625 -6.875,0 l -6.625,11.5 9,5.25 z"/>
      </g>
    </symbol>

    <symbol id="Parking">
      <title>Parking</title>
      <path d="m 25,60 0,-45 14,0 a 12.5,12.5 0 0 1 0,25 l -9,0" style="fill:none;stroke-width:10"/>
    </symbol>

    <symbol id="Parking_Inv">
      <title>Parking</title>
      <rect x="0.5" y="0.5" width="71" height="71" ry="6" style="stroke:white"/>
      <path d="m 25,60 0,-45 14,0 a 12.5,12.5 0 0 1 0,25 l -9,0" style="fill:none;stroke:white;stroke-width:10"/>
    </symbol>
    
    <symbol id="PetsOnLeash">
      <title>Pets On Leash</title>
      <g style="stroke:none">
	<path d="m 36.5,56.5 c 2.5,4.125 -3.75,7.5 -6,3.5 l -6.25,-10.5 0,8.75 a 3.5,3.5 0 0 1 -7,0 l 0,-22.75 -4.75,-2.75 c -2,-1.5 0,-4.5 2,-3.5 l 3,1.75 23.5,0 11,5.25 0,8.75 c 0,0.5 0,1.5 -1.25,1.5 l 0,11.875 a 3.5,3.5 0 0 1 -7,0 l 0,-11.875 -13.25,0 z"/>
	<path d="m 41,31 -30,-14.25 0,-3 31,14.75 z"/>
	<path d="m 42,28.5 10,4.75 0,-1.75 8,0 3,-6.5 -21,-10 z"/>
      </g>
    </symbol>

    <symbol id="PetsOnLeash_Inv">
      <title>Pets On Leash</title>
      <rect x="0.5" y="0.5" width="71" height="71" ry="6" style="stroke:none"/>
      <g style="fill:white;stroke:none">
	<path d="m 36.5,56.5 c 2.5,4.125 -3.75,7.5 -6,3.5 l -6.25,-10.5 0,8.75 a 3.5,3.5 0 0 1 -7,0 l 0,-22.75 -4.75,-2.75 c -2,-1.5 0,-4.5 2,-3.5 l 3,1.75 23.5,0 11,5.25 0,8.75 c 0,0.5 0,1.5 -1.25,1.5 l 0,11.875 a 3.5,3.5 0 0 1 -7,0 l 0,-11.875 -13.25,0 z"/>
	<path d="m 41,31 -30,-14.25 0,-3 31,14.75 z"/>
	<path d="m 42,28.5 10,4.75 0,-1.75 8,0 3,-6.5 -21,-10 z"/>
      </g>
    </symbol>

    <symbol id="PicnicArea">
      <title>Picnic Area</title>
      <path d="m 17,20 0,-5 38,0 0,5 -9.5,0 6,15 14.5,0 0,5 -12.5,0 6.5,17 -6,0 -6.5,-17 -23,0 -6.5,17 -6,0 6.5,-17 -12.5,0 0,-5 14.5,0 6,-15 z m 9.5,15 19,0 -6,-15 -7,0 z" style="stroke:none"/>
    </symbol>

    <symbol id="PicnicArea_Inv">
      <title>Picnic Area</title>
      <rect x="0.5" y="0.5" width="71" height="71" ry="6" style="stroke:none"/>
      <path d="m 17,20 0,-5 38,0 0,5 -9.5,0 6,15 14.5,0 0,5 -12.5,0 6.5,17 -6,0 -6.5,-17 -23,0 -6.5,17 -6,0 6.5,-17 -12.5,0 0,-5 14.5,0 6,-15 z m 9.5,15 19,0 -6,-15 -7,0 z" style="fill:white;stroke:none"/>
    </symbol>

    <symbol id="PostOffice">
      <title>Post Office</title>
      <g style="fill:none;stroke-width:4">
	<path d="m 10.5,55.1 51,0 0,-37.6 -51,0 0,37.6 z" />
	<path d="m 11,17.75 22,22.6 c 1.6,1.6 4.4,1.6 6,0.0125 L 61,17.75" />
	<path d="m 12,54  16.9,-17" />
	<path d="m 60,54 -16.9,-17" />
      </g>
    </symbol>

    <symbol id="PostOffice_Inv">
      <title>Post Office</title>
      <rect x="0.5" y="0.5" width="71" height="71" ry="6" style="stroke:white"/>
      <g style="fill:none;stroke:white;stroke-width:4">
        <path d="m 10.5,55.1 51,0 0,-37.6 -51,0 0,37.6 z"/>
        <path d="m 11,17.75 22,22.6 c 1.6,1.6 4.4,1.6 6,0.0125 L 61,17.75"/>
        <path d="m 12,54  16.9,-17"/>
        <path d="m 60,54 -16.9,-17"/>
      </g>
    </symbol>

    <symbol id="RangerStation">
      <title>Ranger Station</title>
      <path d="m 41.25,30 0,-12.5 4.25,0 c 2,0 2,1 2.5,1.5 0.5,0.5 1,1 2,1 l 4.5,0 0,-10.5 -4.5,0 c -1,0 -1.5,-0.5 -2,-1 -0.5,-0.5 -0.5,-1.5 -2.5,-1.5 l -6.5,0 0,21.5 -3,-2 -26,17 6,0 0,20.5 15,0 0,-16 10,0 0,16 15,0 0,-20.5 6,0 z" style="stroke:none"/>
    </symbol>

    <symbol id="RangerStation_Inv">
      <title>Ranger Station</title>
      <rect x="0.5" y="0.5" width="71" height="71" ry="6" style="stroke:white"/>
      <path d="m 41.25,30 0,-12.5 4.25,0 c 2,0 2,1 2.5,1.5 0.5,0.5 1,1 2,1 l 4.5,0 0,-10.5 -4.5,0 c -1,0 -1.5,-0.5 -2,-1 -0.5,-0.5 -0.5,-1.5 -2.5,-1.5 l -6.5,0 0,21.5 -3,-2 -26,17 6,0 0,20.5 15,0 0,-16 10,0 0,16 15,0 0,-20.5 6,0 z" style="fill:white;stroke:none"/>
    </symbol>

    <symbol id="RVCampground">
      <title>RV Campground</title>
      <g style="stroke:none">
	<path d="m 47.75,17 c 0.5,0 0.875,0.25 1.25,0.75 l 4,5.75 c 0.75,1 0.5,1.75 -0.5,1.75 l -7.5,0 c -2.5,0 -5,2 -5,4.75 l 0,7.5 -34.5,0 0,-15.5 c 0,-3.5 2.5,-5 5,-5 z m 1.5,6.25 c 0.5,0 0.375,-0.5 0.25,-0.75 l -2.25,-3.25 c -0.125,-0.125 -0.25,-0.25 -0.5,-0.25 l -5,0 c -0.55,0 -0.75,0.25 -0.75,0.75 l 0,2.75 c 0,0.5 0.25,0.75 0.75,0.75 z m -21,8.5 c 0.5,0 1,-0.5 1,-1 l 0,-6.5 c 0,-0.5 -0.5,-1 -1,-1 l -14.75,0 c -0.5,0 -1,0.5 -1,1 l 0,6.5 c 0,0.5 0.5,1 1,1 z"/>
	<path d="m 68.5,44 0,3.25 c 0,1 -0.75,2 -1.75,2 l -1.75,0 a 8.6,8.6 0 0 0 -17,0 l -18.5,0 a 8.6,8.6 0 0 0 -17,0 l -5,0 c -1,0 -1.75,-0.75 -1.75,-1.75 l 0,-7 37.25,0 0,-9.5 c 0,-1.75 1.25,-3 3,-3 l 8.5,0 c 0.5,0 1,0 1.5,0.5 l 6,8.5 2.5,0.75 c 1,0.25 2,1.5 2,3 l 0,3.25 z m -10.25,-5.25 c 0.5,0 1.125,-0.875 0.625,-1.375 l -4.625,-6.625 c -0.25,-0.25 -0.5,-0.25 -0.75,-0.25 l -5,0 c -1,0 -1.75,0.75 -1.75,1.75 l 0,4.75 c 0,1 0.75,1.75 1.75,1.75 z"/>
      </g>
      <g style="fill:none;stroke-width:3">
	<circle cx="21" cy="50.5" r="4"/>
	<circle cx="56.5" cy="50.5" r="4"/>
      </g>
    </symbol>

    <symbol id="RVCampground_Inv">
      <title>RV Campground</title>
      <rect x="0.5" y="0.5" width="71" height="71" ry="6" style="stroke:white"/>
      <g style="fill:white;stroke:none">
	<path d="m 47.75,17 c 0.5,0 0.875,0.25 1.25,0.75 l 4,5.75 c 0.75,1 0.5,1.75 -0.5,1.75 l -7.5,0 c -2.5,0 -5,2 -5,4.75 l 0,7.5 -34.5,0 0,-15.5 c 0,-3.5 2.5,-5 5,-5 z m 1.5,6.25 c 0.5,0 0.375,-0.5 0.25,-0.75 l -2.25,-3.25 c -0.125,-0.125 -0.25,-0.25 -0.5,-0.25 l -5,0 c -0.55,0 -0.75,0.25 -0.75,0.75 l 0,2.75 c 0,0.5 0.25,0.75 0.75,0.75 z m -21,8.5 c 0.5,0 1,-0.5 1,-1 l 0,-6.5 c 0,-0.5 -0.5,-1 -1,-1 l -14.75,0 c -0.5,0 -1,0.5 -1,1 l 0,6.5 c 0,0.5 0.5,1 1,1 z"/>
	<path d="m 68.5,44 0,3.25 c 0,1 -0.75,2 -1.75,2 l -1.75,0 a 8.6,8.6 0 0 0 -17,0 l -18.5,0 a 8.6,8.6 0 0 0 -17,0 l -5,0 c -1,0 -1.75,-0.75 -1.75,-1.75 l 0,-7 37.25,0 0,-9.5 c 0,-1.75 1.25,-3 3,-3 l 8.5,0 c 0.5,0 1,0 1.5,0.5 l 6,8.5 2.5,0.75 c 1,0.25 2,1.5 2,3 l 0,3.25 z m -10.25,-5.25 c 0.5,0 1.125,-0.875 0.625,-1.375 l -4.625,-6.625 c -0.25,-0.25 -0.5,-0.25 -0.75,-0.25 l -5,0 c -1,0 -1.75,0.75 -1.75,1.75 l 0,4.75 c 0,1 0.75,1.75 1.75,1.75 z"/>
      </g>
      <g style="fill:none;stroke:white;stroke-width:3">
	<circle cx="21" cy="50.5" r="4"/>
	<circle cx="56.5" cy="50.5" r="4"/>
      </g>
    </symbol>

    <symbol id="Restrooms">
      <title>Restrooms</title>
      <g style="stroke:none">
	<!-- Divider -->
	<rect x="33.5" y="12" width="5" height="48"/>
	<!-- Woman -->
	<circle cx="19.5" cy="15" r="4"/>
	<path d="m 19,44.5 0,14 a 2,2 0 0 1 -4,0 l 0,-14 -5,0 5.5,-18.5 -1,0 -3,10.5 A 1.821,1.821 0 0 1 8,35.5 l 3.5,-12 A 5.7,4.6 0 0 1 17,20 l 5,0 a 5.7,4.6 0 0 1 5.5,3.5 l 3.5,12 a 1.821,1.821 0 0 1 -3.5,1 l -3,-10.5 -1,0 5.5,18.5 -5,0 0,14 a 2,2 0 0 1 -4,0 l 0,-14 z"/>
	<!-- Man -->
	<circle cx="52.5" cy="15" r="4"/>
	<path d="m 43,25 0,13 a 1.75,1.75 0 0 0 3.5,0 l 0,-11.5 1,0 0,31.75 a 2.25,2.25 0 0 0 4.5,0 l 0,-18.75 1,0 0,18.75 a 2.25,2.25 0 0 0 4.5,0 l 0,-31.75 1,0 0,11.5 a 1.75,1.75 0 0 0 3.5,0 l 0,-13 a 5,5 0 0 0 -5,-5 l -9,0 a 5,5 0 0 0 -5,5 z"/>
      </g>
    </symbol>

    <symbol id="Restrooms_Inv">
      <title>Restrooms</title>
      <rect x="0.5" y="0.5" width="71" height="71" ry="6" style="stroke:white"/>
      <g style="fill:white;stroke:none">
	<!-- Divider -->
	<rect x="33.5" y="12" width="5" height="48"/>
	<!-- Woman -->
	<circle cx="19.5" cy="15" r="4"/>
	<path d="m 19,44.5 0,14 a 2,2 0 0 1 -4,0 l 0,-14 -5,0 5.5,-18.5 -1,0 -3,10.5 A 1.821,1.821 0 0 1 8,35.5 l 3.5,-12 A 5.7,4.6 0 0 1 17,20 l 5,0 a 5.7,4.6 0 0 1 5.5,3.5 l 3.5,12 a 1.821,1.821 0 0 1 -3.5,1 l -3,-10.5 -1,0 5.5,18.5 -5,0 0,14 a 2,2 0 0 1 -4,0 l 0,-14 z"/>
	<!-- Man -->
	<circle cx="52.5" cy="15" r="4"/>
	<path d="m 43,25 0,13 a 1.75,1.75 0 0 0 3.5,0 l 0,-11.5 1,0 0,31.75 a 2.25,2.25 0 0 0 4.5,0 l 0,-18.75 1,0 0,18.75 a 2.25,2.25 0 0 0 4.5,0 l 0,-31.75 1,0 0,11.5 a 1.75,1.75 0 0 0 3.5,0 l 0,-13 a 5,5 0 0 0 -5,-5 l -9,0 a 5,5 0 0 0 -5,5 z"/>
      </g>
    </symbol>

    <symbol id="Sailing">
      <title>Sailing</title>
      <path d="m 6,60.5 c 2.5,0 5,-1.75 7.5,-1.75 2.5,0 5,1.75 7.5,1.75 2.5,0 5,-1.75 7.5,-1.75 2.5,0 5,1.75 7.5,1.75 2.5,0 5,-1.75 7.5,-1.75 2.5,0 5,1.75 7.5,1.75 2.5,0 5,-1.75 7.5,-1.75 2.5,0 5,1.75 7.5,1.75 l 0,5.5 c -2.5,0 -5,-1.75 -7.5,-1.75 -2.5,0 -5,1.75 -7.5,1.75 -2.5,0 -5,-1.75 -7.5,-1.75 -2.5,0 -5,1.75 -7.5,1.75 -2.5,0 -5,-1.75 -7.5,-1.75 -2.5,0 -5,1.75 -7.5,1.75 -2.5,0 -5,-1.75 -7.5,-1.75 -2.5,0 -5,1.75 -7.5,1.75 z" style="stroke:none"/>
      <path d="m 13.5,46 48.5,0 c -7,9 -8.125,9.25 -12.125,9.25 -2.5,0 -5,-1.75 -7.5,-1.75 -2.5,0 -5,1.75 -7.5,1.75 -2.5,0 -3.875,-1.75 -6.375,-1.75 -2.5,0 -5,1.75 -7.5,1.75 -2.5,0 -5,-1.75 -7.5,-1.75 z" style="stroke:none"/>
      <path d="m 42,4 0,39 -33,0 z" style="stroke:none"/>
      <path d="m 45,13 c 10,5 20.375,16 19.5,30 l -19.5,0 z" style="stroke:none"/>
    </symbol>

    <symbol id="Sailing_Inv">
      <title>Sailing</title>
      <rect x="0.5" y="0.5" width="71" height="71" ry="6" style="stroke:white"/>
      <path d="m 6,60.5 c 2.5,0 5,-1.75 7.5,-1.75 2.5,0 5,1.75 7.5,1.75 2.5,0 5,-1.75 7.5,-1.75 2.5,0 5,1.75 7.5,1.75 2.5,0 5,-1.75 7.5,-1.75 2.5,0 5,1.75 7.5,1.75 2.5,0 5,-1.75 7.5,-1.75 2.5,0 5,1.75 7.5,1.75 l 0,5.5 c -2.5,0 -5,-1.75 -7.5,-1.75 -2.5,0 -5,1.75 -7.5,1.75 -2.5,0 -5,-1.75 -7.5,-1.75 -2.5,0 -5,1.75 -7.5,1.75 -2.5,0 -5,-1.75 -7.5,-1.75 -2.5,0 -5,1.75 -7.5,1.75 -2.5,0 -5,-1.75 -7.5,-1.75 -2.5,0 -5,1.75 -7.5,1.75 z" style="fill:white;stroke:none"/>
      <path d="m 13.5,46 48.5,0 c -7,9 -8.125,9.25 -12.125,9.25 -2.5,0 -5,-1.75 -7.5,-1.75 -2.5,0 -5,1.75 -7.5,1.75 -2.5,0 -3.875,-1.75 -6.375,-1.75 -2.5,0 -5,1.75 -7.5,1.75 -2.5,0 -5,-1.75 -7.5,-1.75 z" style="fill:white;stroke:none"/>
      <path d="m 42,4 0,39 -33,0 z" style="fill:white;stroke:none"/>
      <path d="m 45,13 c 10,5 20.375,16 19.5,30 l -19.5,0 z" style="fill:white;stroke:none"/>
    </symbol>

    <symbol id="SanitaryDisposalStation">
      <title>Sanitary Disposal Station</title>
      <g style="stroke:none">
	<path d="m 19,37 c -3.5,0 -6.5,-3 -6.5,-6.5 l 0,-12 c 0,-5 4,-9 9,-9 l 31.5,0 c 5,0 9,4 9,8.75 l 0,16.75 3.5,0 c 1,0 2,1 2,2 l -22,0 a 8.1,8.1 0 0 0 -16,0 z m 35.5,-15 c 1,0 2,-1 2,-2 l 0,-3 c 0,-1 -1,-2 -2,-2 l -6.5,0 c -1,0 -2,1 -2,2 l 0,3 c 0,1 1,2 2,2 z m -19,0 c 1,0 2,-1 2,-2 l 0,-3 c 0,-1 -1,-2 -2,-2 l -14,0 c -1,0 -2,1 -2,2 l 0,3 c 0,1 1,2 2,2 z"/>
	<path d="m 67.25,43.5 0,18.5 c 0,1 -1,2.125 -2,2.125 l -58.5,0 c -1,0 -2,-1.125 -2,-2.125 l 0,-18.5 12.75,0 0,3 -8.5,0 c -0.5,0 -1,0.5 -1,1 l 0,12 c 0,0.75 0.75,1.5 1.5,1.5 l 25.75,0 c 0.75,0 1.5,-0.625 1.5,-1.5 l 0,-12 c 0,-0.5 -0.5,-1 -1,-1 l -9.25,0 0,-3 z"/>
	<path d="m 20.75,39.875 2.5,0 0,11.875 2.25,0 c 0.5,0 0.875,0.5 0.5,1 l -3.5,4.25 c -0.25,0.25 -0.75,0.25 -1,0 l -3.5,-4.25 c -0.375,-0.5 0,-1 0.5,-1 l 2.25,0 z"/>
      </g>
      <circle cx="37.5" cy="38.25" r="3.75" style="fill:none;stroke-width:3.75"/>
    </symbol>

    <symbol id="SanitaryDisposalStation_Inv">
      <title>Sanitary Disposal Station</title>
      <rect x="0.5" y="0.5" width="71" height="71" ry="6" style="stroke:white"/>
      <g style="fill:white;stroke:none">
	<path d="m 19,37 c -3.5,0 -6.5,-3 -6.5,-6.5 l 0,-12 c 0,-5 4,-9 9,-9 l 31.5,0 c 5,0 9,4 9,8.75 l 0,16.75 3.5,0 c 1,0 2,1 2,2 l -22,0 a 8.1,8.1 0 0 0 -16,0 z m 35.5,-15 c 1,0 2,-1 2,-2 l 0,-3 c 0,-1 -1,-2 -2,-2 l -6.5,0 c -1,0 -2,1 -2,2 l 0,3 c 0,1 1,2 2,2 z m -19,0 c 1,0 2,-1 2,-2 l 0,-3 c 0,-1 -1,-2 -2,-2 l -14,0 c -1,0 -2,1 -2,2 l 0,3 c 0,1 1,2 2,2 z"/>
	<path d="m 67.25,43.5 0,18.5 c 0,1 -1,2.125 -2,2.125 l -58.5,0 c -1,0 -2,-1.125 -2,-2.125 l 0,-18.5 12.75,0 0,3 -8.5,0 c -0.5,0 -1,0.5 -1,1 l 0,12 c 0,0.75 0.75,1.5 1.5,1.5 l 25.75,0 c 0.75,0 1.5,-0.625 1.5,-1.5 l 0,-12 c 0,-0.5 -0.5,-1 -1,-1 l -9.25,0 0,-3 z"/>
	<path d="m 20.75,39.875 2.5,0 0,11.875 2.25,0 c 0.5,0 0.875,0.5 0.5,1 l -3.5,4.25 c -0.25,0.25 -0.75,0.25 -1,0 l -3.5,-4.25 c -0.375,-0.5 0,-1 0.5,-1 l 2.25,0 z"/>
      </g>
      <circle cx="37.5" cy="38.25" r="3.75" style="fill:none;stroke:white;stroke-width:3.75"/>
    </symbol>

    <symbol id="ScubaDiving">
      <title>Scuba Diving</title>
      <g style="stroke:none">
	<path d="m 61.625,54.75 a 2.387,2.387 0 0 1 -3.375,3.375 l -8.5,-8.625 -18.5,-5.125 c -1.875,-0.625 -2.75,-2.125 -2.75,-2.125 l -10.125,-17.5 a 3.28,3.28 0 0 1 5.75,-3.125 l 8,14.25 13.25,3.75 c 1.25,0.375 2.25,1 3,1.75 z"/>
	<path d="m 58.25,44.75 a 4.75,4.75 0 1 1 2.5,-3.5 l 3.25,1.75 -3.75,4.25 z"/>
	<path d="m 16.5,12 3,6 -3.5,3.25 -9,-9.25 z"/>
	<path d="m 45,37 -10.625,-3 c -0.875,-0.25 -1.25,-0.875 -1,-1.75 l 1,-3.5 c 0.25,-0.75 0.75,-1.125 1.625,-0.875 l 10.75,3 z"/>
	<path d="m 46.5,37.375 1.75,-6.125 1.375,0.375 a 3.186,3.186 0 0 1 -1.75,6.125 z"/>
      </g>
    </symbol>

    <symbol id="ScubaDiving_Inv">
      <title>Scuba Diving</title>
      <rect x="0.5" y="0.5" width="71" height="71" ry="6" style="stroke:white"/>
      <g style="fill:white;stroke:none">
	<path d="m 61.625,54.75 a 2.387,2.387 0 0 1 -3.375,3.375 l -8.5,-8.625 -18.5,-5.125 c -1.875,-0.625 -2.75,-2.125 -2.75,-2.125 l -10.125,-17.5 a 3.28,3.28 0 0 1 5.75,-3.125 l 8,14.25 13.25,3.75 c 1.25,0.375 2.25,1 3,1.75 z"/>
	<path d="m 58.25,44.75 a 4.75,4.75 0 1 1 2.5,-3.5 l 3.25,1.75 -3.75,4.25 z"/>
	<path d="m 16.5,12 3,6 -3.5,3.25 -9,-9.25 z"/>
	<path d="m 45,37 -10.625,-3 c -0.875,-0.25 -1.25,-0.875 -1,-1.75 l 1,-3.5 c 0.25,-0.75 0.75,-1.125 1.625,-0.875 l 10.75,3 z"/>
	<path d="m 46.5,37.375 1.75,-6.125 1.375,0.375 a 3.186,3.186 0 0 1 -1.75,6.125 z"/>
      </g>
    </symbol>

    <symbol id="SelfGuidedTrail">
      <title>Self Guided Trail</title>
      <g id="DottedLine" style="stroke:none">
	<path d="m 40,5 0,11 -9.5,-5.5 z"/>
	<circle cx="46" cy="10"    r="2.5"/>
	<circle cx="55" cy="10"    r="2.5"/>
	<circle cx="64" cy="10"    r="2.5"/>
	<circle cx="64" cy="18.75" r="2.5"/>
	<circle cx="64" cy="27.5"  r="2.5"/>
	<circle cx="64" cy="36.25" r="2.5"/>
	<circle cx="64" cy="45"    r="2.5"/>
	<circle cx="64" cy="53.75" r="2.5"/>
	<circle cx="64" cy="62.5"  r="2.5"/>
	<circle cx="55" cy="62.5"  r="2.5"/>
	<circle cx="46" cy="62.5"  r="2.5"/>
      </g>
      <path d="m 33.75,65 0,-21.5 10.5,-10.5 a 2.3,2.3 0 0 1 3.25,3.25 l -9.25,9.25 0,19.5 z" style="stroke:none"/>
      <rect x="12.5" y="16.5" height="14.5" width="6" ry="1.25" transform="matrix(0.97,0.23,-0.23,0.97,0,0)" style="stroke:none"/>
      <path d="m 15.25,25 a 4.25,4.25 0 0 1 8.25,0 l 1.75,6.5 5.75,1.5 a 2,2 0 0 1 -0.875,3.875 l -6.75,-1.75 c 0,0 -1.25,-0.375 -1.5,-1.75 l -0.25,-1.75 -1.375,6.375 7.375,23 a 3.01,3.01 0 0 1 -5.75,1.75 l -5.5,-16.75 -4,16.75 a 3.01,3.01 0 0 1 -5.75,-1.75 z" style="stroke:none"/>
      <circle cx="20.5" cy="16.75" r="4" style="stroke:none"/>
    </symbol>

    <symbol id="SelfGuidedTrail_Inv">
      <title>Self Guided Trail</title>
      <rect x="0.5" y="0.5" width="71" height="71" ry="6" style="stroke:white"/>
      <g id="DottedLine" style="fill:white;stroke:none">
	<path d="m 40,5 0,11 -9.5,-5.5 z"/>
	<circle cx="46" cy="10"    r="2.5"/>
	<circle cx="55" cy="10"    r="2.5"/>
	<circle cx="64" cy="10"    r="2.5"/>
	<circle cx="64" cy="18.75" r="2.5"/>
	<circle cx="64" cy="27.5"  r="2.5"/>
	<circle cx="64" cy="36.25" r="2.5"/>
	<circle cx="64" cy="45"    r="2.5"/>
	<circle cx="64" cy="53.75" r="2.5"/>
	<circle cx="64" cy="62.5"  r="2.5"/>
	<circle cx="55" cy="62.5"  r="2.5"/>
	<circle cx="46" cy="62.5"  r="2.5"/>
      </g>
      <path d="m 33.75,65 0,-21.5 10.5,-10.5 a 2.3,2.3 0 0 1 3.25,3.25 l -9.25,9.25 0,19.5 z" style="fill:white;stroke:none"/>
      <rect x="12.5" y="16.5" height="14.5" width="6" ry="1.25" transform="matrix(0.97,0.23,-0.23,0.97,0,0)" style="fill:white;stroke:none"/>
      <path d="m 15.25,25 a 4.25,4.25 0 0 1 8.25,0 l 1.75,6.5 5.75,1.5 a 2,2 0 0 1 -0.875,3.875 l -6.75,-1.75 c 0,0 -1.25,-0.375 -1.5,-1.75 l -0.25,-1.75 -1.375,6.375 7.375,23 a 3.01,3.01 0 0 1 -5.75,1.75 l -5.5,-16.75 -4,16.75 a 3.01,3.01 0 0 1 -5.75,-1.75 z" style="fill:white;stroke:none"/>
      <circle cx="20.5" cy="16.75" r="4" style="fill:white;stroke:none"/>
    </symbol>

    <symbol id="Shelter">
      <title>Shelter</title>
      <path d="m 12.5,61 51.5,0 0,-5.5 -46,0 0,-20 46,-21 0,-5.5 -57,26 0,5.5 5.5,-2.5 z" style="stroke:none"/>
    </symbol>

    <symbol id="Shelter_Inv">
      <title>Shelter</title>
      <rect x="0.5" y="0.5" width="71" height="71" ry="6" style="stroke:white"/>
      <path d="m 12.5,61 51.5,0 0,-5.5 -46,0 0,-20 46,-21 0,-5.5 -57,26 0,5.5 5.5,-2.5 z" style="fill:white;stroke:none"/>
    </symbol>

    <symbol id="Showers">
      <title>Showers</title>
      <path d="m 6.75,13.25 1.75,1.75 8.5,-8.5 -1.75,-1.75 -3.75,1.25 -1.625,-1.625 -3.5,3.5 1.625,1.625 z" style="stroke:none"/>
      <g id="WaterDrops" style="stroke:none">
        <circle cx="18.5" cy="9" r="1.3"/>
        <circle cx="16" cy="11.5" r="1.3"/>
        <circle cx="13.5" cy="14" r="1.3"/>
        <circle cx="11" cy="16.5" r="1.3"/>

        <circle cx="23.5" cy="11" r="1.4"/>
        <circle cx="20" cy="14.5" r="1.4"/>
        <circle cx="16.5" cy="18" r="1.4"/>
        <circle cx="13" cy="21.5" r="1.4"/>

        <circle cx="28.5" cy="13" r="1.5"/>
        <circle cx="24" cy="17.5" r="1.5"/>
        <circle cx="19.5" cy="22" r="1.5"/>
        <circle cx="15" cy="26.5" r="1.5"/>

        <circle cx="33.5" cy="15" r="1.6"/>
        <circle cx="28" cy="20.5" r="1.6"/>
        <circle cx="22.5" cy="26" r="1.6"/>
        <circle cx="17" cy="31.5" r="1.6"/>

        <circle cx="38.5" cy="17" r="1.7"/>
        <circle cx="32" cy="23.5" r="1.7"/>
        <circle cx="25.5" cy="30" r="1.7"/>
        <circle cx="19" cy="36.5" r="1.7"/>

        <circle cx="43.5" cy="19" r="1.8"/>
        <circle cx="28.5" cy="34" r="1.8"/>
        <circle cx="21" cy="41.5" r="1.8"/>

        <circle cx="48.5" cy="21" r="1.9"/>
      </g>
      <path d="m 29.5,41 c 0.5,-0.5 1.5,-1.25 3,-1.25 l 14.25,0 14.5,-14.5 a 2.75,2.75 0 0 1 3.875,3.875 l -15.875,15.875 0,21.375 -18.75,0 0,-10.5 -8.5,0 c -3,0 -4,-3.5 -2.25,-5.25 z m 4.5,16.75 3.5,0 a 1.5,1.75 0 0 0 1.5,-1.75 l 0,-6 a 1.5,1.75 0 0 0 -1.5,-1.75 l -3.5,0 a 1.5,1.75 0 0 0 -1.5,1.75 3,3 0 0 1 0,6 1.5,1.75 0 0 0 1.5,1.75 z" style="stroke:none"/>
        <circle cx="39.5" cy="31.5" r="6.5" style="stroke:none"/>
    </symbol>

    <symbol id="Showers_Inv">
      <title>Showers</title>
      <rect x="0.5" y="0.5" width="71" height="71" ry="6" style="stroke:white"/>
      <path d="m 6.75,13.25 1.75,1.75 8.5,-8.5 -1.75,-1.75 -3.75,1.25 -1.625,-1.625 -3.5,3.5 1.625,1.625 z" style="fill:white;stroke:none"/>
      <g id="WaterDrops" style="fill:white;stroke:none">
        <circle cx="18.5" cy="9" r="1.3"/>
        <circle cx="16" cy="11.5" r="1.3"/>
        <circle cx="13.5" cy="14" r="1.3"/>
        <circle cx="11" cy="16.5" r="1.3"/>

        <circle cx="23.5" cy="11" r="1.4"/>
        <circle cx="20" cy="14.5" r="1.4"/>
        <circle cx="16.5" cy="18" r="1.4"/>
        <circle cx="13" cy="21.5" r="1.4"/>

        <circle cx="28.5" cy="13" r="1.5"/>
        <circle cx="24" cy="17.5" r="1.5"/>
        <circle cx="19.5" cy="22" r="1.5"/>
        <circle cx="15" cy="26.5" r="1.5"/>

        <circle cx="33.5" cy="15" r="1.6"/>
        <circle cx="28" cy="20.5" r="1.6"/>
        <circle cx="22.5" cy="26" r="1.6"/>
        <circle cx="17" cy="31.5" r="1.6"/>

        <circle cx="38.5" cy="17" r="1.7"/>
        <circle cx="32" cy="23.5" r="1.7"/>
        <circle cx="25.5" cy="30" r="1.7"/>
        <circle cx="19" cy="36.5" r="1.7"/>

        <circle cx="43.5" cy="19" r="1.8"/>
        <circle cx="28.5" cy="34" r="1.8"/>
        <circle cx="21" cy="41.5" r="1.8"/>

        <circle cx="48.5" cy="21" r="1.9"/>
      </g>
      <path d="m 29.5,41 c 0.5,-0.5 1.5,-1.25 3,-1.25 l 14.25,0 14.5,-14.5 a 2.75,2.75 0 0 1 3.875,3.875 l -15.875,15.875 0,21.375 -18.75,0 0,-10.5 -8.5,0 c -3,0 -4,-3.5 -2.25,-5.25 z m 4.5,16.75 3.5,0 a 1.5,1.75 0 0 0 1.5,-1.75 l 0,-6 a 1.5,1.75 0 0 0 -1.5,-1.75 l -3.5,0 a 1.5,1.75 0 0 0 -1.5,1.75 3,3 0 0 1 0,6 1.5,1.75 0 0 0 1.5,1.75 z" style="fill:white;stroke:none"/>
        <circle cx="39.5" cy="31.5" r="6.5" style="fill:white;stroke:none"/>
    </symbol>

    <symbol id="Sledding">
      <title>Sledding</title>
      <path d="m 59.625,57.375 c 0,0 -4.125,4.5 -9.25,2.625 l -44.75,-17.625 2.25,-1.375 42.75,17.125 c 0,0 3.875,1.375 6.875,-1.625 l -4.3,-1.6 c -0.8,-0.3 -1.8,-1.2 -2.2,-1.9 l -1.5,-2.4 -35,-13.725 2.125,-1.25 8.75,3.375 -13.75,-23.375 a 3.7,3.7 0 0 1 6.375,-3.75 l 11.25,18.875 18.75,7.5 c 1,0.375 1.625,0.875 2.125,1.75 l 5.625,10.125 8,3.125 a 2.62,2.62 0 0 1 -1.875,4.875 z" style="stroke:none"/>
      <circle cx="57.75" cy="39.75" r="5.75" style="stroke:none"/>
    </symbol>

    <symbol id="Sledding_Inv">
      <title>Sledding</title>
      <rect x="0.5" y="0.5" width="71" height="71" ry="6" style="stroke:white"/>
      <path d="m 59.625,57.375 c 0,0 -4.125,4.5 -9.25,2.625 l -44.75,-17.625 2.25,-1.375 42.75,17.125 c 0,0 3.875,1.375 6.875,-1.625 l -4.3,-1.6 c -0.8,-0.3 -1.8,-1.2 -2.2,-1.9 l -1.5,-2.4 -35,-13.725 2.125,-1.25 8.75,3.375 -13.75,-23.375 a 3.7,3.7 0 0 1 6.375,-3.75 l 11.25,18.875 18.75,7.5 c 1,0.375 1.625,0.875 2.125,1.75 l 5.625,10.125 8,3.125 a 2.62,2.62 0 0 1 -1.875,4.875 z" style="fill:white;stroke:none"/>
      <circle cx="57.75" cy="39.75" r="5.75" style="fill:white;stroke:none"/>
    </symbol>

    <symbol id="SnowmobileTrail">
      <title>SnowmobileTrail</title>
      <path d="m 27,60.5 2,-3.5 -23,0 -2,3.5 z" style="stroke:none"/>
      <path d="m 36,57 23,0 c 1.5,0 3.25,-1.25 4.5,-2.25 l 5,-3.875 0,4.375 -5,3.75 c 0,0 -2,1.5 -4.5,1.5 l -25,0 z" style="stroke:none"/>
      <path d="m 33,24 0,5 6,0 a 2.25,2.25 0 0 1 0,4.5 l -6,0 0,3 7.75,3 4,-6.5 -3.125,-5 a 1.63,1.63 0 0 1 2.75,-1.75 l 4.125,6.75 8,1.5 c 3.25,0.5 4,2 4,2 l 4,7 -10.5,7.5 c -1.5,1.125 -3,1.75 -4,1.75 l -40,0 c -1,0 -2.25,-1.25 -1.5,-2.625 l 5.75,-10.625 10.75,0 c -1,-0.875 -1.5,-2.5 -1.5,-4 l 0,-11.5 a 4.75,4.75 0 0 1 9.5,0 z" style="stroke:none"/>
      <circle cx="30.5" cy="13.5" r="4.75" style="stroke:none"/>
    </symbol>

    <symbol id="SnowmobileTrail_Inv">
      <title>SnowmobileTrail</title>
      <rect x="0.5" y="0.5" width="71" height="71" ry="6" style="stroke:white"/>
      <path d="m 27,60.5 2,-3.5 -23,0 -2,3.5 z" style="fill:white;stroke:none"/>
      <path d="m 36,57 23,0 c 1.5,0 3.25,-1.25 4.5,-2.25 l 5,-3.875 0,4.375 -5,3.75 c 0,0 -2,1.5 -4.5,1.5 l -25,0 z" style="fill:white;stroke:none"/>
      <path d="m 33,24 0,5 6,0 a 2.25,2.25 0 0 1 0,4.5 l -6,0 0,3 7.75,3 4,-6.5 -3.125,-5 a 1.63,1.63 0 0 1 2.75,-1.75 l 4.125,6.75 8,1.5 c 3.25,0.5 4,2 4,2 l 4,7 -10.5,7.5 c -1.5,1.125 -3,1.75 -4,1.75 l -40,0 c -1,0 -2.25,-1.25 -1.5,-2.625 l 5.75,-10.625 10.75,0 c -1,-0.875 -1.5,-2.5 -1.5,-4 l 0,-11.5 a 4.75,4.75 0 0 1 9.5,0 z" style="fill:white;stroke:none"/>
      <circle cx="30.5" cy="13.5" r="4.75" style="fill:white;stroke:none"/>
    </symbol>

    <symbol id="Stable">
      <title>Stable</title>
      <path d="m 11.5,65.5 51.5,0 0,-5.5 -46,0 0,-32.25 46,-17.75 0,-5.5 -57,22 0,5.5 5.5,-2 z" style="stroke:none"/>
      <path d="m 45.5,33 10.625,-11 -0.25,2.875 5.375,3.625 c 0.875,0.5 1.125,1.5 0.625,2.375 -0.375,0.75 -1.125,1.125 -1.875,1 l -0.5,-0.125 c -1,2.75 -3.25,4 -5.75,3.375 l -4,8.125 0,11.25 c 0,1 -0.75,1.875 -1.75,1.875 -1,0 -1.75,-0.875 -1.75,-1.875 l 0,-11.5 -9,0 -1.75,2.75 3.5,8 c 1.125,2.5 -2.25,3.75 -3.25,1.5 l -3.75,-8.75 0,-3 -1.75,2.625 0,8.325 c 0,1 -0.75,2 -1.75,2 -1,0 -1.75,-1.125 -1.75,-2 l 0,-9.5 1.5,-2.375 0,-7.5 -1.5,2 0,6.5 -2.75,0 0,-6.5 c 0,-2 1.875,-4 4,-4 z m 10.25,-2 -1.625,3.25 c 2.125,0.5 3.875,-1.125 4.375,-2.75 z" style="stroke:none"/>
    </symbol>

    <symbol id="Stable_Inv">
      <title>Stable</title>
      <rect x="0.5" y="0.5" width="71" height="71" ry="6" style="stroke:white"/>
      <path d="m 11.5,65.5 51.5,0 0,-5.5 -46,0 0,-32.25 46,-17.75 0,-5.5 -57,22 0,5.5 5.5,-2 z" style="fill:white;stroke:none"/>
      <path d="m 45.5,33 10.625,-11 -0.25,2.875 5.375,3.625 c 0.875,0.5 1.125,1.5 0.625,2.375 -0.375,0.75 -1.125,1.125 -1.875,1 l -0.5,-0.125 c -1,2.75 -3.25,4 -5.75,3.375 l -4,8.125 0,11.25 c 0,1 -0.75,1.875 -1.75,1.875 -1,0 -1.75,-0.875 -1.75,-1.875 l 0,-11.5 -9,0 -1.75,2.75 3.5,8 c 1.125,2.5 -2.25,3.75 -3.25,1.5 l -3.75,-8.75 0,-3 -1.75,2.625 0,8.325 c 0,1 -0.75,2 -1.75,2 -1,0 -1.75,-1.125 -1.75,-2 l 0,-9.5 1.5,-2.375 0,-7.5 -1.5,2 0,6.5 -2.75,0 0,-6.5 c 0,-2 1.875,-4 4,-4 z m 10.25,-2 -1.625,3.25 c 2.125,0.5 3.875,-1.125 4.375,-2.75 z" style="fill:white;stroke:none"/>
    </symbol>

    <symbol id="Store">
      <title>Store</title>
      <g style="stroke:none">
	<rect x="18" y="9" width="9" height="3.5"/>
	<path d="m 9.125,22.25 c 0,-0.75 0.25,-1.25 0.625,-1.75 l 4.25,-5.25 c 0.5,-0.625 1.375,-1.25 2.25,-1.25 l 11.25,0 c 3.375,0 6,3.625 6,7 l 0,40.5 c 0,1 -1,2 -2,2 l -20.25,0 c -1,0 -2,-1 -2,-2 z m 2.375,10.75 c 0,1.25 1.625,2.375 2.75,1 l 3.25,-4.25 c 0.375,-0.5 0.5,-0.75 0.5,-1.25 l 0,-10.5 c 0,-3 -3,-0.5 -3.75,0.5 l -2.25,2.75 c -0.5,0.625 -0.5,1 -0.5,1.25 z"/>
	<path d="m 49,40 c 0,0 -1,-10 11,-11 0,0 -0.5,12 -11,11 z"/>
	<path d="m 52,44.5 c 1.25,-1.25 3.5,-2 5.25,-2 4.25,0 7.5,3.5 7.5,7.125 0,3.875 -4.25,14.375 -9,14.375 -1.5,0 -3.25,-1 -3.75,-2 -0.5,1 -2.25,2 -3.75,2 -4.75,0 -9,-10.5 -9,-14.375 0,-3.625 3.25,-7.125 7.5,-7.125 1.75,0 4,0.75 5.25,2 z"/>
      </g>
    </symbol>

    <symbol id="Store_Inv">
      <title>Store</title>
      <rect x="0.5" y="0.5" width="71" height="71" ry="6" style="stroke:white"/>
      <g style="fill:white;stroke:none">
	<rect x="18" y="9" width="9" height="3.5"/>
	<path d="m 9.125,22.25 c 0,-0.75 0.25,-1.25 0.625,-1.75 l 4.25,-5.25 c 0.5,-0.625 1.375,-1.25 2.25,-1.25 l 11.25,0 c 3.375,0 6,3.625 6,7 l 0,40.5 c 0,1 -1,2 -2,2 l -20.25,0 c -1,0 -2,-1 -2,-2 z m 2.375,10.75 c 0,1.25 1.625,2.375 2.75,1 l 3.25,-4.25 c 0.375,-0.5 0.5,-0.75 0.5,-1.25 l 0,-10.5 c 0,-3 -3,-0.5 -3.75,0.5 l -2.25,2.75 c -0.5,0.625 -0.5,1 -0.5,1.25 z"/>
	<path d="m 49,40 c 0,0 -1,-10 11,-11 0,0 -0.5,12 -11,11 z"/>
	<path d="m 52,44.5 c 1.25,-1.25 3.5,-2 5.25,-2 4.25,0 7.5,3.5 7.5,7.125 0,3.875 -4.25,14.375 -9,14.375 -1.5,0 -3.25,-1 -3.75,-2 -0.5,1 -2.25,2 -3.75,2 -4.75,0 -9,-10.5 -9,-14.375 0,-3.625 3.25,-7.125 7.5,-7.125 1.75,0 4,0.75 5.25,2 z"/>
      </g>
    </symbol>

    <symbol id="Swimming">
      <title>Swimming</title>
      <path d="m 6,54.5 c 2.5,0 5,-1.75 7.5,-1.75 2.5,0 5,1.75 7.5,1.75 2.5,0 5,-1.75 7.5,-1.75 2.5,0 5,1.75 7.5,1.75 2.5,0 5,-1.75 7.5,-1.75 2.5,0 5,1.75 7.5,1.75 2.5,0 5,-1.75 7.5,-1.75 2.5,0 5,1.75 7.5,1.75 l 0,5.5 c -2.5,0 -5,-1.75 -7.5,-1.75 -2.5,0 -5,1.75 -7.5,1.75 -2.5,0 -5,-1.75 -7.5,-1.75 -2.5,0 -5,1.75 -7.5,1.75 -2.5,0 -5,-1.75 -7.5,-1.75 -2.5,0 -5,1.75 -7.5,1.75 -2.5,0 -5,-1.75 -7.5,-1.75 -2.5,0 -5,1.75 -7.5,1.75 z" style="stroke:none"/>
      <path d="m 41.5,29 13.5,-2.5 c 5,-1 3.5,-8.5 -1.5,-7.5 l -20,3.75 c -2.75,0.5 -3,3.75 -2,5.5 l 5.5,9.5 -20.25,11 c 1.5,0.5 3,1.25 4.5,1.25 2.5,0 5,-1.75 7.5,-1.75 2.5,0 5,1.75 7.5,1.75 2.5,0 5,-1.75 7.5,-1.75 2.5,0 5,1.75 7.5,1.75 0.5,0 1.375,-0.125 2,-0.25 z" style="stroke:none"/>
      <circle cx="56.25" cy="37.75" r="6.75" style="stroke:none"/>
    </symbol>

    <symbol id="Swimming_Inv">
      <title>Swimming</title>
      <rect x="0.5" y="0.5" width="71" height="71" ry="6" style="stroke:white"/>
      <path d="m 6,54.5 c 2.5,0 5,-1.75 7.5,-1.75 2.5,0 5,1.75 7.5,1.75 2.5,0 5,-1.75 7.5,-1.75 2.5,0 5,1.75 7.5,1.75 2.5,0 5,-1.75 7.5,-1.75 2.5,0 5,1.75 7.5,1.75 2.5,0 5,-1.75 7.5,-1.75 2.5,0 5,1.75 7.5,1.75 l 0,5.5 c -2.5,0 -5,-1.75 -7.5,-1.75 -2.5,0 -5,1.75 -7.5,1.75 -2.5,0 -5,-1.75 -7.5,-1.75 -2.5,0 -5,1.75 -7.5,1.75 -2.5,0 -5,-1.75 -7.5,-1.75 -2.5,0 -5,1.75 -7.5,1.75 -2.5,0 -5,-1.75 -7.5,-1.75 -2.5,0 -5,1.75 -7.5,1.75 z" style="fill:white;stroke:none"/>
      <path d="m 41.5,29 13.5,-2.5 c 5,-1 3.5,-8.5 -1.5,-7.5 l -20,3.75 c -2.75,0.5 -3,3.75 -2,5.5 l 5.5,9.5 -20.25,11 c 1.5,0.5 3,1.25 4.5,1.25 2.5,0 5,-1.75 7.5,-1.75 2.5,0 5,1.75 7.5,1.75 2.5,0 5,-1.75 7.5,-1.75 2.5,0 5,1.75 7.5,1.75 0.5,0 1.375,-0.125 2,-0.25 z" style="fill:white;stroke:none"/>
      <circle cx="56.25" cy="37.75" r="6.75" style="fill:white;stroke:none"/>
    </symbol>

    <symbol id="Telephone">
      <title>Telephone</title>
      <g style="stroke:none">
	<path d="m 23,36 c 0,24 11,30 13,30 l 0,-17 c -3,0 -3,-8 -3,-13 0,-5 0,-13 3,-13 L 36,6 C 33,6 23,12 23,36 z"/>
	<path id="ear1" d="m 42,23 a 2,2 0 0 0 2,-2 L 44,8 A 2,2 0 0 0 42,6 l -4,0 0,17 z"/>
	<use y="43" xlink:href="#ear1"/>
      </g>
    </symbol>

    <symbol id="Telephone_Inv">
      <title>Telephone</title>
      <rect x="0.5" y="0.5" width="71" height="71" ry="6" style="stroke:white"/>
      <g style="fill:white;stroke:none">
	<path d="m 23,36 c 0,24 11,30 13,30 l 0,-17 c -3,0 -3,-8 -3,-13 0,-5 0,-13 3,-13 L 36,6 C 33,6 23,12 23,36 z"/>
	<path id="ear2" d="m 42,23 a 2,2 0 0 0 2,-2 L 44,8 A 2,2 0 0 0 42,6 l -4,0 0,17 z"/>
	<use y="43" xlink:href="#ear2"/>
      </g>
    </symbol>

    <symbol id="EmergencyTelephone">
      <title>Emergency Telephone</title>
      <g style="stroke:none">
	<path d="m 23,36 c 0,24 11,30 13,30 l 0,-17 c -3,0 -3,-8 -3,-13 0,-5 0,-13 3,-13 L 36,6 C 33,6 23,12 23,36 z"/>
	<path id="ear3" d="m 42,23 a 2,2 0 0 0 2,-2 L 44,8 A 2,2 0 0 0 42,6 l -4,0 0,17 z"/>
	<use y="43" xlink:href="#ear3"/>
      </g>
    </symbol>

    <symbol id="EmergencyTelephone_Inv">
      <title>Emergency Telephone</title>
      <rect x="0.5" y="0.5" width="71" height="71" ry="6" style="stroke:white"/>
      <g style="fill:white;stroke:none">
	<path d="m 23,36 c 0,24 11,30 13,30 l 0,-17 c -3,0 -3,-8 -3,-13 0,-5 0,-13 3,-13 L 36,6 C 33,6 23,12 23,36 z"/>
	<path id="ear4" d="m 42,23 a 2,2 0 0 0 2,-2 L 44,8 A 2,2 0 0 0 42,6 l -4,0 0,17 z"/>
	<use y="43" xlink:href="#ear4"/>
      </g>
    </symbol>

    <symbol id="Trailhead">
      <title>Trailhead</title>
      <rect x="24.5" y="7" width="7" height="17" ry="1.5" transform="matrix(0.97,0.23,-0.23,0.97,0,0)" style="stroke:none"/>
      <rect x="58.5" y="9.5" width="2.5" height="47" ry="1.25" transform="matrix(0.98,0.19,-0.19,0.98,0,0)" style="stroke:none"/>
      <path d="m 30.5,19.75 a 5,5 0 0 1 9.75,0 l 2,7.75 6.75,1.75 a 2.31,2.31 0 0 1 -1,4.5 l -8,-2 c 0,0 -1.5,-0.5 -1.75,-2 l -0.375,-2 -1.625,7.5 8.75,27 a 3.53,3.53 0 0 1 -6.75,2 l -6.5,-19.75 -4.75,19.75 a 3.53,3.53 0 0 1 -6.75,-2 z" style="stroke:none"/>
      <circle cx="36.75" cy="10" r="4.75" style="stroke:none"/>
    </symbol>

    <symbol id="Trailhead_Inv">
      <title>Trailhead</title>
      <rect x="0.5" y="0.5" width="71" height="71" ry="6" style="stroke:white"/>
      <rect x="24.5" y="7" width="7" height="17" ry="1.5" transform="matrix(0.97,0.23,-0.23,0.97,0,0)" style="fill:white;stroke:none"/>
      <rect x="58.5" y="9.5" width="2.5" height="47" ry="1.25" transform="matrix(0.98,0.19,-0.19,0.98,0,0)" style="fill:white;stroke:none"/>
      <path d="m 30.5,19.75 a 5,5 0 0 1 9.75,0 l 2,7.75 6.75,1.75 a 2.31,2.31 0 0 1 -1,4.5 l -8,-2 c 0,0 -1.5,-0.5 -1.75,-2 l -0.375,-2 -1.625,7.5 8.75,27 a 3.53,3.53 0 0 1 -6.75,2 l -6.5,-19.75 -4.75,19.75 a 3.53,3.53 0 0 1 -6.75,-2 z" style="fill:white;stroke:none"/>
      <circle cx="36.75" cy="10" r="4.75" style="fill:white;stroke:none"/>
    </symbol>

    <symbol id="WheelchairAccessible">
      <title>Wheelchair Accessible</title>
      <g style="stroke:none">
	<circle cx="30" cy="11.75" r="5"/>
	<path d="m 63.5,55.5 a 2.25,2.25 0 0 0 0,-4.5 l -4,0 L 51,36.5 C 50.48,35.61 49.5,35 48.5,35 L 36,35 35.8,31 45,31 a 2.25,2.25 0 0 0 0,-4.5 l -9.5,0 -0.2,-4.3 c -0.18,-2.6 -2.2,-4.75 -4.9,-4.6 -2.7,0.15 -5,2.5 -4.8,5.1 L 26.45,38 c 0.2,2.6 2.45,4.5 5.05,4.5 l 16.5,0 6.5,11.5 c 0.25,0.5 1.3,1.5 2.5,1.5 z"/> 
	<path d="M 23.2,29 A 19,19 0 1 0 50.9,52.5 L 48.2,48 A 15,15 0 1 1 23.5,33.8 z"/> 
      </g>
    </symbol>

    <symbol id="WheelchairAccessible_Inv">
      <title>Wheelchair Accessible</title>
      <rect x="0.5" y="0.5" width="71" height="71" ry="6" style="stroke:white"/>
      <g style="fill:white;stroke:none">
	<circle cx="30" cy="11.75" r="5"/>
	<path d="m 63.5,55.5 a 2.25,2.25 0 0 0 0,-4.5 l -4,0 L 51,36.5 C 50.48,35.61 49.5,35 48.5,35 L 36,35 35.8,31 45,31 a 2.25,2.25 0 0 0 0,-4.5 l -9.5,0 -0.2,-4.3 c -0.18,-2.6 -2.2,-4.75 -4.9,-4.6 -2.7,0.15 -5,2.5 -4.8,5.1 L 26.45,38 c 0.2,2.6 2.45,4.5 5.05,4.5 l 16.5,0 6.5,11.5 c 0.25,0.5 1.3,1.5 2.5,1.5 z"/> 
	<path d="M 23.2,29 A 19,19 0 1 0 50.9,52.5 L 48.2,48 A 15,15 0 1 1 23.5,33.8 z"/> 
      </g>
    </symbol>

    <symbol id="WindSurfing">
      <title>Wind Surfing</title>
      <path d="m 6,60.5 c 2.5,0 5,-1.75 7.5,-1.75 2.5,0 5,1.75 7.5,1.75 2.5,0 5,-1.75 7.5,-1.75 2.5,0 5,1.75 7.5,1.75 2.5,0 5,-1.75 7.5,-1.75 2.5,0 5,1.75 7.5,1.75 2.5,0 5,-1.75 7.5,-1.75 2.5,0 5,1.75 7.5,1.75 l 0,5.5 c -2.5,0 -5,-1.75 -7.5,-1.75 -2.5,0 -5,1.75 -7.5,1.75 -2.5,0 -5,-1.75 -7.5,-1.75 -2.5,0 -5,1.75 -7.5,1.75 -2.5,0 -5,-1.75 -7.5,-1.75 -2.5,0 -5,1.75 -7.5,1.75 -2.5,0 -5,-1.75 -7.5,-1.75 -2.5,0 -5,1.75 -7.5,1.75 z" style="stroke:none"/>
      <path d="m 42,53.75 -19,-48.75 c 17,2 38.5,16 39.75,35.5 z m 19.5,-15.75 c -6.5,-12 -22.75,-8.5 -25.25,-7.625 -1,0.375 -0.5,2.375 1,1.875 12.75,-3.25 20.5,2.75 22.75,7.25 0.5,0.75 2.25,-0.25 1.5,-1.5 z" style="stroke:none"/>
      <path d="m 29,51 -10,0 c -1.5,0 -2.75,-0.75 -3.25,-2.25 l -3.5,-8.25 c 0,0 -0.25,-0.7007 -0.25,-1 0,-2 1.5,-3.5 3.5,-3.5 l 8,0 5.75,-2.5 c 2,-0.75 3,2.25 1.5,3 l -6,2.75 c -0.5,0.25 -1.25,0.25 -1.25,0.25 l -3.5,0 3,7 6.5,0 c 0.5,0 1.25,0.25 1.5,0.5 l 6.75,6.25 c 2.25,2 -1,5.25 -3,3.25 z" style="stroke:none"/>
      <circle cx="13.75" cy="31.75" r="3.5" style="stroke:none"/>
    </symbol>

    <symbol id="WindSurfing_Inv">
      <title>Wind Surfing</title>
      <rect x="0.5" y="0.5" width="71" height="71" ry="6" style="stroke:white"/>
      <path d="m 6,60.5 c 2.5,0 5,-1.75 7.5,-1.75 2.5,0 5,1.75 7.5,1.75 2.5,0 5,-1.75 7.5,-1.75 2.5,0 5,1.75 7.5,1.75 2.5,0 5,-1.75 7.5,-1.75 2.5,0 5,1.75 7.5,1.75 2.5,0 5,-1.75 7.5,-1.75 2.5,0 5,1.75 7.5,1.75 l 0,5.5 c -2.5,0 -5,-1.75 -7.5,-1.75 -2.5,0 -5,1.75 -7.5,1.75 -2.5,0 -5,-1.75 -7.5,-1.75 -2.5,0 -5,1.75 -7.5,1.75 -2.5,0 -5,-1.75 -7.5,-1.75 -2.5,0 -5,1.75 -7.5,1.75 -2.5,0 -5,-1.75 -7.5,-1.75 -2.5,0 -5,1.75 -7.5,1.75 z" style="fill:white;stroke:none"/>
      <path d="m 42,53.75 -19,-48.75 c 17,2 38.5,16 39.75,35.5 z m 19.5,-15.75 c -6.5,-12 -22.75,-8.5 -25.25,-7.625 -1,0.375 -0.5,2.375 1,1.875 12.75,-3.25 20.5,2.75 22.75,7.25 0.5,0.75 2.25,-0.25 1.5,-1.5 z" style="fill:white;stroke:none"/>
      <path d="m 29,51 -10,0 c -1.5,0 -2.75,-0.75 -3.25,-2.25 l -3.5,-8.25 c 0,0 -0.25,-0.7007 -0.25,-1 0,-2 1.5,-3.5 3.5,-3.5 l 8,0 5.75,-2.5 c 2,-0.75 3,2.25 1.5,3 l -6,2.75 c -0.5,0.25 -1.25,0.25 -1.25,0.25 l -3.5,0 3,7 6.5,0 c 0.5,0 1.25,0.25 1.5,0.5 l 6.75,6.25 c 2.25,2 -1,5.25 -3,3.25 z" style="fill:white;stroke:none"/>
      <circle cx="13.75" cy="31.75" r="3.5" style="fill:white;stroke:none"/>
    </symbol>

    <symbol id="blank">
      <title>Blank</title>
      <rect x="1" y="1" width="70" height="70" rx="6" style="fill:none;stroke:black;stroke-width:2"/>
    </symbol>
  </defs>




  <use x="0"   y="0"   xlink:href="#Airport"/>
  <use x="0"   y="72"  xlink:href="#Airport_Inv"/>
  <use x="72"  y="0"   xlink:href="#Amphitheatre"/>
  <use x="72"  y="72"  xlink:href="#Amphitheatre_Inv"/>
  <use x="144" y="0"   xlink:href="#BicycleTrail"/>
  <use x="144" y="72"  xlink:href="#BicycleTrail_Inv"/>
  <use x="216" y="0"   xlink:href="#BoatLaunch"/>
  <use x="216" y="72"  xlink:href="#BoatLaunch_Inv"/>
  <use x="288" y="0"   xlink:href="#BoatTour"/>
  <use x="288" y="72"  xlink:href="#BoatTour_Inv"/>
  <use x="360" y="0"   xlink:href="#BusStop"/>
  <use x="360" y="72"  xlink:href="#BusStop_Inv"/>
  <use x="432" y="0"   xlink:href="#Campfire"/>
  <use x="432" y="72"  xlink:href="#Campfire_Inv"/>
  <use x="504" y="0"   xlink:href="#Campground"/>
  <use x="504" y="72"  xlink:href="#Campground_Inv"/>
  <use x="576" y="0"   xlink:href="#CanoeAccess"/>
  <use x="576" y="72"  xlink:href="#CanoeAccess_Inv"/>
  <use x="648" y="0"   xlink:href="#CrosscountrySkiTrail"/>
  <use x="648" y="72"  xlink:href="#CrosscountrySkiTrail_Inv"/>

  <use x="0"   y="144" xlink:href="#DownhillSkiing"/>
  <use x="0"   y="216" xlink:href="#DownhillSkiing_Inv"/>
  <use x="72"  y="144" xlink:href="#DrinkingWater"/>
  <use x="72"  y="216" xlink:href="#DrinkingWater_Inv"/>
  <use x="144" y="144" xlink:href="#FirstAid"/>
  <use x="144" y="216" xlink:href="#FirstAid_Inv"/>
  <use x="216" y="144" xlink:href="#Fishing"/>
  <use x="216" y="216" xlink:href="#Fishing_Inv"/>
  <use x="288" y="144" xlink:href="#FoodService"/>
  <use x="288" y="216" xlink:href="#FoodService_Inv"/>
  <use x="360" y="144" xlink:href="#FourWheelDriveRoad"/>
  <use x="360" y="216" xlink:href="#FourWheelDriveRoad_Inv"/>
  <use x="432" y="144" xlink:href="#GasStation"/>
  <use x="432" y="216" xlink:href="#GasStation_Inv"/>
  <use x="504" y="144" xlink:href="#Golfing"/>
  <use x="504" y="216" xlink:href="#Golfing_Inv"/>
  <use x="576" y="144" xlink:href="#HorsebackRiding"/>
  <use x="576" y="216" xlink:href="#HorsebackRiding_Inv"/>
  <g style="fill:#0089cf">
  <use x="648" y="144" xlink:href="#Hospital"/>
  <use x="648" y="216" xlink:href="#Hospital_Inv"/>
  </g>
  <use x="0"   y="288" xlink:href="#IceSkating"/>
  <use x="0"   y="360" xlink:href="#IceSkating_Inv"/>
  <use x="72"  y="288" xlink:href="#Information"/>
  <use x="72"  y="360" xlink:href="#Information_Inv"/>
  <use x="144" y="288" xlink:href="#LitterReceptacle"/>
  <use x="144" y="360" xlink:href="#LitterReceptacle_Inv"/>
  <use x="216" y="288" xlink:href="#Lodging"/>
  <use x="216" y="360" xlink:href="#Lodging_Inv"/>
  <use x="288" y="288" xlink:href="#Marina"/>
  <use x="288" y="360" xlink:href="#Marina_Inv"/>
  <use x="360" y="288" xlink:href="#MotorBikeTrail"/>
  <use x="360" y="360" xlink:href="#MotorBikeTrail_Inv"/>
  <use x="432" y="288" xlink:href="#Parking"/>
  <use x="432" y="360" xlink:href="#Parking_Inv"/>
  <use x="504" y="288" xlink:href="#PetsOnLeash"/>
  <use x="504" y="360" xlink:href="#PetsOnLeash_Inv"/>
  <use x="576" y="288" xlink:href="#PicnicArea"/>
  <use x="576" y="360" xlink:href="#PicnicArea_Inv"/>
  <use x="648" y="288" xlink:href="#PostOffice"/>
  <use x="648" y="360" xlink:href="#PostOffice_Inv"/>

  <use x="0"   y="432" xlink:href="#RadiatorWater"/>
  <use x="0"   y="504" xlink:href="#RadiatorWater_Inv"/>
  <use x="72"  y="432" xlink:href="#RangerStation"/>
  <use x="72"  y="504" xlink:href="#RangerStation_Inv"/>
  <use x="144" y="432" xlink:href="#RVCampground"/>
  <use x="144" y="504" xlink:href="#RVCampground_Inv"/>
  <use x="216" y="432" xlink:href="#Recycling"/>
  <use x="216" y="504" xlink:href="#Recycling_Inv"/>
  <use x="288" y="432" xlink:href="#Restrooms"/>
  <use x="288" y="504" xlink:href="#Restrooms_Inv"/>
  <use x="360" y="432" xlink:href="#SanitaryDisposalStation"/>
  <use x="360" y="504" xlink:href="#SanitaryDisposalStation_Inv"/>
  <use x="432" y="432" xlink:href="#Sailing"/>
  <use x="432" y="504" xlink:href="#Sailing_Inv"/>
  <use x="504" y="432" xlink:href="#ScubaDiving"/>
  <use x="504" y="504" xlink:href="#ScubaDiving_Inv"/>
  <use x="576" y="432" xlink:href="#SelfGuidedTrail"/>
  <use x="576" y="504" xlink:href="#SelfGuidedTrail_Inv"/>
  <use x="648" y="432" xlink:href="#Shelter"/>
  <use x="648" y="504" xlink:href="#Shelter_Inv"/>

  <use x="0"   y="576" xlink:href="#Showers"/>
  <use x="0"   y="648" xlink:href="#Showers_Inv"/>
  <use x="72"  y="576" xlink:href="#Sledding"/>
  <use x="72"  y="648" xlink:href="#Sledding_Inv"/>
  <use x="144" y="576" xlink:href="#SnowmobileTrail"/>
  <use x="144" y="648" xlink:href="#SnowmobileTrail_Inv"/>
  <use x="216" y="576" xlink:href="#Stable"/>
  <use x="216" y="648" xlink:href="#Stable_Inv"/>
  <use x="288" y="576" xlink:href="#Store"/>
  <use x="288" y="648" xlink:href="#Store_Inv"/>
  <use x="360" y="576" xlink:href="#Swimming"/>
  <use x="360" y="648" xlink:href="#Swimming_Inv"/>
  <use x="432" y="576" xlink:href="#Telephone"/>
  <use x="432" y="648" xlink:href="#Telephone_Inv"/>
  <g style="fill:#0089cf">
  <use x="504" y="576" xlink:href="#EmergencyTelephone"/>
  <use x="504" y="648" xlink:href="#EmergencyTelephone_Inv"/>
  </g>
  <use x="576" y="576" xlink:href="#Trailhead"/>
  <use x="576" y="648" xlink:href="#Trailhead_Inv"/>
  <use x="648" y="576" xlink:href="#WheelchairAccessible"/>
  <use x="648" y="648" xlink:href="#WheelchairAccessible_Inv"/>


  <use x="0"   y="720" xlink:href="#WindSurfing"/>
  <use x="0"   y="792" xlink:href="#WindSurfing_Inv"/>

  <use x="72"  y="720" xlink:href="#blank"/>

</svg>
