<?xml version="1.0" encoding="UTF-8" standalone="no"?>
<!-- Created with Inkscape (http://www.inkscape.org/) -->
<svg
   xmlns:dc="http://purl.org/dc/elements/1.1/"
   xmlns:cc="http://creativecommons.org/ns#"
   xmlns:rdf="http://www.w3.org/1999/02/22-rdf-syntax-ns#"
   xmlns:svg="http://www.w3.org/2000/svg"
   xmlns="http://www.w3.org/2000/svg"
   xmlns:sodipodi="http://sodipodi.sourceforge.net/DTD/sodipodi-0.dtd"
   xmlns:inkscape="http://www.inkscape.org/namespaces/inkscape"
   width="48px"
   height="48px"
   id="svg17007"
   sodipodi:version="0.32"
   inkscape:version="0.46+devel r20659"
   sodipodi:docname="fill-unknown.svg"
   inkscape:output_extension="org.inkscape.output.svg.inkscape">
  <defs
     id="defs17009" />
  <sodipodi:namedview
     id="base"
     pagecolor="#ffffff"
     bordercolor="#666666"
     borderopacity="1.0"
     inkscape:pageopacity="0.0"
     inkscape:pageshadow="2"
     inkscape:zoom="1.75"
     inkscape:cx="-4.1478891"
     inkscape:cy="-11.685827"
     inkscape:current-layer="layer1"
     showgrid="true"
     inkscape:grid-bbox="true"
     inkscape:document-units="px"
     inkscape:window-width="947"
     inkscape:window-height="491"
     inkscape:window-x="34"
     inkscape:window-y="146"
     inkscape:snap-global="true"
     inkscape:snap-bbox="false" />
  <metadata
     id="metadata17012">
    <rdf:RDF>
      <cc:Work
         rdf:about="">
        <dc:format>image/svg+xml</dc:format>
        <dc:type
           rdf:resource="http://purl.org/dc/dcmitype/StillImage" />
        <dc:title />
      </cc:Work>
    </rdf:RDF>
  </metadata>
  <g
     id="layer1"
     inkscape:label="Layer 1"
     inkscape:groupmode="layer">
    <rect
       y="-18.360001"
       x="36.005005"
       height="48"
       width="48"
       id="rect4991"
       style="fill:none;stroke:none;stroke-width:1;marker:none;display:inline" />
    <g
       transform="matrix(3,0,0,3,-1115.6418,-409.30755)"
       style="fill:#000000"
       id="g7655" />
    <path
       sodipodi:nodetypes="ccsccccsssssccccscccccc"
       style="font-size:24px;font-style:normal;font-variant:normal;font-weight:normal;font-stretch:normal;line-height:100%;writing-mode:lr-tb;text-anchor:start;fill:#000000;fill-opacity:1;stroke:none;font-family:Hegel-Black"
       d="m 25.585509,1.4410277 c 3.953208,4.21e-5 7.458416,0.9519649 10.515022,2.8557474 3.464407,2.1815318 5.196611,5.1166061 5.196611,8.8052439 0,3.09377 -1.059802,5.533051 -3.179007,7.317886 l -5.807812,4.690539 c -1.915604,1.229567 -1.915604,2.558293 -1.915604,4.779425 l -12.736427,0 c -0.698601,-5.43945 1.610004,-6.941062 3.403207,-8.64659 0.489001,-0.47594 2.549206,-2.049383 4.951811,-4.095609 1.497803,-1.275441 2.690005,-1.983131 2.690005,-3.450699 0,-1.031208 -0.428,-1.86414 -1.283802,-2.498777 -0.815202,-0.634594 -1.793404,-0.95188 -2.934406,-0.951922 -1.263603,4.2e-5 -3.436608,0.475961 -3.497608,4.462096 l 0.061,1.963341 -12.5936261,0 c 0,-2.379765 0.489001,-5.513157 1.4672031,-7.2583699 0.937402,-1.7848131 2.343405,-3.2920243 4.218209,-4.5216333 3.097606,-2.0624363 6.350613,-3.450636 11.445224,-3.4506781 m -7.754616,33.0790863 12.471626,0 0,12.394786 -12.471626,0 0,-12.394786"
       id="text2490" />
  </g>
</svg>
