<?xml version="1.0" encoding="UTF-8" standalone="no"?>
<!-- Created with Inkscape (http://www.inkscape.org/) -->
<svg
   xmlns:xml="http://www.w3.org/XML/1998/namespace"
   xmlns:dc="http://purl.org/dc/elements/1.1/"
   xmlns:cc="http://web.resource.org/cc/"
   xmlns:rdf="http://www.w3.org/1999/02/22-rdf-syntax-ns#"
   xmlns:svg="http://www.w3.org/2000/svg"
   xmlns="http://www.w3.org/2000/svg"
   xmlns:xlink="http://www.w3.org/1999/xlink"
   xmlns:sodipodi="http://sodipodi.sourceforge.net/DTD/sodipodi-0.dtd"
   xmlns:inkscape="http://www.inkscape.org/namespaces/inkscape"
   sodipodi:docname="01-title.svg"
   sodipodi:docbase="/home/bryce/src/Inkscape/InkAppPresent"
   height="480.00000pt"
   width="640.00000pt"
   inkscape:version="0.40+cvs"
   sodipodi:version="0.32"
   id="svg1">
  <defs
     id="defs3">
    <linearGradient
       id="linearGradient1222">
      <stop
         id="stop1223"
         offset="0.0000000"
         style="stop-color:#0081ac;stop-opacity:1.0000000;" />
      <stop
         id="stop1722"
         offset="0.29347107"
         style="stop-color:#006d91;stop-opacity:0.62745100;" />
      <stop
         id="stop1224"
         offset="1.0000000"
         style="stop-color:#ffffff;stop-opacity:0.0000000;" />
    </linearGradient>
    <linearGradient
       id="linearGradient1309"
       xlink:href="#linearGradient1222" />
    <linearGradient
       id="linearGradient1673">
      <stop
         id="stop1674"
         offset="0"
         style="stop-color:#000;stop-opacity:1;" />
      <stop
         id="stop1675"
         offset="1"
         style="stop-color:#fff;stop-opacity:1;" />
    </linearGradient>
    <linearGradient
       y2="1.0227273"
       x2="0.49466193"
       y1="-0.13636364"
       x1="0.49466193"
       id="linearGradient1677"
       xlink:href="#linearGradient1222"
       inkscape:collect="always" />
  </defs>
  <sodipodi:namedview
     inkscape:current-layer="svg1"
     inkscape:window-y="136"
     inkscape:window-x="211"
     inkscape:window-height="664"
     inkscape:window-width="919"
     inkscape:cy="290.64195"
     inkscape:cx="320.00000"
     inkscape:zoom="0.75625000"
     inkscape:pageshadow="2"
     inkscape:pageopacity="1.0"
     borderopacity="1.0"
     bordercolor="#666666"
     pagecolor="#ffffff"
     id="base" />
  <metadata
     id="metadata4">
    <rdf:RDF
       id="RDF5">
      <cc:Work
         id="Work6"
         rdf:about="">
        <dc:format
           id="format7">image/svg+xml</dc:format>
        <dc:type
           rdf:resource="http://purl.org/dc/dcmitype/StillImage"
           id="type9" />
      </cc:Work>
    </rdf:RDF>
  </metadata>
  <rect
     y="-12.603310"
     x="0.0000000"
     height="125.00000"
     width="800.00000"
     id="rect1051"
     style="fill:url(#linearGradient1677);fill-opacity:0.75000000;fill-rule:evenodd;stroke:none;stroke-width:3.0000000pt;stroke-linecap:butt;stroke-linejoin:miter;stroke-opacity:1.0000000;" />
  <g
     transform="matrix(1.181942,0.000000,0.000000,1.181942,-52.09282,-16.43612)"
     id="g1046">
    <path
       id="path1178"
       d="M 532.02195,122.72701 L 532.02195,155.32955 L 523.15965,155.32955 L 523.15965,146.62838 C 521.11859,150.10169 518.57628,152.66191 515.53269,154.30905 C 512.52485,155.99199 508.81880,156.83346 504.41453,156.83346 C 498.90019,156.83346 494.49590,155.16842 491.20164,151.83834 C 487.94317,148.57989 486.31394,144.19350 486.31394,138.67916 C 486.31394,132.26968 488.35495,127.43570 492.43699,124.17721 C 496.48320,120.88297 502.55253,119.23584 510.64500,119.23580 L 523.15965,119.23580 L 523.15965,118.32272 C 523.15960,114.02588 521.81683,110.67791 519.13133,108.27877 C 516.40994,105.95135 512.61437,104.78761 507.74461,104.78756 C 504.66516,104.78761 501.65735,105.16359 498.72117,105.91549 C 495.78496,106.70330 492.97409,107.88494 490.28855,109.46041 L 490.28855,100.75924 C 493.54700,99.434427 496.69804,98.431824 499.74168,97.751428 C 502.78528,97.106955 505.77518,96.784690 508.71140,96.784631 C 516.51736,96.784690 522.35394,98.933125 526.22117,103.22994 C 530.08831,107.52687 532.02190,114.02588 532.02195,122.72701"
       style="font-size:110.00000;font-style:normal;font-variant:normal;font-weight:normal;font-stretch:normal;fill:#000000;fill-opacity:1.0000000;stroke:none;stroke-width:3.0000000pt;stroke-linecap:butt;stroke-linejoin:miter;stroke-opacity:1.0000000;font-family:Arial;text-anchor:start;writing-mode:lr;"
       transform="translate(-8.025000,0.000000)" />
    <path
       id="text1044"
       d="M 640.35510,124.39205 L 640.35510,129.01119 L 599.48107,129.01119 C 599.83913,135.45653 601.68321,140.38002 605.01330,143.78170 C 608.30755,147.14760 612.90878,148.83054 618.81701,148.83053 C 622.21867,148.83054 625.51293,148.40085 628.69982,147.54147 C 631.92243,146.64629 635.10928,145.32143 638.26037,143.56686 L 638.26037,152.42916 C 635.07347,153.86146 631.81501,154.95358 628.48498,155.70553 C 625.11905,156.45748 621.71737,156.83346 618.27990,156.83346 C 609.61451,156.83346 602.77533,154.16582 597.76232,148.83053 C 592.71349,143.53106 590.18908,136.35171 590.18908,127.29244 C 590.18908,117.94678 592.58816,110.51677 597.38635,105.00241 C 602.14870,99.523945 608.59401,96.784690 616.72228,96.784631 C 623.99113,96.784690 629.75609,99.255391 634.01720,104.19674 C 638.24241,109.17400 640.35504,115.90577 640.35510,124.39205"
       style="font-size:110.00000;font-style:normal;font-variant:normal;font-weight:normal;font-stretch:normal;fill:#000000;fill-opacity:1.0000000;stroke:none;stroke-width:3.0000000pt;stroke-linecap:butt;stroke-linejoin:miter;stroke-opacity:1.0000000;font-family:Arial;text-anchor:start;writing-mode:lr;"
       transform="translate(-8.025000,0.000000)" />
    <path
       id="path1182"
       d="M 631.43908,121.65280 C 631.40323,116.53239 630.04255,112.43246 627.35705,109.35299 C 624.70727,106.30942 621.19816,104.78761 616.82970,104.78756 C 611.85247,104.78761 607.87786,106.25571 604.90588,109.19186 C 601.93386,112.16391 600.21511,116.33545 599.74963,121.70651 L 631.43908,121.65280"
       style="font-size:110.00000;font-style:normal;font-variant:normal;font-weight:normal;font-stretch:normal;fill:#ffffff;fill-opacity:1.0000000;stroke:none;stroke-width:3.0000000pt;stroke-linecap:butt;stroke-linejoin:miter;stroke-opacity:1.0000000;font-family:Arial;text-anchor:start;writing-mode:lr;"
       transform="translate(-8.025000,0.000000)" />
    <path
       id="path1181"
       d="M 545.94274,146.73580 L 545.94274,177.08248 L 537.02672,177.08248 L 537.02672,98.181116 L 545.94274,98.181116 L 545.94274,106.88229 C 547.80470,103.44484 550.16798,100.92043 553.03258,99.309045 C 555.89714,97.626160 559.29883,96.784690 563.23766,96.784631 C 569.82616,96.784690 575.17935,99.541849 579.29723,105.05612 C 583.41501,110.57048 585.47393,117.82145 585.47399,126.80905 C 585.47393,135.79670 583.41501,143.04766 579.29723,148.56198 C 575.17935,154.07630 569.82616,156.83346 563.23766,156.83346 C 559.29883,156.83346 555.89714,155.99199 553.03258,154.30905 C 550.16798,152.66191 547.80470,150.13750 545.94274,146.73580"
       style="font-size:110.00000;font-style:normal;font-variant:normal;font-weight:normal;font-stretch:normal;fill:#000000;fill-opacity:1.0000000;stroke:none;stroke-width:3.0000000pt;stroke-linecap:butt;stroke-linejoin:miter;stroke-opacity:1.0000000;font-family:Arial;text-anchor:start;writing-mode:lr;"
       transform="translate(-8.025000,0.000000)" />
    <path
       id="path1179"
       d="M 514.29734,126.59420 C 507.10005,126.59423 502.12284,127.47151 499.36570,129.22604 C 496.57272,130.94481 495.17623,133.89891 495.17625,138.08834 C 495.17623,141.41843 496.23255,144.06817 498.34519,146.03756 C 500.38619,147.97116 503.19706,148.93796 506.77781,148.93795 C 511.71919,148.93796 515.67589,147.09388 518.64793,143.40573 C 521.65570,139.71759 523.15960,134.81200 523.15965,128.68893 L 523.15965,126.59420 L 514.29734,126.59420"
       style="font-size:110.00000;font-style:normal;font-variant:normal;font-weight:normal;font-stretch:normal;fill:#ffffff;fill-opacity:1.0000000;stroke:none;stroke-width:3.0000000pt;stroke-linecap:butt;stroke-linejoin:miter;stroke-opacity:1.0000000;font-family:Arial;text-anchor:start;writing-mode:lr;"
       transform="translate(-8.025000,0.000000)" />
    <path
       id="path1177"
       d="M 481.48087,100.38326 L 481.48087,109.13815 C 478.97431,107.67010 476.44990,106.56007 473.90762,105.80807 C 471.40108,105.12778 468.85876,104.78761 466.28067,104.78756 C 460.47986,104.78761 455.98605,106.70330 452.79923,110.53463 C 449.61236,114.40186 448.01894,119.82666 448.01895,126.80905 C 448.01894,133.79149 449.61236,139.21629 452.79923,143.08346 C 455.98605,146.91485 460.47986,148.83054 466.28067,148.83053 C 468.85876,148.83054 471.40108,148.47246 473.90762,147.75631 C 476.44990,147.00437 478.97431,145.91224 481.48087,144.47994 L 481.48087,153.12740 C 479.01012,154.34485 476.44990,155.25794 473.80020,155.86666 C 471.11462,156.51119 468.28585,156.83346 465.31387,156.83346 C 457.14979,156.83346 450.66868,154.11211 445.87051,148.66940 C 441.07233,143.26251 438.67325,135.97573 438.67325,126.80905 C 438.67325,117.49919 441.10814,110.17660 445.97794,104.84127 C 450.77610,99.470234 457.40044,96.784690 465.85098,96.784631 C 468.60811,96.784690 471.29366,97.071148 473.90762,97.644006 C 476.52151,98.288595 479.04593,99.201680 481.48087,100.38326"
       style="font-size:110.00000;font-style:normal;font-variant:normal;font-weight:normal;font-stretch:normal;fill:#000000;fill-opacity:1.0000000;stroke:none;stroke-width:3.0000000pt;stroke-linecap:butt;stroke-linejoin:miter;stroke-opacity:1.0000000;font-family:Arial;text-anchor:start;writing-mode:lr;"
       transform="translate(-8.025000,0.000000)" />
    <path
       id="path1176"
       d="M 431.22946,99.846155 L 431.22946,108.76217 C 428.72291,107.40154 426.10898,106.38103 423.38766,105.70065 C 420.70208,105.02036 417.89121,104.68019 414.95504,104.68014 C 410.55072,104.68019 407.23855,105.39633 405.01852,106.82858 C 402.83426,108.22511 401.74214,110.35564 401.74215,113.22018 C 401.74214,115.40446 402.52990,117.12321 404.10543,118.37643 C 405.68094,119.59391 408.84988,120.77555 413.61227,121.92135 L 416.67379,122.61959 C 422.97584,124.05192 427.46965,126.07503 430.15524,128.68893 C 432.80493,131.26708 434.12980,134.88361 434.12985,139.53854 C 434.12980,144.87383 432.12460,149.08119 428.11422,152.16061 C 424.17539,155.27584 418.71478,156.83346 411.73239,156.83346 C 408.83198,156.83346 405.82417,156.52910 402.70895,155.92037 C 399.55790,155.31165 396.22782,154.41647 392.71872,153.23483 L 392.71872,143.56686 C 396.01298,145.35723 399.25354,146.70000 402.44039,147.59518 C 405.62723,148.49037 408.79617,148.93796 411.94723,148.93795 C 416.13666,148.93796 419.35931,148.16810 421.61520,146.62838 C 423.87102,145.16029 424.99895,143.04766 424.99899,140.29049 C 424.99895,137.71238 424.17539,135.74298 422.52829,134.38229 C 420.91692,133.02163 417.35410,131.71467 411.83981,130.46139 L 408.72457,129.70944 C 403.21024,128.49201 399.23563,126.63004 396.80075,124.12350 C 394.36584,121.54541 393.14840,118.05420 393.14840,113.64987 C 393.14840,108.27882 394.93876,104.12518 398.51950,101.18893 C 402.13602,98.252787 407.27436,96.784690 413.93454,96.784631 C 417.19297,96.784690 420.29030,97.053244 423.22653,97.590295 C 426.09107,98.091655 428.75871,98.843607 431.22946,99.846155"
       style="font-size:110.00000;font-style:normal;font-variant:normal;font-weight:normal;font-stretch:normal;fill:#000000;fill-opacity:1.0000000;stroke:none;stroke-width:3.0000000pt;stroke-linecap:butt;stroke-linejoin:miter;stroke-opacity:1.0000000;font-family:Arial;text-anchor:start;writing-mode:lr;"
       transform="translate(-8.025000,0.000000)" />
    <path
       id="path1175"
       d="M 342.80086,75.944788 L 351.71688,75.944788 L 351.71688,122.83444 L 378.25008,98.181116 L 389.63680,98.181116 L 360.90145,124.92916 L 390.81844,155.32955 L 379.21688,155.32955 L 351.71688,127.39987 L 351.71688,155.32955 L 342.80086,155.32955 L 342.80086,75.944788"
       style="font-size:110.00000;font-style:normal;font-variant:normal;font-weight:normal;font-stretch:normal;fill:#000000;fill-opacity:1.0000000;stroke:none;stroke-width:3.0000000pt;stroke-linecap:butt;stroke-linejoin:miter;stroke-opacity:1.0000000;font-family:Arial;text-anchor:start;writing-mode:lr;"
       transform="translate(-8.025000,0.000000)" />
    <path
       id="path1174"
       d="M 338.47858,120.84713 L 338.47858,155.32955 L 329.61628,155.32955 L 329.61628,121.16940 C 329.61624,115.72673 328.61363,111.66261 326.60847,108.97701 C 324.60322,106.29152 321.61331,104.94874 317.63874,104.94869 C 312.84054,104.94874 309.04497,106.57797 306.25202,109.83639 C 303.49484,113.05909 302.11626,117.46338 302.11628,123.04928 L 302.11628,155.32955 L 293.14655,155.32955 L 293.14655,98.181116 L 302.11628,98.181116 L 302.11628,107.04342 C 304.22889,103.60597 306.73540,101.04575 309.63581,99.362756 C 312.50037,97.644064 315.81254,96.784690 319.57233,96.784631 C 325.80276,96.784690 330.51142,98.807800 333.69831,102.85397 C 336.88511,106.93605 338.47853,112.93376 338.47858,120.84713"
       style="font-size:110.00000;font-style:normal;font-variant:normal;font-weight:normal;font-stretch:normal;fill:#000000;fill-opacity:1.0000000;stroke:none;stroke-width:3.0000000pt;stroke-linecap:butt;stroke-linejoin:miter;stroke-opacity:1.0000000;font-family:Arial;text-anchor:start;writing-mode:lr;"
       transform="translate(-8.025000,0.000000)" />
    <path
       id="path1173"
       d="M 278.57604,79.167444 L 288.29772,79.167444 L 288.29772,155.32955 L 278.57604,155.32955 L 278.57604,79.167444"
       style="font-size:110.00000;font-style:normal;font-variant:normal;font-weight:normal;font-stretch:normal;fill:#000000;fill-opacity:1.0000000;stroke:none;stroke-width:3.0000000pt;stroke-linecap:butt;stroke-linejoin:miter;stroke-opacity:1.0000000;font-family:Arial;text-anchor:start;writing-mode:lr;"
       transform="translate(-8.025000,0.000000)" />
    <path
       id="path1180"
       d="M 576.23570,126.80905 C 576.23566,119.89827 574.87498,114.47347 572.15367,110.53463 C 569.46809,106.63169 565.77994,104.68019 561.08922,104.68014 C 556.39844,104.68019 552.71029,106.63169 550.02477,110.53463 C 547.30340,114.47347 545.94272,119.89827 545.94274,126.80905 C 545.94272,133.71987 547.30340,139.14467 550.02477,143.08346 C 552.71029,146.98646 556.39844,148.93796 561.08922,148.93795 C 565.77994,148.93796 569.46809,146.98646 572.15367,143.08346 C 574.87498,139.14467 576.23566,133.71987 576.23570,126.80905"
       style="font-size:110.00000;font-style:normal;font-variant:normal;font-weight:normal;font-stretch:normal;fill:#ffffff;fill-opacity:1.0000000;stroke:none;stroke-width:3.0000000pt;stroke-linecap:butt;stroke-linejoin:miter;stroke-opacity:1.0000000;font-family:Arial;text-anchor:start;writing-mode:lr;"
       transform="translate(-8.025000,0.000000)" />
    <path
       id="text1805"
       d="M 529.07239,167.42212 C 529.07238,166.18515 528.83475,165.22486 528.35950,164.54126 C 527.87121,163.86419 527.19087,163.52564 526.31848,163.52563 C 525.45259,163.52564 524.77876,163.86419 524.29700,164.54126 C 523.80871,165.22486 523.56457,166.18515 523.56458,167.42212 C 523.56457,168.65259 523.80871,169.60637 524.29700,170.28345 C 524.77876,170.96704 525.45259,171.30884 526.31848,171.30884 C 527.19087,171.30884 527.87121,170.96704 528.35950,170.28345 C 528.83475,169.60637 529.07238,168.65259 529.07239,167.42212 M 530.69348,171.44556 C 530.69347,173.21639 530.32238,174.53149 529.58020,175.39087 C 528.83149,176.25675 527.69217,176.68969 526.16223,176.68970 C 525.58931,176.68969 525.05220,176.64412 524.55090,176.55298 C 524.04309,176.46183 523.55481,176.32511 523.08606,176.14282 L 523.08606,174.48267 C 523.55481,174.74959 524.02356,174.94816 524.49231,175.07837 C 524.95455,175.20857 525.42329,175.27368 525.89856,175.27368 C 526.95975,175.27368 527.75402,174.98397 528.28137,174.40454 C 528.80871,173.81860 529.07238,172.93319 529.07239,171.74829 L 529.07239,170.90845 C 528.74035,171.52043 528.31392,171.97616 527.79309,172.27563 C 527.27225,172.58162 526.64725,172.73462 525.91809,172.73462 C 524.71366,172.73462 523.74361,172.24959 523.00793,171.27954 C 522.26575,170.30949 521.89465,169.02369 521.89465,167.42212 C 521.89465,165.81405 522.26575,164.52499 523.00793,163.55493 C 523.74361,162.57838 524.71366,162.09010 525.91809,162.09009 C 526.64725,162.09010 527.27225,162.24309 527.79309,162.54907 C 528.31392,162.84856 528.74035,163.30755 529.07239,163.92603 L 529.07239,162.34399 L 530.69348,162.34399 L 530.69348,171.44556 M 513.71106,163.93579 C 513.52876,163.82512 513.33019,163.74700 513.11536,163.70142 C 512.90051,163.64283 512.66288,163.61353 512.40247,163.61353 C 511.49100,163.61353 510.79113,163.92603 510.30286,164.55103 C 509.81457,165.18254 509.57043,166.08749 509.57043,167.26587 L 509.57043,172.73462 L 507.93958,172.73462 L 507.93958,162.34399 L 509.57043,162.34399 L 509.57043,163.95532 C 509.90897,163.32382 510.35168,162.85507 510.89856,162.54907 C 511.43892,162.24309 512.09973,162.09010 512.88098,162.09009 C 512.99165,162.09010 513.11535,162.09986 513.25208,162.11938 C 513.38228,162.13242 513.53202,162.15520 513.70129,162.18774 L 513.71106,163.93579 M 494.87317,163.54517 C 494.00728,163.54518 493.32043,163.89999 492.81262,164.60962 C 492.31132,165.32577 492.06067,166.30559 492.06067,167.54907 C 492.06067,168.79257 492.30806,169.77238 492.80286,170.48853 C 493.31067,171.19816 494.00077,171.55298 494.87317,171.55298 C 495.73254,171.55298 496.41613,171.19491 496.92395,170.47876 C 497.42524,169.76262 497.67590,168.78606 497.67590,167.54907 C 497.67590,166.31861 497.42524,165.34530 496.92395,164.62915 C 496.41613,163.90650 495.73254,163.54518 494.87317,163.54517 M 494.87317,162.09009 C 496.27941,162.09010 497.38293,162.57512 498.18372,163.54517 C 498.99100,164.50872 499.39464,165.84335 499.39465,167.54907 C 499.39464,169.24829 498.99100,170.57967 498.18372,171.54321 C 497.38293,172.51978 496.27941,173.00806 494.87317,173.00806 C 493.46040,173.00806 492.35689,172.51978 491.56262,171.54321 C 490.75533,170.57967 490.35168,169.24829 490.35168,167.54907 C 490.35168,165.84335 490.75533,164.50872 491.56262,163.54517 C 492.35689,162.57512 493.46040,162.09010 494.87317,162.09009 M 480.09778,170.38110 L 481.95325,170.38110 L 481.95325,172.73462 L 480.09778,172.73462 L 480.09778,170.38110 M 472.07043,167.10962 L 472.07043,167.94946 L 464.63879,167.94946 C 464.70390,169.12134 465.03918,170.01652 465.64465,170.63501 C 466.24361,171.24699 467.08020,171.55298 468.15442,171.55298 C 468.77290,171.55298 469.37186,171.47485 469.95129,171.31860 C 470.53722,171.15584 471.11665,170.91496 471.68958,170.59595 L 471.68958,172.20728 C 471.11014,172.46769 470.51769,172.66626 469.91223,172.80298 C 469.30025,172.93970 468.68176,173.00806 468.05676,173.00806 C 466.48124,173.00806 465.23775,172.52303 464.32629,171.55298 C 463.40832,170.58944 462.94934,169.28410 462.94934,167.63696 C 462.94934,165.93775 463.38554,164.58684 464.25793,163.58423 C 465.12382,162.58814 466.29569,162.09010 467.77356,162.09009 C 469.09517,162.09010 470.14334,162.53932 470.91809,163.43774 C 471.68631,164.34270 472.07042,165.56666 472.07043,167.10962 M 470.44934,166.61157 C 470.44282,165.68059 470.19543,164.93515 469.70715,164.37524 C 469.22538,163.82187 468.58736,163.54518 467.79309,163.54517 C 466.88814,163.54518 466.16548,163.81210 465.62512,164.34595 C 465.08475,164.88632 464.77226,165.64478 464.68762,166.62134 L 470.44934,166.61157 M 447.52942,171.17212 L 447.52942,176.68970 L 445.90833,176.68970 L 445.90833,162.34399 L 447.52942,162.34399 L 447.52942,163.92603 C 447.86796,163.30103 448.29764,162.84205 448.81848,162.54907 C 449.33931,162.24309 449.95780,162.09010 450.67395,162.09009 C 451.87186,162.09010 452.84517,162.59140 453.59387,163.59399 C 454.34256,164.59661 454.71691,165.91496 454.71692,167.54907 C 454.71691,169.18319 454.34256,170.50155 453.59387,171.50415 C 452.84517,172.50675 451.87186,173.00806 450.67395,173.00806 C 449.95780,173.00806 449.33931,172.85506 448.81848,172.54907 C 448.29764,172.24959 447.86796,171.79061 447.52942,171.17212 M 453.03723,167.54907 C 453.03722,166.29257 452.78983,165.30624 452.29504,164.59009 C 451.80676,163.88046 451.13618,163.52564 450.28333,163.52563 C 449.43046,163.52564 448.75988,163.88046 448.27161,164.59009 C 447.77681,165.30624 447.52942,166.29257 447.52942,167.54907 C 447.52942,168.80559 447.77681,169.79191 448.27161,170.50806 C 448.75988,171.21769 449.43046,171.57251 450.28333,171.57251 C 451.13618,171.57251 451.80676,171.21769 452.29504,170.50806 C 452.78983,169.79191 453.03722,168.80559 453.03723,167.54907 M 433.97473,167.51001 C 432.66613,167.51001 431.76119,167.66952 431.25989,167.98853 C 430.75207,168.30103 430.49817,168.83814 430.49817,169.59985 C 430.49817,170.20532 430.69022,170.68710 431.07434,171.04517 C 431.44543,171.39673 431.95650,171.57251 432.60754,171.57251 C 433.50598,171.57251 434.22538,171.23722 434.76575,170.56665 C 435.31261,169.89608 435.58605,169.00415 435.58606,167.89087 L 435.58606,167.51001 L 433.97473,167.51001 M 437.19739,166.80688 L 437.19739,172.73462 L 435.58606,172.73462 L 435.58606,171.15259 C 435.21496,171.78410 434.75272,172.24959 434.19934,172.54907 C 433.65246,172.85506 432.97863,173.00806 432.17786,173.00806 C 431.17525,173.00806 430.37447,172.70532 429.77551,172.09985 C 429.18306,171.50741 428.88684,170.70988 428.88684,169.70728 C 428.88684,168.54191 429.25793,167.66301 430.00012,167.07056 C 430.73580,166.47160 431.83931,166.17213 433.31067,166.17212 L 435.58606,166.17212 L 435.58606,166.00610 C 435.58605,165.22486 435.34191,164.61614 434.85364,164.17993 C 434.35884,163.75676 433.66874,163.54518 432.78333,163.54517 C 432.22343,163.54518 431.67655,163.61353 431.14270,163.75024 C 430.60884,163.89348 430.09778,164.10833 429.60950,164.39478 L 429.60950,162.81274 C 430.20194,162.57187 430.77486,162.38958 431.32825,162.26587 C 431.88163,162.14869 432.42525,162.09010 432.95911,162.09009 C 434.37837,162.09010 435.43957,162.48072 436.14270,163.26196 C 436.84582,164.04322 437.19738,165.22486 437.19739,166.80688 M 420.42004,162.74438 L 420.42004,164.33618 C 419.96431,164.06926 419.50532,163.86744 419.04309,163.73071 C 418.58736,163.60702 418.12512,163.54518 417.65637,163.54517 C 416.60168,163.54518 415.78462,163.89348 415.20520,164.59009 C 414.62577,165.29322 414.33606,166.27955 414.33606,167.54907 C 414.33606,168.81861 414.62577,169.80493 415.20520,170.50806 C 415.78462,171.20467 416.60168,171.55298 417.65637,171.55298 C 418.12512,171.55298 418.58736,171.48788 419.04309,171.35767 C 419.50532,171.22095 419.96431,171.02238 420.42004,170.76196 L 420.42004,172.33423 C 419.97082,172.55558 419.50532,172.72160 419.02356,172.83228 C 418.53527,172.94946 418.02095,173.00806 417.48059,173.00806 C 415.99621,173.00806 414.81783,172.51327 413.94543,171.52368 C 413.07304,170.54061 412.63684,169.21574 412.63684,167.54907 C 412.63684,165.85637 413.07955,164.52499 413.96497,163.55493 C 414.83736,162.57838 416.04178,162.09010 417.57825,162.09009 C 418.07954,162.09010 418.56782,162.14218 419.04309,162.24634 C 419.51834,162.36354 419.97733,162.52955 420.42004,162.74438 M 404.12122,162.64673 L 404.12122,164.26782 C 403.66548,164.02044 403.19022,163.83489 402.69543,163.71118 C 402.20715,163.58749 401.69608,163.52564 401.16223,163.52563 C 400.36145,163.52564 399.75923,163.65585 399.35559,163.91626 C 398.95845,164.17017 398.75989,164.55754 398.75989,165.07837 C 398.75989,165.47551 398.90311,165.78801 399.18958,166.01587 C 399.47603,166.23723 400.05220,166.45207 400.91809,166.66040 L 401.47473,166.78735 C 402.62056,167.04778 403.43761,167.41561 403.92590,167.89087 C 404.40767,168.35962 404.64855,169.01717 404.64856,169.86353 C 404.64855,170.83358 404.28397,171.59855 403.55481,172.15845 C 402.83866,172.72485 401.84582,173.00806 400.57629,173.00806 C 400.04895,173.00806 399.50207,172.95272 398.93567,172.84204 C 398.36275,172.73136 397.75728,172.56860 397.11926,172.35376 L 397.11926,170.59595 C 397.71822,170.92147 398.30741,171.16561 398.88684,171.32837 C 399.46626,171.49113 400.04244,171.57251 400.61536,171.57251 C 401.37707,171.57251 401.96301,171.43254 402.37317,171.15259 C 402.78332,170.88566 402.98840,170.50155 402.98840,170.00024 C 402.98840,169.53150 402.83866,169.17342 402.53918,168.92603 C 402.24621,168.67863 401.59842,168.44100 400.59583,168.21313 L 400.02942,168.07642 C 399.02681,167.85507 398.30416,167.51653 397.86145,167.06079 C 397.41874,166.59205 397.19739,165.95728 397.19739,165.15649 C 397.19739,164.17994 397.52291,163.42473 398.17395,162.89087 C 398.83150,162.35703 399.76574,162.09010 400.97668,162.09009 C 401.56913,162.09010 402.13228,162.13893 402.66614,162.23657 C 403.18696,162.32773 403.67199,162.46445 404.12122,162.64673 M 379.83411,158.30103 L 381.45520,158.30103 L 381.45520,166.82642 L 386.27942,162.34399 L 388.34973,162.34399 L 383.12512,167.20728 L 388.56458,172.73462 L 386.45520,172.73462 L 381.45520,167.65649 L 381.45520,172.73462 L 379.83411,172.73462 L 379.83411,158.30103 M 371.02551,166.46509 L 371.02551,172.73462 L 369.41418,172.73462 L 369.41418,166.52368 C 369.41418,165.53411 369.23189,164.79517 368.86731,164.30688 C 368.50272,163.81861 367.95910,163.57447 367.23645,163.57446 C 366.36405,163.57447 365.67395,163.87070 365.16614,164.46313 C 364.66483,165.04908 364.41418,165.84986 364.41418,166.86548 L 364.41418,172.73462 L 362.78333,172.73462 L 362.78333,162.34399 L 364.41418,162.34399 L 364.41418,163.95532 C 364.79830,163.33033 365.25402,162.86484 365.78137,162.55884 C 366.30220,162.24635 366.90441,162.09010 367.58801,162.09009 C 368.72082,162.09010 369.57694,162.45794 370.15637,163.19360 C 370.73579,163.93580 371.02550,165.02629 371.02551,166.46509 M 352.49036,162.34399 L 354.10168,162.34399 L 354.10168,172.73462 L 352.49036,172.73462 L 352.49036,162.34399 M 352.49036,160.45923 C 352.49036,159.02044 352.49036,158.30104 352.49036,158.30103 L 354.10168,158.30103 L 354.10168,160.45923 L 352.49036,160.45923 M 341.81653,170.38110 L 343.67200,170.38110 L 343.67200,172.73462 L 341.81653,172.73462 L 341.81653,170.38110 M 320.94739,162.34399 L 322.55872,162.34399 L 324.58997,170.44946 L 326.60168,162.34399 L 328.50598,162.34399 L 330.52747,170.44946 L 332.53918,162.34399 L 334.16028,162.34399 L 331.58215,172.73462 L 329.67786,172.73462 L 327.55872,164.21899 L 325.42981,172.73462 L 323.52551,172.73462 L 320.94739,162.34399 M 300.04895,162.34399 L 301.66028,162.34399 L 303.69153,170.44946 L 305.70325,162.34399 L 307.60754,162.34399 L 309.62903,170.44946 L 311.64075,162.34399 L 313.26184,162.34399 L 310.68372,172.73462 L 308.77942,172.73462 L 306.66028,164.21899 L 304.53137,172.73462 L 302.62708,172.73462 L 300.04895,162.34399 M 279.15051,162.34399 L 280.76184,162.34399 L 282.79309,170.44946 L 284.80481,162.34399 L 286.70911,162.34399 L 288.73059,170.44946 L 290.74231,162.34399 L 292.36340,162.34399 L 289.78528,172.73462 L 287.88098,172.73462 L 285.76184,164.21899 L 283.63293,172.73462 L 281.72864,172.73462 L 279.15051,162.34399"
       style="font-size:20.000000;font-style:normal;font-variant:normal;font-weight:normal;font-stretch:normal;fill:#000000;fill-opacity:1.0000000;stroke:none;stroke-width:3.0000000pt;stroke-linecap:butt;stroke-linejoin:miter;stroke-opacity:1.0000000;font-family:Arial;text-anchor:start;writing-mode:lr;"
       transform="translate(-8.025000,0.000000)" />
    <g
       transform="matrix(0.297633,0.000000,0.000000,0.297633,84.78546,65.43388)"
       id="g839">
      <path
         id="whiteSpace"
         d="M 397.64309,320.25301 L 280.39197,282.51700 L 250.74227,124.83447 L 345.08225,29.146783 L 393.59996,46.667064 L 483.89679,135.61619 L 397.64309,320.25301 z "
         style="font-size:12.000000;fill:#ffffff;fill-rule:evenodd;stroke:#000000;stroke-width:0.93619299pt;" />
      <path
         id="droplet01"
         d="M 476.95792,339.17168 C 495.78197,342.93607 499.54842,356.11361 495.78197,359.87802 C 492.01856,363.64340 482.60650,367.40781 475.07663,361.76014 C 467.54478,356.11361 467.54478,342.93607 476.95792,339.17168 z "
         style="font-size:12.000000;fill:#000000;fill-opacity:1.0000000;fill-rule:evenodd;stroke-width:1.0000000pt;" />
      <path
         id="droplet02"
         d="M 286.46194,340.42914 C 284.62770,340.91835 269.30405,327.71337 257.16909,333.83380 C 245.03722,339.95336 236.89276,353.65666 248.22676,359.27982 C 259.56184,364.90298 267.66433,358.41867 277.60113,351.44119 C 287.53903,344.46477 287.18046,343.12060 286.46194,340.42914 z "
         style="font-size:12.000000;fill:#000000;fill-opacity:1.0000000;fill-rule:evenodd;stroke-width:1.0000000pt;" />
      <path
         id="droplet03"
         d="M 510.35756,306.92856 C 520.59494,304.36879 544.24333,306.92856 540.47688,321.98634 C 536.71354,337.04806 504.71297,331.39827 484.00371,323.87156 C 482.12141,308.81083 505.53237,308.13423 510.35756,306.92856 z "
         style="font-size:12.000000;fill:#000000;fill-opacity:1.0000000;fill-rule:evenodd;stroke-width:1.0000000pt;" />
      <path
         id="mountainDroplet"
         d="M 359.24030,21.362537 C 347.92693,21.362537 336.63470,25.683095 327.96556,34.352230 L 173.87387,188.41466 C 165.37697,196.91140 161.11160,207.95813 160.94269,219.04577 L 160.88418,219.04577 C 160.88418,219.08524 160.94076,219.12322 160.94269,219.16279 C 160.94033,219.34888 160.88418,219.53256 160.88418,219.71865 L 161.14748,219.71865 C 164.09660,230.93917 240.29699,245.24198 248.79866,253.74346 C 261.63771,266.58263 199.56520,276.01151 212.40410,288.85074 C 225.24316,301.68979 289.99433,313.69330 302.83460,326.53254 C 315.67368,339.37161 276.59610,353.04289 289.43532,365.88196 C 302.27439,378.72118 345.40201,362.67257 337.59080,396.16198 C 354.92909,413.50026 391.10302,405.22080 415.32417,387.88252 C 428.16323,375.04345 390.69480,376.17577 403.53397,363.33668 C 416.37304,350.49745 448.78128,350.42820 476.08902,319.71589 C 465.09739,302.62116 429.10801,295.34136 441.94719,282.50217 C 454.78625,269.66311 479.74708,276.18423 533.60644,251.72479 C 559.89837,239.78398 557.72636,230.71459 557.62567,219.71865 C 557.62356,219.48727 557.62567,219.27892 557.62567,219.04577 L 557.56716,219.04577 C 557.39830,207.95812 553.10345,196.91140 544.60673,188.41466 L 390.54428,34.352230 C 381.87515,25.683095 370.55366,21.362537 359.24030,21.362537 z M 357.92378,41.402939 C 362.95327,41.533963 367.01541,45.368018 374.98006,50.530832 L 447.76915,104.50827 C 448.56596,105.02498 449.32484,105.56400 450.02187,106.11735 C 450.71890,106.67062 451.35560,107.25745 451.95277,107.84347 C 452.54997,108.42842 453.09281,109.01553 453.59111,109.62808 C 454.08837,110.24052 454.53956,110.86661 454.93688,111.50048 C 455.33532,112.13538 455.69164,112.78029 455.99010,113.43137 C 456.28877,114.08363 456.52291,114.75639 456.72150,115.42078 C 456.92126,116.08419 457.08982,116.73973 457.18961,117.41019 C 457.28949,118.08184 457.33588,118.75535 457.33588,119.42886 L 414.21245,98.598549 L 409.91180,131.16055 L 386.18512,120.04324 L 349.55654,144.50131 L 335.54288,96.170300 L 317.49190,138.44530 L 267.08369,143.47735 L 267.63956,121.03795 C 267.63956,115.64823 296.69685,77.915899 314.39075,68.932902 L 346.77721,45.674327 C 351.55594,42.576634 354.90608,41.324327 357.92378,41.402939 z M 290.92738,261.61333 C 313.87149,267.56365 339.40299,275.37038 359.88393,275.50997 L 360.76161,284.72563 C 343.22350,282.91785 306.11346,274.45012 297.36372,269.98057 L 290.92738,261.61333 z "
         style="font-size:12.000000;fill:#000000;fill-opacity:1.0000000;fill-rule:evenodd;stroke-width:1.0000000pt;" />
    </g>
  </g>
  <rect
     transform="scale(1.000000,-1.000000)"
     y="-614.87604"
     x="1.6551374e-07"
     height="125.00000"
     width="800.00000"
     id="rect1814"
     style="fill:url(#linearGradient1677);fill-opacity:0.75000000;fill-rule:evenodd;stroke:none;stroke-width:3.0000000pt;stroke-linecap:butt;stroke-linejoin:miter;stroke-opacity:1.0000000;" />
  <text
     transform="translate(5.078125e-2,166.2625)"
     sodipodi:linespacing="120%"
     id="text1815"
     y="311.49857"
     x="400"
     style="line-height:120%;writing-mode:lr;text-anchor:middle;font-family:Arial;stroke-opacity:1.0000000;stroke-linejoin:miter;stroke-linecap:butt;stroke-width:3.0000000pt;stroke:none;fill-opacity:1.0000000;fill:#000000;font-stretch:normal;font-weight:normal;font-variant:normal;font-style:normal;font-size:26.000000"
     xml:space="preserve"><tspan
       id="tspan3"
       sodipodi:role="line"
       y="311.49857"
       x="400.00000">Bryce Harrington</tspan></text>
  <text
     sodipodi:linespacing="100%"
     id="text1113"
     y="342.61221"
     x="110.56248"
     style="font-size:56.000000;font-style:normal;font-variant:normal;font-weight:normal;font-stretch:normal;fill:#000000;fill-opacity:1.0000000;stroke:none;stroke-width:3.0000000pt;stroke-linecap:butt;stroke-linejoin:miter;stroke-opacity:1.0000000;font-family:Arial;text-anchor:start;writing-mode:lr-tb"
     xml:space="preserve"><tspan
       id="tspan2"
       sodipodi:role="line"
       y="342.61221"
       x="110.56248">Application Architecture</tspan></text>
</svg>
