<?xml version="1.0" encoding="UTF-8" standalone="no"?>
<!-- Created with Inkscape (http://www.inkscape.org/) -->
<svg
   xmlns:dc="http://purl.org/dc/elements/1.1/"
   xmlns:cc="http://creativecommons.org/ns#"
   xmlns:rdf="http://www.w3.org/1999/02/22-rdf-syntax-ns#"
   xmlns:svg="http://www.w3.org/2000/svg"
   xmlns="http://www.w3.org/2000/svg"
   xmlns:xlink="http://www.w3.org/1999/xlink"
   xmlns:sodipodi="http://sodipodi.sourceforge.net/DTD/sodipodi-0.dtd"
   xmlns:inkscape="http://www.inkscape.org/namespaces/inkscape"
   width="48px"
   height="48px"
   id="svg5668"
   sodipodi:version="0.32"
   inkscape:version="0.46+devel r20653"
   sodipodi:docname="inkscape.svg"
   inkscape:output_extension="org.inkscape.output.svg.inkscape">
  <defs
     id="defs5670">
    <clipPath
       clipPathUnits="userSpaceOnUse"
       id="clipoutline1">
      <path
         id="outline1"
         d="M 54.1,12.5 12.9,54.7 C -2.7,70.3 23,69 32.3,74.9 36.6,77.7 18.5,81.3 22.2,85 c 3.6,3.7 21.7,7.1 25.3,10.7 3.6,3.7 -7.3,7.6 -3.7,11.3 3.5,3.7 11.9,0.2 13.4,8.6 1.1,6.2 15.4,3.1 21.8,-2.2 4,-3.4 -6.9,-3.4 -3.3,-7.1 9,-9.1 17,-4.1 20.3,-12.5 1.8,-4.5 -13.6,-7.7 -9.5,-10.6 9.8,-6.9 45.8,-10.4 29.2,-27 L 73,12.5 c -5.3,-5 -14,-5 -18.9,0 z m -9.9,64.7 c 0.9,0 30.8,4 19.3,7.1 -4.4,1.2 -24.6,-7.1 -19.3,-7.1 z m 57.2,16.6 c 0,2.1 16.3,3.3 15.4,-0.5 -1.3,-6.4 -13.6,-5.9 -15.4,0.5 z m -69.5,11.1 c 3.7,3.2 9.3,-0.7 11.1,-5.2 -3.6,-4.7 -16.9,0.3 -11.1,5.2 z m 67.5,-6.7 c -4.6,4.2 0.8,8.6 5.3,5.7 1.2,-0.8 -0.1,-4.7 -5.3,-5.7 z" />
    </clipPath>
    <linearGradient
       inkscape:collect="always"
       xlink:href="#WhiteTransparent"
       id="linearGradient3731"
       gradientUnits="userSpaceOnUse"
       x1="0"
       y1="128"
       x2="0"
       y2="76" />
    <linearGradient
       id="WhiteTransparent"
       gradientUnits="userSpaceOnUse">
      <stop
         style="stop-color:white;stop-opacity:1"
         offset="0"
         id="stop7" />
      <stop
         style="stop-color:white;stop-opacity:0"
         offset="1"
         id="stop9" />
    </linearGradient>
    <linearGradient
       inkscape:collect="always"
       xlink:href="#linearGradient3391"
       id="linearGradient3733"
       gradientUnits="userSpaceOnUse"
       x1="80"
       y1="20"
       x2="60"
       y2="40" />
    <linearGradient
       gradientUnits="userSpaceOnUse"
       id="linearGradient3391">
      <stop
         id="stop3393"
         offset="0"
         style="stop-color:white;stop-opacity:1" />
      <stop
         id="stop3395"
         offset="1"
         style="stop-color:white;stop-opacity:0" />
    </linearGradient>
    <linearGradient
       inkscape:collect="always"
       xlink:href="#WhiteTransparent"
       id="linearGradient3735"
       gradientUnits="userSpaceOnUse"
       x1="33"
       y1="35"
       x2="58"
       y2="60" />
    <linearGradient
       inkscape:collect="always"
       xlink:href="#BlackTransparent"
       id="linearGradient3737"
       gradientUnits="userSpaceOnUse"
       x1="0"
       y1="128"
       x2="0"
       y2="64" />
    <linearGradient
       id="BlackTransparent"
       gradientUnits="userSpaceOnUse">
      <stop
         style="stop-color:black;stop-opacity:1"
         offset="0"
         id="stop12" />
      <stop
         style="stop-color:black;stop-opacity:0"
         offset="1"
         id="stop14" />
    </linearGradient>
    <linearGradient
       y2="50"
       x2="90"
       y1="20"
       x1="60"
       gradientUnits="userSpaceOnUse"
       id="linearGradient22339"
       xlink:href="#WhiteTransparent"
       inkscape:collect="always" />
  </defs>
  <sodipodi:namedview
     id="base"
     pagecolor="#ffffff"
     bordercolor="#666666"
     borderopacity="1.0"
     inkscape:pageopacity="0.0"
     inkscape:pageshadow="2"
     inkscape:zoom="2.4748737"
     inkscape:cx="27.364726"
     inkscape:cy="14.750531"
     inkscape:current-layer="layer1"
     showgrid="false"
     inkscape:grid-bbox="true"
     inkscape:document-units="px"
     gridtolerance="1"
     inkscape:window-width="770"
     inkscape:window-height="575"
     inkscape:window-x="255"
     inkscape:window-y="52"
     inkscape:snap-global="true">
    <inkscape:grid
       type="xygrid"
       id="grid7154"
       empspacing="5"
       visible="true"
       enabled="true" />
  </sodipodi:namedview>
  <metadata
     id="metadata5673">
    <rdf:RDF>
      <cc:Work
         rdf:about="">
        <dc:format>image/svg+xml</dc:format>
        <dc:type
           rdf:resource="http://purl.org/dc/dcmitype/StillImage" />
        <dc:title></dc:title>
      </cc:Work>
    </rdf:RDF>
  </metadata>
  <g
     id="layer1"
     inkscape:label="Layer 1"
     inkscape:groupmode="layer">
    <g
       id="inkscape_options"
       transform="matrix(0.4010472,0,0,0.4010472,-1.2023981,-1.4963142)">
      <use
         class="outline-big"
         xlink:href="#outline1"
         id="use32"
         style="opacity:0.1;fill:none;stroke:none"
         x="0"
         y="0"
         width="128"
         height="128" />
      <use
         class="outline-small"
         xlink:href="#outline1"
         id="use34"
         style="opacity:0.2;fill:none;stroke:none"
         x="0"
         y="0"
         width="128"
         height="128" />
      <use
         class="black;"
         xlink:href="#outline1"
         id="use36"
         x="0"
         y="0"
         width="128"
         height="128" />
      <use
         clip-path="url(#clipoutline1)"
         xlink:href="#outline1"
         class="stroke-highlight"
         id="use38"
         style="opacity:0.2;fill:none;stroke:none"
         x="0"
         y="0"
         width="128"
         height="128" />
      <use
         style="opacity:0.5;fill:url(#linearGradient3731)"
         class="specularity"
         xlink:href="#outline1"
         id="use40"
         x="0"
         y="0"
         width="128"
         height="128" />
      <use
         style="opacity:0.25;fill:url(#linearGradient3733);fill-opacity:1"
         class="low-specularity"
         xlink:href="#outline1"
         id="use42"
         x="0"
         y="0"
         width="128"
         height="128" />
      <path
         class="specularity"
         style="opacity:0.5;fill:url(#linearGradient3735)"
         d="m 16.8,56.9 c -11.1,11 8.4,7.9 23.4,13.8 l 31,-54.5 c -4.7,-4.8 -10.7,-4.4 -15,0 z"
         id="path44" />
      <path
         style="fill:url(#linearGradient3737)"
         class="shade"
         d="m 8.9,61.7 c -2.6,9.4 13.4,9.2 22.3,12.7 1.5,-0.9 2.3,-2 1.2,-3 C 25.2,67.8 11,67.8 8.9,61.7 z m 111.1,1 c -2.7,8.9 -25.5,12.3 -33.4,17 -1.1,1.1 -0.4,2.1 0.9,3.1 9.8,-4.9 35.7,-8.7 32.5,-20.1 z m -75.7,11 c -3.2,0 -5.2,1.6 0.6,3.7 7.7,0.6 18.8,3.7 21.2,4.7 3.7,-6.6 -21,-8.4 -21.8,-8.4 z m -21.1,8.5 c -1.3,0.9 -2,1.9 -0.9,2.9 3.5,3.7 21.5,7.1 25.2,10.7 0.9,-1.2 1.2,-2.4 0.1,-3.6 -3.4,-3.4 -19.4,-6.6 -24.4,-10 z m 79.8,9.1 c -0.7,0.8 -1.3,1.7 -1.5,2.7 0,2.1 15.4,3.4 15.4,-0.6 -0.3,-0.7 -0.6,-1.4 -1.2,-2.1 -2.8,1.6 -9.7,1.2 -12.7,0 z m -7.4,0.4 c -3.4,7.1 -11.3,2.5 -19.8,11.1 -1.4,1.5 -0.6,2.3 0.7,3 8.7,-8.2 16.7,-2.9 19.7,-11.8 0.2,-0.9 0,-1.6 -0.6,-2.3 z m -54,7 c -2.4,3.2 -6.6,5.3 -9.6,2.7 -0.3,-0.2 -0.5,-0.5 -0.7,-0.8 -1.1,1.4 -1.1,2.9 0.7,4.5 3.6,3.1 9.3,-0.8 11,-5.2 -0.3,-0.5 -0.9,-0.9 -1.4,-1.2 z m 56.7,1 c -2.3,3.7 2.3,6.7 6.4,4.4 0.6,-0.7 0.5,-2.1 -0.6,-3.5 -2.4,1.2 -4.7,0.5 -5.8,-0.9 z m -54.4,3.9 c -0.9,1.1 -1.2,2.4 -0.1,3.6 3.6,3.6 12,0.1 13.5,8.6 1.1,6.1 14.7,2.9 21.5,-2 1.5,-1.64 0.8,-2.7 -0.5,-3.5 -7.1,4.8 -20,7.7 -21,1.9 -1.5,-8.5 -9.8,-5.1 -13.4,-8.6 z"
         id="path46" />
      <path
         id="icecap"
         class="full-specularity"
         style="fill:url(#linearGradient22339)"
         d="m 70.5,15.5 16.3,16.6 c 1.5,1.5 1.5,4.6 0.6,5.5 L 79.3,31 77.7,40.7 71,37.1 60.1,44 56.5,29.5 50.7,42.1 36.2,42 c -2.8,0 -2.4,-2.9 0.5,-5.8 5.7,-6.3 16.8,-17 20.3,-20.7 3.6,-3.7 9.9,-3.6 13.5,0 z" />
    </g>
  </g>
</svg>
