<?xml version="1.0" encoding="UTF-8" standalone="no"?>
<!-- Created with Inkscape (http://www.inkscape.org/) -->

<svg xmlns:dc="http://purl.org/dc/elements/1.1/" xmlns:cc="http://creativecommons.org/ns#" xmlns:rdf="http://www.w3.org/1999/02/22-rdf-syntax-ns#" xmlns:svg="http://www.w3.org/2000/svg" xmlns="http://www.w3.org/2000/svg" xmlns:xlink="http://www.w3.org/1999/xlink" xmlns:sodipodi="http://sodipodi.sourceforge.net/DTD/sodipodi-0.dtd" xmlns:inkscape="http://www.inkscape.org/namespaces/inkscape" width="100px" height="100px" viewBox="0 0 100 100" id="SVGRoot" version="1.1" inkscape:version="0.91pre2 r13624" sodipodi:docname="seamless_pattern.svg" inkscape:export-xdpi="96" inkscape:export-ydpi="96">
  <sodipodi:namedview id="base" pagecolor="#ffffff" bordercolor="#666666" borderopacity="1.0" inkscape:pageopacity="0.0" inkscape:pageshadow="2" inkscape:zoom="0.7071068" inkscape:cx="102.9673" inkscape:cy="-106.3048" inkscape:document-units="px" inkscape:current-layer="patternLayer" showgrid="false" units="px" inkscape:window-width="1280" inkscape:window-height="958" inkscape:window-x="0" inkscape:window-y="27" inkscape:window-maximized="1" fit-margin-top="0" fit-margin-left="0" fit-margin-right="0" fit-margin-bottom="0" borderlayer="true" />
  <defs id="defs4">
    <marker inkscape:stockid="Arrow2Mend" orient="auto" refY="0.0" refX="0.0" id="Arrow2Mend" style="overflow:visible;" inkscape:isstock="true">
      <path id="path19572" style="fill-rule:evenodd;stroke-width:0.625;stroke-linejoin:round;stroke:#000000;stroke-opacity:1;fill:#000000;fill-opacity:1" d="M 8.7185878,4.0337352 L -2.2072895,0.016013256 L 8.7185884,-4.0017078 C 6.9730900,-1.6296469 6.9831476,1.6157441 8.7185878,4.0337352 z " transform="scale(0.6) rotate(180) translate(0,0)" />
    </marker>
    <marker inkscape:stockid="Arrow2Lend" orient="auto" refY="0.0" refX="0.0" id="Arrow2Lend" style="overflow:visible;" inkscape:isstock="true">
      <path id="path19566" style="fill-rule:evenodd;stroke-width:0.625;stroke-linejoin:round;stroke:#000000;stroke-opacity:1;fill:#000000;fill-opacity:1" d="M 8.7185878,4.0337352 L -2.2072895,0.016013256 L 8.7185884,-4.0017078 C 6.9730900,-1.6296469 6.9831476,1.6157441 8.7185878,4.0337352 z " transform="scale(1.1) rotate(180) translate(1,0)" />
    </marker>
    <clipPath clipPathUnits="userSpaceOnUse" id="patternClipPath">
      <rect y="0" x="0" height="100" width="100" id="clipPathRect" style="color:#000000;display:inline;overflow:visible;visibility:visible;opacity:1;fill:#ffff00;fill-opacity:1;fill-rule:nonzero;stroke:none;stroke-width:20;stroke-linecap:square;stroke-linejoin:miter;stroke-miterlimit:4;stroke-dasharray:none;stroke-dashoffset:1.09889996;stroke-opacity:1;marker:none;enable-background:accumulate" />
    </clipPath>
  </defs>
  <metadata id="metadata7">
    <rdf:RDF>
      <cc:Work rdf:about="">
        <dc:format>image/svg+xml</dc:format>
        <dc:type rdf:resource="http://purl.org/dc/dcmitype/StillImage" />
        <dc:title></dc:title>
      </cc:Work>
    </rdf:RDF>
  </metadata>
  <inkscape:_templateinfo id="_templateinfo10">
    <inkscape:_name id="_name12">Seamless Pattern</inkscape:_name>
    <inkscape:_shortdesc id="_shortdesc14">Seamless Pattern</inkscape:_shortdesc>
    <inkscape:_keywords id="_keywords16">Seamless Pattern</inkscape:_keywords>
  </inkscape:_templateinfo>
  <g inkscape:groupmode="layer" id="patternLayer" inkscape:label="Pattern Layer">
    <use style="opacity:0.24100001" sodipodi:insensitive="true" height="100%" width="100%" id="phantomBottom" xlink:href="#designBottom" y="0" x="0" />
    <use style="opacity:0.24100001" sodipodi:insensitive="true" height="100%" width="100%" id="phantomTop" xlink:href="#designTop" y="0" x="0" />
    <g inkscape:label="Full Pattern" clip-path="url(#patternClipPath)" id="fullPattern">
      <g transform="scale(1.0,1.0)" inkscape:groupmode="layer" id="designBottom" inkscape:label="Design Bottom">
        <rect y="-7.105427e-15" x="0" height="100" width="100" id="rect9111" style="color:#000000;display:inline;overflow:visible;visibility:visible;opacity:1;fill:#ffb12a;fill-opacity:1;fill-rule:nonzero;stroke:none;stroke-width:0;stroke-linecap:square;stroke-linejoin:miter;stroke-miterlimit:4;stroke-dasharray:none;stroke-dashoffset:1.0989;stroke-opacity:1;marker:none;enable-background:accumulate" />
      </g>
      <g transform="scale(1.0,1.0)" inkscape:groupmode="layer" id="designTop" inkscape:label="Design Top">
        <path id="text1784" d="M 3.238234,69.80676 C 3.159354,69.83297 3.094374,69.93222 3.036694,70.01073 2.660932,70.50659 2.509569,71.14994 2.275964,71.71774 1.916858,72.59433 1.496519,73.43397 1.155399,74.31888 0.8789607,74.26616 0.6222696,74.15725 0.3433261,74.12061 -2.244175,73.76628 -4.918972,74.23626 -7.312925,75.25835 -8.527103,75.75753 -9.63415,76.45362 -10.66688,77.26372 -12.75334,78.90125 -14.71033,80.75258 -16.23006,82.93048 -17.3402,84.57313 -18.32475,86.31708 -19.20132,88.09635 -19.89458,89.54883 -20.56114,91.10931 -20.71606,92.72675 -20.77582,93.54488 -20.69288,94.42704 -20.13513,95.07508 -19.48068,95.77388 -18.44182,95.96233 -17.53637,95.79024 -16.57723,95.60899 -15.86159,94.85437 -15.19381,94.19589 -13.31333,92.24569 -11.57624,90.07859 -10.52805,87.56107 -9.893955,86.045 -9.414104,84.39034 -9.622614,82.73138 -9.717263,82.12657 -9.822788,81.48673 -10.19986,80.99121 -10.44332,80.64384 -11.07786,80.68522 -11.29442,81.03796 -11.4565,81.30563 -11.52129,81.62288 -11.45154,81.93069 -11.07324,82.37787 -10.7417,82.99098 -10.71242,83.58887 -10.64261,84.76715 -11.02511,85.8442 -11.46405,86.91766 -12.21763,88.76234 -13.4137,90.42726 -14.71997,91.92279 -15.42483,92.71043 -16.17029,93.51774 -17.10023,94.04449 -17.50409,94.23627 -17.90814,94.34795 -18.35517,94.37584 -18.88829,94.29808 -19.13033,93.76945 -19.21284,93.28601 -19.34857,92.31026 -19.11882,91.36615 -18.82327,90.44575 -17.65221,87.05977 -15.65469,83.93067 -13.15757,81.37263 -11.79945,80.00732 -10.31271,78.80439 -8.677315,77.7798 -7.088768,76.82306 -5.334265,76.05826 -3.499093,75.76403 -2.117769,75.55863 -0.6818313,75.59706 0.6382789,76.10565 -0.1411339,77.75352 -0.9600896,79.3498 -1.7669,80.98437 -3.032205,83.51488 -4.262276,86.06052 -5.53533,88.58728 -6.677366,90.80843 -7.772719,93.06989 -8.822009,95.33603 -9.561548,96.97536 -10.27288,98.63291 -10.86176,100.3343 -11.31342,100.4077 -11.74775,100.4261 -12.19881,100.5037 -13.4671,100.7388 -14.81726,100.8803 -16.00473,101.4172 -17.84832,102.2804 -19.50816,103.5165 -20.89032,105.0125 -21.45263,105.6504 -22.04725,106.3526 -22.21588,107.2094 -22.32585,107.7275 -22.0502,108.2104 -21.72173,108.5849 -21.17062,109.2314 -20.25409,109.3835 -19.44738,109.2614 -18.29316,109.0913 -17.20712,108.6161 -16.2109,108.0271 -14.37604,106.8726 -12.84761,105.3125 -11.36962,103.7429 -10.77571,103.0841 -10.13793,102.4295 -9.678432,101.6655 -8.171192,101.4733 -6.61616,101.2244 -5.183592,100.7076 -3.893738,100.2593 -2.810482,99.48215 -1.78978,98.58038 0.0454981,96.95559 1.634338,95.00779 2.840713,92.87815 4.40117,90.12299 5.206009,87.01968 5.384976,83.86351 5.468634,82.22706 5.497595,80.52013 5.113899,78.91866 4.913043,78.00778 4.449005,77.23971 4.045635,76.41084 3.721181,75.87629 3.190872,75.46823 2.740653,75.03969 3.005348,74.33939 3.306751,73.58329 3.579811,72.88619 3.824769,72.23437 4.086687,71.60373 4.095858,70.89678 4.083882,70.63169 4.072056,70.39047 3.929562,70.16789 3.822473,69.92207 3.475146,69.72799 3.238234,69.80676 Z M 83.93502,29.09409 C 83.48973,29.40383 83.19721,29.92338 82.96926,30.39695 82.47058,31.58921 82.11941,32.807 81.77345,34.05256 81.76003,34.43451 81.4535,34.65896 81.16978,34.86676 79.67776,35.99334 77.97843,36.87902 76.32075,37.73199 74.83837,38.43589 73.28152,38.81272 71.70726,39.25801 69.97692,39.70952 68.19797,40.22636 66.52666,40.86841 64.006,41.82828 61.51395,43.08754 59.57633,45.00222 58.18365,46.38676 57.06058,48.10265 56.64514,50.04613 56.29211,51.68122 56.59486,53.39119 57.44213,54.82583 57.62278,55.13186 57.98678,55.35219 58.33625,55.18566 58.67851,55.06932 58.67095,54.70778 58.65622,54.41367 58.57143,53.59786 58.40533,52.75724 58.31799,51.94231 58.18525,50.43277 58.53914,48.88731 59.38851,47.63867 60.56654,45.88917 62.33683,44.62435 64.14996,43.59805 65.94927,42.55068 67.93413,41.91333 69.93526,41.37626 72.17527,40.82347 74.45739,40.17275 76.53144,39.14989 78.67526,38.07081 80.76744,36.80685 82.55012,35.18337 83.64975,34.18607 84.52399,32.99774 85.12504,31.64154 85.47305,30.82179 85.69191,29.76168 85.27196,28.92445 85.23932,28.86262 85.21325,28.89507 85.15009,28.8846 84.74478,28.8712 84.29884,28.89843 83.93502,29.09409 Z M 2.020873,76.8277 C 2.477441,77.31594 2.930471,77.84873 3.246245,78.44254 3.714701,79.36722 3.926223,80.37121 4.033126,81.39781 4.24343,83.65148 3.952563,85.87833 3.34072,88.05098 2.781297,90.09735 1.843627,92.12116 0.5755898,93.8236 -0.7359367,95.55539 -2.228323,97.10019 -4.102679,98.22875 -5.71508,99.20332 -7.572193,99.65321 -9.403897,100.002 -9.232936,99.41391 -9.001611,98.8188 -8.765237,98.25467 -7.60965,95.58417 -6.21738,93.06951 -4.875982,90.4891 -3.658174,88.26255 -2.501193,86.05293 -1.223671,83.86004 -0.0566712,81.56916 1.044488,79.20612 2.020873,76.8277 Z M 67.17132,47.35171 C 66.76308,47.8704 66.51385,48.54299 66.24877,49.14077 65.47765,51.06493 64.84574,53.04497 64.13271,54.99091 63.7556,54.91136 63.42384,54.83493 63.03727,54.83492 62.23242,54.89113 61.38296,54.9939 60.64806,55.33493 60.10544,55.56964 59.64559,56.1496 59.64253,56.7596 59.63005,57.41897 59.92278,58.02551 60.26076,58.58062 60.45345,58.88783 60.88475,58.99424 61.1946,58.81853 61.45325,58.6137 61.17132,58.20992 61.14904,57.92681 61.03188,57.51476 61.14806,56.94943 61.54772,56.70832 62.16395,56.36625 62.91437,56.30889 63.61353,56.37241 63.32011,57.20244 63.01228,58.01454 62.73549,58.85044 62.0531,60.86245 61.35157,62.87028 60.33594,64.74267 59.93025,65.43738 59.46542,66.22031 58.76543,66.65711 58.52183,66.85472 58.17762,66.684 58.11519,66.37705 57.99673,65.70711 58.22984,65.06064 58.22572,64.38981 58.2517,63.98395 57.72223,63.87362 57.4534,64.06948 56.98233,64.30223 56.94321,64.89906 56.89334,65.37032 56.85217,66.12001 56.83624,66.90919 57.02755,67.63979 57.12404,68.09649 57.55649,68.32765 57.96489,68.48609 58.30414,68.60732 58.68582,68.80454 59.01949,68.56125 60.15425,67.89242 60.88035,66.79208 61.51697,65.66884 62.32551,64.18947 62.95398,62.64533 63.55884,61.0757 64.11525,59.65075 64.54142,58.14964 64.99363,56.68888 65.40306,56.82184 65.82087,56.94653 66.25215,56.96547 67.4582,56.96762 68.65164,56.5129 69.73359,56.0137 70.23123,55.76412 70.70142,55.53013 71.14798,55.19466 71.45352,54.96511 71.5843,54.58699 71.38606,54.26114 71.27716,54.13945 71.07867,54.163 70.93973,54.18249 69.9597,54.44257 69.08751,54.94941 68.10745,55.21196 67.27461,55.49008 66.36117,55.46801 65.51309,55.30763 66.1013,53.66442 66.61772,51.9747 67.14734,50.31156 67.41753,49.40699 67.78297,48.53109 67.90238,47.59092 68.00702,47.13051 67.38792,47.10696 67.17132,47.35171 Z M 108.1807,29.20131 C 107.6051,29.41422 107.117,29.83928 106.6865,30.26381 105.4374,31.56914 104.5311,33.10356 103.6298,34.65967 102.9461,35.82215 102.3382,37.07235 101.826,38.31892 101.1339,40.02191 100.4983,41.74976 99.99003,43.51879 99.94113,43.7184 99.8376,43.92363 99.79077,44.12792 98.84396,45.1295 97.97419,46.23784 96.96986,47.18445 96.16778,47.95394 95.2272,48.53171 94.14093,48.82201 93.7798,48.9214 93.28034,48.9382 93.08536,48.54442 92.89507,48.07782 93.1183,47.62107 93.321,47.20491 93.77457,46.55611 94.25572,45.89997 94.64776,45.21063 95.34915,43.95083 96.10479,42.69472 96.53153,41.30807 96.6919,40.72151 96.84679,40.04361 96.52127,39.48362 96.35294,39.15885 95.87933,39.04051 95.54646,39.16481 95.17126,39.24054 94.98631,39.56153 94.78001,39.85839 93.83113,41.23354 93.00628,42.72385 92.33153,44.2508 91.80799,45.48856 91.29546,46.7891 91.25866,48.14908 91.25892,48.29959 91.36424,48.43752 91.38283,48.59421 90.56168,49.49216 89.77073,50.44889 88.88423,51.28418 88.08216,52.05364 87.14146,52.63147 86.05531,52.9217 85.69417,53.02109 85.19471,53.0379 84.99974,52.64412 84.94879,52.51929 84.91279,52.40599 84.9165,52.27946 84.96561,52.19686 84.9697,52.12471 84.99626,52.03586 85.01236,51.96506 84.97033,51.90239 84.99509,51.83303 85.06245,51.64392 85.15224,51.47517 85.23538,51.30459 85.68893,50.6558 86.16999,49.99973 86.56203,49.31037 87.26341,48.05059 88.01915,46.79441 88.4458,45.40781 88.60619,44.82125 88.7611,44.14335 88.43556,43.58335 88.26726,43.25857 87.87439,43.09927 87.54161,43.22355 87.16648,43.29924 86.90057,43.66127 86.69427,43.95812 85.74539,45.33329 84.92054,46.82362 84.24581,48.35056 83.72226,49.58832 83.29069,50.84779 83.25389,52.20774 83.25419,52.36295 83.27723,52.53273 83.297,52.69401 83.0902,52.9542 82.87271,53.17952 82.6525,53.4274 81.98686,54.23933 81.20789,54.96056 80.4352,55.66978 79.52323,56.50043 78.60448,57.33971 77.52903,57.9566 77.27163,58.09245 76.91885,58.33957 76.6782,58.08283 76.25816,57.41722 76.36821,56.54084 76.66566,55.85317 77.13904,54.73407 78.03775,53.81524 78.83855,52.92177 79.32515,52.33865 79.90413,51.86597 80.16647,51.13048 80.32163,50.75971 80.10539,50.32941 79.83608,50.07794 79.47169,49.7169 78.92066,49.85837 78.53921,50.12615 77.66843,50.74573 77.41277,51.89377 76.64753,52.61 76.40319,52.86414 75.95673,52.99575 75.67492,52.6963 75.37755,52.33182 75.16913,51.94824 74.89823,51.56539 74.51969,51.20773 73.98174,51.35038 73.60103,51.61321 73.1709,52.05722 72.99002,52.66849 72.79932,53.23963 72.48935,54.3367 72.20082,55.43787 72.04773,56.5685 71.97118,56.93358 72.09557,57.35756 72.3779,57.62036 72.62656,57.93388 73.12708,57.94125 73.43244,57.6957 73.6689,57.24551 73.76392,56.71794 73.91095,56.2337 74.0845,55.68385 74.17426,55.16767 74.42897,54.64945 74.7323,54.50346 75.15424,54.54143 75.48245,54.52192 75.87782,54.40855 75.66113,54.73847 75.60663,54.96706 75.32524,56.09386 74.88329,57.24876 74.81504,58.41775 74.75943,58.87593 75.09956,59.22886 75.50969,59.38682 76.11907,59.623 76.78559,59.68697 77.41612,59.53819 77.92907,59.34857 78.36284,58.99993 78.83054,58.71954 79.63819,58.22735 80.39933,57.56482 81.05024,56.88279 82.0294,55.90731 82.89918,54.87604 83.74919,53.7863 83.79708,53.83207 83.85519,53.86798 83.91199,53.90692 84.56024,54.31356 85.34202,54.30545 86.06217,54.13811 87.68586,53.73158 89.06277,52.68196 90.22349,51.52008 90.77095,50.9555 91.25183,50.33316 91.75405,49.72755 91.8028,49.77445 91.85878,49.80847 91.91696,49.84812 92.56512,50.2548 93.42776,50.2057 94.14792,50.03836 95.7715,49.63188 97.1485,48.58223 98.30923,47.42032 98.88444,46.82738 99.35569,46.14519 99.87965,45.50606 100.2102,46.0145 100.8115,46.40912 101.4249,46.34868 102.0458,46.29071 102.5312,45.84899 103.0422,45.52867 104.4532,44.53726 105.8571,43.44083 107.0371,42.18166 107.7948,41.3501 108.4375,40.42696 109.1713,39.57486 109.3343,39.38375 109.4234,39.17138 109.5732,38.96445 109.6298,39.00581 109.668,39.05564 109.7362,39.08527 110.3833,39.33254 111.1654,39.19044 111.762,38.87122 112.7627,38.29745 113.5898,37.49081 114.4259,36.70743 113.5389,39.03778 112.76,41.43194 111.9113,43.7761 111.8218,44.12393 111.5388,44.37274 111.3487,44.67136 110.2106,46.46564 109.0686,48.22045 107.9734,50.04217 106.8397,51.90262 105.8366,53.88061 104.9246,55.85656 104.0607,57.71558 103.3275,59.58472 102.7267,61.54526 102.3213,62.9044 101.9258,64.29807 101.8988,65.72592 101.9082,66.28827 101.9549,67.01408 102.435,67.38496 102.6994,67.55442 103.0027,67.77498 103.329,67.74484 103.6894,67.63286 104.0316,67.30766 104.2981,67.0503 105.2059,66.09114 105.7449,64.91276 106.2661,63.71469 106.7176,62.57886 107.1153,61.36553 107.5437,60.2207 108.7589,56.85497 110.0874,53.55282 111.2986,50.18564 112.2607,47.45298 113.1646,44.73879 114.05,41.98017 114.4573,41.4121 114.8815,40.79205 115.2972,40.2297 116.7119,38.28751 118.247,36.47027 119.7659,34.60961 120.5495,33.60475 121.4526,32.74335 122.3045,31.79781 122.4973,31.5321 122.8521,31.2488 122.8669,30.90254 122.8076,30.77858 122.6843,30.67173 122.5413,30.66145 122.1229,30.66273 121.8197,31.01338 121.5311,31.27519 119.7984,33.1008 117.9911,34.87942 116.2503,36.69709 116.1429,36.76571 115.8706,37.25761 115.968,36.94214 116.3247,35.65301 116.858,34.45592 117.3254,33.2042 117.5349,32.59512 117.726,31.9812 117.8013,31.33671 117.7517,31.03119 117.385,30.56977 117.0691,30.89476 116.4911,31.45351 116.1462,32.1441 115.7014,32.80829 115.0161,33.82808 114.356,34.87215 113.5695,35.82018 112.9283,36.57983 112.2103,37.32264 111.269,37.69813 110.9469,37.86201 110.4313,37.7062 110.4558,37.2973 110.4623,36.43839 110.6247,35.55864 110.8875,34.74062 111.1772,33.93152 111.6891,33.25908 112.0915,32.50409 112.2167,32.25076 112.4588,31.739 112.0457,31.61215 111.6951,31.60617 111.4368,31.92036 111.1974,32.14409 110.4807,32.91727 109.9029,33.85448 109.5097,34.82958 109.1703,35.73977 108.9541,36.65175 108.9981,37.62978 109.006,37.73603 109.0623,37.88322 109.0811,37.99423 108.6711,38.44428 108.2269,38.87602 107.8321,39.33916 107.2677,40.04676 106.6692,40.74804 106.019,41.37659 105.0479,42.32063 104.092,43.23131 102.9932,44.02892 102.6802,44.24286 102.266,44.52383 101.9,44.27827 101.46,43.91717 101.4888,43.32598 101.5673,42.82032 101.8072,41.5322 102.3693,40.26023 102.9247,39.08274 103.3761,38.34328 103.8801,37.63979 104.3724,36.92591 105.163,35.76854 106.1017,34.70217 106.9482,33.58697 107.4824,32.87444 108.0443,32.22551 108.5177,31.46984 108.8641,30.88824 109.1583,30.13553 108.8307,29.48139 108.7272,29.23142 108.4385,29.10665 108.1807,29.20131 Z M 7.621498,85.06715 C 7.191486,85.51111 7.01049,86.12243 6.819882,86.69351 6.509921,87.7906 6.221384,88.89176 6.068304,90.0224 5.991648,90.38753 6.115918,90.81156 6.398357,91.0743 6.647024,91.38782 7.147559,91.39518 7.452929,91.14964 7.689458,90.69939 7.784385,90.17187 7.931401,89.68762 8.104978,89.13778 8.275587,88.58059 8.530422,88.06235 8.833741,87.91636 9.174831,87.99533 9.502913,87.97584 9.898283,87.86246 9.681602,88.19241 9.627078,88.421 9.345822,89.54773 8.903765,90.70269 8.835607,91.87164 8.779901,92.32987 9.120133,92.68275 9.530157,92.84077 10.13957,93.07694 10.88704,93.09985 11.51745,92.95115 12.03041,92.76152 12.46419,92.41289 12.9319,92.13246 13.73951,91.6403 14.4198,91.01876 15.07072,90.33672 16.06905,89.34216 16.98686,88.31255 17.85051,87.19924 18.08362,87.54004 18.41915,87.81977 18.82772,87.92341 19.61025,88.16136 20.35528,87.83366 21.01415,87.42444 22.79301,86.34261 24.107,84.62492 25.08323,82.82045 25.33282,82.99638 25.60693,83.16703 25.85647,83.3431 26.24752,83.68648 26.79704,83.73919 27.27672,83.53796 28.85002,82.7973 30.21395,81.65469 31.35369,80.35266 31.65694,79.99013 31.94261,79.66163 32.23967,79.29339 32.24359,79.33158 32.19557,79.37687 32.19994,79.41547 32.22491,79.8844 32.45485,80.32583 32.81486,80.62826 33.22857,80.99148 33.7902,80.87219 34.2338,80.62036 35.16756,80.04423 36.06288,79.39762 36.93974,78.73999 38.59524,77.53051 39.93363,75.97451 41.25361,74.41808 41.3553,74.93754 41.51512,75.42092 41.708,75.91571 41.85499,76.37531 42.41611,76.46802 42.80471,76.27461 43.31249,75.99686 43.58025,75.4792 43.89232,75.01161 44.52866,73.95116 45.09268,72.83575 45.69846,71.7578 46.34609,70.50457 47.26975,69.37191 48.0708,68.21741 48.21919,67.94992 48.42901,67.68795 48.34962,67.36424 L 48.30867,67.28348 C 48.15001,66.91899 47.70875,66.89705 47.41587,67.12615 46.73318,67.59891 46.3009,68.30735 45.80433,68.95974 45.0634,70.00719 44.36857,71.09637 43.67347,72.17452 43.51578,72.41747 43.08394,72.07932 42.82175,72.09824 42.34832,72.03361 41.77416,71.91514 41.3628,72.22799 40.52614,72.93284 39.87904,73.82155 39.10574,74.59241 38.34527,75.41085 37.40279,76.06213 36.5638,76.79597 35.84055,77.40095 35.18856,78.03779 34.4251,78.59192 34.16987,78.78332 33.70068,78.74955 33.69388,78.35265 33.69094,77.81821 33.81705,77.33298 33.9286,76.81082 34.05276,76.60215 34.24547,76.3998 34.20883,76.16063 34.18318,76.10825 34.123,76.14956 34.08692,76.12067 34.06295,76.10161 34.0733,76.04997 34.04592,76.03979 34.25978,75.15131 34.66736,74.36649 35.0047,73.52057 35.0763,73.25159 35.29973,72.92187 35.08119,72.66898 34.80952,72.31317 34.34752,72.39951 34.02662,72.59366 33.64605,72.90674 33.41142,73.37433 33.22259,73.81453 32.88843,74.69576 32.67567,75.67974 32.38668,76.57615 32.24487,76.96509 32.183,77.30477 32.14977,77.71275 31.83529,78.10564 31.53617,78.49988 31.22396,78.8937 30.43712,79.97365 29.46699,80.89007 28.31991,81.58595 27.97609,81.7374 27.62962,82.169 27.22776,82.03807 26.95724,81.8786 26.78025,81.58058 26.73689,81.27044 26.72387,80.55901 27.10794,79.95548 27.37446,79.32056 27.4986,78.9801 27.76352,78.59582 27.73332,78.22402 27.58049,77.93847 27.30168,77.56393 26.91897,77.62031 26.47516,77.78763 26.19125,78.11213 25.95104,78.51768 25.7498,78.52613 25.39534,78.31876 25.13911,78.31973 24.35011,78.19437 23.58028,78.55471 22.91262,78.94013 20.95586,80.00235 19.12946,81.43443 18.07271,83.42749 17.66419,84.20022 17.37425,85.1045 17.43837,85.98516 17.19605,86.28738 16.9297,86.5927 16.67296,86.88133 16.00745,87.69323 15.30933,88.37345 14.53654,89.08271 13.62466,89.9133 12.70582,90.75265 11.63025,91.36961 11.37287,91.50545 11.02028,91.75247 10.77952,91.49576 10.3595,90.83016 10.46954,89.95377 10.76701,89.26609 11.24037,88.14699 12.05823,87.26918 12.85903,86.37571 13.34562,85.79257 14.00546,85.27889 14.2679,84.54336 14.42296,84.17265 14.12596,83.78329 13.85655,83.53187 13.49215,83.17085 12.94113,83.31232 12.55968,83.58006 11.68879,84.19972 11.43325,85.34773 10.66799,86.06394 10.42366,86.31809 9.9772,86.44969 9.695387,86.15023 9.398015,85.78575 9.270476,85.36115 8.99955,84.97832 8.621024,84.62067 8.002191,84.80431 7.621498,85.06715 Z M 23.36705,80.43787 C 23.62733,80.32281 24.01545,79.97978 24.21781,80.31171 24.27964,80.54748 24.32513,80.83897 24.30321,81.08134 24.18312,82.14142 23.57087,82.9761 22.93996,83.80526 22.23032,84.68345 21.48165,85.63928 20.52119,86.25171 20.24243,86.39668 19.95641,86.6106 19.63053,86.49987 19.28211,86.3057 19.18407,85.85417 19.21957,85.48887 19.33567,84.63474 19.79717,83.88548 20.30135,83.2122 21.15646,82.14275 22.16235,81.11721 23.36705,80.43787 Z M 125.4644,31.41515 C 124.9698,31.88179 124.8377,32.69702 125.2723,33.24079 125.6001,33.69737 126.2535,33.76626 126.7333,33.51647 127.3753,33.24344 127.5958,32.38709 127.2915,31.81041 127.214,31.65828 127.0829,31.48953 126.9647,31.36647 126.5853,30.93303 125.8809,31.07098 125.4644,31.41515 Z M -16.19586,103.4457 C -15.56289,103.1531 -14.88434,102.9329 -14.21329,102.7452 -13.40833,102.5351 -12.5489,102.413 -11.74327,102.2043 -12.19497,102.805 -12.82616,103.3047 -13.35588,103.835 -14.52763,104.9462 -15.68827,106.1065 -17.02736,107.0182 -17.6931,107.4338 -18.41637,107.7873 -19.17074,108.0031 -19.65434,108.1229 -20.24883,108.1305 -20.63171,107.7276 -20.95268,107.436 -20.58362,107.0466 -20.39383,106.7936 -19.66361,105.9247 -18.87594,105.2369 -17.97386,104.55 -17.41847,104.1231 -16.82921,103.7379 -16.19586,103.4457 Z M 110.2784,48.97495 C 110.2536,49.23137 110.1853,49.41662 110.1199,49.66528 109.75,50.9731 109.287,52.27989 108.8444,53.56442 107.6875,56.76135 106.5114,59.94915 105.371,63.15203 104.9852,64.13133 104.5649,65.12487 103.9679,65.99807 103.7836,66.21076 103.5143,66.71798 103.2006,66.48908 102.9263,66.2283 103.0385,65.76365 103.0728,65.4353 103.3839,63.58439 103.9103,61.81316 104.5022,60.03538 105.3395,57.4679 106.6145,55.08123 107.9073,52.71814 108.6328,51.42905 109.3355,50.12164 110.2784,48.97495 Z" style="font-style:normal;font-variant:normal;font-weight:normal;font-stretch:normal;font-size:10px;line-height:100%;font-family:Pushkin;writing-mode:lr-tb;text-anchor:start;fill:#000000;fill-opacity:1;stroke:none;stroke-width:1pt;stroke-linecap:butt;stroke-linejoin:miter;stroke-opacity:1" inkscape:connector-curvature="0" />
        <path id="path1790" d="M 84.87396,19.36488 79.88036,19.36488 79.88036,19.68443 80.02993,19.68443 C 80.70294,19.68443 80.77766,19.71861 80.77766,20.00411 L 80.77766,20.20111 80.77766,23.437 80.77766,23.63426 C 80.77766,23.91963 80.70294,23.95368 80.02993,23.95368 L 79.88036,23.95368 79.88036,24.27323 84.98192,24.27323 85.14811,22.45808 84.78249,22.45808 C 84.67467,22.93382 84.48334,23.35539 84.28405,23.55265 84.02638,23.82451 83.5528,23.95368 82.85493,23.95368 L 82.30649,23.95368 C 82.05721,23.95368 81.84953,23.91301 81.77468,23.85167 81.71671,23.81113 81.70834,23.77019 81.70834,23.62751 L 81.70834,21.89397 81.87453,21.89397 C 82.38121,21.89397 82.58902,21.93464 82.75535,22.07733 82.97113,22.25433 83.05436,22.47186 83.07098,22.87275 L 83.46146,22.87275 83.46146,20.64307 83.07098,20.64307 C 83.02936,21.30933 82.69698,21.57443 81.90763,21.57443 L 81.70834,21.57443 81.70834,20.02438 C 81.70834,19.73212 81.78319,19.68443 82.23177,19.68443 L 82.66374,19.68443 C 83.39499,19.68443 83.75223,19.74577 84.03489,19.93615 84.30904,20.11288 84.50834,20.4935 84.63305,21.1053 L 84.99043,21.1053 84.87396,19.36488 Z M 73.84798,22.09097 74.7869,22.09097 C 75.53477,22.09097 75.92525,22.04341 76.25777,21.91438 76.84755,21.68306 77.17993,21.24799 77.17993,20.71104 77.17993,20.19462 76.88903,19.80009 76.34073,19.57579 76.01672,19.44 75.50153,19.36488 74.92823,19.36488 L 72.02014,19.36488 72.02014,19.68443 72.16971,19.68443 C 72.84272,19.68443 72.91744,19.71861 72.91744,20.00411 L 72.91744,20.20111 72.91744,23.437 72.91744,23.63426 C 72.91744,23.91963 72.84272,23.95368 72.16971,23.95368 L 72.02014,23.95368 72.02014,24.27323 74.8119,24.27323 74.8119,23.95368 74.59571,23.95368 C 73.9227,23.95368 73.84798,23.91963 73.84798,23.63426 L 73.84798,23.437 73.84798,22.09097 Z M 73.84798,21.77156 73.84798,20.03127 C 73.84798,19.71861 73.89798,19.68443 74.35494,19.68443 L 74.88675,19.68443 C 75.75082,19.68443 76.15792,20.01762 76.15792,20.73819 76.15792,21.4385 75.7342,21.77156 74.85351,21.77156 L 73.84798,21.77156 Z M 66.61929,19.26989 66.27043,19.26989 64.35921,23.23297 C 64.19316,23.58657 64.15992,23.63426 64.03534,23.7429 63.90225,23.87207 63.66958,23.95368 63.44516,23.95368 L 63.41205,23.95368 63.41205,24.27323 65.6139,24.27323 65.6139,23.95368 65.44757,23.95368 C 64.99912,23.95368 64.77469,23.82451 64.77469,23.5663 64.77469,23.48456 64.79969,23.38957 64.84941,23.2808 L 65.1237,22.68251 67.32554,22.68251 67.77426,23.59346 C 67.82412,23.69547 67.84074,23.7429 67.84074,23.77708 67.84074,23.88571 67.6328,23.95368 67.32554,23.95368 L 66.97654,23.95368 66.97654,24.27323 69.55238,24.27323 69.55238,23.95368 69.43605,23.95368 C 69.02043,23.95368 68.9291,23.89936 68.73804,23.51874 L 66.61929,19.26989 Z M 66.21219,20.38473 67.15097,22.3154 65.28976,22.3154 66.21219,20.38473 Z M 60.47896,19.31745 60.1632,19.31745 59.83095,19.71861 C 59.24076,19.36488 58.91702,19.263 58.36021,19.263 57.55425,19.263 56.88948,19.52823 56.32456,20.07869 55.79274,20.59538 55.54346,21.16638 55.54346,21.86668 55.54346,23.32836 56.71491,24.37524 58.35197,24.37524 59.68137,24.37524 60.52882,23.73614 60.72001,22.59401 L 60.32952,22.53969 C 60.24643,22.90005 60.14658,23.1446 59.997,23.34863 59.65651,23.81775 59.1247,24.05582 58.45155,24.05582 57.22186,24.05582 56.64033,23.35539 56.64033,21.89397 56.64033,21.12557 56.76477,20.60902 57.04729,20.20111 57.30496,19.82049 57.82002,19.58242 58.35197,19.58242 58.93351,19.58242 59.4487,19.834 59.76447,20.26921 59.92229,20.4935 60.047,20.7586 60.23819,21.28204 L 60.6034,21.28204 60.47896,19.31745 Z M 52.16178,19.32421 51.85439,19.32421 51.52201,19.73212 C 51.13139,19.42622 50.59971,19.263 50.00979,19.263 48.9213,19.263 48.19019,19.834 48.19019,20.68401 48.19019,21.42485 48.63864,21.79196 49.86009,22.0503 L 50.64943,22.21352 C 51.26434,22.34256 51.32244,22.3562 51.49701,22.46511 51.7463,22.6213 51.87925,22.84559 51.87925,23.11083 51.87925,23.38268 51.75454,23.60697 51.50539,23.79073 51.2311,23.98773 50.95709,24.06258 50.49999,24.06258 49.88508,24.06258 49.44474,23.90612 49.05426,23.55265 48.70525,23.23297 48.53082,22.91356 48.40624,22.39012 L 48.04886,22.39012 48.0821,24.32768 48.40624,24.32768 48.77997,23.86531 C 49.33665,24.23918 49.80226,24.37524 50.52486,24.37524 51.7463,24.37524 52.5274,23.79073 52.5274,22.87951 52.5274,22.45808 52.35284,22.09786 52.02896,21.83952 51.80454,21.66279 51.48053,21.54713 50.81562,21.41121 L 49.92656,21.22772 C 49.18721,21.07139 48.83821,20.80616 48.83821,20.39149 48.83821,19.91575 49.31179,19.58917 50.01804,19.58917 50.59971,19.58917 51.07315,19.79333 51.40554,20.18071 51.64659,20.45945 51.79602,20.74495 51.90425,21.09166 L 52.2615,21.09166 52.16178,19.32421 Z M 40.92813,22.0503 40.92813,20.20111 40.92813,20.00411 C 40.92813,19.71861 41.00271,19.68443 41.67586,19.68443 L 41.83381,19.68443 41.83381,19.36488 39.10015,19.36488 39.10015,19.68443 39.24972,19.68443 C 39.92273,19.68443 39.99732,19.71861 39.99732,20.00411 L 39.99732,20.20111 39.99732,23.437 39.99732,23.63426 C 39.99732,23.91963 39.92273,23.95368 39.24972,23.95368 L 39.10015,23.95368 39.10015,24.27323 41.83381,24.27323 41.83381,23.95368 41.67586,23.95368 C 41.00271,23.95368 40.92813,23.91963 40.92813,23.63426 L 40.92813,23.437 40.92813,22.57374 41.89191,21.77832 43.33765,23.51185 C 43.47074,23.67493 43.50384,23.72939 43.50384,23.79748 43.50384,23.90612 43.34616,23.95368 42.93892,23.95368 L 42.68126,23.95368 42.68126,24.27323 45.52287,24.27323 45.52287,23.95368 45.36506,23.95368 C 44.9081,23.95368 44.79163,23.90612 44.55072,23.61386 L 42.54006,21.24123 43.77812,20.2284 C 44.17685,19.8817 44.68367,19.68443 45.18225,19.68443 L 45.18225,19.36488 42.62302,19.36488 42.62302,19.68443 42.83096,19.68443 C 43.21321,19.68443 43.37089,19.74577 43.37089,19.88845 43.37089,19.98357 43.20469,20.18071 42.96378,20.37784 L 40.92813,22.0503 Z M 31.63866,19.36488 29.92701,19.36488 29.92701,19.68443 30.13482,19.68443 C 30.55854,19.68443 30.74973,19.73888 30.89917,19.90899 L 30.89917,22.79803 C 30.89917,23.72939 30.73298,23.92652 29.93539,23.95368 L 29.93539,24.27323 32.30356,24.27323 32.30356,23.95368 C 31.51394,23.92652 31.34789,23.72939 31.34789,22.79803 L 31.34789,20.27596 35.05384,24.36848 35.40271,24.36848 35.40271,20.84021 C 35.40271,19.90899 35.56877,19.71172 36.36649,19.68443 L 36.36649,19.36488 33.99845,19.36488 33.99845,19.68443 C 34.7878,19.71172 34.95399,19.90899 34.95399,20.84021 L 34.95399,22.97476 31.63866,19.36488 Z M 26.23795,20.20111 26.23795,20.00411 C 26.23795,19.71861 26.31267,19.68443 26.9773,19.68443 L 27.14349,19.68443 27.14349,19.36488 24.39335,19.36488 24.39335,19.68443 24.55954,19.68443 C 25.23255,19.68443 25.30727,19.71861 25.30727,20.00411 L 25.30727,20.20111 25.30727,23.437 25.30727,23.63426 C 25.30727,23.91963 25.23255,23.95368 24.55954,23.95368 L 24.39335,23.95368 24.39335,24.27323 27.14349,24.27323 27.14349,23.95368 26.9773,23.95368 C 26.31267,23.95368 26.23795,23.91963 26.23795,23.63426 L 26.23795,23.437 26.23795,20.20111 Z" style="fill:#000000;fill-opacity:1;stroke-width:1pt" inkscape:connector-curvature="0" />
        <rect inkscape:export-ydpi="475.20001" inkscape:export-xdpi="475.20001" inkscape:export-filename="/home/d/ink/draw-freely.png" ry="0.0000000" rx="1.468345" y="34.87875" x="-34.9314" height="25.7114" width="28.82679" id="rect2417" style="fill:none;fill-opacity:0.75;fill-rule:evenodd;stroke:none;stroke-width:1.25;stroke-linecap:butt;stroke-linejoin:miter;stroke-miterlimit:4;stroke-dashoffset:0;stroke-opacity:1" />
        <g transform="matrix(0.1106013,0,0,0.1106013,31.33167,72.44851)" id="inkscape-logo">
          <path id="path2313" d="M 163.15,27.83 28.81,165.3 C -16.58,221.51 59.7,214.97 92.4,231.16 104.13,243.15 47.44,252 59.17,264 70.9,275.99 130.1,287.1 141.85,299.09 153.58,311.08 117.84,323.8 129.57,335.79 141.3,347.78 168.43,336.42 173.51,364.1 177.13,383.88 222.4,372.6 244.54,356.4 256.27,344.4 222.1,345.53 233.83,333.54 263,303.71 290.16,322.7 300.14,292.81 305.07,278.04 257.2,270.04 268.95,258.05 302.7,238.34 419.35,225.51 364,170.16 L 224.75,27.83 C 207.72,11.48 179.3,11.3 163.15,27.83 Z M 317.46,292.81 C 317.46,299.63 367.71,304.1 367.71,291.2 360.55,270.48 323.4,271.88 317.46,292.81 Z M 91.1,329.05 C 103,339.34 121.38,326.49 126.89,312.13 115.36,296.81 72.2,312.68 91.1,329.05 Z M 311.16,306.82 C 295.82,320.58 312.88,334.54 328,325.65 331.37,322.23 327.91,310.24 311.16,306.82 Z" inkscape:connector-curvature="0" />
          <path style="fill:#ffffff" id="path2315" d="M 131,238.6 C 134.59,240.83 188.89,251.86 202.16,254.06 206.76,255.03 203.5,259.77 197.16,262.97 182.86,266.77 113.5,238.6 131,238.6 Z" inkscape:connector-curvature="0" />
          <path style="fill:#ffffff" id="path2317" d="M 216.63,37.47 269.78,91.45 C 274.82,96.6 274.75,106.58 271.93,109.45 L 245.54,88.34 240.35,119.6 218.3,107.96 182.99,130.27 171.3,83.24 152.33,116.06 123.33,116.06 C 111.51,116.06 110.12,101.06 120.86,90.32 139.62,70.07 161.15,49.43 172.85,37.47 184.61,25.45 205.1,25.79 216.63,37.47 Z" inkscape:connector-curvature="0" />
        </g>
      </g>
      <g sodipodi:insensitive="true" id="designBottomGenerator">
        <use height="100%" width="100%" id="bottom1" transform="translate(-100,-100)" xlink:href="#designBottom" y="0" x="0" />
        <use height="100%" width="100%" id="bottom2" transform="translate(0,-100)" xlink:href="#designBottom" y="0" x="0" />
        <use height="100%" width="100%" id="bottom3" transform="translate(100,-100)" xlink:href="#designBottom" y="0" x="0" />
        <use height="100%" width="100%" id="bottom4" transform="translate(-100,0)" xlink:href="#designBottom" y="0" x="0" />
        <use height="100%" width="100%" id="bottom5" transform="translate(0,0)" xlink:href="#designBottom" y="0" x="0" />
        <use height="100%" width="100%" id="bottom6" transform="translate(100,0)" xlink:href="#designBottom" y="0" x="0" />
        <use height="100%" width="100%" id="bottom7" transform="translate(-100,100)" xlink:href="#designBottom" y="0" x="0" />
        <use height="100%" width="100%" id="bottom8" transform="translate(0,100)" xlink:href="#designBottom" y="0" x="0" />
        <use transform="translate(100,100)" height="100%" width="100%" id="bottom9" xlink:href="#designBottom" y="0" x="0" />
      </g>
      <g sodipodi:insensitive="true" id="designTopGenerator">
        <use height="100%" width="100%" id="top1" transform="translate(-100,-100)" xlink:href="#designTop" y="0" x="0" />
        <use height="100%" width="100%" id="top2" transform="translate(0,-100)" xlink:href="#designTop" y="0" x="0" />
        <use height="100%" width="100%" id="top3" transform="translate(100,-100)" xlink:href="#designTop" y="0" x="0" />
        <use height="100%" width="100%" id="top4" transform="translate(-100,0)" xlink:href="#designTop" y="0" x="0" />
        <use height="100%" width="100%" id="top5" transform="translate(0,0)" xlink:href="#designTop" y="0" x="0" />
        <use height="100%" width="100%" id="top6" transform="translate(100,0)" xlink:href="#designTop" y="0" x="0" />
        <use height="100%" width="100%" id="top7" transform="translate(-100,100)" xlink:href="#designTop" y="0" x="0" />
        <use height="100%" width="100%" id="top8" transform="translate(0,100)" xlink:href="#designTop" y="0" x="0" />
        <use transform="translate(100,100)" height="100%" width="100%" id="top9" xlink:href="#designTop" y="0" x="0" />
      </g>
    </g>
    <g id="preview">
      <use x="0" y="0" xlink:href="#fullPattern" id="fullPatternClone" transform="translate(200,-100)" width="100" height="100" inkscape:tile-cx="50" inkscape:tile-cy="50" inkscape:tile-w="100" inkscape:tile-h="100" inkscape:tile-x0="100" inkscape:tile-y0="100" />
      <use height="100%" width="100%" x="0" y="0" inkscape:tiled-clone-of="#fullPatternClone" xlink:href="#fullPatternClone" id="mainClonePreview" />
      <use height="100%" width="100%" x="0" y="0" inkscape:tiled-clone-of="#fullPatternClone" xlink:href="#fullPatternClone" transform="translate(0,100)" id="clonePreview1" />
      <use height="100%" width="100%" x="0" y="0" inkscape:tiled-clone-of="#fullPatternClone" xlink:href="#fullPatternClone" transform="translate(0,200)" id="clonePreview2" />
      <use height="100%" width="100%" x="0" y="0" inkscape:tiled-clone-of="#fullPatternClone" xlink:href="#fullPatternClone" transform="translate(100,0)" id="clonePreview3" />
      <use height="100%" width="100%" x="0" y="0" inkscape:tiled-clone-of="#fullPatternClone" xlink:href="#fullPatternClone" transform="translate(100,100)" id="clonePreview4" />
      <use height="100%" width="100%" x="0" y="0" inkscape:tiled-clone-of="#fullPatternClone" xlink:href="#fullPatternClone" transform="translate(100,200)" id="clonePreview5" />
      <use height="100%" width="100%" x="0" y="0" inkscape:tiled-clone-of="#fullPatternClone" xlink:href="#fullPatternClone" transform="translate(200, 0)" id="clonePreview6" />
      <use height="100%" width="100%" x="0" y="0" inkscape:tiled-clone-of="#fullPatternClone" xlink:href="#fullPatternClone" transform="translate(200,100)" id="clonePreview7" />
      <use height="100%" width="100%" x="0" y="0" inkscape:tiled-clone-of="#fullPatternClone" xlink:href="#fullPatternClone" transform="translate(200,200)" id="clonePreview8" />
    </g>
    <text sodipodi:linespacing="125%" id="text8664" y="-188.93137" x="-191.40367" style="font-style:normal;font-variant:normal;font-weight:normal;font-stretch:normal;font-size:23.6686153px;line-height:125%;font-family:sans-serif;-inkscape-font-specification:Verdana;letter-spacing:0px;word-spacing:0px;fill:#000000;fill-opacity:1;stroke:none;stroke-width:1px;stroke-linecap:butt;stroke-linejoin:miter;stroke-opacity:1" xml:space="preserve"><tspan y="-188.93137" x="-191.40367" id="tspan8666" sodipodi:role="line" style="-inkscape-font-specification:'sans-serif Bold';font-family:sans-serif;font-weight:bold;font-style:normal;font-stretch:normal;font-variant:normal">Seamless pattern</tspan></text>
    <flowRoot transform="translate(-711.513,-78.2254)" style="font-style:normal;font-variant:normal;font-weight:normal;font-stretch:normal;font-size:16px;line-height:125%;font-family:sans-serif;-inkscape-font-specification:sans-serif;letter-spacing:0px;word-spacing:0px;fill:#000000;fill-opacity:1;stroke:none;stroke-width:1px;stroke-linecap:butt;stroke-linejoin:miter;stroke-opacity:1" id="infoText" xml:space="preserve"><flowRegion id="flowRegion11597"><rect style="font-style:normal;font-variant:normal;font-weight:normal;font-stretch:normal;font-size:16px;font-family:sans-serif;-inkscape-font-specification:sans-serif" y="-99.85437" x="519.1747" height="326.1553" width="228.5243" id="rect11599" /></flowRegion><flowPara style="font-size:14.666667px" id="flowPara11613">You can use &quot;design top&quot; layer and &quot;design bottom&quot; layer inside this seamless pattern to design.</flowPara><flowPara style="font-size:14.666667px" id="flowPara12265" /><flowPara style="font-size:14.666667px" id="flowPara11609">Go to Patern -root- layer to use the seamless patern.</flowPara></flowRoot>    <path style="color:#000000;text-decoration:none;text-decoration-line:none;text-decoration-style:solid;text-decoration-color:#000000;clip-rule:nonzero;display:inline;overflow:visible;visibility:visible;opacity:1;isolation:auto;mix-blend-mode:normal;color-interpolation:sRGB;color-interpolation-filters:linearRGB;solid-color:#000000;solid-opacity:1;fill:none;fill-opacity:1;fill-rule:nonzero;stroke:#000000;stroke-width:3.7795277;stroke-linecap:butt;stroke-linejoin:miter;stroke-miterlimit:4;stroke-dasharray:none;stroke-dashoffset:0;stroke-opacity:1;marker:none;marker-end:url(#Arrow2Mend);paint-order:normal;color-rendering:auto;image-rendering:auto;shape-rendering:auto;text-rendering:auto;enable-background:accumulate" d="M -204,-194 C -204,-194 -260.3514,-151.8886 -234.2721,-53.49747 -201.2516,71.08073 -72.34315,47.12994 -72.34315,47.12994" id="path19539" inkscape:connector-curvature="0" sodipodi:nodetypes="csc" />
  </g>
</svg>
