/* XPM */
static const char * brokenimage_xpm[] = {
"64 64 241 2",
"  	c #FC0C0C",
". 	c #FFFFFF",
"+ 	c #FDE4E4",
"@ 	c #FDDADA",
"# 	c #FDDDDD",
"$ 	c #FDF6F6",
"% 	c #FEFEFE",
"& 	c #F9AEAE",
"* 	c #F33E3E",
"= 	c #F22525",
"- 	c #F22C2C",
"; 	c #F67D7D",
"> 	c #FEF4F4",
", 	c #FEFDFD",
"' 	c #F56464",
") 	c #F00101",
"! 	c #F00000",
"~ 	c #F12020",
"{ 	c #FCD4D4",
"] 	c #F45151",
"^ 	c #F11717",
"/ 	c #FCD1D1",
"( 	c #F34949",
"_ 	c #F56D6D",
": 	c #F23333",
"< 	c #F01313",
"[ 	c #F56060",
"} 	c #F56262",
"| 	c #F12121",
"1 	c #FBC5C5",
"2 	c #FEF6F6",
"3 	c #FAB7B7",
"4 	c #F23838",
"5 	c #F11A1A",
"6 	c #F79393",
"7 	c #FDF1F1",
"8 	c #F11B1B",
"9 	c #FAB9B9",
"0 	c #FAB5B5",
"a 	c #F34E4E",
"b 	c #F89696",
"c 	c #FEFBFB",
"d 	c #FCDFDF",
"e 	c #F34545",
"f 	c #F34747",
"g 	c #FAC2C2",
"h 	c #FCE2E2",
"i 	c #FDE9E9",
"j 	c #F57171",
"k 	c #F00303",
"l 	c #F00202",
"m 	c #FBCBCB",
"n 	c #FEF1F1",
"o 	c #F67575",
"p 	c #F00A0A",
"q 	c #F11D1D",
"r 	c #F9B5B5",
"s 	c #FFFEFE",
"t 	c #FCD8D8",
"u 	c #F23939",
"v 	c #F00909",
"w 	c #F78686",
"x 	c #FEF9F9",
"y 	c #F89D9D",
"z 	c #FBC3C3",
"A 	c #FAB8B8",
"B 	c #F22E2E",
"C 	c #FBD2D2",
"D 	c #FDE8E8",
"E 	c #F67474",
"F 	c #F00E0E",
"G 	c #FAC3C3",
"H 	c #FDF0F0",
"I 	c #F45353",
"J 	c #F00D0D",
"K 	c #F68181",
"L 	c #FABABA",
"M 	c #F00606",
"N 	c #F34848",
"O 	c #F9ADAD",
"P 	c #F9A2A2",
"Q 	c #F11515",
"R 	c #F01212",
"S 	c #F45454",
"T 	c #F11818",
"U 	c #F67777",
"V 	c #F00808",
"W 	c #FCDDDD",
"X 	c #FCD3D3",
"Y 	c #F67C7C",
"Z 	c #F55C5C",
"` 	c #F55B5B",
" .	c #F56969",
"..	c #F9ABAB",
"+.	c #FFFDFD",
"@.	c #000000",
"#.	c #6B6B6B",
"$.	c #F3F3F3",
"%.	c #F9F9F9",
"&.	c #6E6E6E",
"*.	c #434343",
"=.	c #060606",
"-.	c #373737",
";.	c #EAEAEA",
">.	c #FAFAFA",
",.	c #3F3F3F",
"'.	c #353535",
").	c #F5F5F5",
"!.	c #E4E4E4",
"~.	c #474747",
"{.	c #080808",
"].	c #171717",
"^.	c #919191",
"/.	c #CCCCCC",
"(.	c #252525",
"_.	c #737373",
":.	c #1C1C1C",
"<.	c #D7D7D7",
"[.	c #A5A5A5",
"}.	c #858585",
"|.	c #646464",
"1.	c #202020",
"2.	c #E8E8E8",
"3.	c #494949",
"4.	c #262626",
"5.	c #E2E2E2",
"6.	c #B7B7B7",
"7.	c #010101",
"8.	c #D1D1D1",
"9.	c #3C3C3C",
"0.	c #E5E5E5",
"a.	c #939393",
"b.	c #636363",
"c.	c #FCFCFC",
"d.	c #6C6C6C",
"e.	c #181818",
"f.	c #969696",
"g.	c #090909",
"h.	c #131313",
"i.	c #949494",
"j.	c #F6F6F6",
"k.	c #2B2B2B",
"l.	c #1E1E1E",
"m.	c #0A0A0A",
"n.	c #E3E3E3",
"o.	c #F2F2F2",
"p.	c #606060",
"q.	c #525252",
"r.	c #C3C3C3",
"s.	c #DADADA",
"t.	c #E1E1E1",
"u.	c #7A7A7A",
"v.	c #4A4A4A",
"w.	c #121212",
"x.	c #D5D5D5",
"y.	c #BCBCBC",
"z.	c #414141",
"A.	c #3A3A3A",
"B.	c #1B1B1B",
"C.	c #DBDBDB",
"D.	c #8B8B8B",
"E.	c #5F5F5F",
"F.	c #7D7D7D",
"G.	c #444444",
"H.	c #070707",
"I.	c #141414",
"J.	c #838383",
"K.	c #C6C6C6",
"L.	c #1F1F1F",
"M.	c #0C0C0C",
"N.	c #7F7F7F",
"O.	c #6A6A6A",
"P.	c #343434",
"Q.	c #0B0B0B",
"R.	c #D6D6D6",
"S.	c #363636",
"T.	c #050505",
"U.	c #ABABAB",
"V.	c #CBCBCB",
"W.	c #323232",
"X.	c #A4A4A4",
"Y.	c #AAAAAA",
"Z.	c #9F9F9F",
"`.	c #707070",
" +	c #E9E9E9",
".+	c #626262",
"++	c #151515",
"@+	c #1D1D1D",
"#+	c #DEDEDE",
"$+	c #8E8E8E",
"%+	c #666666",
"&+	c #696969",
"*+	c #FBFBFB",
"=+	c #B3B3B3",
"-+	c #2D2D2D",
";+	c #F4F4F4",
">+	c #DCDCDC",
",+	c #4B4B4B",
"'+	c #E0E0E0",
")+	c #303030",
"!+	c #E7E7E7",
"~+	c #383838",
"{+	c #8F8F8F",
"]+	c #888888",
"^+	c #272727",
"/+	c #3E3E3E",
"(+	c #C7C7C7",
"_+	c #7C7C7C",
":+	c #ACACAC",
"<+	c #7E7E7E",
"[+	c #E6E6E6",
"}+	c #B2B2B2",
"|+	c #D0D0D0",
"1+	c #0F0F0F",
"2+	c #656565",
"3+	c #6D6D6D",
"4+	c #020202",
"5+	c #ECECEC",
"6+	c #535353",
"7+	c #4D4D4D",
"8+	c #575757",
"9+	c #161616",
"0+	c #CDCDCD",
"a+	c #505050",
"b+	c #616161",
"c+	c #0D0D0D",
"d+	c #686868",
"e+	c #F8F8F8",
"f+	c #565656",
"g+	c #D3D3D3",
"h+	c #5B5B5B",
"i+	c #6F6F6F",
"j+	c #2A2A2A",
"k+	c #555555",
"l+	c #585858",
"m+	c #EFEFEF",
"n+	c #BBBBBB",
"o+	c #0E0E0E",
"p+	c #101010",
"q+	c #A3A3A3",
"r+	c #111111",
"                                                                                                                                ",
"  . . . . . . . . . . . . . . . . . . . . . . . . . . . . . . . . . . . . . . . . . . . . . . . . . . . . . . . . . . . . . .   ",
"  . . . . . . . . . . . . . . . . . . . . . . . . . . . . . . . . . . . . . . . . . . . . . . . . . . . . . . . . . . . . . .   ",
"  . . . . . . . . . . . . . . . . . . . . . . . . . . . . . . . . . . . . . . . . . . . . . . . . . . . . . . . . . . . . . .   ",
"  . . . . . . . . . . . . . . . . . . . . . . . . . . . . . . . . . . . . . . . . . . . . . . . . . . . . . . . . . . . . . .   ",
"  . . . . . . . . . . . . . . . . . . . . . . . . . . . . . . . . . . . . . . . . . . . . . . . . . . . . . . . . . . . . . .   ",
"  . . . . . . . . . . . . . . . . . . . . . . . + @ @ @ @ @ @ @ @ @ @ @ @ @ @ @ # $ . . . . . . . . . . . . . . . . . . . . .   ",
"  . . . . . . . . . . . . . . . . . . . . . % & * = = = = = = = = = = = = = = = - ; > . . . . . . . . . . . . . . . . . . . .   ",
"  . . . . . . . . . . . . . . . . . . . . . , ' ) ! ! ! ! ! ! ! ! ! ! ! ! ! ! ! ! ~ { . . . . . . . . . . . . . . . . . . . .   ",
"  . . . . . . . . . . . . . . . . . . . . . , ] ! ! ! ! ! ! ! ! ! ! ! ! ! ! ! ! ! ^ / . . . . . . . . . . . . . . . . . . . .   ",
"  . . . . . . . . . . . . . . . . . . . . . , ] ! ! ! ! ! ! ! ! ! ! ! ! ! ! ! ! ! ^ / . . . . . . . . . . . . . . . . . . . .   ",
"  . . . . . . . . . . . . . . . . . . . . . , ] ! ! ! ) ( _ : ! ! ! < [ } < ! ! ! ^ / . . . . . . . . . . . . . . . . . . . .   ",
"  . . . . . . . . . . . . . . . . . . . . . , ] ! ! ! | 1 2 3 4 ) 5 6 7 + ] ! ! ! ^ / . . . . . . . . . . . . . . . . . . . .   ",
"  . . . . . . . . . . . . . . . . . . . . . , ] ! ! ! 8 9 , % 0 a b c . d e ! ! ! ^ / . . . . . . . . . . . . . . . . . . . .   ",
"  . . . . . . . . . . . . . . . . . . . . . , ] ! ! ! ! f g . % h c . i j k ! ! ! ^ / . . . . . . . . . . . . . . . . . . . .   ",
"  . . . . . . . . . . . . . . . . . . . . . , ] ! ! ! ! l e m % . . n o p ! ! ! ! ^ / . . . . . . . . . . . . . . . . . . . .   ",
"  . . . . . . . . . . . . . . . . . . . . . , ] ! ! ! ! ! q r % . s t * ) ! ! ! ! ^ / . . . . . . . . . . . . . . . . . . . .   ",
"  . . . . . . . . . . . . . . . . . . . . . , ] ! ! ! ! ^ b c . , % % 0 u ! ! ! ! ^ / . . . . . . . . . . . . . . . . . . . .   ",
"  . . . . . . . . . . . . . . . . . . . . . , ] ! ! ! v w x . i y z . % A B ! ! ! ^ / . . . . . . . . . . . . . . . . . . . .   ",
"  . . . . . . . . . . . . . . . . . . . . . , ] ! ! ! = C . D E F e G % H I ! ! ! ^ / . . . . . . . . . . . . . . . . . . . .   ",
"  . . . . . . . . . . . . . . . . . . . . . , ] ! ! ! J K L ' M ! l N O P - ! ! ! ^ / . . . . . . . . . . . . . . . . . . . .   ",
"  . . . . . . . . . . . . . . . . . . . . . , ] ! ! ! ! p 5 ) ! ! ! ! Q R ! ! ! ! ^ / . . . . . . . . . . . . . . . . . . . .   ",
"  . . . . . . . . . . . . . . . . . . . . . , ] ! ! ! ! ! ! ! ! ! ! ! ! ! ! ! ! ! ^ / . . . . . . . . . . . . . . . . . . . .   ",
"  . . . . . . . . . . . . . . . . . . . . . , S ! ! ! ! ! ! ! ! ! ! ! ! ! ! ! ! ! T / . . . . . . . . . . . . . . . . . . . .   ",
"  . . . . . . . . . . . . . . . . . . . . . , U V ) ) ) ) ) ) ) ) ) ) ) ) ) ) ) l : W . . . . . . . . . . . . . . . . . . . .   ",
"  . . . . . . . . . . . . . . . . . . . . . s X Y Z ` ` ` ` ` ` ` ` ` ` ` ` ` `  .... . . . . . . . . . . . . . . . . . . . .   ",
"  . . . . . . . . . . . . . . . . . . . . . . . +.+.+.+.+.+.+.+.+.+.+.+.+.+.+.+.+.. . . . . . . . . . . . . . . . . . . . . .   ",
"  . . . . . . . . . . . . . . . . . . . . . . . . . . . . . . . . . . . . . . . . . . . . . . . . . . . . . . . . . . . . . .   ",
"  . . . . . . . . . . . . . . . . . . . . . . . . . . . . . . . . . . . . . . . . . . . . . . . . . . . . . . . . . . . . . .   ",
"  . . . . . . . . . . . . . . . . . . . . . . . . . . . . . . . . . . . . . . . . . . . . . . . . . . . . . . . . . . . . . .   ",
"  . . . . . . . . . . . . . . @.#.. . . . . @.#.. . . . . . . . @.#.. . . . . . . . . . . . . . @.#.. . . . . . . . . . . . .   ",
"  . . . . . . . . . . . . . . @.#.. . . . . $.%.. . . . . . . . @.#.. . . . . . . . . . . . . . @.#.. . . . . . . . . . . . .   ",
"  . . . . . . . . . . . . . . @.#.. . . . . @.#.. @.&.*.=.-.;.. @.#.>.,.'.).!.~.{.].^.. /.(.{._.@.#.. . . . . . . . . . . . .   ",
"  . . . . . . . . . . . . . . @.#.. . . . . @.#.. @.:.<.[.@.}.. @.#.|.1.2.. 3.4.5.6.7.8.9.1.0.a.@.#.. . . . . . . . . . . . .   ",
"  . . . . . . . . . . . . . . @.#.. . . . . @.#.. @.b.. c.@.d.. @.e.@.f.. . g.=.h.h.@.i.{.b.. j.@.#.. . . . . . . . . . . . .   ",
"  . . . . . . . . . . . . . . @.#.. . . . . @.#.. @.#.. . @.#.. @.k.3.l.).. m.~.n.n.n.o.{.p.. $.@.#.. . . . . . . . . . . . .   ",
"  . . . . . . . . . . . . . . @.q.r.r.r.s.. @.#.. @.#.. . @.#.. @.#.t.g.u.. v.w.x.y.z.<.A.B.C.D.@.#.. . . . . . . . . . . . .   ",
"  . . . . . . . . . . . . . . @.@.@.@.@.E.. @.#.. @.#.. . @.#.. @.#.. F.=.s.n.G.H.I.J.. K.L.M.N.{.#.. . . . . . . . . . . . .   ",
"  . . . . . . . . . . . . . . . . . . . . . . . . . . . . . . . . . . . . . . . . . . . . . . . . . . . . . . . . . . . . . .   ",
"  . . . . . . . . . . . . . . . . . . . . . . . . . . . . . . . . . . . . . . . . . . . . . . . . . . . . . . . . . . . . . .   ",
"  . . . . . . . . . . . . . . . . @.#.. . . . . . . . . . . . . . . . . . . . . . . . . . . . . . . . . . . . . . . . . . . .   ",
"  . . . . . . . . . . . . . . . . $.%.. . . . . . . . . . . . . . . . . . . . . . . . . . . . . . . . . . . . . . . . . . . .   ",
"  . . . . . . . . . . . . . . . . @.#.. @.O.P.Q.^.#.=.A.).. R.S.T.:.U.. V.(.m.u.g.#.. !.~.{.].^.. . . . . . . . . . . . . . .   ",
"  . . . . . . . . . . . . . . . . @.#.. @.4.t.W.=.X.i.@.Y.. Z.`. +.+++. A.@+#+$+@.#.. 3.4.5.6.7.8.. . . . . . . . . . . . . .   ",
"  . . . . . . . . . . . . . . . . @.#.. @.%+. &+@.*+x.@.i.. =+-+I.m.@.. H..+. ;+@.#.. g.=.h.h.@.i.. . . . . . . . . . . . . .   ",
"  . . . . . . . . . . . . . . . . @.#.. @.#.. #.@.. <.@.a.. ].A.>+`.@.. H.p.. ;+@.#.. m.~.n.n.n.o.. . . . . . . . . . . . . .   ",
"  . . . . . . . . . . . . . . . . @.#.. @.#.. #.@.. <.@.a.. m.,+'+)+@.!+~+B.>+{+@.#.. v.w.x.y.z.<.. . . . . . . . . . . . . .   ",
"  . . . . . . . . . . . . . . . . @.#.. @.#.. #.@.. <.@.a.. ]+m.^+6.]./+(+L.M._+@.&.. n.G.H.I.J.. . . . . . . . . . . . . . .   ",
"  . . . . . . . . . . . . . . . . . . . . . . . . . . . . . . . . . . . :+<+[+}+@.f.. . . . . . . . . . . . . . . . . . . . .   ",
"  . . . . . . . . . . . . . . . . . . . . . . . . . . . . . . . . . . . |+'.T.1+2+%.. . . . . . . . . . . . . . . . . . . . .   ",
"  . . . . . . . . . . . . . . . . . . . ).N.. . . . . . 3+{.I.. . . . . . . . . . . . . . . . . . . . . . . . . @.#.. . . . .   ",
"  . . . . . . . . . . . . . . . . . . . Y.@.. . . . . . 4+p.. . . . . . . . . . . . . . . . . . . . . . . . . . @.#.. . . . .   ",
"  . . . . . @.&.*.=.-.;.. 5+6+M.m.7+2.. @.@.@.. . . . @.@.@.@.5+6+M.m.7+2.. @.#.. . @.#.. @.&.*.=.-.;.. /.(.{._.@.#.. . . . .   ",
"  . . . . . @.:.<.[.@.}.. 8+9+0+8.e.a+. %+@.$.. . . . $.@.%+$.8+9+0+8.e.a+. @.#.. . @.#.. @.:.<.[.@.}.. 9.1.0.a.@.#.. . . . .   ",
"  . . . . . @.b.. c.@.d.. M.p.. . b+Q.. #.@.. . . . . . @.#.. M.p.. . b+Q.. @.#.. . @.#.. @.b.. c.@.d.. {.b.. j.@.#.. . . . .   ",
"  . . . . . @.#.. . @.#.. M.b+. . b+c+. #.@.. . . . . . @.#.. M.b+. . b+c+. @.d+. e+@.#.. @.#.. . @.#.. {.p.. $.@.#.. . . . .   ",
"  . . . . . @.#.. . @.#.. f+9+x.g+].h+. i+@.s.% . . . . @.#.. f+9+x.g+].h+. e.j+ +$+4+#.. @.#.. . @.#.. A.B.C.D.@.#.. . . . .   ",
"  . . . . . @.#.. . @.#.. 5+k+Q.M.l+m+. n+o+p+o.. . . . @.#.. 5+k+Q.M.l+m+. q+h.r+^.h.#.. @.#.. . @.#.. K.L.M.N.{.#.. . . . .   ",
"  . . . . . . . . . . . . . . . . . . . . . . . . . . . . . . . . . . . . . . . . . . . . . . . . . . . . . . . . . . . . . .   ",
"  . . . . . . . . . . . . . . . . . . . . . . . . . . . . . . . . . . . . . . . . . . . . . . . . . . . . . . . . . . . . . .   ",
"  . . . . . . . . . . . . . . . . . . . . . . . . . . . . . . . . . . . . . . . . . . . . . . . . . . . . . . . . . . . . . .   ",
"  . . . . . . . . . . . . . . . . . . . . . . . . . . . . . . . . . . . . . . . . . . . . . . . . . . . . . . . . . . . . . .   ",
"  . . . . . . . . . . . . . . . . . . . . . . . . . . . . . . . . . . . . . . . . . . . . . . . . . . . . . . . . . . . . . .   ",
"                                                                                                                                "};
