<?xml version="1.0" encoding="UTF-8" standalone="no"?>
<!-- Created with Inkscape (http://www.inkscape.org/) -->

<svg xmlns:dc="http://purl.org/dc/elements/1.1/" xmlns:cc="http://creativecommons.org/ns#" xmlns:rdf="http://www.w3.org/1999/02/22-rdf-syntax-ns#" xmlns:svg="http://www.w3.org/2000/svg" xmlns="http://www.w3.org/2000/svg" xmlns:sodipodi="http://sodipodi.sourceforge.net/DTD/sodipodi-0.dtd" xmlns:inkscape="http://www.inkscape.org/namespaces/inkscape" width="96" height="96" id="svg2" sodipodi:version="0.32" inkscape:version="0.48+devel r10484 custom" version="1.0" sodipodi:docname="feOffset-icon.svg" inkscape:output_extension="org.inkscape.output.svg.inkscape" inkscape:export-filename="/home/felipe/devel/inkscape/inkscape/share/icons/feOffset-icon.png" inkscape:export-xdpi="90" inkscape:export-ydpi="90">
<defs id="defs4" />
<sodipodi:namedview id="base" pagecolor="#ffffff" bordercolor="#666666" borderopacity="1.0" inkscape:pageopacity="0.0" inkscape:pageshadow="2" inkscape:zoom="5.145833" inkscape:cx="48" inkscape:cy="48" inkscape:document-units="px" inkscape:current-layer="layer1" showgrid="false" inkscape:window-width="964" inkscape:window-height="718" inkscape:window-x="50" inkscape:window-y="24" inkscape:window-maximized="0" />
<metadata id="metadata7">
<rdf:RDF>
<cc:Work rdf:about="">
<dc:format>image/svg+xml</dc:format>
<dc:type rdf:resource="http://purl.org/dc/dcmitype/StillImage" />
<dc:title />
<dc:date>2007-07-03</dc:date>
<dc:creator>
<cc:Agent>
<dc:title>Felipe Corrêa da Silva Sanches</dc:title>
</cc:Agent>
</dc:creator>
<dc:rights>
<cc:Agent>
<dc:title>Felipe Corrêa da Silva Sanches</dc:title>
</cc:Agent>
</dc:rights>
<dc:publisher>
<cc:Agent>
<dc:title>Felipe Corrêa da Silva Sanches</dc:title>
</cc:Agent>
</dc:publisher>
<dc:identifier>c</dc:identifier>
<dc:source />
<dc:relation />
<dc:language />
<dc:subject>
<rdf:Bag>
<rdf:li>hexamines icon</rdf:li>
</rdf:Bag>
</dc:subject>
<dc:coverage />
<dc:description>this is an image originaly intended to be used in the hexamines game</dc:description>
<dc:contributor>
<cc:Agent>
<dc:title />
</cc:Agent>
</dc:contributor>
<cc:license rdf:resource="http://creativecommons.org/licenses/by/3.0/" />
</cc:Work>
</rdf:RDF>
</metadata>
<g inkscape:label="Camada 1" inkscape:groupmode="layer" id="layer1" transform="translate(-155.36416,-264.88732)">
<g id="g3224" transform="matrix(0.1810525,0,0,0.1810525,154.52853,194.85918)">
<path id="path2447" d="M 299.34303,432.45045 C 262.43965,433.98249 227.51837,454.82483 206.89154,485.17993 C 195.90415,500.46145 186.23795,517.40377 170.76509,528.70619 C 157.89981,536.71862 142.27098,537.34641 127.56296,537.91853 C 104.94992,539.08939 81.614388,540.53411 60.756373,550.18802 C 40.882365,559.8072 27.960341,583.12134 32.262851,605.08106 C 35.550884,623.73949 49.101496,639.40923 65.647323,647.9886 C 81.031689,657.27512 98.437575,664.12876 110.73845,677.72293 C 121.82384,690.59679 123.78456,709.55488 118.19891,725.25202 C 112.72473,746.06886 106.26113,767.39515 108.58319,789.17124 C 110.35316,804.41384 122.13739,818.73083 137.63007,821.24706 C 153.1339,824.22761 168.80944,820.13926 183.69264,815.98836 C 201.4235,810.49285 218.44841,801.87034 237.1609,800.18539 C 249.03659,799.99493 259.62345,806.41879 268.97892,813.06431 C 289.08679,826.4664 308.9211,841.22307 332.23881,848.58701 C 345.71104,852.85011 360.82145,854.7033 374.26549,849.35455 C 384.97358,845.15079 393.95224,836.32233 397.41514,825.24067 C 401.88377,812.56858 399.93036,798.60799 395.42714,786.23642 C 389.75617,768.33432 380.09684,751.38776 378.81433,732.32983 C 379.11621,720.39721 387.97205,710.11587 398.61154,705.5488 C 417.07556,694.78084 434.63528,681.03728 445.46788,662.2596 C 456.67887,644.16863 462.99308,622.57701 461.06069,601.22968 C 459.71579,591.2364 454.81587,580.67083 445.25884,576.19863 C 434.11886,570.642 421.26986,572.021 409.30173,573.06101 C 392.84975,574.5481 375.7288,576.90017 359.70381,571.53744 C 344.90435,567.99642 335.49219,551.31254 338.85403,536.71689 C 342.7832,516.86699 350.46371,497.373 349.30054,476.82845 C 348.49713,458.06683 334.96017,440.87964 317.20642,435.05587 C 311.49555,433.03932 305.39345,432.12921 299.34303,432.45045 z" style="opacity:0.41176471;fill:#000000;fill-opacity:0.15602836;fill-rule:evenodd;stroke:#000000;stroke-width:15;stroke-linecap:round;stroke-linejoin:round;stroke-miterlimit:4;stroke-dasharray:30.00000011, 30.00000011;stroke-dashoffset:0;stroke-opacity:1" />
<path id="path2450" d="M 346.79768,464.3826 C 309.8943,465.91464 274.97302,486.75698 254.34619,517.11208 C 243.3588,532.3936 233.6926,549.33592 218.21974,560.63834 C 205.35446,568.65077 189.72563,569.27856 175.01761,569.85068 C 152.40457,571.02154 129.06904,572.46626 108.21102,582.12017 C 88.33701,591.73935 75.41499,615.05349 79.7175,637.01321 C 83.00553,655.67164 96.55614,671.34138 113.10197,679.92075 C 128.48634,689.20727 145.89222,696.06091 158.1931,709.65508 C 169.27849,722.52894 171.23921,741.48703 165.65356,757.18417 C 160.17938,778.00101 153.71578,799.3273 156.03784,821.10339 C 157.80781,836.34599 169.59204,850.66298 185.08472,853.17921 C 200.58855,856.15976 216.26409,852.07141 231.14729,847.92051 C 248.87815,842.425 265.90306,833.80249 284.61555,832.11754 C 296.49124,831.92708 307.0781,838.35094 316.43357,844.99646 C 336.54144,858.39855 356.37575,873.15522 379.69346,880.51916 C 393.16569,884.78226 408.2761,886.63545 421.72014,881.2867 C 432.42823,877.08294 441.40689,868.25448 444.86979,857.17282 C 449.33842,844.50073 447.38501,830.54014 442.88179,818.16857 C 437.21082,800.26647 427.55149,783.31991 426.26898,764.26198 C 426.57086,752.32936 435.4267,742.04802 446.06619,737.48095 C 464.53021,726.71299 482.08993,712.96943 492.92253,694.19175 C 504.13352,676.10078 510.44773,654.50916 508.51534,633.16183 C 507.17044,623.16855 502.27052,612.60298 492.71349,608.13078 C 481.57351,602.57415 468.72451,603.95315 456.75638,604.99316 C 440.3044,606.48025 423.18345,608.83232 407.15846,603.46959 C 392.359,599.92857 382.94684,583.24469 386.30868,568.64904 C 390.23785,548.79914 397.91836,529.30515 396.75519,508.7606 C 395.95178,489.99898 382.41482,472.81179 364.66107,466.98802 C 358.9502,464.97147 352.8481,464.06136 346.79768,464.3826 z" style="fill:#000000;fill-opacity:0.12765958;fill-rule:evenodd;stroke:#000000;stroke-width:15;stroke-linecap:round;stroke-linejoin:round;stroke-miterlimit:4;stroke-dasharray:none;stroke-dashoffset:0;stroke-opacity:1" />
</g>
</g>
</svg>
