<?xml version="1.0" encoding="UTF-8" standalone="no"?>
<!-- Created with Inkscape (http://www.inkscape.org/) -->

<svg
   xmlns:svg="http://www.w3.org/2000/svg"
   xmlns="http://www.w3.org/2000/svg"
   version="1.1"
   width="249.50522"
   height="249.50523"
   id="svg2">
  <defs
     id="defs4" />
  <g
     transform="translate(-218.10454,-476.18098)"
     id="layer1">
    <path
       d="m 462.85715,600.93359 c 0,66.27417 -53.72583,120 -120,120 -66.27417,0 -120,-53.72583 -120,-120 0,-66.27417 53.72583,-120 120,-120 66.27417,0 120,53.72583 120,120 z m 182.9912,0 c 0,167.33742 -135.65378,302.99121 -302.9912,302.99121 -167.33743,0 -302.991208,-135.65379 -302.991208,-302.99121 0,-167.33742 135.653778,-302.9912 302.991208,-302.9912 167.33742,0 302.9912,135.65378 302.9912,302.9912 z"
       transform="matrix(0.3960511,0,0,0.3960511,207.0682,362.93318)"
       id="path2818"
       style="fill:#ff0000;fill-opacity:1;fill-rule:evenodd;stroke:#000000;stroke-width:24;stroke-linecap:round;stroke-linejoin:round;stroke-miterlimit:4;stroke-opacity:1" />
  </g>
</svg>
