<?xml version="1.0" encoding="UTF-8" standalone="no"?>
<!-- Created with Inkscape (http://www.inkscape.org/) -->

<svg
   xmlns:dc="http://purl.org/dc/elements/1.1/"
   xmlns:cc="http://creativecommons.org/ns#"
   xmlns:rdf="http://www.w3.org/1999/02/22-rdf-syntax-ns#"
   xmlns:svg="http://www.w3.org/2000/svg"
   xmlns="http://www.w3.org/2000/svg"
   xmlns:xlink="http://www.w3.org/1999/xlink"
   xmlns:sodipodi="http://sodipodi.sourceforge.net/DTD/sodipodi-0.dtd"
   xmlns:inkscape="http://www.inkscape.org/namespaces/inkscape"
   width="48"
   height="48"
   id="svg2"
   sodipodi:version="0.32"
   inkscape:version="0.46+devel r21210 custom"
   version="1.0"
   sodipodi:docname="color-picker.svg"
   inkscape:output_extension="org.inkscape.output.svg.inkscape">
  <defs
     id="defs4">
    <radialGradient
       inkscape:collect="always"
       xlink:href="#linearGradient7295"
       id="radialGradient7317"
       gradientUnits="userSpaceOnUse"
       gradientTransform="matrix(0.400886,0.839675,-0.909148,0.53153,175.855,133.5929)"
       cx="-39.332813"
       cy="216.23209"
       fx="-38.732441"
       fy="221.93825"
       r="6.5407376" />
    <linearGradient
       inkscape:collect="always"
       id="linearGradient7295">
      <stop
         style="stop-color:black;stop-opacity:1;"
         offset="0"
         id="stop7297" />
      <stop
         style="stop-color:black;stop-opacity:0;"
         offset="1"
         id="stop7299" />
    </linearGradient>
    <linearGradient
       inkscape:collect="always"
       xlink:href="#linearGradient7249"
       id="linearGradient7319"
       gradientUnits="userSpaceOnUse"
       gradientTransform="matrix(0.707107,0.707107,-0.707107,0.707107,141.2585,86.08787)"
       x1="-37.5"
       y1="199.34375"
       x2="-37.5"
       y2="204.34619" />
    <linearGradient
       inkscape:collect="always"
       id="linearGradient7249">
      <stop
         style="stop-color:white;stop-opacity:1;"
         offset="0"
         id="stop7251" />
      <stop
         style="stop-color:white;stop-opacity:0;"
         offset="1"
         id="stop7253" />
    </linearGradient>
  </defs>
  <sodipodi:namedview
     id="base"
     pagecolor="#ffffff"
     bordercolor="#666666"
     borderopacity="1.0"
     inkscape:pageopacity="0.0"
     inkscape:pageshadow="2"
     inkscape:zoom="1.979899"
     inkscape:cx="42.80824"
     inkscape:cy="68.245463"
     inkscape:document-units="px"
     inkscape:current-layer="layer1"
     showgrid="false"
     inkscape:window-width="806"
     inkscape:window-height="591"
     inkscape:window-x="204"
     inkscape:window-y="116" />
  <metadata
     id="metadata7">
    <rdf:RDF>
      <cc:Work
         rdf:about="">
        <dc:format>image/svg+xml</dc:format>
        <dc:type
           rdf:resource="http://purl.org/dc/dcmitype/StillImage" />
        <dc:title />
      </cc:Work>
    </rdf:RDF>
  </metadata>
  <g
     inkscape:label="Layer 1"
     inkscape:groupmode="layer"
     id="layer1">
    <g
       style="display:inline"
       id="draw_dropper"
       transform="matrix(1.9494545,0,0,1.9342195,89.364936,-381.39672)">
      <rect
         style="opacity:0.24267782;fill:#000000;fill-opacity:0;stroke:none"
         id="rect6196"
         width="24.622272"
         height="24.816158"
         x="-45.840996"
         y="197.18373" />
      <path
         id="path7293"
         d="m -33.877915,220.99209 c -3.282467,1.91908 -7.121192,1.01614 -8.568587,-2.01549 -1.447393,-3.03163 0.04195,-7.04961 3.324416,-8.96869 3.282475,-1.91909 7.121192,-1.01614 8.568586,2.01549 1.447394,3.03164 -0.04194,7.0496 -3.324415,8.96869 z"
         style="opacity:0.24267782;fill:url(#radialGradient7317);fill-opacity:1;stroke:none" />
      <path
         sodipodi:nodetypes="cccccc"
         id="path7235"
         d="m -30.706991,203.60021 -8.793026,8.83727 0,2.05361 2.046676,0 8.793026,-8.84418 -2.046676,-2.0467 z"
         style="fill:#d3d7cf;fill-opacity:1;fill-rule:evenodd;stroke:#888a85;stroke-width:1.02996397px;stroke-linecap:butt;stroke-linejoin:miter;stroke-opacity:1" />
      <path
         sodipodi:nodetypes="ccccc"
         id="path17734"
         d="m -30.604142,204.18855 0.708996,0.73916 -8.069523,8.05633 -0.03533,-1.44147 7.395858,-7.35402 z"
         style="fill:#ffffff;fill-opacity:1;stroke:none" />
      <path
         sodipodi:nodetypes="csccccsc"
         id="path7237"
         d="m -25.290871,200.32976 c -1.009806,-1.01309 -2.648893,-1.01311 -3.658702,-1e-5 -0.462824,0.46434 -0.716031,1.06672 -0.75461,1.67475 l -1.829331,0.87175 3.681578,3.69361 0.891788,-1.81237 c 0.60605,-0.0387 1.206471,-0.29275 1.669284,-0.75708 1.009804,-1.01309 1.009797,-2.65754 -7e-6,-3.67065 z"
         style="fill:#183968;fill-opacity:1;stroke:#2e3436;stroke-width:1.02996337;stroke-linecap:round;stroke-linejoin:round;stroke-miterlimit:4;stroke-opacity:1;stroke-dasharray:none;stroke-dashoffset:0" />
      <path
         sodipodi:nodetypes="csccccsc"
         id="path7247"
         d="m -25.972514,200.99286 c -0.697002,-0.697 -1.591775,-0.62424 -2.242306,0.0263 -0.298159,0.29816 -0.364895,1.13488 -0.376691,1.53836 l -0.960669,0.51242 1.480493,1.48051 0.534518,-0.93858 c 0.403485,-0.0118 1.196017,-0.0344 1.494171,-0.3325 0.650526,-0.65052 0.767486,-1.5895 0.07048,-2.2865 z"
         style="opacity:0.58995816;fill:none;stroke:url(#linearGradient7319);stroke-width:1.02996373;stroke-linecap:round;stroke-linejoin:miter;stroke-miterlimit:4;stroke-opacity:1;stroke-dasharray:none;stroke-dashoffset:0" />
      <path
         sodipodi:nodetypes="cccccc"
         id="path7284"
         d="M -34.121107,207.68287 -39,212.54061 -39,214 l 1.363999,0 6.281671,-6.31713 -2.766777,0 z"
         style="fill:#3465a4;fill-opacity:1;fill-rule:evenodd;stroke:none" />
      <path
         sodipodi:nodetypes="ccccc"
         id="path7286"
         d="m -34.118776,207.68287 1.458055,0 -6.339916,6.31713 0,-1.46277 4.881861,-4.85436 z"
         style="fill:#729fcf;fill-opacity:1;stroke:none" />
      <path
         sodipodi:nodetypes="csscc"
         id="path7288"
         d="m -37.5,219.00837 c 0,0.82334 -0.896,1.49156 -2,1.49156 -1.104001,0 -2.000001,-0.66822 -2.000001,-1.49156 0,-0.82335 0.804438,-1.43759 2.000001,-3.50837 1.143651,1.98086 2,2.68502 2,3.50837 z"
         style="fill:#3465a4;fill-opacity:1;stroke:#204a87;stroke-width:1.02996242;stroke-linecap:round;stroke-linejoin:round;stroke-miterlimit:4;stroke-opacity:1;stroke-dashoffset:0" />
      <path
         transform="matrix(1.375848,0,0,1.587816,16.7881,-126.5999)"
         d="m -40.548155,217.65735 c 0,0.34781 -0.326476,0.62977 -0.729204,0.62977 -0.402728,0 -0.729204,-0.28196 -0.729204,-0.62977 0,-0.34781 0.326476,-0.62977 0.729204,-0.62977 0.402728,0 0.729204,0.28196 0.729204,0.62977 z"
         sodipodi:ry="0.629767"
         sodipodi:rx="0.72920388"
         sodipodi:cy="217.65735"
         sodipodi:cx="-41.277359"
         id="path7291"
         style="fill:#ffffff;fill-opacity:0.64806866;stroke:none"
         sodipodi:type="arc" />
    </g>
  </g>
</svg>
