<?xml version="1.0" encoding="UTF-8" standalone="no"?>
<!-- Created with Inkscape (http://www.inkscape.org/) -->

<svg
   xmlns:dc="http://purl.org/dc/elements/1.1/"
   xmlns:cc="http://creativecommons.org/ns#"
   xmlns:rdf="http://www.w3.org/1999/02/22-rdf-syntax-ns#"
   xmlns:svg="http://www.w3.org/2000/svg"
   xmlns="http://www.w3.org/2000/svg"
   xmlns:xlink="http://www.w3.org/1999/xlink"
   xmlns:sodipodi="http://sodipodi.sourceforge.net/DTD/sodipodi-0.dtd"
   xmlns:inkscape="http://www.inkscape.org/namespaces/inkscape"
   width="48"
   height="48"
   id="svg2"
   sodipodi:version="0.32"
   inkscape:version="0.46+devel r21307 custom"
   version="1.0"
   sodipodi:docname="color-fill.svg"
   inkscape:output_extension="org.inkscape.output.svg.inkscape">
  <defs
     id="defs4">
    <linearGradient
       inkscape:collect="always"
       xlink:href="#linearGradient14411"
       id="linearGradient15986"
       gradientUnits="userSpaceOnUse"
       gradientTransform="matrix(-0.222635,-0.373813,0.385616,-0.215821,216.90439,282.12488)"
       spreadMethod="reflect"
       x1="80.82019"
       y1="27.165281"
       x2="104.74687"
       y2="27.652287" />
    <linearGradient
       id="linearGradient14411">
      <stop
         id="stop14413"
         offset="0"
         style="stop-color:#8c8c8c;stop-opacity:1;" />
      <stop
         style="stop-color:#6e7279;stop-opacity:1;"
         offset="0.11148844"
         id="stop14415" />
      <stop
         id="stop14417"
         offset="1"
         style="stop-color:#ffffff;stop-opacity:1;" />
    </linearGradient>
    <radialGradient
       inkscape:collect="always"
       xlink:href="#linearGradient8059"
       id="radialGradient15988"
       gradientUnits="userSpaceOnUse"
       cx="24.660349"
       cy="21.21833"
       fx="24.660349"
       fy="21.21833"
       r="4.3006992" />
    <linearGradient
       id="linearGradient8059">
      <stop
         id="stop8061"
         offset="0.0000000"
         style="stop-color:#ffffff;stop-opacity:1.0000000;" />
      <stop
         id="stop8063"
         offset="1.0000000"
         style="stop-color:#9d9d9d;stop-opacity:1" />
    </linearGradient>
    <linearGradient
       inkscape:collect="always"
       xlink:href="#linearGradient17902"
       id="linearGradient15991"
       gradientUnits="userSpaceOnUse"
       gradientTransform="matrix(0,-0.438799,0.438799,0,191.72418,250.40012)"
       x1="-7.2466669"
       y1="27.182352"
       x2="13.962614"
       y2="27.182352" />
    <linearGradient
       id="linearGradient17902">
      <stop
         style="stop-color:#a9c4e2;stop-opacity:1"
         offset="0.0000000"
         id="stop17904" />
      <stop
         style="stop-color:#729fcf;stop-opacity:1"
         offset="1.0000000"
         id="stop17906" />
    </linearGradient>
    <linearGradient
       inkscape:collect="always"
       xlink:href="#linearGradient17889"
       id="linearGradient15993"
       gradientUnits="userSpaceOnUse"
       gradientTransform="matrix(0.9981189,-0.06130779,0.06130779,0.9981189,-14.416448,12.529498)"
       x1="194.15193"
       y1="235.83804"
       x2="195.83525"
       y2="240.80917" />
    <linearGradient
       inkscape:collect="always"
       id="linearGradient17889">
      <stop
         style="stop-color:#cfd1d3;stop-opacity:1;"
         offset="0"
         id="stop17891" />
      <stop
         style="stop-color:#cfd1d3;stop-opacity:0;"
         offset="1"
         id="stop17893" />
    </linearGradient>
  </defs>
  <sodipodi:namedview
     id="base"
     pagecolor="#ffffff"
     bordercolor="#666666"
     borderopacity="1.0"
     inkscape:pageopacity="0.0"
     inkscape:pageshadow="2"
     inkscape:zoom="1.979899"
     inkscape:cx="-26.633369"
     inkscape:cy="-4.7570621"
     inkscape:document-units="px"
     inkscape:current-layer="layer1"
     showgrid="false"
     inkscape:window-width="806"
     inkscape:window-height="591"
     inkscape:window-x="204"
     inkscape:window-y="116" />
  <metadata
     id="metadata7">
    <rdf:RDF>
      <cc:Work
         rdf:about="">
        <dc:format>image/svg+xml</dc:format>
        <dc:type
           rdf:resource="http://purl.org/dc/dcmitype/StillImage" />
        <dc:title></dc:title>
      </cc:Work>
    </rdf:RDF>
  </metadata>
  <g
     inkscape:label="Layer 1"
     inkscape:groupmode="layer"
     id="layer1">
    <g
       style="display:inline"
       id="draw_paintbucket"
       transform="matrix(2.000001,0,0,2.000001,-2304.0213,-1792.0009)">
      <g
         id="g16933"
         transform="translate(962.01004,668)">
        <path
           sodipodi:nodetypes="cszsz"
           id="path16981"
           d="m 194.14248,234.88559 c -0.688,0.27691 -1.6253,2.84407 0.8376,6.99851 2.325,3.92206 4.7067,4.73312 5.342,4.34396 0.6074,-0.37206 0.849,-3.11964 -1.3109,-6.51492 -1.7488,-2.7491 -4.1807,-5.10446 -4.8687,-4.82755 l 0,0 z"
           style="fill:#555753;fill-opacity:1;stroke:#2e3436;stroke-width:1px;stroke-opacity:1" />
        <rect
           y="228"
           x="190.00002"
           height="24"
           width="23.999989"
           id="rect16935"
           style="opacity:0.24267782;fill:#ffffff;fill-opacity:0;stroke:none" />
        <path
           sodipodi:nodetypes="ccccc"
           id="path16943"
           d="m 200.36249,246.15507 11.05542,-6.3172 c 3.26024,-3.84976 -2.1892,-11.92813 -6.26592,-11.19477 l -11.08164,6.18865 c 4.11624,2.00584 6.45639,7.13135 6.29214,11.32332 z"
           style="fill:url(#linearGradient15986);fill-opacity:1;fill-rule:evenodd;stroke:#2e3436;stroke-width:1;stroke-linecap:butt;stroke-linejoin:round;stroke-miterlimit:4;stroke-opacity:1;stroke-dasharray:none" />
        <path
           sodipodi:nodetypes="ccccc"
           id="path16947"
           d="m 201.55131,244.33532 9.23016,-5.10951 c 2.62584,-3.11887 -2.22853,-10.73195 -5.65581,-9.6417 l -9.2541,5.25831 c 2.60448,1.43538 5.38181,6.13656 5.67975,9.4929 z"
           style="fill:none;stroke:#ffffff;stroke-width:0.93590623;stroke-linecap:butt;stroke-linejoin:miter;stroke-miterlimit:4;stroke-opacity:1;stroke-dasharray:none" />
        <path
           sodipodi:nodetypes="cccc"
           id="path16949"
           d="m 201.50098,235.19685 0,-4.34797 c 0,-3.18436 -5,-3.11978 -5,0.099 l 0,2.44781"
           style="fill:none;stroke:#2e3436;stroke-width:1.00000036;stroke-linecap:round;stroke-linejoin:miter;stroke-miterlimit:4;stroke-opacity:1;stroke-dasharray:none" />
        <path
           transform="matrix(0.440329,-0.251438,0.253871,0.434898,185.3009,234.15746)"
           d="m 28.461048,21.21833 c 0,2.099068 -1.701631,3.800699 -3.800699,3.800699 -2.099068,0 -3.800699,-1.701631 -3.800699,-3.800699 0,-2.099068 1.701631,-3.800699 3.800699,-3.800699 2.099068,0 3.800699,1.701631 3.800699,3.800699 z"
           sodipodi:ry="3.800699"
           sodipodi:rx="3.800699"
           sodipodi:cy="21.21833"
           sodipodi:cx="24.660349"
           id="path16945"
           style="fill:url(#radialGradient15988);fill-opacity:1;fill-rule:evenodd;stroke:#2e3436;stroke-width:2.0692811;stroke-linecap:round;stroke-linejoin:miter;stroke-miterlimit:4;stroke-opacity:1;stroke-dasharray:none;stroke-dashoffset:0"
           sodipodi:type="arc" />
        <path
           sodipodi:nodetypes="csccssccccc"
           id="path16941"
           d="m 195.24857,247.48359 c -2.85243,0 -3.74759,0.85123 -3.74759,1.96852 0,0.80744 0.97138,2.02054 5.21476,2.02054 l 6.99179,0 c 3.57873,0 7.31984,-0.61499 7.31984,-2.0132 0,-1.35279 -3.84445,-1.98318 -6.92624,-1.99083 l -1.20865,-0.003 -1.38584,0.021 c -2.35207,-0.45265 -2.08803,-2.81647 -2.7047,-4.71838 -1.24071,0.8305 -1.34182,1.89386 -1.85735,3.41627 -0.22756,0.54895 -1.07871,1.31114 -1.69602,1.29908 l 0,0 z"
           style="fill:url(#linearGradient15991);fill-opacity:1;fill-rule:evenodd;stroke:#204a87;stroke-width:1.00000036;stroke-linecap:butt;stroke-linejoin:round;stroke-miterlimit:4;stroke-opacity:1;stroke-dasharray:none" />
        <path
           style="font-size:medium;font-style:normal;font-variant:normal;font-weight:normal;font-stretch:normal;text-indent:0;text-align:start;text-decoration:none;line-height:normal;letter-spacing:normal;word-spacing:normal;text-transform:none;direction:ltr;block-progression:tb;writing-mode:lr-tb;text-anchor:start;fill:url(#linearGradient15993);fill-opacity:1;stroke:none;stroke-width:1px;marker:none;visibility:visible;display:inline;overflow:visible;enable-background:accumulate;font-family:Bitstream Vera Sans;-inkscape-font-specification:Bitstream Vera Sans"
           d="m 194.22756,236.02426 c -0.18842,0.0744 -0.31331,0.25519 -0.31628,0.45775 -0.17839,2.4771 1.21465,5.11947 2.88997,6.27212 0.22591,0.15904 0.53798,0.10483 0.69702,-0.12108 0.15903,-0.22592 0.10482,-0.53798 -0.12109,-0.69702 -1.2654,-0.87061 -2.60531,-3.37448 -2.46011,-5.39057 0.0213,-0.17673 -0.0529,-0.35148 -0.19491,-0.45883 -0.14201,-0.10735 -0.33039,-0.1311 -0.4946,-0.0624 l 0,0 z"
           id="path17109" />
        <path
           transform="matrix(0,-1.262951,1.262951,0,183.80462,250.72399)"
           d="m 2.34375,7.65625 c 0,0.4142136 -0.3357864,0.75 -0.75,0.75 -0.4142136,0 -0.75,-0.3357864 -0.75,-0.75 0,-0.4142136 0.3357864,-0.75 0.75,-0.75 0.4142136,0 0.75,0.3357864 0.75,0.75 z"
           sodipodi:ry="0.75"
           sodipodi:rx="0.75"
           sodipodi:cy="7.65625"
           sodipodi:cx="1.59375"
           id="path16951"
           style="fill:#ffffff;fill-opacity:1;fill-rule:nonzero;stroke:none;stroke-width:0.2;marker:none;visibility:visible;display:inline;overflow:visible"
           sodipodi:type="arc" />
      </g>
      <path
         sodipodi:nodetypes="cccccsccsccc"
         id="path22147"
         d="m 1160.4469,912.45405 c -0.01,0.0472 -0.021,-0.71632 -0.093,-0.32705 -0.3291,1.2347 -0.679,3.43827 -2.6893,4.10427 -2.2873,0.077 -2.2077,0.12102 -2.9376,0.46484 -0.5883,0.35956 -0.5634,0.90636 0.033,1.40516 0.8773,0.38238 2.4504,0.69495 4.8438,0.70702 4.4723,0.0225 7.8123,-0.008 9.9525,-0.34819 0.9095,-0.18805 2.1195,-0.46922 2.7037,-0.91999 -0.021,-0.0138 -0.01,-0.23756 -0.031,-0.2519 -0.3452,-0.20498 -1.2518,-0.42754 -2.1537,-0.63632 -2.9296,-0.99676 -6.4805,0.0999 -8.1026,-0.98978 -0.9285,-0.81464 -1.1459,-1.80468 -1.5256,-3.20806 z"
         style="fill:none;stroke:#ffffff;stroke-width:0.49999997;stroke-linecap:butt;stroke-linejoin:miter;stroke-miterlimit:4;stroke-opacity:0.67010307;stroke-dashoffset:0;marker:none;visibility:visible;display:inline;overflow:visible;enable-background:accumulate" />
    </g>
  </g>
</svg>
