<?xml version="1.0" encoding="UTF-8" standalone="no"?>
<!-- Created with Inkscape (http://www.inkscape.org/) -->

<svg
   xmlns:dc="http://purl.org/dc/elements/1.1/"
   xmlns:cc="http://creativecommons.org/ns#"
   xmlns:rdf="http://www.w3.org/1999/02/22-rdf-syntax-ns#"
   xmlns:svg="http://www.w3.org/2000/svg"
   xmlns="http://www.w3.org/2000/svg"
   xmlns:xlink="http://www.w3.org/1999/xlink"
   xmlns:sodipodi="http://sodipodi.sourceforge.net/DTD/sodipodi-0.dtd"
   xmlns:inkscape="http://www.inkscape.org/namespaces/inkscape"
   width="48"
   height="48"
   id="svg6944"
   sodipodi:version="0.32"
   inkscape:version="0.46+devel r21210 custom"
   version="1.0"
   sodipodi:docname="document-import.svg"
   inkscape:output_extension="org.inkscape.output.svg.inkscape">
  <defs
     id="defs6946">
    <linearGradient
       id="linearGradient2778">
      <stop
         style="stop-color:#eeeeec;stop-opacity:1"
         offset="0"
         id="stop2780" />
      <stop
         style="stop-color:#d3d7cf;stop-opacity:1"
         offset="1"
         id="stop2782" />
    </linearGradient>
    <linearGradient
       inkscape:collect="always"
       id="linearGradient2874">
      <stop
         style="stop-color:white;stop-opacity:1;"
         offset="0"
         id="stop2876" />
      <stop
         style="stop-color:white;stop-opacity:0;"
         offset="1"
         id="stop2878" />
    </linearGradient>
    <linearGradient
       inkscape:collect="always"
       id="linearGradient2828">
      <stop
         style="stop-color:black;stop-opacity:1;"
         offset="0"
         id="stop2830" />
      <stop
         style="stop-color:black;stop-opacity:0;"
         offset="1"
         id="stop2832" />
    </linearGradient>
    <linearGradient
       id="linearGradient2798">
      <stop
         id="stop2800"
         offset="0"
         style="stop-color:white;stop-opacity:1" />
      <stop
         id="stop2802"
         offset="1"
         style="stop-color:#d3d7cf;stop-opacity:0;" />
    </linearGradient>
    <linearGradient
       inkscape:collect="always"
       id="linearGradient2788">
      <stop
         style="stop-color:#888a85;stop-opacity:1;"
         offset="0"
         id="stop2790" />
      <stop
         style="stop-color:#888a85;stop-opacity:0;"
         offset="1"
         id="stop2792" />
    </linearGradient>
    <linearGradient
       inkscape:collect="always"
       xlink:href="#linearGradient2828"
       id="linearGradient7136"
       gradientUnits="userSpaceOnUse"
       gradientTransform="translate(0,-3)"
       x1="14.40625"
       y1="5.078125"
       x2="13.828125"
       y2="6.453125" />
    <linearGradient
       inkscape:collect="always"
       xlink:href="#linearGradient2798"
       id="linearGradient7138"
       gradientUnits="userSpaceOnUse"
       gradientTransform="translate(0,-3)"
       x1="13.5"
       y1="3.3125"
       x2="13.125"
       y2="1.75" />
    <linearGradient
       inkscape:collect="always"
       xlink:href="#linearGradient2788"
       id="linearGradient7140"
       gradientUnits="userSpaceOnUse"
       gradientTransform="translate(0,-3)"
       x1="12.9375"
       y1="3.25"
       x2="11.6875"
       y2="1.25" />
    <linearGradient
       inkscape:collect="always"
       xlink:href="#linearGradient2874"
       id="linearGradient7158"
       gradientUnits="userSpaceOnUse"
       gradientTransform="matrix(3,0,0,3,-12,-9)"
       x1="9"
       y1="5.125"
       x2="18.625"
       y2="34.4375" />
    <radialGradient
       inkscape:collect="always"
       xlink:href="#linearGradient2778"
       id="radialGradient7162"
       gradientUnits="userSpaceOnUse"
       gradientTransform="matrix(6.695553,0,0,7.370025,-21.47775,-33.05073)"
       cx="4.8879852"
       cy="5.044178"
       fx="4.8879852"
       fy="5.044178"
       r="11" />
  </defs>
  <sodipodi:namedview
     id="base"
     pagecolor="#ffffff"
     bordercolor="#666666"
     borderopacity="1.0"
     inkscape:pageopacity="0.0"
     inkscape:pageshadow="2"
     inkscape:zoom="1.979899"
     inkscape:cx="19.54237"
     inkscape:cy="-1.3887597"
     inkscape:document-units="px"
     inkscape:current-layer="layer1"
     showgrid="false"
     inkscape:window-width="675"
     inkscape:window-height="431"
     inkscape:window-x="339"
     inkscape:window-y="112" />
  <metadata
     id="metadata6949">
    <rdf:RDF>
      <cc:Work
         rdf:about="">
        <dc:format>image/svg+xml</dc:format>
        <dc:type
           rdf:resource="http://purl.org/dc/dcmitype/StillImage" />
        <dc:title />
      </cc:Work>
    </rdf:RDF>
  </metadata>
  <g
     inkscape:label="Layer 1"
     inkscape:groupmode="layer"
     id="layer1">
    <path
       style="fill:url(#radialGradient7162);fill-opacity:1;stroke:#888a85;stroke-width:2.99999809;stroke-linecap:round;stroke-linejoin:round;stroke-miterlimit:4;stroke-opacity:1;stroke-dasharray:none;stroke-dashoffset:0"
       d="m 10.5,1.4999991 c -1.662,0 -3,1.3379997 -3,3 l 0,5.9999999 0,9 6,0 0,-6 12,12 -12,12.000001 0,-6 -6,0 0,12 c 0,1.662 1.338,2.999997 3,3 l 27,0 c 1.662,0 3,-1.338003 3,-3 l 0,-33.000001 -9,-8.9999999 -21,0 z"
       id="rect1879"
       sodipodi:nodetypes="ccccccccccccccccc" />
    <path
       style="opacity:0.6;fill:#fce94f;fill-opacity:1;stroke:none"
       d="m 21,14.999999 0,3.9375 5.53125,5.53125 c 0.569463,0.569577 0.569463,1.492923 0,2.0625 L 21,32.0625 21,36 l 12,0 0,-21.000001 -12,0 z"
       id="rect2922"
       sodipodi:nodetypes="ccccccccc" />
    <path
       style="fill:none;stroke:url(#linearGradient7158);stroke-width:3;stroke-linecap:round;stroke-linejoin:miter;stroke-miterlimit:4;stroke-opacity:1;stroke-dashoffset:0"
       d="m 10.5,4.4999991 0,5.9999999 0,6 0,0 0,-3 c -0.02906,-1.235193 0.702057,-2.3619 1.841937,-2.838577 1.139877,-0.476677 2.455419,-0.205843 3.314313,0.682327 l 12,12 c 0.584214,0.565245 0.914064,1.343352 0.914064,2.15625 0,0.812898 -0.32985,1.591005 -0.914064,2.15625 l -12,12.000001 c -0.858894,0.888171 -2.174436,1.159005 -3.314313,0.682326 C 11.202057,39.8619 10.470942,38.735193 10.5,37.5 l 0,-3 0,0 0,9 27,0 0,-31.687501 -7.3125,-7.3124999 -19.6875,0 z"
       id="path2870"
       sodipodi:nodetypes="cccccsccsccscccccccc" />
    <g
       id="g1927"
       transform="matrix(3,0,0,3,-6,9)">
      <path
         sodipodi:nodetypes="ccccc"
         id="path2820"
         d="M 11,1 11.265165,2.4033787 15,4.2626747 15,1.9501747 11,1 z"
         style="opacity:0.3;fill:url(#linearGradient7136);fill-opacity:1;fill-rule:evenodd;stroke:none" />
      <path
         sodipodi:nodetypes="ccccc"
         id="path2786"
         d="m 11.5,-1 0,2.5 4,0 0,-1 -3,-3"
         style="fill:url(#linearGradient7138);fill-opacity:1;stroke:url(#linearGradient7140);stroke-width:0.9999994;stroke-linecap:round;stroke-linejoin:round;stroke-miterlimit:4;stroke-opacity:1;stroke-dasharray:none;stroke-dashoffset:0" />
    </g>
    <g
       id="g2937"
       style="fill:#888a85"
       transform="matrix(3,0,0,3,-15,-9)">
      <rect
         y="7"
         x="12"
         height="1"
         width="1"
         id="rect2896"
         style="fill:#888a85;fill-opacity:1;stroke:none" />
      <rect
         y="7"
         x="14"
         height="1"
         width="1"
         id="rect2898"
         style="fill:#888a85;fill-opacity:1;stroke:none" />
      <rect
         y="7"
         x="16"
         height="1"
         width="1"
         id="rect2900"
         style="fill:#888a85;fill-opacity:1;stroke:none" />
      <rect
         y="9.0441942"
         x="16"
         height="1"
         width="1"
         id="rect2902"
         style="fill:#888a85;fill-opacity:1;stroke:none" />
      <rect
         y="11.044194"
         x="16"
         height="1"
         width="1"
         id="rect2904"
         style="fill:#888a85;fill-opacity:1;stroke:none" />
      <rect
         y="13.044194"
         x="16"
         height="1"
         width="1"
         id="rect2906"
         style="fill:#888a85;fill-opacity:1;stroke:none" />
      <rect
         y="15.044194"
         x="16"
         height="1"
         width="1"
         id="rect2908"
         style="fill:#888a85;fill-opacity:1;stroke:none" />
      <rect
         y="15.044194"
         x="14"
         height="1"
         width="1"
         id="rect2910"
         style="fill:#888a85;fill-opacity:1;stroke:none" />
      <rect
         y="15.044194"
         x="12"
         height="1"
         width="1"
         id="rect2912"
         style="fill:#888a85;fill-opacity:1;stroke:none" />
    </g>
    <rect
       style="fill:#ffffff;fill-opacity:1;stroke:none"
       id="rect2838"
       width="3"
       height="3"
       x="9"
       y="33" />
    <rect
       style="fill:#ffffff;fill-opacity:1;stroke:none"
       id="rect2840"
       width="3"
       height="3"
       x="9"
       y="15" />
  </g>
</svg>
