<?xml version="1.0" encoding="UTF-8" standalone="no"?>
<!-- Created with Inkscape (http://www.inkscape.org/) -->

<svg
   xmlns:dc="http://purl.org/dc/elements/1.1/"
   xmlns:cc="http://creativecommons.org/ns#"
   xmlns:rdf="http://www.w3.org/1999/02/22-rdf-syntax-ns#"
   xmlns:svg="http://www.w3.org/2000/svg"
   xmlns="http://www.w3.org/2000/svg"
   xmlns:xlink="http://www.w3.org/1999/xlink"
   xmlns:sodipodi="http://sodipodi.sourceforge.net/DTD/sodipodi-0.dtd"
   xmlns:inkscape="http://www.inkscape.org/namespaces/inkscape"
   width="48"
   height="48"
   id="svg6944"
   sodipodi:version="0.32"
   inkscape:version="0.46+devel r21210 custom"
   version="1.0"
   sodipodi:docname="document-export.svg"
   inkscape:output_extension="org.inkscape.output.svg.inkscape">
  <defs
     id="defs6946">
    <linearGradient
       id="linearGradient2778-7">
      <stop
         style="stop-color:#eeeeec;stop-opacity:1"
         offset="0"
         id="stop2780-8" />
      <stop
         style="stop-color:#d3d7cf;stop-opacity:1"
         offset="1"
         id="stop2782-9" />
    </linearGradient>
    <linearGradient
       inkscape:collect="always"
       id="linearGradient2810">
      <stop
         style="stop-color:white;stop-opacity:1;"
         offset="0"
         id="stop2812" />
      <stop
         style="stop-color:white;stop-opacity:0;"
         offset="1"
         id="stop2814" />
    </linearGradient>
    <linearGradient
       inkscape:collect="always"
       xlink:href="#linearGradient2828-9"
       id="linearGradient22371"
       gradientUnits="userSpaceOnUse"
       gradientTransform="translate(-6,-3)"
       x1="14.40625"
       y1="5.078125"
       x2="13.828125"
       y2="6.453125" />
    <linearGradient
       inkscape:collect="always"
       id="linearGradient2828-9">
      <stop
         style="stop-color:black;stop-opacity:1;"
         offset="0"
         id="stop2830-3" />
      <stop
         style="stop-color:black;stop-opacity:0;"
         offset="1"
         id="stop2832-9" />
    </linearGradient>
    <linearGradient
       inkscape:collect="always"
       xlink:href="#linearGradient2798-4"
       id="linearGradient22373"
       gradientUnits="userSpaceOnUse"
       gradientTransform="translate(-6,-3)"
       x1="13.5"
       y1="3.3125"
       x2="13.125"
       y2="1.75" />
    <linearGradient
       id="linearGradient2798-4">
      <stop
         id="stop2800-6"
         offset="0"
         style="stop-color:white;stop-opacity:1" />
      <stop
         id="stop2802-4"
         offset="1"
         style="stop-color:#d3d7cf;stop-opacity:0;" />
    </linearGradient>
    <linearGradient
       inkscape:collect="always"
       xlink:href="#linearGradient2788-5"
       id="linearGradient22375"
       gradientUnits="userSpaceOnUse"
       gradientTransform="translate(-6,-3)"
       x1="12.9375"
       y1="3.25"
       x2="11.6875"
       y2="1.25" />
    <linearGradient
       inkscape:collect="always"
       id="linearGradient2788-5">
      <stop
         style="stop-color:#888a85;stop-opacity:1;"
         offset="0"
         id="stop2790-5" />
      <stop
         style="stop-color:#888a85;stop-opacity:0;"
         offset="1"
         id="stop2792-5" />
    </linearGradient>
    <linearGradient
       inkscape:collect="always"
       xlink:href="#linearGradient2810"
       id="linearGradient7344"
       gradientUnits="userSpaceOnUse"
       gradientTransform="matrix(3,0,0,3,-18,-9)"
       x1="6.375"
       y1="2.75"
       x2="10.78125"
       y2="29.75" />
    <radialGradient
       inkscape:collect="always"
       xlink:href="#linearGradient2778-7"
       id="radialGradient7347"
       gradientUnits="userSpaceOnUse"
       gradientTransform="matrix(6.695553,0,0,7.370025,-36.4776,-33.05073)"
       cx="4.8879852"
       cy="5.044178"
       fx="4.8879852"
       fy="5.044178"
       r="11" />
  </defs>
  <sodipodi:namedview
     id="base"
     pagecolor="#ffffff"
     bordercolor="#666666"
     borderopacity="1.0"
     inkscape:pageopacity="0.0"
     inkscape:pageshadow="2"
     inkscape:zoom="1.979899"
     inkscape:cx="19.54237"
     inkscape:cy="-1.3887597"
     inkscape:document-units="px"
     inkscape:current-layer="layer1"
     showgrid="false"
     inkscape:window-width="675"
     inkscape:window-height="431"
     inkscape:window-x="339"
     inkscape:window-y="112" />
  <metadata
     id="metadata6949">
    <rdf:RDF>
      <cc:Work
         rdf:about="">
        <dc:format>image/svg+xml</dc:format>
        <dc:type
           rdf:resource="http://purl.org/dc/dcmitype/StillImage" />
        <dc:title />
      </cc:Work>
    </rdf:RDF>
  </metadata>
  <g
     inkscape:label="Layer 1"
     inkscape:groupmode="layer"
     id="layer1">
    <path
       style="fill:url(#radialGradient7347);fill-opacity:1;stroke:#888a85;stroke-width:2.99999809;stroke-linecap:round;stroke-linejoin:round;stroke-miterlimit:4;stroke-opacity:1;stroke-dasharray:none;stroke-dashoffset:0"
       d="m 4.5,1.499976 c -1.662,0 -3,1.338 -3,3 L 1.5,43.5 c 0,1.662 1.338,3 3,3 l 27,0 c 1.662,0 3,-1.338 3,-3 l 0,-12 0,0 0,6 12,-12.000024 -12,-12 0,6 0,0 0,-9 -9,-9 -21,0 z"
       id="path2840"
       sodipodi:nodetypes="cccccccccccccccc" />
    <path
       style="fill:none;stroke:url(#linearGradient7344);stroke-width:3;stroke-linecap:round;stroke-linejoin:miter;stroke-miterlimit:4;stroke-opacity:1;stroke-dashoffset:0"
       d="M 4.5,4.499976 4.5,43.5 l 27,0 0,-12 c 1.5e-4,-1.656795 1.34322,-2.999865 3,-3.000015 l 0,0 c 1.23387,-0.0129 2.34975,0.7311 2.8125,1.875015 l 4.875,-4.875024 -4.96875,-4.875 c -0.44979,1.112427 -1.51911,1.849887 -2.71875,1.875 l 0,0 c -1.65678,-1.65e-4 -2.99985,-1.343214 -3,-3 l 0,-7.6875 -7.3125,-7.3125 -19.6875,0 z"
       id="path2842"
       sodipodi:nodetypes="ccccccccccccccc" />
    <g
       id="g2816"
       transform="scale(3,3)">
      <path
         transform="matrix(0.769641,0,0,1.001213,23.26193,-0.854122)"
         d="m -19.180271,10.840971 c 0,1.379039 -1.454301,2.496971 -3.248272,2.496971 -1.793971,0 -3.248272,-1.117932 -3.248272,-2.496971 0,-1.379039 1.454301,-2.4969709 3.248272,-2.4969709 1.793971,0 3.248272,1.1179319 3.248272,2.4969709 z"
         sodipodi:ry="2.4969709"
         sodipodi:rx="3.2482717"
         sodipodi:cy="10.840971"
         sodipodi:cx="-22.428543"
         id="path2884"
         style="fill:#729fcf;fill-opacity:1;stroke:#204a87;stroke-width:1.13918138;stroke-linecap:round;stroke-linejoin:miter;stroke-miterlimit:4;stroke-opacity:1;stroke-dasharray:none;stroke-dashoffset:0"
         sodipodi:type="arc" />
      <path
         transform="matrix(0.461785,0,0,0.600728,16.35718,3.487523)"
         d="m -19.180271,10.840971 c 0,1.379039 -1.454301,2.496971 -3.248272,2.496971 -1.793971,0 -3.248272,-1.117932 -3.248272,-2.496971 0,-1.379039 1.454301,-2.4969709 3.248272,-2.4969709 1.793971,0 3.248272,1.1179319 3.248272,2.4969709 z"
         sodipodi:ry="2.4969709"
         sodipodi:rx="3.2482717"
         sodipodi:cy="10.840971"
         sodipodi:cx="-22.428543"
         id="path19379"
         style="opacity:0.5;fill:none;stroke:#ffffff;stroke-width:1.89863503;stroke-linecap:round;stroke-linejoin:miter;stroke-miterlimit:4;stroke-opacity:1;stroke-dasharray:none;stroke-dashoffset:0"
         sodipodi:type="arc" />
      <rect
         y="6"
         x="2"
         height="1"
         width="1"
         id="rect2888"
         style="fill:#2e3436;fill-opacity:1;stroke:none" />
      <rect
         y="6"
         x="9"
         height="1"
         width="1"
         id="rect2890"
         style="fill:#2e3436;fill-opacity:1;stroke:none" />
      <rect
         y="13"
         x="9"
         height="1"
         width="1"
         id="rect2892"
         style="fill:#2e3436;fill-opacity:1;stroke:none" />
      <rect
         y="13"
         x="2"
         height="1"
         width="1"
         id="rect2894"
         style="fill:#2e3436;fill-opacity:1;stroke:none" />
    </g>
    <rect
       style="fill:#888a85;fill-opacity:1;stroke:none"
       id="rect1947"
       width="3"
       height="3"
       x="33"
       y="29.999947" />
    <rect
       style="fill:#888a85;fill-opacity:1;stroke:none"
       id="rect1949"
       width="3"
       height="3"
       x="33"
       y="17.999969" />
    <g
       id="g1937"
       transform="matrix(3,0,0,3,6,9)">
      <path
         sodipodi:nodetypes="ccccc"
         id="path2844"
         d="M 5,1 5.265165,2.4033787 9,4.2626747 9,1.9501747 5,1 z"
         style="opacity:0.3;fill:url(#linearGradient22371);fill-opacity:1;fill-rule:evenodd;stroke:none" />
      <path
         sodipodi:nodetypes="ccccc"
         id="path2846"
         d="m 5.5,-1 0,2.5 4,0 0,-1 -3,-3"
         style="fill:url(#linearGradient22373);fill-opacity:1;stroke:url(#linearGradient22375);stroke-width:0.9999994;stroke-linecap:round;stroke-linejoin:round;stroke-miterlimit:4;stroke-opacity:1;stroke-dasharray:none;stroke-dashoffset:0" />
    </g>
    <path
       style="opacity:0.3;fill:none;stroke:#000000;stroke-width:2.99999809;stroke-linecap:square;stroke-linejoin:round;stroke-miterlimit:4;stroke-opacity:1;stroke-dasharray:none;stroke-dashoffset:0"
       d="m 34.5,31.5 0,6 12,-12.000024 -12,-12 0,6 0,0"
       id="path2843"
       sodipodi:nodetypes="cccccc" />
  </g>
</svg>
