<?xml version="1.0" encoding="UTF-8" standalone="no"?>
<!-- Created with Inkscape (http://www.inkscape.org/) -->

<svg
   xmlns:dc="http://purl.org/dc/elements/1.1/"
   xmlns:cc="http://creativecommons.org/ns#"
   xmlns:rdf="http://www.w3.org/1999/02/22-rdf-syntax-ns#"
   xmlns:svg="http://www.w3.org/2000/svg"
   xmlns="http://www.w3.org/2000/svg"
   xmlns:xlink="http://www.w3.org/1999/xlink"
   xmlns:sodipodi="http://sodipodi.sourceforge.net/DTD/sodipodi-0.dtd"
   xmlns:inkscape="http://www.inkscape.org/namespaces/inkscape"
   width="48"
   height="48"
   id="svg2"
   sodipodi:version="0.32"
   inkscape:version="0.46+devel r21210 custom"
   version="1.0"
   sodipodi:docname="draw-spiral.svg"
   inkscape:output_extension="org.inkscape.output.svg.inkscape">
  <defs
     id="defs4">
    <radialGradient
       inkscape:collect="always"
       xlink:href="#linearGradient2195-1"
       id="radialGradient16321"
       gradientUnits="userSpaceOnUse"
       gradientTransform="matrix(1,0,0,0.157407,0,37.75868)"
       cx="25.125"
       cy="44.8125"
       fx="25.125"
       fy="44.8125"
       r="20.25" />
    <linearGradient
       id="linearGradient2195-1">
      <stop
         id="stop2197-64"
         offset="0"
         style="stop-color:#000000;stop-opacity:1;" />
      <stop
         id="stop2199-7"
         offset="1"
         style="stop-color:#000000;stop-opacity:0;" />
    </linearGradient>
  </defs>
  <sodipodi:namedview
     id="base"
     pagecolor="#ffffff"
     bordercolor="#666666"
     borderopacity="1.0"
     inkscape:pageopacity="0.0"
     inkscape:pageshadow="2"
     inkscape:zoom="1.979899"
     inkscape:cx="27.891728"
     inkscape:cy="-21.667132"
     inkscape:document-units="px"
     inkscape:current-layer="layer1"
     showgrid="false"
     inkscape:window-width="806"
     inkscape:window-height="591"
     inkscape:window-x="204"
     inkscape:window-y="116" />
  <metadata
     id="metadata7">
    <rdf:RDF>
      <cc:Work
         rdf:about="">
        <dc:format>image/svg+xml</dc:format>
        <dc:type
           rdf:resource="http://purl.org/dc/dcmitype/StillImage" />
        <dc:title />
      </cc:Work>
    </rdf:RDF>
  </metadata>
  <g
     inkscape:label="Layer 1"
     inkscape:groupmode="layer"
     id="layer1">
    <g
       transform="matrix(2,0,0,2,-2304,-1216)"
       style="display:inline"
       id="draw_spiral">
      <rect
         y="608"
         x="1152"
         height="24"
         width="24"
         id="rect11399"
         style="opacity:0.24267782;fill:#000000;fill-opacity:0;stroke:none;display:inline" />
      <path
         transform="matrix(0.555978,0,0,0.941176,1149.7725,586.82354)"
         d="M 45.375,44.8125 C 45.375,46.572908 36.308766,48 25.125,48 13.941234,48 4.875,46.572908 4.875,44.8125 c 0,-1.760408 9.066234,-3.1875 20.25,-3.1875 11.183766,0 20.25,1.427092 20.25,3.1875 z"
         sodipodi:ry="3.1875"
         sodipodi:rx="20.25"
         sodipodi:cy="44.8125"
         sodipodi:cx="25.125"
         id="path16307"
         style="opacity:0.18333333;fill:url(#radialGradient16321);fill-opacity:1;fill-rule:evenodd;stroke:none;stroke-width:1;marker:none;visibility:visible;display:block;overflow:visible"
         sodipodi:type="arc" />
      <path
         sodipodi:nodetypes="cssssssssc"
         id="path16309"
         d="m 1163.0223,621.36587 c 0.984,1.12658 -0.7866,2.23144 -1.6993,2.11249 -1.9908,-0.25946 -2.7296,-2.58033 -2.1316,-4.30609 0.7927,-2.28743 3.4764,-3.13148 5.9229,-2.31162 2.4623,0.82515 3.6622,4.94623 2.4629,7.43886 -1.673,3.47708 -5.3261,5.15289 -8.8826,3.56366 -4.1855,-1.87033 -5.8197,-7.0293 -3.9348,-11.12097 2.1602,-4.68941 7.9396,-6.50654 12.5092,-4.32579 5.1382,2.45211 7.1178,8.87494 4.671,13.93983 -0.289,0.59824 -0.6328,1.16965 -1.0253,1.70515"
         style="fill:none;stroke:#555753;stroke-width:3;stroke-linecap:round;stroke-linejoin:miter;stroke-miterlimit:4;stroke-opacity:1" />
      <path
         sodipodi:nodetypes="cssssssssc"
         id="path16311"
         d="m 1163.0223,621.36587 c 0.984,1.12658 -0.7866,2.23144 -1.6993,2.11249 -1.9908,-0.25946 -2.7296,-2.58033 -2.1316,-4.30609 0.7927,-2.28743 3.4764,-3.13148 5.9229,-2.31162 2.4623,0.82515 3.6622,4.94623 2.4629,7.43886 -1.673,3.47708 -5.3261,5.15289 -8.8826,3.56366 -4.1855,-1.87033 -5.8197,-7.0293 -3.9348,-11.12097 2.1602,-4.68941 7.9396,-6.50654 12.5092,-4.32579 5.1382,2.45211 7.1178,8.87494 4.671,13.93983 -0.289,0.59824 -0.6328,1.16965 -1.0253,1.70515"
         style="fill:none;stroke:#ffffff;stroke-width:1.39999998;stroke-linecap:round;stroke-linejoin:miter;stroke-miterlimit:4;stroke-opacity:1;stroke-dasharray:none" />
    </g>
  </g>
</svg>
