<?xml version="1.0" encoding="UTF-8" standalone="no"?>
<!-- Created with Inkscape (http://www.inkscape.org/) -->

<svg
   xmlns:dc="http://purl.org/dc/elements/1.1/"
   xmlns:cc="http://creativecommons.org/ns#"
   xmlns:rdf="http://www.w3.org/1999/02/22-rdf-syntax-ns#"
   xmlns:svg="http://www.w3.org/2000/svg"
   xmlns="http://www.w3.org/2000/svg"
   xmlns:sodipodi="http://sodipodi.sourceforge.net/DTD/sodipodi-0.dtd"
   xmlns:inkscape="http://www.inkscape.org/namespaces/inkscape"
   width="48"
   height="48"
   id="svg6944"
   sodipodi:version="0.32"
   inkscape:version="0.46+devel r21210 custom"
   version="1.0"
   sodipodi:docname="layer-rename.svg"
   inkscape:output_extension="org.inkscape.output.svg.inkscape">
  <defs
     id="defs6946" />
  <sodipodi:namedview
     id="base"
     pagecolor="#ffffff"
     bordercolor="#666666"
     borderopacity="1.0"
     inkscape:pageopacity="0.0"
     inkscape:pageshadow="2"
     inkscape:zoom="1.979899"
     inkscape:cx="25.906367"
     inkscape:cy="41.909323"
     inkscape:document-units="px"
     inkscape:current-layer="layer1"
     showgrid="false"
     inkscape:window-width="1024"
     inkscape:window-height="737"
     inkscape:window-x="0"
     inkscape:window-y="1" />
  <metadata
     id="metadata6949">
    <rdf:RDF>
      <cc:Work
         rdf:about="">
        <dc:format>image/svg+xml</dc:format>
        <dc:type
           rdf:resource="http://purl.org/dc/dcmitype/StillImage" />
        <dc:title />
      </cc:Work>
    </rdf:RDF>
  </metadata>
  <g
     inkscape:label="Layer 1"
     inkscape:groupmode="layer"
     id="layer1">
    <g
       transform="matrix(3.0000323,0,0,3.0000323,-1152.0129,-456.00568)"
       style="display:inline"
       id="rename_layer">
      <path
         style="fill:#dfdfdb;fill-opacity:1;fill-rule:evenodd;stroke:#555753;stroke-width:1.0000875;stroke-linecap:square;stroke-linejoin:round;stroke-miterlimit:0;stroke-opacity:1;stroke-dasharray:none;stroke-dashoffset:0;marker:none;visibility:visible;display:inline;overflow:visible;enable-background:accumulate"
         d="m 388.50015,167.50004 10.99981,0 -3.99993,-5 -10.99981,0 3.99993,5 z"
         id="path11266"
         sodipodi:nodetypes="ccccc" />
      <rect
         y="153"
         x="387"
         height="8"
         width="13"
         id="rect11670"
         style="fill:#3465a4;fill-opacity:1;fill-rule:evenodd;stroke:none;stroke-width:2;marker:none;visibility:visible;display:inline;overflow:visible;enable-background:accumulate" />
      <path
         sodipodi:nodetypes="cccsscsssccscccccsscssccccscscc"
         id="path11268"
         d="m 385.03125,153 0,1 0.46875,0 c 0,0 0.15051,-0.003 0.28125,0.0625 0.13074,0.0654 0.21875,0.10417 0.21875,0.4375 0,1 0,5 0,5 0,0 0.007,0.0398 0,0.0937 -0.007,0.054 -0.0298,0.12213 -0.0625,0.1875 -0.0654,0.13079 -0.10417,0.2188 -0.4375,0.2188 -0.23438,0 -0.37597,0 -0.46875,0 l 0,1 c 0.0928,0 0.23437,0 0.46875,0 0.42184,0 0.76071,-0.16029 1,-0.375 0.23929,0.21471 0.57816,0.375 1,0.375 0.16667,0 0.33333,0 0.5,0 l 0,-1 c -0.16667,0 -0.33333,0 -0.5,0 -0.33333,0 -0.37213,-0.088 -0.4375,-0.21875 -0.0327,-0.0654 -0.055,-0.13353 -0.0625,-0.1875 0.002,-0.0278 0,-0.0937 0,-0.0937 0,0 0,-4 0,-5 0,-0.33333 0.088,-0.37213 0.21875,-0.4375 C 387.34949,153.99713 387.5,154 387.5,154 l 0.46875,0 0,-1 -0.46875,0 c 0,0 -0.34949,0.003 -0.71875,0.1875 -0.0923,0.0462 -0.1907,0.10788 -0.28125,0.1875 -0.0906,-0.0796 -0.18894,-0.14134 -0.28125,-0.1875 C 385.84949,153.00287 385.5,153 385.5,153 l -0.46875,0 z"
         style="fill:#ffffff;fill-opacity:1;fill-rule:evenodd;stroke:#000000;stroke-width:2;stroke-linecap:butt;stroke-linejoin:round;stroke-miterlimit:4;stroke-opacity:1;stroke-dasharray:none;stroke-dashoffset:0;marker:none;visibility:visible;display:inline;overflow:visible;enable-background:accumulate" />
      <path
         style="fill:#ffffff;fill-opacity:1;fill-rule:evenodd;stroke:none;stroke-width:1;marker:none;visibility:visible;display:inline;overflow:visible;enable-background:accumulate"
         d="m 385.03125,153 0,1 0.46875,0 c 0,0 0.15051,-0.003 0.28125,0.0625 0.13074,0.0654 0.21875,0.10417 0.21875,0.4375 0,1 0,5 0,5 0,0 0.007,0.0398 0,0.0937 -0.007,0.054 -0.0298,0.12213 -0.0625,0.1875 -0.0654,0.13079 -0.10417,0.2188 -0.4375,0.2188 -0.23438,0 -0.37597,0 -0.46875,0 l 0,1 c 0.0928,0 0.23437,0 0.46875,0 0.42184,0 0.76071,-0.16029 1,-0.375 0.23929,0.21471 0.57816,0.375 1,0.375 0.16667,0 0.33333,0 0.5,0 l 0,-1 c -0.16667,0 -0.33333,0 -0.5,0 -0.33333,0 -0.37213,-0.088 -0.4375,-0.21875 -0.0327,-0.0654 -0.055,-0.13353 -0.0625,-0.1875 0.002,-0.0278 0,-0.0937 0,-0.0937 0,0 0,-4 0,-5 0,-0.33333 0.088,-0.37213 0.21875,-0.4375 C 387.34949,153.99713 387.5,154 387.5,154 l 0.46875,0 0,-1 -0.46875,0 c 0,0 -0.34949,0.003 -0.71875,0.1875 -0.0923,0.0462 -0.1907,0.10788 -0.28125,0.1875 -0.0906,-0.0796 -0.18894,-0.14134 -0.28125,-0.1875 C 385.84949,153.00287 385.5,153 385.5,153 l -0.46875,0 z"
         id="path11668"
         sodipodi:nodetypes="cccsscsssccscccccsscssccccscscc" />
      <path
         sodipodi:nodetypes="cccssssssscccccssssssscccsssccccccssscccssssssscc"
         id="text11672"
         d="m 394,160 -1,0 -0.038,-0.52791 c -0.13091,0.15756 -0.26321,0.27241 -0.3969,0.34451 -0.23398,0.12553 -0.49997,0.1883 -0.798,0.1883 -0.48187,0 -0.9108,-0.15891 -1.28682,-0.47673 -0.44844,-0.37924 -0.67265,-0.88134 -0.67265,-1.50629 0,-0.63563 0.22979,-1.14307 0.68936,-1.52232 0.36488,-0.30178 0.78407,-0.45268 1.25758,-0.45268 0.27574,0 0.53478,0.0561 0.7771,0.16825 0.13927,0.0641 0.28271,0.1696 0.43033,0.31648 L 393,156 l 1,0 0,4 z m -1.01832,-1.97411 c -10e-6,-0.25848 -0.095,-0.47804 -0.28489,-0.65869 -0.18993,-0.18063 -0.41967,-0.27096 -0.68924,-0.27096 -0.3002,0 -0.54679,0.10868 -0.73978,0.32603 -0.15623,0.17624 -0.23434,0.37745 -0.23434,0.60362 0,0.22616 0.0781,0.42737 0.23434,0.6036 0.18993,0.21735 0.43653,0.32603 0.73978,0.32603 0.27263,0 0.50314,-0.0896 0.69153,-0.26876 0.18839,-0.17917 0.28259,-0.39946 0.2826,-0.66087 l 0,0 z m 6.22305,0.0844 c 0,0.62494 -0.22423,1.12704 -0.67266,1.50628 -0.37602,0.31782 -0.80496,0.47673 -1.28682,0.47673 -0.29803,0 -0.56403,-0.0628 -0.79799,-0.18829 -0.14206,-0.0748 -0.27436,-0.18962 -0.39691,-0.34452 l 0,0.41262 L 395,160 l 0,-6.01715 1.05035,-0.0269 0,2.66404 c 0.14762,-0.14688 0.29107,-0.25237 0.43033,-0.31648 0.24232,-0.11216 0.50135,-0.16825 0.7771,-0.16825 0.47351,0 0.8927,0.1509 1.25758,0.45268 0.45957,0.37925 0.68937,0.88669 0.68937,1.52233 l 0,0 z m -1.23688,-0.0844 c 0,-0.21847 -0.0754,-0.41284 -0.22635,-0.58307 -0.18643,-0.20997 -0.42463,-0.31494 -0.71462,-0.31494 -0.26039,0 -0.48232,0.0872 -0.66578,0.26174 -0.18346,0.17449 -0.2752,0.38659 -0.2752,0.63627 0,0.24967 0.0917,0.46177 0.2752,0.63625 0.18346,0.1745 0.40539,0.26175 0.66578,0.26175 0.29295,0 0.53115,-0.10499 0.71462,-0.31495 0.1509,-0.17306 0.22635,-0.36743 0.22635,-0.58305 l 0,0 z"
         style="font-size:8.37864399px;font-style:normal;font-weight:normal;fill:#ffffff;fill-opacity:1;stroke:none;font-family:Aharoni" />
      <path
         sodipodi:nodetypes="ccccc"
         id="path11689"
         d="m 389.10604,166.49996 8.17296,0 -2.44568,-2.9999 -8.21714,0 2.48986,2.9999 z"
         style="fill:none;stroke:#ffffff;stroke-width:1.00008762;stroke-linecap:square;stroke-linejoin:round;stroke-miterlimit:0;stroke-opacity:1;stroke-dasharray:none;stroke-dashoffset:0;marker:none;display:inline" />
    </g>
  </g>
</svg>
