<?xml version="1.0" encoding="UTF-8" standalone="no"?>
<!-- Created with Inkscape (http://www.inkscape.org/) -->

<svg
   xmlns:dc="http://purl.org/dc/elements/1.1/"
   xmlns:cc="http://creativecommons.org/ns#"
   xmlns:rdf="http://www.w3.org/1999/02/22-rdf-syntax-ns#"
   xmlns:svg="http://www.w3.org/2000/svg"
   xmlns="http://www.w3.org/2000/svg"
   xmlns:sodipodi="http://sodipodi.sourceforge.net/DTD/sodipodi-0.dtd"
   xmlns:inkscape="http://www.inkscape.org/namespaces/inkscape"
   width="48"
   height="48"
   id="svg2"
   sodipodi:version="0.32"
   inkscape:version="0.46+devel r21210 custom"
   version="1.0"
   sodipodi:docname="path-tweak-shrink.svg"
   inkscape:output_extension="org.inkscape.output.svg.inkscape">
  <defs
     id="defs4" />
  <sodipodi:namedview
     id="base"
     pagecolor="#ffffff"
     bordercolor="#666666"
     borderopacity="1.0"
     inkscape:pageopacity="0.0"
     inkscape:pageshadow="2"
     inkscape:zoom="1.4"
     inkscape:cx="-10.442887"
     inkscape:cy="-24.795786"
     inkscape:document-units="px"
     inkscape:current-layer="layer1"
     showgrid="false"
     inkscape:window-width="1024"
     inkscape:window-height="737"
     inkscape:window-x="0"
     inkscape:window-y="1" />
  <metadata
     id="metadata7">
    <rdf:RDF>
      <cc:Work
         rdf:about="">
        <dc:format>image/svg+xml</dc:format>
        <dc:type
           rdf:resource="http://purl.org/dc/dcmitype/StillImage" />
        <dc:title />
      </cc:Work>
    </rdf:RDF>
  </metadata>
  <g
     inkscape:label="Layer 1"
     inkscape:groupmode="layer"
     id="layer1">
    <g
       transform="matrix(3,0,0,3,-3888,-816)"
       style="display:inline"
       id="tweak_shrink_mode">
      <rect
         y="272"
         x="1296"
         height="16"
         width="16"
         id="rect9548"
         style="fill:none;stroke:none;stroke-width:1;marker:none;display:inline" />
      <path
         sodipodi:nodetypes="czccczc"
         id="path9550"
         d="m 1311.693,283.693 c -3.7846,0 -4.9835,-2.78964 -7.65,-2.7936 -2.6665,-0.004 -4.0405,2.7936 -7.736,2.7936 l 0,-3.07505 0,-3.31095 c 3.327,0.0482 4.4972,2.62129 7.7422,2.65612 3.245,0.0348 3.4381,-2.53483 7.6438,-2.65612"
         style="fill:#729fcf;fill-opacity:1;fill-rule:nonzero;stroke:none;stroke-width:1;marker:none;visibility:visible;display:inline;overflow:visible;enable-background:accumulate" />
      <path
         style="fill:none;stroke:#204a87;stroke-width:0.61400008;stroke-linecap:round;stroke-linejoin:miter;stroke-miterlimit:4;stroke-opacity:1;stroke-dasharray:none;stroke-dashoffset:0;marker:none;visibility:visible;display:inline;overflow:visible;enable-background:accumulate"
         d="m 1296.307,277.307 c 3.3269,0.0482 4.4971,2.26726 7.7421,2.30209 3.2451,0.0348 3.4382,-2.1808 7.6439,-2.30209 m 0,6.386 c -3.7846,0 -4.9835,-2.58734 -7.6501,-2.5913 -2.6664,-0.004 -4.0404,2.5913 -7.7359,2.5913"
         id="path9552"
         sodipodi:nodetypes="czcczc" />
      <path
         sodipodi:nodetypes="czcczc"
         id="path12572"
         d="m 1296.307,278.307 c 3.3269,0.0482 4.4971,1.97437 7.7421,2.0092 3.2451,0.0348 3.4382,-1.88791 7.6439,-2.0092 m 0,4.386 c -3.7846,0 -4.9835,-2.41056 -7.6501,-2.41452 -2.6664,-0.004 -4.0404,2.41452 -7.7359,2.41452"
         style="fill:none;stroke:#ffffff;stroke-width:0.5;stroke-linecap:round;stroke-linejoin:miter;stroke-miterlimit:4;stroke-opacity:0.50196078;stroke-dasharray:none;stroke-dashoffset:0;marker:none;visibility:visible;display:inline;overflow:visible;enable-background:accumulate" />
    </g>
  </g>
</svg>
