<?xml version="1.0" encoding="UTF-8" standalone="no"?>
<!-- Created with Inkscape (http://www.inkscape.org/) -->

<svg
   xmlns:dc="http://purl.org/dc/elements/1.1/"
   xmlns:cc="http://creativecommons.org/ns#"
   xmlns:rdf="http://www.w3.org/1999/02/22-rdf-syntax-ns#"
   xmlns:svg="http://www.w3.org/2000/svg"
   xmlns="http://www.w3.org/2000/svg"
   xmlns:sodipodi="http://sodipodi.sourceforge.net/DTD/sodipodi-0.dtd"
   xmlns:inkscape="http://www.inkscape.org/namespaces/inkscape"
   width="48"
   height="48"
   id="svg2"
   sodipodi:version="0.32"
   inkscape:version="0.46+devel r21210 custom"
   version="1.0"
   sodipodi:docname="path-tweak-roughen.svg"
   inkscape:output_extension="org.inkscape.output.svg.inkscape">
  <defs
     id="defs4" />
  <sodipodi:namedview
     id="base"
     pagecolor="#ffffff"
     bordercolor="#666666"
     borderopacity="1.0"
     inkscape:pageopacity="0.0"
     inkscape:pageshadow="2"
     inkscape:zoom="1.4"
     inkscape:cx="-10.442887"
     inkscape:cy="-24.795786"
     inkscape:document-units="px"
     inkscape:current-layer="layer1"
     showgrid="false"
     inkscape:window-width="1024"
     inkscape:window-height="737"
     inkscape:window-x="0"
     inkscape:window-y="1" />
  <metadata
     id="metadata7">
    <rdf:RDF>
      <cc:Work
         rdf:about="">
        <dc:format>image/svg+xml</dc:format>
        <dc:type
           rdf:resource="http://purl.org/dc/dcmitype/StillImage" />
        <dc:title />
      </cc:Work>
    </rdf:RDF>
  </metadata>
  <g
     inkscape:label="Layer 1"
     inkscape:groupmode="layer"
     id="layer1">
    <g
       transform="matrix(3,0,0,3,-4176,-816)"
       style="display:inline"
       id="tweak_roughen_mode">
      <rect
         y="272"
         x="1392"
         height="16"
         width="16"
         id="rect9588"
         style="fill:none;stroke:none;stroke-width:1;marker:none;display:inline" />
      <path
         sodipodi:nodetypes="ccccccccccccccccccccccccc"
         id="path9590"
         d="m 1392.307,275.5248 2.2207,1.79128 1.0066,-2.20816 0.9951,1.86662 3.0506,-3.66753 1.6493,2.55071 1.1733,-1.33533 2.8452,2.83318 2.4452,-1.94985 0,3.64782 0,1.19083 0,1.19081 0,1.19083 -2.376,1.0559 -2.1483,-0.75972 2.2196,2.77082 -5.4491,-2.5167 -3.3595,1.09433 1.0483,-3.64178 -3.0318,3.30731 -2.2892,-1.31016 0,-1.19083 0,-1.19081 0,-1.19083 0,-3.52874 z"
         style="fill:#729fcf;fill-opacity:1;fill-rule:nonzero;stroke:none;stroke-width:1;marker:none;visibility:visible;display:inline;overflow:visible;enable-background:accumulate" />
      <path
         style="fill:none;stroke:#204a87;stroke-width:0.61400002;stroke-linecap:round;stroke-linejoin:miter;stroke-miterlimit:4;stroke-opacity:1;stroke-dasharray:none;stroke-dashoffset:0;marker:none;visibility:visible;display:inline;overflow:visible;enable-background:accumulate"
         d="m 1407.693,282.626 -2.376,1.0559 -2.1483,-0.75973 2.2196,2.77083 -5.4491,-2.51671 -3.3595,1.09433 1.0483,-3.64177 -3.0318,3.30731 -2.2892,-1.31016 m 0,-7.10121 2.2206,1.79128 1.0066,-2.20817 0.9952,1.86663 3.0506,-3.66753 1.6493,2.55071 1.1733,-1.33534 2.8452,2.83319 2.4452,-1.94985"
         id="path9592"
         sodipodi:nodetypes="cccccccccccccccccc" />
      <path
         sodipodi:nodetypes="cccccccccccccccccc"
         id="path12580"
         d="m 1407.693,281.626 -2.376,1.0559 -4.1483,-0.75973 1.6615,1.77083 -2.891,-1.51671 -2.0943,0.82916 0.7831,-4.3766 -4.297,4.21892 -2.024,-1.22177 m 0,-5.10121 2.2206,1.79128 1.0066,-2.20817 0.9952,1.86663 3.0506,-3.66753 1.6493,2.55071 1.1733,-1.33534 2.8452,2.83319 2.4452,-1.94985"
         style="fill:none;stroke:#ffffff;stroke-width:0.5;stroke-linecap:round;stroke-linejoin:miter;stroke-miterlimit:4;stroke-opacity:0.50196078;stroke-dasharray:none;stroke-dashoffset:0;marker:none;visibility:visible;display:inline;overflow:visible;enable-background:accumulate" />
    </g>
  </g>
</svg>
