<?xml version="1.0" encoding="UTF-8" standalone="no"?>
<!-- Created with Inkscape (http://www.inkscape.org/) -->

<svg
   xmlns:dc="http://purl.org/dc/elements/1.1/"
   xmlns:cc="http://creativecommons.org/ns#"
   xmlns:rdf="http://www.w3.org/1999/02/22-rdf-syntax-ns#"
   xmlns:svg="http://www.w3.org/2000/svg"
   xmlns="http://www.w3.org/2000/svg"
   xmlns:xlink="http://www.w3.org/1999/xlink"
   xmlns:sodipodi="http://sodipodi.sourceforge.net/DTD/sodipodi-0.dtd"
   xmlns:inkscape="http://www.inkscape.org/namespaces/inkscape"
   width="48"
   height="48"
   id="svg2"
   sodipodi:version="0.32"
   inkscape:version="0.46+devel r21210 custom"
   version="1.0"
   sodipodi:docname="path-division.svg"
   inkscape:output_extension="org.inkscape.output.svg.inkscape">
  <defs
     id="defs4">
    <linearGradient
       id="linearGradient10737">
      <stop
         style="stop-color:#a7bfd9;stop-opacity:1;"
         offset="0"
         id="stop10740" />
      <stop
         style="stop-color:#4581c1;stop-opacity:1;"
         offset="1"
         id="stop10742" />
    </linearGradient>
    <linearGradient
       y2="209.0123"
       x2="314.63306"
       y1="224.45227"
       x1="314.63306"
       gradientUnits="userSpaceOnUse"
       id="linearGradient7230"
       xlink:href="#linearGradient10737"
       inkscape:collect="always" />
  </defs>
  <sodipodi:namedview
     id="base"
     pagecolor="#ffffff"
     bordercolor="#666666"
     borderopacity="1.0"
     inkscape:pageopacity="0.0"
     inkscape:pageshadow="2"
     inkscape:zoom="0.98994949"
     inkscape:cx="-12.238292"
     inkscape:cy="-3.5844705"
     inkscape:document-units="px"
     inkscape:current-layer="layer1"
     showgrid="false"
     inkscape:window-width="806"
     inkscape:window-height="591"
     inkscape:window-x="204"
     inkscape:window-y="116" />
  <metadata
     id="metadata7">
    <rdf:RDF>
      <cc:Work
         rdf:about="">
        <dc:format>image/svg+xml</dc:format>
        <dc:type
           rdf:resource="http://purl.org/dc/dcmitype/StillImage" />
        <dc:title />
      </cc:Work>
    </rdf:RDF>
  </metadata>
  <g
     inkscape:label="Layer 1"
     inkscape:groupmode="layer"
     id="layer1">
    <g
       style="display:inline"
       id="division"
       transform="matrix(2.9309963,0,0,3.0507436,-922.33818,-634.88888)">
      <path
         style="fill:#ef2929;fill-opacity:1;fill-rule:evenodd;stroke:#a40000;stroke-width:0.36844382;stroke-linecap:butt;stroke-linejoin:round;stroke-miterlimit:0;stroke-opacity:1;stroke-dasharray:none;stroke-dashoffset:0;marker:none;display:inline"
         d="m 325.21143,208.99481 0.1294,0.0306 0,-0.0306 0.5176,0.0919 0.0324,0 0.4529,0.12255 0.0324,0 0.19412,0.0613 0.25879,-0.67404 -0.22645,-0.0613 -0.0323,0 -0.54997,-0.15318 -0.0324,0 -0.54996,-0.0919 -0.0323,0 -0.16176,0 -0.0323,0.70467 z m -2.19988,-0.45957 -0.0323,0 -0.54998,0.18382 -0.0323,0 -0.25882,0.15319 0.32352,0.6434 0.2588,-0.12254 0.0324,-0.0307 0.4529,-0.15318 0.0323,0 0.45291,-0.12255 0.0324,0 0.0647,0 -0.1294,-0.70467 -0.0647,0 -0.0324,0 -0.54997,0.15318 z m 4.82029,1.34807 0.3235,0.24511 0.0324,0.0306 0.35585,0.27574 0,0.0306 0.0324,0 0.29116,0.33702 0.5823,-0.49021 -0.35584,-0.33701 -0.0324,-0.0307 -0.38822,-0.33702 -0.0323,-0.0306 -0.35586,-0.27574 -0.45292,0.58211 z m -7.31129,0.0613 -0.0324,0.0307 -0.35587,0.36765 -0.0324,0.0306 -0.32351,0.42894 -0.0323,0.0306 -0.0324,0.0306 0.64703,0.36766 0.0323,-0.0306 0.29116,-0.36766 0.0324,-0.0306 0.29116,-0.33702 0.0323,-0.0306 0.25879,-0.18382 -0.5176,-0.55148 -0.25879,0.24509 z m 9.09059,1.99146 0.0647,0.12255 0.0324,0.0306 0.16176,0.42893 0,0.0306 0.1294,0.42893 0,0.0306 0.0323,0.18383 0.74407,-0.0919 -0.0323,-0.21445 0,-0.0307 -0.16177,-0.52083 0,-0.0307 -0.19409,-0.52082 0,-0.0307 -0.0971,-0.12255 -0.67937,0.30637 z m -10.6111,0.36765 0,0.0307 -0.16175,0.52083 0,0.0307 -0.0971,0.52083 0,0.0306 0,0.27575 0.74407,0.0613 0.0324,-0.27574 -0.0324,0 0.0971,-0.49021 0,-0.0306 0.1294,-0.42893 0,-0.0306 0.0324,-0.0613 -0.71172,-0.24512 -0.0324,0.0919 z m 11.06401,2.23658 0.0324,0 -0.0971,0.4902 0,0.0306 -0.0971,0.27575 0.74407,0.18381 0.0971,-0.337 0,-0.0306 0.0971,-0.52084 0,-0.0307 0.0324,-0.55148 -0.77642,-0.0613 -0.0324,0.55148 z m -11.19341,0.70467 0.1294,0.45954 0,0.0307 0.1941,0.52085 0,0.0306 0.22645,0.36765 0.67938,-0.30637 -0.1941,-0.36767 -0.0324,-0.0306 -0.16176,-0.42894 0,-0.0306 -0.1294,-0.39828 -0.71172,0.15319 z m 10.35228,1.56251 -0.0323,0.0306 -0.29115,0.36767 -0.0324,0.0306 -0.29116,0.33702 -0.0324,0.0306 -0.0323,0 0.51761,0.55148 0.0324,-0.0613 0.0324,-0.0306 0.35584,-0.36765 0.0324,-0.0306 0.32349,-0.42894 0.0324,-0.0306 0.19409,-0.27575 -0.64701,-0.36764 -0.16176,0.24508 z m -8.89649,1.10298 0.16176,0.15318 0.0324,0.0306 0.3882,0.33702 0.0324,0.0306 0.4529,0.30639 0.0324,0.0306 0.16175,0.0919 0.38821,-0.61277 -0.12939,-0.0613 -0.0324,-0.0306 -0.38821,-0.27573 -0.0324,-0.0306 -0.35586,-0.27576 -0.0323,-0.0306 -0.0971,-0.12256 -0.58232,0.45958 z m 6.98781,0.55147 -0.45292,0.18383 -0.0324,0.0306 -0.45291,0.15319 -0.0324,0 -0.29114,0.0613 0.1941,0.70467 0.32351,-0.0919 0.0323,0 0.54998,-0.18384 0.0323,0 0.48527,-0.24509 0.0324,0 0.0324,-0.0306 -0.38823,-0.61276 -0.0323,0.0306 z m -4.27033,1.07233 0.51761,0.12254 0.0324,0 0.54996,0.0919 0.0324,0 0.45292,0 0.0323,-0.70467 -0.42056,-0.0306 0,0.0306 -0.51761,-0.0919 -0.0324,0 -0.45291,-0.12256 -0.19409,0.70467 z"
         id="path30791" />
      <path
         style="fill:url(#linearGradient7230);fill-opacity:1;fill-rule:evenodd;stroke:#204a87;stroke-width:0.73841971;stroke-linecap:butt;stroke-linejoin:round;stroke-miterlimit:0;stroke-opacity:0.9945355;stroke-dasharray:none;stroke-dashoffset:0;marker:none;visibility:visible;display:inline;overflow:visible;enable-background:accumulate"
         d="m 315.06086,213.51278 0,9.96875 10.09375,0 -0.0937,-4.0625 c -0.17363,0.0165 -0.32205,0.0937 -0.5,0.0937 -3.03601,0 -5.49999,-2.464 -5.5,-5.5 0,-0.17794 0.0772,-0.32637 0.0937,-0.5 l -4.09375,0 z"
         id="path18085"
         sodipodi:nodetypes="ccccsscc" />
      <path
         style="opacity:0.3;fill:none;stroke:#eeeeec;stroke-width:0.76005477;stroke-linecap:butt;stroke-linejoin:round;stroke-miterlimit:0;stroke-opacity:1;stroke-dasharray:none;stroke-dashoffset:0;marker:none;display:inline"
         d="m 315.86591,214.41913 -0.0569,8.14718 8.4157,0 0.0972,-2.32797 c -0.13596,0.013 -0.25221,0.0689 -0.39152,0.0734 -2.52459,0.0819 -5.5383,-3.2403 -5.67172,-5.55797 -0.008,-0.13911 0.0605,-0.25556 0.0734,-0.39152 l -2.4662,0.0569 z"
         id="path47184"
         sodipodi:nodetypes="ccccsscc" />
      <path
         style="fill:#729fcf;fill-opacity:1;fill-rule:evenodd;stroke:#204a87;stroke-width:0.76005477;stroke-linecap:butt;stroke-linejoin:round;stroke-miterlimit:0;stroke-opacity:1;stroke-dasharray:none;stroke-dashoffset:0;marker:none;display:inline"
         d="m 319.12336,213.48153 c -0.0165,0.17363 -0.0937,0.32206 -0.0937,0.5 0,3.036 2.46399,5.5 5.5,5.5 0.17794,0 0.32637,-0.0772 0.5,-0.0937 l 0,-5.90625 -5.90625,0 z"
         id="path18088" />
      <path
         style="opacity:0.3;fill:#729fcf;fill-opacity:0;fill-rule:evenodd;stroke:#eeeeec;stroke-width:0.76005477;stroke-linecap:butt;stroke-linejoin:round;stroke-miterlimit:0;stroke-opacity:1;stroke-dasharray:none;stroke-dashoffset:0;marker:none;display:inline"
         d="m 320.00219,214.22356 c -0.0123,0.1239 -0.0826,0.23049 -0.0696,0.3568 0.21209,2.06049 1.90574,4.08208 4.08128,4.12075 0.13203,0.002 0.24219,-0.0551 0.37102,-0.0669 l -0.17063,-4.35375 -4.21209,-0.0569 z"
         id="path46297"
         sodipodi:nodetypes="cssccc" />
    </g>
  </g>
</svg>
