<?xml version="1.0" encoding="UTF-8" standalone="no"?>
<!-- Created with Inkscape (http://www.inkscape.org/) -->

<svg
   xmlns:dc="http://purl.org/dc/elements/1.1/"
   xmlns:cc="http://creativecommons.org/ns#"
   xmlns:rdf="http://www.w3.org/1999/02/22-rdf-syntax-ns#"
   xmlns:svg="http://www.w3.org/2000/svg"
   xmlns="http://www.w3.org/2000/svg"
   xmlns:sodipodi="http://sodipodi.sourceforge.net/DTD/sodipodi-0.dtd"
   xmlns:inkscape="http://www.inkscape.org/namespaces/inkscape"
   width="48"
   height="48"
   id="svg2"
   sodipodi:version="0.32"
   inkscape:version="0.46+devel r21210 custom"
   version="1.0"
   sodipodi:docname="path-tweak-grow.svg"
   inkscape:output_extension="org.inkscape.output.svg.inkscape">
  <defs
     id="defs4" />
  <sodipodi:namedview
     id="base"
     pagecolor="#ffffff"
     bordercolor="#666666"
     borderopacity="1.0"
     inkscape:pageopacity="0.0"
     inkscape:pageshadow="2"
     inkscape:zoom="1.4"
     inkscape:cx="-10.442887"
     inkscape:cy="-24.795786"
     inkscape:document-units="px"
     inkscape:current-layer="layer1"
     showgrid="false"
     inkscape:window-width="1024"
     inkscape:window-height="737"
     inkscape:window-x="0"
     inkscape:window-y="1" />
  <metadata
     id="metadata7">
    <rdf:RDF>
      <cc:Work
         rdf:about="">
        <dc:format>image/svg+xml</dc:format>
        <dc:type
           rdf:resource="http://purl.org/dc/dcmitype/StillImage" />
        <dc:title />
      </cc:Work>
    </rdf:RDF>
  </metadata>
  <g
     inkscape:label="Layer 1"
     inkscape:groupmode="layer"
     id="layer1">
    <g
       transform="matrix(3,0,0,3,-3960,-816)"
       style="display:inline"
       id="tweak_grow_mode">
      <rect
         style="fill:none;stroke:none;stroke-width:1;marker:none;display:inline"
         id="rect9556"
         width="16"
         height="16"
         x="1320"
         y="272" />
      <path
         style="fill:#729fcf;fill-opacity:1;fill-rule:nonzero;stroke:none;stroke-width:1;marker:none;visibility:visible;display:inline;overflow:visible;enable-background:accumulate"
         d="m 1320.307,278.50262 c 3.327,0.0416 4.02,-3.22978 7.7422,-3.19535 3.7222,0.0344 3.4381,3.29992 7.6438,3.19535 l 0,4.22956 c -3.7846,0 -4.5869,2.96472 -7.65,2.96082 -3.4032,-0.004 -4.0405,-2.96082 -7.736,-2.96082 l 0,-4.22956 z"
         id="path9558"
         sodipodi:nodetypes="czccscc" />
      <path
         sodipodi:nodetypes="cscczc"
         id="path9560"
         d="m 1335.693,282.73218 c -3.7846,0 -4.587,2.96472 -7.6501,2.96082 -3.4031,-0.004 -4.0404,-2.96082 -7.7359,-2.96082 m 0,-4.22956 c 3.3269,0.0416 4.02,-3.22978 7.7421,-3.19535 3.7222,0.0344 3.4382,3.29992 7.6439,3.19535"
         style="fill:none;stroke:#204a87;stroke-width:0.61400002;stroke-linecap:round;stroke-linejoin:miter;stroke-miterlimit:4;stroke-opacity:1;stroke-dasharray:none;stroke-dashoffset:0;marker:none;visibility:visible;display:inline;overflow:visible;enable-background:accumulate" />
      <path
         style="fill:none;stroke:#ffffff;stroke-width:0.5;stroke-linecap:round;stroke-linejoin:miter;stroke-miterlimit:4;stroke-opacity:0.50196078;stroke-dasharray:none;stroke-dashoffset:0;marker:none;visibility:visible;display:inline;overflow:visible;enable-background:accumulate"
         d="m 1335.693,281.73218 c -3.7846,0 -4.587,2.96472 -7.6501,2.96082 -3.4031,-0.004 -4.0404,-2.96082 -7.7359,-2.96082 m 0,-2.22956 c 3.3269,0.0416 4.02,-3.22978 7.7421,-3.19535 3.7222,0.0344 3.4382,3.29992 7.6439,3.19535"
         id="path12574"
         sodipodi:nodetypes="cscczc" />
    </g>
  </g>
</svg>
