<?xml version="1.0" encoding="UTF-8" standalone="no"?>
<!-- Created with Inkscape (http://www.inkscape.org/) -->

<svg
   xmlns:dc="http://purl.org/dc/elements/1.1/"
   xmlns:cc="http://creativecommons.org/ns#"
   xmlns:rdf="http://www.w3.org/1999/02/22-rdf-syntax-ns#"
   xmlns:svg="http://www.w3.org/2000/svg"
   xmlns="http://www.w3.org/2000/svg"
   xmlns:xlink="http://www.w3.org/1999/xlink"
   xmlns:sodipodi="http://sodipodi.sourceforge.net/DTD/sodipodi-0.dtd"
   xmlns:inkscape="http://www.inkscape.org/namespaces/inkscape"
   width="48"
   height="48"
   id="svg2"
   sodipodi:version="0.32"
   inkscape:version="0.46+devel r21210 custom"
   version="1.0"
   sodipodi:docname="show-guides.svg"
   inkscape:output_extension="org.inkscape.output.svg.inkscape">
  <defs
     id="defs4">
    <linearGradient
       inkscape:collect="always"
       xlink:href="#linearGradient11207"
       id="linearGradient16121"
       gradientUnits="userSpaceOnUse"
       gradientTransform="translate(0,-1)"
       x1="1469"
       y1="34.499969"
       x2="1481.9999"
       y2="34.499969" />
    <linearGradient
       id="linearGradient11207">
      <stop
         style="stop-color:#d3d7cf;stop-opacity:1;"
         offset="0"
         id="stop11209" />
      <stop
         style="stop-color:#d3d7cf;stop-opacity:1;"
         offset="1"
         id="stop11211" />
    </linearGradient>
    <linearGradient
       inkscape:collect="always"
       xlink:href="#linearGradient11215"
       id="linearGradient16123"
       gradientUnits="userSpaceOnUse"
       gradientTransform="translate(0,-1)"
       x1="1469"
       y1="34.499969"
       x2="1481.9999"
       y2="34.499969" />
    <linearGradient
       id="linearGradient11215">
      <stop
         style="stop-color:#888a85;stop-opacity:1;"
         offset="0"
         id="stop11217" />
      <stop
         style="stop-color:#888a85;stop-opacity:1;"
         offset="1"
         id="stop11219" />
    </linearGradient>
  </defs>
  <sodipodi:namedview
     id="base"
     pagecolor="#ffffff"
     bordercolor="#666666"
     borderopacity="1.0"
     inkscape:pageopacity="0.0"
     inkscape:pageshadow="2"
     inkscape:zoom="1.4"
     inkscape:cx="50.716738"
     inkscape:cy="76.844503"
     inkscape:document-units="px"
     inkscape:current-layer="layer1"
     showgrid="false"
     inkscape:window-width="1024"
     inkscape:window-height="737"
     inkscape:window-x="0"
     inkscape:window-y="1"
     inkscape:snap-page="true"
     inkscape:snap-bbox="true"
     inkscape:snap-nodes="false"
     inkscape:bbox-nodes="false"
     inkscape:snap-object-midpoints="false"
     inkscape:snap-bbox-edge-midpoints="false"
     inkscape:object-nodes="true"
     inkscape:snap-midpoints="true"
     inkscape:snap-global="false" />
  <metadata
     id="metadata7">
    <rdf:RDF>
      <cc:Work
         rdf:about="">
        <dc:format>image/svg+xml</dc:format>
        <dc:type
           rdf:resource="http://purl.org/dc/dcmitype/StillImage" />
        <dc:title />
      </cc:Work>
    </rdf:RDF>
  </metadata>
  <g
     inkscape:label="Layer 1"
     inkscape:groupmode="layer"
     id="layer1">
    <use
       height="2000"
       width="2000"
       transform="matrix(3.0000002,0,0,3.0000002,-4394.526,-560.64289)"
       id="use20461"
       xlink:href="#node_b"
       y="0"
       x="0" />
    <use
       height="2000"
       width="2000"
       transform="matrix(3.0000002,0,0,3.0000002,-4364.526,-590.64289)"
       id="use20463"
       xlink:href="#node_b"
       y="0"
       x="0" />
    <g
       transform="matrix(3,0,0,3,-792,-1176)"
       style="display:inline"
       id="guides">
      <rect
         y="392.5"
         x="270.5"
         height="9"
         width="9"
         id="rect9820"
         style="fill:url(#linearGradient16121);fill-opacity:1;fill-rule:evenodd;stroke:url(#linearGradient16123);stroke-width:1;stroke-linecap:butt;stroke-linejoin:round;stroke-miterlimit:0;stroke-opacity:1;stroke-dasharray:none;stroke-dashoffset:0;marker:none;visibility:visible;display:inline;overflow:visible;enable-background:accumulate" />
      <path
         sodipodi:nodetypes="ccccccccccccccccccccccccccccccccccccccccccccccccccccc"
         d="m 267,404 1,0 0,1 1,0 0,-1 2,0 0,-1 -2,0 0,-2 -1,0 0,2 -1,0 0,1 z m 1,-6 1,0 0,2 -1,0 0,-2 z m 0,-3 1,0 0,2 -1,0 0,-2 z m 0,-3 1,0 0,2 -1,0 0,-2 z m 0,14 1,0 0,2 -1,0 0,-2 z m 6,-3 0,1 -2,0 0,-1 2,0 z m 3,0 0,1 -2,0 0,-1 2,0 z m 3,0 0,1 -2,0 0,-1 2,0 z m -14,0 0,1 -2,0 0,-1 2,0 z"
         style="fill:#3465a4;fill-opacity:1;fill-rule:evenodd;stroke:none"
         id="path1657" />
      <rect
         y="393.51987"
         x="271.51987"
         height="6.9602618"
         width="6.9602618"
         id="rect9822"
         style="fill:none;stroke:#ffffff;stroke-width:1.03973806;stroke-linecap:round;stroke-linejoin:round;stroke-miterlimit:0;stroke-opacity:1;stroke-dasharray:none;stroke-dashoffset:0;marker:none;display:inline" />
    </g>
  </g>
</svg>
