<?xml version="1.0" encoding="UTF-8" standalone="no"?>
<!-- Created with Inkscape (http://www.inkscape.org/) -->

<svg
   xmlns:dc="http://purl.org/dc/elements/1.1/"
   xmlns:cc="http://creativecommons.org/ns#"
   xmlns:rdf="http://www.w3.org/1999/02/22-rdf-syntax-ns#"
   xmlns:svg="http://www.w3.org/2000/svg"
   xmlns="http://www.w3.org/2000/svg"
   xmlns:xlink="http://www.w3.org/1999/xlink"
   xmlns:sodipodi="http://sodipodi.sourceforge.net/DTD/sodipodi-0.dtd"
   xmlns:inkscape="http://www.inkscape.org/namespaces/inkscape"
   width="48"
   height="48"
   id="svg2"
   sodipodi:version="0.32"
   inkscape:version="0.46+devel r21307"
   version="1.0"
   sodipodi:docname="tool-tweak.svg"
   inkscape:output_extension="org.inkscape.output.svg.inkscape">
  <defs
     id="defs4">
    <linearGradient
       inkscape:collect="always"
       id="linearGradient12362">
      <stop
         style="stop-color:#ead7ce;stop-opacity:1;"
         offset="0"
         id="stop12364" />
      <stop
         style="stop-color:#ead7ce;stop-opacity:0;"
         offset="1"
         id="stop12366" />
    </linearGradient>
    <linearGradient
       id="linearGradient12352">
      <stop
         style="stop-color:#8a4a01;stop-opacity:1;"
         offset="0"
         id="stop12354" />
      <stop
         style="stop-color:#8f5902;stop-opacity:0;"
         offset="1"
         id="stop12356" />
    </linearGradient>
    <linearGradient
       inkscape:collect="always"
       xlink:href="#linearGradient12362"
       id="linearGradient47"
       gradientUnits="userSpaceOnUse"
       gradientTransform="matrix(2.5882206,0,0,2.6082543,-3105.2633,-656.50053)"
       x1="1210.9783"
       y1="256.69318"
       x2="1212.9139"
       y2="253.56818" />
    <linearGradient
       inkscape:collect="always"
       xlink:href="#linearGradient12352"
       id="linearGradient49"
       gradientUnits="userSpaceOnUse"
       gradientTransform="matrix(2.5882206,0,0,2.6082543,-3105.2633,-656.50053)"
       x1="1210.9783"
       y1="256.69318"
       x2="1212.9139"
       y2="253.56818" />
  </defs>
  <sodipodi:namedview
     id="base"
     pagecolor="#ffffff"
     bordercolor="#666666"
     borderopacity="1.0"
     inkscape:pageopacity="0.0"
     inkscape:pageshadow="2"
     inkscape:zoom="3.959798"
     inkscape:cx="13.883203"
     inkscape:cy="24.850983"
     inkscape:document-units="px"
     inkscape:current-layer="layer1"
     showgrid="false"
     inkscape:window-width="806"
     inkscape:window-height="591"
     inkscape:window-x="204"
     inkscape:window-y="116" />
  <metadata
     id="metadata7">
    <rdf:RDF>
      <cc:Work
         rdf:about="">
        <dc:format>image/svg+xml</dc:format>
        <dc:type
           rdf:resource="http://purl.org/dc/dcmitype/StillImage" />
        <dc:title />
      </cc:Work>
    </rdf:RDF>
  </metadata>
  <g
     inkscape:label="Layer 1"
     inkscape:groupmode="layer"
     id="layer1">
    <path
       style="fill:#000000;fill-opacity:0.11176471;fill-rule:evenodd;stroke:none;stroke-width:1;marker:none;visibility:visible;display:inline;overflow:visible;enable-background:accumulate"
       d="m 45.701149,31.687021 c 0.192186,7.87354 -14.365133,12.133112 -23.013224,12.133112 -8.372855,0 -19.426004,1.446925 -19.1503104,-6.248068 0.2869047,-8.042206 5.5918939,-10.376497 13.0667424,-11.027501 7.575059,-0.659788 29.096792,-0.773956 29.096792,5.142457 z"
       id="path12483"
       sodipodi:nodetypes="csssc" />
    <path
       style="fill:#000000;fill-opacity:0.16470588;fill-rule:evenodd;stroke:none;stroke-width:1;marker:none;visibility:visible;display:inline;overflow:visible;enable-background:accumulate"
       d="m 42.296502,32.728731 c 0,2.392497 -15.995045,9.687377 -23.843737,9.687377 -7.599312,0 -13.1079259,-0.339777 -12.8583144,-5.713039 0.2610512,-5.615688 5.0752834,-7.245668 11.8596384,-7.700254 6.874957,-0.460694 24.842413,-0.405372 24.842413,3.725916 z"
       id="path12370"
       sodipodi:nodetypes="csssc" />
    <path
       style="fill:url(#linearGradient47);fill-opacity:1;fill-rule:evenodd;stroke:url(#linearGradient49);stroke-width:2.28791523;stroke-linecap:round;stroke-linejoin:round;stroke-miterlimit:4;stroke-opacity:1;stroke-dasharray:none;stroke-dashoffset:0;marker:none;visibility:visible;display:inline;overflow:visible;enable-background:accumulate"
       d="m 43.569729,9.3930242 c -4.346811,3.9191518 -6.405705,5.3024038 -7.549663,8.2994128 -1.143729,2.997009 -0.228792,8.991027 -0.228792,10.374255 0,1.383227 -1.143959,3.919199 -2.745271,5.532958 -1.60131,1.613758 -2.97406,5.532957 -7.091852,5.532957 -4.117789,0 -9.150745,0.46106 -11.209641,-0.922191 -1.830331,2.76648 -3.660436,5.994042 -5.7193299,5.994042 -2.0588954,0 -4.6813041,0.427863 -4.8039362,-1.959578 -0.2377145,-4.628954 4.11779,-3.112273 4.8039362,-6.800918 0.3209944,-1.72573 -3.6602074,-5.532958 -4.346582,-9.452112 -0.6861458,-3.919154 -0.61911,-6.196591 0.9822021,-7.810371 1.6013121,-1.613782 5.7584558,-7.281771 7.8173488,-7.742832 2.058667,-0.4610843 5.183045,-0.40995 7.470729,-2.0237066 2.287688,-1.6137817 5.233837,-5.246488 5.233837,-5.246488"
       id="path12305"
       sodipodi:nodetypes="csssscsssssssc" />
    <path
       style="fill:#dabdac;fill-opacity:1;fill-rule:evenodd;stroke:none;stroke-width:1;marker:none;visibility:visible;display:inline;overflow:visible;enable-background:accumulate"
       d="m 42.093794,8.8487978 c -3.963356,3.0972872 -6.63221,5.6240382 -7.198468,7.8247612 -0.56603,2.2007 0.162441,11.737145 -0.485268,13.774829 -0.64725,2.03771 -3.963126,6.113106 -5.419155,6.602148 -1.455802,0.489039 -10.999841,0.489039 -10.67633,0.326026 0.323512,-0.162898 5.338166,-1.30411 7.926484,-3.097287 2.588089,-1.793177 4.044118,-2.363737 4.852898,-7.172707 0.808778,-4.808969 1.132289,-7.172705 0.566029,-9.291911 -0.566029,-2.119205 -0.323511,-2.2007 -2.830838,-4.890466 -2.507325,-2.689764 -5.095645,-3.5048561 -4.610377,-4.3199264 0.485266,-0.8150698 0.404503,0 2.992821,1.6301624 2.58832,1.630163 4.205876,3.178808 7.036485,1.874672 2.831066,-1.304112 8.088237,-3.3418199 7.845719,-3.2603012 z"
       id="path12327" />
    <path
       style="fill:#ac6036;fill-opacity:1;fill-rule:evenodd;stroke:none;stroke-width:1;marker:none;visibility:visible;display:inline;overflow:visible;enable-background:accumulate"
       d="m 19.204115,34.034742 c -2.102823,0.162901 -3.073586,0.978084 -3.073586,0.978084 0,0 -0.32351,2.119227 0.647253,2.282241 0.970534,0.163129 2.588089,0 3.073354,-0.815092 0.485268,-0.81507 -0.647021,-2.282219 -0.647021,-2.445233 z"
       id="path12329" />
    <path
       sodipodi:type="arc"
       style="fill:#f6eeea;fill-opacity:1;fill-rule:evenodd;stroke:none;stroke-width:1;marker:none;visibility:visible;display:inline;overflow:visible;enable-background:accumulate"
       id="path12333"
       sodipodi:cx="1187.7405"
       sodipodi:cy="254.66159"
       sodipodi:rx="0.72920388"
       sodipodi:ry="0.6408155"
       d="m 1188.4697,254.66159 a 0.72920388,0.6408155 0 1 1 -1.4584,0 0.72920388,0.6408155 0 1 1 1.4584,0 z"
       transform="matrix(2.5254271,-1.2724876,0.95792058,1.9306705,-3228.6387,1034.6432)" />
    <path
       transform="matrix(2.5254271,-1.2724876,0.95792058,1.9306705,-3226.0504,1037.2514)"
       d="m 1188.4697,254.66159 a 0.72920388,0.6408155 0 1 1 -1.4584,0 0.72920388,0.6408155 0 1 1 1.4584,0 z"
       sodipodi:ry="0.6408155"
       sodipodi:rx="0.72920388"
       sodipodi:cy="254.66159"
       sodipodi:cx="1187.7405"
       id="path12335"
       style="fill:#f6eeea;fill-opacity:1;fill-rule:evenodd;stroke:none;stroke-width:1;marker:none;visibility:visible;display:inline;overflow:visible;enable-background:accumulate"
       sodipodi:type="arc" />
    <path
       sodipodi:type="arc"
       style="fill:#f6eeea;fill-opacity:1;fill-rule:evenodd;stroke:none;stroke-width:1;marker:none;visibility:visible;display:inline;overflow:visible;enable-background:accumulate"
       id="path12338"
       sodipodi:cx="1187.7405"
       sodipodi:cy="254.66159"
       sodipodi:rx="0.72920388"
       sodipodi:ry="0.6408155"
       d="m 1188.4697,254.66159 a 0.72920388,0.6408155 0 1 1 -1.4584,0 0.72920388,0.6408155 0 1 1 1.4584,0 z"
       transform="matrix(2.5254271,-1.2724876,0.95792058,1.9306705,-3223.4622,1039.8597)" />
    <path
       style="fill:#f6eeea;fill-opacity:1;fill-rule:evenodd;stroke:none;stroke-width:1;marker:none;visibility:visible;display:inline;overflow:visible;enable-background:accumulate"
       d="M 19.091321,23.225416 C 18.748134,25.184994 9.9405746,36.827211 6.737722,39.939508 5.664232,40.982661 6.5409612,43.596925 8.1104712,42.014351 11.427949,38.671568 17.833197,31.524806 21.379007,24.839175 22.102447,23.475302 20.349446,22.30325 19.091321,23.225416 z"
       id="path12340"
       sodipodi:nodetypes="csssc" />
    <path
       style="fill:#b78469;fill-opacity:1;fill-rule:evenodd;stroke:none;stroke-width:1;marker:none;visibility:visible;display:inline;overflow:visible;enable-background:accumulate"
       d="M 9.8261788,34.52184 18.748134,22.879598 c 0,0 -0.228791,-2.997008 -1.9445,-1.267961 -1.715708,1.729045 -5.261747,5.187137 -5.604935,6.4551 -0.343187,1.267964 -1.2581244,6.57039 -1.3725202,6.455103 z"
       id="path12342" />
    <path
       style="fill:#b78469;fill-opacity:1;fill-rule:evenodd;stroke:none;stroke-width:1;marker:none;visibility:visible;display:inline;overflow:visible;enable-background:accumulate"
       d="m 16.346052,19.997878 c -2.401854,2.074841 -5.376144,4.610767 -6.4054774,6.224547 -1.0295622,1.613783 -2.516478,5.41767 -2.516478,5.41767 0,0 0.2287915,-5.994017 1.3725204,-7.492511 1.1439576,-1.498515 4.689998,-5.071874 5.71933,-5.071874 1.029563,0 1.9445,0.922168 1.830105,0.922168 z"
       id="path12344" />
    <path
       id="path12346"
       d="m 14.578408,16.424521 c -2.401854,2.07484 -5.3759145,4.610766 -6.4052479,6.224548 -1.0295619,1.613781 -2.5164782,5.417668 -2.5164782,5.417668 0,0 0.2287916,-5.994018 1.3725205,-7.492511 1.1439577,-1.498516 4.6897696,-5.071897 5.7191026,-5.071897 1.029561,0 1.944499,0.922192 1.830103,0.922192 z"
       style="fill:#b78469;fill-opacity:1;fill-rule:evenodd;stroke:none;stroke-width:1;marker:none;visibility:visible;display:inline;overflow:visible;enable-background:accumulate" />
    <path
       style="fill:#8f5902;fill-opacity:1;fill-rule:evenodd;stroke:none;stroke-width:1;marker:none;visibility:visible;display:inline;overflow:visible;enable-background:accumulate"
       d="m 14.189463,37.458127 c 0,0 9.058773,-9.617939 10.029306,-9.943966 0.970533,-0.326029 3.558851,-0.978107 3.558851,0.978084 0,1.956189 -0.485266,4.238431 -2.102821,4.401444 -1.617786,0.163129 -4.691143,-0.652079 -5.661906,-0.326028 -0.970533,0.326028 -5.661675,4.727452 -5.82343,4.890466 z"
       id="path12348" />
    <path
       style="fill:#e5cec1;fill-opacity:1;fill-rule:evenodd;stroke:none;stroke-width:1;marker:none;visibility:visible;display:inline;overflow:visible;enable-background:accumulate"
       d="m 14.99824,11.538608 7.926484,7.498733 c 0,0 4.205874,-0.32605 5.176409,-1.304133 C 29.071667,16.755101 23.895258,10.071459 22.924724,9.7454319 21.954189,9.419404 16.939536,11.864635 14.99824,11.538608 z"
       id="path12350" />
  </g>
</svg>
