<?xml version="1.0" encoding="UTF-8" standalone="no"?>
<!-- Created with Inkscape (http://www.inkscape.org/) -->

<svg
   xmlns:dc="http://purl.org/dc/elements/1.1/"
   xmlns:cc="http://creativecommons.org/ns#"
   xmlns:rdf="http://www.w3.org/1999/02/22-rdf-syntax-ns#"
   xmlns:svg="http://www.w3.org/2000/svg"
   xmlns="http://www.w3.org/2000/svg"
   xmlns:xlink="http://www.w3.org/1999/xlink"
   xmlns:sodipodi="http://sodipodi.sourceforge.net/DTD/sodipodi-0.dtd"
   xmlns:inkscape="http://www.inkscape.org/namespaces/inkscape"
   width="48"
   height="48"
   id="svg2"
   sodipodi:version="0.32"
   inkscape:version="0.46+devel r21210 custom"
   version="1.0"
   sodipodi:docname="xml-text-new.svg"
   inkscape:output_extension="org.inkscape.output.svg.inkscape">
  <defs
     id="defs4">
    <filter
       inkscape:collect="always"
       id="filter16974-7">
      <feGaussianBlur
         inkscape:collect="always"
         stdDeviation="0.44"
         id="feGaussianBlur16976-9" />
    </filter>
    <linearGradient
       id="linearGradient6581-7">
      <stop
         id="stop6583-1"
         offset="0"
         style="stop-color:#eeeeec;stop-opacity:1;" />
      <stop
         id="stop6585-1"
         offset="1.0000000"
         style="stop-color:#e0e0de;stop-opacity:1.0000000;" />
    </linearGradient>
    <linearGradient
       id="linearGradient10735-7">
      <stop
         style="stop-color:#c0c0c0;stop-opacity:0;"
         offset="0"
         id="stop10737-78" />
      <stop
         style="stop-color:#c0c0c0;stop-opacity:0;"
         offset="1"
         id="stop10739-9" />
    </linearGradient>
    <radialGradient
       inkscape:collect="always"
       xlink:href="#linearGradient10735-7"
       id="radialGradient23557"
       gradientUnits="userSpaceOnUse"
       gradientTransform="matrix(1.99071,0,0,1.99071,-873.81023,-1664.1221)"
       cx="-142.00725"
       cy="453"
       fx="-142.00725"
       fy="453"
       r="8" />
    <linearGradient
       inkscape:collect="always"
       xlink:href="#linearGradient6581-7"
       id="linearGradient23593"
       gradientUnits="userSpaceOnUse"
       gradientTransform="matrix(0.9074918,0,0,0.907606,-455.68003,1084.5219)"
       x1="900.00671"
       y1="5"
       x2="900.00671"
       y2="28" />
  </defs>
  <sodipodi:namedview
     id="base"
     pagecolor="#ffffff"
     bordercolor="#666666"
     borderopacity="1.0"
     inkscape:pageopacity="0.0"
     inkscape:pageshadow="2"
     inkscape:zoom="1.4"
     inkscape:cx="3.1211569"
     inkscape:cy="-8.019026"
     inkscape:document-units="px"
     inkscape:current-layer="layer1"
     showgrid="false"
     inkscape:window-width="1024"
     inkscape:window-height="737"
     inkscape:window-x="0"
     inkscape:window-y="1"
     inkscape:snap-page="true"
     inkscape:snap-bbox="true"
     inkscape:snap-nodes="false"
     inkscape:bbox-nodes="false"
     inkscape:snap-object-midpoints="false"
     inkscape:snap-bbox-edge-midpoints="false"
     inkscape:object-nodes="true"
     inkscape:snap-midpoints="true"
     inkscape:snap-global="false" />
  <metadata
     id="metadata7">
    <rdf:RDF>
      <cc:Work
         rdf:about="">
        <dc:format>image/svg+xml</dc:format>
        <dc:type
           rdf:resource="http://purl.org/dc/dcmitype/StillImage" />
        <dc:title />
      </cc:Work>
    </rdf:RDF>
  </metadata>
  <g
     inkscape:label="Layer 1"
     inkscape:groupmode="layer"
     id="layer1">
    <use
       height="2000"
       width="2000"
       transform="matrix(3.0000002,0,0,3.0000002,-4394.526,-560.64289)"
       id="use20461"
       xlink:href="#node_b"
       y="0"
       x="0" />
    <use
       height="2000"
       width="2000"
       transform="matrix(3.0000002,0,0,3.0000002,-4364.526,-590.64289)"
       id="use20463"
       xlink:href="#node_b"
       y="0"
       x="0" />
    <rect
       y="0.11152961"
       x="0.11148594"
       height="47.777042"
       width="47.777042"
       id="rect12908"
       style="fill:url(#radialGradient23557);fill-opacity:1;fill-rule:nonzero;stroke:none;stroke-width:1;marker:none;visibility:visible;display:inline;overflow:visible;enable-background:accumulate" />
    <g
       id="use12784"
       transform="matrix(1.99071,0,0,1.99071,-716.54412,-2165.781)">
      <rect
         y="1089"
         x="361"
         height="22"
         width="22"
         id="rect23587"
         style="fill:#000000;fill-opacity:0.15686275;fill-rule:evenodd;stroke:none;stroke-width:1;marker:none;visibility:visible;display:inline;overflow:visible;filter:url(#filter16974-7);enable-background:accumulate" />
      <rect
         style="fill:url(#linearGradient23593);fill-opacity:1;fill-rule:evenodd;stroke:#888a85;stroke-width:1.00000095;stroke-linecap:butt;stroke-linejoin:round;stroke-miterlimit:4;stroke-opacity:1;stroke-dasharray:none;stroke-dashoffset:0;marker:none;visibility:visible;display:inline;overflow:visible;enable-background:accumulate"
         id="rect23589"
         width="19.999996"
         height="19.999998"
         x="361.5"
         y="1089.5" />
      <rect
         y="1090.5"
         x="362.5"
         height="18"
         width="18"
         id="rect23591"
         style="fill:none;stroke:#ffffff;stroke-width:1;stroke-linecap:square;stroke-linejoin:round;stroke-miterlimit:4;stroke-opacity:1;stroke-dasharray:none;stroke-dashoffset:0;marker:none;visibility:visible;display:inline;overflow:visible;enable-background:accumulate" />
    </g>
    <path
       id="path11257"
       style="fill:none;stroke:#000000;stroke-width:1.99071002;stroke-linecap:square;stroke-linejoin:miter;stroke-miterlimit:4;stroke-opacity:1;stroke-dasharray:none"
       d="m 38.91081,12.94086 c -0.0653,-1.940943 -1.06059,-1.940943 -2.05595,-1.940943 -0.89984,0 -2.98606,0 -3.98142,0 -0.99535,0 -1.99071,0 -1.99071,3.98142 0,3.98142 0.99536,3.98142 1.99071,3.98142 0.99536,0 3.98142,0 5.97213,-0.01991 M 12.96634,10.977618 c -0.0159,4.01367 0,5.988255 0,6.98361 0,1.025017 0.99536,1.003517 1.99071,1.01148 M 18.93847,5.0216133 c 0,6.9674847 0,9.9535497 0,11.9442597 0,0.995355 0,1.99071 0.99536,1.99071 1.67773,0 3.98142,0 4.97677,0 0.99536,0 1.99071,0 1.99071,-3.98142 0,-3.98142 -0.99535,-3.98142 -1.99071,-3.98142 -0.99535,0 -1.99071,0 -5.97213,0 m -5.97213,0 c -0.99535,0 -5.9721303,0 -5.9721303,0 -0.99535,0 -1.99071,0 -1.99071,3.98142 0,3.98142 0.97234,4.017452 1.99071,3.98142 0.97228,-0.03384 3.9814203,0 5.9721303,0.01991" />
    <g
       transform="matrix(1.99071,0,0,1.99071,-1791.5632,-9.8740707)"
       id="use11263">
      <path
         id="path23469"
         style="fill:none;stroke:#000000;stroke-width:1px;stroke-linecap:square;stroke-linejoin:miter;stroke-opacity:1"
         d="m 906.5,24.5 -3,-3 3,-3 m 3,6 3,-3 -3,-3" />
    </g>
    <g
       id="g12862"
       transform="matrix(1.99071,0,0,1.99071,-837.97743,-2163.7903)">
      <path
         sodipodi:nodetypes="ccccccccccccc"
         id="path12835"
         d="m 434.5,1103.4999 0,3.0002 3,0 0,2.9687 3.03125,0 0,-2.9687 2.96875,0 0,-3.0002 -2.9375,0 -0.0312,-3 -3.04688,-0.016 0.0156,2.9844 -3,0.031 z"
         style="fill:#729fcf;fill-opacity:1;stroke:#204a87;stroke-width:1.0000006;stroke-linecap:round;stroke-linejoin:miter;stroke-miterlimit:4;stroke-opacity:1;stroke-dasharray:none" />
      <path
         sodipodi:nodetypes="ccccc"
         id="path12839"
         d="m 435.53125,1105.9688 -0.0312,-1.4382 3,-0.047 0.0312,-2.9528 L 440,1101.5"
         style="fill:none;stroke:#aac5e2;stroke-width:1.00000024px;stroke-linecap:butt;stroke-linejoin:miter;stroke-opacity:1" />
    </g>
  </g>
</svg>
