<?xml version="1.0" encoding="UTF-8" standalone="no"?>
<!-- Created with Inkscape (http://www.inkscape.org/) -->

<svg
   xmlns:dc="http://purl.org/dc/elements/1.1/"
   xmlns:cc="http://creativecommons.org/ns#"
   xmlns:rdf="http://www.w3.org/1999/02/22-rdf-syntax-ns#"
   xmlns:svg="http://www.w3.org/2000/svg"
   xmlns="http://www.w3.org/2000/svg"
   xmlns:xlink="http://www.w3.org/1999/xlink"
   xmlns:sodipodi="http://sodipodi.sourceforge.net/DTD/sodipodi-0.dtd"
   xmlns:inkscape="http://www.inkscape.org/namespaces/inkscape"
   width="48"
   height="48"
   id="svg2"
   sodipodi:version="0.32"
   inkscape:version="0.46+devel r21210 custom"
   version="1.0"
   sodipodi:docname="xml-node-delete.svg"
   inkscape:output_extension="org.inkscape.output.svg.inkscape">
  <defs
     id="defs4">
    <linearGradient
       id="linearGradient10735-8">
      <stop
         style="stop-color:#c0c0c0;stop-opacity:0;"
         offset="0"
         id="stop10737-83" />
      <stop
         style="stop-color:#c0c0c0;stop-opacity:0;"
         offset="1"
         id="stop10739-1" />
    </linearGradient>
    <radialGradient
       r="8"
       fy="453"
       fx="-142.00725"
       cy="453"
       cx="-142.00725"
       gradientTransform="matrix(1.99071,0,0,1.99071,-873.81021,-1664.1223)"
       gradientUnits="userSpaceOnUse"
       id="radialGradient16996"
       xlink:href="#linearGradient10735-8"
       inkscape:collect="always" />
    <filter
       inkscape:collect="always"
       id="filter16974">
      <feGaussianBlur
         inkscape:collect="always"
         stdDeviation="0.44"
         id="feGaussianBlur16976" />
    </filter>
    <linearGradient
       id="linearGradient6581-76">
      <stop
         id="stop6583-0"
         offset="0"
         style="stop-color:#eeeeec;stop-opacity:1;" />
      <stop
         id="stop6585-52"
         offset="1.0000000"
         style="stop-color:#e0e0de;stop-opacity:1.0000000;" />
    </linearGradient>
    <linearGradient
       inkscape:collect="always"
       xlink:href="#linearGradient6581-76"
       id="linearGradient23855"
       gradientUnits="userSpaceOnUse"
       gradientTransform="matrix(0.9074918,0,0,0.907606,-455.68003,1084.5219)"
       x1="900.00671"
       y1="5"
       x2="900.00671"
       y2="28" />
  </defs>
  <sodipodi:namedview
     id="base"
     pagecolor="#ffffff"
     bordercolor="#666666"
     borderopacity="1.0"
     inkscape:pageopacity="0.0"
     inkscape:pageshadow="2"
     inkscape:zoom="1.4"
     inkscape:cx="3.1211569"
     inkscape:cy="-8.019026"
     inkscape:document-units="px"
     inkscape:current-layer="layer1"
     showgrid="false"
     inkscape:window-width="1024"
     inkscape:window-height="737"
     inkscape:window-x="0"
     inkscape:window-y="1"
     inkscape:snap-page="true"
     inkscape:snap-bbox="true"
     inkscape:snap-nodes="false"
     inkscape:bbox-nodes="false"
     inkscape:snap-object-midpoints="false"
     inkscape:snap-bbox-edge-midpoints="false"
     inkscape:object-nodes="true"
     inkscape:snap-midpoints="true"
     inkscape:snap-global="false" />
  <metadata
     id="metadata7">
    <rdf:RDF>
      <cc:Work
         rdf:about="">
        <dc:format>image/svg+xml</dc:format>
        <dc:type
           rdf:resource="http://purl.org/dc/dcmitype/StillImage" />
        <dc:title />
      </cc:Work>
    </rdf:RDF>
  </metadata>
  <g
     inkscape:label="Layer 1"
     inkscape:groupmode="layer"
     id="layer1">
    <use
       height="2000"
       width="2000"
       transform="matrix(3.0000002,0,0,3.0000002,-4394.526,-560.64289)"
       id="use20461"
       xlink:href="#node_b"
       y="0"
       x="0" />
    <use
       height="2000"
       width="2000"
       transform="matrix(3.0000002,0,0,3.0000002,-4364.526,-590.64289)"
       id="use20463"
       xlink:href="#node_b"
       y="0"
       x="0" />
    <rect
       style="fill:url(#radialGradient16996);fill-opacity:1;fill-rule:nonzero;stroke:none;stroke-width:1;marker:none;visibility:visible;display:inline;overflow:visible;enable-background:accumulate"
       id="rect12912-0"
       width="47.777042"
       height="47.777042"
       x="0.11147325"
       y="0.11135951" />
    <g
       id="use12786-5"
       transform="matrix(1.99071,0,0,1.99071,-716.54412,-2165.781)">
      <rect
         y="1089"
         x="361"
         height="22"
         width="22"
         id="rect23849"
         style="fill:#000000;fill-opacity:0.15686275;fill-rule:evenodd;stroke:none;stroke-width:1;marker:none;visibility:visible;display:inline;overflow:visible;filter:url(#filter16974);enable-background:accumulate" />
      <rect
         style="fill:url(#linearGradient23855);fill-opacity:1;fill-rule:evenodd;stroke:#888a85;stroke-width:1.00000095;stroke-linecap:butt;stroke-linejoin:round;stroke-miterlimit:4;stroke-opacity:1;stroke-dasharray:none;stroke-dashoffset:0;marker:none;visibility:visible;display:inline;overflow:visible;enable-background:accumulate"
         id="rect23851"
         width="19.999996"
         height="19.999998"
         x="361.5"
         y="1089.5" />
      <rect
         y="1090.5"
         x="362.5"
         height="18"
         width="18"
         id="rect23853"
         style="fill:none;stroke:#ffffff;stroke-width:1;stroke-linecap:square;stroke-linejoin:round;stroke-miterlimit:4;stroke-opacity:1;stroke-dasharray:none;stroke-dashoffset:0;marker:none;visibility:visible;display:inline;overflow:visible;enable-background:accumulate" />
    </g>
    <g
       id="use11269-0"
       transform="matrix(1.99071,0,0,1.99071,-1791.4919,-9.8439747)">
      <path
         id="path23831"
         d="m 909.5,11 0,5"
         style="fill:none;stroke:#000000;stroke-width:1px;stroke-linecap:butt;stroke-linejoin:miter;stroke-opacity:1" />
      <path
         sodipodi:nodetypes="csc"
         id="path23833"
         d="m 912.5,11.977458 c 1,-0.5 3,-1 3,1 0,1 0,2 0,3"
         style="fill:none;stroke:#000000;stroke-width:1px;stroke-linecap:butt;stroke-linejoin:miter;stroke-opacity:1" />
      <path
         sodipodi:nodetypes="csc"
         id="path23835"
         d="m 917.5,7.470786 c 0,3.5 0,6 0,7 0,1.152443 1,1 2,1"
         style="fill:none;stroke:#000000;stroke-width:1px;stroke-linecap:butt;stroke-linejoin:miter;stroke-opacity:1" />
      <path
         sodipodi:nodetypes="csc"
         id="path23837"
         d="m 909.5,11.977458 c 1,-0.5 3,-1 3,1 0,1 0,2 0,3"
         style="fill:none;stroke:#000000;stroke-width:1px;stroke-linecap:butt;stroke-linejoin:miter;stroke-opacity:1" />
      <path
         sodipodi:nodetypes="cc"
         id="path23839"
         d="m 903,10.970786 5,5"
         style="fill:none;stroke:#000000;stroke-width:1px;stroke-linecap:butt;stroke-linejoin:miter;stroke-opacity:1" />
      <path
         id="path23841"
         d="m 908,10.970786 -5,5"
         style="fill:none;stroke:#000000;stroke-width:1px;stroke-linecap:butt;stroke-linejoin:miter;stroke-opacity:1" />
    </g>
    <g
       id="use11271-9"
       transform="matrix(1.99071,0,0,1.99071,-1791.4919,-9.8439747)">
      <path
         d="m 906.5,24.5 -3,-3 3,-3 m 3,6 3,-3 -3,-3"
         style="fill:none;stroke:#000000;stroke-width:1px;stroke-linecap:square;stroke-linejoin:miter;stroke-opacity:1"
         id="path23845" />
    </g>
    <path
       transform="matrix(1.9369071,0,0,1.9369071,-320.44663,-692.33291)"
       sodipodi:type="inkscape:offset"
       inkscape:radius="-0.28125"
       inkscape:original="M 181.3125 371 L 179 373.3125 L 181.6875 376 L 179 378.6875 L 181.3125 381 L 184 378.3125 L 186.6875 381 L 189 378.6875 L 186.3125 376 L 189 373.3125 L 186.6875 371 L 184 373.6875 L 181.3125 371 z "
       style="fill:#ef2929;fill-opacity:1;fill-rule:evenodd;stroke:#a40000;stroke-width:1.02777779;stroke-linecap:butt;stroke-linejoin:miter;stroke-miterlimit:0;stroke-opacity:1;stroke-dasharray:none;stroke-dashoffset:0.50001387;marker:none;visibility:visible;display:inline;overflow:visible;enable-background:accumulate"
       id="path16967"
       d="m 181.3125,371.375 -1.9375,1.9375 2.5,2.5 a 0.28127812,0.28127812 0 0 1 0.0625,0.3125 0.28127812,0.28127812 0 0 1 -0.0625,0.0625 l -2.5,2.5 1.9375,1.9375 2.5,-2.5 a 0.28127812,0.28127812 0 0 1 0.3125,-0.0625 0.28127812,0.28127812 0 0 1 0.0625,0.0625 l 2.5,2.5 1.9375,-1.9375 -2.5,-2.5 a 0.28127812,0.28127812 0 0 1 -0.0625,-0.3125 0.28127812,0.28127812 0 0 1 0.0625,-0.0625 l 2.5,-2.5 -1.9375,-1.9375 -2.5,2.5 a 0.28127812,0.28127812 0 0 1 -0.3125,0.0625 0.28127812,0.28127812 0 0 1 -0.0625,-0.0625 l -2.5,-2.5 z" />
  </g>
</svg>
