<?xml version="1.0" encoding="UTF-8" standalone="no"?>
<!-- Created with Inkscape (http://www.inkscape.org/) -->
<svg
   xmlns:dc="http://purl.org/dc/elements/1.1/"
   xmlns:cc="http://web.resource.org/cc/"
   xmlns:rdf="http://www.w3.org/1999/02/22-rdf-syntax-ns#"
   xmlns:svg="http://www.w3.org/2000/svg"
   xmlns="http://www.w3.org/2000/svg"
   xmlns:xlink="http://www.w3.org/1999/xlink"
   xmlns:sodipodi="http://sodipodi.sourceforge.net/DTD/sodipodi-0.dtd"
   xmlns:inkscape="http://www.inkscape.org/namespaces/inkscape"
   sodipodi:docname="eastern-motive-P4G.svg"
   sodipodi:docbase="/home/d/ink/inkscape/share/examples"
   inkscape:version="0.41+cvs"
   sodipodi:version="0.32"
   id="svg1"
   height="297mm"
   width="210mm">
  <defs
     id="defs3">
    <linearGradient
       id="linearGradient2688"
       inkscape:collect="always">
      <stop
         id="stop2689"
         offset="0"
         style="stop-color:#fedc60;stop-opacity:1;" />
      <stop
         id="stop2690"
         offset="1"
         style="stop-color:#fedc60;stop-opacity:0;" />
    </linearGradient>
    <radialGradient
       gradientUnits="userSpaceOnUse"
       r="11.503876"
       fy="315.10585"
       fx="258.93150"
       cy="315.10585"
       cx="258.93150"
       gradientTransform="scale(0.954174,1.048027)"
       id="radialGradient2691"
       xlink:href="#linearGradient2688"
       inkscape:collect="always" />
  </defs>
  <sodipodi:namedview
     showborder="false"
     inkscape:window-y="17"
     inkscape:window-x="13"
     inkscape:window-height="798"
     inkscape:window-width="995"
     inkscape:current-layer="g1063"
     inkscape:cy="526.12421"
     inkscape:cx="490.80620"
     inkscape:zoom="1.2592573"
     inkscape:pageshadow="2"
     inkscape:pageopacity="0.0"
     borderopacity="1.0"
     bordercolor="#666666"
     pagecolor="#ffffff"
     id="base" />
  <metadata
     id="metadata4">
    <rdf:RDF
       id="RDF5">
      <cc:Work
         id="Work6"
         rdf:about="">
        <dc:format
           id="format7">image/svg+xml</dc:format>
        <dc:type
           rdf:resource="http://purl.org/dc/dcmitype/StillImage"
           id="type9" />
      </cc:Work>
    </rdf:RDF>
  </metadata>
  <g
     id="layer1"
     inkscape:groupmode="layer"
     inkscape:label="Layer 1">
    <use
       id="use3662"
       transform="matrix(1.000000,0.000000,0.000000,-1.000000,0.000000,803.2491)"
       xlink:href="#g1063"
       inkscape:tiled-clone-of="#g1063"
       y="0"
       x="0" />
    <use
       id="use3663"
       transform="translate(0.000000,184.4396)"
       xlink:href="#g1063"
       inkscape:tiled-clone-of="#g1063"
       y="0"
       x="0" />
    <use
       id="use3664"
       transform="matrix(1.000000,0.000000,0.000000,-1.000000,0.000000,987.6887)"
       xlink:href="#g1063"
       inkscape:tiled-clone-of="#g1063"
       y="0"
       x="0" />
    <use
       id="use3665"
       transform="translate(0.000000,368.8792)"
       xlink:href="#g1063"
       inkscape:tiled-clone-of="#g1063"
       y="0"
       x="0" />
    <use
       id="use3666"
       transform="matrix(1.000000,0.000000,0.000000,-1.000000,0.000000,1172.128)"
       xlink:href="#g1063"
       inkscape:tiled-clone-of="#g1063"
       y="0"
       x="0" />
    <use
       id="use3667"
       transform="translate(0.000000,553.3188)"
       xlink:href="#g1063"
       inkscape:tiled-clone-of="#g1063"
       y="0"
       x="0" />
    <use
       id="use3668"
       transform="matrix(6.123032e-17,1.000000,-1.000000,6.123032e-17,619.8688,91.16047)"
       xlink:href="#g1063"
       inkscape:tiled-clone-of="#g1063"
       y="0"
       x="0" />
    <use
       id="use3669"
       transform="matrix(6.123032e-17,1.000000,1.000000,-6.123032e-17,-91.16047,183.3803)"
       xlink:href="#g1063"
       inkscape:tiled-clone-of="#g1063"
       y="0"
       x="0" />
    <use
       id="use3670"
       transform="matrix(6.123032e-17,1.000000,-1.000000,6.123032e-17,619.8688,275.6001)"
       xlink:href="#g1063"
       inkscape:tiled-clone-of="#g1063"
       y="0"
       x="0" />
    <use
       id="use3671"
       transform="matrix(6.123032e-17,1.000000,1.000000,-6.123032e-17,-91.16047,367.8199)"
       xlink:href="#g1063"
       inkscape:tiled-clone-of="#g1063"
       y="0"
       x="0" />
    <use
       id="use3672"
       transform="matrix(6.123032e-17,1.000000,-1.000000,6.123032e-17,619.8688,460.0397)"
       xlink:href="#g1063"
       inkscape:tiled-clone-of="#g1063"
       y="0"
       x="0" />
    <use
       id="use3673"
       transform="matrix(6.123032e-17,1.000000,1.000000,-6.123032e-17,-91.16047,552.2595)"
       xlink:href="#g1063"
       inkscape:tiled-clone-of="#g1063"
       y="0"
       x="0" />
    <use
       id="use3674"
       transform="matrix(6.123032e-17,1.000000,-1.000000,6.123032e-17,619.8688,644.4793)"
       xlink:href="#g1063"
       inkscape:tiled-clone-of="#g1063"
       y="0"
       x="0" />
    <use
       id="use3675"
       transform="matrix(6.123032e-17,-1.000000,1.000000,6.123032e-17,-91.16047,619.8688)"
       xlink:href="#g1063"
       inkscape:tiled-clone-of="#g1063"
       y="0"
       x="0" />
    <use
       id="use3676"
       transform="matrix(6.123032e-17,-1.000000,-1.000000,-6.123032e-17,619.8688,712.0886)"
       xlink:href="#g1063"
       inkscape:tiled-clone-of="#g1063"
       y="0"
       x="0" />
    <use
       id="use3677"
       transform="matrix(6.123032e-17,-1.000000,1.000000,6.123032e-17,-91.16047,804.3084)"
       xlink:href="#g1063"
       inkscape:tiled-clone-of="#g1063"
       y="0"
       x="0" />
    <use
       id="use3678"
       transform="matrix(6.123032e-17,-1.000000,-1.000000,-6.123032e-17,619.8688,896.5282)"
       xlink:href="#g1063"
       inkscape:tiled-clone-of="#g1063"
       y="0"
       x="0" />
    <use
       id="use3679"
       transform="matrix(6.123032e-17,-1.000000,1.000000,6.123032e-17,-91.16047,988.7480)"
       xlink:href="#g1063"
       inkscape:tiled-clone-of="#g1063"
       y="0"
       x="0" />
    <use
       id="use3680"
       transform="matrix(6.123032e-17,-1.000000,-1.000000,-6.123032e-17,619.8688,1080.968)"
       xlink:href="#g1063"
       inkscape:tiled-clone-of="#g1063"
       y="0"
       x="0" />
    <use
       id="use3681"
       transform="matrix(6.123032e-17,-1.000000,1.000000,6.123032e-17,-91.16047,1173.188)"
       xlink:href="#g1063"
       inkscape:tiled-clone-of="#g1063"
       y="0"
       x="0" />
    <use
       id="use3682"
       transform="matrix(-1.000000,1.224606e-16,-1.224606e-16,-1.000000,528.7083,711.0293)"
       xlink:href="#g1063"
       inkscape:tiled-clone-of="#g1063"
       y="0"
       x="0" />
    <use
       id="use3683"
       transform="matrix(-1.000000,0.000000,0.000000,1.000000,528.7083,92.21981)"
       xlink:href="#g1063"
       inkscape:tiled-clone-of="#g1063"
       y="0"
       x="0" />
    <use
       id="use3684"
       transform="matrix(-1.000000,1.224606e-16,-1.224606e-16,-1.000000,528.7083,895.4689)"
       xlink:href="#g1063"
       inkscape:tiled-clone-of="#g1063"
       y="0"
       x="0" />
    <use
       id="use3685"
       transform="matrix(-1.000000,0.000000,0.000000,1.000000,528.7083,276.6594)"
       xlink:href="#g1063"
       inkscape:tiled-clone-of="#g1063"
       y="0"
       x="0" />
    <use
       id="use3686"
       transform="matrix(-1.000000,1.224606e-16,-1.224606e-16,-1.000000,528.7083,1079.908)"
       xlink:href="#g1063"
       inkscape:tiled-clone-of="#g1063"
       y="0"
       x="0" />
    <use
       id="use3687"
       transform="matrix(-1.000000,0.000000,0.000000,1.000000,528.7083,461.0990)"
       xlink:href="#g1063"
       inkscape:tiled-clone-of="#g1063"
       y="0"
       x="0" />
    <use
       id="use3688"
       transform="matrix(-1.000000,1.224606e-16,-1.224606e-16,-1.000000,528.7083,1264.348)"
       xlink:href="#g1063"
       inkscape:tiled-clone-of="#g1063"
       y="0"
       x="0" />
    <use
       id="use3689"
       transform="matrix(1.000000,0.000000,0.000000,-1.000000,92.21981,711.0293)"
       xlink:href="#g1063"
       inkscape:tiled-clone-of="#g1063"
       y="0"
       x="0" />
    <use
       id="use3690"
       transform="translate(92.21981,92.21981)"
       xlink:href="#g1063"
       inkscape:tiled-clone-of="#g1063"
       y="0"
       x="0" />
    <use
       id="use3691"
       transform="matrix(1.000000,0.000000,0.000000,-1.000000,92.21981,895.4689)"
       xlink:href="#g1063"
       inkscape:tiled-clone-of="#g1063"
       y="0"
       x="0" />
    <use
       id="use3692"
       transform="translate(92.21981,276.6594)"
       xlink:href="#g1063"
       inkscape:tiled-clone-of="#g1063"
       y="0"
       x="0" />
    <use
       id="use3693"
       transform="matrix(1.000000,0.000000,0.000000,-1.000000,92.21981,1079.908)"
       xlink:href="#g1063"
       inkscape:tiled-clone-of="#g1063"
       y="0"
       x="0" />
    <use
       id="use3694"
       transform="translate(92.21981,461.0990)"
       xlink:href="#g1063"
       inkscape:tiled-clone-of="#g1063"
       y="0"
       x="0" />
    <use
       id="use3695"
       transform="matrix(1.000000,0.000000,0.000000,-1.000000,92.21981,1264.348)"
       xlink:href="#g1063"
       inkscape:tiled-clone-of="#g1063"
       y="0"
       x="0" />
    <use
       id="use3696"
       transform="matrix(6.123032e-17,1.000000,1.000000,-6.123032e-17,1.059334,91.16047)"
       xlink:href="#g1063"
       inkscape:tiled-clone-of="#g1063"
       y="0"
       x="0" />
    <use
       id="use3697"
       transform="matrix(6.123032e-17,1.000000,-1.000000,6.123032e-17,712.0886,183.3803)"
       xlink:href="#g1063"
       inkscape:tiled-clone-of="#g1063"
       y="0"
       x="0" />
    <use
       id="use3698"
       transform="matrix(6.123032e-17,1.000000,1.000000,-6.123032e-17,1.059334,275.6001)"
       xlink:href="#g1063"
       inkscape:tiled-clone-of="#g1063"
       y="0"
       x="0" />
    <use
       id="use3699"
       transform="matrix(6.123032e-17,1.000000,-1.000000,6.123032e-17,712.0886,367.8199)"
       xlink:href="#g1063"
       inkscape:tiled-clone-of="#g1063"
       y="0"
       x="0" />
    <use
       id="use3700"
       transform="matrix(6.123032e-17,1.000000,1.000000,-6.123032e-17,1.059334,460.0397)"
       xlink:href="#g1063"
       inkscape:tiled-clone-of="#g1063"
       y="0"
       x="0" />
    <use
       id="use3701"
       transform="matrix(6.123032e-17,1.000000,-1.000000,6.123032e-17,712.0886,552.2595)"
       xlink:href="#g1063"
       inkscape:tiled-clone-of="#g1063"
       y="0"
       x="0" />
    <use
       id="use3702"
       transform="matrix(6.123032e-17,1.000000,1.000000,-6.123032e-17,1.059334,644.4793)"
       xlink:href="#g1063"
       inkscape:tiled-clone-of="#g1063"
       y="0"
       x="0" />
    <use
       id="use3703"
       transform="matrix(6.123032e-17,-1.000000,-1.000000,-6.123032e-17,712.0886,619.8688)"
       xlink:href="#g1063"
       inkscape:tiled-clone-of="#g1063"
       y="0"
       x="0" />
    <use
       id="use3704"
       transform="matrix(6.123032e-17,-1.000000,1.000000,6.123032e-17,1.059334,712.0886)"
       xlink:href="#g1063"
       inkscape:tiled-clone-of="#g1063"
       y="0"
       x="0" />
    <use
       id="use3705"
       transform="matrix(6.123032e-17,-1.000000,-1.000000,-6.123032e-17,712.0886,804.3084)"
       xlink:href="#g1063"
       inkscape:tiled-clone-of="#g1063"
       y="0"
       x="0" />
    <use
       id="use3706"
       transform="matrix(6.123032e-17,-1.000000,1.000000,6.123032e-17,1.059334,896.5282)"
       xlink:href="#g1063"
       inkscape:tiled-clone-of="#g1063"
       y="0"
       x="0" />
    <use
       id="use3707"
       transform="matrix(6.123032e-17,-1.000000,-1.000000,-6.123032e-17,712.0886,988.7480)"
       xlink:href="#g1063"
       inkscape:tiled-clone-of="#g1063"
       y="0"
       x="0" />
    <use
       id="use3708"
       transform="matrix(6.123032e-17,-1.000000,1.000000,6.123032e-17,1.059334,1080.968)"
       xlink:href="#g1063"
       inkscape:tiled-clone-of="#g1063"
       y="0"
       x="0" />
    <use
       id="use3709"
       transform="matrix(6.123032e-17,-1.000000,-1.000000,-6.123032e-17,712.0886,1173.188)"
       xlink:href="#g1063"
       inkscape:tiled-clone-of="#g1063"
       y="0"
       x="0" />
    <use
       id="use3710"
       transform="matrix(-1.000000,0.000000,0.000000,1.000000,620.9281,0.000000)"
       xlink:href="#g1063"
       inkscape:tiled-clone-of="#g1063"
       y="0"
       x="0" />
    <use
       id="use3711"
       transform="matrix(-1.000000,1.224606e-16,-1.224606e-16,-1.000000,620.9281,803.2491)"
       xlink:href="#g1063"
       inkscape:tiled-clone-of="#g1063"
       y="0"
       x="0" />
    <use
       id="use3712"
       transform="matrix(-1.000000,0.000000,0.000000,1.000000,620.9281,184.4396)"
       xlink:href="#g1063"
       inkscape:tiled-clone-of="#g1063"
       y="0"
       x="0" />
    <use
       id="use3713"
       transform="matrix(-1.000000,1.224606e-16,-1.224606e-16,-1.000000,620.9281,987.6887)"
       xlink:href="#g1063"
       inkscape:tiled-clone-of="#g1063"
       y="0"
       x="0" />
    <use
       id="use3714"
       transform="matrix(-1.000000,0.000000,0.000000,1.000000,620.9281,368.8792)"
       xlink:href="#g1063"
       inkscape:tiled-clone-of="#g1063"
       y="0"
       x="0" />
    <use
       id="use3715"
       transform="matrix(-1.000000,1.224606e-16,-1.224606e-16,-1.000000,620.9281,1172.128)"
       xlink:href="#g1063"
       inkscape:tiled-clone-of="#g1063"
       y="0"
       x="0" />
    <use
       id="use3716"
       transform="matrix(-1.000000,0.000000,0.000000,1.000000,620.9281,553.3188)"
       xlink:href="#g1063"
       inkscape:tiled-clone-of="#g1063"
       y="0"
       x="0" />
    <use
       id="use3717"
       transform="translate(184.4396,0.000000)"
       xlink:href="#g1063"
       inkscape:tiled-clone-of="#g1063"
       y="0"
       x="0" />
    <use
       id="use3718"
       transform="matrix(1.000000,0.000000,0.000000,-1.000000,184.4396,803.2491)"
       xlink:href="#g1063"
       inkscape:tiled-clone-of="#g1063"
       y="0"
       x="0" />
    <use
       id="use3719"
       transform="translate(184.4396,184.4396)"
       xlink:href="#g1063"
       inkscape:tiled-clone-of="#g1063"
       y="0"
       x="0" />
    <use
       id="use3720"
       transform="matrix(1.000000,0.000000,0.000000,-1.000000,184.4396,987.6887)"
       xlink:href="#g1063"
       inkscape:tiled-clone-of="#g1063"
       y="0"
       x="0" />
    <use
       id="use3721"
       transform="translate(184.4396,368.8792)"
       xlink:href="#g1063"
       inkscape:tiled-clone-of="#g1063"
       y="0"
       x="0" />
    <use
       id="use3722"
       transform="matrix(1.000000,0.000000,0.000000,-1.000000,184.4396,1172.128)"
       xlink:href="#g1063"
       inkscape:tiled-clone-of="#g1063"
       y="0"
       x="0" />
    <use
       id="use3723"
       transform="translate(184.4396,553.3188)"
       xlink:href="#g1063"
       inkscape:tiled-clone-of="#g1063"
       y="0"
       x="0" />
    <use
       id="use3724"
       transform="matrix(6.123032e-17,1.000000,-1.000000,6.123032e-17,804.3084,91.16047)"
       xlink:href="#g1063"
       inkscape:tiled-clone-of="#g1063"
       y="0"
       x="0" />
    <use
       id="use3725"
       transform="matrix(6.123032e-17,1.000000,1.000000,-6.123032e-17,93.27914,183.3803)"
       xlink:href="#g1063"
       inkscape:tiled-clone-of="#g1063"
       y="0"
       x="0" />
    <use
       id="use3726"
       transform="matrix(6.123032e-17,1.000000,-1.000000,6.123032e-17,804.3084,275.6001)"
       xlink:href="#g1063"
       inkscape:tiled-clone-of="#g1063"
       y="0"
       x="0" />
    <use
       id="use3727"
       transform="matrix(6.123032e-17,1.000000,1.000000,-6.123032e-17,93.27914,367.8199)"
       xlink:href="#g1063"
       inkscape:tiled-clone-of="#g1063"
       y="0"
       x="0" />
    <use
       id="use3728"
       transform="matrix(6.123032e-17,1.000000,-1.000000,6.123032e-17,804.3084,460.0397)"
       xlink:href="#g1063"
       inkscape:tiled-clone-of="#g1063"
       y="0"
       x="0" />
    <use
       id="use3729"
       transform="matrix(6.123032e-17,1.000000,1.000000,-6.123032e-17,93.27914,552.2595)"
       xlink:href="#g1063"
       inkscape:tiled-clone-of="#g1063"
       y="0"
       x="0" />
    <use
       id="use3730"
       transform="matrix(6.123032e-17,1.000000,-1.000000,6.123032e-17,804.3084,644.4793)"
       xlink:href="#g1063"
       inkscape:tiled-clone-of="#g1063"
       y="0"
       x="0" />
    <use
       id="use3731"
       transform="matrix(6.123032e-17,-1.000000,1.000000,6.123032e-17,93.27914,619.8688)"
       xlink:href="#g1063"
       inkscape:tiled-clone-of="#g1063"
       y="0"
       x="0" />
    <use
       id="use3732"
       transform="matrix(6.123032e-17,-1.000000,-1.000000,-6.123032e-17,804.3084,712.0886)"
       xlink:href="#g1063"
       inkscape:tiled-clone-of="#g1063"
       y="0"
       x="0" />
    <use
       id="use3733"
       transform="matrix(6.123032e-17,-1.000000,1.000000,6.123032e-17,93.27914,804.3084)"
       xlink:href="#g1063"
       inkscape:tiled-clone-of="#g1063"
       y="0"
       x="0" />
    <use
       id="use3734"
       transform="matrix(6.123032e-17,-1.000000,-1.000000,-6.123032e-17,804.3084,896.5282)"
       xlink:href="#g1063"
       inkscape:tiled-clone-of="#g1063"
       y="0"
       x="0" />
    <use
       id="use3735"
       transform="matrix(6.123032e-17,-1.000000,1.000000,6.123032e-17,93.27914,988.7480)"
       xlink:href="#g1063"
       inkscape:tiled-clone-of="#g1063"
       y="0"
       x="0" />
    <use
       id="use3736"
       transform="matrix(6.123032e-17,-1.000000,-1.000000,-6.123032e-17,804.3084,1080.968)"
       xlink:href="#g1063"
       inkscape:tiled-clone-of="#g1063"
       y="0"
       x="0" />
    <use
       id="use3737"
       transform="matrix(6.123032e-17,-1.000000,1.000000,6.123032e-17,93.27914,1173.188)"
       xlink:href="#g1063"
       inkscape:tiled-clone-of="#g1063"
       y="0"
       x="0" />
    <use
       id="use3738"
       transform="matrix(-1.000000,1.224606e-16,-1.224606e-16,-1.000000,713.1479,711.0293)"
       xlink:href="#g1063"
       inkscape:tiled-clone-of="#g1063"
       y="0"
       x="0" />
    <use
       id="use3739"
       transform="matrix(-1.000000,0.000000,0.000000,1.000000,713.1479,92.21981)"
       xlink:href="#g1063"
       inkscape:tiled-clone-of="#g1063"
       y="0"
       x="0" />
    <use
       id="use3740"
       transform="matrix(-1.000000,1.224606e-16,-1.224606e-16,-1.000000,713.1479,895.4689)"
       xlink:href="#g1063"
       inkscape:tiled-clone-of="#g1063"
       y="0"
       x="0" />
    <use
       id="use3741"
       transform="matrix(-1.000000,0.000000,0.000000,1.000000,713.1479,276.6594)"
       xlink:href="#g1063"
       inkscape:tiled-clone-of="#g1063"
       y="0"
       x="0" />
    <use
       id="use3742"
       transform="matrix(-1.000000,1.224606e-16,-1.224606e-16,-1.000000,713.1479,1079.908)"
       xlink:href="#g1063"
       inkscape:tiled-clone-of="#g1063"
       y="0"
       x="0" />
    <use
       id="use3743"
       transform="matrix(-1.000000,0.000000,0.000000,1.000000,713.1479,461.0990)"
       xlink:href="#g1063"
       inkscape:tiled-clone-of="#g1063"
       y="0"
       x="0" />
    <use
       id="use3744"
       transform="matrix(-1.000000,1.224606e-16,-1.224606e-16,-1.000000,713.1479,1264.348)"
       xlink:href="#g1063"
       inkscape:tiled-clone-of="#g1063"
       y="0"
       x="0" />
    <use
       id="use3745"
       transform="matrix(1.000000,0.000000,0.000000,-1.000000,276.6594,711.0293)"
       xlink:href="#g1063"
       inkscape:tiled-clone-of="#g1063"
       y="0"
       x="0" />
    <use
       id="use3746"
       transform="translate(276.6594,92.21981)"
       xlink:href="#g1063"
       inkscape:tiled-clone-of="#g1063"
       y="0"
       x="0" />
    <use
       id="use3747"
       transform="matrix(1.000000,0.000000,0.000000,-1.000000,276.6594,895.4689)"
       xlink:href="#g1063"
       inkscape:tiled-clone-of="#g1063"
       y="0"
       x="0" />
    <use
       id="use3748"
       transform="translate(276.6594,276.6594)"
       xlink:href="#g1063"
       inkscape:tiled-clone-of="#g1063"
       y="0"
       x="0" />
    <use
       id="use3749"
       transform="matrix(1.000000,0.000000,0.000000,-1.000000,276.6594,1079.908)"
       xlink:href="#g1063"
       inkscape:tiled-clone-of="#g1063"
       y="0"
       x="0" />
    <use
       id="use3750"
       transform="translate(276.6594,461.0990)"
       xlink:href="#g1063"
       inkscape:tiled-clone-of="#g1063"
       y="0"
       x="0" />
    <use
       id="use3751"
       transform="matrix(1.000000,0.000000,0.000000,-1.000000,276.6594,1264.348)"
       xlink:href="#g1063"
       inkscape:tiled-clone-of="#g1063"
       y="0"
       x="0" />
    <use
       id="use3752"
       transform="matrix(6.123032e-17,1.000000,1.000000,-6.123032e-17,185.4989,91.16047)"
       xlink:href="#g1063"
       inkscape:tiled-clone-of="#g1063"
       y="0"
       x="0" />
    <use
       id="use3753"
       transform="matrix(6.123032e-17,1.000000,-1.000000,6.123032e-17,896.5282,183.3803)"
       xlink:href="#g1063"
       inkscape:tiled-clone-of="#g1063"
       y="0"
       x="0" />
    <use
       id="use3754"
       transform="matrix(6.123032e-17,1.000000,1.000000,-6.123032e-17,185.4989,275.6001)"
       xlink:href="#g1063"
       inkscape:tiled-clone-of="#g1063"
       y="0"
       x="0" />
    <use
       id="use3755"
       transform="matrix(6.123032e-17,1.000000,-1.000000,6.123032e-17,896.5282,367.8199)"
       xlink:href="#g1063"
       inkscape:tiled-clone-of="#g1063"
       y="0"
       x="0" />
    <use
       id="use3756"
       transform="matrix(6.123032e-17,1.000000,1.000000,-6.123032e-17,185.4989,460.0397)"
       xlink:href="#g1063"
       inkscape:tiled-clone-of="#g1063"
       y="0"
       x="0" />
    <use
       id="use3757"
       transform="matrix(6.123032e-17,1.000000,-1.000000,6.123032e-17,896.5282,552.2595)"
       xlink:href="#g1063"
       inkscape:tiled-clone-of="#g1063"
       y="0"
       x="0" />
    <use
       id="use3758"
       transform="matrix(6.123032e-17,1.000000,1.000000,-6.123032e-17,185.4989,644.4793)"
       xlink:href="#g1063"
       inkscape:tiled-clone-of="#g1063"
       y="0"
       x="0" />
    <use
       id="use3759"
       transform="matrix(6.123032e-17,-1.000000,-1.000000,-6.123032e-17,896.5282,619.8688)"
       xlink:href="#g1063"
       inkscape:tiled-clone-of="#g1063"
       y="0"
       x="0" />
    <use
       id="use3760"
       transform="matrix(6.123032e-17,-1.000000,1.000000,6.123032e-17,185.4989,712.0886)"
       xlink:href="#g1063"
       inkscape:tiled-clone-of="#g1063"
       y="0"
       x="0" />
    <use
       id="use3761"
       transform="matrix(6.123032e-17,-1.000000,-1.000000,-6.123032e-17,896.5282,804.3084)"
       xlink:href="#g1063"
       inkscape:tiled-clone-of="#g1063"
       y="0"
       x="0" />
    <use
       id="use3762"
       transform="matrix(6.123032e-17,-1.000000,1.000000,6.123032e-17,185.4989,896.5282)"
       xlink:href="#g1063"
       inkscape:tiled-clone-of="#g1063"
       y="0"
       x="0" />
    <use
       id="use3763"
       transform="matrix(6.123032e-17,-1.000000,-1.000000,-6.123032e-17,896.5282,988.7480)"
       xlink:href="#g1063"
       inkscape:tiled-clone-of="#g1063"
       y="0"
       x="0" />
    <use
       id="use3764"
       transform="matrix(6.123032e-17,-1.000000,1.000000,6.123032e-17,185.4989,1080.968)"
       xlink:href="#g1063"
       inkscape:tiled-clone-of="#g1063"
       y="0"
       x="0" />
    <use
       id="use3765"
       transform="matrix(6.123032e-17,-1.000000,-1.000000,-6.123032e-17,896.5282,1173.188)"
       xlink:href="#g1063"
       inkscape:tiled-clone-of="#g1063"
       y="0"
       x="0" />
    <use
       id="use3766"
       transform="matrix(-1.000000,0.000000,0.000000,1.000000,805.3677,0.000000)"
       xlink:href="#g1063"
       inkscape:tiled-clone-of="#g1063"
       y="0"
       x="0" />
    <use
       id="use3767"
       transform="matrix(-1.000000,1.224606e-16,-1.224606e-16,-1.000000,805.3677,803.2491)"
       xlink:href="#g1063"
       inkscape:tiled-clone-of="#g1063"
       y="0"
       x="0" />
    <use
       id="use3768"
       transform="matrix(-1.000000,0.000000,0.000000,1.000000,805.3677,184.4396)"
       xlink:href="#g1063"
       inkscape:tiled-clone-of="#g1063"
       y="0"
       x="0" />
    <use
       id="use3769"
       transform="matrix(-1.000000,1.224606e-16,-1.224606e-16,-1.000000,805.3677,987.6887)"
       xlink:href="#g1063"
       inkscape:tiled-clone-of="#g1063"
       y="0"
       x="0" />
    <use
       id="use3770"
       transform="matrix(-1.000000,0.000000,0.000000,1.000000,805.3677,368.8792)"
       xlink:href="#g1063"
       inkscape:tiled-clone-of="#g1063"
       y="0"
       x="0" />
    <use
       id="use3771"
       transform="matrix(-1.000000,1.224606e-16,-1.224606e-16,-1.000000,805.3677,1172.128)"
       xlink:href="#g1063"
       inkscape:tiled-clone-of="#g1063"
       y="0"
       x="0" />
    <use
       id="use3772"
       transform="matrix(-1.000000,0.000000,0.000000,1.000000,805.3677,553.3188)"
       xlink:href="#g1063"
       inkscape:tiled-clone-of="#g1063"
       y="0"
       x="0" />
    <use
       id="use3773"
       transform="translate(368.8792,0.000000)"
       xlink:href="#g1063"
       inkscape:tiled-clone-of="#g1063"
       y="0"
       x="0" />
    <use
       id="use3774"
       transform="matrix(1.000000,0.000000,0.000000,-1.000000,368.8792,803.2491)"
       xlink:href="#g1063"
       inkscape:tiled-clone-of="#g1063"
       y="0"
       x="0" />
    <use
       id="use3775"
       transform="translate(368.8792,184.4396)"
       xlink:href="#g1063"
       inkscape:tiled-clone-of="#g1063"
       y="0"
       x="0" />
    <use
       id="use3776"
       transform="matrix(1.000000,0.000000,0.000000,-1.000000,368.8792,987.6887)"
       xlink:href="#g1063"
       inkscape:tiled-clone-of="#g1063"
       y="0"
       x="0" />
    <use
       id="use3777"
       transform="translate(368.8792,368.8792)"
       xlink:href="#g1063"
       inkscape:tiled-clone-of="#g1063"
       y="0"
       x="0" />
    <use
       id="use3778"
       transform="matrix(1.000000,0.000000,0.000000,-1.000000,368.8792,1172.128)"
       xlink:href="#g1063"
       inkscape:tiled-clone-of="#g1063"
       y="0"
       x="0" />
    <use
       id="use3779"
       transform="translate(368.8792,553.3188)"
       xlink:href="#g1063"
       inkscape:tiled-clone-of="#g1063"
       y="0"
       x="0" />
    <use
       id="use3780"
       transform="matrix(6.123032e-17,1.000000,-1.000000,6.123032e-17,988.7480,91.16047)"
       xlink:href="#g1063"
       inkscape:tiled-clone-of="#g1063"
       y="0"
       x="0" />
    <use
       id="use3781"
       transform="matrix(6.123032e-17,1.000000,1.000000,-6.123032e-17,277.7188,183.3803)"
       xlink:href="#g1063"
       inkscape:tiled-clone-of="#g1063"
       y="0"
       x="0" />
    <use
       id="use3782"
       transform="matrix(6.123032e-17,1.000000,-1.000000,6.123032e-17,988.7480,275.6001)"
       xlink:href="#g1063"
       inkscape:tiled-clone-of="#g1063"
       y="0"
       x="0" />
    <use
       id="use3783"
       transform="matrix(6.123032e-17,1.000000,1.000000,-6.123032e-17,277.7188,367.8199)"
       xlink:href="#g1063"
       inkscape:tiled-clone-of="#g1063"
       y="0"
       x="0" />
    <use
       id="use3784"
       transform="matrix(6.123032e-17,1.000000,-1.000000,6.123032e-17,988.7480,460.0397)"
       xlink:href="#g1063"
       inkscape:tiled-clone-of="#g1063"
       y="0"
       x="0" />
    <use
       id="use3785"
       transform="matrix(6.123032e-17,1.000000,1.000000,-6.123032e-17,277.7188,552.2595)"
       xlink:href="#g1063"
       inkscape:tiled-clone-of="#g1063"
       y="0"
       x="0" />
    <use
       id="use3786"
       transform="matrix(6.123032e-17,1.000000,-1.000000,6.123032e-17,988.7480,644.4793)"
       xlink:href="#g1063"
       inkscape:tiled-clone-of="#g1063"
       y="0"
       x="0" />
    <use
       id="use3787"
       transform="matrix(6.123032e-17,-1.000000,1.000000,6.123032e-17,277.7188,619.8688)"
       xlink:href="#g1063"
       inkscape:tiled-clone-of="#g1063"
       y="0"
       x="0" />
    <use
       id="use3788"
       transform="matrix(6.123032e-17,-1.000000,-1.000000,-6.123032e-17,988.7480,712.0886)"
       xlink:href="#g1063"
       inkscape:tiled-clone-of="#g1063"
       y="0"
       x="0" />
    <use
       id="use3789"
       transform="matrix(6.123032e-17,-1.000000,1.000000,6.123032e-17,277.7188,804.3084)"
       xlink:href="#g1063"
       inkscape:tiled-clone-of="#g1063"
       y="0"
       x="0" />
    <use
       id="use3790"
       transform="matrix(6.123032e-17,-1.000000,-1.000000,-6.123032e-17,988.7480,896.5282)"
       xlink:href="#g1063"
       inkscape:tiled-clone-of="#g1063"
       y="0"
       x="0" />
    <use
       id="use3791"
       transform="matrix(6.123032e-17,-1.000000,1.000000,6.123032e-17,277.7188,988.7480)"
       xlink:href="#g1063"
       inkscape:tiled-clone-of="#g1063"
       y="0"
       x="0" />
    <use
       id="use3792"
       transform="matrix(6.123032e-17,-1.000000,-1.000000,-6.123032e-17,988.7480,1080.968)"
       xlink:href="#g1063"
       inkscape:tiled-clone-of="#g1063"
       y="0"
       x="0" />
    <use
       id="use3793"
       transform="matrix(6.123032e-17,-1.000000,1.000000,6.123032e-17,277.7188,1173.188)"
       xlink:href="#g1063"
       inkscape:tiled-clone-of="#g1063"
       y="0"
       x="0" />
    <use
       id="use3794"
       transform="matrix(-1.000000,1.224606e-16,-1.224606e-16,-1.000000,897.5875,711.0293)"
       xlink:href="#g1063"
       inkscape:tiled-clone-of="#g1063"
       y="0"
       x="0" />
    <use
       id="use3795"
       transform="matrix(-1.000000,0.000000,0.000000,1.000000,897.5875,92.21981)"
       xlink:href="#g1063"
       inkscape:tiled-clone-of="#g1063"
       y="0"
       x="0" />
    <use
       id="use3796"
       transform="matrix(-1.000000,1.224606e-16,-1.224606e-16,-1.000000,897.5875,895.4689)"
       xlink:href="#g1063"
       inkscape:tiled-clone-of="#g1063"
       y="0"
       x="0" />
    <use
       id="use3797"
       transform="matrix(-1.000000,0.000000,0.000000,1.000000,897.5875,276.6594)"
       xlink:href="#g1063"
       inkscape:tiled-clone-of="#g1063"
       y="0"
       x="0" />
    <use
       id="use3798"
       transform="matrix(-1.000000,1.224606e-16,-1.224606e-16,-1.000000,897.5875,1079.908)"
       xlink:href="#g1063"
       inkscape:tiled-clone-of="#g1063"
       y="0"
       x="0" />
    <use
       id="use3799"
       transform="matrix(-1.000000,0.000000,0.000000,1.000000,897.5875,461.0990)"
       xlink:href="#g1063"
       inkscape:tiled-clone-of="#g1063"
       y="0"
       x="0" />
    <use
       id="use3800"
       transform="matrix(-1.000000,1.224606e-16,-1.224606e-16,-1.000000,897.5875,1264.348)"
       xlink:href="#g1063"
       inkscape:tiled-clone-of="#g1063"
       y="0"
       x="0" />
    <use
       id="use3801"
       transform="matrix(1.000000,0.000000,0.000000,-1.000000,461.0990,711.0293)"
       xlink:href="#g1063"
       inkscape:tiled-clone-of="#g1063"
       y="0"
       x="0" />
    <use
       id="use3802"
       transform="translate(461.0990,92.21981)"
       xlink:href="#g1063"
       inkscape:tiled-clone-of="#g1063"
       y="0"
       x="0" />
    <use
       id="use3803"
       transform="matrix(1.000000,0.000000,0.000000,-1.000000,461.0990,895.4689)"
       xlink:href="#g1063"
       inkscape:tiled-clone-of="#g1063"
       y="0"
       x="0" />
    <use
       id="use3804"
       transform="translate(461.0990,276.6594)"
       xlink:href="#g1063"
       inkscape:tiled-clone-of="#g1063"
       y="0"
       x="0" />
    <use
       id="use3805"
       transform="matrix(1.000000,0.000000,0.000000,-1.000000,461.0990,1079.908)"
       xlink:href="#g1063"
       inkscape:tiled-clone-of="#g1063"
       y="0"
       x="0" />
    <use
       id="use3806"
       transform="translate(461.0990,461.0990)"
       xlink:href="#g1063"
       inkscape:tiled-clone-of="#g1063"
       y="0"
       x="0" />
    <use
       id="use3807"
       transform="matrix(1.000000,0.000000,0.000000,-1.000000,461.0990,1264.348)"
       xlink:href="#g1063"
       inkscape:tiled-clone-of="#g1063"
       y="0"
       x="0" />
    <use
       id="use3808"
       transform="matrix(6.123032e-17,1.000000,1.000000,-6.123032e-17,369.9386,91.16047)"
       xlink:href="#g1063"
       inkscape:tiled-clone-of="#g1063"
       y="0"
       x="0" />
    <use
       id="use3809"
       transform="matrix(6.123032e-17,1.000000,-1.000000,6.123032e-17,1080.968,183.3803)"
       xlink:href="#g1063"
       inkscape:tiled-clone-of="#g1063"
       y="0"
       x="0" />
    <use
       id="use3810"
       transform="matrix(6.123032e-17,1.000000,1.000000,-6.123032e-17,369.9386,275.6001)"
       xlink:href="#g1063"
       inkscape:tiled-clone-of="#g1063"
       y="0"
       x="0" />
    <use
       id="use3811"
       transform="matrix(6.123032e-17,1.000000,-1.000000,6.123032e-17,1080.968,367.8199)"
       xlink:href="#g1063"
       inkscape:tiled-clone-of="#g1063"
       y="0"
       x="0" />
    <use
       id="use3812"
       transform="matrix(6.123032e-17,1.000000,1.000000,-6.123032e-17,369.9386,460.0397)"
       xlink:href="#g1063"
       inkscape:tiled-clone-of="#g1063"
       y="0"
       x="0" />
    <use
       id="use3813"
       transform="matrix(6.123032e-17,1.000000,-1.000000,6.123032e-17,1080.968,552.2595)"
       xlink:href="#g1063"
       inkscape:tiled-clone-of="#g1063"
       y="0"
       x="0" />
    <use
       id="use3814"
       transform="matrix(6.123032e-17,1.000000,1.000000,-6.123032e-17,369.9386,644.4793)"
       xlink:href="#g1063"
       inkscape:tiled-clone-of="#g1063"
       y="0"
       x="0" />
    <use
       id="use3815"
       transform="matrix(6.123032e-17,-1.000000,-1.000000,-6.123032e-17,1080.968,619.8688)"
       xlink:href="#g1063"
       inkscape:tiled-clone-of="#g1063"
       y="0"
       x="0" />
    <use
       id="use3816"
       transform="matrix(6.123032e-17,-1.000000,1.000000,6.123032e-17,369.9386,712.0886)"
       xlink:href="#g1063"
       inkscape:tiled-clone-of="#g1063"
       y="0"
       x="0" />
    <use
       id="use3817"
       transform="matrix(6.123032e-17,-1.000000,-1.000000,-6.123032e-17,1080.968,804.3084)"
       xlink:href="#g1063"
       inkscape:tiled-clone-of="#g1063"
       y="0"
       x="0" />
    <use
       id="use3818"
       transform="matrix(6.123032e-17,-1.000000,1.000000,6.123032e-17,369.9386,896.5282)"
       xlink:href="#g1063"
       inkscape:tiled-clone-of="#g1063"
       y="0"
       x="0" />
    <use
       id="use3819"
       transform="matrix(6.123032e-17,-1.000000,-1.000000,-6.123032e-17,1080.968,988.7480)"
       xlink:href="#g1063"
       inkscape:tiled-clone-of="#g1063"
       y="0"
       x="0" />
    <use
       id="use3820"
       transform="matrix(6.123032e-17,-1.000000,1.000000,6.123032e-17,369.9386,1080.968)"
       xlink:href="#g1063"
       inkscape:tiled-clone-of="#g1063"
       y="0"
       x="0" />
    <use
       id="use3821"
       transform="matrix(6.123032e-17,-1.000000,-1.000000,-6.123032e-17,1080.968,1173.188)"
       xlink:href="#g1063"
       inkscape:tiled-clone-of="#g1063"
       y="0"
       x="0" />
    <use
       id="use3822"
       transform="matrix(-1.000000,0.000000,0.000000,1.000000,989.8073,0.000000)"
       xlink:href="#g1063"
       inkscape:tiled-clone-of="#g1063"
       y="0"
       x="0" />
    <use
       id="use3823"
       transform="matrix(-1.000000,1.224606e-16,-1.224606e-16,-1.000000,989.8073,803.2491)"
       xlink:href="#g1063"
       inkscape:tiled-clone-of="#g1063"
       y="0"
       x="0" />
    <use
       id="use3824"
       transform="matrix(-1.000000,0.000000,0.000000,1.000000,989.8073,184.4396)"
       xlink:href="#g1063"
       inkscape:tiled-clone-of="#g1063"
       y="0"
       x="0" />
    <use
       id="use3825"
       transform="matrix(-1.000000,1.224606e-16,-1.224606e-16,-1.000000,989.8073,987.6887)"
       xlink:href="#g1063"
       inkscape:tiled-clone-of="#g1063"
       y="0"
       x="0" />
    <use
       id="use3826"
       transform="matrix(-1.000000,0.000000,0.000000,1.000000,989.8073,368.8792)"
       xlink:href="#g1063"
       inkscape:tiled-clone-of="#g1063"
       y="0"
       x="0" />
    <use
       id="use3827"
       transform="matrix(-1.000000,1.224606e-16,-1.224606e-16,-1.000000,989.8073,1172.128)"
       xlink:href="#g1063"
       inkscape:tiled-clone-of="#g1063"
       y="0"
       x="0" />
    <use
       id="use3828"
       transform="matrix(-1.000000,0.000000,0.000000,1.000000,989.8073,553.3188)"
       xlink:href="#g1063"
       inkscape:tiled-clone-of="#g1063"
       y="0"
       x="0" />
    <g
       inkscape:tile-cy="332.45968"
       inkscape:tile-cx="251.21448"
       inkscape:tile-h="46.109903"
       inkscape:tile-w="26.279358"
       transform="matrix(0.125000,0.000000,0.000000,0.125000,223.0517,261.7510)"
       id="g1063">
      <path
         transform="matrix(17.12383,0.000000,0.000000,17.12383,-3990.687,-5008.619)"
         d="M 258.04237 330.23944 A 10.976698 12.056373 0 1 1  236.08898,330.23944 A 10.976698 12.056373 0 1 1  258.04237 330.23944 z"
         sodipodi:ry="12.056373"
         sodipodi:rx="10.976698"
         sodipodi:cy="330.23944"
         sodipodi:cx="247.06567"
         id="path2052"
         style="opacity:0.24175824;color:#000000;fill:url(#radialGradient2691);fill-opacity:1.0000000;fill-rule:evenodd;stroke:none;stroke-width:1.0000000pt;stroke-linecap:butt;stroke-linejoin:miter;stroke-miterlimit:4.0000000;stroke-dashoffset:0.0000000;stroke-opacity:1.0000000;marker:none;marker-start:none;marker-mid:none;marker-end:none;visibility:visible;display:block"
         sodipodi:type="arc" />
      <path
         sodipodi:nodetypes="ccccccccccccccccc"
         transform="matrix(1.251777,0.000000,0.000000,1.209723,-28.70254,-79.95270)"
         d="M 237.33027,478.93659 C 215.51694,430.17727 336.92746,336.47885 323.09870,422.90630 C 288.91127,511.28071 226.18389,575.45395 166.82586,647.94089 C 156.39416,660.67990 127.02312,700.41103 137.15202,687.42997 C 205.71636,599.55877 153.36268,645.91896 172.44813,677.78823 C 214.39355,697.95459 265.74614,674.66635 305.57391,658.41917 L 261.67081,721.11930 C 221.21599,737.43262 169.25914,761.68381 126.20299,743.83314 C 97.660607,693.13947 178.14043,624.93818 210.72295,585.24934 C 229.18708,562.75815 242.27685,547.41852 260.54215,524.75933 C 266.73084,517.08190 283.63275,492.89417 278.83529,501.50969 C 270.79397,515.95070 260.70634,529.18319 250.73728,542.36741 C 238.69683,558.29108 296.12821,482.54275 277.10394,488.59362 C 278.69054,476.84656 281.32147,454.42112 264.11607,451.84579 C 256.19838,450.66065 250.69665,452.30779 243.79035,462.58909 C 275.65189,402.01437 285.45923,393.43359 285.05999,410.77149 C 269.15008,433.49319 243.03585,453.82416 237.33027,478.93659 z "
         id="path1061"
         style="fill:#000000;fill-opacity:1.0000000;fill-rule:nonzero;stroke:none;stroke-width:1.0000000pt;stroke-linecap:butt;stroke-linejoin:miter;stroke-opacity:1.0000000" />
      <path
         transform="matrix(8.000000,0.000000,0.000000,8.000000,-1782.188,-2094.008)"
         d="M 232.82401,288.36396 C 231.33771,306.59243 221.62905,324.37944 207.32336,335.65636 L 210.67232,330.87355 C 221.89733,322.02777 228.55264,308.43534 229.31508,293.37525 L 232.82401,288.36396 z "
         id="path1105"
         style="fill:#000000;fill-opacity:1.0000000;fill-rule:nonzero;stroke:none;stroke-width:1.0000000pt;stroke-linecap:butt;stroke-linejoin:miter;stroke-opacity:1.0000000" />
      <path
         transform="matrix(7.996790,-0.226601,0.226601,7.996790,-1849.179,-2038.292)"
         d="M 229.75848,293.52561 C 230.88194,291.94105 231.94984,290.31558 233.12887,288.77191 C 233.53797,288.23628 229.97534,295.84608 234.35174,298.25288 C 239.74375,301.21822 247.71155,294.05053 251.34965,291.08088 C 252.47152,289.99140 253.59339,288.90191 254.71526,287.81243 L 251.32396,292.65570 C 250.19917,293.74936 249.07438,294.84301 247.94959,295.93667 C 235.36624,306.23100 221.26078,305.99863 233.27678,288.50096 L 229.75848,293.52561 z "
         id="path1109"
         style="fill:#000000;fill-opacity:1.0000000;fill-rule:nonzero;stroke:none;stroke-width:1.0000000pt;stroke-linecap:butt;stroke-linejoin:miter;stroke-opacity:1.0000000" />
      <path
         transform="matrix(8.000000,0.000000,0.000000,8.000000,-1784.414,-2094.008)"
         d="M 271.23766,310.15568 C 272.44290,307.06433 274.37642,303.42381 277.91584,303.34419 C 279.82363,304.11807 280.81661,304.58404 282.50081,303.33964 L 280.02649,306.87334 C 278.33958,308.12508 277.35323,307.65303 275.43836,306.88240 C 274.29309,306.90799 271.63963,309.15527 272.26148,308.19320 C 276.21126,302.08249 274.24244,305.00271 273.72450,306.60410 L 271.23766,310.15568 z "
         id="path2029"
         style="fill:#000000;fill-opacity:1.0000000;fill-rule:nonzero;stroke:none;stroke-width:1.0000000pt;stroke-linecap:butt;stroke-linejoin:miter;stroke-opacity:1.0000000" />
      <path
         transform="matrix(8.000000,0.000000,0.000000,8.000000,-1784.414,-2094.008)"
         d="M 241.41989,310.28977 C 248.99948,311.71395 244.52853,322.12751 241.89561,326.24029 C 240.21525,328.95430 238.68218,331.11480 236.29755,333.00728 L 238.74928,329.50584 C 239.73652,328.72453 242.90730,325.21998 239.45686,329.72319 C 242.07992,325.62755 246.56652,315.16366 238.93396,313.84005 L 241.41989,310.28977 z "
         id="path2042"
         style="fill:#000000;fill-opacity:1.0000000;fill-rule:nonzero;stroke:none;stroke-width:1.0000000pt;stroke-linecap:butt;stroke-linejoin:miter;stroke-opacity:1.0000000" />
      <path
         transform="matrix(8.000000,0.000000,0.000000,8.000000,-1784.414,-2094.008)"
         d="M 249.20896,309.29534 C 249.22059,310.74194 250.02156,311.78198 250.87325,312.87505 L 248.39809,316.40995 C 247.54784,315.32272 246.74476,314.28714 246.72184,312.84732 L 249.20896,309.29534 z "
         id="path2044"
         style="fill:#000000;fill-opacity:1.0000000;fill-rule:nonzero;stroke:none;stroke-width:1.0000000pt;stroke-linecap:butt;stroke-linejoin:miter;stroke-opacity:1.0000000" />
      <path
         transform="matrix(8.000000,0.000000,0.000000,8.000000,-1784.414,-2094.008)"
         d="M 262.97080,348.48069 C 268.36842,352.82528 267.39469,353.99120 263.01779,359.72699 C 261.89764,360.62125 260.53866,360.87519 259.18090,361.17290 L 261.65009,357.64654 C 263.00890,357.35273 264.36558,357.09986 265.48510,356.20330 C 263.37621,359.85395 265.99375,355.73514 260.48396,352.03227 L 262.97080,348.48069 z "
         id="path2046"
         style="fill:#000000;fill-opacity:1.0000000;fill-rule:nonzero;stroke:none;stroke-width:1.0000000pt;stroke-linecap:butt;stroke-linejoin:miter;stroke-opacity:1.0000000" />
      <path
         transform="matrix(8.000000,0.000000,0.000000,8.000000,-1784.414,-2094.008)"
         d="M 248.63052,318.37433 C 249.19834,318.49203 249.56480,318.89143 250.00326,319.23224 L 248.76256,321.00413 C 248.32301,320.66351 247.95738,320.26305 247.38637,320.15116 L 248.63052,318.37433 z "
         id="path2048"
         style="fill:#000000;fill-opacity:1.0000000;fill-rule:nonzero;stroke:none;stroke-width:1.0000000pt;stroke-linecap:butt;stroke-linejoin:miter;stroke-opacity:1.0000000" />
      <path
         transform="matrix(8.000000,0.000000,0.000000,8.000000,-1784.414,-2094.008)"
         d="M 232.79516,310.85982 C 233.31237,311.78942 234.19564,312.37489 235.03312,312.98971 L 233.79448,314.75868 C 232.95753,314.14486 232.07536,313.55985 231.55126,312.63631 L 232.79516,310.85982 z "
         id="path2051"
         style="fill:#000000;fill-opacity:1.0000000;fill-rule:nonzero;stroke:none;stroke-width:1.0000000pt;stroke-linecap:butt;stroke-linejoin:miter;stroke-opacity:1.0000000" />
      <path
         transform="matrix(6.357787,-2.562520,2.562520,6.357787,-2272.765,-866.8463)"
         d="M 250.77273,346.04045 C 252.75388,344.34660 256.41401,341.59550 254.85242,345.96162 C 254.19501,347.89316 252.30828,350.71795 253.59031,352.62785 C 256.62240,352.10995 251.76956,354.46922 253.80403,353.01943 L 256.16450,351.65661 C 254.69627,352.70444 253.06311,354.32243 251.20844,354.00302 C 249.93355,352.08603 251.83294,349.26332 252.48903,347.32612 C 252.70706,346.70987 252.96243,346.07832 252.94705,345.41023 C 252.94037,345.11976 251.98521,345.06693 252.23140,344.91262 C 256.26795,342.38257 253.95819,343.84349 253.16227,344.66084 L 250.77273,346.04045 z "
         id="path2729"
         style="fill:#000000;fill-opacity:1.0000000;fill-rule:nonzero;stroke:none;stroke-width:1.0000000pt;stroke-linecap:butt;stroke-linejoin:miter;stroke-opacity:1.0000000" />
      <path
         transform="matrix(6.357787,-2.562520,2.562520,6.357787,-2272.765,-866.8463)"
         d="M 249.35056,347.76750 C 249.80927,348.27738 250.34800,348.68512 250.90914,349.07391 L 249.22689,350.04516 C 248.66423,349.65650 248.12739,349.24569 247.65991,348.74360 L 249.35056,347.76750 z "
         id="path2744"
         style="fill:#000000;fill-opacity:1.0000000;fill-rule:nonzero;stroke:none;stroke-width:1.0000000pt;stroke-linecap:butt;stroke-linejoin:miter;stroke-opacity:1.0000000" />
      <path
         transform="matrix(6.357787,-2.562520,2.562520,6.357787,-2272.765,-866.8463)"
         d="M 255.85014,348.28581 C 256.49350,348.58474 256.94775,349.24045 257.48906,349.70980 L 255.80919,350.67968 C 255.26743,350.20973 254.80915,349.55056 254.15948,349.26191 L 255.85014,348.28581 z "
         id="path2745"
         style="fill:#000000;fill-opacity:1.0000000;fill-rule:nonzero;stroke:none;stroke-width:1.0000000pt;stroke-linecap:butt;stroke-linejoin:miter;stroke-opacity:1.0000000" />
      <path
         transform="matrix(8.000000,0.000000,0.000000,8.000000,-1779.399,-2065.276)"
         d="M 270.69015,323.07282 C 276.07440,322.37975 274.08341,327.32030 271.51036,329.74567 C 270.08183,330.87221 268.49887,331.82799 266.72573,332.25505 L 268.39169,331.29321 C 271.06747,330.65688 267.96815,331.70596 269.86021,330.69838 C 272.44207,328.26519 274.38739,323.31586 269.00279,324.04702 L 270.69015,323.07282 z "
         id="path2759"
         style="fill:#000000;fill-opacity:1.0000000;fill-rule:nonzero;stroke:none;stroke-width:1.0000000pt;stroke-linecap:butt;stroke-linejoin:miter;stroke-opacity:1.0000000" />
      <path
         transform="matrix(8.000000,0.000000,0.000000,8.000000,-1779.399,-2065.276)"
         d="M 275.97148,324.13080 C 276.40281,326.52728 274.75377,328.23604 272.96345,329.55798 C 271.86223,330.31189 273.23462,329.37018 272.30654,330.01290 L 271.01947,330.75599 C 271.95585,330.10855 270.57364,331.05569 271.68267,330.29743 C 273.46121,328.98590 275.14284,327.26797 274.67161,324.88128 L 275.97148,324.13080 z "
         id="path3832"
         style="fill:#000000;fill-opacity:1.0000000;fill-rule:nonzero;stroke:none;stroke-width:1.0000000pt;stroke-linecap:butt;stroke-linejoin:miter;stroke-opacity:1.0000000" />
      <path
         transform="matrix(8.000000,0.000000,0.000000,8.000000,-1779.399,-2065.276)"
         d="M 278.05247,324.75594 C 278.06920,325.95465 277.15474,326.83897 276.39036,327.66191 L 274.81930,328.56896 C 275.57992,327.75110 276.49458,326.86683 276.46449,325.67276 L 278.05247,324.75594 z "
         id="path3851"
         style="fill:#000000;fill-opacity:1.0000000;fill-rule:nonzero;stroke:none;stroke-width:1.0000000pt;stroke-linecap:butt;stroke-linejoin:miter;stroke-opacity:1.0000000" />
      <path
         transform="matrix(7.932634,-1.036007,1.036007,7.932634,-2106.783,-1799.649)"
         d="M 264.53946,323.07730 C 264.19365,324.51943 263.68184,325.86696 262.96252,327.16588 C 262.42385,328.13579 261.75395,329.01907 261.08064,329.89701 L 260.51189,329.79673 C 261.20319,328.92186 261.91155,328.05453 262.45599,327.07656 C 263.16005,325.78626 263.68848,324.42666 263.89017,322.96281 L 264.53946,323.07730 z "
         id="path4496"
         style="fill:#000000;fill-opacity:1.0000000;fill-rule:nonzero;stroke:none;stroke-width:1.0000000pt;stroke-linecap:butt;stroke-linejoin:miter;stroke-opacity:1.0000000" />
      <path
         transform="matrix(7.932634,-1.036007,1.036007,7.932634,-2106.783,-1799.649)"
         d="M 265.38178,323.24812 C 265.18200,323.50005 265.07481,323.80906 264.93437,324.09533 C 264.71587,324.48215 264.49391,324.86312 264.30656,325.26665 C 264.13682,325.60479 264.00097,325.95776 263.84786,326.30274 C 263.73194,326.54912 263.63361,326.79272 263.47349,327.01517 C 263.33243,327.21765 263.19049,327.41796 263.05984,327.62724 C 262.91276,327.81826 262.79432,328.03014 262.66286,328.23139 C 262.53349,328.38844 262.44617,328.57290 262.33357,328.74176 C 262.26462,328.90677 262.16517,329.04358 262.04639,329.17526 C 261.92567,329.33426 261.77102,329.45747 261.62682,329.59313 C 261.46553,329.78416 261.31676,329.96905 261.18717,330.18602 C 261.12600,330.29360 261.07047,330.40400 261.00922,330.51154 L 260.37398,330.39953 C 260.43319,330.29049 260.49024,330.18032 260.55523,330.07459 C 260.68043,329.85570 260.82238,329.66838 260.98712,329.48033 C 261.13001,329.34464 261.28325,329.22070 261.40202,329.06164 C 261.52648,328.93407 261.61738,328.79078 261.69052,328.62837 C 261.80553,328.46054 261.89184,328.27525 262.02197,328.11838 C 262.15826,327.92012 262.27292,327.70685 262.41796,327.51406 C 262.55242,327.30672 262.69449,327.10538 262.83627,326.90281 C 262.99410,326.68020 263.10002,326.43907 263.20841,326.18999 C 263.36733,325.84553 263.52130,325.49918 263.68647,325.15731 C 263.87397,324.75504 264.08021,324.36543 264.30891,323.98504 C 264.44841,323.70083 264.55450,323.39820 264.72994,323.13319 L 265.38178,323.24812 z "
         id="path4497"
         style="fill:#000000;fill-opacity:1.0000000;fill-rule:nonzero;stroke:none;stroke-width:1.0000000pt;stroke-linecap:butt;stroke-linejoin:miter;stroke-opacity:1.0000000" />
      <path
         transform="matrix(8.000000,0.000000,0.000000,8.000000,-1784.414,-2094.008)"
         d="M 263.95419,331.06501 C 263.93084,331.30824 264.12045,331.44157 264.29160,331.57882 C 264.42672,331.74245 264.60677,331.85663 264.77860,331.97760 C 264.93242,332.13072 265.10504,332.26336 265.25799,332.41684 C 265.38665,332.56340 265.52797,332.69167 265.69229,332.79522 C 265.85205,332.89794 266.02500,332.97683 266.18951,333.07254 C 266.33593,333.17828 266.49248,333.27003 266.64039,333.37344 C 266.81807,333.50178 266.97485,333.64984 267.16306,333.76356 C 267.33320,333.88810 267.52487,333.97657 267.70859,334.07774 C 267.87771,334.17173 268.01907,334.29412 268.15984,334.42472 C 268.31696,334.58179 268.47740,334.73393 268.65348,334.86916 C 268.75973,334.97180 268.85846,335.08051 268.96912,335.17847 C 269.12514,335.34775 269.31954,335.47717 269.50247,335.61324 C 269.59435,335.72614 269.70862,335.81580 269.82003,335.90790 L 269.40029,336.40813 C 269.28984,336.31508 269.17698,336.22354 269.08438,336.11150 C 268.90413,335.97188 268.70898,335.84547 268.54856,335.67968 C 268.43797,335.58193 268.33748,335.47464 268.23231,335.37109 C 268.05943,335.23199 267.90458,335.07387 267.74218,334.92247 C 267.59769,334.79737 267.45778,334.67143 267.29160,334.57469 C 267.10619,334.47651 266.91537,334.38571 266.74351,334.26356 C 266.55843,334.14550 266.40038,333.99877 266.22097,333.87328 C 266.07248,333.77027 265.91620,333.67938 265.77056,333.57182 C 265.60719,333.47293 265.43029,333.40285 265.27366,333.29411 C 265.10782,333.19085 264.96601,333.06550 264.84115,332.91361 C 264.68695,332.76151 264.51396,332.62954 264.35949,332.47708 C 264.19069,332.35150 264.00520,332.24378 263.87325,332.07740 C 263.70933,331.93830 263.52025,331.80931 263.52852,331.57230 L 263.95419,331.06501 z "
         id="path4500"
         style="fill:#000000;fill-opacity:1.0000000;fill-rule:nonzero;stroke:none;stroke-width:1.0000000pt;stroke-linecap:butt;stroke-linejoin:miter;stroke-opacity:1.0000000" />
      <path
         transform="matrix(10.99100,0.000000,0.000000,9.771365,-2618.668,-2670.609)"
         d="M 282.66814,326.71452 C 281.58081,328.00750 280.50585,329.31101 279.40614,330.59348 C 278.40335,331.76294 281.38238,328.22970 282.37738,327.05360 C 283.18573,326.09811 280.80205,329.04432 280.34015,330.20752 C 279.51179,332.29359 280.92686,333.71503 282.57948,334.75370 C 283.02145,334.93400 283.46342,335.11430 283.90539,335.29460 L 281.01657,338.73736 C 280.56346,338.57034 280.11035,338.40332 279.65723,338.23629 C 271.93482,333.85037 288.06675,321.32265 279.50478,330.48446 L 282.66814,326.71452 z "
         id="path5310"
         style="fill:#000000;fill-opacity:1.0000000;fill-rule:nonzero;stroke:none;stroke-width:1.0000000pt;stroke-linecap:butt;stroke-linejoin:miter;stroke-opacity:1.0000000" />
      <path
         transform="matrix(8.000000,0.000000,0.000000,8.000000,-1784.414,-2094.008)"
         d="M 286.14446,339.18422 C 284.51017,340.34574 283.84152,342.29775 283.20098,344.11763 L 283.20098,344.11763 C 283.84152,342.29775 284.51017,340.34574 286.14446,339.18422 z "
         id="path5318"
         style="fill:#000000;fill-opacity:1.0000000;fill-rule:nonzero;stroke:none;stroke-width:1.0000000pt;stroke-linecap:butt;stroke-linejoin:miter;stroke-opacity:1.0000000" />
      <path
         transform="matrix(8.000000,0.000000,0.000000,8.000000,-1784.414,-2094.008)"
         d="M 275.86655,325.35534 C 276.13857,325.83591 276.64900,326.08107 277.04828,326.45028 L 275.98920,327.33895 C 275.58634,326.97344 275.08322,326.72536 274.79038,326.25835 L 275.86655,325.35534 z "
         id="path5338"
         style="fill:#000000;fill-opacity:1.0000000;fill-rule:nonzero;stroke:none;stroke-width:1.0000000pt;stroke-linecap:butt;stroke-linejoin:miter;stroke-opacity:1.0000000" />
      <path
         transform="matrix(8.000000,0.000000,0.000000,8.000000,-1784.414,-2094.008)"
         d="M 277.04639,323.59108 C 277.16561,323.98936 277.51478,324.22008 277.82517,324.46764 C 277.90978,324.49807 277.98508,324.54768 278.06512,324.58774 L 277.08319,325.41168 C 277.00243,325.37230 276.92603,325.32361 276.84091,325.29354 C 276.53651,325.04464 276.19936,324.80692 276.04709,324.42959 L 277.04639,323.59108 z "
         id="path5364"
         style="fill:#000000;fill-opacity:1.0000000;fill-rule:nonzero;stroke:none;stroke-width:1.0000000pt;stroke-linecap:butt;stroke-linejoin:miter;stroke-opacity:1.0000000" />
      <path
         transform="matrix(8.000000,0.000000,0.000000,8.000000,-1783.764,-2096.608)"
         d="M 278.27395,325.70309 C 278.63691,326.04532 278.95102,326.42832 279.31867,326.76670 L 278.33737,327.59010 C 277.97545,327.24485 277.67423,326.84556 277.27549,326.54090 L 278.27395,325.70309 z "
         id="path5367"
         style="fill:#000000;fill-opacity:1.0000000;fill-rule:nonzero;stroke:none;stroke-width:1.0000000pt;stroke-linecap:butt;stroke-linejoin:miter;stroke-opacity:1.0000000" />
      <path
         transform="matrix(8.709413,0.408657,-0.408657,8.709413,-1848.330,-2457.580)"
         d="M 286.28605,333.84937 C 287.78213,334.13118 287.47617,335.56467 286.95807,336.61806 C 286.01205,338.27526 284.66166,339.64013 283.37645,341.03163 C 283.09865,341.33241 282.38448,341.89589 282.58165,342.37878 C 282.70137,342.49694 282.63212,342.44977 282.79081,342.51817 L 281.79551,343.35332 C 281.63059,343.29153 281.69993,343.33891 281.58478,343.21525 C 281.50080,342.61297 282.33504,341.98091 282.69348,341.60471 C 283.98267,340.25166 285.33216,338.90431 286.21779,337.23923 C 286.65709,336.22306 286.75010,334.61553 285.20815,334.75384 L 286.28605,333.84937 z "
         id="path1282"
         style="fill:#000000;fill-opacity:1.0000000;fill-rule:nonzero;stroke:none;stroke-width:1.0000000pt;stroke-linecap:butt;stroke-linejoin:miter;stroke-opacity:1.0000000" />
      <path
         sodipodi:nodetypes="cccccccccccc"
         transform="matrix(8.000000,0.000000,0.000000,8.000000,-1772.005,-2101.904)"
         d="M 283.23528,340.98274 C 284.88478,339.38707 286.92810,337.32418 289.37003,337.20930 C 291.35335,337.84260 287.55652,341.15392 287.20828,341.42216 L 288.05752,340.57291 C 288.53734,340.21002 288.09528,340.63909 288.19495,340.51979 C 288.59824,340.03710 289.04609,339.34684 288.97034,338.68236 C 288.93531,338.37505 288.77241,338.19522 288.49153,338.08780 C 287.12328,337.96053 285.76350,338.95657 284.72095,339.73184 C 284.35715,340.00238 284.00611,340.28928 283.66469,340.58746 C 283.35127,340.86119 283.19069,341.03291 283.31634,340.90540 C 283.64462,340.57227 283.97653,340.24274 284.30662,339.91140 L 283.23528,340.98274 z "
         id="path1313"
         style="fill:#000000;fill-opacity:1.0000000;fill-rule:nonzero;stroke:none;stroke-width:1.0000000pt;stroke-linecap:butt;stroke-linejoin:miter;stroke-opacity:1.0000000" />
      <path
         transform="matrix(8.719323,0.415301,0.415300,8.239775,-2142.901,-2273.654)"
         d="M 263.77743,350.74756 C 274.22575,346.57199 275.91043,343.30404 279.21133,338.99310 C 280.85100,335.70687 293.24058,321.79905 287.32632,318.11139 C 282.98339,317.28829 278.88436,320.66410 275.77334,323.23530 L 280.00651,319.00214 C 283.32281,316.23286 287.58043,312.65221 292.21927,313.21845 C 298.07280,316.59517 284.75542,331.83531 283.22050,334.98393 C 276.76278,343.49991 268.74314,351.65015 258.69902,355.82598 L 263.77743,350.74756 z "
         id="path1298"
         style="fill:#000000;fill-opacity:1.0000000;fill-rule:nonzero;stroke:none;stroke-width:1.0000000pt;stroke-linecap:butt;stroke-linejoin:miter;stroke-opacity:1.0000000" />
      <path
         transform="matrix(8.000000,0.000000,0.000000,8.000000,-1755.561,-2154.337)"
         d="M 319.68101,314.32029 C 315.12375,319.53377 319.62462,313.92844 316.74200,309.84433 L 319.70102,306.88531 C 322.85228,311.39711 320.26006,314.28619 316.54178,317.45952 L 319.68101,314.32029 z "
         id="path1318"
         style="fill:#000000;fill-opacity:1.0000000;fill-rule:nonzero;stroke:none;stroke-width:1.0000000pt;stroke-linecap:butt;stroke-linejoin:miter;stroke-opacity:1.0000000" />
      <path
         transform="matrix(8.000000,0.000000,0.000000,8.000000,-1784.414,-2094.008)"
         d="M 314.66831,307.19767 C 312.75892,309.44978 310.57750,311.40801 308.18434,313.11689 L 310.20638,311.09485 C 315.58216,307.24721 310.56346,310.91813 312.46458,309.40140 L 314.66831,307.19767 z "
         id="path1319"
         style="fill:#000000;fill-opacity:1.0000000;fill-rule:nonzero;stroke:none;stroke-width:1.0000000pt;stroke-linecap:butt;stroke-linejoin:miter;stroke-opacity:1.0000000" />
      <path
         transform="matrix(8.000000,-4.493841e-7,4.493841e-7,8.000000,-1819.724,-2090.435)"
         d="M 312.86995,310.61891 C 313.29101,310.78042 313.63199,311.13706 313.96127,311.44635 L 312.86628,312.54134 C 312.53005,312.23696 312.19192,311.86557 311.75820,311.73065 L 312.86995,310.61891 z "
         id="path1322"
         style="fill:#000000;fill-opacity:1.0000000;fill-rule:nonzero;stroke:none;stroke-width:1.0000000pt;stroke-linecap:butt;stroke-linejoin:miter;stroke-opacity:1.0000000" />
      <path
         transform="matrix(8.000000,0.000000,0.000000,8.000000,-1784.414,-2097.122)"
         d="M 295.40343,344.88078 C 293.91729,347.25949 295.25202,341.53159 298.20394,345.48617 C 300.19175,346.27068 301.88086,344.70177 303.28368,343.42006 L 301.86049,344.84324 C 300.44869,346.13190 298.74434,347.70335 296.74300,346.94712 C 296.45616,346.56956 295.97991,345.41950 295.45510,345.35719 C 295.20394,345.32737 294.58584,345.83656 294.75415,345.64776 C 295.15747,345.19532 296.46675,343.93273 296.02026,344.34264 C 295.36437,344.94482 294.68988,345.83205 293.90264,346.38158 L 295.40343,344.88078 z "
         id="path1332"
         style="fill:#000000;fill-opacity:1.0000000;fill-rule:nonzero;stroke:none;stroke-width:1.0000000pt;stroke-linecap:butt;stroke-linejoin:miter;stroke-opacity:1.0000000" />
      <path
         transform="matrix(8.000000,0.000000,0.000000,8.000000,-1776.629,-2146.946)"
         d="M 309.41441,353.10919 C 309.14447,351.33838 310.43369,349.68062 312.16044,349.45009 C 313.44257,349.65021 314.34602,349.37707 315.39416,348.66892 L 314.58644,350.06793 C 313.53191,350.79198 312.63441,351.05979 311.33880,350.87322 C 310.74388,350.95522 309.41030,352.13010 309.68957,351.59844 C 310.91728,349.26117 309.98865,350.85349 310.25403,351.65492 L 309.41441,353.10919 z "
         id="path1325"
         style="fill:#000000;fill-opacity:1.0000000;fill-rule:nonzero;stroke:none;stroke-width:1.0000000pt;stroke-linecap:butt;stroke-linejoin:miter;stroke-opacity:1.0000000" />
      <path
         transform="matrix(8.000000,0.000000,0.000000,8.000000,-1784.414,-2094.008)"
         d="M 313.10287,346.15894 C 312.48085,344.72530 310.55307,348.03828 311.68019,346.10170 C 311.42171,346.62757 311.44883,347.13692 311.63377,347.67474 L 311.03355,348.71435 C 310.85514,348.16620 310.83234,347.64734 311.09512,347.11506 C 311.34848,346.67436 312.75604,343.81901 313.77870,344.98838 L 313.10287,346.15894 z "
         id="path1340"
         style="fill:#000000;fill-opacity:1.0000000;fill-rule:nonzero;stroke:none;stroke-width:1.0000000pt;stroke-linecap:butt;stroke-linejoin:miter;stroke-opacity:1.0000000" />
      <path
         transform="matrix(8.000000,0.000000,0.000000,8.000000,-1784.414,-2094.008)"
         d="M 312.01054,347.65721 C 313.08169,345.58347 312.42870,346.95420 313.57532,347.46344 L 312.95057,348.54554 C 311.81317,348.05698 311.99326,347.41638 312.68806,346.48372 L 312.01054,347.65721 z "
         id="path1343"
         style="fill:#000000;fill-opacity:1.0000000;fill-rule:nonzero;stroke:none;stroke-width:1.0000000pt;stroke-linecap:butt;stroke-linejoin:miter;stroke-opacity:1.0000000" />
    </g>
  </g>
</svg>
