<?xml version="1.0" encoding="UTF-8" standalone="no"?>
<!-- Created with Inkscape (http://www.inkscape.org/) -->
<svg
   xmlns:dc="http://purl.org/dc/elements/1.1/"
   xmlns:cc="http://creativecommons.org/ns#"
   xmlns:rdf="http://www.w3.org/1999/02/22-rdf-syntax-ns#"
   xmlns:svg="http://www.w3.org/2000/svg"
   xmlns="http://www.w3.org/2000/svg"
   xmlns:sodipodi="http://sodipodi.sourceforge.net/DTD/sodipodi-0.dtd"
   xmlns:inkscape="http://www.inkscape.org/namespaces/inkscape"
   width="744.09448"
   height="1052.3622"
   id="svg2"
   sodipodi:version="0.32"
   inkscape:version="0.46dev+devel"
   sodipodi:docbase="C:\Documents and Settings\jf\Mes documents"
   sodipodi:docname="live-path-effects-skeletal.svg"
   version="1.0"
   inkscape:output_extension="org.inkscape.output.svg.inkscape">
  <defs
     id="defs4">
    <inkscape:path-effect
       effect="skeletal"
       id="path-effect2461"
       origin="0.1,0.2"
       pattern="M 119.92529,-0.41956101 C 119.92529,1.659909 120.58678,2.431279 121.32538,3.765079 C 120.76714,6.123869 120.41028,8.500889 122.37545,11.088229 C 121.671,13.006199 122.5692,14.924159 123.95054,16.842119 C 123.71907,18.682279 124.92357,20.284009 126.05068,21.898579 C 126.25318,23.990909 127.36543,26.083239 129.20088,28.175559 C 112.57483,22.944749 111.46952,10.168439 108.8996,7.775379 C 107.5348,6.504509 106.05778,6.654809 105.00417,5.064329 C 103.95056,3.473849 103.32038,0.14257899 102.24918,-0.41974101 C 103.32038,-0.98206101 103.95056,-4.313331 105.00417,-5.903821 C 106.05778,-7.494301 107.5348,-7.343991 108.8996,-8.614861 C 111.46952,-11.007921 112.57483,-23.784231 129.20088,-29.015041 C 127.36543,-26.922721 126.25318,-24.830391 126.05068,-22.738061 C 124.92357,-21.123491 123.71907,-19.521771 123.95054,-17.681611 C 122.5692,-15.763641 121.671,-13.845681 122.37545,-11.927711 C 120.41028,-9.340371 120.76714,-6.963351 121.32538,-4.604571 C 120.58678,-3.270761 119.92529,-2.499391 119.92529,-0.41992101 M 102.24917,-9.399491 C 101.73918,-8.349411 101.40752,-7.043061 101.33869,-5.702881 M 97.931762,-12.373781 C 97.196772,-10.747321 96.683652,-9.149741 96.517362,-7.611401 M 40.796126,-31.951641 C 36.393294,-26.573831 34.489541,-20.703561 33.158143,-15.440541 M 92.314832,-9.032131 C 92.607472,-11.125331 93.016652,-13.311561 94.188102,-15.314231 M 69.466596,-14.799961 C 70.526116,-19.749901 72.232996,-25.173971 76.035906,-29.701501 M 76.247336,-13.550161 C 77.232456,-17.658201 78.546166,-22.280971 81.496132,-26.588961 M 81.688812,-12.160461 C 82.459442,-15.577031 83.798922,-19.288461 86.595282,-22.724941 M 87.619382,-10.586331 C 88.269962,-13.778381 89.079762,-17.038011 90.529502,-19.434311 M 39.372996,-16.390721 C 40.663096,-22.091891 42.448976,-28.160771 46.526886,-32.647581 M 44.719896,-16.786451 C 46.020076,-21.938221 48.120906,-27.667231 52.729216,-33.084921 M 51.186366,-16.832791 C 52.460916,-21.977761 54.401586,-27.698631 58.580646,-33.111011 M 57.755366,-16.454151 C 59.035266,-21.645811 60.894386,-27.451691 64.905486,-32.894161 M 70.743036,-31.820641 C 68.781736,-29.846411 65.654026,-23.126311 64.075116,-15.756401 M 32.943271,13.696999 C 31.02686,5.738139 30.600382,-0.45243101 26.863458,-0.37462101 C 30.736989,-0.29396101 30.793459,-6.970991 33.158143,-15.440541 C 32.058705,-10.280411 31.563422,-4.759601 33.107444,-0.37462101 C 31.648043,3.659839 31.768408,8.716679 32.943271,13.696999 z M 101.2948,4.002579 C 101.17471,1.399589 101.32632,-0.45999101 98.464912,-0.37462101 C 101.67522,-0.27884101 100.95543,-2.624431 101.33869,-5.702881 C 101.31622,-3.566861 101.64612,-1.440751 102.07417,-0.37462101 L 102.07417,-0.37461101 C 101.70843,0.53633899 101.30509,2.215759 101.2948,4.002579 z M 96.421272,5.945939 C 95.961022,1.675379 97.120182,-0.47020101 92.570952,-0.37462101 C 97.432252,-0.27249101 95.639582,-2.793851 96.517362,-7.611401 C 96.251492,-4.242461 97.074992,-1.421851 98.464912,-0.37462101 C 97.205982,0.57391899 96.293052,3.033689 96.421272,5.945939 z M 92.199792,7.369879 C 91.682072,3.112599 91.561712,-0.45910101 87.418402,-0.37462101 C 91.855932,-0.28415101 91.596802,-4.354961 92.314832,-9.032131 C 91.936652,-5.782151 91.961722,-2.262891 92.570952,-0.37462101 C 92.017822,1.339789 91.874662,4.370259 92.199792,7.369879 z M 69.316276,13.139069 C 67.797866,5.660429 67.642976,-0.45234101 63.912806,-0.37462101 C 67.774536,-0.29415101 67.758886,-6.940511 69.466596,-14.799961 C 68.459376,-9.690321 68.383356,-4.346991 70.151986,-0.37462101 C 68.463476,3.297119 68.413876,8.256599 69.316276,13.139069 z M 76.078836,11.926069 C 74.460446,4.871139 74.036686,-0.45624101 70.151986,-0.37462101 C 74.171726,-0.29017101 74.285226,-6.166821 76.247336,-13.550161 C 75.280136,-8.280741 74.927876,-2.963871 76.515186,-0.37462101 C 75.005646,1.958549 75.063016,6.925809 76.078836,11.926069 z M 81.510842,10.533629 C 80.232116,4.381079 80.563616,-0.45735101 76.515186,-0.37462101 C 80.723636,-0.28862101 80.257296,-5.632921 81.688812,-12.160461 C 80.480436,-7.730861 80.156206,-3.060491 81.828332,-0.37462101 C 80.253876,2.021669 80.503246,6.293799 81.510842,10.533629 z M 87.231632,9.011219 C 86.277232,3.962159 85.596432,-0.45378101 81.828332,-0.37462101 C 85.721262,-0.29283101 86.645572,-5.247951 87.619382,-10.586331 C 86.643642,-6.535971 86.369042,-2.355891 87.418402,-0.37462101 C 86.435402,1.337139 86.488032,5.129359 87.231632,9.011219 z M 39.188486,14.663929 C 37.426416,6.563309 36.714489,-0.45040101 33.107444,-0.37462101 C 36.841626,-0.29617101 37.280464,-7.861881 39.372996,-16.390721 C 38.458246,-11.472261 38.047626,-5.894711 39.116846,-0.37462101 C 38.108106,4.729069 38.236876,9.909499 39.188486,14.663929 z M 44.509636,15.084679 C 42.430096,6.289929 42.889186,-0.45620101 39.116846,-0.37462101 C 43.005546,-0.29052101 42.225876,-7.554121 44.719896,-16.786451 C 43.333526,-11.095791 42.850856,-4.991741 45.126236,-0.37462101 C 42.961866,3.900459 43.131256,9.595039 44.509636,15.084679 z M 50.990786,15.148389 C 48.912506,6.307419 49.021366,-0.45645101 45.126236,-0.37462101 C 49.135236,-0.29039101 48.729696,-7.576121 51.186366,-16.832791 C 49.925426,-11.117121 49.450086,-4.984491 51.399926,-0.37462101 C 49.545316,3.893529 49.721436,9.637169 50.990786,15.148389 z M 57.565346,14.782989 C 55.531406,6.152689 55.300196,-0.45545101 51.399926,-0.37462101 C 55.418466,-0.29134101 55.350966,-7.413051 57.755366,-16.454151 C 56.576046,-10.870761 56.066836,-4.924771 57.673626,-0.37462101 C 56.143836,3.842269 56.352086,9.409209 57.565346,14.782989 z M 63.897286,14.082869 C 61.995916,5.914449 61.453026,-0.45402101 57.673626,-0.37462101 C 61.576106,-0.29263101 61.875306,-7.194241 64.075116,-15.756401 C 63.069866,-10.454371 62.668056,-4.819531 63.912806,-0.37462101 C 62.730386,3.735449 62.890676,9.007129 63.897286,14.082869 z M 101.2948,4.002579 C 101.2854,5.635799 101.62236,7.359649 102.24917,8.650249 M 96.421272,5.945939 C 96.500192,7.738359 97.047242,9.667199 97.931762,11.624549 M 94.188102,14.564989 C 92.844012,12.267189 92.486012,9.723619 92.199792,7.369879 M 90.529502,18.685079 C 88.532242,15.921769 87.858722,12.328759 87.231632,9.011219 M 86.595282,21.975709 C 83.596552,18.186189 82.259812,14.137229 81.510842,10.533629 M 76.078836,11.926069 C 77.283916,17.857939 79.761566,23.856219 81.496132,25.839729 M 76.035906,28.952269 C 72.027436,24.064879 70.360566,18.282469 69.316276,13.139069 M 63.897286,14.082869 C 65.423906,21.780689 68.711106,29.026089 70.743036,31.071409 M 64.905486,32.144929 C 60.689146,26.315529 58.832476,20.159629 57.565346,14.782989 M 58.580646,32.361779 C 54.188676,26.567379 52.244036,20.479709 50.990786,15.148389 M 52.729216,32.335679 C 47.874606,26.521609 45.773926,20.431609 44.509636,15.084679 M 46.526886,31.898339 C 42.242406,27.064939 40.476646,20.585919 39.188486,14.663929 M 32.943271,13.696999 C 34.257898,19.156649 36.145459,25.406929 40.796126,31.202409 M 120.27531,-19.250851 C 122.72547,-21.866261 126.05068,-22.738061 126.05068,-22.738061 M 116.60008,-13.845671 C 119.57527,-16.461081 123.95054,-17.681611 123.95054,-17.681611 M 113.7999,-7.045611 C 117.82516,-11.578991 122.37545,-11.927711 122.37545,-11.927711 M 111.69977,-2.512241 C 116.7751,-4.604571 121.32538,-4.604571 121.32538,-4.604571 M 120.27531,18.411369 C 122.72547,21.026779 126.05068,21.898579 126.05068,21.898579 M 116.60008,13.006189 C 119.57527,15.621599 123.95054,16.842119 123.95054,16.842119 M 113.7999,6.206129 C 117.82516,10.739509 122.37545,11.088229 122.37545,11.088229 M 111.69977,1.672759 C 116.7751,3.765079 121.32538,3.765079 121.32538,3.765079 M 19.293941,-10.620001 C 19.293941,-10.186891 18.98032,-9.835381 18.593898,-9.835381 C 18.207472,-9.835381 17.893856,-10.186891 17.893856,-10.620001 C 17.893856,-11.053121 18.207472,-11.404621 18.593898,-11.404621 C 18.98032,-11.404621 19.293941,-11.053121 19.293941,-10.620001 z M 25.856859,27.564939 C 30.582156,27.477759 25.856859,6.205779 25.856859,-0.59428101 C 25.856859,-7.394341 27.795183,-22.180491 33.032312,-28.927861 C 38.358126,-35.789491 -1.283572,-12.994371 1.617831,4.810899 C 4.855537,6.641689 9.755844,7.600669 13.693591,9.082729 C 10.01836,9.344269 5.730588,8.210929 2.667892,7.426299 C 4.418006,11.087879 10.543393,21.200789 25.856859,27.564939 z M 21.219074,-11.796931 C 21.219074,-10.473531 20.297813,-9.399471 19.162695,-9.399471 C 18.027572,-9.399471 17.106311,-10.473531 17.106311,-11.796931 C 17.106311,-13.120321 18.027572,-14.194381 19.162695,-14.194381 C 20.297813,-14.194381 21.219074,-13.120321 21.219074,-11.796931 z M 19.293941,-10.620001 C 19.293941,-10.186891 18.98032,-9.835381 18.593898,-9.835381 C 18.207472,-9.835381 17.893856,-10.186891 17.893856,-10.620001 C 17.893856,-11.053121 18.207472,-11.404621 18.593898,-11.404621 C 18.98032,-11.404621 19.293941,-11.053121 19.293941,-10.620001 z"
       copytype="single_stretched" />
    <marker
       inkscape:stockid="Arrow1Mend"
       orient="auto"
       refY="0.0"
       refX="0.0"
       id="Arrow1Mend"
       style="overflow:visible;">
      <path
         id="path5779"
         d="M 0.0,0.0 L 5.0,-5.0 L -12.5,0.0 L 5.0,5.0 L 0.0,0.0 z "
         style="fill-rule:evenodd;stroke:#000000;stroke-width:1.0pt;marker-start:none;"
         transform="scale(0.4) rotate(180) translate(10,0)" />
    </marker>
    <marker
       inkscape:stockid="Arrow1Mstart"
       orient="auto"
       refY="0.0"
       refX="0.0"
       id="Arrow1Mstart"
       style="overflow:visible">
      <path
         id="path5782"
         d="M 0.0,0.0 L 5.0,-5.0 L -12.5,0.0 L 5.0,5.0 L 0.0,0.0 z "
         style="fill-rule:evenodd;stroke:#000000;stroke-width:1.0pt;marker-start:none"
         transform="scale(0.4) translate(10,0)" />
    </marker>
    <marker
       inkscape:stockid="Arrow1Lend"
       orient="auto"
       refY="0.0"
       refX="0.0"
       id="Arrow1Lend"
       style="overflow:visible;">
      <path
         id="path17355"
         d="M 0.0,0.0 L 5.0,-5.0 L -12.5,0.0 L 5.0,5.0 L 0.0,0.0 z "
         style="fill-rule:evenodd;stroke:#000000;stroke-width:1.0pt;marker-start:none;"
         transform="scale(0.8) rotate(180) translate(12.5,0)" />
    </marker>
  </defs>
  <sodipodi:namedview
     id="base"
     pagecolor="#ffffff"
     bordercolor="#666666"
     borderopacity="1.0"
     inkscape:pageopacity="0.0"
     inkscape:pageshadow="2"
     inkscape:zoom="0.84461975"
     inkscape:cx="472.3569"
     inkscape:cy="830.30012"
     inkscape:document-units="mm"
     inkscape:current-layer="svg2"
     inkscape:window-width="1152"
     inkscape:window-height="808"
     inkscape:window-x="-4"
     inkscape:window-y="-4"
     inkscape:grid-points="false"
     inkscape:grid-bbox="false"
     gridtolerance="50"
     width="210mm"
     height="297mm"
     units="mm"
     showgrid="true"
     gridspacingx="1mm"
     gridspacingy="1mm"
     grid_units="mm"
     inkscape:object-paths="false"
     inkscape:object-nodes="false"
     inkscape:object-points="false"
     objecttolerance="12.4"
     inkscape:guide-bbox="false" />
  <metadata
     id="metadata7">
    <rdf:RDF>
      <cc:Work
         rdf:about="">
        <dc:format>image/svg+xml</dc:format>
        <dc:type
           rdf:resource="http://purl.org/dc/dcmitype/StillImage" />
      </cc:Work>
    </rdf:RDF>
  </metadata>
  <g
     id="g3195"
     transform="translate(516.20863,200.09004)">
    <path
       sodipodi:type="arc"
       style="fill:none;fill-opacity:1;fill-rule:nonzero;stroke:#0000ff;stroke-width:0.53125;stroke-miterlimit:4;stroke-dasharray:none;stroke-opacity:1"
       id="path3197"
       sodipodi:cx="-44.990662"
       sodipodi:cy="199.31558"
       sodipodi:rx="37.886871"
       sodipodi:ry="34.92696"
       d="M -7.1037903,199.31558 A 37.886871,34.92696 0 1 1 -82.877533,199.31558 A 37.886871,34.92696 0 1 1 -7.1037903,199.31558 z"
       transform="translate(58.014272,-17.759472)" />
    <text
       xml:space="preserve"
       style="font-size:22px;font-style:normal;font-weight:normal;fill:#0000ff;fill-opacity:1;stroke:none;stroke-width:1px;stroke-linecap:butt;stroke-linejoin:miter;stroke-opacity:1;font-family:Bitstream Vera Sans"
       x="-82.877533"
       y="346.71921"
       id="text3199"
       transform="translate(84.061496,-150.36352)"><tspan
         sodipodi:role="line"
         id="tspan3201"
         x="-82.877533"
         y="346.71921"
         style="font-size:40px;font-weight:bold;writing-mode:lr-tb;fill:#0000ff">3</tspan></text>
    <path
       transform="translate(58.014272,-17.759472)"
       d="M -7.1037903,199.31558 A 37.886871,34.92696 0 1 1 -82.877533,199.31558 A 37.886871,34.92696 0 1 1 -7.1037903,199.31558 z"
       sodipodi:ry="34.92696"
       sodipodi:rx="37.886871"
       sodipodi:cy="199.31558"
       sodipodi:cx="-44.990662"
       id="path3203"
       style="fill:none;fill-opacity:1;fill-rule:nonzero;stroke:#0000ff;stroke-width:0.53125;stroke-miterlimit:4;stroke-dasharray:none;stroke-opacity:1"
       sodipodi:type="arc" />
  </g>
  <g
     id="g3205"
     transform="translate(644.07682,-17.759471)">
    <path
       sodipodi:type="arc"
       style="fill:none;fill-opacity:1;fill-rule:nonzero;stroke:#0000ff;stroke-width:0.53125;stroke-miterlimit:4;stroke-dasharray:none;stroke-opacity:1"
       id="path3207"
       sodipodi:cx="-44.990662"
       sodipodi:cy="199.31558"
       sodipodi:rx="37.886871"
       sodipodi:ry="34.92696"
       d="M -7.1037903,199.31558 A 37.886871,34.92696 0 1 1 -82.877533,199.31558 A 37.886871,34.92696 0 1 1 -7.1037903,199.31558 z"
       transform="translate(58.014272,-17.759472)" />
    <text
       xml:space="preserve"
       style="font-size:22px;font-style:normal;font-weight:normal;fill:#0000ff;fill-opacity:1;stroke:none;stroke-width:1px;stroke-linecap:butt;stroke-linejoin:miter;stroke-opacity:1;font-family:Bitstream Vera Sans"
       x="-82.877533"
       y="346.71921"
       id="text3209"
       transform="translate(84.061496,-150.36352)"><tspan
         sodipodi:role="line"
         id="tspan3211"
         x="-82.877533"
         y="346.71921"
         style="font-size:40px;font-weight:bold;writing-mode:lr-tb;fill:#0000ff">4</tspan></text>
  </g>
  <g
     inkscape:label="Calque 1"
     id="layer1"
     inkscape:groupmode="layer" />
  <text
     xml:space="preserve"
     style="font-size:32px;font-style:normal;font-weight:normal;fill:#000000;fill-opacity:1;stroke:none;stroke-width:1px;stroke-linecap:butt;stroke-linejoin:miter;stroke-opacity:1;font-family:Bitstream Vera Sans"
     id="text10546"
     y="265.19595"
     x="194.35773"
     transform="translate(-31.967048,-168.123)"><tspan
       sodipodi:role="line"
       id="tspan10548"
       y="265.19595"
       x="194.35773">+</tspan></text>
  <path
     style="fill:none;fill-rule:evenodd;stroke:#000000;stroke-width:1.00000048px;stroke-linecap:butt;stroke-linejoin:miter;stroke-opacity:1"
     d="M 247.1188,269.88102 C 297.86188,208.2082 345.42582,221.1401 391.46382,269.88102"
     sodipodi:nodetypes="cc"
     id="path8133"
     transform="translate(-31.967048,-168.123)" />
  <g
     style="stroke:#000000;stroke-width:0.53125;stroke-miterlimit:4;stroke-dasharray:none;stroke-opacity:1"
     id="g10352"
     transform="translate(-52.598418,165.2633)">
    <path
       style="fill:#b3b3b3;fill-rule:evenodd;stroke:#000000;stroke-width:0.53125;stroke-linecap:butt;stroke-linejoin:miter;stroke-miterlimit:4;stroke-dasharray:none;stroke-opacity:1"
       d="M 182.41614,-84.323393 C 182.41614,-82.243924 183.07763,-81.472553 183.81623,-80.138746 C 183.25799,-77.779963 182.90113,-75.402938 184.8663,-72.815601 C 184.16185,-70.897634 185.06005,-68.979672 186.44139,-67.061705 C 186.20992,-65.221545 187.41442,-63.619821 188.54153,-62.00525 C 188.74403,-59.912924 189.85628,-57.820593 191.69173,-55.728267 C 175.06568,-60.959082 173.96037,-73.73539 171.39045,-76.128454 C 170.02565,-77.399318 168.54863,-77.249016 167.49502,-78.839496 C 166.44141,-80.429981 165.81123,-83.761248 164.74003,-84.323571 C 165.81123,-84.885893 166.44141,-88.217161 167.49502,-89.807646 C 168.54863,-91.398126 170.02565,-91.247824 171.39045,-92.518688 C 173.96037,-94.911751 175.06568,-107.68806 191.69173,-112.91887 C 189.85628,-110.82655 188.74403,-108.73422 188.54153,-106.64189 C 187.41442,-105.02732 186.20992,-103.4256 186.44139,-101.58544 C 185.06005,-99.667468 184.16185,-97.749506 184.8663,-95.831539 C 182.90113,-93.244204 183.25799,-90.867178 183.81623,-88.508395 C 183.07763,-87.174588 182.41614,-86.403217 182.41614,-84.323748"
       sodipodi:nodetypes="ccccccsscsscccccc"
       id="path8125" />
    <path
       style="fill:none;fill-rule:evenodd;stroke:#000000;stroke-width:0.53125;stroke-linecap:butt;stroke-linejoin:miter;stroke-miterlimit:4;stroke-dasharray:none;stroke-opacity:1"
       d="M 164.74002,-93.303315 C 164.23003,-92.253241 163.89837,-90.946889 163.82954,-89.606705 M 160.42261,-96.277612 C 159.68762,-94.651147 159.1745,-93.053566 159.00821,-91.515233 M 103.28697,-115.85547 C 98.884138,-110.47766 96.980385,-104.60739 95.648987,-99.34437 M 154.80568,-92.93596 C 155.09832,-95.029159 155.5075,-97.215387 156.67895,-99.218055 M 131.95744,-98.703792 C 133.01696,-103.65373 134.72384,-109.0778 138.52675,-113.60533 M 138.73818,-97.453986 C 139.7233,-101.56203 141.03701,-106.1848 143.98698,-110.49279 M 144.17966,-96.064288 C 144.95029,-99.480863 146.28977,-103.19229 149.08613,-106.62877 M 150.11023,-94.490163 C 150.76081,-97.682213 151.57061,-100.94184 153.02035,-103.33814 M 101.86384,-100.29455 C 103.15394,-105.99572 104.93982,-112.0646 109.01773,-116.55141 M 107.21074,-100.69028 C 108.51092,-105.84205 110.61175,-111.57106 115.22006,-116.98875 M 113.67721,-100.73662 C 114.95176,-105.88159 116.89243,-111.60246 121.07149,-117.01484 M 120.24621,-100.35798 C 121.52611,-105.54964 123.38523,-111.35552 127.39633,-116.79799 M 133.23388,-115.72447 C 131.27258,-113.75024 128.14487,-107.03014 126.56596,-99.660228"
       id="path8246" />
    <path
       style="fill:#cccccc;fill-rule:evenodd;stroke:#000000;stroke-width:0.53125;stroke-linecap:butt;stroke-linejoin:miter;stroke-miterlimit:4;stroke-dasharray:none;stroke-opacity:1"
       d="M 95.434115,-70.206827 C 93.517704,-78.165688 93.091226,-84.356263 89.354302,-84.278446 C 93.227833,-84.197794 93.284303,-90.874822 95.648987,-99.34437 C 94.549549,-94.184237 94.054266,-88.663431 95.598288,-84.278446 C 94.138887,-80.243993 94.259252,-75.187153 95.434115,-70.206827 z M 163.78565,-79.901248 C 163.66556,-82.504242 163.81717,-84.363823 160.95576,-84.278446 C 164.16607,-84.182668 163.44628,-86.528264 163.82954,-89.606705 C 163.80707,-87.470695 164.13697,-85.344582 164.56502,-84.278446 L 164.56502,-84.278436 C 164.19928,-83.367485 163.79594,-81.688072 163.78565,-79.901248 z M 158.91212,-77.957892 C 158.45187,-82.228449 159.61103,-84.374027 155.0618,-84.278446 C 159.9231,-84.176316 158.13043,-86.697682 159.00821,-91.515233 C 158.74234,-88.146293 159.56584,-85.325684 160.95576,-84.278446 C 159.69683,-83.329905 158.7839,-80.870141 158.91212,-77.957892 z M 154.69064,-76.533945 C 154.17292,-80.791225 154.05256,-84.362925 149.90925,-84.278446 C 154.34678,-84.187975 154.08765,-88.258789 154.80568,-92.93596 C 154.4275,-89.685982 154.45257,-86.166715 155.0618,-84.278446 C 154.50867,-82.564043 154.36551,-79.533568 154.69064,-76.533945 z M 131.80712,-70.764756 C 130.28871,-78.243401 130.13382,-84.356174 126.40365,-84.278446 C 130.26538,-84.197981 130.24973,-90.844345 131.95744,-98.703792 C 130.95022,-93.594145 130.8742,-88.250819 132.64283,-84.278446 C 130.95432,-80.606707 130.90472,-75.647227 131.80712,-70.764756 z M 138.56968,-71.977762 C 136.95129,-79.032694 136.52753,-84.360065 132.64283,-84.278446 C 136.66257,-84.193996 136.77607,-90.070651 138.73818,-97.453986 C 137.77098,-92.184573 137.41872,-86.867701 139.00603,-84.278446 C 137.49649,-81.945278 137.55386,-76.978021 138.56968,-71.977762 z M 144.00169,-73.370196 C 142.72296,-79.522753 143.05446,-84.361175 139.00603,-84.278446 C 143.21448,-84.192453 142.74814,-89.53675 144.17966,-96.064288 C 142.97128,-91.634688 142.64705,-86.964322 144.31918,-84.278446 C 142.74472,-81.882157 142.99409,-77.610028 144.00169,-73.370196 z M 149.72248,-74.892609 C 148.76808,-79.941667 148.08728,-84.357614 144.31918,-84.278446 C 148.21211,-84.196659 149.13642,-89.151779 150.11023,-94.490163 C 149.13449,-90.439801 148.85989,-86.259716 149.90925,-84.278446 C 148.92625,-82.566687 148.97888,-78.774472 149.72248,-74.892609 z M 101.67933,-69.239896 C 99.91726,-77.340523 99.205333,-84.354231 95.598288,-84.278446 C 99.33247,-84.199998 99.771308,-91.765707 101.86384,-100.29455 C 100.94909,-95.376091 100.53847,-89.798542 101.60769,-84.278446 C 100.59895,-79.174755 100.72772,-73.994332 101.67933,-69.239896 z M 107.00048,-68.819152 C 104.92094,-77.613899 105.38003,-84.36003 101.60769,-84.278446 C 105.49639,-84.194351 104.71672,-91.457947 107.21074,-100.69028 C 105.82437,-94.999618 105.3417,-88.895565 107.61708,-84.278446 C 105.45271,-80.003367 105.6221,-74.308794 107.00048,-68.819152 z M 113.48163,-68.75544 C 111.40335,-77.596407 111.51221,-84.360282 107.61708,-84.278446 C 111.62608,-84.194223 111.22054,-91.479952 113.67721,-100.73662 C 112.41627,-95.020953 111.94093,-88.88832 113.89077,-84.278446 C 112.03616,-80.010296 112.21228,-74.266663 113.48163,-68.75544 z M 120.05619,-69.120836 C 118.02225,-77.751138 117.79104,-84.359276 113.89077,-84.278446 C 117.90931,-84.19517 117.84181,-91.316877 120.24621,-100.35798 C 119.06689,-94.774587 118.55768,-88.828598 120.16447,-84.278446 C 118.63468,-80.061561 118.84293,-74.494624 120.05619,-69.120836 z M 126.38813,-69.820964 C 124.48676,-77.989381 123.94387,-84.357851 120.16447,-84.278446 C 124.06695,-84.196462 124.36615,-91.098069 126.56596,-99.660228 C 125.56071,-94.358197 125.1589,-88.723356 126.40365,-84.278446 C 125.22123,-80.168381 125.38152,-74.896703 126.38813,-69.820964 z"
       sodipodi:nodetypes="cccccccccccccccccccccccccccccccccccccccccccccccccccccccccccccccccc"
       id="path8248" />
    <path
       style="fill:none;fill-rule:evenodd;stroke:#000000;stroke-width:0.53125;stroke-linecap:butt;stroke-linejoin:miter;stroke-miterlimit:4;stroke-dasharray:none;stroke-opacity:1"
       d="M 163.78565,-79.901248 C 163.77625,-78.26803 164.11321,-76.544183 164.74002,-75.253577 M 158.91212,-77.957892 C 158.99104,-76.165471 159.53809,-74.23663 160.42261,-72.279278 M 156.67895,-69.338835 C 155.33486,-71.636639 154.97686,-74.180211 154.69064,-76.533945 M 153.02035,-65.218749 C 151.02309,-67.982062 150.34957,-71.575067 149.72248,-74.892609 M 149.08613,-61.928118 C 146.0874,-65.717641 144.75066,-69.766598 144.00169,-73.370196 M 138.56968,-71.977762 C 139.77476,-66.045887 142.25241,-60.047612 143.98698,-58.064104 M 138.52675,-54.95156 C 134.51828,-59.838949 132.85141,-65.621355 131.80712,-70.764756 M 126.38813,-69.820964 C 127.91475,-62.123141 131.20195,-54.877738 133.23388,-52.832416 M 127.39633,-51.758902 C 123.17999,-57.588297 121.32332,-63.744202 120.05619,-69.120836 M 121.07149,-51.542047 C 116.67952,-57.336447 114.73488,-63.424118 113.48163,-68.75544 M 115.22006,-51.568146 C 110.36545,-57.382218 108.26477,-63.472221 107.00048,-68.819152 M 109.01773,-52.005485 C 104.73325,-56.838892 102.96749,-63.317905 101.67933,-69.239896 M 95.434115,-70.206827 C 96.748742,-64.747184 98.636303,-58.496896 103.28697,-52.701417"
       sodipodi:nodetypes="cccccccccccccccccccccccccc"
       id="path8242" />
    <path
       style="fill:none;fill-rule:evenodd;stroke:#000000;stroke-width:0.53125;stroke-linecap:butt;stroke-linejoin:miter;stroke-miterlimit:4;stroke-dasharray:none;stroke-opacity:1"
       d="M 182.76616,-103.15468 C 185.21632,-105.77009 188.54153,-106.64189 188.54153,-106.64189 M 179.09093,-97.749501 C 182.06612,-100.36491 186.44139,-101.58544 186.44139,-101.58544 M 176.29075,-90.949443 C 180.31601,-95.482818 184.8663,-95.831539 184.8663,-95.831539 M 174.19062,-86.416069 C 179.26595,-88.508395 183.81623,-88.508395 183.81623,-88.508395"
       sodipodi:nodetypes="cccccccc"
       id="path8129" />
    <path
       style="fill:none;fill-rule:evenodd;stroke:#000000;stroke-width:0.53125;stroke-linecap:butt;stroke-linejoin:miter;stroke-miterlimit:4;stroke-dasharray:none;stroke-opacity:1"
       id="path8131"
       sodipodi:nodetypes="cccccccc"
       d="M 182.76616,-65.492461 C 185.21632,-62.877054 188.54153,-62.00525 188.54153,-62.00525 M 179.09093,-70.897639 C 182.06612,-68.282232 186.44139,-67.061705 186.44139,-67.061705 M 176.29075,-77.697698 C 180.31601,-73.164324 184.8663,-72.815601 184.8663,-72.815601 M 174.19062,-82.231072 C 179.26595,-80.138746 183.81623,-80.138746 183.81623,-80.138746" />
    <path
       style="color:#000000;fill:#000000;fill-opacity:1;fill-rule:evenodd;stroke:#000000;stroke-width:0.53125;stroke-linecap:butt;stroke-linejoin:miter;marker:none;marker-start:none;marker-mid:none;marker-end:none;stroke-miterlimit:4;stroke-dasharray:none;stroke-dashoffset:0;stroke-opacity:1;visibility:visible;display:inline;overflow:visible"
       d="M 81.784785,-94.523832 C 81.784785,-94.090718 81.471164,-93.739209 81.084742,-93.739209 C 80.698316,-93.739209 80.3847,-94.090718 80.3847,-94.523832 C 80.3847,-94.956945 80.698316,-95.308454 81.084742,-95.308454 C 81.471164,-95.308454 81.784785,-94.956945 81.784785,-94.523832 z"
       id="path8135" />
    <path
       style="fill:#cccccc;fill-rule:evenodd;stroke:#000000;stroke-width:0.53125;stroke-linecap:butt;stroke-linejoin:miter;stroke-miterlimit:4;stroke-dasharray:none;stroke-opacity:1"
       d="M 88.347703,-56.338886 C 93.073,-56.426068 88.347703,-77.698048 88.347703,-84.498107 C 88.347703,-91.298166 90.286027,-106.08432 95.523156,-112.83169 C 100.84897,-119.69332 61.207272,-96.898202 64.108675,-79.092934 C 67.346381,-77.262144 72.246688,-76.303163 76.184435,-74.821095 C 72.509204,-74.55956 68.221432,-75.692904 65.158736,-76.477526 C 66.90885,-72.815951 73.034237,-62.703045 88.347703,-56.338886 z M 83.709918,-95.700756 C 83.709918,-94.377361 82.788657,-93.3033 81.653539,-93.3033 C 80.518416,-93.3033 79.597155,-94.377361 79.597155,-95.700756 C 79.597155,-97.024152 80.518416,-98.098213 81.653539,-98.098213 C 82.788657,-98.098213 83.709918,-97.024152 83.709918,-95.700756 z"
       id="path8123" />
    <path
       style="color:#000000;fill:#000000;fill-opacity:1;fill-rule:evenodd;stroke:#000000;stroke-width:0.53125;stroke-linecap:butt;stroke-linejoin:miter;marker:none;marker-start:none;marker-mid:none;marker-end:none;stroke-miterlimit:4;stroke-dasharray:none;stroke-dashoffset:0;stroke-opacity:1;visibility:visible;display:inline;overflow:visible"
       id="path9876"
       d="M 81.784785,-94.523832 C 81.784785,-94.090718 81.471164,-93.739209 81.084742,-93.739209 C 80.698316,-93.739209 80.3847,-94.090718 80.3847,-94.523832 C 80.3847,-94.956945 80.698316,-95.308454 81.084742,-95.308454 C 81.471164,-95.308454 81.784785,-94.956945 81.784785,-94.523832 z" />
  </g>
  <path
     style="fill:none;fill-rule:evenodd;stroke:#000000;stroke-width:1px;stroke-linecap:butt;stroke-linejoin:miter;marker-end:url(#Arrow1Lend);stroke-opacity:1"
     id="path10580"
     sodipodi:nodetypes="cc"
     d="M 413.47727,254.19401 L 510.07072,254.19401"
     transform="translate(-31.967048,-168.123)" />
  <path
     style="fill:#cccccc;fill-opacity:1;fill-rule:nonzero;stroke:#000000;stroke-width:0.53125;stroke-linecap:butt;stroke-linejoin:miter;stroke-miterlimit:4;stroke-dasharray:none;stroke-opacity:1"
     d="M 703.788,96.4602 C 702.086,97.655 702.215,99.1793 701.903,101.117 C 700.62,101.318 699.396,101.625 698.484,102.44 C 697.571,103.255 696.979,104.574 696.855,106.78 C 695.701,106.756 694.95,107.361 694.437,108.339 C 693.925,109.318 693.648,110.673 693.441,112.187 C 691.659,112.795 691.347,115.374 690.825,117.765 C 689.155,119.067 688.208,121.638 687.537,125.057 C 685.968,118.807 684.739,113.665 684.009,109.26 C 683.28,104.855 683.032,101.193 683.079,98.0952 C 683.125,94.9971 683.461,92.4698 683.704,90.3993 C 683.947,88.3288 684.092,86.7148 683.639,85.4472 C 683.158,84.1008 682.363,82.9786 681.628,81.8897 C 680.892,80.8007 680.217,79.7439 679.952,78.4839 C 679.687,77.2239 679.83,75.7547 679.863,74.3718 C 679.896,72.989 679.818,71.6919 679.126,70.8139 C 680.158,71.2442 681.433,71.0074 682.802,70.6916 C 684.171,70.3758 685.633,69.9804 686.999,70.0891 C 688.365,70.1978 689.627,70.8093 690.912,71.5318 C 692.198,72.2542 693.506,73.0867 695.01,73.6545 C 696.426,74.189 698.152,74.1437 700.434,74.1761 C 702.717,74.2086 705.561,74.3111 709.168,75.2844 C 712.774,76.2578 717.169,78.0963 722.282,81.8489 C 724.839,83.7252 727.569,86.0847 730.396,89.0831 C 733.224,92.0815 736.151,95.7196 739.024,100.16 C 735.123,96.8979 731.944,95.5577 729.877,96.144 C 728.513,95.346 727.121,94.5408 725.907,94.1211 C 724.693,93.7015 723.663,93.6652 723.014,94.3701 C 721.365,93.4914 719.854,92.9004 718.668,92.8261 C 717.482,92.7519 716.624,93.1913 716.239,94.3674 C 713.972,93.227 712.447,93.2138 711.338,93.7388 C 710.229,94.2638 709.526,95.3353 708.868,96.4757 C 706.901,95.9282 705.49,95.2653 703.788,96.46 M 684.549,63.6646 C 683.029,63.8277 681.682,64.4615 680.772,65.4556 M 678.428,55.7566 C 677.863,55.8759 677.326,56.0144 676.823,56.1728 M 676.823,56.1728 C 676.823,56.1728 676.823,56.1728 676.823,56.1728 C 675.312,56.6513 674.101,57.3064 673.274,58.1543 M 548.902,28.1389 C 544.885,32.7169 542.672,36.934 541.42,40.6914 M 541.42,40.6914 C 540.11,44.6516 539.866,48.1057 539.91,51.2147 M 666.026,52.5041 C 667.541,50.9269 669.342,49.37 672.652,48.9061 M 619.088,33.4258 C 620.482,31.0536 622.312,28.6039 625.072,26.3717 C 627.833,24.1395 631.533,22.1131 636.664,20.8005 M 634.059,36.7515 C 635.541,34.95 637.273,33.0749 639.651,31.3578 C 642.028,29.6408 645.056,28.0745 649.151,27.0272 M 645.521,40.9995 C 646.825,39.6036 648.482,38.2389 650.751,37.1043 C 653.021,35.9698 655.907,35.0607 659.662,34.6801 M 657.351,46.8243 C 659.882,44.4128 662.859,42.1084 666.963,41.3902 M 552.051,43.7596 C 552.21,40.5524 552.673,37.119 554.145,33.5079 C 555.616,29.8969 558.101,26.0897 562.398,22.3656 M 563.277,38.7965 C 563.829,35.871 564.843,32.6412 566.991,29.1192 C 569.139,25.5972 572.423,21.7629 577.666,17.9096 M 577.507,34.5861 C 578.344,31.7478 579.596,28.6765 581.873,25.4486 C 584.149,22.2207 587.453,18.8197 592.509,15.5602 M 592.397,32.3343 C 593.541,29.582 595.074,26.6413 597.587,23.6587 C 600.101,20.6761 603.599,17.6364 608.773,14.9191 M 623.691,16.7511 C 620.915,17.5318 617.213,19.6797 613.912,22.7059 M 613.912,22.7059 C 611.041,25.3366 608.488,28.6187 606.857,32.0665 M 554.466,76.4218 C 550.958,73.8869 548.121,71.5015 545.408,70.2564 C 544.052,69.6338 542.721,69.302 541.348,69.4095 C 539.975,69.5171 538.556,70.0644 537.059,71.2086 C 538.635,70.0548 539.601,68.8832 540.16,67.5905 C 540.719,66.2978 540.871,64.8869 540.82,63.2972 C 540.769,61.7076 540.515,59.9406 540.282,57.9445 C 540.049,55.9483 539.836,53.7228 539.91,51.2147 C 540.154,54.0715 540.818,56.7997 542.046,59.0619 C 543.274,61.3242 545.058,63.1168 547.518,64.1997 C 547.285,66.6848 547.944,68.9561 549.195,70.9898 C 550.446,73.0235 552.289,74.8245 554.466,76.4218 L 554.466,76.4218 M 674.969,73.2281 C 675.643,72.1097 676.317,71.2188 676.23,70.1954 C 676.143,69.1721 675.296,67.9907 672.854,66.4413 C 675.541,68.2597 676.863,68.5628 677.872,68.1086 C 678.88,67.6544 679.536,66.4564 680.772,65.4556 C 679.472,67.1492 678.767,69.2654 678.816,70.6366 L 678.816,70.6366 C 677.679,70.919 676.04,71.7988 674.969,73.2281 L 674.969,73.2281 M 666.093,69.6527 C 666.82,67.5978 667.937,66.3968 667.901,65.1446 C 667.883,64.5185 667.573,63.8758 666.757,63.1179 C 665.941,62.36 664.62,61.4828 662.566,60.4539 C 664.738,61.5988 666.207,62.274 667.286,62.549 C 668.365,62.824 669.05,62.7031 669.599,62.32 C 670.697,61.5538 671.218,59.7254 673.274,58.1543 C 671.678,60.0004 671.257,62.2204 671.778,64.2011 M 671.778,64.2011 C 671.986,64.994 672.347,65.7509 672.854,66.4413 C 672.042,66.2568 671.208,66.238 670.409,66.3793 M 670.409,66.3793 C 668.603,66.6984 666.991,67.8367 666.093,69.6527 L 666.093,69.6527 M 658.404,67.0212 C 658.929,64.9024 659.532,63.0109 659.055,61.2098 C 658.816,60.3093 658.304,59.4304 657.364,58.5749 C 656.424,57.7193 655.055,56.885 653.107,56.1185 C 655.176,56.9814 656.772,57.435 658.085,57.5495 C 659.397,57.664 660.423,57.4411 661.308,56.9869 C 663.079,56.0786 664.272,54.2346 666.026,52.5041 C 663.822,55.0279 662.334,58.2126 662.566,60.4539 C 660.789,61.4673 659.211,64.0691 658.404,67.0212 L 658.404,67.0212 M 616.6,61.2576 C 615.964,58.9729 615.487,56.8301 614.949,54.9374 C 614.411,53.0446 613.809,51.4015 612.886,50.1333 M 612.886,50.1333 C 611.635,48.4141 609.773,47.3699 606.73,47.4495 C 609.795,47.4326 611.657,46.4911 613.084,44.8322 M 613.084,44.8322 C 614.187,43.5507 615.018,41.8496 615.904,39.8898 C 616.79,37.93 617.726,35.711 619.088,33.4258 C 617.746,35.8823 616.997,38.4554 616.993,40.9319 C 616.988,43.4085 617.723,45.7839 619.322,47.9248 C 617.455,49.5978 616.465,51.7013 616.098,53.991 C 615.731,56.2808 615.982,58.7612 616.6,61.2576 L 616.6,61.2576 M 628.827,61.692 C 628.061,57.9489 627.623,54.7272 626.427,52.3079 C 625.232,49.8886 623.234,48.2417 619.322,47.9248 C 621.342,48.1308 622.904,47.9681 624.215,47.4815 C 625.526,46.9948 626.584,46.1859 627.569,45.1353 C 629.538,43.0341 631.184,39.9478 634.059,36.7515 C 632.484,39.1268 631.314,41.6064 630.877,43.8767 C 630.439,46.1469 630.724,48.1995 632.039,49.7863 C 630.313,50.628 629.282,52.3033 628.807,54.4112 C 628.331,56.519 628.401,59.0617 628.827,61.692 L 628.827,61.692 M 638.781,62.6732 C 638.517,59.3916 638.803,56.6194 638.199,54.4226 C 637.897,53.3242 637.365,52.3687 636.403,51.5811 C 635.442,50.7935 634.048,50.1711 632.039,49.7863 C 634.119,50.2284 635.68,50.271 636.949,49.9727 C 638.217,49.6743 639.19,49.0372 640.057,48.1605 C 641.791,46.407 643.072,43.6791 645.521,40.9995 C 643.607,42.7433 642.213,44.7224 641.617,46.6921 C 641.022,48.6618 641.218,50.614 642.454,52.3833 C 640.587,53.0775 639.516,54.5199 638.993,56.3443 C 638.47,58.1687 638.488,60.3793 638.781,62.6732 L 638.781,62.6732 M 649.261,64.6844 C 649.378,62.0121 649.505,59.517 648.695,57.3794 C 647.885,55.2418 646.113,53.4321 642.454,52.3833 C 646.211,53.5452 648.878,53.2337 651.171,52.0674 C 653.465,50.9011 655.351,48.8883 657.351,46.8243 C 655.593,48.2917 654.224,49.9667 653.452,51.5955 C 652.679,53.2243 652.497,54.8025 653.107,56.1185 C 651.866,56.5384 650.936,57.6554 650.306,59.1774 C 649.676,60.6995 649.343,62.6265 649.261,64.6844 L 649.261,64.6844 M 564.684,72.1251 C 562.62,70.116 560.728,68.1737 558.895,66.592 C 557.063,65.0104 555.285,63.7903 553.434,63.2676 M 553.434,63.2676 C 551.562,62.7382 549.605,62.9256 547.518,64.1997 C 549.674,62.9445 550.821,61.3966 551.42,59.4836 M 551.42,59.4836 C 552.026,57.551 552.065,55.2562 552.004,52.6236 C 551.943,49.991 551.778,47.0218 552.051,43.7596 C 552.121,46.4319 552.585,49.1174 553.583,51.6315 C 554.58,54.1456 556.108,56.4853 558.248,58.5352 C 558.544,64.022 561.168,68.5132 564.684,72.1251 L 564.684,72.1251 M 573.518,68.9754 C 570.319,65.4476 568.19,62.1104 566.052,59.9721 C 564.983,58.903 563.902,58.1402 562.649,57.8436 C 561.397,57.547 559.969,57.7158 558.248,58.5352 C 560.039,57.7287 561.124,56.79 561.775,55.6354 C 562.426,54.4809 562.64,53.1147 562.684,51.506 C 562.727,49.8974 562.598,48.0479 562.59,45.9362 C 562.582,43.8245 562.693,41.4492 563.277,38.7965 C 562.721,42.009 562.803,45.1324 563.771,47.7748 C 564.739,50.4171 566.58,52.5699 569.505,54.0032 C 568.135,56.7362 568.122,59.4196 568.953,61.9316 C 569.784,64.4437 571.454,66.7971 573.518,68.9754 L 573.518,68.9754 M 584.471,65.8004 C 581.668,61.9235 579.754,58.3977 577.658,56.089 C 576.61,54.9347 575.508,54.0897 574.196,53.6919 C 572.884,53.2941 571.359,53.3428 569.505,54.0032 C 571.426,53.3633 572.689,52.511 573.555,51.3972 C 574.422,50.2833 574.889,48.9114 575.206,47.283 C 575.523,45.6545 575.689,43.7708 575.974,41.6477 C 576.259,39.5245 576.662,37.1609 577.507,34.5861 C 576.75,37.6988 576.56,40.8069 577.187,43.5611 C 577.813,46.3152 579.246,48.7081 581.683,50.5112 C 580.337,53.0116 580.181,55.6464 580.785,58.2358 C 581.388,60.8251 582.746,63.3784 584.471,65.8004 L 584.471,65.8004 M 595.808,63.3834 C 593.496,59.3226 591.86,55.7157 589.88,53.2848 C 588.891,52.0693 587.807,51.1514 586.484,50.6465 C 585.162,50.1416 583.598,50.0488 581.683,50.5112 C 583.666,50.0753 585.058,49.3604 586.105,48.3506 C 587.152,47.3407 587.851,46.0387 588.429,44.474 C 589.007,42.9093 589.461,41.0828 590.035,39.0415 C 590.608,37.0001 591.301,34.7429 592.397,32.3343 C 591.391,35.2673 590.871,38.252 591.094,41.0004 C 591.316,43.7489 592.274,46.2547 594.161,48.3159 C 592.882,50.5959 592.602,53.1138 592.987,55.6755 C 593.371,58.2373 594.415,60.8491 595.808,63.3834 L 595.808,63.3834 M 606.931,61.9035 C 605.18,57.8473 603.869,54.2609 602.074,51.7565 C 600.279,49.252 597.945,47.8137 594.161,48.3159 C 596.119,48.0973 597.582,47.5441 598.762,46.6752 C 599.941,45.8064 600.835,44.6239 601.632,43.184 C 603.227,40.304 604.401,36.3798 606.857,32.0665 C 605.744,34.7321 605.052,37.4888 604.977,40.1187 C 604.901,42.7486 605.437,45.2476 606.73,47.4495 C 605.568,49.5229 605.153,51.8867 605.262,54.3503 C 605.37,56.8139 605.998,59.3806 606.931,61.9035 L 606.931,61.9035 M 674.969,73.2281 C 673.99,74.5345 673.499,76.3041 673.647,78.035 M 666.093,69.6527 C 665.461,70.9291 665.262,72.5631 665.348,74.4334 C 665.348,74.4334 665.348,74.4334 665.348,74.4334 M 665.348,74.4334 C 665.37,74.9243 665.412,75.4317 665.472,75.9534 M 658.247,75.0706 C 657.288,71.9192 657.824,69.3641 658.404,67.0212 M 650.767,75.8796 C 649.828,73.9134 649.401,72.0002 649.24,70.131 C 649.078,68.2619 649.183,66.4402 649.261,64.6844 M 643.462,76.3294 C 641.862,73.6766 640.751,71.2364 640.02,68.9653 C 639.289,66.6943 638.936,64.5953 638.781,62.6732 M 628.827,61.692 C 629.334,64.8123 630.289,68.0584 631.313,70.8618 C 632.337,73.6652 633.435,76.0263 634.469,77.3598 M 625.515,78.3962 C 622.981,75.4165 621.097,72.4774 619.685,69.5954 C 618.273,66.7134 617.334,63.894 616.6,61.2576 M 606.931,61.9035 C 608.301,65.6068 610.225,69.2282 612.058,72.2764 M 612.058,72.2764 C 614.015,75.5255 615.888,78.1194 617.33,79.328 M 608.697,79.9504 C 605.617,77.0301 603.082,74.1862 600.991,71.4057 C 598.899,68.6253 597.249,65.9132 595.808,63.3834 M 599.453,80.6551 C 595.939,78.1179 593.011,75.6095 590.567,73.1135 C 588.122,70.6175 586.161,68.1383 584.471,65.8004 M 590.947,81.9639 C 586.857,79.8437 583.449,77.7151 580.6,75.5329 C 577.751,73.3507 575.463,71.1201 573.518,68.9754 M 581.985,83.8599 C 578.234,82.5173 575.046,80.726 572.224,78.68 C 569.403,76.6341 566.956,74.3366 564.684,72.1251 M 554.466,76.4218 C 557.059,78.2963 559.957,80.2718 563.44,82.0701 M 563.44,82.0701 C 566.416,83.5908 569.817,84.9665 573.792,86.168 M 719.672,86.3149 C 722.385,87.9339 724.985,90.3657 726.854,92.424 C 728.722,94.4824 729.877,96.144 729.877,96.144 M 710.296,82.7402 C 713.403,84.5571 716.659,87.4066 719.055,89.8697 C 721.452,92.3327 723.014,94.3701 723.014,94.3701 M 701.139,82.3627 C 705.675,84.1088 709.551,87.108 712.183,89.6824 C 714.814,92.2567 716.239,94.3674 716.239,94.3674 M 694.824,82.1438 C 699.163,85.2307 702.738,88.8307 705.154,91.6486 C 707.569,94.4665 708.868,96.4757 708.868,96.4757 M 688.714,107.766 C 688.822,110.219 689.378,112.701 689.874,114.588 C 690.37,116.475 690.825,117.765 690.825,117.765 M 689.243,99.4045 C 689.869,102.303 690.979,105.471 691.863,107.944 C 692.748,110.416 693.441,112.187 693.441,112.187 M 691.162,91.08 C 691.979,95.4605 693.417,99.3205 694.628,102.154 C 695.838,104.988 696.855,106.78 696.855,106.78 M 691.776,85.0097 C 694.464,89.395 696.999,93.3863 698.851,96.3228 C 700.703,99.2593 701.903,101.117 701.903,101.117 M 518.337,73.6736 C 518.636,73.9866 518.386,74.7089 517.787,75.2931 C 517.188,75.8772 516.459,76.1083 516.153,75.8017 C 515.847,75.4952 516.085,74.7613 516.691,74.1707 C 517.297,73.5801 518.037,73.3606 518.337,73.6736 L 518.337,73.6736 M 552.518,94.4998 C 553.963,93.3487 553.916,91.7357 552.97,89.8167 C 552.024,87.8978 550.163,85.6946 547.929,83.506 C 545.696,81.3174 543.086,79.1517 540.747,77.2256 C 538.409,75.2995 536.348,73.6069 535.309,72.2646 C 533.231,69.5798 530.669,64.7219 529.561,58.8646 C 529.007,55.936 528.825,52.7564 529.273,49.5079 C 529.721,46.2595 530.803,42.9395 532.75,39.7996 C 533.74,38.203 533.471,37.9068 532.239,38.6489 C 531.008,39.391 528.829,41.1808 526.204,43.8167 C 523.58,46.4526 520.523,49.9402 517.535,54.02 C 514.547,58.0998 511.636,62.7715 509.17,67.6762 C 506.703,72.5809 504.684,77.7142 503.293,82.6546 C 501.902,87.595 501.136,92.3372 501.018,96.4751 C 500.899,100.613 501.42,104.143 502.529,106.746 C 503.638,109.348 505.328,111.022 507.597,111.573 C 510.013,109.357 512.736,106.455 515.653,103.559 C 518.57,100.664 521.68,97.7797 524.68,95.4938 C 522.498,98.1714 519.978,100.936 517.547,103.634 C 515.115,106.332 512.772,108.962 510.886,111.225 C 512.106,111.005 513.941,110.571 516.335,109.817 C 518.729,109.062 521.681,107.988 525.16,106.566 C 528.639,105.144 532.644,103.373 537.189,101.318 C 541.734,99.2631 546.817,96.918 552.518,94.4998 L 552.518,94.4998 M 520.628,69.9505 C 521.512,70.9335 520.745,73.0561 518.975,74.7515 C 517.205,76.4468 515.051,77.1215 514.104,76.1961 C 513.158,75.2707 513.824,73.046 515.656,71.293 C 517.487,69.54 519.743,68.9675 520.628,69.9505 L 520.628,69.9505 M 518.337,73.6736 C 518.636,73.9866 518.386,74.7089 517.787,75.2931 C 517.188,75.8772 516.459,76.1083 516.153,75.8017 C 515.847,75.4952 516.085,74.7613 516.691,74.1707 C 517.297,73.5801 518.037,73.3606 518.337,73.6736 L 518.337,73.6736"
     id="path2459"
     inkscape:path-effect="#path-effect2461"
     inkscape:original-d="M 503.49518,109.44533 C 555.807,22.673092 673.35319,31.460958 712.72285,112.87823"
     sodipodi:nodetypes="cc" />
  <text
     xml:space="preserve"
     style="font-size:22px;font-style:normal;font-weight:normal;fill:#000000;fill-opacity:1;stroke:none;stroke-width:1px;stroke-linecap:butt;stroke-linejoin:miter;stroke-opacity:1;font-family:Bitstream Vera Sans"
     x="101.82097"
     y="192.80379"
     id="text3070"
     transform="translate(-61.566164,-16.575507)"><tspan
       sodipodi:role="line"
       id="tspan3072"
       x="101.82097"
       y="192.80379">Transform shape </tspan><tspan
       sodipodi:role="line"
       x="101.82097"
       y="220.30379"
       id="tspan3137">into single path</tspan></text>
  <path
     id="path3076"
     style="fill:#b3b3b3;fill-rule:evenodd;stroke:#000000;stroke-width:0.53125;stroke-linecap:butt;stroke-linejoin:miter;stroke-miterlimit:4;stroke-opacity:1"
     d="M 222.16697,282.21392 C 222.16697,284.29339 222.82846,285.06476 223.56706,286.39856 C 223.00882,288.75735 222.65196,291.13437 224.61713,293.72171 C 223.91268,295.63968 224.81088,297.55764 226.19222,299.4756 C 225.96075,301.31577 227.16525,302.91749 228.29236,304.53206 C 228.49486,306.62439 229.60711,308.71672 231.44256,310.80904 C 214.81651,305.57823 213.7112,292.80192 211.14128,290.40886 C 209.77648,289.13799 208.29946,289.28829 207.24585,287.69781 C 206.19224,286.10733 205.56206,282.77606 204.49086,282.21374 C 205.56206,281.65142 206.19224,278.32015 207.24585,276.72966 C 208.29946,275.13918 209.77648,275.28949 211.14128,274.01862 C 213.7112,271.62556 214.81651,258.84925 231.44256,253.61844 C 229.60711,255.71076 228.49486,257.80309 228.29236,259.89542 C 227.16525,261.50999 225.96075,263.11171 226.19222,264.95187 C 224.81088,266.86984 223.91268,268.7878 224.61713,270.70577 C 222.65196,273.29311 223.00882,275.67013 223.56706,278.02891 C 222.82846,279.36272 222.16697,280.13409 222.16697,282.21356M 204.49085,273.23399 C 203.98086,274.28407 203.6492,275.59042 203.58037,276.93061 M 200.17344,270.2597 C 199.43845,271.88616 198.92533,273.48374 198.75904,275.02208 M 143.0378,250.68184 C 138.63497,256.05965 136.73122,261.92992 135.39982,267.19294 M 194.55651,273.60135 C 194.84915,271.50815 195.25833,269.32192 196.42978,267.31926 M 171.70827,267.83352 C 172.76779,262.88358 174.47467,257.45951 178.27758,252.93198 M 178.48901,269.08332 C 179.47413,264.97528 180.78784,260.35251 183.73781,256.04452 M 183.93049,270.47302 C 184.70112,267.05645 186.0406,263.34502 188.83696,259.90854 M 189.86106,272.04715 C 190.51164,268.8551 191.32144,265.59547 192.77118,263.19917 M 141.61467,266.24276 C 142.90477,260.54159 144.69065,254.47271 148.76856,249.9859 M 146.96157,265.84703 C 148.26175,260.69526 150.36258,254.96625 154.97089,249.54856 M 153.42804,265.80069 C 154.70259,260.65572 156.64326,254.93485 160.82232,249.52247 M 159.99704,266.17933 C 161.27694,260.98767 163.13606,255.18179 167.14716,249.73932 M 172.98471,250.81284 C 171.02341,252.78707 167.8957,259.50717 166.31679,266.87708M 135.18495,296.33048 C 133.26853,288.37162 132.84206,282.18105 129.10513,282.25886 C 132.97866,282.33952 133.03513,275.66249 135.39982,267.19294 C 134.30038,272.35307 133.8051,277.87388 135.34912,282.25886 C 133.88972,286.29332 134.01008,291.35016 135.18495,296.33048 z M 203.53648,286.63606 C 203.41639,284.03307 203.568,282.17349 200.70659,282.25886 C 203.9169,282.35464 203.19711,280.00905 203.58037,276.93061 C 203.5579,279.06661 203.8878,281.19273 204.31585,282.25886 L 204.31585,282.25887 C 203.95011,283.16983 203.54677,284.84924 203.53648,286.63606 z M 198.66295,288.57942 C 198.2027,284.30886 199.36186,282.16328 194.81263,282.25886 C 199.67393,282.36099 197.88126,279.83963 198.75904,275.02208 C 198.49317,278.39102 199.31667,281.21163 200.70659,282.25886 C 199.44766,283.2074 198.53473,285.66717 198.66295,288.57942 z M 194.44147,290.00336 C 193.92375,285.74608 193.80339,282.17438 189.66008,282.25886 C 194.09761,282.34934 193.83848,278.27852 194.55651,273.60135 C 194.17833,276.85133 194.2034,280.37059 194.81263,282.25886 C 194.2595,283.97327 194.11634,287.00374 194.44147,290.00336 z M 171.55795,295.77255 C 170.03954,288.29391 169.88465,282.18114 166.15448,282.25886 C 170.01621,282.33933 170.00056,275.69296 171.70827,267.83352 C 170.70105,272.94317 170.62503,278.28649 172.39366,282.25886 C 170.70515,285.9306 170.65555,290.89008 171.55795,295.77255 z M 178.32051,294.55955 C 176.70212,287.50462 176.27836,282.17724 172.39366,282.25886 C 176.4134,282.34331 176.5269,276.46666 178.48901,269.08332 C 177.52181,274.35274 177.16955,279.66961 178.75686,282.25886 C 177.24732,284.59203 177.30469,289.55929 178.32051,294.55955 z M 183.75252,293.16711 C 182.47379,287.01456 182.80529,282.17613 178.75686,282.25886 C 182.96531,282.34486 182.49897,277.00056 183.93049,270.47302 C 182.72211,274.90262 182.39788,279.57299 184.07001,282.25886 C 182.49555,284.65515 182.74492,288.92728 183.75252,293.16711 z M 189.47331,291.6447 C 188.51891,286.59564 187.83811,282.1797 184.07001,282.25886 C 187.96294,282.34065 188.88725,277.38553 189.86106,272.04715 C 188.88532,276.09751 188.61072,280.27759 189.66008,282.25886 C 188.67708,283.97062 188.72971,287.76284 189.47331,291.6447 z M 141.43016,297.29741 C 139.66809,289.19679 138.95616,282.18308 135.34912,282.25886 C 139.0833,282.33731 139.52214,274.7716 141.61467,266.24276 C 140.69992,271.16122 140.2893,276.73877 141.35852,282.25886 C 140.34978,287.36255 140.47855,292.54298 141.43016,297.29741 z M 146.75131,297.71816 C 144.67177,288.92341 145.13086,282.17728 141.35852,282.25886 C 145.24722,282.34296 144.46755,275.07936 146.96157,265.84703 C 145.5752,271.53769 145.09253,277.64175 147.36791,282.25886 C 145.20354,286.53394 145.37293,292.22852 146.75131,297.71816 z M 153.23246,297.78187 C 151.15418,288.9409 151.26304,282.17703 147.36791,282.25886 C 151.37691,282.34309 150.97137,275.05736 153.42804,265.80069 C 152.1671,271.51636 151.69176,277.64899 153.6416,282.25886 C 151.78699,286.52701 151.96311,292.27065 153.23246,297.78187 z M 159.80702,297.41647 C 157.77308,288.78617 157.54187,282.17803 153.6416,282.25886 C 157.66014,282.34214 157.59264,275.22043 159.99704,266.17933 C 158.81772,271.76272 158.30851,277.70871 159.9153,282.25886 C 158.38551,286.47575 158.59376,292.04269 159.80702,297.41647 z M 166.13896,296.71635 C 164.23759,288.54793 163.6947,282.17946 159.9153,282.25886 C 163.81778,282.34085 164.11698,275.43924 166.31679,266.87708 C 165.31154,272.17911 164.90973,277.81395 166.15448,282.25886 C 164.97206,286.36893 165.13235,291.64061 166.13896,296.71635 zM 203.53648,286.63606 C 203.52708,288.26928 203.86404,289.99313 204.49085,291.28373 M 198.66295,288.57942 C 198.74187,290.37184 199.28892,292.30068 200.17344,294.25803 M 196.42978,297.19847 C 195.08569,294.90067 194.72769,292.3571 194.44147,290.00336 M 192.77118,301.31856 C 190.77392,298.55525 190.1004,294.96224 189.47331,291.6447 M 188.83696,304.60919 C 185.83823,300.81967 184.50149,296.77071 183.75252,293.16711 M 178.32051,294.55955 C 179.52559,300.49142 182.00324,306.4897 183.73781,308.47321 M 178.27758,311.58575 C 174.26911,306.69836 172.60224,300.91596 171.55795,295.77255 M 166.13896,296.71635 C 167.66558,304.41417 170.95278,311.65957 172.98471,313.70489 M 167.14716,314.77841 C 162.93082,308.94901 161.07415,302.79311 159.80702,297.41647 M 160.82232,314.99526 C 156.43035,309.20086 154.48571,303.11319 153.23246,297.78187 M 154.97089,314.96916 C 150.11628,309.15509 148.0156,303.06509 146.75131,297.71816 M 148.76856,314.53182 C 144.48408,309.69842 142.71832,303.2194 141.43016,297.29741 M 135.18495,296.33048 C 136.49957,301.79013 138.38713,308.04041 143.0378,313.83589M 222.51699,263.38263 C 224.96715,260.76722 228.29236,259.89542 228.29236,259.89542 M 218.84176,268.78781 C 221.81695,266.1724 226.19222,264.95187 226.19222,264.95187 M 216.04158,275.58787 C 220.06684,271.05449 224.61713,270.70577 224.61713,270.70577 M 213.94145,280.12124 C 219.01678,278.02891 223.56706,278.02891 223.56706,278.02891M 222.51699,301.04485 C 224.96715,303.66026 228.29236,304.53206 228.29236,304.53206 M 218.84176,295.63967 C 221.81695,298.25508 226.19222,299.4756 226.19222,299.4756 M 216.04158,288.83961 C 220.06684,293.37299 224.61713,293.72171 224.61713,293.72171 M 213.94145,284.30624 C 219.01678,286.39856 223.56706,286.39856 223.56706,286.39856M 121.53562,272.01348 C 121.53562,272.44659 121.22199,272.7981 120.83557,272.7981 C 120.44915,272.7981 120.13553,272.44659 120.13553,272.01348 C 120.13553,271.58036 120.44915,271.22886 120.83557,271.22886 C 121.22199,271.22886 121.53562,271.58036 121.53562,272.01348 zM 128.09853,310.19842 C 132.82383,310.11124 128.09853,288.83926 128.09853,282.0392 C 128.09853,275.23914 130.03686,260.45299 135.27399,253.70562 C 140.5998,246.84399 100.9581,269.63911 103.85951,287.44438 C 107.09721,289.27517 111.99752,290.23415 115.93527,291.71621 C 112.26003,291.97775 107.97226,290.84441 104.90957,290.05978 C 106.65968,293.72136 112.78507,303.83426 128.09853,310.19842 z M 123.46075,270.83655 C 123.46075,272.15995 122.53949,273.23401 121.40437,273.23401 C 120.26925,273.23401 119.34799,272.15995 119.34799,270.83655 C 119.34799,269.51316 120.26925,268.4391 121.40437,268.4391 C 122.53949,268.4391 123.46075,269.51316 123.46075,270.83655 zM 121.53562,272.01348 C 121.53562,272.44659 121.22199,272.7981 120.83557,272.7981 C 120.44915,272.7981 120.13553,272.44659 120.13553,272.01348 C 120.13553,271.58036 120.44915,271.22886 120.83557,271.22886 C 121.22199,271.22886 121.53562,271.58036 121.53562,272.01348 z" />
  <text
     xml:space="preserve"
     style="font-size:22px;font-style:normal;font-weight:normal;fill:#000000;fill-opacity:1;stroke:none;stroke-width:1px;stroke-linecap:butt;stroke-linejoin:miter;stroke-opacity:1;font-family:Bitstream Vera Sans"
     x="214.29762"
     y="353.823"
     id="text3121"
     transform="translate(-58.014272,18.943436)"><tspan
       sodipodi:role="line"
       id="tspan3123"
       x="214.29762"
       y="353.823">Copy to clipboard</tspan><tspan
       sodipodi:role="line"
       x="214.29762"
       y="372.96726"
       id="tspan3143"
       style="font-size:12px">(it is easiest later on to move the nose</tspan><tspan
       sodipodi:role="line"
       x="214.29762"
       y="387.96726"
       id="tspan3145"
       style="font-size:12px">of the fish to the top-left corner of the </tspan><tspan
       sodipodi:role="line"
       x="214.29762"
       y="402.96726"
       style="font-size:12px"
       id="tspan3153">document (0,0) before copying to the </tspan><tspan
       sodipodi:role="line"
       x="214.29762"
       y="417.96726"
       style="font-size:12px"
       id="tspan3163">clipboard, so you don't have to manually </tspan><tspan
       sodipodi:role="line"
       x="214.29762"
       y="432.96726"
       style="font-size:12px"
       id="tspan3169">tweak the origin parameter)</tspan></text>
  <path
     style="fill:none;fill-rule:evenodd;stroke:#000000;stroke-width:1px;stroke-linecap:butt;stroke-linejoin:miter;stroke-opacity:1"
     d="M 439.25092,345.53523 C 504.36898,288.70493 570.671,289.88889 619.21356,351.45506"
     id="path3125"
     transform="translate(2.3679295,-35.518942)" />
  <text
     xml:space="preserve"
     style="font-size:22px;font-style:normal;font-weight:normal;fill:#000000;fill-opacity:1;stroke:none;stroke-width:1px;stroke-linecap:butt;stroke-linejoin:miter;stroke-opacity:1;font-family:Bitstream Vera Sans"
     x="460.56229"
     y="364.47867"
     id="text3127"
     transform="translate(-26.047224,0)"><tspan
       sodipodi:role="line"
       id="tspan3129"
       x="460.56229"
       y="364.47867">Draw the skeleton path</tspan></text>
  <text
     xml:space="preserve"
     style="font-size:22px;font-style:normal;font-weight:normal;fill:#000000;fill-opacity:1;stroke:none;stroke-width:1px;stroke-linecap:butt;stroke-linejoin:miter;stroke-opacity:1;font-family:Bitstream Vera Sans"
     x="632.23718"
     y="202.2755"
     id="text3131"
     transform="translate(-266.39207,-30.783083)"><tspan
       sodipodi:role="line"
       id="tspan3133"
       x="632.23718"
       y="202.2755">Press Ctrl-Shift-7 and apply </tspan><tspan
       sodipodi:role="line"
       x="632.23718"
       y="229.7755"
       id="tspan3171">Skeletal Strokes to the skeleton path.</tspan><tspan
       sodipodi:role="line"
       x="632.23718"
       y="257.2755"
       id="tspan3135">Press the paste button next to &quot;pattern&quot;</tspan></text>
  <g
     id="g3179">
    <path
       transform="translate(58.014272,-17.759472)"
       d="M -7.1037903,199.31558 A 37.886871,34.92696 0 1 1 -82.877533,199.31558 A 37.886871,34.92696 0 1 1 -7.1037903,199.31558 z"
       sodipodi:ry="34.92696"
       sodipodi:rx="37.886871"
       sodipodi:cy="199.31558"
       sodipodi:cx="-44.990662"
       id="path3177"
       style="fill:none;fill-opacity:1;fill-rule:nonzero;stroke:#0000ff;stroke-width:0.53125;stroke-miterlimit:4;stroke-dasharray:none;stroke-opacity:1"
       sodipodi:type="arc" />
    <text
       transform="translate(84.061496,-150.36352)"
       id="text3173"
       y="346.71921"
       x="-82.877533"
       style="font-size:22px;font-style:normal;font-weight:normal;fill:#0000ff;fill-opacity:1;stroke:none;stroke-width:1px;stroke-linecap:butt;stroke-linejoin:miter;stroke-opacity:1;font-family:Bitstream Vera Sans"
       xml:space="preserve"><tspan
         style="font-size:40px;font-weight:bold;writing-mode:lr-tb;fill:#0000ff"
         y="346.71921"
         x="-82.877533"
         id="tspan3175"
         sodipodi:role="line">1</tspan></text>
  </g>
  <path
     transform="translate(185.88246,192.98625)"
     d="M -7.1037903,199.31558 A 37.886871,34.92696 0 1 1 -82.877533,199.31558 A 37.886871,34.92696 0 1 1 -7.1037903,199.31558 z"
     sodipodi:ry="34.92696"
     sodipodi:rx="37.886871"
     sodipodi:cy="199.31558"
     sodipodi:cx="-44.990662"
     id="path3186"
     style="fill:none;fill-opacity:1;fill-rule:nonzero;stroke:#0000ff;stroke-width:0.53125;stroke-miterlimit:4;stroke-dasharray:none;stroke-opacity:1"
     sodipodi:type="arc" />
  <text
     transform="translate(211.92969,60.3822)"
     id="text3188"
     y="346.71921"
     x="-82.877533"
     style="font-size:22px;font-style:normal;font-weight:normal;fill:#0000ff;fill-opacity:1;stroke:none;stroke-width:1px;stroke-linecap:butt;stroke-linejoin:miter;stroke-opacity:1;font-family:Bitstream Vera Sans"
     xml:space="preserve"><tspan
       style="font-size:40px;font-weight:bold;writing-mode:lr-tb;fill:#0000ff"
       y="346.71921"
       x="-82.877533"
       id="tspan3190"
       sodipodi:role="line">2</tspan></text>
  <text
     xml:space="preserve"
     style="font-size:22px;font-style:normal;font-weight:normal;fill:#000000;fill-opacity:1;stroke:none;stroke-width:1px;stroke-linecap:butt;stroke-linejoin:miter;stroke-opacity:1;font-family:Bitstream Vera Sans"
     x="466.48212"
     y="-32.149517"
     id="text3213"
     transform="translate(-14.207577,-11.839647)"><tspan
       sodipodi:role="line"
       id="tspan3215"
       x="466.48212"
       y="-32.149517">Press F2 and notice that the </tspan><tspan
       sodipodi:role="line"
       x="466.48212"
       y="-4.6495171"
       id="tspan3217">red skeleton path is live </tspan><tspan
       sodipodi:role="line"
       x="466.48212"
       y="22.850483"
       id="tspan3219">edittable on-canvas</tspan></text>
  <g
     id="g3221"
     transform="translate(426.22731,-182.33057)">
    <path
       sodipodi:type="arc"
       style="fill:none;fill-opacity:1;fill-rule:nonzero;stroke:#0000ff;stroke-width:0.53125;stroke-miterlimit:4;stroke-dasharray:none;stroke-opacity:1"
       id="path3223"
       sodipodi:cx="-44.990662"
       sodipodi:cy="199.31558"
       sodipodi:rx="37.886871"
       sodipodi:ry="34.92696"
       d="M -7.1037903,199.31558 A 37.886871,34.92696 0 1 1 -82.877533,199.31558 A 37.886871,34.92696 0 1 1 -7.1037903,199.31558 z"
       transform="translate(58.014272,-17.759472)" />
    <text
       xml:space="preserve"
       style="font-size:22px;font-style:normal;font-weight:normal;fill:#0000ff;fill-opacity:1;stroke:none;stroke-width:1px;stroke-linecap:butt;stroke-linejoin:miter;stroke-opacity:1;font-family:Bitstream Vera Sans"
       x="-82.877533"
       y="346.71921"
       id="text3225"
       transform="translate(84.061496,-150.36352)"><tspan
         sodipodi:role="line"
         id="tspan3227"
         x="-82.877533"
         y="346.71921"
         style="font-size:40px;font-weight:bold;writing-mode:lr-tb;fill:#0000ff">5</tspan></text>
  </g>
</svg>
