<?xml version="1.0" encoding="UTF-8" standalone="no"?>
<!-- Created with Inkscape (http://www.inkscape.org/) -->
<svg
   xmlns:dc="http://purl.org/dc/elements/1.1/"
   xmlns:cc="http://web.resource.org/cc/"
   xmlns:rdf="http://www.w3.org/1999/02/22-rdf-syntax-ns#"
   xmlns:svg="http://www.w3.org/2000/svg"
   xmlns="http://www.w3.org/2000/svg"
   xmlns:xlink="http://www.w3.org/1999/xlink"
   xmlns:sodipodi="http://sodipodi.sourceforge.net/DTD/sodipodi-0.dtd"
   xmlns:inkscape="http://www.inkscape.org/namespaces/inkscape"
   sodipodi:docname="tesselation-P3.svg"
   sodipodi:docbase="/home/d/ink/inkscape/share/examples"
   inkscape:version="0.41+cvs"
   sodipodi:version="0.32"
   id="svg1278"
   height="297mm"
   width="210mm">
  <defs
     id="defs3">
    <linearGradient
       id="linearGradient3508"
       inkscape:collect="always">
      <stop
         id="stop3509"
         offset="0"
         style="stop-color:#000000;stop-opacity:1;" />
      <stop
         id="stop3510"
         offset="1"
         style="stop-color:#000000;stop-opacity:0;" />
    </linearGradient>
    <radialGradient
       r="14.898239"
       fy="909.58490"
       fx="198.90167"
       cy="909.01093"
       cx="198.96782"
       gradientTransform="scale(1.547494,0.646206)"
       gradientUnits="userSpaceOnUse"
       id="radialGradient3521"
       xlink:href="#linearGradient3508"
       inkscape:collect="always" />
    <radialGradient
       r="14.898238"
       fy="910.29315"
       fx="197.16112"
       cy="909.71918"
       cx="197.22726"
       gradientTransform="scale(1.547494,0.646206)"
       gradientUnits="userSpaceOnUse"
       id="radialGradient3523"
       xlink:href="#linearGradient3508"
       inkscape:collect="always" />
    <radialGradient
       r="14.898239"
       fy="909.58490"
       fx="198.90167"
       cy="909.01093"
       cx="198.96782"
       gradientTransform="scale(1.547494,0.646206)"
       gradientUnits="userSpaceOnUse"
       id="radialGradient1195"
       xlink:href="#linearGradient3508"
       inkscape:collect="always" />
  </defs>
  <sodipodi:namedview
     showborder="false"
     inkscape:window-y="39"
     inkscape:window-x="0"
     inkscape:window-height="654"
     inkscape:window-width="825"
     inkscape:current-layer="layer1"
     inkscape:cy="303.74752"
     inkscape:cx="667.12730"
     inkscape:zoom="1.6747183"
     inkscape:pageshadow="2"
     inkscape:pageopacity="0.0"
     borderopacity="1.0"
     bordercolor="#666666"
     pagecolor="#ffffff"
     id="base" />
  <metadata
     id="metadata4">
    <rdf:RDF
       id="RDF5">
      <cc:Work
         id="Work6"
         rdf:about="">
        <dc:format
           id="format7">image/svg+xml</dc:format>
        <dc:type
           rdf:resource="http://purl.org/dc/dcmitype/StillImage"
           id="type9" />
      </cc:Work>
    </rdf:RDF>
  </metadata>
  <g
     id="layer1"
     inkscape:groupmode="layer"
     inkscape:label="Layer 1">
    <rect
       transform="matrix(1.417309,0.000000,0.000000,1.874534,-235.0703,-534.9604)"
       y="517.04688"
       x="359.70108"
       height="361.24158"
       width="751.75220"
       id="rect1386"
       style="color:#000000;fill:#ff0a00;fill-opacity:1.0000000;fill-rule:evenodd;stroke:none;stroke-width:2.5000000;stroke-linecap:butt;stroke-linejoin:round;stroke-miterlimit:4.0000000;stroke-dashoffset:0.0000000;stroke-opacity:1.0000000;marker:none;marker-start:none;marker-mid:none;marker-end:none;visibility:visible;display:block" />
    <g
       inkscape:tile-cy="536.40016"
       inkscape:tile-cx="336.93399"
       inkscape:tile-h="30.283344"
       inkscape:tile-w="80.925240"
       id="g1290">
      <path
         sodipodi:nodetypes="ccccccsccccccccccscccccscccccccccccccccccccccccccccccccc"
         id="path1353"
         d="M 306.81250,518.28125 C 306.57461,518.29175 306.39530,518.40493 306.25000,518.62500 C 303.40107,522.93989 304.23430,522.10801 305.81250,527.62500 C 306.75167,530.90812 307.43893,535.84545 306.25047,539.86068 C 306.22354,539.85190 299.14100,539.66839 296.71875,536.15625 C 294.49136,536.26967 288.67233,537.19392 288.77386,542.72661 C 291.60193,545.64712 294.29252,547.09396 297.98045,548.22352 L 303.37238,549.87500 C 304.97406,550.28730 305.91058,550.88889 307.40363,553.87500 C 308.34708,555.76189 302.02156,556.86444 300.71875,557.12500 C 297.88302,557.69216 294.03806,557.65625 290.43750,557.65625 C 286.78125,557.65623 283.44350,557.63510 280.65625,558.75000 C 277.61572,559.96619 275.64997,562.29346 274.15625,563.78718 C 273.40037,564.54307 272.67963,565.46692 271.96875,566.06250 C 267.04776,572.45979 265.88216,581.31324 270.46875,591.78125 C 272.20616,596.26085 278.13765,600.47847 278.50000,605.50000 C 278.90623,611.12966 282.69029,618.84301 289.71875,619.43750 C 299.64211,620.27687 301.12763,621.28196 303.84375,621.22771 C 309.31311,621.11847 316.23201,620.77358 319.46875,620.18750 C 320.15151,620.06387 320.83029,620.02137 321.53125,619.93750 C 321.32100,618.48772 321.22186,617.02894 321.68750,616.03125 C 322.18077,614.97434 323.39355,611.45605 326.09375,612.25000 C 329.65508,613.29717 331.63567,615.56162 334.06250,618.40754 C 336.91968,617.88647 337.58769,617.77492 338.50386,616.37288 C 339.89543,614.24333 341.21954,612.75081 336.09375,606.78125 C 333.04836,603.23456 327.75826,607.49617 326.75000,600.43750 C 327.29775,599.76298 327.67627,599.06770 328.12500,598.37500 C 331.80935,597.69564 334.62221,597.00075 337.31250,594.43750 C 339.35018,592.49604 336.91867,589.70564 336.25000,588.75000 C 335.68127,587.93717 334.50479,587.29897 333.28125,586.78125 C 333.71981,585.56991 334.11338,584.31898 334.65625,583.15625 C 337.62980,576.78744 340.87653,570.32571 345.59375,563.50000 C 346.89513,561.61691 351.03858,553.18096 362.36203,554.57344 C 362.41835,554.54528 362.49277,554.50865 362.54953,554.47969 C 363.10112,554.71111 363.72105,554.90774 364.23703,555.01094 C 364.82513,555.12854 365.24943,555.41838 365.76828,555.72969 C 366.27595,556.03427 366.48925,556.13639 367.11203,556.26094 C 367.54531,556.34762 368.11370,556.44844 368.70578,556.44844 C 368.97202,556.44842 368.62285,555.53939 368.36203,555.10469 C 368.07791,554.63115 367.89328,554.35369 367.89328,553.66719 C 367.89328,552.73477 367.04824,551.14964 367.00000,550.25000 C 367.90741,549.52773 368.85445,548.83303 369.65625,548.03125 C 371.27605,546.41145 373.44425,543.23497 374.34375,539.90625 C 374.67808,539.65550 377.84787,536.54124 377.46891,536.16228 C 377.26164,535.95500 374.58221,533.00100 374.31250,532.87500 C 373.69035,530.10145 372.57378,528.23262 371.84375,525.31250 C 371.35687,523.36496 368.33025,520.53207 366.50000,520.21875 C 365.40185,520.03076 362.15531,520.75188 360.96875,523.12500 C 359.40017,526.26218 359.83142,529.41858 357.34375,531.90625 C 355.24927,534.00073 353.81149,536.21374 350.62500,538.60363 C 348.65764,540.07915 346.92717,541.44562 345.18750,542.06250 C 345.18750,542.06250 333.25287,542.44717 332.21875,542.17008 C 330.17829,541.62334 326.85481,541.28889 324.28125,539.26383 C 321.92209,537.40745 320.29688,535.38519 318.46875,532.21875 C 316.66847,529.10057 314.75276,525.73470 312.84375,523.56250 C 312.07633,522.68926 308.47771,518.20772 306.81250,518.28125 z "
         style="fill:#ffd300;fill-opacity:1.0000000;fill-rule:evenodd;stroke:#000000;stroke-width:2.5000000;stroke-linecap:butt;stroke-linejoin:round;stroke-opacity:1.0000000;opacity:1.0000000;stroke-miterlimit:4.0000000;stroke-dasharray:none;" />
      <path
         transform="matrix(1.268764,0.000000,0.000000,1.268764,-98.58983,-144.6807)"
         d="M 369.49063 536.34937 A 2.6543868 3.1852641 0 1 1  364.18186,536.34937 A 2.6543868 3.1852641 0 1 1  369.49063 536.34937 z"
         sodipodi:ry="3.1852641"
         sodipodi:rx="2.6543868"
         sodipodi:cy="536.34937"
         sodipodi:cx="366.83624"
         id="path2215"
         style="color:#000000;fill:#ffffff;fill-opacity:1.0000000;fill-rule:evenodd;stroke:none;stroke-width:0.080261566;stroke-linecap:butt;stroke-linejoin:miter;stroke-miterlimit:3.0000000;stroke-dashoffset:0.0000000;stroke-opacity:1.0000000;marker:none;marker-start:none;marker-mid:none;marker-end:none;visibility:visible;display:block"
         sodipodi:type="arc" />
      <path
         d="M 369.37849 533.13312 A 1.5807023 1.2645618 0 1 1  366.21709,533.13312 A 1.5807023 1.2645618 0 1 1  369.37849 533.13312 z"
         sodipodi:ry="1.2645618"
         sodipodi:rx="1.5807023"
         sodipodi:cy="533.13312"
         sodipodi:cx="367.79779"
         id="path2216"
         style="color:#000000;fill:#000000;fill-opacity:1.0000000;fill-rule:evenodd;stroke:none;stroke-width:0.080261566;stroke-linecap:butt;stroke-linejoin:miter;stroke-miterlimit:3.0000000;stroke-dashoffset:0.0000000;stroke-opacity:1.0000000;marker:none;marker-start:none;marker-mid:none;marker-end:none;visibility:visible;display:block;"
         sodipodi:type="arc" />
      <path
         sodipodi:nodetypes="cc"
         transform="translate(0.000000,0.417450)"
         id="path2220"
         d="M 303.82877,539.49482 C 312.67984,541.15818 326.45078,540.86112 328.51055,560.04782"
         style="fill:none;fill-opacity:0.75000000;fill-rule:evenodd;stroke:#000000;stroke-width:1.0000000pt;stroke-linecap:butt;stroke-linejoin:miter;stroke-opacity:1.0000000" />
      <path
         transform="matrix(-8.852539e-8,1.000000,1.000000,8.852539e-8,-181.3865,186.6669)"
         id="path2221"
         d="M 367.04413,550.19524 C 366.72075,551.48877 364.87840,548.61850 363.68582,548.02221 C 362.31236,547.33548 361.50290,547.18016 360.12995,546.83692 C 359.08880,546.57663 358.05050,546.63937 356.96919,546.63937"
         style="fill:none;fill-opacity:0.75000000;fill-rule:evenodd;stroke:#000000;stroke-width:1.0000000pt;stroke-linecap:butt;stroke-linejoin:miter;stroke-opacity:1.0000000" />
      <path
         id="path2222"
         d="M 358.74713,533.99628 C 357.39595,535.72536 357.40966,539.28875 359.99677,539.79450 C 360.43397,539.86963 360.88891,539.85041 361.31525,539.72522"
         style="fill:none;fill-opacity:0.75000000;fill-rule:evenodd;stroke:#000000;stroke-width:1.0000000pt;stroke-linecap:butt;stroke-linejoin:miter;stroke-opacity:1.0000000" />
      <path
         transform="translate(0.000000,0.358292)"
         sodipodi:nodetypes="ccc"
         id="path2226"
         d="M 327.73209,597.01410 C 325.31623,591.54806 316.35821,598.42700 317.34013,601.83950 C 313.84151,606.22918 298.54238,610.21864 295.38205,602.83687"
         style="fill:none;fill-opacity:0.75000000;fill-rule:evenodd;stroke:#000000;stroke-width:1.0000000pt;stroke-linecap:butt;stroke-linejoin:miter;stroke-opacity:1.0000000" />
      <path
         transform="translate(-1.520105,-0.100527)"
         id="path2886"
         d="M 310.46875,573.81250 C 304.50608,573.81250 299.24929,576.45844 296.09375,580.46875 C 296.85852,581.25224 297.57982,582.07631 298.46875,582.75000 C 299.92436,583.85316 301.50113,584.80712 303.12500,585.62500 C 304.74887,586.44288 306.41234,587.11231 308.00000,587.65625 C 309.04233,588.10786 310.08177,588.41810 311.12500,588.59375 C 312.16823,588.76940 313.20607,588.80865 314.25000,588.78125 C 316.33785,588.72646 318.44180,588.33577 320.53125,587.90625 C 322.62070,587.47673 324.72303,587.03348 326.81250,586.81250 C 327.10498,586.78157 327.39504,586.80158 327.68750,586.78125 C 326.37948,579.43268 319.19299,573.81249 310.46875,573.81250 z "
         style="opacity:0.16666667;color:#000000;fill:url(#radialGradient3521);fill-opacity:1.0;fill-rule:evenodd;stroke:none;stroke-width:2.5000000;stroke-linecap:butt;stroke-linejoin:miter;stroke-miterlimit:4.0000000;stroke-dashoffset:0.0000000;stroke-opacity:1.0000000;marker:none;marker-start:none;marker-mid:none;marker-end:none;visibility:visible;display:block;" />
      <path
         transform="translate(0.000000,0.436956)"
         id="path3512"
         d="M 333.06589,586.74164 C 324.71430,584.45822 316.34379,590.84256 308.00513,587.22967 C 301.65449,585.05391 294.19637,580.73203 292.17346,573.90100"
         style="fill:none;fill-opacity:0.75000000;fill-rule:evenodd;stroke:#000000;stroke-width:1.0000000pt;stroke-linecap:butt;stroke-linejoin:miter;stroke-opacity:1.0000000" />
      <path
         sodipodi:nodetypes="cccc"
         transform="translate(9.120633,-38.71985)"
         id="path3522"
         d="M 310.46875,573.81250 C 304.50608,573.81250 299.24929,575.39809 296.09375,579.40840 C 318.53684,578.57258 318.78111,598.96242 319.07357,598.94209 C 346.87162,580.88552 319.19299,573.81249 310.46875,573.81250 z "
         style="opacity:0.16666664;color:#000000;fill:url(#radialGradient3523);fill-opacity:1.0000000;fill-rule:evenodd;stroke:none;stroke-width:2.5000000;stroke-linecap:butt;stroke-linejoin:miter;stroke-miterlimit:4.0000000;stroke-dashoffset:0.0000000;stroke-opacity:1.0000000;marker:none;marker-start:none;marker-mid:none;marker-end:none;visibility:visible;display:block" />
      <path
         sodipodi:nodetypes="cccc"
         transform="matrix(-0.707107,0.707107,-0.707107,-0.707107,944.7754,798.2549)"
         id="path1194"
         d="M 310.46875,573.81250 C 304.50608,573.81250 300.20684,579.54386 297.05130,583.55417 C 315.47483,579.81326 323.74204,592.47424 320.35030,598.30373 C 339.81705,589.94176 319.19299,573.81249 310.46875,573.81250 z "
         style="opacity:0.16666664;color:#000000;fill:url(#radialGradient1195);fill-opacity:1.0000000;fill-rule:evenodd;stroke:none;stroke-width:2.5000000;stroke-linecap:butt;stroke-linejoin:miter;stroke-miterlimit:4.0000000;stroke-dashoffset:0.0000000;stroke-opacity:1.0000000;marker:none;marker-start:none;marker-mid:none;marker-end:none;visibility:visible;display:block" />
      <path
         sodipodi:nodetypes="csccc"
         transform="matrix(0.595823,-0.586335,-0.586335,-0.595823,468.1987,1125.937)"
         id="path1818"
         d="M 286.70212,595.81818 C 284.58065,601.43052 276.68272,597.76178 277.88321,592.09119 C 278.76633,587.91970 284.05499,582.70135 286.82645,587.61116 C 288.43583,591.55346 280.19720,594.97918 281.33076,589.94395 C 281.80652,589.63731 282.42300,589.61685 282.94455,589.80609"
         style="fill:none;fill-opacity:0.75000000;fill-rule:evenodd;stroke:#000000;stroke-width:1.1962602pt;stroke-linecap:butt;stroke-linejoin:miter;stroke-opacity:1.0000000" />
    </g>
    <use
       id="use2388"
       transform="translate(121.3879,70.08331)"
       xlink:href="#g1290"
       inkscape:tiled-clone-of="#g1290"
       y="0"
       x="0" />
    <use
       id="use2389"
       transform="translate(0.000000,140.1666)"
       xlink:href="#g1290"
       inkscape:tiled-clone-of="#g1290"
       y="0"
       x="0" />
    <use
       id="use2390"
       transform="translate(121.3879,210.2499)"
       xlink:href="#g1290"
       inkscape:tiled-clone-of="#g1290"
       y="0"
       x="0" />
    <use
       id="use2391"
       transform="translate(0.000000,280.3333)"
       xlink:href="#g1290"
       inkscape:tiled-clone-of="#g1290"
       y="0"
       x="0" />
    <use
       id="use2392"
       transform="translate(121.3879,350.4166)"
       xlink:href="#g1290"
       inkscape:tiled-clone-of="#g1290"
       y="0"
       x="0" />
    <use
       id="use2393"
       transform="translate(0.000000,420.4999)"
       xlink:href="#g1290"
       inkscape:tiled-clone-of="#g1290"
       y="0"
       x="0" />
    <use
       id="use2394"
       transform="translate(121.3879,490.5832)"
       xlink:href="#g1290"
       inkscape:tiled-clone-of="#g1290"
       y="0"
       x="0" />
    <use
       id="use2395"
       transform="translate(0.000000,560.6665)"
       xlink:href="#g1290"
       inkscape:tiled-clone-of="#g1290"
       y="0"
       x="0" />
    <use
       id="use2396"
       opacity="0.85000000"
       transform="matrix(-0.500000,0.866025,-0.866025,-0.500000,1030.631,477.7652)"
       xlink:href="#g1290"
       inkscape:tiled-clone-of="#g1290"
       y="0"
       x="0" />
    <use
       id="use2397"
       opacity="0.85000000"
       transform="matrix(-0.500000,0.866025,-0.866025,-0.500000,1152.019,547.8485)"
       xlink:href="#g1290"
       inkscape:tiled-clone-of="#g1290"
       y="0"
       x="0" />
    <use
       id="use2398"
       opacity="0.85000000"
       transform="matrix(-0.500000,0.866025,-0.866025,-0.500000,1030.631,617.9318)"
       xlink:href="#g1290"
       inkscape:tiled-clone-of="#g1290"
       y="0"
       x="0" />
    <use
       id="use2399"
       opacity="0.85000000"
       transform="matrix(-0.500000,0.866025,-0.866025,-0.500000,1152.019,688.0151)"
       xlink:href="#g1290"
       inkscape:tiled-clone-of="#g1290"
       y="0"
       x="0" />
    <use
       id="use2400"
       opacity="0.85000000"
       transform="matrix(-0.500000,0.866025,-0.866025,-0.500000,1030.631,758.0984)"
       xlink:href="#g1290"
       inkscape:tiled-clone-of="#g1290"
       y="0"
       x="0" />
    <use
       id="use2401"
       opacity="0.85000000"
       transform="matrix(-0.500000,0.866025,-0.866025,-0.500000,1152.019,828.1818)"
       xlink:href="#g1290"
       inkscape:tiled-clone-of="#g1290"
       y="0"
       x="0" />
    <use
       id="use2402"
       opacity="0.85000000"
       transform="matrix(-0.500000,0.866025,-0.866025,-0.500000,1030.631,898.2651)"
       xlink:href="#g1290"
       inkscape:tiled-clone-of="#g1290"
       y="0"
       x="0" />
    <use
       id="use2403"
       opacity="0.85000000"
       transform="matrix(-0.500000,0.866025,-0.866025,-0.500000,1152.019,968.3484)"
       xlink:href="#g1290"
       inkscape:tiled-clone-of="#g1290"
       y="0"
       x="0" />
    <use
       id="use2404"
       opacity="0.85000000"
       transform="matrix(-0.500000,0.866025,-0.866025,-0.500000,1030.631,1038.432)"
       xlink:href="#g1290"
       inkscape:tiled-clone-of="#g1290"
       y="0"
       x="0" />
    <use
       id="use2405"
       transform="matrix(-0.500000,-0.866025,0.866025,-0.500000,101.5587,1131.435)"
       xlink:href="#g1290"
       inkscape:tiled-clone-of="#g1290"
       y="0"
       x="0" />
    <use
       id="use2406"
       transform="matrix(-0.500000,-0.866025,0.866025,-0.500000,222.9466,1201.519)"
       xlink:href="#g1290"
       inkscape:tiled-clone-of="#g1290"
       y="0"
       x="0" />
    <use
       id="use2407"
       transform="matrix(-0.500000,-0.866025,0.866025,-0.500000,101.5587,1271.602)"
       xlink:href="#g1290"
       inkscape:tiled-clone-of="#g1290"
       y="0"
       x="0" />
    <use
       id="use2408"
       transform="matrix(-0.500000,-0.866025,0.866025,-0.500000,222.9466,1341.685)"
       xlink:href="#g1290"
       inkscape:tiled-clone-of="#g1290"
       y="0"
       x="0" />
    <use
       id="use2409"
       transform="matrix(-0.500000,-0.866025,0.866025,-0.500000,101.5587,1411.769)"
       xlink:href="#g1290"
       inkscape:tiled-clone-of="#g1290"
       y="0"
       x="0" />
    <use
       id="use2410"
       transform="matrix(-0.500000,-0.866025,0.866025,-0.500000,222.9466,1481.852)"
       xlink:href="#g1290"
       inkscape:tiled-clone-of="#g1290"
       y="0"
       x="0" />
    <use
       id="use2411"
       transform="matrix(-0.500000,-0.866025,0.866025,-0.500000,101.5587,1551.935)"
       xlink:href="#g1290"
       inkscape:tiled-clone-of="#g1290"
       y="0"
       x="0" />
    <use
       id="use2412"
       transform="matrix(-0.500000,-0.866025,0.866025,-0.500000,222.9466,1622.018)"
       xlink:href="#g1290"
       inkscape:tiled-clone-of="#g1290"
       y="0"
       x="0" />
    <use
       id="use2413"
       transform="matrix(-0.500000,-0.866025,0.866025,-0.500000,101.5587,1692.102)"
       xlink:href="#g1290"
       inkscape:tiled-clone-of="#g1290"
       y="0"
       x="0" />
    <use
       id="use2414"
       opacity="0.85000000"
       transform="translate(242.7757,0.000000)"
       xlink:href="#g1290"
       inkscape:tiled-clone-of="#g1290"
       y="0"
       x="0" />
    <use
       id="use2415"
       opacity="0.85000000"
       transform="translate(364.1636,70.08331)"
       xlink:href="#g1290"
       inkscape:tiled-clone-of="#g1290"
       y="0"
       x="0" />
    <use
       id="use2416"
       opacity="0.85000000"
       transform="translate(242.7757,140.1666)"
       xlink:href="#g1290"
       inkscape:tiled-clone-of="#g1290"
       y="0"
       x="0" />
    <use
       id="use2417"
       opacity="0.85000000"
       transform="translate(364.1636,210.2499)"
       xlink:href="#g1290"
       inkscape:tiled-clone-of="#g1290"
       y="0"
       x="0" />
    <use
       id="use2418"
       opacity="0.85000000"
       transform="translate(242.7757,280.3333)"
       xlink:href="#g1290"
       inkscape:tiled-clone-of="#g1290"
       y="0"
       x="0" />
    <use
       id="use2419"
       opacity="0.85000000"
       transform="translate(364.1636,350.4166)"
       xlink:href="#g1290"
       inkscape:tiled-clone-of="#g1290"
       y="0"
       x="0" />
    <use
       id="use2420"
       opacity="0.85000000"
       transform="translate(242.7757,420.4999)"
       xlink:href="#g1290"
       inkscape:tiled-clone-of="#g1290"
       y="0"
       x="0" />
    <use
       id="use2421"
       opacity="0.85000000"
       transform="translate(364.1636,490.5832)"
       xlink:href="#g1290"
       inkscape:tiled-clone-of="#g1290"
       y="0"
       x="0" />
    <use
       id="use2422"
       opacity="0.85000000"
       transform="translate(242.7757,560.6665)"
       xlink:href="#g1290"
       inkscape:tiled-clone-of="#g1290"
       y="0"
       x="0" />
    <use
       id="use2423"
       transform="matrix(-0.500000,0.866025,-0.866025,-0.500000,1273.407,477.7652)"
       xlink:href="#g1290"
       inkscape:tiled-clone-of="#g1290"
       y="0"
       x="0" />
    <use
       id="use2424"
       transform="matrix(-0.500000,0.866025,-0.866025,-0.500000,1394.795,547.8485)"
       xlink:href="#g1290"
       inkscape:tiled-clone-of="#g1290"
       y="0"
       x="0" />
    <use
       id="use2425"
       transform="matrix(-0.500000,0.866025,-0.866025,-0.500000,1273.407,617.9318)"
       xlink:href="#g1290"
       inkscape:tiled-clone-of="#g1290"
       y="0"
       x="0" />
    <use
       id="use2426"
       transform="matrix(-0.500000,0.866025,-0.866025,-0.500000,1394.795,688.0151)"
       xlink:href="#g1290"
       inkscape:tiled-clone-of="#g1290"
       y="0"
       x="0" />
    <use
       id="use2427"
       transform="matrix(-0.500000,0.866025,-0.866025,-0.500000,1273.407,758.0984)"
       xlink:href="#g1290"
       inkscape:tiled-clone-of="#g1290"
       y="0"
       x="0" />
    <use
       id="use2428"
       transform="matrix(-0.500000,0.866025,-0.866025,-0.500000,1394.795,828.1818)"
       xlink:href="#g1290"
       inkscape:tiled-clone-of="#g1290"
       y="0"
       x="0" />
    <use
       id="use2429"
       transform="matrix(-0.500000,0.866025,-0.866025,-0.500000,1273.407,898.2651)"
       xlink:href="#g1290"
       inkscape:tiled-clone-of="#g1290"
       y="0"
       x="0" />
    <use
       id="use2430"
       transform="matrix(-0.500000,0.866025,-0.866025,-0.500000,1394.795,968.3484)"
       xlink:href="#g1290"
       inkscape:tiled-clone-of="#g1290"
       y="0"
       x="0" />
    <use
       id="use2431"
       transform="matrix(-0.500000,0.866025,-0.866025,-0.500000,1273.407,1038.432)"
       xlink:href="#g1290"
       inkscape:tiled-clone-of="#g1290"
       y="0"
       x="0" />
    <use
       id="use2432"
       opacity="0.85000000"
       transform="matrix(-0.500000,-0.866025,0.866025,-0.500000,344.3345,1131.435)"
       xlink:href="#g1290"
       inkscape:tiled-clone-of="#g1290"
       y="0"
       x="0" />
    <use
       id="use2433"
       opacity="0.85000000"
       transform="matrix(-0.500000,-0.866025,0.866025,-0.500000,465.7223,1201.519)"
       xlink:href="#g1290"
       inkscape:tiled-clone-of="#g1290"
       y="0"
       x="0" />
    <use
       id="use2434"
       opacity="0.85000000"
       transform="matrix(-0.500000,-0.866025,0.866025,-0.500000,344.3345,1271.602)"
       xlink:href="#g1290"
       inkscape:tiled-clone-of="#g1290"
       y="0"
       x="0" />
    <use
       id="use2435"
       opacity="0.85000000"
       transform="matrix(-0.500000,-0.866025,0.866025,-0.500000,465.7223,1341.685)"
       xlink:href="#g1290"
       inkscape:tiled-clone-of="#g1290"
       y="0"
       x="0" />
    <use
       id="use2436"
       opacity="0.85000000"
       transform="matrix(-0.500000,-0.866025,0.866025,-0.500000,344.3345,1411.769)"
       xlink:href="#g1290"
       inkscape:tiled-clone-of="#g1290"
       y="0"
       x="0" />
    <use
       id="use2437"
       opacity="0.85000000"
       transform="matrix(-0.500000,-0.866025,0.866025,-0.500000,465.7223,1481.852)"
       xlink:href="#g1290"
       inkscape:tiled-clone-of="#g1290"
       y="0"
       x="0" />
    <use
       id="use2438"
       opacity="0.85000000"
       transform="matrix(-0.500000,-0.866025,0.866025,-0.500000,344.3345,1551.935)"
       xlink:href="#g1290"
       inkscape:tiled-clone-of="#g1290"
       y="0"
       x="0" />
    <use
       id="use2439"
       opacity="0.85000000"
       transform="matrix(-0.500000,-0.866025,0.866025,-0.500000,465.7223,1622.018)"
       xlink:href="#g1290"
       inkscape:tiled-clone-of="#g1290"
       y="0"
       x="0" />
    <use
       id="use2440"
       opacity="0.85000000"
       transform="matrix(-0.500000,-0.866025,0.866025,-0.500000,344.3345,1692.102)"
       xlink:href="#g1290"
       inkscape:tiled-clone-of="#g1290"
       y="0"
       x="0" />
    <use
       id="use2441"
       transform="translate(485.5514,0.000000)"
       xlink:href="#g1290"
       inkscape:tiled-clone-of="#g1290"
       y="0"
       x="0" />
    <use
       id="use2442"
       transform="translate(606.9393,70.08331)"
       xlink:href="#g1290"
       inkscape:tiled-clone-of="#g1290"
       y="0"
       x="0" />
    <use
       id="use2443"
       transform="translate(485.5514,140.1666)"
       xlink:href="#g1290"
       inkscape:tiled-clone-of="#g1290"
       y="0"
       x="0" />
    <use
       id="use2444"
       transform="translate(606.9393,210.2499)"
       xlink:href="#g1290"
       inkscape:tiled-clone-of="#g1290"
       y="0"
       x="0" />
    <use
       id="use2445"
       transform="translate(485.5514,280.3333)"
       xlink:href="#g1290"
       inkscape:tiled-clone-of="#g1290"
       y="0"
       x="0" />
    <use
       id="use2446"
       transform="translate(606.9393,350.4166)"
       xlink:href="#g1290"
       inkscape:tiled-clone-of="#g1290"
       y="0"
       x="0" />
    <use
       id="use2447"
       transform="translate(485.5514,420.4999)"
       xlink:href="#g1290"
       inkscape:tiled-clone-of="#g1290"
       y="0"
       x="0" />
    <use
       id="use2448"
       transform="translate(606.9393,490.5832)"
       xlink:href="#g1290"
       inkscape:tiled-clone-of="#g1290"
       y="0"
       x="0" />
    <use
       id="use2449"
       transform="translate(485.5514,560.6665)"
       xlink:href="#g1290"
       inkscape:tiled-clone-of="#g1290"
       y="0"
       x="0" />
    <use
       id="use2450"
       opacity="0.85000000"
       transform="matrix(-0.500000,0.866025,-0.866025,-0.500000,1516.183,477.7652)"
       xlink:href="#g1290"
       inkscape:tiled-clone-of="#g1290"
       y="0"
       x="0" />
    <use
       id="use2451"
       opacity="0.85000000"
       transform="matrix(-0.500000,0.866025,-0.866025,-0.500000,1637.570,547.8485)"
       xlink:href="#g1290"
       inkscape:tiled-clone-of="#g1290"
       y="0"
       x="0" />
    <use
       id="use2452"
       opacity="0.85000000"
       transform="matrix(-0.500000,0.866025,-0.866025,-0.500000,1516.183,617.9318)"
       xlink:href="#g1290"
       inkscape:tiled-clone-of="#g1290"
       y="0"
       x="0" />
    <use
       id="use2453"
       opacity="0.85000000"
       transform="matrix(-0.500000,0.866025,-0.866025,-0.500000,1637.570,688.0151)"
       xlink:href="#g1290"
       inkscape:tiled-clone-of="#g1290"
       y="0"
       x="0" />
    <use
       id="use2454"
       opacity="0.85000000"
       transform="matrix(-0.500000,0.866025,-0.866025,-0.500000,1516.183,758.0984)"
       xlink:href="#g1290"
       inkscape:tiled-clone-of="#g1290"
       y="0"
       x="0" />
    <use
       id="use2455"
       opacity="0.85000000"
       transform="matrix(-0.500000,0.866025,-0.866025,-0.500000,1637.570,828.1818)"
       xlink:href="#g1290"
       inkscape:tiled-clone-of="#g1290"
       y="0"
       x="0" />
    <use
       id="use2456"
       opacity="0.85000000"
       transform="matrix(-0.500000,0.866025,-0.866025,-0.500000,1516.183,898.2651)"
       xlink:href="#g1290"
       inkscape:tiled-clone-of="#g1290"
       y="0"
       x="0" />
    <use
       id="use2457"
       opacity="0.85000000"
       transform="matrix(-0.500000,0.866025,-0.866025,-0.500000,1637.570,968.3484)"
       xlink:href="#g1290"
       inkscape:tiled-clone-of="#g1290"
       y="0"
       x="0" />
    <use
       id="use2458"
       opacity="0.85000000"
       transform="matrix(-0.500000,0.866025,-0.866025,-0.500000,1516.183,1038.432)"
       xlink:href="#g1290"
       inkscape:tiled-clone-of="#g1290"
       y="0"
       x="0" />
    <use
       id="use2459"
       transform="matrix(-0.500000,-0.866025,0.866025,-0.500000,587.1102,1131.435)"
       xlink:href="#g1290"
       inkscape:tiled-clone-of="#g1290"
       y="0"
       x="0" />
    <use
       id="use2460"
       transform="matrix(-0.500000,-0.866025,0.866025,-0.500000,708.4980,1201.519)"
       xlink:href="#g1290"
       inkscape:tiled-clone-of="#g1290"
       y="0"
       x="0" />
    <use
       id="use2461"
       transform="matrix(-0.500000,-0.866025,0.866025,-0.500000,587.1102,1271.602)"
       xlink:href="#g1290"
       inkscape:tiled-clone-of="#g1290"
       y="0"
       x="0" />
    <use
       id="use2462"
       transform="matrix(-0.500000,-0.866025,0.866025,-0.500000,708.4980,1341.685)"
       xlink:href="#g1290"
       inkscape:tiled-clone-of="#g1290"
       y="0"
       x="0" />
    <use
       id="use2463"
       transform="matrix(-0.500000,-0.866025,0.866025,-0.500000,587.1102,1411.769)"
       xlink:href="#g1290"
       inkscape:tiled-clone-of="#g1290"
       y="0"
       x="0" />
    <use
       id="use2464"
       transform="matrix(-0.500000,-0.866025,0.866025,-0.500000,708.4980,1481.852)"
       xlink:href="#g1290"
       inkscape:tiled-clone-of="#g1290"
       y="0"
       x="0" />
    <use
       id="use2465"
       transform="matrix(-0.500000,-0.866025,0.866025,-0.500000,587.1102,1551.935)"
       xlink:href="#g1290"
       inkscape:tiled-clone-of="#g1290"
       y="0"
       x="0" />
    <use
       id="use2466"
       transform="matrix(-0.500000,-0.866025,0.866025,-0.500000,708.4980,1622.018)"
       xlink:href="#g1290"
       inkscape:tiled-clone-of="#g1290"
       y="0"
       x="0" />
    <use
       id="use2467"
       transform="matrix(-0.500000,-0.866025,0.866025,-0.500000,587.1102,1692.102)"
       xlink:href="#g1290"
       inkscape:tiled-clone-of="#g1290"
       y="0"
       x="0" />
    <use
       id="use2468"
       opacity="0.85000000"
       transform="translate(728.3272,0.000000)"
       xlink:href="#g1290"
       inkscape:tiled-clone-of="#g1290"
       y="0"
       x="0" />
    <use
       id="use2469"
       opacity="0.85000000"
       transform="translate(849.7150,70.08331)"
       xlink:href="#g1290"
       inkscape:tiled-clone-of="#g1290"
       y="0"
       x="0" />
    <use
       id="use2470"
       opacity="0.85000000"
       transform="translate(728.3272,140.1666)"
       xlink:href="#g1290"
       inkscape:tiled-clone-of="#g1290"
       y="0"
       x="0" />
    <use
       id="use2471"
       opacity="0.85000000"
       transform="translate(849.7150,210.2499)"
       xlink:href="#g1290"
       inkscape:tiled-clone-of="#g1290"
       y="0"
       x="0" />
    <use
       id="use2472"
       opacity="0.85000000"
       transform="translate(728.3272,280.3333)"
       xlink:href="#g1290"
       inkscape:tiled-clone-of="#g1290"
       y="0"
       x="0" />
    <use
       id="use2473"
       opacity="0.85000000"
       transform="translate(849.7150,350.4166)"
       xlink:href="#g1290"
       inkscape:tiled-clone-of="#g1290"
       y="0"
       x="0" />
    <use
       id="use2474"
       opacity="0.85000000"
       transform="translate(728.3272,420.4999)"
       xlink:href="#g1290"
       inkscape:tiled-clone-of="#g1290"
       y="0"
       x="0" />
    <use
       id="use2475"
       opacity="0.85000000"
       transform="translate(849.7150,490.5832)"
       xlink:href="#g1290"
       inkscape:tiled-clone-of="#g1290"
       y="0"
       x="0" />
    <use
       id="use2476"
       opacity="0.85000000"
       transform="translate(728.3272,560.6665)"
       xlink:href="#g1290"
       inkscape:tiled-clone-of="#g1290"
       y="0"
       x="0" />
    <use
       id="use2477"
       transform="matrix(-0.500000,0.866025,-0.866025,-0.500000,1758.958,477.7652)"
       xlink:href="#g1290"
       inkscape:tiled-clone-of="#g1290"
       y="0"
       x="0" />
    <use
       id="use2478"
       transform="matrix(-0.500000,0.866025,-0.866025,-0.500000,1880.346,547.8485)"
       xlink:href="#g1290"
       inkscape:tiled-clone-of="#g1290"
       y="0"
       x="0" />
    <use
       id="use2479"
       transform="matrix(-0.500000,0.866025,-0.866025,-0.500000,1758.958,617.9318)"
       xlink:href="#g1290"
       inkscape:tiled-clone-of="#g1290"
       y="0"
       x="0" />
    <use
       id="use2480"
       transform="matrix(-0.500000,0.866025,-0.866025,-0.500000,1880.346,688.0151)"
       xlink:href="#g1290"
       inkscape:tiled-clone-of="#g1290"
       y="0"
       x="0" />
    <use
       id="use2481"
       transform="matrix(-0.500000,0.866025,-0.866025,-0.500000,1758.958,758.0984)"
       xlink:href="#g1290"
       inkscape:tiled-clone-of="#g1290"
       y="0"
       x="0" />
    <use
       id="use2482"
       transform="matrix(-0.500000,0.866025,-0.866025,-0.500000,1880.346,828.1818)"
       xlink:href="#g1290"
       inkscape:tiled-clone-of="#g1290"
       y="0"
       x="0" />
    <use
       id="use2483"
       transform="matrix(-0.500000,0.866025,-0.866025,-0.500000,1758.958,898.2651)"
       xlink:href="#g1290"
       inkscape:tiled-clone-of="#g1290"
       y="0"
       x="0" />
    <use
       id="use2484"
       transform="matrix(-0.500000,0.866025,-0.866025,-0.500000,1880.346,968.3484)"
       xlink:href="#g1290"
       inkscape:tiled-clone-of="#g1290"
       y="0"
       x="0" />
    <use
       id="use2485"
       transform="matrix(-0.500000,0.866025,-0.866025,-0.500000,1758.958,1038.432)"
       xlink:href="#g1290"
       inkscape:tiled-clone-of="#g1290"
       y="0"
       x="0" />
    <use
       id="use2486"
       opacity="0.85000000"
       transform="matrix(-0.500000,-0.866025,0.866025,-0.500000,829.8859,1131.435)"
       xlink:href="#g1290"
       inkscape:tiled-clone-of="#g1290"
       y="0"
       x="0" />
    <use
       id="use2487"
       opacity="0.85000000"
       transform="matrix(-0.500000,-0.866025,0.866025,-0.500000,951.2738,1201.519)"
       xlink:href="#g1290"
       inkscape:tiled-clone-of="#g1290"
       y="0"
       x="0" />
    <use
       id="use2488"
       opacity="0.85000000"
       transform="matrix(-0.500000,-0.866025,0.866025,-0.500000,829.8859,1271.602)"
       xlink:href="#g1290"
       inkscape:tiled-clone-of="#g1290"
       y="0"
       x="0" />
    <use
       id="use2489"
       opacity="0.85000000"
       transform="matrix(-0.500000,-0.866025,0.866025,-0.500000,951.2738,1341.685)"
       xlink:href="#g1290"
       inkscape:tiled-clone-of="#g1290"
       y="0"
       x="0" />
    <use
       id="use2490"
       opacity="0.85000000"
       transform="matrix(-0.500000,-0.866025,0.866025,-0.500000,829.8859,1411.769)"
       xlink:href="#g1290"
       inkscape:tiled-clone-of="#g1290"
       y="0"
       x="0" />
    <use
       id="use2491"
       opacity="0.85000000"
       transform="matrix(-0.500000,-0.866025,0.866025,-0.500000,951.2738,1481.852)"
       xlink:href="#g1290"
       inkscape:tiled-clone-of="#g1290"
       y="0"
       x="0" />
    <use
       id="use2492"
       opacity="0.85000000"
       transform="matrix(-0.500000,-0.866025,0.866025,-0.500000,829.8859,1551.935)"
       xlink:href="#g1290"
       inkscape:tiled-clone-of="#g1290"
       y="0"
       x="0" />
    <use
       id="use2493"
       opacity="0.85000000"
       transform="matrix(-0.500000,-0.866025,0.866025,-0.500000,951.2738,1622.018)"
       xlink:href="#g1290"
       inkscape:tiled-clone-of="#g1290"
       y="0"
       x="0" />
    <use
       id="use2494"
       opacity="0.85000000"
       transform="matrix(-0.500000,-0.866025,0.866025,-0.500000,829.8859,1692.102)"
       xlink:href="#g1290"
       inkscape:tiled-clone-of="#g1290"
       y="0"
       x="0" />
  </g>
</svg>
