<?xml version="1.0" encoding="UTF-8" standalone="no"?>
<!-- Created with Inkscape (http://www.inkscape.org/) -->

<svg
   xmlns:dc="http://purl.org/dc/elements/1.1/"
   xmlns:cc="http://creativecommons.org/ns#"
   xmlns:rdf="http://www.w3.org/1999/02/22-rdf-syntax-ns#"
   xmlns:svg="http://www.w3.org/2000/svg"
   xmlns="http://www.w3.org/2000/svg"
   xmlns:xlink="http://www.w3.org/1999/xlink"
   xmlns:sodipodi="http://sodipodi.sourceforge.net/DTD/sodipodi-0.dtd"
   xmlns:inkscape="http://www.inkscape.org/namespaces/inkscape"
   version="1.0"
   width="800"
   height="373.33334"
   onload="Start(evt)"
   id="svg2707"
   sodipodi:version="0.32"
   inkscape:version="0.92.0 r15304"
   sodipodi:docname="animated-clock.svg"
   inkscape:output_extension="org.inkscape.output.svg.inkscape"
   sodipodi:modified="true">
  <metadata
     id="metadata11358">
    <rdf:RDF>
      <cc:Work
         rdf:about="">
        <dc:format>image/svg+xml</dc:format>
        <dc:type
           rdf:resource="http://purl.org/dc/dcmitype/StillImage" />
        <cc:license
           rdf:resource="http://creativecommons.org/licenses/by-nc-nd/2.5/" />
        <dc:title>Mechanical Clock</dc:title>
        <dc:date>7 January 2007</dc:date>
        <dc:creator>
          <cc:Agent>
            <dc:title>Tavmjong Bah</dc:title>
          </cc:Agent>
        </dc:creator>
        <dc:description>Mechanical Clock with Hour, Minute, and Second hands.</dc:description>
        <dc:contributor>
          <cc:Agent>
            <dc:title>Gears created with python script from Aaron Spike.</dc:title>
          </cc:Agent>
        </dc:contributor>
        <dc:subject>
          <rdf:Bag>
            <rdf:li>SVG</rdf:li>
            <rdf:li>Clock</rdf:li>
            <rdf:li>Animation</rdf:li>
          </rdf:Bag>
        </dc:subject>
      </cc:Work>
      <cc:License
         rdf:about="http://creativecommons.org/licenses/by-nc-nd/2.5/">
        <cc:permits
           rdf:resource="http://web.resource.org/cc/Reproduction" />
        <cc:permits
           rdf:resource="http://web.resource.org/cc/Distribution" />
        <cc:requires
           rdf:resource="http://web.resource.org/cc/Notice" />
        <cc:requires
           rdf:resource="http://web.resource.org/cc/Attribution" />
        <cc:prohibits
           rdf:resource="http://web.resource.org/cc/CommercialUse" />
      </cc:License>
    </rdf:RDF>
  </metadata>
  <sodipodi:namedview
     inkscape:window-height="653"
     inkscape:window-width="1036"
     inkscape:pageshadow="2"
     inkscape:pageopacity="0.0"
     guidetolerance="10.0"
     gridtolerance="10.0"
     objecttolerance="10.0"
     borderopacity="1.0"
     bordercolor="#666666"
     pagecolor="#ffffff"
     id="base"
     inkscape:zoom="1.1225"
     inkscape:cx="400"
     inkscape:cy="186.66667"
     inkscape:window-x="549"
     inkscape:window-y="52"
     inkscape:current-layer="svg2707"
     showgrid="false"
     inkscape:window-maximized="0" />
  <defs
     id="defs2806" />
  <script
     type="text/ecmascript"
     id="script2259">

    var angle_seconds = 0;
    var angle_gear7_5 = 0;
    var angle_minutes = 0;
    var angle_gear180 = 0;
    var angle_hours   = 0;

    // Keep track of old time... so we don't update the display if not necessary.  
    // This is a mechanical clock so it's OK to move the second hand once every second.
    var old_time = 0;

    // The gear groups
    var seconds;
    var gear7_5;
    var minutes;
    var gear180;
    var hours;
    var second_hand;
    var minute_hand;
    var hour_hand;

    function Start(evt) {
      seconds     = evt.target.ownerDocument.getElementById(&quot;RotSeconds&quot;);
      gear7_5     = evt.target.ownerDocument.getElementById(&quot;RotGear7_5&quot;);
      minutes     = evt.target.ownerDocument.getElementById(&quot;RotMinutes&quot;);
      gear180     = evt.target.ownerDocument.getElementById(&quot;RotGear180&quot;);
      hours       = evt.target.ownerDocument.getElementById(&quot;RotHours&quot;  );
      second_hand = evt.target.ownerDocument.getElementById(&quot;RotSecondHand&quot;  );
      minute_hand = evt.target.ownerDocument.getElementById(&quot;RotMinuteHand&quot;  );
      hour_hand   = evt.target.ownerDocument.getElementById(&quot;RotHourHand&quot;    );

      Run();
    }

    function Run() {

      // Get computer clock time
      var date = new Date();
      var s = date.getSeconds();
      var m = date.getMinutes();
      var h = date.getHours();

      // Set start angles... this is a little tricky
      s += m * 60.0 + h * 3600.0;

      if( old_time != s ) {
        angle_seconds =  (s * 6.0         ) % 360.0;
        angle_gear7_5 = -(s * 6.0 /   7.5 ) % 360.0;
        angle_minutes =  (s * 6.0 /  60.0 ) % 360.0;
        angle_gear180 = -(s * 6.0 / 180.0 ) % 360.0;
        angle_hours   =  (s * 6.0 / 720.0 ) % 360.0;

        seconds.setAttribute(&quot;transform&quot;, &quot;rotate(&quot; +angle_seconds+ &quot;)&quot;);
        gear7_5.setAttribute(&quot;transform&quot;, &quot;rotate(&quot; +angle_gear7_5+ &quot;)&quot;);
        minutes.setAttribute(&quot;transform&quot;, &quot;rotate(&quot; +angle_minutes+ &quot;)&quot;);
        gear180.setAttribute(&quot;transform&quot;, &quot;rotate(&quot; +angle_gear180+ &quot;)&quot;);
        hours.setAttribute(  &quot;transform&quot;, &quot;rotate(&quot; +angle_hours+   &quot;)&quot;);

        second_hand.setAttribute(&quot;transform&quot;, &quot;rotate(&quot; +angle_seconds+ &quot;)&quot;);
        minute_hand.setAttribute(&quot;transform&quot;, &quot;rotate(&quot; +angle_minutes+ &quot;)&quot;);
        hour_hand.setAttribute(  &quot;transform&quot;, &quot;rotate(&quot; +angle_hours+   &quot;)&quot;);

      }

      old_time = s;

      // Repeat every 10th of a second.
      setTimeout(&quot;Run()&quot;, 100)
    }

    window.Run = Run
  </script>
  <g
     transform="translate(640,160)"
     style="fill:#bfbfbf;stroke:#000000"
     id="Seconds">
    <g
       id="RotSeconds">
      <path
         d="m 9.9594707,-2.1358452 2.5189833,-0.5402055 0.841808,0.026485 3.631404,1.73114563 V 0.91841924 L 13.320262,2.6495649 12.478454,2.6760507 9.9594707,2.1358452 8.5526799,5.5321387 10.715854,6.9313466 11.292373,7.5453226 12.636059,11.337217 11.337217,12.636059 7.5453226,11.292373 6.9313466,10.715854 5.5321387,8.5526799 2.1358452,9.9594707 2.6760507,12.478454 2.6495649,13.320262 0.91841924,16.951666 h -1.83683848 l -1.73114566,-3.631404 -0.026486,-0.841808 0.5402055,-2.5189833 -3.3962935,-1.4067908 -1.3992079,2.1631741 -0.613976,0.576519 -3.7918942,1.343686 -1.298842,-1.298842 1.343686,-3.7918944 0.576519,-0.613976 2.1631739,-1.3992079 -1.4067908,-3.3962935 -2.5189831,0.5402055 -0.841808,-0.026485 -3.631404,-1.73114563 v -1.83683849 l 3.631404,-1.73114568 0.841808,-0.026485 2.5189831,0.5402054 1.4067908,-3.3962934 -2.1631739,-1.3992079 -0.576519,-0.613976 -1.343686,-3.791894 1.298842,-1.298842 3.7918942,1.343686 0.613976,0.576519 1.3992079,2.1631737 3.3962935,-1.4067909 -0.5402055,-2.5189828 0.026485,-0.841808 1.73114563,-3.631404 h 1.83683849 l 1.73114568,3.631404 0.026485,0.841808 -0.5402054,2.5189828 3.3962934,1.4067909 1.3992079,-2.1631737 0.613976,-0.576519 3.7918942,-1.343686 1.298842,1.298842 -1.343686,3.791894 -0.576519,0.613976 -2.1631739,1.3992079 z"
         id="path2719"
         inkscape:connector-curvature="0"
         style="stroke-width:1.06666672" />
    </g>
  </g>
  <g
     transform="translate(522.79556,154.3958)"
     style="fill:#bfbfbf;stroke:#000000"
     id="Gear7_5">
    <g
       id="RotGear7_5">
      <path
         d="m -1.328896,-105.26246 -1.3333333,3.43333 -0.9333334,3.433333 -3.1,0.166666 -1.3,-3.299999 -1.6666666,-3.26667 -2.6666667,0.26667 -0.966667,3.53333 -0.566666,3.500003 -3.066667,0.5 -1.633333,-3.166663 -2,-3.06667 -2.633334,0.56667 -0.566666,3.633329 -0.2,3.533334 -3.033334,0.8 -1.933333,-2.966667 -2.333333,-2.833336 -2.533334,0.800003 -0.2,3.666666 0.166667,3.566667 -2.9,1.1 -2.266667,-2.733333 -2.6,-2.6 -2.433333,1.1 0.166667,3.666666 0.566666,3.5 -2.8,1.4 -2.5,-2.5 -2.866666,-2.3 -2.3,1.366667 0.533333,3.6 0.9,3.433333 -2.6,1.7 -2.766667,-2.2 -3.1,-2 -2.133333,1.566667 0.933333,3.566667 1.233334,3.3 -2.4,1.966666 -3,-1.933333 -3.266667,-1.633333 -2,1.766666 1.3,3.433334 1.6,3.166666 -2.2,2.2 -3.166667,-1.6 -3.433333,-1.3 -1.766667,2 1.633334,3.266667 1.933333,3 -1.966667,2.4 -3.3,-1.233333 -3.566666,-0.933334 -1.566667,2.133334 2,3.1 2.2,2.766666 -1.7,2.6 -3.433333,-0.9 -3.6,-0.533333 -1.366667,2.3 2.3,2.866667 2.5,2.5 -1.4,2.8 -3.5,-0.566667 -3.666667,-0.166667 -1.1,2.433334 2.6,2.6 2.733334,2.266666 -1.1,2.9 -3.566667,-0.166666 -3.666667,0.2 -0.799997,2.533333 2.833331,2.333333 2.966666,1.933334 -0.8,3.033333 -3.533333,0.2 -3.633334,0.566667 -0.56667,2.633333 3.06667,2 3.166667,1.633333 -0.5,3.066667 -3.499997,0.566667 -3.53334,0.966666 -0.26666,2.666667 3.26666,1.6666667 3.300004,1.3 -0.166667,3.1 -3.433337,0.9333333 -3.43333,1.3333333 V 1.337536 l 3.43333,1.3333333 3.433337,0.9333334 0.166667,3.1 -3.300004,1.3 -3.26666,1.6666666 0.26666,2.6666667 3.53334,0.966667 3.499997,0.566666 0.5,3.066667 -3.166667,1.633333 -3.06667,2 0.56667,2.6 3.633334,0.6 3.533333,0.2 0.8,3 -2.966666,1.966667 -2.833331,2.333333 0.799997,2.533334 3.666667,0.2 3.566667,-0.166667 1.1,2.9 -2.733334,2.233333 -2.6,2.633334 1.1,2.433333 3.666667,-0.2 3.5,-0.533333 1.4,2.766666 -2.5,2.533334 -2.3,2.866666 1.366667,2.3 3.6,-0.533333 3.433333,-0.933333 1.7,2.633333 -2.2,2.766667 -2,3.066666 1.566667,2.166667 3.566666,-0.933333 3.3,-1.266667 1.966667,2.433333 -1.933333,2.966667 -1.633334,3.3 1.766667,1.966667 3.433333,-1.3 3.166667,-1.6 2.2,2.2 -1.6,3.166666 -1.3,3.433334 2,1.8 3.266667,-1.633334 3,-1.933333 2.4,1.966667 -1.233334,3.3 -0.933333,3.566666 2.133333,1.566667 3.1,-2 2.766667,-2.2 2.6,1.666667 -0.9,3.433333 -0.533333,3.633333 2.3,1.333334 2.866666,-2.3 2.5,-2.5 2.8,1.433333 -0.566666,3.5 -0.166667,3.666667 2.433333,1.1 2.6,-2.6 2.266667,-2.733334 2.9,1.1 -0.166667,3.533334 0.2,3.666666 2.533334,0.833331 2.333333,-2.833331 1.933333,-2.966666 3.033334,0.8 0.2,3.533333 0.566666,3.633334 2.633334,0.56667 2,-3.1 1.633333,-3.133337 3.066667,0.466666 0.566666,3.533331 0.966667,3.53334 2.6666667,0.26666 1.6666666,-3.26666 1.3,-3.300004 3.1,0.166667 0.9333334,3.433337 1.3333333,3.4 h 2.6666667 l 1.3333333,-3.4 0.9333333,-3.433337 3.1,-0.166667 1.3,3.300004 1.6666667,3.26666 2.666667,-0.26666 0.966666,-3.53334 0.566667,-3.533331 3.066667,-0.466666 1.633333,3.133337 2,3.1 2.6,-0.56667 0.6,-3.633334 0.2,-3.533333 3,-0.8 1.966667,2.966666 2.3,2.833331 2.566666,-0.833331 0.2,-3.666666 -0.166666,-3.533334 2.9,-1.1 2.233333,2.733334 2.633333,2.6 2.433334,-1.1 -0.2,-3.666667 -0.533334,-3.5 2.766667,-1.433333 2.533333,2.5 2.866667,2.3 2.3,-1.333334 -0.533333,-3.633333 -0.933334,-3.433333 2.633334,-1.666667 2.766666,2.2 3.066667,2 2.166667,-1.566667 -0.933334,-3.566666 -1.266666,-3.3 2.433333,-1.966667 2.966667,1.933333 3.3,1.633334 1.966666,-1.8 -1.3,-3.433334 -1.6,-3.166666 2.2,-2.2 3.166667,1.6 3.433333,1.3 1.8,-1.966667 -1.666666,-3.3 -1.9,-2.966667 1.966666,-2.433333 3.3,1.266667 3.566667,0.933333 1.566667,-2.166667 -2,-3.066666 -2.233334,-2.766667 1.7,-2.633333 3.433334,0.933333 3.633333,0.533333 1.333333,-2.3 -2.3,-2.866666 -2.5,-2.533334 1.433334,-2.766666 3.5,0.533333 3.666666,0.2 1.1,-2.433333 -2.6,-2.633334 -2.733333,-2.233333 1.1,-2.9 3.533333,0.166667 3.666667,-0.2 0.833336,-2.533334 -2.833336,-2.333333 -2.966667,-1.966667 0.8,-3 3.533334,-0.2 3.633329,-0.6 0.56667,-2.6 -3.1,-2 -3.133333,-1.633333 0.466667,-3.066667 3.533336,-0.566666 3.53333,-0.966667 0.26667,-2.6666667 -3.26667,-1.6666666 -3.299999,-1.3 0.166666,-3.1 3.433333,-0.9333334 3.4,-1.3333333 v -2.6666667 l -3.4,-1.3333333 -3.433333,-0.9333333 -0.166666,-3.1 3.299999,-1.3 3.26667,-1.6666667 -0.26667,-2.666667 -3.53333,-0.966666 -3.533336,-0.566667 -0.466667,-3.066667 3.133333,-1.633333 3.1,-2 -0.56667,-2.633333 -3.633329,-0.566667 -3.533334,-0.2 -0.8,-3.033333 2.966667,-1.933334 2.833336,-2.333333 -0.833336,-2.533333 -3.666667,-0.2 -3.533333,0.166666 -1.1,-2.9 2.733333,-2.266666 2.6,-2.6 -1.1,-2.433334 -3.666666,0.166667 -3.5,0.566667 -1.433334,-2.8 2.5,-2.5 2.3,-2.866667 -1.333333,-2.3 -3.633333,0.533333 -3.433334,0.9 -1.7,-2.6 2.233334,-2.766666 2,-3.1 -1.566667,-2.133334 -3.566667,0.933334 -3.3,1.233333 -1.966666,-2.4 1.9,-3 1.666666,-3.266667 -1.8,-2 -3.433333,1.3 -3.166667,1.6 -2.2,-2.2 1.6,-3.166666 1.3,-3.433334 -1.966666,-1.766666 -3.3,1.633333 -2.966667,1.933333 -2.433333,-1.966666 1.266666,-3.3 0.933334,-3.566667 -2.166667,-1.566667 -3.066667,2 -2.766666,2.2 -2.633334,-1.7 0.933334,-3.433333 0.533333,-3.6 -2.3,-1.366667 -2.866667,2.3 -2.533333,2.5 -2.766667,-1.4 0.533334,-3.5 0.2,-3.666666 -2.433334,-1.1 -2.633333,2.6 -2.233333,2.733333 -2.9,-1.1 0.166666,-3.566667 -0.2,-3.666666 -2.566666,-0.800003 -2.3,2.833336 -1.966667,2.966667 -3,-0.8 -0.2,-3.533334 -0.6,-3.633329 -2.6,-0.56667 -2,3.06667 -1.633333,3.166663 -3.066667,-0.5 -0.566667,-3.500003 -0.966666,-3.53333 -2.666667,-0.26667 -1.6666667,3.26667 -1.3,3.299999 -3.1,-0.166666 -0.9333333,-3.433333 -1.3333333,-3.43333 z m -9.333333,20.866663 v 57.733333 c 0,8.832 -7.168,16 -16,16 h -58.1 c 4.929258,-38.502809 35.542314,-68.981263 74.1,-73.733333 z m 21.333333,0.03333 c 38.431968,4.859679 68.915467,35.286112 73.833333,73.7 H 26.671104 c -8.832,0 -16,-7.168 -16,-16 z m -95.5,95.033333 h 58.166667 c 8.832,0 16,7.168 16,16 v 58.26667 C -49.39792,80.163531 -80.115584,49.425237 -84.828896,10.670869 Z m 111.5,0 h 57.9 c -4.702475,38.66528 -35.290187,69.351168 -73.9,74.233334 V 26.670869 c 0,-8.832 7.168,-16 16,-16 z"
         id="path2731"
         inkscape:connector-curvature="0"
         style="stroke-width:1.06666672" />
      <path
         d="m 9.9594707,-2.1358452 2.5189833,-0.5402055 0.841808,0.026485 3.631404,1.73114563 V 0.91841924 L 13.320262,2.6495649 12.478454,2.6760507 9.9594707,2.1358452 8.5526799,5.5321387 10.715854,6.9313466 11.292373,7.5453226 12.636059,11.337217 11.337217,12.636059 7.5453226,11.292373 6.9313466,10.715854 5.5321387,8.5526799 2.1358452,9.9594707 2.6760507,12.478454 2.6495649,13.320262 0.91841924,16.951666 h -1.83683848 l -1.73114566,-3.631404 -0.026486,-0.841808 0.5402055,-2.5189833 -3.3962935,-1.4067908 -1.3992079,2.1631741 -0.613976,0.576519 -3.7918942,1.343686 -1.298842,-1.298842 1.343686,-3.7918944 0.576519,-0.613976 2.1631739,-1.3992079 -1.4067908,-3.3962935 -2.5189831,0.5402055 -0.841808,-0.026485 -3.631404,-1.73114563 v -1.83683849 l 3.631404,-1.73114568 0.841808,-0.026485 2.5189831,0.5402054 1.4067908,-3.3962934 -2.1631739,-1.3992079 -0.576519,-0.613976 -1.343686,-3.791894 1.298842,-1.298842 3.7918942,1.343686 0.613976,0.576519 1.3992079,2.1631737 3.3962935,-1.4067909 -0.5402055,-2.5189828 0.026485,-0.841808 1.73114563,-3.631404 h 1.83683849 l 1.73114568,3.631404 0.026485,0.841808 -0.5402054,2.5189828 3.3962934,1.4067909 1.3992079,-2.1631737 0.613976,-0.576519 3.7918942,-1.343686 1.298842,1.298842 -1.343686,3.791894 -0.576519,0.613976 -2.1631739,1.3992079 z"
         id="path2743"
         inkscape:connector-curvature="0"
         style="stroke-width:1.06666672" />
      <g
         id="Nut">
        <path
           id="path2503"
           style="opacity:1;fill:#666666;stroke:#000000;stroke-width:1.60000002"
           d="m -0.128896,-6.1291307 5.54256,3.2 v 6.4 l -5.54256,3.2 -5.54256,-3.2 v -6.4 z"
           inkscape:connector-curvature="0" />
        <rect
           id="rect2509"
           style="opacity:1;fill:#333333;stroke:none;stroke-width:1.06666672"
           y="-6.1291308"
           x="-1.1955627"
           height="12.8"
           width="2.1333334" />
        <path
           id="path2511"
           style="opacity:1;fill:none;stroke:#000000;stroke-width:1.60000002"
           d="m -0.128896,-6.1291307 5.54256,3.2 v 6.4 l -5.54256,3.2 -5.54256,-3.2 v -6.4 z"
           inkscape:connector-curvature="0" />
      </g>
    </g>
  </g>
  <g
     transform="translate(400,160)"
     style="fill:#bfbfbf;stroke:#000000"
     id="Minutes">
    <g
       id="RotMinutes">
      <path
         d="m -1.3333333,-112.03333 -1.3333334,3.4 -0.9666666,3.43333 -3.0666667,0.16667 -1.3,-3.33334 -1.6333333,-3.26666 -2.6666667,0.26666 -1,3.53334 -0.6,3.5 -3.066667,0.46666 -1.6,-3.2 -1.966666,-3.06666 -2.633334,0.5 L -23.8,-106 l -0.266667,3.53333 -3,0.76667 -1.9,-3 -2.266666,-2.9 -2.566667,0.76667 -0.266667,3.66666 L -34,-99.6 l -2.9,1.033333 -2.2,-2.800003 -2.533333,-2.66666 L -44.1,-103 -44.03333,-99.333333 -43.6,-95.8 l -2.8,1.333333 -2.466667,-2.566666 -2.766666,-2.4 -2.366667,1.266666 0.433333,3.633334 0.8,3.466666 -2.666666,1.6 -2.7,-2.333333 -3,-2.1 -2.233334,1.5 0.8,3.566667 1.1,3.366666 -2.466666,1.866667 -2.9,-2.066667 -3.2,-1.8 -2.066667,1.7 1.133333,3.5 1.433334,3.233334 -2.3,2.1 -3.1,-1.766667 -3.333334,-1.466667 -1.9,1.9 1.466667,3.333334 1.766667,3.1 -2.1,2.3 -3.233334,-1.433334 -3.5,-1.133333 -1.7,2.066667 1.8,3.2 2.066667,2.9 -1.866667,2.466666 -3.366666,-1.1 -3.566667,-0.8 -1.5,2.233334 2.1,3 2.333333,2.7 -1.6,2.666666 -3.466666,-0.8 L -98.166667,-54 l -1.266666,2.366667 2.4,2.766666 L -94.466667,-46.4 -95.8,-43.6 -99.333333,-44.033333 -103,-44.1 l -1.03333,2.466667 2.66666,2.533333 2.800003,2.2 -1.033333,2.9 -3.56667,-0.06667 -3.66666,0.266667 -0.76667,2.566667 2.9,2.266666 3,1.9 -0.76667,3 L -106,-23.8 l -3.63333,0.633333 -0.5,2.633334 3.06666,1.966666 3.2,1.6 -0.46666,3.066667 -3.5,0.6 -3.53334,1 -0.26666,2.6666667 3.26666,1.6333333 3.33334,1.3 -0.16667,3.0666667 -3.43333,0.9666666 -3.4,1.3333334 v 2.6666666 l 3.4,1.3333334 3.43333,0.9666666 0.16667,3.0666667 -3.33334,1.3 -3.26666,1.6333333 0.26666,2.6666667 3.53334,1 3.5,0.6 0.46666,3.066667 -3.2,1.6 -3.06666,1.966666 0.5,2.633334 L -106,23.8 l 3.53333,0.266667 0.76667,3 -3,1.9 -2.9,2.266666 0.76667,2.566667 3.66666,0.266667 L -99.6,34 l 1.033333,2.9 -2.800003,2.2 -2.66666,2.533333 L -103,44.1 -99.333333,44.033333 -95.8,43.6 l 1.333333,2.8 -2.566666,2.466667 -2.4,2.766666 1.266666,2.366667 3.633334,-0.433333 3.466666,-0.8 1.6,2.666666 -2.333333,2.7 -2.1,3 1.5,2.233334 3.566667,-0.8 3.366666,-1.1 1.866667,2.466666 -2.066667,2.9 -1.8,3.2 1.7,2.066667 3.5,-1.133333 3.233334,-1.433334 2.1,2.3 -1.766667,3.1 -1.466667,3.333334 1.9,1.9 3.333334,-1.466667 3.1,-1.766667 2.3,2.1 -1.433334,3.233334 -1.133333,3.5 2.066667,1.7 3.2,-1.8 2.9,-2.066667 2.466666,1.866667 -1.1,3.366666 -0.8,3.566667 2.233334,1.5 3,-2.1 2.7,-2.333333 2.666666,1.6 -0.8,3.466666 L -54,98.166667 l 2.366667,1.266666 2.766666,-2.4 L -46.4,94.466667 -43.6,95.8 -44.033333,99.333333 -44.1,103 l 2.466667,1.03333 2.533333,-2.66666 2.2,-2.800003 2.9,1.033333 -0.06667,3.56667 0.266667,3.66666 2.566667,0.76667 2.266666,-2.9 1.9,-3 3,0.76667 L -23.8,106 l 0.633333,3.63333 2.633334,0.5 1.966666,-3.06666 1.6,-3.2 3.066667,0.46666 0.6,3.5 1,3.53334 2.6666667,0.26666 L -8,108.36667 l 1.3,-3.33334 3.0666667,0.16667 0.9666666,3.43333 1.3333334,3.4 h 2.6666666 l 1.3333334,-3.4 L 3.6333333,105.2 6.7,105.03333 8,108.36667 9.6333333,111.63333 12.3,111.36667 l 1,-3.53334 0.6,-3.5 3.066667,-0.46666 1.6,3.2 1.966666,3.06666 2.633334,-0.5 L 23.8,106 l 0.266667,-3.53333 3,-0.76667 1.9,3 2.266666,2.9 L 33.8,106.83333 34.066667,103.16667 34,99.6 l 2.9,-1.033333 2.2,2.800003 2.533333,2.66666 L 44.1,103 44.033333,99.333333 43.6,95.8 l 2.8,-1.333333 2.466667,2.566666 2.766666,2.4 L 54,98.166667 l -0.433333,-3.633334 -0.8,-3.466666 2.666666,-1.6 2.7,2.333333 3,2.1 2.233334,-1.5 -0.8,-3.566667 -1.1,-3.366666 2.466666,-1.866667 2.9,2.066667 3.2,1.8 2.066667,-1.7 -1.133333,-3.5 -1.433334,-3.233334 2.3,-2.1 3.1,1.766667 3.333334,1.466667 1.9,-1.9 L 78.7,74.933333 l -1.766667,-3.1 2.1,-2.3 3.233334,1.433334 3.5,1.133333 1.7,-2.066667 -1.8,-3.2 -2.066667,-2.9 1.866667,-2.466666 3.366666,1.1 3.566667,0.8 1.5,-2.233334 -2.1,-3 -2.333333,-2.7 1.6,-2.666666 3.466666,0.8 L 98.166667,54 l 1.266666,-2.366667 -2.4,-2.766666 L 94.466667,46.4 95.8,43.6 99.333333,44.033333 103,44.1 104.03333,41.633333 101.36667,39.1 98.566667,36.9 99.6,34 103.16667,34.066667 106.83333,33.8 107.6,31.233333 l -2.9,-2.266666 -3,-1.9 0.76667,-3 L 106,23.8 l 3.63333,-0.633333 0.5,-2.633334 -3.06666,-1.966666 -3.2,-1.6 0.46666,-3.066667 3.5,-0.6 3.53334,-1 0.26666,-2.6666667 L 108.36667,8 105.03333,6.7 105.2,3.6333333 l 3.43333,-0.9666666 3.4,-1.3333334 v -2.6666666 l -3.4,-1.3333334 L 105.2,-3.6333333 105.03333,-6.7 108.36667,-8 111.63333,-9.6333333 111.36667,-12.3 l -3.53334,-1 -3.5,-0.6 -0.46666,-3.066667 3.2,-1.6 3.06666,-1.966666 -0.5,-2.633334 L 106,-23.8 l -3.53333,-0.266667 -0.76667,-3 3,-1.9 2.9,-2.266666 L 106.83333,-33.8 103.16667,-34.066667 99.6,-34 l -1.033333,-2.9 2.800003,-2.2 2.66666,-2.533333 L 103,-44.1 99.333333,-44.033333 95.8,-43.6 l -1.333333,-2.8 2.566666,-2.466667 2.4,-2.766666 L 98.166667,-54 l -3.633334,0.433333 -3.466666,0.8 -1.6,-2.666666 2.333333,-2.7 2.1,-3 -1.5,-2.233334 -3.566667,0.8 -3.366666,1.1 -1.866667,-2.466666 2.066667,-2.9 1.8,-3.2 -1.7,-2.066667 -3.5,1.133333 -3.233334,1.433334 -2.1,-2.3 1.766667,-3.1 1.466667,-3.333334 -1.9,-1.9 -3.333334,1.466667 -3.1,1.766667 -2.3,-2.1 1.433334,-3.233334 1.133333,-3.5 -2.066667,-1.7 -3.2,1.8 -2.9,2.066667 -2.466666,-1.866667 1.1,-3.366666 0.8,-3.566667 -2.233334,-1.5 -3,2.1 -2.7,2.333333 -2.666666,-1.6 0.8,-3.466666 L 54,-98.166667 l -2.366667,-1.266666 -2.766666,2.4 L 46.4,-94.466667 43.6,-95.8 44.033333,-99.333333 44.1,-103 41.633333,-104.03333 39.1,-101.36667 36.9,-98.566667 34,-99.6 34.066667,-103.16667 33.8,-106.83333 31.233333,-107.6 l -2.266666,2.9 -1.9,3 -3,-0.76667 L 23.8,-106 l -0.633333,-3.63333 -2.633334,-0.5 -1.966666,3.06666 -1.6,3.2 -3.066667,-0.46666 -0.6,-3.5 -1,-3.53334 -2.6666667,-0.26666 L 8,-108.36667 6.7,-105.03333 3.6333333,-105.2 l -0.9666666,-3.43333 -1.3333334,-3.4 z M 0,-90.666667 c 21.178688,0 40.661781,7.282869 56.1,19.466667 l -44.8,44.8 c -6.2451627,6.245163 -16.3548373,6.245163 -22.6,0 L -56.1,-71.2 C -40.661781,-83.383798 -21.178688,-90.666667 0,-90.666667 Z M -71.2,-56.1 l 44.8,44.8 c 6.245163,6.2451627 6.245163,16.3548373 0,22.6 L -71.2,56.1 C -83.383798,40.661781 -90.666667,21.178688 -90.666667,0 c 0,-21.178688 7.282869,-40.661781 19.466667,-56.1 z m 142.4,0 c 12.183797,15.438219 19.466667,34.921312 19.466667,56.1 0,21.178688 -7.28287,40.661781 -19.466667,56.1 L 26.4,11.3 c -6.245163,-6.2451627 -6.245163,-16.3548373 0,-22.6 z M 0,21.7 c 4.0955627,0 8.1774187,1.577419 11.3,4.7 L 56.1,71.2 C 40.661781,83.383797 21.178688,90.666667 0,90.666667 c -21.178688,0 -40.661781,-7.28287 -56.1,-19.466667 L -11.3,26.4 C -8.1774187,23.277419 -4.0955627,21.7 0,21.7 Z"
         id="path2471"
         inkscape:connector-curvature="0"
         style="stroke-width:1.06666672" />
      <path
         d="m 30.424434,-2.8512907 1.341806,-0.1257503 2.082148,0.313115 3.481343,1.4844572 V 1.1794688 L 33.848388,2.663926 31.76624,2.977041 30.424434,2.8512907 l -0.607981,3.8386377 1.314992,0.2950454 1.883484,0.9412093 2.852232,2.4875969 -0.728953,2.243483 -3.769676,0.336008 -2.076999,-0.345628 -1.237274,-0.534237 -1.764429,3.462885 1.159459,0.686959 1.500449,1.477172 1.943924,3.247233 -1.386549,1.908421 -3.689007,-0.845331 -1.868539,-0.970541 -1.01163,-0.890428 -2.748161,2.748161 0.890428,1.01163 0.970541,1.868539 0.845331,3.689007 -1.908421,1.386549 -3.247233,-1.943924 -1.477172,-1.500449 -0.686959,-1.159459 -3.462885,1.764429 0.534237,1.237274 0.345628,2.076999 -0.336008,3.769676 L 10.41378,35.867161 7.9261831,33.014929 6.9849738,31.131445 6.6899284,29.816453 2.8512907,30.424434 2.977041,31.76624 2.663926,33.848388 1.1794688,37.329731 h -2.3589376 l -1.4844572,-3.481343 -0.313115,-2.082148 0.1257503,-1.341806 -3.8386377,-0.607981 -0.2950454,1.314992 -0.9412093,1.883484 -2.4875969,2.852232 -2.243483,-0.728953 -0.336008,-3.769676 0.345628,-2.076999 0.534237,-1.237274 -3.462885,-1.764429 -0.686959,1.159459 -1.477172,1.500449 -3.247233,1.943924 -1.908421,-1.386549 0.845331,-3.689007 0.970541,-1.868539 0.890428,-1.01163 -2.748161,-2.748161 -1.01163,0.890428 -1.868539,0.970541 -3.689007,0.845331 -1.386549,-1.908421 1.943924,-3.247233 1.500449,-1.477172 1.159459,-0.686959 -1.764429,-3.462885 -1.237274,0.534237 -2.076999,0.345628 -3.769676,-0.336008 -0.728953,-2.243483 2.852232,-2.4875969 1.883484,-0.9412093 1.314992,-0.2950454 -0.607981,-3.8386377 -1.341806,0.1257503 -2.082148,-0.313115 -3.481343,-1.4844572 v -2.3589376 l 3.481343,-1.4844572 2.082148,-0.313115 1.341806,0.1257503 0.607981,-3.8386377 -1.314992,-0.2950454 -1.883484,-0.9412093 -2.852232,-2.4875969 0.728953,-2.243483 3.769676,-0.336008 2.076999,0.345628 1.237274,0.534237 1.764429,-3.462885 -1.159459,-0.686959 -1.500449,-1.477172 -1.943924,-3.247233 1.386549,-1.908421 3.689007,0.845331 1.868539,0.970541 1.01163,0.890428 2.748161,-2.748161 -0.890428,-1.01163 -0.970541,-1.868539 -0.845331,-3.689007 1.908421,-1.386549 3.247233,1.943924 1.477172,1.500449 0.686959,1.159459 3.462885,-1.764429 -0.534237,-1.237274 -0.345628,-2.076999 0.336008,-3.769676 2.243483,-0.728953 2.4875969,2.852232 0.9412093,1.883484 0.2950454,1.314992 3.8386377,-0.607981 -0.1257503,-1.341806 0.313115,-2.082148 1.4844572,-3.481343 h 2.3589376 l 1.4844572,3.481343 0.313115,2.082148 -0.1257503,1.341806 3.8386377,0.607981 0.2950454,-1.314992 0.9412093,-1.883484 2.4875969,-2.852232 2.243483,0.728953 0.336008,3.769676 -0.345628,2.076999 -0.534237,1.237274 3.462885,1.764429 0.686959,-1.159459 1.477172,-1.500449 3.247233,-1.943924 1.908421,1.386549 -0.845331,3.689007 -0.970541,1.868539 -0.890428,1.01163 2.748161,2.748161 1.01163,-0.890428 1.868539,-0.970541 3.689007,-0.845331 1.386549,1.908421 -1.943924,3.247233 -1.500449,1.477172 -1.159459,0.686959 1.764429,3.462885 1.237274,-0.534237 2.076999,-0.345628 3.769676,0.336008 0.728953,2.243483 -2.852232,2.4875969 -1.883484,0.9412093 -1.314992,0.2950454 z"
         id="path2767"
         inkscape:connector-curvature="0"
         style="stroke-width:1.06666672" />
      <path
         d="m -71.6535,71.653478 c 39.552726,39.552722 103.754252,39.552722 143.306978,0 39.552722,-39.552726 39.552722,-103.754252 0,-143.306978 -39.552726,-39.55273 -103.754252,-39.55273 -143.306978,0 -39.55273,39.552726 -39.55273,103.754252 0,143.306978 z"
         style="fill:none;stroke:none;stroke-width:1.06666672"
         id="path2518"
         inkscape:connector-curvature="0" />
      <text
         style="font-style:normal;font-weight:normal;font-size:10.66666698px;line-height:125%;font-family:'Times New Roman';text-align:start;text-anchor:start;fill:#000000;fill-opacity:1;stroke:none;stroke-width:1.06666672px;stroke-linecap:butt;stroke-linejoin:miter;stroke-opacity:1"
         id="text2527"
         xml:space="preserve"
         x="26.666666"
         y="-12.666667"
         transform="translate(-0.26666667,-0.26666667)"><textPath
           xlink:href="#path2518"
           id="textPath2529"
           style="stroke-width:1.06666672px">Tavmjong Clock Works © 2007</textPath></text>
      <text
         style="font-style:normal;font-weight:normal;font-size:10.66666698px;line-height:125%;font-family:'Times New Roman';text-align:start;text-anchor:start;fill:#666666;fill-opacity:1;stroke:none;stroke-width:1.06666672px;stroke-linecap:butt;stroke-linejoin:miter;stroke-opacity:1"
         id="text2520"
         xml:space="preserve"><textPath
           xlink:href="#path2518"
           id="textPath2524"
           style="stroke-width:1.06666672px">Tavmjong Clock Works © 2007</textPath></text>
    </g>
  </g>
  <g
     transform="translate(279.46667,227.60464)"
     style="fill:#bfbfbf;stroke:#000000"
     id="Gear180">
    <g
       id="RotGear180">
      <path
         d="m -1.3333333,-105.23797 -1.3333334,3.4 -0.9333333,3.43333 -3.1,0.166667 -1.3,-3.299997 -1.6666667,-3.26667 -2.6666663,0.26667 -0.966667,3.56666 -0.566667,3.500003 -3.066666,0.466667 -1.633334,-3.13333 -2,-3.1 -2.633333,0.56666 -0.566667,3.633337 -0.2,3.533333 -3.033333,0.8 -1.933333,-2.966667 -2.333334,-2.833333 -2.533333,0.833333 -0.2,3.666667 0.166667,3.533333 -2.9,1.1 -2.233334,-2.733333 -2.633333,-2.6 -2.433333,1.1 0.166666,3.666667 0.566667,3.5 -2.766667,1.433333 -2.533333,-2.5 -2.866667,-2.3 -2.3,1.333333 0.533334,3.633334 0.933333,3.433333 -2.633333,1.7 -2.766667,-2.233333 -3.066667,-2 -2.166666,1.566666 0.933333,3.566667 1.266667,3.3 -2.433334,1.966667 -3,-1.9 -3.266666,-1.666667 -1.966667,1.8 1.3,3.433333 1.6,3.166667 -2.2,2.2 -3.2,-1.6 -3.433333,-1.3 -1.766667,1.966667 1.633333,3.3 1.933334,2.966666 -1.966667,2.433334 -3.3,-1.266667 -3.566667,-0.933333 -1.566666,2.166666 2,3.066667 2.2,2.766667 -1.666667,2.633333 -3.433333,-0.9 -3.633334,-0.566667 -1.333333,2.3 2.3,2.866667 2.5,2.533333 -1.433333,2.766667 -3.5,-0.533333 -3.666667,-0.2 -1.1,2.433333 2.6,2.633333 2.733333,2.233334 -1.1,2.9 L -96,-34.00464 l -3.666667,0.2 -0.833333,2.566667 2.833333,2.3 2.966667,1.966666 -0.8,3 -3.533333,0.2 -3.633337,0.6 -0.56666,2.6 3.06666,2 3.16667,1.633334 -0.466667,3.066666 -3.533333,0.566667 -3.53333,0.966667 -0.26667,2.6666663 3.26667,1.6666667 3.299997,1.3 -0.166667,3.1 -3.43333,0.9333333 -3.4,1.3333334 v 2.6666666 l 3.4,1.3333334 3.43333,0.9333333 0.166667,3.1 -3.299997,1.3 -3.26667,1.6666667 0.26667,2.6666663 3.53333,0.966667 3.533333,0.566667 0.466667,3.066666 -3.16667,1.633334 -3.06666,2 0.56666,2.633333 3.633337,0.566667 3.533333,0.2 0.8,3.033333 -2.966667,1.933333 -2.833333,2.333334 0.833333,2.533333 3.666667,0.2 3.533333,-0.166667 1.1,2.9 -2.733333,2.266667 -2.6,2.6 1.1,2.433333 3.666667,-0.166666 3.5,-0.566667 1.433333,2.8 -2.5,2.5 -2.3,2.866667 1.333333,2.3 3.633334,-0.533334 3.433333,-0.9 1.666667,2.6 -2.2,2.766667 -2,3.1 1.566666,2.133333 3.566667,-0.933333 3.3,-1.233333 1.966667,2.4 -1.933334,3 -1.633333,3.266666 1.766667,2 3.433333,-1.3 3.2,-1.6 2.2,2.2 -1.6,3.166667 -1.3,3.433333 1.966667,1.766667 3.266666,-1.633333 3,-1.933334 2.433334,1.966667 -1.266667,3.3 -0.933333,3.566667 2.166666,1.566666 3.066667,-2 2.766667,-2.2 2.633333,1.7 -0.933333,3.433334 -0.533334,3.633333 2.3,1.333333 2.866667,-2.3 2.533333,-2.5 2.766667,1.4 -0.566667,3.5 -0.166666,3.666667 2.433333,1.1 2.633333,-2.6 2.233334,-2.733333 2.9,1.1 L -34,96.028693 l 0.2,3.666667 2.533333,0.8 2.333334,-2.833333 L -27,94.69536 l 3.033333,0.8 0.2,3.533333 0.566667,3.633337 2.633333,0.56666 2,-3.06666 1.633334,-3.16667 3.066666,0.5 0.566667,3.5 0.966667,3.53333 2.6666663,0.26667 L -8,101.52869 l 1.3,-3.299997 3.1,0.166667 0.9333333,3.43333 1.3333334,3.43334 H 1.3333333 L 2.6666667,101.82869 3.6,98.39536 6.7,98.228693 8,101.52869 l 1.6666667,3.26667 2.6666663,-0.26667 0.966667,-3.53333 0.566667,-3.5 3.066666,-0.5 1.633334,3.16667 2,3.06666 2.633333,-0.56666 0.566667,-3.633337 0.2,-3.533333 3.033333,-0.8 1.933333,2.966667 2.333334,2.833333 2.533333,-0.8 0.2,-3.666667 -0.166667,-3.566666 2.9,-1.1 2.233334,2.733333 2.633333,2.6 2.433333,-1.1 -0.166666,-3.666667 -0.566667,-3.5 2.766667,-1.4 2.533333,2.5 2.866667,2.3 2.3,-1.333333 L 53.233333,86.862027 52.3,83.428693 l 2.633333,-1.7 2.766667,2.2 3.066667,2 2.166666,-1.566666 L 62,80.79536 l -1.266667,-3.3 2.433334,-1.966667 3,1.933334 3.266666,1.633333 L 71.4,77.328693 70.1,73.89536 l -1.6,-3.166667 2.2,-2.2 3.2,1.6 3.433333,1.3 1.766667,-2 -1.633333,-3.266666 -1.933334,-3 1.966667,-2.4 3.3,1.233333 3.566667,0.933333 1.566666,-2.133333 -2,-3.1 -2.2,-2.766667 1.666667,-2.6 3.433333,0.9 3.633334,0.533334 1.333333,-2.3 -2.3,-2.866667 -2.5,-2.5 1.433333,-2.8 3.5,0.566667 3.666667,0.166666 1.1,-2.433333 -2.6,-2.6 -2.733333,-2.266667 1.1,-2.9 L 96,33.99536 l 3.666667,-0.2 L 100.5,31.262027 97.666667,28.928693 94.7,26.99536 l 0.8,-3.033333 3.533333,-0.2 3.633337,-0.566667 0.56666,-2.633333 -3.06666,-2 L 97,16.928693 97.466667,13.862027 101,13.29536 104.53333,12.328693 104.8,9.6620267 101.53333,7.99536 l -3.299997,-1.3 0.166667,-3.1 3.43333,-0.9333333 3.4,-1.3333334 v -2.6666666 l -3.4,-1.3333334 L 98.4,-3.60464 l -0.166667,-3.1 3.299997,-1.3 L 104.8,-9.6713067 104.53333,-12.337973 101,-13.30464 97.466667,-13.871307 97,-16.937973 l 3.16667,-1.633334 3.06666,-2 -0.56666,-2.6 -3.633337,-0.6 -3.533333,-0.2 -0.8,-3 2.966667,-1.966666 2.833333,-2.3 -0.833333,-2.566667 -3.666667,-0.2 -3.533333,0.166667 -1.1,-2.9 2.733333,-2.233334 2.6,-2.633333 -1.1,-2.433333 -3.666667,0.2 -3.5,0.533333 L 87,-46.071307 l 2.5,-2.533333 2.3,-2.866667 -1.333333,-2.3 -3.633334,0.566667 -3.433333,0.9 -1.666667,-2.633333 2.2,-2.766667 2,-3.066667 -1.566666,-2.166666 -3.566667,0.933333 -3.3,1.266667 -1.966667,-2.433334 1.933334,-2.966666 1.633333,-3.3 -1.766667,-1.966667 -3.433333,1.3 -3.2,1.6 -2.2,-2.2 1.6,-3.166667 1.3,-3.433333 -1.966667,-1.8 -3.266666,1.666667 -3,1.9 -2.433334,-1.966667 1.266667,-3.3 0.933333,-3.566667 -2.166666,-1.566666 -3.066667,2 -2.766667,2.233333 -2.633333,-1.7 0.933333,-3.433333 0.533334,-3.633334 -2.3,-1.333333 -2.866667,2.3 -2.533333,2.5 -2.766667,-1.433333 0.566667,-3.5 0.166666,-3.666667 -2.433333,-1.1 -2.633333,2.6 -2.233334,2.733333 -2.9,-1.1 L 34,-96.00464 33.8,-99.671307 31.266667,-100.50464 28.933333,-97.671307 27,-94.70464 l -3.033333,-0.8 -0.2,-3.533333 -0.566667,-3.633337 -2.633333,-0.56666 -2,3.1 -1.633334,3.13333 -3.066666,-0.466667 L 13.3,-100.97131 12.333333,-104.53797 9.6666667,-104.80464 8,-101.53797 l -1.3,3.299997 -3.1,-0.166667 -0.9333333,-3.43333 -1.3333334,-3.4 z m -9.3333337,20.566663 v 58 c 0,8.832 -7.168,16 -16,16 h -58 c 4.816235,-38.584714 35.415286,-69.183765 74,-74 z m 21.333334,0 c 38.584714,4.816235 69.183765,35.415286 74,74 h -58 c -8.832,0 -16,-7.168 -16,-16 z m -95.333334,95.333334 h 58 c 8.832,0 16,7.168 16,16 v 58 c -38.584714,-4.816246 -69.183765,-35.415286 -74,-74 z m 111.333334,0 h 58 c -4.816235,38.584714 -35.415286,69.183765 -74,74 v -58 c 0,-8.832 7.168,-16 16,-16 z"
         id="path2779"
         inkscape:connector-curvature="0"
         style="stroke-width:1.06666672" />
      <path
         d="m 23.615346,-2.6818439 1.745987,-0.1982806 1.670316,0.2177394 3.505204,1.5325138 v 2.2597426 l -3.505204,1.5325138 -1.670316,0.2177394 -1.745987,-0.1982806 -0.771314,3.8776571 1.68896,0.4849729 1.459846,0.8403673 2.651919,2.7572418 -0.864767,2.08773 -3.824853,0.07447 -1.626496,-0.438037 -1.537203,-0.851348 -2.196516,3.287319 1.374804,1.094395 1.027127,1.335056 1.394903,3.562204 -1.59788,1.59788 -3.562205,-1.394903 -1.335056,-1.027127 -1.094394,-1.374804 -3.287319,2.196516 0.851348,1.537203 0.438037,1.626496 -0.07447,3.824853 -2.087729,0.864766 -2.7572418,-2.651919 -0.8403673,-1.459846 -0.4849729,-1.68896 -3.8776571,0.771314 0.1982806,1.745987 -0.2177394,1.670316 -1.5325138,3.505204 h -2.2597426 l -1.5325138,-3.505204 -0.2177394,-1.670316 0.1982806,-1.745987 -3.8776571,-0.771314 -0.4849729,1.68896 -0.8403673,1.459846 -2.7572418,2.651919 -2.08773,-0.864767 -0.07447,-3.824853 0.438037,-1.626496 0.851348,-1.537203 -3.287319,-2.196516 -1.094395,1.374804 -1.335056,1.027127 -3.562204,1.394903 -1.59788,-1.59788 1.394903,-3.562205 1.027127,-1.335056 1.374804,-1.094394 -2.196516,-3.287319 -1.537203,0.851348 -1.626496,0.438037 -3.824853,-0.07447 -0.864767,-2.08773 2.651919,-2.7572419 1.459846,-0.8403672 1.68896,-0.484973 -0.771314,-3.877657 -1.745987,0.1982805 -1.670315,-0.2177383 -3.505204,-1.5325138 v -2.2597426 l 3.505204,-1.5325138 1.670316,-0.2177394 1.745987,0.1982806 0.771314,-3.8776571 -1.68896,-0.4849729 -1.459846,-0.8403673 -2.651919,-2.7572418 0.864767,-2.08773 3.824853,-0.07447 1.626496,0.438037 1.537203,0.851348 2.196516,-3.287319 -1.374804,-1.094395 -1.027127,-1.335056 -1.394903,-3.562204 1.59788,-1.59788 3.562205,1.394903 1.335056,1.027127 1.094394,1.374804 3.287319,-2.196516 -0.851348,-1.537203 -0.438037,-1.626496 0.07447,-3.824853 2.08773,-0.864767 2.7572419,2.651919 0.8403672,1.459846 0.484973,1.68896 3.877657,-0.771314 -0.1982805,-1.745987 0.2177394,-1.670316 1.5325138,-3.505204 h 2.2597425 l 1.5325138,3.505204 0.2177394,1.670316 -0.1982805,1.745987 3.8776571,0.771314 0.4849729,-1.68896 0.8403672,-1.459846 2.7572418,-2.651919 2.08773,0.864767 0.07448,3.824853 -0.438037,1.626496 -0.851347,1.537203 3.287318,2.196516 1.094395,-1.374804 1.335056,-1.027127 3.562204,-1.394903 1.59788,1.59788 -1.394903,3.562204 -1.027127,1.335056 -1.374804,1.094395 2.196516,3.287319 1.537203,-0.851348 1.626496,-0.438037 3.824854,0.07447 0.864766,2.08773 -2.651918,2.7572418 -1.459847,0.8403673 -1.68896,0.4849729 z"
         id="path2791"
         inkscape:connector-curvature="0"
         style="stroke-width:1.06666672" />
      <g
         id="Nut2">
        <path
           id="path2505"
           style="fill:#666666;stroke:#000000;stroke-width:1.60000002"
           d="m 0,-6.387968 5.54256,3.2 v 6.4 l -5.54256,3.2 -5.54256,-3.2 v -6.4 z"
           inkscape:connector-curvature="0" />
        <rect
           id="rect2507"
           style="fill:#333333;stroke:none;stroke-width:1.06666672"
           y="-5.7379732"
           x="-1.0666667"
           height="11.733334"
           width="2.1333334" />
        <path
           id="path2513"
           style="fill:none;stroke:#000000;stroke-width:1.60000002"
           d="m 0,-6.387968 5.54256,3.2 v 6.4 l -5.54256,3.2 -5.54256,-3.2 v -6.4 z"
           inkscape:connector-curvature="0" />
      </g>
    </g>
  </g>
  <g
     transform="translate(160,160)"
     style="fill:#bfbfbf;stroke:#000000"
     id="Hours">
    <g
       id="RotHours">
      <path
         d="m -1.3333333,-112.03333 -1.3333334,3.4 -0.9666666,3.43333 -3.0666667,0.16667 -1.3,-3.33334 -1.6333333,-3.26666 -2.6666667,0.26666 -1,3.53334 -0.6,3.5 -3.066667,0.46666 -1.6,-3.2 -1.966666,-3.06666 -2.633334,0.5 L -23.8,-106 l -0.266667,3.53333 -3,0.76667 -1.9,-3 -2.266666,-2.9 -2.566667,0.76667 -0.266667,3.66666 L -34,-99.6 l -2.9,1.033333 -2.2,-2.800003 -2.533333,-2.66666 L -44.1,-103 -44.03333,-99.333333 -43.6,-95.8 l -2.8,1.333333 -2.466667,-2.566666 -2.766666,-2.4 -2.366667,1.266666 0.433333,3.633334 0.8,3.466666 -2.666666,1.6 -2.7,-2.333333 -3,-2.1 -2.233334,1.5 0.8,3.566667 1.1,3.366666 -2.466666,1.866667 -2.9,-2.066667 -3.2,-1.8 -2.066667,1.7 1.133333,3.5 1.433334,3.233334 -2.3,2.1 -3.1,-1.766667 -3.333334,-1.466667 -1.9,1.9 1.466667,3.333334 1.766667,3.1 -2.1,2.3 -3.233334,-1.433334 -3.5,-1.133333 -1.7,2.066667 1.8,3.2 2.066667,2.9 -1.866667,2.466666 -3.366666,-1.1 -3.566667,-0.8 -1.5,2.233334 2.1,3 2.333333,2.7 -1.6,2.666666 -3.466666,-0.8 L -98.166667,-54 l -1.266666,2.366667 2.4,2.766666 L -94.466667,-46.4 -95.8,-43.6 -99.333333,-44.033333 -103,-44.1 l -1.03333,2.466667 2.66666,2.533333 2.800003,2.2 -1.033333,2.9 -3.56667,-0.06667 -3.66666,0.266667 -0.76667,2.566667 2.9,2.266666 3,1.9 -0.76667,3 L -106,-23.8 l -3.63333,0.633333 -0.5,2.633334 3.06666,1.966666 3.2,1.6 -0.46666,3.066667 -3.5,0.6 -3.53334,1 -0.26666,2.6666667 3.26666,1.6333333 3.33334,1.3 -0.16667,3.0666667 -3.43333,0.9666666 -3.4,1.3333334 v 2.6666666 l 3.4,1.3333334 3.43333,0.9666666 0.16667,3.0666667 -3.33334,1.3 -3.26666,1.6333333 0.26666,2.6666667 3.53334,1 3.5,0.6 0.46666,3.066667 -3.2,1.6 -3.06666,1.966666 0.5,2.633334 L -106,23.8 l 3.53333,0.266667 0.76667,3 -3,1.9 -2.9,2.266666 0.76667,2.566667 3.66666,0.266667 L -99.6,34 l 1.033333,2.9 -2.800003,2.2 -2.66666,2.533333 L -103,44.1 -99.333333,44.033333 -95.8,43.6 l 1.333333,2.8 -2.566666,2.466667 -2.4,2.766666 1.266666,2.366667 3.633334,-0.433333 3.466666,-0.8 1.6,2.666666 -2.333333,2.7 -2.1,3 1.5,2.233334 3.566667,-0.8 3.366666,-1.1 1.866667,2.466666 -2.066667,2.9 -1.8,3.2 1.7,2.066667 3.5,-1.133333 3.233334,-1.433334 2.1,2.3 -1.766667,3.1 -1.466667,3.333334 1.9,1.9 3.333334,-1.466667 3.1,-1.766667 2.3,2.1 -1.433334,3.233334 -1.133333,3.5 2.066667,1.7 3.2,-1.8 2.9,-2.066667 2.466666,1.866667 -1.1,3.366666 -0.8,3.566667 2.233334,1.5 3,-2.1 2.7,-2.333333 2.666666,1.6 -0.8,3.466666 L -54,98.166667 l 2.366667,1.266666 2.766666,-2.4 L -46.4,94.466667 -43.6,95.8 -44.033333,99.333333 -44.1,103 l 2.466667,1.03333 2.533333,-2.66666 2.2,-2.800003 2.9,1.033333 -0.06667,3.56667 0.266667,3.66666 2.566667,0.76667 2.266666,-2.9 1.9,-3 3,0.76667 L -23.8,106 l 0.633333,3.63333 2.633334,0.5 1.966666,-3.06666 1.6,-3.2 3.066667,0.46666 0.6,3.5 1,3.53334 2.6666667,0.26666 L -8,108.36667 l 1.3,-3.33334 3.0666667,0.16667 0.9666666,3.43333 1.3333334,3.4 h 2.6666666 l 1.3333334,-3.4 L 3.6333333,105.2 6.7,105.03333 8,108.36667 9.6333333,111.63333 12.3,111.36667 l 1,-3.53334 0.6,-3.5 3.066667,-0.46666 1.6,3.2 1.966666,3.06666 2.633334,-0.5 L 23.8,106 l 0.266667,-3.53333 3,-0.76667 1.9,3 2.266666,2.9 L 33.8,106.83333 34.066667,103.16667 34,99.6 l 2.9,-1.033333 2.2,2.800003 2.533333,2.66666 L 44.1,103 44.033333,99.333333 43.6,95.8 l 2.8,-1.333333 2.466667,2.566666 2.766666,2.4 L 54,98.166667 l -0.433333,-3.633334 -0.8,-3.466666 2.666666,-1.6 2.7,2.333333 3,2.1 2.233334,-1.5 -0.8,-3.566667 -1.1,-3.366666 2.466666,-1.866667 2.9,2.066667 3.2,1.8 2.066667,-1.7 -1.133333,-3.5 -1.433334,-3.233334 2.3,-2.1 3.1,1.766667 3.333334,1.466667 1.9,-1.9 L 78.7,74.933333 l -1.766667,-3.1 2.1,-2.3 3.233334,1.433334 3.5,1.133333 1.7,-2.066667 -1.8,-3.2 -2.066667,-2.9 1.866667,-2.466666 3.366666,1.1 3.566667,0.8 1.5,-2.233334 -2.1,-3 -2.333333,-2.7 1.6,-2.666666 3.466666,0.8 L 98.166667,54 l 1.266666,-2.366667 -2.4,-2.766666 L 94.466667,46.4 95.8,43.6 99.333333,44.033333 103,44.1 104.03333,41.633333 101.36667,39.1 98.566667,36.9 99.6,34 103.16667,34.066667 106.83333,33.8 107.6,31.233333 l -2.9,-2.266666 -3,-1.9 0.76667,-3 L 106,23.8 l 3.63333,-0.633333 0.5,-2.633334 -3.06666,-1.966666 -3.2,-1.6 0.46666,-3.066667 3.5,-0.6 3.53334,-1 0.26666,-2.6666667 L 108.36667,8 105.03333,6.7 105.2,3.6333333 l 3.43333,-0.9666666 3.4,-1.3333334 v -2.6666666 l -3.4,-1.3333334 L 105.2,-3.6333333 105.03333,-6.7 108.36667,-8 111.63333,-9.6333333 111.36667,-12.3 l -3.53334,-1 -3.5,-0.6 -0.46666,-3.066667 3.2,-1.6 3.06666,-1.966666 -0.5,-2.633334 L 106,-23.8 l -3.53333,-0.266667 -0.76667,-3 3,-1.9 2.9,-2.266666 L 106.83333,-33.8 103.16667,-34.066667 99.6,-34 l -1.033333,-2.9 2.800003,-2.2 2.66666,-2.533333 L 103,-44.1 99.333333,-44.033333 95.8,-43.6 l -1.333333,-2.8 2.566666,-2.466667 2.4,-2.766666 L 98.166667,-54 l -3.633334,0.433333 -3.466666,0.8 -1.6,-2.666666 2.333333,-2.7 2.1,-3 -1.5,-2.233334 -3.566667,0.8 -3.366666,1.1 -1.866667,-2.466666 2.066667,-2.9 1.8,-3.2 -1.7,-2.066667 -3.5,1.133333 -3.233334,1.433334 -2.1,-2.3 1.766667,-3.1 1.466667,-3.333334 -1.9,-1.9 -3.333334,1.466667 -3.1,1.766667 -2.3,-2.1 1.433334,-3.233334 1.133333,-3.5 -2.066667,-1.7 -3.2,1.8 -2.9,2.066667 -2.466666,-1.866667 1.1,-3.366666 0.8,-3.566667 -2.233334,-1.5 -3,2.1 -2.7,2.333333 -2.666666,-1.6 0.8,-3.466666 L 54,-98.166667 l -2.366667,-1.266666 -2.766666,2.4 L 46.4,-94.466667 43.6,-95.8 44.033333,-99.333333 44.1,-103 41.633333,-104.03333 39.1,-101.36667 36.9,-98.566667 34,-99.6 34.066667,-103.16667 33.8,-106.83333 31.233333,-107.6 l -2.266666,2.9 -1.9,3 -3,-0.76667 L 23.8,-106 l -0.633333,-3.63333 -2.633334,-0.5 -1.966666,3.06666 -1.6,3.2 -3.066667,-0.46666 -0.6,-3.5 -1,-3.53334 -2.6666667,-0.26666 L 8,-108.36667 6.7,-105.03333 3.6333333,-105.2 l -0.9666666,-3.43333 -1.3333334,-3.4 z M 0,-90.666667 c 21.178688,0 40.661781,7.282869 56.1,19.466667 l -44.8,44.8 c -6.2451627,6.245163 -16.3548373,6.245163 -22.6,0 L -56.1,-71.2 C -40.661781,-83.383798 -21.178688,-90.666667 0,-90.666667 Z M -71.2,-56.1 l 44.8,44.8 c 6.245163,6.2451627 6.245163,16.3548373 0,22.6 L -71.2,56.1 C -83.383798,40.661781 -90.666667,21.178688 -90.666667,0 c 0,-21.178688 7.282869,-40.661781 19.466667,-56.1 z m 142.4,0 c 12.183797,15.438219 19.466667,34.921312 19.466667,56.1 0,21.178688 -7.28287,40.661781 -19.466667,56.1 L 26.4,11.3 c -6.245163,-6.2451627 -6.245163,-16.3548373 0,-22.6 z M 0,21.7 c 4.0955627,0 8.1774187,1.577419 11.3,4.7 L 56.1,71.2 C 40.661781,83.383797 21.178688,90.666667 0,90.666667 c -21.178688,0 -40.661781,-7.28287 -56.1,-19.466667 L -11.3,26.4 C -8.1774187,23.277419 -4.0955627,21.7 0,21.7 Z"
         id="path2803"
         inkscape:connector-curvature="0"
         style="stroke-width:1.06666672" />
    </g>
  </g>
  <g
     id="FrontPlate">
    <g
       id="HourDots">
      <path
         d="m 162.13333,64 a 2.1333333,2.1333333 0 1 1 -4.26666,0 2.1333333,2.1333333 0 1 1 4.26666,0 z"
         style="opacity:0.5;fill:#554400;stroke:none;stroke-width:1.06666672"
         id="path3518"
         inkscape:connector-curvature="0" />
      <path
         d="m 162.13333,256 a 2.1333333,2.1333333 0 1 1 -4.26666,0 2.1333333,2.1333333 0 1 1 4.26666,0 z"
         style="opacity:0.5;fill:#554400;stroke:none;stroke-width:1.06666672"
         id="path3520"
         inkscape:connector-curvature="0" />
      <path
         d="m 113.84752,75.794895 a 2.1333333,2.1333333 0 1 1 -3.69504,2.133333 2.1333333,2.1333333 0 1 1 3.69504,-2.133333 z"
         style="opacity:0.5;fill:#554400;stroke:none;stroke-width:1.06666672"
         id="path3526"
         inkscape:connector-curvature="0" />
      <path
         d="m 209.84752,242.07177 a 2.1333333,2.1333333 0 1 1 -3.69504,2.13333 2.1333333,2.1333333 0 1 1 3.69504,-2.13333 z"
         style="opacity:0.5;fill:#554400;stroke:none;stroke-width:1.06666672"
         id="path3528"
         inkscape:connector-curvature="0" />
      <path
         d="m 77.928228,110.15248 a 2.1333333,2.1333333 0 1 1 -2.133333,3.69504 2.1333333,2.1333333 0 1 1 2.133333,-3.69504 z"
         style="opacity:0.5;fill:#554400;stroke:none;stroke-width:1.06666672"
         id="path3530"
         inkscape:connector-curvature="0" />
      <path
         d="m 244.2051,206.15248 a 2.1333333,2.1333333 0 1 1 -2.13333,3.69504 2.1333333,2.1333333 0 1 1 2.13333,-3.69504 z"
         style="opacity:0.5;fill:#554400;stroke:none;stroke-width:1.06666672"
         id="path3532"
         inkscape:connector-curvature="0" />
      <path
         d="m 64,157.86667 a 2.1333333,2.1333333 0 1 1 0,4.26666 2.1333333,2.1333333 0 1 1 0,-4.26666 z"
         style="opacity:0.5;fill:#554400;stroke:none;stroke-width:1.06666672"
         id="path3534"
         inkscape:connector-curvature="0" />
      <path
         d="m 256,157.86667 a 2.1333333,2.1333333 0 1 1 0,4.26666 2.1333333,2.1333333 0 1 1 0,-4.26666 z"
         style="opacity:0.5;fill:#554400;stroke:none;stroke-width:1.06666672"
         id="path3536"
         inkscape:connector-curvature="0" />
      <path
         d="m 75.794895,206.15248 a 2.1333333,2.1333333 0 1 1 2.133333,3.69504 2.1333333,2.1333333 0 1 1 -2.133333,-3.69504 z"
         style="opacity:0.5;fill:#554400;stroke:none;stroke-width:1.06666672"
         id="path3538"
         inkscape:connector-curvature="0" />
      <path
         d="m 242.07176,110.15248 a 2.1333343,2.1333343 0 1 1 2.13334,3.69504 2.1333343,2.1333343 0 1 1 -2.13334,-3.69504 z"
         style="opacity:0.5;fill:#554400;stroke:none;stroke-width:1.06666672"
         id="path3540"
         inkscape:connector-curvature="0" />
      <path
         d="m 110.15248,242.07177 a 2.1333343,2.1333343 0 1 1 3.69504,2.13334 2.1333343,2.1333343 0 1 1 -3.69504,-2.13334 z"
         style="opacity:0.5;fill:#554400;stroke:none;stroke-width:1.06666672"
         id="path3542"
         inkscape:connector-curvature="0" />
      <path
         d="m 206.15248,75.794898 a 2.1333368,2.1333368 0 1 1 3.69505,2.133333 2.1333368,2.1333368 0 1 1 -3.69505,-2.133333 z"
         style="opacity:0.5;fill:#554400;stroke:none;stroke-width:1.06666672"
         id="path3544"
         inkscape:connector-curvature="0" />
    </g>
    <g
       transform="translate(240)"
       id="MinuteDots">
      <path
         d="m 162.13333,64 a 2.1333333,2.1333333 0 1 1 -4.26666,0 2.1333333,2.1333333 0 1 1 4.26666,0 z"
         style="opacity:0.5;fill:#554400;stroke:none;stroke-width:1.06666672"
         id="path3562"
         inkscape:connector-curvature="0" />
      <path
         d="m 162.13333,256 a 2.1333333,2.1333333 0 1 1 -4.26666,0 2.1333333,2.1333333 0 1 1 4.26666,0 z"
         style="opacity:0.5;fill:#554400;stroke:none;stroke-width:1.06666672"
         id="path3564"
         inkscape:connector-curvature="0" />
      <path
         d="m 113.84752,75.794895 a 2.1333333,2.1333333 0 1 1 -3.69504,2.133333 2.1333333,2.1333333 0 1 1 3.69504,-2.133333 z"
         style="opacity:0.5;fill:#554400;stroke:none;stroke-width:1.06666672"
         id="path3566"
         inkscape:connector-curvature="0" />
      <path
         d="m 209.84752,242.07177 a 2.1333333,2.1333333 0 1 1 -3.69504,2.13333 2.1333333,2.1333333 0 1 1 3.69504,-2.13333 z"
         style="opacity:0.5;fill:#554400;stroke:none;stroke-width:1.06666672"
         id="path3568"
         inkscape:connector-curvature="0" />
      <path
         d="m 77.928228,110.15248 a 2.1333333,2.1333333 0 1 1 -2.133333,3.69504 2.1333333,2.1333333 0 1 1 2.133333,-3.69504 z"
         style="opacity:0.5;fill:#554400;stroke:none;stroke-width:1.06666672"
         id="path3570"
         inkscape:connector-curvature="0" />
      <path
         d="m 244.2051,206.15248 a 2.1333333,2.1333333 0 1 1 -2.13333,3.69504 2.1333333,2.1333333 0 1 1 2.13333,-3.69504 z"
         style="opacity:0.5;fill:#554400;stroke:none;stroke-width:1.06666672"
         id="path3572"
         inkscape:connector-curvature="0" />
      <path
         d="m 64,157.86667 a 2.1333333,2.1333333 0 1 1 0,4.26666 2.1333333,2.1333333 0 1 1 0,-4.26666 z"
         style="opacity:0.5;fill:#554400;stroke:none;stroke-width:1.06666672"
         id="path3574"
         inkscape:connector-curvature="0" />
      <path
         d="m 256,157.86667 a 2.1333333,2.1333333 0 1 1 0,4.26666 2.1333333,2.1333333 0 1 1 0,-4.26666 z"
         style="opacity:0.5;fill:#554400;stroke:none;stroke-width:1.06666672"
         id="path3576"
         inkscape:connector-curvature="0" />
      <path
         d="m 75.794895,206.15248 a 2.1333333,2.1333333 0 1 1 2.133333,3.69504 2.1333333,2.1333333 0 1 1 -2.133333,-3.69504 z"
         style="opacity:0.5;fill:#554400;stroke:none;stroke-width:1.06666672"
         id="path3578"
         inkscape:connector-curvature="0" />
      <path
         d="m 242.07176,110.15248 a 2.1333343,2.1333343 0 1 1 2.13334,3.69504 2.1333343,2.1333343 0 1 1 -2.13334,-3.69504 z"
         style="opacity:0.5;fill:#554400;stroke:none;stroke-width:1.06666672"
         id="path3580"
         inkscape:connector-curvature="0" />
      <path
         d="m 110.15248,242.07177 a 2.1333343,2.1333343 0 1 1 3.69504,2.13334 2.1333343,2.1333343 0 1 1 -3.69504,-2.13334 z"
         style="opacity:0.5;fill:#554400;stroke:none;stroke-width:1.06666672"
         id="path3582"
         inkscape:connector-curvature="0" />
      <path
         d="m 206.15248,75.794898 a 2.1333368,2.1333368 0 1 1 3.69505,2.133333 2.1333368,2.1333368 0 1 1 -3.69505,-2.133333 z"
         style="opacity:0.5;fill:#554400;stroke:none;stroke-width:1.06666672"
         id="path3584"
         inkscape:connector-curvature="0" />
    </g>
    <g
       transform="translate(480)"
       id="SecondDots">
      <path
         d="m 162.13333,64 a 2.1333333,2.1333333 0 1 1 -4.26666,0 2.1333333,2.1333333 0 1 1 4.26666,0 z"
         style="opacity:0.5;fill:#554400;stroke:none;stroke-width:1.06666672"
         id="path3588"
         inkscape:connector-curvature="0" />
      <path
         d="m 162.13333,256 a 2.1333333,2.1333333 0 1 1 -4.26666,0 2.1333333,2.1333333 0 1 1 4.26666,0 z"
         style="opacity:0.5;fill:#554400;stroke:none;stroke-width:1.06666672"
         id="path3590"
         inkscape:connector-curvature="0" />
      <path
         d="m 113.84752,75.794895 a 2.1333333,2.1333333 0 1 1 -3.69504,2.133333 2.1333333,2.1333333 0 1 1 3.69504,-2.133333 z"
         style="opacity:0.5;fill:#554400;stroke:none;stroke-width:1.06666672"
         id="path3592"
         inkscape:connector-curvature="0" />
      <path
         d="m 209.84752,242.07177 a 2.1333333,2.1333333 0 1 1 -3.69504,2.13333 2.1333333,2.1333333 0 1 1 3.69504,-2.13333 z"
         style="opacity:0.5;fill:#554400;stroke:none;stroke-width:1.06666672"
         id="path3594"
         inkscape:connector-curvature="0" />
      <path
         d="m 77.928228,110.15248 a 2.1333333,2.1333333 0 1 1 -2.133333,3.69504 2.1333333,2.1333333 0 1 1 2.133333,-3.69504 z"
         style="opacity:0.5;fill:#554400;stroke:none;stroke-width:1.06666672"
         id="path3596"
         inkscape:connector-curvature="0" />
      <path
         d="m 244.2051,206.15248 a 2.1333333,2.1333333 0 1 1 -2.13333,3.69504 2.1333333,2.1333333 0 1 1 2.13333,-3.69504 z"
         style="opacity:0.5;fill:#554400;stroke:none;stroke-width:1.06666672"
         id="path3598"
         inkscape:connector-curvature="0" />
      <path
         d="m 64,157.86667 a 2.1333333,2.1333333 0 1 1 0,4.26666 2.1333333,2.1333333 0 1 1 0,-4.26666 z"
         style="opacity:0.5;fill:#554400;stroke:none;stroke-width:1.06666672"
         id="path3600"
         inkscape:connector-curvature="0" />
      <path
         d="m 256,157.86667 a 2.1333333,2.1333333 0 1 1 0,4.26666 2.1333333,2.1333333 0 1 1 0,-4.26666 z"
         style="opacity:0.5;fill:#554400;stroke:none;stroke-width:1.06666672"
         id="path3602"
         inkscape:connector-curvature="0" />
      <path
         d="m 75.794895,206.15248 a 2.1333333,2.1333333 0 1 1 2.133333,3.69504 2.1333333,2.1333333 0 1 1 -2.133333,-3.69504 z"
         style="opacity:0.5;fill:#554400;stroke:none;stroke-width:1.06666672"
         id="path3604"
         inkscape:connector-curvature="0" />
      <path
         d="m 242.07176,110.15248 a 2.1333343,2.1333343 0 1 1 2.13334,3.69504 2.1333343,2.1333343 0 1 1 -2.13334,-3.69504 z"
         style="opacity:0.5;fill:#554400;stroke:none;stroke-width:1.06666672"
         id="path3606"
         inkscape:connector-curvature="0" />
      <path
         d="m 110.15248,242.07177 a 2.1333343,2.1333343 0 1 1 3.69504,2.13334 2.1333343,2.1333343 0 1 1 -3.69504,-2.13334 z"
         style="opacity:0.5;fill:#554400;stroke:none;stroke-width:1.06666672"
         id="path3608"
         inkscape:connector-curvature="0" />
      <path
         d="m 206.15248,75.794898 a 2.1333368,2.1333368 0 1 1 3.69505,2.133333 2.1333368,2.1333368 0 1 1 -3.69505,-2.133333 z"
         style="opacity:0.5;fill:#554400;stroke:none;stroke-width:1.06666672"
         id="path3610"
         inkscape:connector-curvature="0" />
    </g>
  </g>
  <g
     transform="translate(160,160)"
     id="HourHand">
    <g
       id="RotHourHand">
      <path
         d="m 0,-88 -2.6666667,8 -2.3666666,70.6 c -3.3469867,1.800352 -5.6333337,5.3356907 -5.6333337,9.4 0,4.2644267 2.514059,7.9267093 6.1333337,9.6333333 L -2.6666667,32 H 2.6666667 L 4.5333333,9.6333333 C 8.152608,7.9267093 10.666667,4.2644267 10.666667,0 c 0,-4.0643093 -2.286347,-7.599648 -5.6333337,-9.4 L 2.6666667,-80 Z M 0,-2.6666667 C 1.472,-2.6666667 2.6666667,-1.472 2.6666667,0 2.6666667,1.472 1.472,2.6666667 0,2.6666667 -1.472,2.6666667 -2.6666667,1.472 -2.6666667,0 -2.6666667,-1.472 -1.472,-2.6666667 0,-2.6666667 Z"
         style="opacity:1;fill:#800000;stroke:#000000;stroke-width:1.06666672"
         id="HourHandPath"
         inkscape:connector-curvature="0" />
    </g>
  </g>
  <g
     transform="translate(400,160)"
     id="MinuteHand">
    <g
       id="RotMinuteHand">
      <path
         d="m 0,-88 -2.6666667,8 -2.3666666,70.6 c -3.3469867,1.800352 -5.6333337,5.3356907 -5.6333337,9.4 0,4.2644267 2.514059,7.9267093 6.1333337,9.6333333 L -2.6666667,32 H 2.6666667 L 4.5333333,9.6333333 C 8.152608,7.9267093 10.666667,4.2644267 10.666667,0 c 0,-4.0643093 -2.286347,-7.599648 -5.6333337,-9.4 L 2.6666667,-80 Z M 0,-2.6666667 C 1.472,-2.6666667 2.6666667,-1.472 2.6666667,0 2.6666667,1.472 1.472,2.6666667 0,2.6666667 -1.472,2.6666667 -2.6666667,1.472 -2.6666667,0 -2.6666667,-1.472 -1.472,-2.6666667 0,-2.6666667 Z"
         style="opacity:1;fill:#800000;stroke:#000000;stroke-width:1.06666672"
         id="MinuteHandPath"
         inkscape:connector-curvature="0" />
    </g>
  </g>
  <g
     transform="translate(640,160)"
     id="SecondHand">
    <g
       id="RotSecondHand">
      <path
         d="m 0,-88 -2.6666667,8 -2.3666666,70.6 c -3.3469867,1.800352 -5.6333337,5.3356907 -5.6333337,9.4 0,4.2644267 2.514059,7.9267093 6.1333337,9.6333333 L -2.6666667,32 H 2.6666667 L 4.5333333,9.6333333 C 8.152608,7.9267093 10.666667,4.2644267 10.666667,0 c 0,-4.0643093 -2.286347,-7.599648 -5.6333337,-9.4 L 2.6666667,-80 Z M 0,-2.6666667 C 1.472,-2.6666667 2.6666667,-1.472 2.6666667,0 2.6666667,1.472 1.472,2.6666667 0,2.6666667 -1.472,2.6666667 -2.6666667,1.472 -2.6666667,0 -2.6666667,-1.472 -1.472,-2.6666667 0,-2.6666667 Z"
         style="opacity:1;fill:#800000;stroke:#000000;stroke-width:1.06666672"
         id="SecondHandPath"
         inkscape:connector-curvature="0" />
    </g>
  </g>
  <text
     x="159.07335"
     y="332.55084"
     style="font-style:italic;font-weight:normal;font-size:25.60000038px;font-family:Serif;text-align:center;text-anchor:middle;fill:#000000;stroke:none;stroke-width:1.06666672px;stroke-linecap:butt;stroke-linejoin:miter;stroke-opacity:1"
     id="text2253"
     xml:space="preserve"><tspan
       x="159.07335"
       y="332.55084"
       id="tspan2255"
       style="stroke-width:1.06666672px">Hours</tspan></text>
  <text
     x="400.78482"
     y="332.55084"
     style="font-style:italic;font-weight:normal;font-size:25.60000038px;font-family:Serif;text-align:center;text-anchor:middle;fill:#000000;stroke:none;stroke-width:1.06666672px;stroke-linecap:butt;stroke-linejoin:miter;stroke-opacity:1"
     id="text2257"
     xml:space="preserve"><tspan
       x="400.78482"
       y="332.55084"
       id="tspan2259"
       style="stroke-width:1.06666672px">Minutes</tspan></text>
  <text
     x="639.39929"
     y="332.55084"
     style="font-style:italic;font-weight:normal;font-size:25.60000038px;font-family:Serif;text-align:center;text-anchor:middle;fill:#000000;stroke:none;stroke-width:1.06666672px;stroke-linecap:butt;stroke-linejoin:miter;stroke-opacity:1"
     id="text2261"
     xml:space="preserve"><tspan
       x="639.39929"
       y="332.55084"
       id="tspan2263"
       style="stroke-width:1.06666672px">Seconds</tspan></text>
  <rect
     width="800"
     height="373.33334"
     x="0"
     y="0"
     style="opacity:1;fill:none;stroke:#999999;stroke-width:2.13333344;stroke-miterlimit:4;stroke-dasharray:none;stroke-opacity:1"
     id="rect3251" />
  <text
     xml:space="preserve"
     style="font-style:normal;font-variant:normal;font-weight:normal;font-stretch:normal;font-size:10.66666698px;line-height:125%;font-family:Serif;text-align:center;text-anchor:middle;fill:#000000;stroke:none;stroke-width:1.06666672px;stroke-linecap:butt;stroke-linejoin:miter;stroke-opacity:1"
     x="727.58038"
     y="355.31464"
     id="text11233"><tspan
       sodipodi:role="line"
       id="tspan11599"
       x="727.58038"
       y="355.31464"
       style="stroke-width:1.06666672px">Tavmjong Bah © 2007</tspan><tspan
       sodipodi:role="line"
       id="tspan11601"
       x="727.58038"
       y="368.64798"
       style="stroke-width:1.06666672px">http://tavmjong.free.fr/</tspan></text>
</svg>
