<?xml version="1.0" encoding="UTF-8" standalone="no"?>
<!-- Created with Inkscape (http://www.inkscape.org/) -->
<svg
   xmlns:dc="http://purl.org/dc/elements/1.1/"
   xmlns:cc="http://web.resource.org/cc/"
   xmlns:rdf="http://www.w3.org/1999/02/22-rdf-syntax-ns#"
   xmlns:svg="http://www.w3.org/2000/svg"
   xmlns="http://www.w3.org/2000/svg"
   xmlns:xlink="http://www.w3.org/1999/xlink"
   xmlns:sodipodi="http://sodipodi.sourceforge.net/DTD/sodipodi-0.dtd"
   xmlns:inkscape="http://www.inkscape.org/namespaces/inkscape"
   sodipodi:docname="art-nouveau-P3.svg"
   sodipodi:docbase="/home/d/ink/screens/tiles"
   inkscape:version="0.40+cvs"
   sodipodi:version="0.32"
   id="svg2675"
   height="297mm"
   width="210mm">
  <defs
     id="defs3" />
  <sodipodi:namedview
     showborder="false"
     inkscape:window-y="10"
     inkscape:window-x="0"
     inkscape:window-height="744"
     inkscape:window-width="921"
     inkscape:current-layer="g11003"
     inkscape:cy="424.76690"
     inkscape:cx="504.35431"
     inkscape:zoom="1.2105455"
     inkscape:pageshadow="2"
     inkscape:pageopacity="0.0"
     borderopacity="1.0"
     bordercolor="#666666"
     pagecolor="#ffffff"
     id="base" />
  <metadata
     id="metadata4">
    <rdf:RDF
       id="RDF5">
      <cc:Work
         id="Work6"
         rdf:about="">
        <dc:format
           id="format7">image/svg+xml</dc:format>
        <dc:type
           rdf:resource="http://purl.org/dc/dcmitype/StillImage"
           id="type9" />
      </cc:Work>
    </rdf:RDF>
  </metadata>
  <g
     id="layer1"
     inkscape:groupmode="layer"
     inkscape:label="Layer 1">
    <g
       inkscape:tile-cy="488.42624"
       inkscape:tile-cx="255.43810"
       inkscape:tile-h="100.34230"
       inkscape:tile-w="96.261981"
       id="g11003">
      <path
         sodipodi:nodetypes="ccccc"
         transform="translate(-13.84838,12.50000)"
         d="M 269.28600,424.56613 C 286.61909,430.99505 231.39050,532.31584 209.66677,528.02273 L 210.92271,525.84739 C 231.45992,530.98862 285.68929,432.61405 267.90917,426.95087 L 269.28600,424.56613 z "
         id="path1417"
         style="fill:#776800;fill-opacity:1.0000000;fill-rule:nonzero;stroke:none;stroke-width:1.0000000pt;stroke-linecap:butt;stroke-linejoin:miter;stroke-opacity:1.0000000;" />
      <path
         transform="matrix(0.695044,-0.747489,0.747489,0.695044,-293.5086,333.6564)"
         sodipodi:nodetypes="cssccsscc"
         inkscape:tile-cy="544.01295"
         inkscape:tile-cx="231.18734"
         inkscape:tile-h="117.19225"
         inkscape:tile-w="95.677230"
         d="M 213.01514,478.77635 C 217.16859,468.79387 256.36376,409.41026 254.06608,449.18297 C 252.92261,468.97643 223.31046,560.68337 266.55319,545.42891 C 280.98339,540.33846 298.35397,520.55193 309.01213,503.90860 L 305.41060,510.14664 C 294.70070,526.73885 281.89612,544.42946 262.99901,551.58493 C 224.80065,566.04890 250.11050,474.54993 250.60127,455.18419 C 251.49249,420.01670 220.45597,467.16773 217.60950,471.60218 L 213.01514,478.77635 z "
         id="path2685"
         style="fill:#000000;fill-opacity:1.0000000;fill-rule:nonzero;stroke:none;stroke-width:1.0000000pt;stroke-linecap:butt;stroke-linejoin:miter;stroke-opacity:1.0000000" />
      <path
         transform="matrix(0.250000,0.000000,0.000000,0.250000,186.0136,373.4558)"
         d="M 256.79661 515.56830 A 4.7672634 4.7672634 0 1 1  247.26208,515.56830 A 4.7672634 4.7672634 0 1 1  256.79661 515.56830 z"
         sodipodi:ry="4.7672634"
         sodipodi:rx="4.7672634"
         sodipodi:cy="515.56830"
         sodipodi:cx="252.02934"
         id="path2691"
         style="color:#000000;fill:#000000;fill-opacity:1.0000000;fill-rule:evenodd;stroke:none;stroke-width:2.5000000;stroke-linecap:butt;stroke-linejoin:round;stroke-miterlimit:4.0000000;stroke-dashoffset:0.0000000;stroke-opacity:1.0000000;marker:none;marker-start:none;marker-mid:none;marker-end:none;visibility:visible;display:block;"
         sodipodi:type="arc" />
    </g>
    <use
       id="use1350"
       transform="translate(86.89898,50.17115)"
       xlink:href="#g11003"
       inkscape:tiled-clone-of="#g11003"
       y="0"
       x="0" />
    <use
       id="use1351"
       transform="translate(0.000000,100.3423)"
       xlink:href="#g11003"
       inkscape:tiled-clone-of="#g11003"
       y="0"
       x="0" />
    <use
       id="use1352"
       transform="translate(86.89898,150.5134)"
       xlink:href="#g11003"
       inkscape:tiled-clone-of="#g11003"
       y="0"
       x="0" />
    <use
       id="use1353"
       transform="translate(0.000000,200.6846)"
       xlink:href="#g11003"
       inkscape:tiled-clone-of="#g11003"
       y="0"
       x="0" />
    <use
       id="use1354"
       transform="translate(86.89898,250.8558)"
       xlink:href="#g11003"
       inkscape:tiled-clone-of="#g11003"
       y="0"
       x="0" />
    <use
       id="use1355"
       transform="translate(0.000000,301.0269)"
       xlink:href="#g11003"
       inkscape:tiled-clone-of="#g11003"
       y="0"
       x="0" />
    <use
       id="use1356"
       transform="matrix(-0.500000,0.866025,-0.866025,-0.500000,849.5962,486.3379)"
       xlink:href="#g11003"
       inkscape:tiled-clone-of="#g11003"
       y="0"
       x="0" />
    <use
       id="use1357"
       transform="matrix(-0.500000,0.866025,-0.866025,-0.500000,936.4952,536.5091)"
       xlink:href="#g11003"
       inkscape:tiled-clone-of="#g11003"
       y="0"
       x="0" />
    <use
       id="use1358"
       transform="matrix(-0.500000,0.866025,-0.866025,-0.500000,849.5962,586.6802)"
       xlink:href="#g11003"
       inkscape:tiled-clone-of="#g11003"
       y="0"
       x="0" />
    <use
       id="use1359"
       transform="matrix(-0.500000,0.866025,-0.866025,-0.500000,936.4952,636.8514)"
       xlink:href="#g11003"
       inkscape:tiled-clone-of="#g11003"
       y="0"
       x="0" />
    <use
       id="use1360"
       transform="matrix(-0.500000,0.866025,-0.866025,-0.500000,849.5962,687.0225)"
       xlink:href="#g11003"
       inkscape:tiled-clone-of="#g11003"
       y="0"
       x="0" />
    <use
       id="use1361"
       transform="matrix(-0.500000,0.866025,-0.866025,-0.500000,936.4952,737.1937)"
       xlink:href="#g11003"
       inkscape:tiled-clone-of="#g11003"
       y="0"
       x="0" />
    <use
       id="use1362"
       transform="matrix(-0.500000,0.866025,-0.866025,-0.500000,849.5962,787.3648)"
       xlink:href="#g11003"
       inkscape:tiled-clone-of="#g11003"
       y="0"
       x="0" />
    <use
       id="use1363"
       transform="matrix(-0.500000,-0.866025,0.866025,-0.500000,3.617109,978.9408)"
       xlink:href="#g11003"
       inkscape:tiled-clone-of="#g11003"
       y="0"
       x="0" />
    <use
       id="use1364"
       transform="matrix(-0.500000,-0.866025,0.866025,-0.500000,90.51609,1029.112)"
       xlink:href="#g11003"
       inkscape:tiled-clone-of="#g11003"
       y="0"
       x="0" />
    <use
       id="use1365"
       transform="matrix(-0.500000,-0.866025,0.866025,-0.500000,3.617109,1079.283)"
       xlink:href="#g11003"
       inkscape:tiled-clone-of="#g11003"
       y="0"
       x="0" />
    <use
       id="use1366"
       transform="matrix(-0.500000,-0.866025,0.866025,-0.500000,90.51609,1129.454)"
       xlink:href="#g11003"
       inkscape:tiled-clone-of="#g11003"
       y="0"
       x="0" />
    <use
       id="use1367"
       transform="matrix(-0.500000,-0.866025,0.866025,-0.500000,3.617109,1179.625)"
       xlink:href="#g11003"
       inkscape:tiled-clone-of="#g11003"
       y="0"
       x="0" />
    <use
       id="use1368"
       transform="matrix(-0.500000,-0.866025,0.866025,-0.500000,90.51609,1229.797)"
       xlink:href="#g11003"
       inkscape:tiled-clone-of="#g11003"
       y="0"
       x="0" />
    <use
       id="use1369"
       transform="matrix(-0.500000,-0.866025,0.866025,-0.500000,3.617109,1279.968)"
       xlink:href="#g11003"
       inkscape:tiled-clone-of="#g11003"
       y="0"
       x="0" />
    <use
       id="use1370"
       transform="translate(173.7980,0.000000)"
       xlink:href="#g11003"
       inkscape:tiled-clone-of="#g11003"
       y="0"
       x="0" />
    <use
       id="use1371"
       transform="translate(260.6969,50.17115)"
       xlink:href="#g11003"
       inkscape:tiled-clone-of="#g11003"
       y="0"
       x="0" />
    <use
       id="use1372"
       transform="translate(173.7980,100.3423)"
       xlink:href="#g11003"
       inkscape:tiled-clone-of="#g11003"
       y="0"
       x="0" />
    <use
       id="use1373"
       transform="translate(260.6969,150.5134)"
       xlink:href="#g11003"
       inkscape:tiled-clone-of="#g11003"
       y="0"
       x="0" />
    <use
       id="use1374"
       transform="translate(173.7980,200.6846)"
       xlink:href="#g11003"
       inkscape:tiled-clone-of="#g11003"
       y="0"
       x="0" />
    <use
       id="use1375"
       transform="translate(260.6969,250.8558)"
       xlink:href="#g11003"
       inkscape:tiled-clone-of="#g11003"
       y="0"
       x="0" />
    <use
       id="use1376"
       transform="translate(173.7980,301.0269)"
       xlink:href="#g11003"
       inkscape:tiled-clone-of="#g11003"
       y="0"
       x="0" />
    <use
       id="use1377"
       transform="matrix(-0.500000,0.866025,-0.866025,-0.500000,1023.394,486.3379)"
       xlink:href="#g11003"
       inkscape:tiled-clone-of="#g11003"
       y="0"
       x="0" />
    <use
       id="use1378"
       transform="matrix(-0.500000,0.866025,-0.866025,-0.500000,1110.293,536.5091)"
       xlink:href="#g11003"
       inkscape:tiled-clone-of="#g11003"
       y="0"
       x="0" />
    <use
       id="use1379"
       transform="matrix(-0.500000,0.866025,-0.866025,-0.500000,1023.394,586.6802)"
       xlink:href="#g11003"
       inkscape:tiled-clone-of="#g11003"
       y="0"
       x="0" />
    <use
       id="use1380"
       transform="matrix(-0.500000,0.866025,-0.866025,-0.500000,1110.293,636.8514)"
       xlink:href="#g11003"
       inkscape:tiled-clone-of="#g11003"
       y="0"
       x="0" />
    <use
       id="use1381"
       transform="matrix(-0.500000,0.866025,-0.866025,-0.500000,1023.394,687.0225)"
       xlink:href="#g11003"
       inkscape:tiled-clone-of="#g11003"
       y="0"
       x="0" />
    <use
       id="use1382"
       transform="matrix(-0.500000,0.866025,-0.866025,-0.500000,1110.293,737.1937)"
       xlink:href="#g11003"
       inkscape:tiled-clone-of="#g11003"
       y="0"
       x="0" />
    <use
       id="use1383"
       transform="matrix(-0.500000,0.866025,-0.866025,-0.500000,1023.394,787.3648)"
       xlink:href="#g11003"
       inkscape:tiled-clone-of="#g11003"
       y="0"
       x="0" />
    <use
       id="use1384"
       transform="matrix(-0.500000,-0.866025,0.866025,-0.500000,177.4151,978.9408)"
       xlink:href="#g11003"
       inkscape:tiled-clone-of="#g11003"
       y="0"
       x="0" />
    <use
       id="use1385"
       transform="matrix(-0.500000,-0.866025,0.866025,-0.500000,264.3141,1029.112)"
       xlink:href="#g11003"
       inkscape:tiled-clone-of="#g11003"
       y="0"
       x="0" />
    <use
       id="use1386"
       transform="matrix(-0.500000,-0.866025,0.866025,-0.500000,177.4151,1079.283)"
       xlink:href="#g11003"
       inkscape:tiled-clone-of="#g11003"
       y="0"
       x="0" />
    <use
       id="use1387"
       transform="matrix(-0.500000,-0.866025,0.866025,-0.500000,264.3141,1129.454)"
       xlink:href="#g11003"
       inkscape:tiled-clone-of="#g11003"
       y="0"
       x="0" />
    <use
       id="use1388"
       transform="matrix(-0.500000,-0.866025,0.866025,-0.500000,177.4151,1179.625)"
       xlink:href="#g11003"
       inkscape:tiled-clone-of="#g11003"
       y="0"
       x="0" />
    <use
       id="use1389"
       transform="matrix(-0.500000,-0.866025,0.866025,-0.500000,264.3141,1229.797)"
       xlink:href="#g11003"
       inkscape:tiled-clone-of="#g11003"
       y="0"
       x="0" />
    <use
       id="use1390"
       transform="matrix(-0.500000,-0.866025,0.866025,-0.500000,177.4151,1279.968)"
       xlink:href="#g11003"
       inkscape:tiled-clone-of="#g11003"
       y="0"
       x="0" />
    <use
       id="use1391"
       transform="translate(347.5959,0.000000)"
       xlink:href="#g11003"
       inkscape:tiled-clone-of="#g11003"
       y="0"
       x="0" />
    <use
       id="use1392"
       transform="translate(434.4949,50.17115)"
       xlink:href="#g11003"
       inkscape:tiled-clone-of="#g11003"
       y="0"
       x="0" />
    <use
       id="use1393"
       transform="translate(347.5959,100.3423)"
       xlink:href="#g11003"
       inkscape:tiled-clone-of="#g11003"
       y="0"
       x="0" />
    <use
       id="use1394"
       transform="translate(434.4949,150.5134)"
       xlink:href="#g11003"
       inkscape:tiled-clone-of="#g11003"
       y="0"
       x="0" />
    <use
       id="use1395"
       transform="translate(347.5959,200.6846)"
       xlink:href="#g11003"
       inkscape:tiled-clone-of="#g11003"
       y="0"
       x="0" />
    <use
       id="use1396"
       transform="translate(434.4949,250.8558)"
       xlink:href="#g11003"
       inkscape:tiled-clone-of="#g11003"
       y="0"
       x="0" />
    <use
       id="use1397"
       transform="translate(347.5959,301.0269)"
       xlink:href="#g11003"
       inkscape:tiled-clone-of="#g11003"
       y="0"
       x="0" />
    <use
       id="use1398"
       transform="matrix(-0.500000,0.866025,-0.866025,-0.500000,1197.192,486.3379)"
       xlink:href="#g11003"
       inkscape:tiled-clone-of="#g11003"
       y="0"
       x="0" />
    <use
       id="use1399"
       transform="matrix(-0.500000,0.866025,-0.866025,-0.500000,1284.091,536.5091)"
       xlink:href="#g11003"
       inkscape:tiled-clone-of="#g11003"
       y="0"
       x="0" />
    <use
       id="use1400"
       transform="matrix(-0.500000,0.866025,-0.866025,-0.500000,1197.192,586.6802)"
       xlink:href="#g11003"
       inkscape:tiled-clone-of="#g11003"
       y="0"
       x="0" />
    <use
       id="use1401"
       transform="matrix(-0.500000,0.866025,-0.866025,-0.500000,1284.091,636.8514)"
       xlink:href="#g11003"
       inkscape:tiled-clone-of="#g11003"
       y="0"
       x="0" />
    <use
       id="use1402"
       transform="matrix(-0.500000,0.866025,-0.866025,-0.500000,1197.192,687.0225)"
       xlink:href="#g11003"
       inkscape:tiled-clone-of="#g11003"
       y="0"
       x="0" />
    <use
       id="use1403"
       transform="matrix(-0.500000,0.866025,-0.866025,-0.500000,1284.091,737.1937)"
       xlink:href="#g11003"
       inkscape:tiled-clone-of="#g11003"
       y="0"
       x="0" />
    <use
       id="use1404"
       transform="matrix(-0.500000,0.866025,-0.866025,-0.500000,1197.192,787.3648)"
       xlink:href="#g11003"
       inkscape:tiled-clone-of="#g11003"
       y="0"
       x="0" />
  </g>
</svg>
