<?xml version="1.0" encoding="UTF-8" standalone="no"?>
<!-- Created with Inkscape (http://www.inkscape.org/) -->

<svg
   xmlns:dc="http://purl.org/dc/elements/1.1/"
   xmlns:cc="http://creativecommons.org/ns#"
   xmlns:rdf="http://www.w3.org/1999/02/22-rdf-syntax-ns#"
   xmlns:svg="http://www.w3.org/2000/svg"
   xmlns="http://www.w3.org/2000/svg"
   xmlns:xlink="http://www.w3.org/1999/xlink"
   xmlns:sodipodi="http://sodipodi.sourceforge.net/DTD/sodipodi-0.dtd"
   xmlns:inkscape="http://www.inkscape.org/namespaces/inkscape"
   sodipodi:docname="art-nouveau-P3.svg"
   inkscape:version="0.92.0 r15304"
   sodipodi:version="0.32"
   id="svg2675"
   height="297mm"
   width="210mm"
   version="1.1">
  <defs
     id="defs3" />
  <sodipodi:namedview
     showborder="false"
     inkscape:window-y="25"
     inkscape:window-x="0"
     inkscape:window-height="911"
     inkscape:window-width="1378"
     inkscape:current-layer="g11003"
     inkscape:cy="424.7669"
     inkscape:cx="504.35431"
     inkscape:zoom="1.2105455"
     inkscape:pageshadow="2"
     inkscape:pageopacity="0.0"
     borderopacity="1.0"
     bordercolor="#666666"
     pagecolor="#ffffff"
     id="base"
     showgrid="false"
     inkscape:window-maximized="0" />
  <metadata
     id="metadata4">
    <rdf:RDF>
      <cc:Work
         rdf:about="">
        <dc:format>image/svg+xml</dc:format>
        <dc:type
           rdf:resource="http://purl.org/dc/dcmitype/StillImage" />
      </cc:Work>
    </rdf:RDF>
  </metadata>
  <g
     id="layer1"
     inkscape:groupmode="layer"
     inkscape:label="Layer 1">
    <g
       inkscape:tile-cy="488.42624"
       inkscape:tile-cx="255.43810"
       inkscape:tile-h="100.34230"
       inkscape:tile-w="96.261981"
       id="g11003">
      <path
         sodipodi:nodetypes="ccccc"
         d="m 272.46679,466.20387 c 18.48863,6.85752 -40.42186,114.93303 -63.59384,110.35371 l 1.33967,-2.32036 c 21.90636,5.48397 79.75102,-99.4489 60.78556,-105.48963 z"
         id="path1417"
         style="fill:#776800;fill-opacity:1;fill-rule:nonzero;stroke:none;stroke-width:1.06666669pt;stroke-linecap:butt;stroke-linejoin:miter;stroke-opacity:1"
         inkscape:connector-curvature="0" />
      <path
         sodipodi:nodetypes="cssccsscc"
         inkscape:tile-cy="544.01295"
         inkscape:tile-cx="231.18734"
         inkscape:tile-h="117.19225"
         inkscape:tile-w="95.677230"
         d="m 226.58811,541.01393 c -4.87996,-10.71245 -23.16927,-85.98945 6.83891,-54.67075 14.93401,15.58619 66.10007,107.18631 85.99667,61.39859 6.63954,-15.27946 3.74151,-43.79875 -1.62682,-64.63576 l 2.30362,7.49633 c 5.28922,20.84038 9.90126,44.16521 1.59653,64.53721 -16.78708,41.17968 -70.97696,-46.83594 -86.05384,-61.58462 -27.37906,-26.78307 -12.79439,32.91986 -11.36903,38.47703 z"
         id="path2685"
         style="fill:#000000;fill-opacity:1;fill-rule:nonzero;stroke:none;stroke-width:1.08874539pt;stroke-linecap:butt;stroke-linejoin:miter;stroke-opacity:1"
         inkscape:connector-curvature="0" />
      <circle
         id="path2691"
         style="color:#000000;display:block;visibility:visible;fill:#000000;fill-opacity:1;fill-rule:evenodd;stroke:none;stroke-width:0.66666669;stroke-linecap:butt;stroke-linejoin:round;stroke-miterlimit:4;stroke-dashoffset:0;stroke-opacity:1;marker:none;marker-start:none;marker-mid:none;marker-end:none"
         cx="265.62234"
         cy="535.83771"
         r="1.2712703" />
    </g>
    <use
       id="use1350"
       transform="translate(92.692245,53.515893)"
       xlink:href="#g11003"
       inkscape:tiled-clone-of="#g11003"
       y="0"
       x="0"
       width="100%"
       height="100%" />
    <use
       id="use1351"
       transform="translate(0,107.03179)"
       xlink:href="#g11003"
       inkscape:tiled-clone-of="#g11003"
       y="0"
       x="0"
       width="100%"
       height="100%" />
    <use
       id="use1352"
       transform="translate(92.692245,160.54763)"
       xlink:href="#g11003"
       inkscape:tiled-clone-of="#g11003"
       y="0"
       x="0"
       width="100%"
       height="100%" />
    <use
       id="use1353"
       transform="translate(0,214.06357)"
       xlink:href="#g11003"
       inkscape:tiled-clone-of="#g11003"
       y="0"
       x="0"
       width="100%"
       height="100%" />
    <use
       id="use1354"
       transform="translate(92.692245,267.57952)"
       xlink:href="#g11003"
       inkscape:tiled-clone-of="#g11003"
       y="0"
       x="0"
       width="100%"
       height="100%" />
    <use
       id="use1355"
       transform="translate(0,321.09536)"
       xlink:href="#g11003"
       inkscape:tiled-clone-of="#g11003"
       y="0"
       x="0"
       width="100%"
       height="100%" />
    <use
       id="use1356"
       transform="rotate(120.00001,303.36487,520.988)"
       xlink:href="#g11003"
       inkscape:tiled-clone-of="#g11003"
       y="0"
       x="0"
       width="100%"
       height="100%" />
    <use
       id="use1357"
       transform="rotate(120.00001,334.2623,574.50393)"
       xlink:href="#g11003"
       inkscape:tiled-clone-of="#g11003"
       y="0"
       x="0"
       width="100%"
       height="100%" />
    <use
       id="use1358"
       transform="rotate(120.00001,272.46747,574.5039)"
       xlink:href="#g11003"
       inkscape:tiled-clone-of="#g11003"
       y="0"
       x="0"
       width="100%"
       height="100%" />
    <use
       id="use1359"
       transform="rotate(120.00001,303.3649,628.01983)"
       xlink:href="#g11003"
       inkscape:tiled-clone-of="#g11003"
       y="0"
       x="0"
       width="100%"
       height="100%" />
    <use
       id="use1360"
       transform="rotate(120.00001,241.57006,628.01981)"
       xlink:href="#g11003"
       inkscape:tiled-clone-of="#g11003"
       y="0"
       x="0"
       width="100%"
       height="100%" />
    <use
       id="use1361"
       transform="rotate(120.00001,272.46749,681.53573)"
       xlink:href="#g11003"
       inkscape:tiled-clone-of="#g11003"
       y="0"
       x="0"
       width="100%"
       height="100%" />
    <use
       id="use1362"
       transform="rotate(120.00001,210.67265,681.53571)"
       xlink:href="#g11003"
       inkscape:tiled-clone-of="#g11003"
       y="0"
       x="0"
       width="100%"
       height="100%" />
    <use
       id="use1363"
       transform="rotate(-120.00001,303.36465,520.9881)"
       xlink:href="#g11003"
       inkscape:tiled-clone-of="#g11003"
       y="0"
       x="0"
       width="100%"
       height="100%" />
    <use
       id="use1364"
       transform="rotate(-120.00001,365.1595,520.98814)"
       xlink:href="#g11003"
       inkscape:tiled-clone-of="#g11003"
       y="0"
       x="0"
       width="100%"
       height="100%" />
    <use
       id="use1365"
       transform="rotate(-120.00001,334.26203,574.50396)"
       xlink:href="#g11003"
       inkscape:tiled-clone-of="#g11003"
       y="0"
       x="0"
       width="100%"
       height="100%" />
    <use
       id="use1366"
       transform="rotate(-120.00001,396.05682,574.50388)"
       xlink:href="#g11003"
       inkscape:tiled-clone-of="#g11003"
       y="0"
       x="0"
       width="100%"
       height="100%" />
    <use
       id="use1367"
       transform="rotate(-120.00001,365.15934,628.0197)"
       xlink:href="#g11003"
       inkscape:tiled-clone-of="#g11003"
       y="0"
       x="0"
       width="100%"
       height="100%" />
    <use
       id="use1368"
       transform="rotate(-120.00001,426.95444,628.02016)"
       xlink:href="#g11003"
       inkscape:tiled-clone-of="#g11003"
       y="0"
       x="0"
       width="100%"
       height="100%" />
    <use
       id="use1369"
       transform="rotate(-120.00001,396.05696,681.53598)"
       xlink:href="#g11003"
       inkscape:tiled-clone-of="#g11003"
       y="0"
       x="0"
       width="100%"
       height="100%" />
    <use
       id="use1370"
       transform="translate(185.38453)"
       xlink:href="#g11003"
       inkscape:tiled-clone-of="#g11003"
       y="0"
       x="0"
       width="100%"
       height="100%" />
    <use
       id="use1371"
       transform="translate(278.07669,53.515893)"
       xlink:href="#g11003"
       inkscape:tiled-clone-of="#g11003"
       y="0"
       x="0"
       width="100%"
       height="100%" />
    <use
       id="use1372"
       transform="translate(185.38453,107.03179)"
       xlink:href="#g11003"
       inkscape:tiled-clone-of="#g11003"
       y="0"
       x="0"
       width="100%"
       height="100%" />
    <use
       id="use1373"
       transform="translate(278.07669,160.54763)"
       xlink:href="#g11003"
       inkscape:tiled-clone-of="#g11003"
       y="0"
       x="0"
       width="100%"
       height="100%" />
    <use
       id="use1374"
       transform="translate(185.38453,214.06357)"
       xlink:href="#g11003"
       inkscape:tiled-clone-of="#g11003"
       y="0"
       x="0"
       width="100%"
       height="100%" />
    <use
       id="use1375"
       transform="translate(278.07669,267.57952)"
       xlink:href="#g11003"
       inkscape:tiled-clone-of="#g11003"
       y="0"
       x="0"
       width="100%"
       height="100%" />
    <use
       id="use1376"
       transform="translate(185.38453,321.09536)"
       xlink:href="#g11003"
       inkscape:tiled-clone-of="#g11003"
       y="0"
       x="0"
       width="100%"
       height="100%" />
    <use
       id="use1377"
       transform="rotate(120.00001,396.05706,574.50383)"
       xlink:href="#g11003"
       inkscape:tiled-clone-of="#g11003"
       y="0"
       x="0"
       width="100%"
       height="100%" />
    <use
       id="use1378"
       transform="rotate(120.00001,426.95449,628.01975)"
       xlink:href="#g11003"
       inkscape:tiled-clone-of="#g11003"
       y="0"
       x="0"
       width="100%"
       height="100%" />
    <use
       id="use1379"
       transform="rotate(120.00001,365.15965,628.01973)"
       xlink:href="#g11003"
       inkscape:tiled-clone-of="#g11003"
       y="0"
       x="0"
       width="100%"
       height="100%" />
    <use
       id="use1380"
       transform="rotate(120.00001,396.05708,681.53566)"
       xlink:href="#g11003"
       inkscape:tiled-clone-of="#g11003"
       y="0"
       x="0"
       width="100%"
       height="100%" />
    <use
       id="use1381"
       transform="rotate(120.00001,334.26224,681.53564)"
       xlink:href="#g11003"
       inkscape:tiled-clone-of="#g11003"
       y="0"
       x="0"
       width="100%"
       height="100%" />
    <use
       id="use1382"
       transform="rotate(120.00001,365.15967,735.05156)"
       xlink:href="#g11003"
       inkscape:tiled-clone-of="#g11003"
       y="0"
       x="0"
       width="100%"
       height="100%" />
    <use
       id="use1383"
       transform="rotate(120.00001,303.36483,735.05154)"
       xlink:href="#g11003"
       inkscape:tiled-clone-of="#g11003"
       y="0"
       x="0"
       width="100%"
       height="100%" />
    <use
       id="use1384"
       transform="rotate(-120.00001,396.05693,467.47221)"
       xlink:href="#g11003"
       inkscape:tiled-clone-of="#g11003"
       y="0"
       x="0"
       width="100%"
       height="100%" />
    <use
       id="use1385"
       transform="rotate(-120.00001,457.8518,467.47225)"
       xlink:href="#g11003"
       inkscape:tiled-clone-of="#g11003"
       y="0"
       x="0"
       width="100%"
       height="100%" />
    <use
       id="use1386"
       transform="rotate(-120.00001,426.9543,520.98806)"
       xlink:href="#g11003"
       inkscape:tiled-clone-of="#g11003"
       y="0"
       x="0"
       width="100%"
       height="100%" />
    <use
       id="use1387"
       transform="rotate(-120.00001,488.74911,520.98799)"
       xlink:href="#g11003"
       inkscape:tiled-clone-of="#g11003"
       y="0"
       x="0"
       width="100%"
       height="100%" />
    <use
       id="use1388"
       transform="rotate(-120.00001,457.85163,574.50381)"
       xlink:href="#g11003"
       inkscape:tiled-clone-of="#g11003"
       y="0"
       x="0"
       width="100%"
       height="100%" />
    <use
       id="use1389"
       transform="rotate(-120.00001,519.64673,574.50427)"
       xlink:href="#g11003"
       inkscape:tiled-clone-of="#g11003"
       y="0"
       x="0"
       width="100%"
       height="100%" />
    <use
       id="use1390"
       transform="rotate(-120.00001,488.74925,628.02009)"
       xlink:href="#g11003"
       inkscape:tiled-clone-of="#g11003"
       y="0"
       x="0"
       width="100%"
       height="100%" />
    <use
       id="use1391"
       transform="translate(370.76896)"
       xlink:href="#g11003"
       inkscape:tiled-clone-of="#g11003"
       y="0"
       x="0"
       width="100%"
       height="100%" />
    <use
       id="use1392"
       transform="translate(463.46123,53.515893)"
       xlink:href="#g11003"
       inkscape:tiled-clone-of="#g11003"
       y="0"
       x="0"
       width="100%"
       height="100%" />
    <use
       id="use1393"
       transform="translate(370.76896,107.03179)"
       xlink:href="#g11003"
       inkscape:tiled-clone-of="#g11003"
       y="0"
       x="0"
       width="100%"
       height="100%" />
    <use
       id="use1394"
       transform="translate(463.46123,160.54763)"
       xlink:href="#g11003"
       inkscape:tiled-clone-of="#g11003"
       y="0"
       x="0"
       width="100%"
       height="100%" />
    <use
       id="use1395"
       transform="translate(370.76896,214.06357)"
       xlink:href="#g11003"
       inkscape:tiled-clone-of="#g11003"
       y="0"
       x="0"
       width="100%"
       height="100%" />
    <use
       id="use1396"
       transform="translate(463.46123,267.57952)"
       xlink:href="#g11003"
       inkscape:tiled-clone-of="#g11003"
       y="0"
       x="0"
       width="100%"
       height="100%" />
    <use
       id="use1397"
       transform="translate(370.76896,321.09536)"
       xlink:href="#g11003"
       inkscape:tiled-clone-of="#g11003"
       y="0"
       x="0"
       width="100%"
       height="100%" />
    <use
       id="use1398"
       transform="rotate(120.00001,488.74934,628.01972)"
       xlink:href="#g11003"
       inkscape:tiled-clone-of="#g11003"
       y="0"
       x="0"
       width="100%"
       height="100%" />
    <use
       id="use1399"
       transform="rotate(120.00001,519.64677,681.53565)"
       xlink:href="#g11003"
       inkscape:tiled-clone-of="#g11003"
       y="0"
       x="0"
       width="100%"
       height="100%" />
    <use
       id="use1400"
       transform="rotate(120.00001,457.85194,681.53563)"
       xlink:href="#g11003"
       inkscape:tiled-clone-of="#g11003"
       y="0"
       x="0"
       width="100%"
       height="100%" />
    <use
       id="use1401"
       transform="rotate(120.00001,488.74937,735.05155)"
       xlink:href="#g11003"
       inkscape:tiled-clone-of="#g11003"
       y="0"
       x="0"
       width="100%"
       height="100%" />
    <use
       id="use1402"
       transform="rotate(120.00001,426.95453,735.05153)"
       xlink:href="#g11003"
       inkscape:tiled-clone-of="#g11003"
       y="0"
       x="0"
       width="100%"
       height="100%" />
    <use
       id="use1403"
       transform="rotate(120.00001,457.85196,788.56746)"
       xlink:href="#g11003"
       inkscape:tiled-clone-of="#g11003"
       y="0"
       x="0"
       width="100%"
       height="100%" />
    <use
       id="use1404"
       transform="rotate(120.00001,396.05712,788.56743)"
       xlink:href="#g11003"
       inkscape:tiled-clone-of="#g11003"
       y="0"
       x="0"
       width="100%"
       height="100%" />
  </g>
</svg>
