<?xml version="1.0" encoding="UTF-8" standalone="no"?>
<!-- Created with Inkscape (http://www.inkscape.org/) -->

<svg
   xmlns:dc="http://purl.org/dc/elements/1.1/"
   xmlns:cc="http://creativecommons.org/ns#"
   xmlns:rdf="http://www.w3.org/1999/02/22-rdf-syntax-ns#"
   xmlns:svg="http://www.w3.org/2000/svg"
   xmlns="http://www.w3.org/2000/svg"
   xmlns:sodipodi="http://sodipodi.sourceforge.net/DTD/sodipodi-0.dtd"
   xmlns:inkscape="http://www.inkscape.org/namespaces/inkscape"
   width="819.20001"
   height="273.06668"
   id="svg1901"
   sodipodi:version="0.32"
   inkscape:version="0.92.0 r15304"
   sodipodi:docname="lighting_filters.svg"
   version="1.0"
   inkscape:output_extension="org.inkscape.output.svg.inkscape"
   inkscape:export-filename="/home/niko/inkscape/complex-lighting.png"
   inkscape:export-xdpi="90"
   inkscape:export-ydpi="90">
  <defs
     id="defs1903">
    <filter
       id="metallic-lighting"
       filterRes="256">
      <feGaussianBlur
         stdDeviation="10.0437"
         id="feGaussianBlur2792"
         in="SourceGraphic"
         result="result0" />
      <feDiffuseLighting
         id="feDiffuseLighting2794"
         in="result0"
         result="result1"
         diffuseConstant="1"
         surfaceScale="10"
         lighting-color="#ffffff">
        <feDistantLight
           id="feDistantLight1"
           azimuth="205"
           elevation="45" />
      </feDiffuseLighting>
      <feSpecularLighting
         id="feSpecularLighting2796"
         in="result0"
         result="result3"
         specularConstant="0.5"
         surfaceScale="20"
         specularExponent="20"
         lighting-color="#ffffff">
        <feDistantLight
           id="feDistantLight2"
           azimuth="205"
           elevation="45" />
      </feSpecularLighting>
      <feComposite
         id="feComposite2798"
         in="result1"
         in2="SourceGraphic"
         operator="arithmetic"
         k1="1"
         result="result2"
         k4="0"
         k2="0"
         k3="0" />
      <feComposite
         id="feComposite2800"
         in="result2"
         in2="result3"
         operator="arithmetic"
         k2="1"
         k3="1"
         k4="0"
         k1="0"
         result="result4" />
      <feComposite
         inkscape:collect="always"
         id="feComposite2799"
         in="result4"
         in2="SourceAlpha"
         operator="in" />
    </filter>
  </defs>
  <sodipodi:namedview
     id="base"
     pagecolor="#ffffff"
     bordercolor="#666666"
     borderopacity="1.0"
     inkscape:pageopacity="0.0"
     inkscape:pageshadow="2"
     inkscape:zoom="1.3964844"
     inkscape:cx="409.60001"
     inkscape:cy="136.53334"
     inkscape:document-units="px"
     inkscape:current-layer="layer1"
     gridtolerance="10000"
     inkscape:window-width="1278"
     inkscape:window-height="715"
     inkscape:window-x="51"
     inkscape:window-y="25"
     width="768px"
     height="256px"
     showgrid="false"
     inkscape:window-maximized="0" />
  <metadata
     id="metadata1906">
    <rdf:RDF>
      <cc:Work
         rdf:about="">
        <dc:format>image/svg+xml</dc:format>
        <dc:type
           rdf:resource="http://purl.org/dc/dcmitype/StillImage" />
        <cc:license
           rdf:resource="http://creativecommons.org/licenses/by-sa/3.0/" />
        <dc:title>Lighting effects example</dc:title>
        <dc:date>25 July 2007</dc:date>
        <dc:creator>
          <cc:Agent>
            <dc:title>Niko Kiirala</dc:title>
          </cc:Agent>
        </dc:creator>
        <dc:rights>
          <cc:Agent>
            <dc:title>Copyright 2007 Niko Kiirala</dc:title>
          </cc:Agent>
        </dc:rights>
        <dc:subject>
          <rdf:Bag>
            <rdf:li>feDiffuseLighting</rdf:li>
            <rdf:li>feSpecularLighting</rdf:li>
            <rdf:li>light</rdf:li>
            <rdf:li>lighting effects</rdf:li>
          </rdf:Bag>
        </dc:subject>
        <dc:description>An example, how to make metallic-looking objects with SVG lighting effects</dc:description>
      </cc:Work>
      <cc:License
         rdf:about="http://creativecommons.org/licenses/by-sa/3.0/">
        <cc:permits
           rdf:resource="http://creativecommons.org/ns#Reproduction" />
        <cc:permits
           rdf:resource="http://creativecommons.org/ns#Distribution" />
        <cc:requires
           rdf:resource="http://creativecommons.org/ns#Notice" />
        <cc:requires
           rdf:resource="http://creativecommons.org/ns#Attribution" />
        <cc:permits
           rdf:resource="http://creativecommons.org/ns#DerivativeWorks" />
        <cc:requires
           rdf:resource="http://creativecommons.org/ns#ShareAlike" />
      </cc:License>
    </rdf:RDF>
  </metadata>
  <g
     inkscape:label="Taso 1"
     inkscape:groupmode="layer"
     id="layer1"
     style="opacity:1">
    <path
       style="color:#000000;display:inline;overflow:visible;visibility:visible;opacity:1;fill:#dad645;fill-opacity:1;fill-rule:evenodd;stroke:none;stroke-width:14;stroke-linecap:round;stroke-linejoin:miter;stroke-miterlimit:4;stroke-dasharray:none;stroke-dashoffset:0;stroke-opacity:1;marker:none;filter:url(#metallic-lighting);enable-background:accumulate"
       d="m 121.53125,18.281251 -5.875,12.34375 -28.09375,59.1875 -64.375,12.312499 -13.4375,2.5625 9.9375,9.40625 47.625,45.03125 -8.1875,65 -1.71875,13.59375 12,-6.5625 57.53125,-31.40625 59.3125,27.90625 12.375,5.8125 -2.5,-13.4375 -12.09375,-64.375 44.875,-47.8125 9.34375,-9.968748 -13.5625,-1.78125 -65,-8.40625 -31.59375,-57.437501 z m 0.90625,30.718751 26.71875,48.531249 1.6875,3.124999 3.53125,0.4375 54.9375,7.15625 -37.90625,40.375 -2.4375,2.59375 0.65625,3.5 10.1875,54.4375 -50.125,-23.5625 -3.21875,-1.5 -3.125,1.6875 -48.625,26.5625 6.9375,-55 0.4375,-3.53125 L 79.5,151.375 39.25,113.3125 l 54.40625,-10.40625 3.5,-0.65625 1.53125,-3.218749 z"
       id="path2803"
       inkscape:connector-curvature="0"
       transform="scale(1.0666667)" />
    <path
       id="path2799"
       d="m 381.53125,18.281251 -5.875,12.34375 -28.09375,59.1875 -64.375,12.312499 -13.4375,2.5625 9.9375,9.40625 47.625,45.03125 -8.1875,65 -1.71875,13.59375 12,-6.5625 57.53125,-31.40625 59.3125,27.90625 12.375,5.8125 -2.5,-13.4375 -12.09375,-64.375 44.875,-47.8125 9.34375,-9.968748 -13.5625,-1.78125 -65,-8.40625 -31.59375,-57.437501 z m 0.90625,30.718751 26.71875,48.531249 1.6875,3.124999 3.53125,0.4375 54.9375,7.15625 -37.90625,40.375 -2.4375,2.59375 0.65625,3.5 10.1875,54.4375 -50.125,-23.5625 -3.21875,-1.5 -3.125,1.6875 -48.625,26.5625 6.9375,-55 0.4375,-3.53125 -2.59375,-2.4375 -40.25,-38.0625 54.40625,-10.40625 3.5,-0.65625 1.53125,-3.218749 z"
       style="color:#000000;display:inline;overflow:visible;visibility:visible;opacity:1;fill:#c7e1e2;fill-opacity:1;fill-rule:evenodd;stroke:none;stroke-width:14;stroke-linecap:round;stroke-linejoin:miter;stroke-miterlimit:4;stroke-dasharray:none;stroke-dashoffset:0;stroke-opacity:1;marker:none;filter:url(#metallic-lighting);enable-background:accumulate"
       inkscape:connector-curvature="0"
       transform="scale(1.0666667)" />
    <path
       style="color:#000000;display:inline;overflow:visible;visibility:visible;opacity:1;fill:#f4a430;fill-opacity:1;fill-rule:evenodd;stroke:none;stroke-width:14;stroke-linecap:round;stroke-linejoin:miter;stroke-miterlimit:4;stroke-dasharray:none;stroke-dashoffset:0;stroke-opacity:1;marker:none;filter:url(#metallic-lighting);enable-background:accumulate"
       d="m 641.53125,18.281251 -5.875,12.34375 -28.09375,59.1875 -64.375,12.312499 -13.4375,2.5625 9.9375,9.40625 47.625,45.03125 -8.1875,65 -1.71875,13.59375 12,-6.5625 57.53125,-31.40625 59.3125,27.90625 12.375,5.8125 -2.5,-13.4375 -12.09375,-64.375 44.875,-47.8125 9.34375,-9.968748 -13.5625,-1.78125 -65,-8.40625 -31.59375,-57.437501 z m 0.90625,30.718751 26.71875,48.531249 1.6875,3.124999 3.53125,0.4375 54.9375,7.15625 -37.90625,40.375 -2.4375,2.59375 0.65625,3.5 10.1875,54.4375 -50.125,-23.5625 -3.21875,-1.5 -3.125,1.6875 -48.625,26.5625 6.9375,-55 0.4375,-3.53125 -2.59375,-2.4375 -40.25,-38.0625 54.40625,-10.40625 3.5,-0.65625 1.53125,-3.218749 z"
       id="path2805"
       inkscape:connector-curvature="0"
       transform="scale(1.0666667)" />
  </g>
</svg>
