<?xml version="1.0" encoding="UTF-8" standalone="no"?>
<!-- Created with Inkscape (http://www.inkscape.org/) -->
<svg
   xmlns:dc="http://purl.org/dc/elements/1.1/"
   xmlns:cc="http://web.resource.org/cc/"
   xmlns:rdf="http://www.w3.org/1999/02/22-rdf-syntax-ns#"
   xmlns:svg="http://www.w3.org/2000/svg"
   xmlns="http://www.w3.org/2000/svg"
   xmlns:sodipodi="http://sodipodi.sourceforge.net/DTD/sodipodi-0.dtd"
   xmlns:inkscape="http://www.inkscape.org/namespaces/inkscape"
   width="744.09448819"
   height="1052.3622047"
   id="svg2"
   sodipodi:version="0.32"
   inkscape:version="0.46dev+devel"
   sodipodi:docname="live-path-effects-gears.svg"
   inkscape:output_extension="org.inkscape.output.svg.inkscape">
  <defs
     id="defs4">
    <inkscape:path-effect
       effect="gears"
       id="path-effect2210"
       phi="5"
       teeth="10" />
  </defs>
  <sodipodi:namedview
     id="base"
     pagecolor="#ffffff"
     bordercolor="#666666"
     borderopacity="1.0"
     gridtolerance="10000"
     guidetolerance="10"
     objecttolerance="10"
     inkscape:pageopacity="0.0"
     inkscape:pageshadow="2"
     inkscape:zoom="0.35"
     inkscape:cx="736.68915"
     inkscape:cy="212.1628"
     inkscape:document-units="px"
     inkscape:current-layer="layer1"
     inkscape:window-width="673"
     inkscape:window-height="613"
     inkscape:window-x="69"
     inkscape:window-y="47" />
  <metadata
     id="metadata7">
    <rdf:RDF>
      <cc:Work
         rdf:about="">
        <dc:format>image/svg+xml</dc:format>
        <dc:type
           rdf:resource="http://purl.org/dc/dcmitype/StillImage" />
      </cc:Work>
    </rdf:RDF>
  </metadata>
  <g
     inkscape:label="Layer 1"
     inkscape:groupmode="layer"
     id="layer1">
    <path
       style="fill:none;fill-rule:evenodd;stroke:#000000;stroke-width:1px;stroke-linecap:butt;stroke-linejoin:miter;stroke-opacity:1"
       d="M -17.8461,434.418 C -17.8461,434.418 -19.671,432.462 -21.7934,427.709 C -23.9158,422.956 -26.3108,415.396 -27.1858,405.021 C -20.4921,399.657 -13.384,394.811 -5.94569,390.539 C 3.39235,395.143 9.55485,400.135 13.2045,403.847 C 16.8541,407.559 18.008,409.972 18.008,409.972 L 29.6542,434.639 C 40.1721,429.673 51.4735,426.371 63.0105,424.893 L 59.5447,397.836 C 59.5447,397.836 59.2177,395.182 60.2947,390.088 C 61.3717,384.995 63.8776,377.471 69.2679,368.564 C 77.8359,368.159 86.4352,368.416 94.9637,369.332 C 99.812,378.546 101.864,386.206 102.634,391.355 C 103.405,396.503 102.92,399.134 102.92,399.134 L 97.8434,425.935 C 109.271,428.1 120.355,432.071 130.558,437.657 L 143.657,413.73 C 143.657,413.73 144.953,411.39 148.818,407.903 C 152.683,404.415 159.133,399.801 168.73,395.763 C 175.899,400.472 182.705,405.735 189.066,411.489 C 187.573,421.793 184.73,429.196 182.327,433.814 C 179.925,438.432 177.986,440.275 177.986,440.275 L 158.126,458.974 C 166.099,467.442 172.732,477.17 177.702,487.686 L 202.364,476.029 C 202.364,476.029 204.788,474.897 209.964,474.348 C 215.141,473.798 223.071,473.857 233.208,476.23 C 236.241,484.254 238.654,492.512 240.418,500.906 C 233.153,508.364 226.502,512.683 221.844,515.007 C 217.185,517.331 214.534,517.682 214.534,517.682 L 187.475,521.136 C 188.948,532.674 188.596,544.442 186.436,555.871 L 213.24,560.936 C 213.24,560.936 215.866,561.446 220.377,564.044 C 224.888,566.642 231.269,571.35 238.075,579.229 C 235.813,587.503 232.911,595.602 229.404,603.43 C 219.143,605.194 211.223,604.778 206.089,603.92 C 200.954,603.062 198.602,601.788 198.602,601.788 L 174.682,588.677 C 169.091,598.877 161.889,608.191 153.424,616.168 L 172.132,636.021 C 172.132,636.021 173.957,637.976 176.079,642.73 C 178.201,647.483 180.597,655.043 181.472,665.418 C 174.778,670.781 167.67,675.628 160.231,679.9 C 150.893,675.295 144.731,670.304 141.081,666.592 C 137.432,662.88 136.278,660.466 136.278,660.466 L 124.631,635.8 C 114.114,640.766 102.812,644.068 91.2752,645.546 L 94.7411,672.602 C 94.7411,672.602 95.068,675.257 93.991,680.35 C 92.914,685.443 90.4081,692.967 85.0179,701.875 C 76.4498,702.28 67.8505,702.023 59.322,701.106 C 54.4738,691.893 52.4219,684.232 51.6513,679.084 C 50.8806,673.936 51.3656,671.305 51.3656,671.305 L 56.4423,644.504 C 45.0142,642.339 33.9303,638.368 23.7281,632.782 L 10.6284,656.708 C 10.6284,656.708 9.33244,659.048 5.46747,662.536 C 1.60251,666.023 -4.84727,670.637 -14.4438,674.675 C -21.6135,669.967 -28.4193,664.704 -34.7805,658.95 C -33.287,648.646 -30.4444,641.243 -28.0418,636.625 C -25.6391,632.007 -23.7005,630.163 -23.7005,630.163 L -3.84002,611.465 C -11.8131,602.996 -18.4458,593.268 -23.4165,582.753 L -48.078,594.41 C -48.078,594.41 -50.5018,595.541 -55.6785,596.091 C -60.8552,596.64 -68.7852,596.582 -78.9225,594.208 C -81.9552,586.185 -84.3679,577.927 -86.132,569.533 C -78.8673,562.074 -72.2161,557.756 -67.5579,555.432 C -62.8996,553.108 -60.2479,552.756 -60.2479,552.756 L -33.1896,549.303 C -34.6623,537.765 -34.3103,525.996 -32.1507,514.567 L -58.9542,509.503 C -58.9542,509.503 -61.5802,508.993 -66.0912,506.395 C -70.6023,503.797 -76.9835,499.089 -83.7895,491.21 C -81.5269,482.936 -78.6249,474.837 -75.1181,467.009 C -64.8571,465.245 -56.9378,465.661 -51.8032,466.519 C -46.6686,467.377 -44.3167,468.651 -44.3167,468.651 L -20.3959,481.761 C -14.8057,471.561 -7.60352,462.247 0.861445,454.27 L -17.8461,434.418 M 205.039,648.02 C 205.039,648.02 202.329,648.46 197.143,647.348 C 191.956,646.237 184.304,643.538 175.489,637.635 C 175.016,629.567 175.249,621.457 176.184,613.429 C 185.323,608.041 193.117,605.785 198.359,604.973 C 203.601,604.161 206.281,604.756 206.281,604.756 L 232.973,610.872 C 235.409,600.24 239.956,590.097 246.271,581.204 L 223.945,565.348 C 223.945,565.348 221.718,563.743 218.836,559.29 C 215.954,554.836 212.452,547.517 210.393,537.11 C 215.764,531.07 221.663,525.5 228,520.485 C 238.272,523.137 245.379,527.053 249.66,530.186 C 253.94,533.318 255.415,535.634 255.415,535.634 L 269.964,558.832 C 279.205,553.037 289.592,549.08 300.346,547.257 L 295.771,520.258 C 295.771,520.258 295.331,517.549 296.442,512.362 C 297.554,507.175 300.253,499.523 306.156,490.708 C 314.224,490.236 322.334,490.468 330.362,491.403 C 335.75,500.542 338.005,508.336 338.818,513.578 C 339.63,518.82 339.035,521.5 339.035,521.5 L 332.919,548.192 C 343.55,550.628 353.694,555.175 362.587,561.49 L 378.443,539.164 C 378.443,539.164 380.048,536.937 384.501,534.055 C 388.954,531.174 396.274,527.671 406.681,525.612 C 412.72,530.983 418.29,536.882 423.306,543.22 C 420.654,553.492 416.737,560.598 413.605,564.879 C 410.473,569.16 408.157,570.634 408.157,570.634 L 384.958,585.183 C 390.753,594.424 394.711,604.812 396.534,615.566 L 423.532,610.99 C 423.532,610.99 426.242,610.55 431.429,611.662 C 436.615,612.773 444.267,615.472 453.082,621.375 C 453.555,629.443 453.322,637.553 452.388,645.581 C 443.249,650.969 435.454,653.225 430.213,654.037 C 424.971,654.849 422.291,654.254 422.291,654.254 L 395.599,648.138 C 393.163,658.77 388.616,668.914 382.3,677.807 L 404.627,693.662 C 404.627,693.662 406.854,695.267 409.736,699.72 C 412.617,704.174 416.119,711.493 418.179,721.9 C 412.808,727.94 406.909,733.51 400.571,738.526 C 390.299,735.873 383.193,731.957 378.912,728.824 C 374.631,725.692 373.156,723.377 373.156,723.377 L 358.607,700.178 C 349.367,705.973 338.979,709.93 328.225,711.753 L 332.801,738.752 C 332.801,738.752 333.241,741.461 332.129,746.648 C 331.018,751.835 328.319,759.487 322.416,768.302 C 314.347,768.774 306.238,768.542 298.209,767.607 C 292.822,758.468 290.566,750.674 289.754,745.432 C 288.942,740.19 289.536,737.51 289.536,737.51 L 295.653,710.818 C 285.021,708.382 274.877,703.835 265.984,697.52 L 250.129,719.846 C 250.129,719.846 248.524,722.073 244.07,724.955 C 239.617,727.837 232.298,731.339 221.891,733.398 C 215.851,728.027 210.281,722.128 205.265,715.79 C 207.918,705.518 211.834,698.412 214.966,694.131 C 218.099,689.85 220.414,688.376 220.414,688.376 L 243.613,673.827 C 237.818,664.586 233.86,654.198 232.038,643.444 L 205.039,648.02 M 393.246,529.095 C 393.246,529.095 390.738,529.893 385.592,529.931 C 380.447,529.968 372.664,529.224 362.825,526.207 C 360.611,517.533 358.997,508.705 357.997,499.809 C 366.132,493.505 373.148,490.055 377.974,488.269 C 382.8,486.482 385.428,486.342 385.428,486.342 L 412.566,484.991 C 411.964,472.893 412.951,460.717 415.495,448.875 L 388.929,443.168 C 388.929,443.168 386.358,442.606 381.883,440.065 C 377.408,437.525 371.04,432.99 364.027,425.457 C 366.448,416.838 369.463,408.386 373.046,400.182 C 383.243,398.79 391.044,399.31 396.116,400.176 C 401.189,401.042 403.535,402.234 403.535,402.234 L 427.713,414.633 C 433.24,403.855 440.183,393.804 448.307,384.821 L 428.154,366.595 C 428.154,366.595 426.209,364.823 423.603,360.385 C 420.998,355.948 417.751,348.836 415.444,338.806 C 421.85,332.552 428.687,326.74 435.892,321.426 C 445.419,325.319 451.914,329.67 455.874,332.956 C 459.834,336.242 461.27,338.448 461.27,338.448 L 476.009,361.275 C 486.185,354.705 497.223,349.472 508.751,345.754 L 500.41,319.894 C 500.41,319.894 499.612,317.386 499.574,312.24 C 499.537,307.095 500.281,299.312 503.298,289.473 C 511.972,287.259 520.8,285.645 529.696,284.645 C 536,292.78 539.45,299.796 541.236,304.622 C 543.023,309.447 543.163,312.076 543.163,312.076 L 544.514,339.214 C 556.612,338.612 568.788,339.599 580.63,342.143 L 586.337,315.577 C 586.337,315.577 586.899,313.006 589.44,308.531 C 591.98,304.056 596.515,297.688 604.048,290.675 C 612.667,293.095 621.119,296.111 629.323,299.694 C 630.715,309.891 630.195,317.691 629.329,322.764 C 628.463,327.836 627.271,330.183 627.271,330.183 L 614.872,354.361 C 625.65,359.888 635.701,366.831 644.684,374.955 L 662.91,354.802 C 662.91,354.802 664.682,352.856 669.12,350.251 C 673.558,347.646 680.669,344.399 690.699,342.092 C 696.953,348.498 702.765,355.335 708.079,362.54 C 704.186,372.067 699.835,378.562 696.549,382.522 C 693.263,386.482 691.057,387.918 691.057,387.918 L 668.23,402.657 C 674.8,412.833 680.033,423.871 683.751,435.399 L 709.611,427.058 C 709.611,427.058 712.119,426.259 717.265,426.222 C 722.41,426.185 730.193,426.929 740.033,429.946 C 742.246,438.62 743.86,447.447 744.86,456.344 C 736.725,462.648 729.709,466.098 724.883,467.884 C 720.058,469.67 717.43,469.811 717.43,469.811 L 690.291,471.162 C 690.893,483.26 689.906,495.435 687.362,507.278 L 713.928,512.985 C 713.928,512.985 716.499,513.547 720.974,516.087 C 725.449,518.628 731.817,523.163 738.83,530.696 C 736.41,539.315 733.394,547.767 729.811,555.971 C 719.614,557.363 711.814,556.843 706.741,555.977 C 701.669,555.111 699.322,553.919 699.322,553.919 L 675.144,541.52 C 669.617,552.298 662.674,562.348 654.55,571.332 L 674.703,589.558 C 674.703,589.558 676.649,591.33 679.254,595.768 C 681.859,600.205 685.106,607.317 687.413,617.347 C 681.007,623.601 674.17,629.413 666.965,634.727 C 657.438,630.834 650.943,626.483 646.983,623.197 C 643.023,619.91 641.587,617.705 641.587,617.705 L 626.848,594.878 C 616.672,601.448 605.634,606.681 594.106,610.399 L 602.447,636.259 C 602.447,636.259 603.246,638.767 603.283,643.913 C 603.32,649.058 602.576,656.841 599.559,666.68 C 590.885,668.894 582.058,670.508 573.161,671.508 C 566.857,663.373 563.407,656.357 561.621,651.531 C 559.835,646.705 559.694,644.077 559.694,644.077 L 558.343,616.939 C 546.245,617.541 534.07,616.554 522.227,614.01 L 516.52,640.576 C 516.52,640.576 515.958,643.147 513.418,647.622 C 510.877,652.097 506.342,658.465 498.809,665.478 C 490.19,663.057 481.738,660.042 473.534,656.459 C 472.142,646.262 472.662,638.461 473.528,633.389 C 474.394,628.316 475.586,625.97 475.586,625.97 L 487.985,601.792 C 477.207,596.265 467.157,589.322 458.173,581.198 L 439.948,601.351 C 439.948,601.351 438.175,603.296 433.737,605.902 C 429.3,608.507 422.188,611.754 412.158,614.061 C 405.904,607.655 400.092,600.818 394.778,593.613 C 398.671,584.086 403.022,577.591 406.308,573.631 C 409.595,569.671 411.8,568.235 411.8,568.235 L 434.627,553.496 C 428.057,543.32 422.824,532.282 419.106,520.754 L 393.246,529.095 M 740.79,533.59 C 740.79,533.59 739.564,531.279 738.551,526.255 C 737.538,521.232 736.756,513.493 737.71,503.288 C 745.969,499.444 754.479,496.142 763.169,493.41 C 770.757,500.301 775.398,506.542 778.039,510.935 C 780.679,515.327 781.332,517.861 781.332,517.861 L 788.017,544.143 C 799.935,541.112 812.219,539.525 824.515,539.429 L 824.303,512.311 C 824.303,512.311 824.291,509.694 825.729,504.775 C 827.167,499.856 830.07,492.64 835.658,484.048 C 844.757,484.482 853.827,485.513 862.791,487.133 C 866.307,496.76 867.516,504.444 867.813,509.56 C 868.11,514.676 867.511,517.223 867.511,517.223 L 861.216,543.602 C 873.177,546.456 884.792,550.76 895.724,556.389 L 908.139,532.278 C 908.139,532.278 909.344,529.956 912.903,526.269 C 916.462,522.581 922.387,517.541 931.328,512.53 C 939.182,517.143 946.734,522.271 953.919,527.871 C 952.558,538.03 950.058,545.395 947.943,550.063 C 945.829,554.732 944.114,556.708 944.114,556.708 L 926.282,577.14 C 935.546,585.226 943.83,594.434 950.895,604.5 L 973.092,588.92 C 973.092,588.92 975.239,587.424 980.104,585.812 C 984.969,584.201 992.557,582.492 1002.8,582.209 C 1007.61,589.944 1011.92,597.995 1015.68,606.292 C 1009.75,614.655 1004.11,620.015 1000.07,623.166 C 996.03,626.316 993.594,627.27 993.594,627.27 L 968.309,637.074 C 972.754,648.539 975.81,660.543 977.388,672.738 L 1004.28,669.258 C 1004.28,669.258 1006.88,668.931 1011.94,669.765 C 1016.99,670.6 1024.51,672.612 1033.71,677.124 C 1034.37,686.209 1034.44,695.337 1033.92,704.431 C 1024.78,709.082 1017.3,711.209 1012.26,712.12 C 1007.21,713.031 1004.61,712.743 1004.61,712.743 L 977.669,709.674 C 976.277,721.892 973.405,733.94 969.135,745.472 L 994.566,754.89 C 994.566,754.89 997.017,755.806 1001.11,758.895 C 1005.2,761.984 1010.91,767.257 1016.97,775.529 C 1013.33,783.882 1009.15,791.998 1004.46,799.805 C 994.211,799.678 986.598,798.085 981.709,796.548 C 976.82,795.011 974.651,793.548 974.651,793.548 L 952.219,778.308 C 945.308,788.48 937.165,797.813 928.025,806.039 L 946.167,826.197 C 946.167,826.197 947.911,828.147 950.097,832.783 C 952.282,837.418 954.894,844.745 956.41,854.882 C 949.311,860.59 941.838,865.833 934.055,870.565 C 925.038,865.69 919.038,860.741 915.423,857.108 C 911.808,853.475 910.568,851.172 910.568,851.172 L 897.787,827.253 C 886.942,833.048 875.394,837.528 863.478,840.565 L 870.174,866.844 C 870.174,866.844 870.812,869.382 870.593,874.502 C 870.374,879.622 869.282,887.323 865.913,897.003 C 856.974,898.759 847.921,899.928 838.83,900.501 C 833.112,891.995 830.099,884.824 828.586,879.927 C 827.073,875.031 827.046,872.414 827.046,872.414 L 826.845,845.296 C 814.548,845.387 802.241,843.988 790.279,841.138 L 783.995,867.52 C 783.995,867.52 783.381,870.063 780.808,874.495 C 778.235,878.927 773.688,885.238 766.207,892.244 C 757.476,889.645 748.916,886.473 740.601,882.755 C 739.491,872.566 740.155,864.816 741.091,859.777 C 742.028,854.739 743.219,852.409 743.219,852.409 L 755.644,828.304 C 744.713,822.67 734.466,815.711 725.198,807.629 L 707.374,828.069 C 707.374,828.069 705.648,830.035 701.31,832.764 C 696.972,835.492 690.014,838.968 680.133,841.694 C 673.611,835.335 667.505,828.549 661.87,821.393 C 665.622,811.854 669.812,805.301 672.983,801.275 C 676.153,797.248 678.291,795.739 678.291,795.739 L 700.495,780.169 C 693.434,770.101 687.595,759.177 683.144,747.714 L 657.864,757.529 C 657.864,757.529 655.422,758.468 650.312,758.868 C 645.203,759.268 637.426,759.112 627.411,756.934 C 624.59,748.273 622.338,739.426 620.674,730.471 C 628.429,723.769 635.184,719.913 639.863,717.821 C 644.542,715.73 647.135,715.387 647.135,715.387 L 674.032,711.919 C 672.459,699.723 672.365,687.337 673.752,675.118 L 646.805,672.06 C 646.805,672.06 644.207,671.757 639.497,669.737 C 634.787,667.716 627.974,663.964 620.117,657.381 C 621.645,648.401 623.762,639.522 626.45,630.818 C 636.432,628.488 644.205,628.214 649.32,628.536 C 654.434,628.858 656.89,629.76 656.89,629.76 L 682.318,639.188 C 686.593,627.659 692.266,616.647 699.172,606.473 L 676.733,591.243 C 676.733,591.243 674.573,589.766 671.341,585.789 C 668.11,581.811 663.821,575.322 659.923,565.842 C 665.449,558.601 671.451,551.722 677.875,545.265 C 687.796,547.841 694.807,551.21 699.186,553.872 C 703.565,556.534 705.321,558.474 705.321,558.474 L 723.454,578.639 C 732.598,570.417 742.738,563.303 753.581,557.504 L 740.79,533.59 M 782.757,874.714 C 782.757,874.714 782.966,872.071 784.949,867.294 C 786.932,862.517 790.711,855.616 797.475,847.79 C 806.16,849.054 814.753,850.953 823.162,853.465 C 825.999,863.413 826.519,871.263 826.305,876.431 C 826.091,881.599 825.167,884.084 825.167,884.084 L 815.564,909.559 C 826.694,913.754 837.22,919.546 846.72,926.703 L 863.101,904.957 C 863.101,904.957 864.705,902.847 868.956,899.901 C 873.207,896.954 880.117,893.192 890.038,890.264 C 896.661,896.024 902.863,902.267 908.58,908.927 C 905.588,918.829 901.781,925.714 898.807,929.946 C 895.833,934.178 893.712,935.768 893.712,935.768 L 871.861,952.008 C 878.955,961.554 884.679,972.117 888.802,983.274 L 914.339,973.837 C 914.339,973.837 916.829,972.929 921.999,972.749 C 927.168,972.568 935.015,973.139 944.944,976.04 C 947.401,984.466 949.244,993.071 950.452,1001.76 C 942.582,1008.48 935.657,1012.21 930.867,1014.16 C 926.077,1016.12 923.433,1016.31 923.433,1016.31 L 896.271,1018.15 C 897.078,1030.02 896.182,1042 893.619,1053.62 L 920.204,1059.48 C 920.204,1059.48 922.79,1060.07 927.236,1062.71 C 931.682,1065.35 937.975,1070.07 944.76,1077.88 C 942.272,1086.3 939.17,1094.54 935.486,1102.5 C 925.236,1103.89 917.391,1103.29 912.307,1102.34 C 907.222,1101.4 904.894,1100.13 904.894,1100.13 L 881.045,1087 C 875.308,1097.42 868.077,1107.01 859.641,1115.4 L 878.834,1134.71 C 878.834,1134.71 880.695,1136.59 883.006,1141.22 C 885.317,1145.85 888.058,1153.22 889.544,1163.46 C 882.9,1169.2 875.839,1174.45 868.433,1179.16 C 859.057,1174.79 852.784,1170.04 849.018,1166.49 C 845.253,1162.95 843.981,1160.62 843.981,1160.62 L 831.016,1136.68 C 820.557,1142.34 809.287,1146.51 797.657,1149 L 803.364,1175.62 C 803.364,1175.62 803.908,1178.21 803.351,1183.36 C 802.794,1188.5 801.112,1196.18 796.827,1205.6 C 788.138,1206.83 779.358,1207.43 770.582,1207.39 C 765.057,1198.65 762.347,1191.26 761.096,1186.24 C 759.845,1181.22 760.032,1178.58 760.032,1178.58 L 762.069,1151.43 C 750.208,1150.54 738.477,1147.95 727.345,1143.76 L 717.754,1169.24 C 717.754,1169.24 716.81,1171.71 713.561,1175.74 C 710.312,1179.76 704.742,1185.32 696.047,1190.92 C 688.07,1187.26 680.36,1183.02 672.999,1178.24 C 673.08,1167.9 674.793,1160.22 676.454,1155.32 C 678.115,1150.42 679.702,1148.3 679.702,1148.3 L 696.093,1126.56 C 686.596,1119.4 678.128,1110.88 671.03,1101.33 L 649.186,1117.58 C 649.186,1117.58 647.052,1119.16 642.143,1120.78 C 637.234,1122.41 629.544,1124.08 619.2,1124.09 C 614.468,1116.7 610.276,1108.96 606.667,1100.96 C 612.328,1092.3 617.92,1086.77 621.966,1083.55 C 626.012,1080.32 628.495,1079.4 628.495,1079.4 L 654.036,1069.97 C 649.918,1058.81 647.402,1047.06 646.59,1035.2 L 619.429,1037.06 C 619.429,1037.06 616.783,1037.23 611.773,1035.94 C 606.762,1034.66 599.394,1031.9 590.684,1026.32 C 590.7,1017.54 591.356,1008.77 592.646,1000.09 C 602.089,995.863 609.785,994.232 614.931,993.708 C 620.077,993.184 622.668,993.746 622.668,993.746 L 649.25,999.625 C 651.819,988.012 656.054,976.769 661.786,966.347 L 637.93,953.227 C 637.93,953.227 635.613,951.94 632.092,948.151 C 628.571,944.363 623.863,938.059 619.553,928.655 C 624.312,921.28 629.608,914.252 635.387,907.646 C 645.614,909.198 652.971,911.987 657.583,914.328 C 662.195,916.67 664.071,918.543 664.071,918.543 L 683.255,937.86 C 691.695,929.479 701.336,922.311 711.792,916.642 L 698.817,892.708 C 698.817,892.708 697.563,890.372 696.649,885.281 C 695.735,880.19 695.183,872.342 696.642,862.101 C 704.632,858.469 712.887,855.421 721.32,852.988 C 729.085,859.823 733.766,866.146 736.38,870.609 C 738.994,875.072 739.56,877.662 739.56,877.662 L 745.255,904.285 C 756.885,901.797 768.872,900.979 780.733,901.863 L 782.757,874.714"
       id="path2208"
       inkscape:path-effect="#path-effect2210"
       inkscape:original-d="M -94.285714,283.79075 L 77.142857,535.21933 L 214.28571,512.36218 L 314.28571,629.50504 L 551.42857,478.07647 L 825.71429,692.36218 L 771.42857,1026.6479" />
  </g>
</svg>
