<?xml version="1.0" encoding="UTF-8" standalone="no"?>
<!-- Created with Inkscape (http://www.inkscape.org/) -->

<svg
   xmlns:dc="http://purl.org/dc/elements/1.1/"
   xmlns:cc="http://creativecommons.org/ns#"
   xmlns:rdf="http://www.w3.org/1999/02/22-rdf-syntax-ns#"
   xmlns:svg="http://www.w3.org/2000/svg"
   xmlns="http://www.w3.org/2000/svg"
   xmlns:sodipodi="http://sodipodi.sourceforge.net/DTD/sodipodi-0.dtd"
   xmlns:inkscape="http://www.inkscape.org/namespaces/inkscape"
   width="896.24622"
   height="621.69763"
   id="svg2"
   sodipodi:version="0.32"
   inkscape:version="0.92.0 r15304"
   sodipodi:docname="live-path-effects-pathalongpath.svg"
   version="1.0"
   inkscape:output_extension="org.inkscape.output.svg.inkscape">
  <defs
     id="defs4">
    <inkscape:path-effect
       effect="skeletal"
       id="path-effect2461"
       origin="0.1,0.2"
       pattern="m 119.92529,-0.41956101 c 0,2.07947001 0.66149,2.85084001 1.40009,4.18464001 -0.55824,2.35879 -0.9151,4.73581 1.05007,7.32315 -0.70445,1.91797 0.19375,3.83593 1.57509,5.75389 -0.23147,1.84016 0.97303,3.44189 2.10014,5.05646 0.2025,2.09233 1.31475,4.18466 3.1502,6.27698 -16.62605,-5.23081 -17.73136,-18.00712 -20.30128,-20.40018 -1.3648,-1.27087 -2.84182,-1.12057 -3.89543,-2.71105 -1.05361,-1.59048 -1.68379,-4.92175001 -2.75499,-5.48407001 1.0712,-0.56232 1.70138,-3.89358999 2.75499,-5.48407999 1.05361,-1.59048 2.53063,-1.44017 3.89543,-2.71104 2.56992,-2.39306 3.67523,-15.16937 20.30128,-20.40018 -1.83545,2.09232 -2.9477,4.18465 -3.1502,6.27698 -1.12711,1.61457 -2.33161,3.21629 -2.10014,5.05645 -1.38134,1.91797 -2.27954,3.83593 -1.57509,5.7539 -1.96517,2.58734 -1.60831,4.96436 -1.05007,7.32314 -0.7386,1.33381 -1.40009,2.10518 -1.40009,4.18464999 M 102.24917,-9.399491 c -0.50999,1.05008 -0.84165,2.35643 -0.91048,3.69661 m -3.406928,-6.6709 c -0.73499,1.62646 -1.24811,3.22404 -1.4144,4.76238 m -55.721236,-24.34024 c -4.402832,5.37781 -6.306585,11.24808 -7.637983,16.5111 m 59.156689,6.40841 c 0.29264,-2.0932 0.70182,-4.27943 1.87327,-6.2821 m -24.721506,0.51427 c 1.05952,-4.94994 2.7664,-10.37401 6.56931,-14.90154 m 0.21143,16.15134 c 0.98512,-4.10804 2.29883,-8.73081 5.248796,-13.0388 m 0.19268,14.4285 c 0.77063,-3.41657 2.11011,-7.128 4.90647,-10.56448 m 1.0241,12.13861 c 0.65058,-3.19205 1.46038,-6.45168 2.91012,-8.84798 m -51.156506,3.04359 c 1.2901,-5.70117 3.07598,-11.77005 7.15389,-16.25686 m -1.80699,15.86113 c 1.30018,-5.15177 3.40101,-10.88078 8.00932,-16.29847 m -1.54285,16.25213 c 1.27455,-5.14497 3.21522,-10.86584 7.39428,-16.27822 m -0.82528,16.65686 c 1.2799,-5.19166 3.13902,-10.99754 7.15012,-16.44001 m 5.83755,1.07352 c -1.9613,1.97423 -5.08901,8.69433 -6.66792,16.06424 m -31.131845,29.4534 C 31.02686,5.738139 30.600382,-0.45243101 26.863458,-0.37462101 c 3.873531,0.08066 3.930001,-6.59636999 6.294685,-15.06591999 -1.099438,5.16013 -1.594721,10.68094 -0.0507,15.06591999 C 31.648043,3.659839 31.768408,8.716679 32.943271,13.696999 Z M 101.2948,4.002579 c -0.12009,-2.60299 0.0315,-4.46257001 -2.829888,-4.37720001 3.210308,0.09578 2.490518,-2.24980999 2.873778,-5.32825999 -0.0225,2.13602 0.30743,4.26213 0.73548,5.32825999 v 10e-6 c -0.36574,0.91095 -0.76908,2.59037001 -0.77937,4.37719001 z m -4.873528,1.94336 c -0.46025,-4.27056 0.69891,-6.41614001 -3.85032,-6.32056001 4.8613,0.10213 3.06863,-2.41922999 3.94641,-7.23677999 -0.26587,3.36894 0.55763,6.18955 1.94755,7.23677999 -1.25893,0.94854 -2.17186,3.40831001 -2.04364,6.32056001 z m -4.22148,1.42394 c -0.51772,-4.25728 -0.63808,-7.82898001 -4.78139,-7.74450001 4.43753,0.09047 4.1784,-3.98033999 4.89643,-8.65750999 -0.37818,3.24998 -0.35311,6.76924 0.25612,8.65750999 C 92.017822,1.339789 91.874662,4.370259 92.199792,7.369879 Z m -22.883516,5.76919 c -1.51841,-7.47864 -1.6733,-13.59141001 -5.40347,-13.51369001 3.86173,0.08047 3.84608,-6.56588999 5.55379,-14.42533999 -1.00722,5.10964 -1.08324,10.45297 0.68539,14.42533999 C 68.463476,3.297119 68.413876,8.256599 69.316276,13.139069 Z m 6.76256,-1.213 c -1.61839,-7.05493 -2.04215,-12.38231001 -5.92685,-12.30069001 4.01974,0.08445 4.13324,-5.79219999 6.09535,-13.17553999 -0.9672,5.26942 -1.31946,10.58629 0.26785,13.17553999 C 75.005646,1.958549 75.063016,6.925809 76.078836,11.926069 Z m 5.432006,-1.39244 c -1.278726,-6.15255 -0.947226,-10.99098001 -4.995656,-10.90825001 4.20845,0.086 3.74211,-5.25829999 5.173626,-11.78583999 -1.208376,4.4296 -1.532606,9.09997 0.13952,11.78583999 C 80.253876,2.021669 80.503246,6.293799 81.510842,10.533629 Z m 5.72079,-1.52241 c -0.9544,-5.04906 -1.6352,-9.46500001 -5.4033,-9.38584001 3.89293,0.08179 4.81724,-4.87332999 5.79105,-10.21170999 -0.97574,4.05036 -1.25034,8.23044 -0.20098,10.21170999 -0.983,1.71176001 -0.93037,5.50398001 -0.18677,9.38584001 z m -48.043146,5.65271 c -1.76207,-8.10062 -2.473997,-15.11433001 -6.081042,-15.03855001 3.734182,0.07845 4.17302,-7.48725999 6.265552,-16.01609999 -0.91475,4.91846 -1.32537,10.49601 -0.25615,16.01609999 C 38.108106,4.729069 38.236876,9.909499 39.188486,14.663929 Z m 5.32115,0.42075 c -2.07954,-8.79475 -1.62045,-15.54088001 -5.39279,-15.45930001 3.8887,0.0841 3.10903,-7.17949999 5.60305,-16.41182999 -1.38637,5.69066 -1.86904,11.79471 0.40634,16.41182999 -2.16437,4.27508001 -1.99498,9.96966001 -0.6166,15.45930001 z m 6.48115,0.06371 c -2.07828,-8.84097 -1.96942,-15.60484001 -5.86455,-15.52301001 4.009,0.08423 3.60346,-7.20149999 6.06013,-16.45816999 -1.26094,5.71567 -1.73628,11.8483 0.21356,16.45816999 C 49.545316,3.893529 49.721436,9.637169 50.990786,15.148389 Z m 6.57456,-0.3654 c -2.03394,-8.6303 -2.26515,-15.23844001 -6.16542,-15.15761001 4.01854,0.08328 3.95104,-7.03842999 6.35544,-16.07952999 -1.17932,5.58339 -1.68853,11.52938 -0.08174,16.07952999 C 56.143836,3.842269 56.352086,9.409209 57.565346,14.782989 Z m 6.33194,-0.70012 c -1.90137,-8.16842 -2.44426,-14.53689001 -6.22366,-14.45749001 3.90248,0.08199 4.20168,-6.81961999 6.40149,-15.38177999 -1.00525,5.30203 -1.40706,10.93687 -0.16231,15.38177999 C 62.730386,3.735449 62.890676,9.007129 63.897286,14.082869 Z M 101.2948,4.002579 c -0.009,1.63322 0.32756,3.35707 0.95437,4.64767 m -5.827898,-2.70431 c 0.07892,1.79242 0.62597,3.72126 1.51049,5.67861 m -3.74366,2.94044 c -1.34409,-2.2978 -1.70209,-4.84137 -1.98831,-7.19511 m -1.67029,11.3152 c -1.99726,-2.76331 -2.67078,-6.35632 -3.29787,-9.67386 m -0.63635,12.96449 c -2.99873,-3.78952 -4.33547,-7.83848 -5.08444,-11.44208 m -5.432006,1.39244 c 1.20508,5.93187 3.68273,11.93015 5.417296,13.91366 m -5.460226,3.11254 c -4.00847,-4.88739 -5.67534,-10.6698 -6.71963,-15.8132 m -5.41899,0.9438 c 1.52662,7.69782 4.81382,14.94322 6.84575,16.98854 m -5.83755,1.07352 c -4.21634,-5.8294 -6.07301,-11.9853 -7.34014,-17.36194 m 1.0153,17.57879 c -4.39197,-5.7944 -6.33661,-11.88207 -7.58986,-17.21339 m 1.73843,17.18729 c -4.85461,-5.81407 -6.95529,-11.90407 -8.21958,-17.251 m 2.01725,16.81366 c -4.28448,-4.8334 -6.05024,-11.31242 -7.3384,-17.23441 m -6.245215,-0.96693 c 1.314627,5.45965 3.202188,11.70993 7.852855,17.50541 m 79.479184,-50.45326 c 2.45016,-2.61541 5.77537,-3.48721 5.77537,-3.48721 m -9.4506,8.89239 c 2.97519,-2.61541 7.35046,-3.83594 7.35046,-3.83594 m -10.15064,10.636 c 4.02526,-4.53338 8.57555,-4.8821 8.57555,-4.8821 m -10.67568,9.41547 c 5.07533,-2.09233 9.62561,-2.09233 9.62561,-2.09233 m -1.05007,23.01594 c 2.45016,2.61541 5.77537,3.48721 5.77537,3.48721 m -9.4506,-8.89239 c 2.97519,2.61541 7.35046,3.83593 7.35046,3.83593 M 113.7999,6.206129 c 4.02526,4.53338 8.57555,4.8821 8.57555,4.8821 m -10.67568,-9.41547 c 5.07533,2.09232 9.62561,2.09232 9.62561,2.09232 M 19.293941,-10.620001 c 0,0.43311 -0.313621,0.78462 -0.700043,0.78462 -0.386426,0 -0.700042,-0.35151 -0.700042,-0.78462 0,-0.43312 0.313616,-0.78462 0.700042,-0.78462 0.386422,0 0.700043,0.3515 0.700043,0.78462 z m 6.562918,38.18494 c 4.725297,-0.08718 0,-21.35916 0,-28.15922001 0,-6.80005999 1.938324,-21.58620999 7.175453,-28.33357999 5.325814,-6.86163 -34.315884,15.93349 -31.414481,33.73876 3.237706,1.83079 8.138013,2.78977 12.07576,4.27183 -3.675231,0.26154 -7.963003,-0.8718 -11.025699,-1.65643 1.750114,3.66158 7.875501,13.77449 23.188967,20.13864 z m -4.637785,-39.36187 c 0,1.3234 -0.921261,2.39746 -2.056379,2.39746 -1.135123,0 -2.056384,-1.07406 -2.056384,-2.39746 0,-1.32339 0.921261,-2.39745 2.056384,-2.39745 1.135118,0 2.056379,1.07406 2.056379,2.39745 z m -1.925133,1.17693 c 0,0.43311 -0.313621,0.78462 -0.700043,0.78462 -0.386426,0 -0.700042,-0.35151 -0.700042,-0.78462 0,-0.43312 0.313616,-0.78462 0.700042,-0.78462 0.386422,0 0.700043,0.3515 0.700043,0.78462 z"
       copytype="single_stretched"
       is_visible="true"
       prop_scale="1.0666667"
       scale_y_rel="false"
       spacing="0"
       normal_offset="0"
       tang_offset="0"
       prop_units="false"
       vertical_pattern="false"
       fuse_tolerance="0" />
    <marker
       inkscape:stockid="Arrow1Mend"
       orient="auto"
       refY="0"
       refX="0"
       id="Arrow1Mend"
       style="overflow:visible">
      <path
         id="path5779"
         d="M -4.2666667,0 -6.4,2.1333333 1.0666667,0 -6.4,-2.1333333 Z"
         style="fill-rule:evenodd;stroke:#000000;stroke-width:0.42666668pt;marker-start:none"
         inkscape:connector-curvature="0" />
    </marker>
    <marker
       inkscape:stockid="Arrow1Mstart"
       orient="auto"
       refY="0"
       refX="0"
       id="Arrow1Mstart"
       style="overflow:visible">
      <path
         id="path5782"
         d="M 4.2666667,0 6.4,-2.1333333 -1.0666667,0 6.4,2.1333333 Z"
         style="fill-rule:evenodd;stroke:#000000;stroke-width:0.42666668pt;marker-start:none"
         inkscape:connector-curvature="0" />
    </marker>
    <marker
       inkscape:stockid="Arrow1Lend"
       orient="auto"
       refY="0"
       refX="0"
       id="Arrow1Lend"
       style="overflow:visible">
      <path
         id="path17355"
         d="M -10.666667,0 -14.933333,4.2666667 0,0 -14.933333,-4.2666667 Z"
         style="fill-rule:evenodd;stroke:#000000;stroke-width:0.85333335pt;marker-start:none"
         inkscape:connector-curvature="0" />
    </marker>
  </defs>
  <sodipodi:namedview
     id="base"
     pagecolor="#ffffff"
     bordercolor="#666666"
     borderopacity="1.0"
     inkscape:pageopacity="0.0"
     inkscape:pageshadow="2"
     inkscape:zoom="0.94740589"
     inkscape:cx="448.12311"
     inkscape:cy="310.84882"
     inkscape:document-units="mm"
     inkscape:current-layer="svg2"
     inkscape:window-width="1152"
     inkscape:window-height="808"
     inkscape:window-x="0"
     inkscape:window-y="25"
     inkscape:grid-points="false"
     inkscape:grid-bbox="false"
     gridtolerance="50"
     width="210mm"
     height="297mm"
     units="mm"
     showgrid="true"
     grid_units="mm"
     inkscape:object-paths="false"
     inkscape:object-nodes="false"
     inkscape:object-points="false"
     objecttolerance="12.4"
     inkscape:guide-bbox="false"
     fit-margin-top="5"
     fit-margin-left="5"
     fit-margin-right="5"
     fit-margin-bottom="5"
     inkscape:window-maximized="0" />
  <metadata
     id="metadata7">
    <rdf:RDF>
      <cc:Work
         rdf:about="">
        <dc:format>image/svg+xml</dc:format>
        <dc:type
           rdf:resource="http://purl.org/dc/dcmitype/StillImage" />
        <dc:title></dc:title>
      </cc:Work>
    </rdf:RDF>
  </metadata>
  <g
     inkscape:label="Calque 1"
     id="layer1"
     inkscape:groupmode="layer"
     transform="translate(31.804144,69.750943)" />
  <g
     id="g29744"
     transform="translate(31.804144,69.750943)">
    <g
       transform="translate(550.62254,213.42938)"
       id="g3195">
      <ellipse
         ry="37.255424"
         rx="40.412663"
         cy="193.65985"
         cx="13.891851"
         id="path3197"
         style="fill:none;fill-opacity:1;fill-rule:nonzero;stroke:#0000ff;stroke-width:0.56666666;stroke-miterlimit:4;stroke-dasharray:none;stroke-opacity:1" />
      <text
         id="text3199"
         y="209.44606"
         x="1.2628939"
         style="font-style:normal;font-weight:normal;font-size:23.46666718px;font-family:'Bitstream Vera Sans';fill:#0000ff;fill-opacity:1;stroke:none;stroke-width:1.06666672px;stroke-linecap:butt;stroke-linejoin:miter;stroke-opacity:1"
         xml:space="preserve"><tspan
           style="font-weight:bold;font-size:42.66666794px;writing-mode:lr-tb;fill:#0000ff;stroke-width:1.06666672px"
           y="209.44606"
           x="1.2628939"
           id="tspan3201"
           sodipodi:role="line">3</tspan></text>
      <ellipse
         ry="37.255424"
         rx="40.412663"
         cy="193.65985"
         cx="13.891851"
         style="fill:none;fill-opacity:1;fill-rule:nonzero;stroke:#0000ff;stroke-width:0.56666666;stroke-miterlimit:4;stroke-dasharray:none;stroke-opacity:1"
         id="path3203" />
    </g>
    <g
       transform="translate(687.01527,-18.943436)"
       id="g3205">
      <ellipse
         ry="37.255424"
         rx="40.412663"
         cy="193.65985"
         cx="13.891851"
         id="path3207"
         style="fill:none;fill-opacity:1;fill-rule:nonzero;stroke:#0000ff;stroke-width:0.56666666;stroke-miterlimit:4;stroke-dasharray:none;stroke-opacity:1" />
      <text
         id="text3209"
         y="209.44606"
         x="1.2628939"
         style="font-style:normal;font-weight:normal;font-size:23.46666718px;font-family:'Bitstream Vera Sans';fill:#0000ff;fill-opacity:1;stroke:none;stroke-width:1.06666672px;stroke-linecap:butt;stroke-linejoin:miter;stroke-opacity:1"
         xml:space="preserve"><tspan
           style="font-weight:bold;font-size:42.66666794px;writing-mode:lr-tb;fill:#0000ff;stroke-width:1.06666672px"
           y="209.44606"
           x="1.2628939"
           id="tspan3211"
           sodipodi:role="line">4</tspan></text>
    </g>
    <text
       x="173.21672"
       y="103.54449"
       id="text10546"
       style="font-style:normal;font-weight:normal;font-size:34.13333511px;font-family:'Bitstream Vera Sans';fill:#000000;fill-opacity:1;stroke:none;stroke-width:1.06666672px;stroke-linecap:butt;stroke-linejoin:miter;stroke-opacity:1"
       xml:space="preserve"><tspan
         style="stroke-width:1.06666672px"
         x="173.21672"
         y="103.54449"
         id="tspan10548"
         sodipodi:role="line">+</tspan></text>
    <path
       inkscape:connector-curvature="0"
       id="path8133"
       sodipodi:nodetypes="cc"
       d="m 229.4952,108.54189 c 54.12595,-65.784343 104.86082,-51.990317 153.96802,0"
       style="fill:none;fill-rule:evenodd;stroke:#000000;stroke-width:1.0666672px;stroke-linecap:butt;stroke-linejoin:miter;stroke-opacity:1" />
    <g
       transform="translate(-56.104979,176.28085)"
       id="g10352"
       style="stroke:#000000;stroke-width:0.53125;stroke-miterlimit:4;stroke-dasharray:none;stroke-opacity:1">
      <path
         inkscape:connector-curvature="0"
         id="path8125"
         sodipodi:nodetypes="ccccccsscsscccccc"
         d="m 194.57722,-89.944953 c 0,2.218101 0.70559,3.040896 1.49343,4.463624 -0.59546,2.516035 -0.97611,5.051528 1.12007,7.811355 -0.75141,2.045831 0.20667,4.091657 1.6801,6.137489 -0.24691,1.962837 1.03789,3.671343 2.24015,5.393552 0.216,2.231814 1.4024,4.463634 3.36021,6.695448 -17.73445,-5.579536 -18.91345,-19.207598 -21.6547,-21.760199 -1.45579,-1.355589 -3.03127,-1.195266 -4.15513,-2.891778 -1.12385,-1.696518 -1.79604,-5.249869 -2.93865,-5.84968 1.14261,-0.599811 1.8148,-4.153163 2.93865,-5.84968 1.12386,-1.696512 2.69934,-1.53619 4.15513,-2.891779 2.74125,-2.552599 3.92025,-16.180659 21.6547,-21.760189 -1.95781,2.2318 -3.14421,4.46362 -3.36021,6.69544 -1.20226,1.72221 -2.48706,3.43071 -2.24015,5.39355 -1.47343,2.04583 -2.43151,4.09166 -1.6801,6.13749 -2.09618,2.759826 -1.71553,5.29532 -1.12007,7.811355 -0.78784,1.422728 -1.49343,2.245524 -1.49343,4.463624"
         style="fill:#b3b3b3;fill-rule:evenodd;stroke:#000000;stroke-width:0.56666666;stroke-linecap:butt;stroke-linejoin:miter;stroke-miterlimit:4;stroke-dasharray:none;stroke-opacity:1" />
      <path
         inkscape:connector-curvature="0"
         id="path8246"
         d="m 175.72269,-99.523536 c -0.54399,1.120079 -0.89776,2.513521 -0.97118,3.943051 m -3.63406,-7.115635 c -0.78399,1.7349 -1.33132,3.438983 -1.50869,5.079871 m -59.43599,-25.962921 c -4.69636,5.73633 -6.72703,11.99795 -8.14718,17.61184 m 63.10047,6.835639 c 0.31215,-2.232749 0.74861,-4.564719 1.99815,-6.700899 m -26.36961,0.54855 c 1.13016,-5.27994 2.95083,-11.06561 7.00727,-15.89498 m 0.22552,17.2281 c 1.0508,-4.38191 2.45209,-9.31287 5.59872,-13.90806 m 0.20553,15.39041 c 0.822,-3.64435 2.25078,-7.60321 5.23357,-11.26878 m 1.09237,12.94784 c 0.69395,-3.40485 1.55774,-6.88179 3.10413,-9.43784 m -54.56695,3.2465 c 1.37611,-6.08125 3.28105,-12.55472 7.63082,-17.34065 m -1.92746,16.91853 c 1.38686,-5.49522 3.62775,-11.60616 8.54328,-17.38503 m -1.64571,17.33561 c 1.35952,-5.48797 3.42957,-11.59023 7.88723,-17.36344 m -0.8803,17.76732 c 1.36523,-5.53777 3.34829,-11.73071 7.6268,-17.53601 m 6.22672,1.14509 c -2.09205,2.10584 -5.42828,9.27395 -7.11245,17.13519"
         style="fill:none;fill-rule:evenodd;stroke:#000000;stroke-width:0.56666666;stroke-linecap:butt;stroke-linejoin:miter;stroke-miterlimit:4;stroke-dasharray:none;stroke-opacity:1" />
      <path
         inkscape:connector-curvature="0"
         id="path8248"
         sodipodi:nodetypes="cccccccccccccccccccccccccccccccccccccccccccccccccccccccccccccccccc"
         d="m 101.79639,-74.887282 c -2.044172,-8.489452 -2.499082,-15.092732 -6.485135,-15.009727 4.131767,0.08603 4.192002,-7.036134 6.714335,-16.070321 -1.17274,5.50414 -1.70104,11.393004 -0.0541,16.070321 -1.5567,4.303416 -1.42831,9.697379 -0.17512,15.009727 z m 72.9083,-10.340716 c -0.12809,-2.776527 0.0336,-4.76008 -3.01855,-4.669011 3.42433,0.102165 2.65656,-2.399806 3.06537,-5.683476 -0.024,2.27841 0.32792,4.546264 0.78451,5.683476 v 1.1e-5 c -0.39012,0.971681 -0.82035,2.763055 -0.83133,4.669 z m -5.19843,2.072913 c -0.49093,-4.555261 0.74551,-6.843877 -4.10701,-6.741924 5.18539,0.108939 3.27321,-2.580518 4.20951,-7.71924 -0.2836,3.593536 0.5948,6.602186 2.07738,7.71924 -1.34285,1.011777 -2.31665,3.635525 -2.17988,6.741924 z m -4.50291,1.518877 c -0.55224,-4.541099 -0.68062,-8.350912 -5.10015,-8.260801 4.73337,0.0965 4.45696,-4.245699 5.22286,-9.234682 -0.40339,3.466644 -0.37665,7.220528 0.27319,9.234682 -0.59,1.828696 -0.74271,5.061203 -0.3959,8.260801 z m -24.40909,6.153802 c -1.61964,-7.977222 -1.78485,-14.497513 -5.7637,-14.414603 4.11918,0.08584 4.10249,-7.003626 5.92404,-15.387031 -1.07437,5.450285 -1.15545,11.149833 0.73109,15.387031 -1.80108,3.916522 -1.85399,9.206634 -0.89143,14.414603 z m 7.2134,-1.293873 c -1.72628,-7.525261 -2.17829,-13.20779 -6.32197,-13.12073 4.28772,0.09008 4.40878,-6.178352 6.5017,-14.053911 -1.03168,5.620709 -1.40742,11.292039 0.28571,14.053911 -1.61018,2.488712 -1.54898,7.78712 -0.46544,13.12073 z m 5.79414,-1.485263 c -1.36398,-6.562728 -1.01038,-11.723711 -5.3287,-11.635467 4.48901,0.09172 3.99158,-5.608858 5.51854,-12.571561 -1.28894,4.724903 -1.63479,9.706627 0.14882,12.571561 -1.67943,2.556042 -1.41343,7.112979 -0.33866,11.635467 z m 6.10218,-1.623908 c -1.01803,-5.385661 -1.74421,-10.096005 -5.76352,-10.011559 4.15246,0.08724 5.13839,-5.198222 6.17712,-10.892501 -1.04079,4.320389 -1.3337,8.779146 -0.21438,10.892501 -1.04853,1.825876 -0.99239,5.870906 -0.19922,10.011559 z m -51.24603,6.029561 c -1.87954,-8.640669 -2.63893,-16.121957 -6.48644,-16.04112 3.98312,0.08368 4.45122,-7.986412 6.68325,-17.083841 -0.97573,5.24635 -1.41373,11.195739 -0.27322,17.083841 -1.07599,5.443937 -0.93864,10.969722 0.0764,16.04112 z m 5.6759,0.448794 c -2.21818,-9.381064 -1.72848,-16.576937 -5.75231,-16.489914 4.14794,0.08971 3.31629,-7.658134 5.97658,-17.505961 -1.47879,6.07004 -1.99364,12.581034 0.43343,17.505961 -2.30866,4.560084 -2.12798,10.634295 -0.6577,16.489914 z m 6.91322,0.06796 c -2.21683,-9.430365 -2.10071,-16.645165 -6.25552,-16.557873 4.27627,0.08983 3.84369,-7.681607 6.46414,-17.555382 -1.345,6.0967 -1.85203,12.638183 0.2278,17.555382 -1.97825,4.552693 -1.79039,10.679235 -0.43642,16.557873 z m 7.01287,-0.389756 c -2.16954,-9.205655 -2.41616,-16.254336 -6.57645,-16.168117 4.28644,0.08883 4.21444,-7.50766 6.77913,-17.151502 -1.25794,5.95562 -1.80109,12.298006 -0.0871,17.151502 -1.63178,4.49801 -1.40965,10.436077 -0.1155,16.168117 z m 6.75407,-0.746803 c -2.02813,-8.712978 -2.60722,-15.506013 -6.63858,-15.421314 4.16265,0.08745 4.4818,-7.274265 6.82826,-16.407242 -1.07227,5.6555 -1.50086,11.666004 -0.17313,16.407242 -1.26125,4.384069 -1.09027,10.007192 -0.0165,15.421314 z"
         style="fill:#cccccc;fill-rule:evenodd;stroke:#000000;stroke-width:0.56666666;stroke-linecap:butt;stroke-linejoin:miter;stroke-miterlimit:4;stroke-dasharray:none;stroke-opacity:1" />
      <path
         inkscape:connector-curvature="0"
         id="path8242"
         sodipodi:nodetypes="cccccccccccccccccccccccccc"
         d="m 174.70469,-85.227998 c -0.01,1.742099 0.3494,3.580869 1.018,4.957516 m -6.21643,-2.884603 c 0.0842,1.911916 0.6677,3.969346 1.61119,6.057188 m -3.99324,3.136473 c -1.43369,-2.450991 -1.81556,-5.164134 -2.12086,-7.674784 m -1.78164,12.069542 c -2.13041,-2.947533 -2.84884,-6.780072 -3.51773,-10.318784 m -0.67877,13.828791 c -3.19865,-4.042158 -4.62451,-8.361046 -5.42341,-12.204883 m -5.79414,1.485263 c 1.28542,6.327333 3.92824,12.725493 5.77845,14.841235 m -5.82424,3.320047 c -4.2757,-5.213215 -6.0537,-11.381115 -7.16761,-16.867409 m -5.78025,1.006711 c 1.62839,8.211011 5.13474,15.939441 7.30213,18.121118 m -6.22672,1.145082 c -4.49743,-6.218022 -6.47788,-12.78432 -7.82948,-18.519397 m 1.08298,18.750709 c -4.68477,-6.180694 -6.75905,-12.67421 -8.09585,-18.360953 m 1.85433,18.333114 c -5.17825,-6.201677 -7.41898,-12.69768 -8.76755,-18.401073 m 2.15173,17.934578 c -4.57011,-5.155634 -6.45359,-12.066582 -7.82763,-18.383372 m -6.66156,-1.031393 c 1.40227,5.823619 3.41567,12.490593 8.37638,18.672437"
         style="fill:none;fill-rule:evenodd;stroke:#000000;stroke-width:0.56666666;stroke-linecap:butt;stroke-linejoin:miter;stroke-miterlimit:4;stroke-dasharray:none;stroke-opacity:1" />
      <path
         inkscape:connector-curvature="0"
         id="path8129"
         sodipodi:nodetypes="cccccccc"
         d="m 194.95057,-110.03166 c 2.6135,-2.78977 6.1604,-3.71969 6.1604,-3.71969 m -10.08064,9.48522 c 3.17353,-2.78977 7.84049,-4.09167 7.84049,-4.09167 m -10.82735,11.345061 c 4.29361,-4.835601 9.14725,-5.207571 9.14725,-5.207571 m -11.38739,10.04317 c 5.41368,-2.231815 10.26732,-2.231815 10.26732,-2.231815"
         style="fill:none;fill-rule:evenodd;stroke:#000000;stroke-width:0.56666666;stroke-linecap:butt;stroke-linejoin:miter;stroke-miterlimit:4;stroke-dasharray:none;stroke-opacity:1" />
      <path
         inkscape:connector-curvature="0"
         d="m 194.95057,-69.858625 c 2.6135,2.789767 6.1604,3.719692 6.1604,3.719692 m -10.08064,-9.485215 c 3.17353,2.789767 7.84049,4.091663 7.84049,4.091663 m -10.82735,-11.34506 c 4.29361,4.835599 9.14725,5.207571 9.14725,5.207571 m -11.38739,-10.043169 c 5.41368,2.231814 10.26732,2.231814 10.26732,2.231814"
         sodipodi:nodetypes="cccccccc"
         id="path8131"
         style="fill:none;fill-rule:evenodd;stroke:#000000;stroke-width:0.56666666;stroke-linecap:butt;stroke-linejoin:miter;stroke-miterlimit:4;stroke-dasharray:none;stroke-opacity:1" />
      <path
         inkscape:connector-curvature="0"
         id="path8135"
         d="m 87.237104,-100.82542 c 0,0.46199 -0.334529,0.83693 -0.746713,0.83693 -0.412187,0 -0.746711,-0.37494 -0.746711,-0.83693 0,-0.46199 0.334524,-0.83693 0.746711,-0.83693 0.412184,0 0.746713,0.37494 0.746713,0.83693 z"
         style="color:#000000;display:inline;overflow:visible;visibility:visible;fill:#000000;fill-opacity:1;fill-rule:evenodd;stroke:#000000;stroke-width:0.56666666;stroke-linecap:butt;stroke-linejoin:miter;stroke-miterlimit:4;stroke-dasharray:none;stroke-dashoffset:0;stroke-opacity:1;marker:none;marker-start:none;marker-mid:none;marker-end:none" />
      <path
         inkscape:connector-curvature="0"
         id="path8123"
         d="m 94.23755,-60.094812 c 5.040317,-0.09299 0,-22.783106 0,-30.036502 0,-7.253396 2.067545,-23.025296 7.65382,-30.222486 5.68086,-7.31907 -36.603613,16.99572 -33.508783,35.988004 3.453553,1.952842 8.680547,2.975755 12.88081,4.556628 -3.920246,0.278971 -8.49387,-0.92993 -11.760745,-1.76686 1.866788,3.90568 8.400534,14.69278 24.734898,21.481216 z m -4.946971,-41.985998 c 0,1.41162 -0.982678,2.55729 -2.193471,2.55729 -1.210798,0 -2.193476,-1.14567 -2.193476,-2.55729 0,-1.41162 0.982678,-2.55728 2.193476,-2.55728 1.210793,0 2.193471,1.14566 2.193471,2.55728 z"
         style="fill:#cccccc;fill-rule:evenodd;stroke:#000000;stroke-width:0.56666666;stroke-linecap:butt;stroke-linejoin:miter;stroke-miterlimit:4;stroke-dasharray:none;stroke-opacity:1" />
      <path
         inkscape:connector-curvature="0"
         d="m 87.237104,-100.82542 c 0,0.46199 -0.334529,0.83693 -0.746713,0.83693 -0.412187,0 -0.746711,-0.37494 -0.746711,-0.83693 0,-0.46199 0.334524,-0.83693 0.746711,-0.83693 0.412184,0 0.746713,0.37494 0.746713,0.83693 z"
         id="path9876"
         style="color:#000000;display:inline;overflow:visible;visibility:visible;fill:#000000;fill-opacity:1;fill-rule:evenodd;stroke:#000000;stroke-width:0.56666666;stroke-linecap:butt;stroke-linejoin:miter;stroke-miterlimit:4;stroke-dasharray:none;stroke-dashoffset:0;stroke-opacity:1;marker:none;marker-start:none;marker-mid:none;marker-end:none" />
    </g>
    <path
       inkscape:connector-curvature="0"
       d="M 406.94424,91.809077 H 509.97725"
       sodipodi:nodetypes="cc"
       id="path10580"
       style="fill:none;fill-rule:evenodd;stroke:#000000;stroke-width:1.06666672px;stroke-linecap:butt;stroke-linejoin:miter;stroke-opacity:1;marker-end:url(#Arrow1Lend)" />
    <path
       inkscape:connector-curvature="0"
       sodipodi:nodetypes="cc"
       inkscape:original-d="M 537.06153,116.74169 C 592.8608,24.184631 718.2434,33.558355 760.23771,120.40345"
       inkscape:path-effect="#path-effect2461"
       id="path2459"
       d="m 750.2052,103.24307 c -1.81179,1.27173 -1.68251,2.89895 -2.01867,4.95491 -2.80872,0.44614 -5.11324,1.31655 -5.39069,6.031 -2.4568,-0.0434 -3.20351,2.56163 -3.65095,5.75296 -1.87618,0.643 -2.24458,3.4159 -2.80095,5.93078 -1.79063,1.39358 -2.79844,4.11821 -3.52265,7.74806 -3.53481,-14.15683 -4.8027,-20.9955 -4.66549,-28.62254 0.11851,-6.587932 1.59012,-10.758824 0.63417,-13.45357 -1.01535,-2.862178 -3.34537,-4.718725 -3.90166,-7.399353 -0.55629,-2.680627 0.60994,-6.296665 -0.85776,-8.162516 2.19227,0.910764 5.47023,-1.016454 8.37465,-0.791993 2.90441,0.22447 5.3149,2.573888 8.5136,3.77498 3.01158,1.130825 7.38998,-0.354033 15.06539,1.700984 6.83311,1.829497 19.78603,7.91971 31.75661,26.397448 -4.15275,-3.46151 -7.55864,-4.87502 -9.74139,-4.25377 -2.92384,-1.70277 -5.9103,-3.38822 -7.3098,-1.87265 -3.53717,-1.876394 -6.39435,-2.481422 -7.21799,0.0113 -4.8074,-2.406919 -6.49062,-0.0989 -7.85532,2.25823 -2.09876,-0.57865 -3.5921,-1.28102 -5.41078,-0.004 M 729.81589,68.396846 c -1.62152,0.177889 -3.05032,0.854543 -4.02071,1.916496 m -2.4692,-10.323807 c -0.60188,0.12839 -1.17237,0.277177 -1.70798,0.447074 0,0 0,0 0,0 -1.60716,0.513345 -2.89556,1.213768 -3.77679,2.118751 M 585.73664,30.57798 c -4.2422,4.849804 -6.62376,9.406516 -7.93403,13.367295 -1.37563,4.188154 -1.6384,7.930373 -1.58557,11.209834 m 133.93323,1.395398 c 1.5919,-1.661946 3.55329,-3.349735 7.04992,-3.847294 M 660.31148,36.265236 c 2.85928,-4.884627 7.87404,-10.694441 18.67997,-13.476164 m -2.78019,17.014002 c 3.04736,-3.717657 7.45765,-8.173495 16.04463,-10.385692 M 688.38202,44.3206 c 2.69992,-2.899247 7.12144,-5.941861 15.03524,-6.757447 m -2.47481,12.949793 c 2.67567,-2.557816 5.87234,-5.038193 10.22444,-5.808837 m -122.0576,2.530007 c 0.31529,-6.603456 1.92092,-14.93121 10.9676,-22.793582 m 0.95568,17.52045 c 1.10544,-5.914928 4.29545,-14.169072 15.26882,-22.257255 m -0.1542,17.784867 c 1.69308,-5.777983 5.34604,-13.437969 15.92762,-20.281625 m -0.11104,17.891413 c 2.32135,-5.612289 6.57389,-12.867638 17.39324,-18.571821 m 15.85162,1.951152 c -2.98678,0.843964 -6.8593,3.102275 -10.39242,6.354404 -3.07748,2.831669 -5.74848,6.278301 -7.49452,9.984932 m -55.57657,47.224444 c -7.30969,-5.305193 -12.22751,-10.401923 -18.51578,-5.595657 3.34659,-2.449773 4.09724,-5.000133 3.98109,-8.417144 -0.11512,-3.386762 -1.14003,-7.529471 -0.99339,-12.873585 0.53654,6.167946 2.85814,11.521273 8.1157,13.850466 -0.48557,5.309194 2.80958,9.643512 7.41238,13.03592 z m 127.86022,-3.437174 c 1.37869,-2.284978 2.961,-3.927581 -2.23024,-7.2211 5.74354,3.887602 5.66092,1.168887 8.42008,-1.069879 -1.37936,1.796632 -2.14107,4.077965 -2.09291,5.521521 l -10e-6,9e-6 c -1.2259,0.307475 -2.94681,1.234052 -4.09692,2.769449 z m -9.42317,-3.783478 c 0.7781,-2.190521 1.96824,-3.472631 1.93286,-4.806413 -0.034,-1.28071 -1.31028,-2.807891 -5.65822,-4.985387 4.62515,2.438506 6.24752,2.828536 7.46956,1.972393 1.16867,-0.818755 1.72646,-2.767703 3.91484,-4.446076 -1.69703,1.96612 -2.14899,4.35046 -1.60441,6.444785 0.21939,0.84366 0.60122,1.649698 1.1383,2.383076 -0.86336,-0.194594 -1.74835,-0.21234 -2.59829,-0.05967 -1.93169,0.346381 -3.63385,1.556467 -4.59464,3.497291 z m -8.16074,-2.784845 c 1.07015,-4.297485 2.67458,-8.350115 -5.60366,-11.608432 8.85893,3.696045 9.79085,0.02211 13.7325,-3.877059 -2.34639,2.692632 -3.93382,6.101333 -3.69346,8.478536 -1.90472,1.091953 -3.5697,3.851221 -4.43538,7.006955 z M 657.6594,65.952627 c -1.32545,-4.793515 -2.02717,-9.227245 -3.93731,-11.864575 -1.31989,-1.822686 -3.30065,-2.947208 -6.53424,-2.862487 3.25389,-0.0178 5.22063,-1.010822 6.74571,-2.792076 2.34089,-2.734266 3.48494,-7.292297 6.37792,-12.168253 -2.87694,5.28933 -3.1433,10.907823 0.24243,15.464964 -3.97418,3.58003 -4.19245,8.93732 -2.89451,14.222427 z m 12.97287,0.453928 C 669.0539,58.624973 668.80138,52.397877 660.55391,51.7302 c 4.29221,0.437922 6.64177,-0.712735 8.7576,-2.980297 2.09251,-2.242573 3.8433,-5.53552 6.89975,-8.946829 -3.37278,5.103784 -4.93834,10.533128 -2.15735,13.903215 -3.70472,1.81707 -4.31827,7.110784 -3.42164,12.700266 z m 10.56228,1.033243 c -0.27542,-3.498504 0.0325,-6.45484 -0.60616,-8.796555 -0.62963,-2.308542 -2.26688,-4.11988 -6.53448,-4.936954 4.41787,0.939304 6.64429,0.157313 8.51573,-1.742843 1.8437,-1.871984 3.20749,-4.782423 5.81238,-7.642846 -4.10809,3.75738 -5.87691,8.395423 -3.27311,12.142344 -3.98324,1.492144 -4.5254,6.124525 -3.91436,10.976854 z m 11.12181,2.12546 c 0.25212,-5.524308 0.58405,-10.870032 -7.20745,-13.102314 7.96335,2.462681 11.45056,-1.413617 15.83354,-5.949998 -3.75426,3.14473 -5.80722,7.131005 -4.52468,9.91462 -2.66245,0.907769 -3.9197,4.755078 -4.10141,9.137692 z m -89.7301,7.924572 c -4.3448,-4.244758 -8.09103,-8.358028 -11.96879,-9.463358 -1.98527,-0.566845 -4.06772,-0.374397 -6.28472,0.979101 2.28802,-1.332046 3.50168,-2.971145 4.13682,-5.015352 1.27985,-4.115978 0.072,-9.803013 0.63972,-16.756105 0.16006,5.786488 2.01577,11.341036 6.61335,15.759492 0.32436,5.832231 3.15131,10.669198 6.86362,14.496222 z m 9.37202,-3.338829 c -3.40246,-3.766576 -5.66944,-7.327808 -7.94356,-9.610994 -2.25246,-2.261436 -4.63224,-3.290019 -8.29208,-1.546399 3.79862,-1.710489 4.61105,-4.018717 4.69908,-7.48412 0.0815,-3.208945 -0.57528,-8.108973 0.61085,-13.548504 -1.19299,6.966076 0.41596,13.153627 6.63951,16.221799 -2.91016,5.838253 -0.0467,11.375721 4.2862,15.968218 z m 11.61898,-3.367613 c -2.97924,-4.137833 -5.0164,-7.900103 -7.24441,-10.364668 -2.20802,-2.442449 -4.71847,-3.640949 -8.66077,-2.235937 4.07639,-1.357501 5.36888,-3.649989 6.04545,-7.157128 0.6698,-3.47207 0.64016,-8.04704 2.42966,-13.537059 -1.62529,6.732974 -0.74053,13.126218 4.45274,16.987239 -2.85803,5.339938 -0.65396,11.187414 2.97733,16.307553 z m 12.02698,-2.566283 c -4.80554,-8.476536 -6.98984,-15.6771 -15.00431,-13.74127 4.20782,-0.925016 5.92141,-3.063592 7.15737,-6.432195 1.22426,-3.33673 1.88036,-7.808363 4.20647,-12.945256 -2.16178,6.334217 -2.14326,12.629926 1.88175,17.046946 -2.71562,4.869733 -1.17986,10.703063 1.75872,16.071775 z m 11.79854,-1.573952 c -3.6404,-8.476884 -5.58931,-15.555625 -13.55726,-14.497823 4.15725,-0.463738 6.22379,-2.373104 7.93045,-5.470591 1.69233,-3.071452 2.93817,-7.256994 5.54572,-11.857688 -2.38731,5.742976 -2.88958,11.691003 -0.13384,16.408514 -2.46835,4.427153 -1.75552,10.062018 0.21493,15.417588 z m 72.20256,11.961168 c -1.04178,1.392176 -1.57031,3.284968 -1.41831,5.121044 m -8.00486,-8.904522 c -0.67409,1.36169 -0.89018,3.103018 -0.80381,5.093714 0,0 0,0 0,0 0.0224,0.522711 0.0658,1.062914 0.12725,1.618225 m -7.67078,-0.920766 c -1.02253,-3.395654 -0.44715,-6.031141 0.1866,-8.576018 m -8.12996,9.456815 c -2.01486,-4.251014 -1.74983,-8.099554 -1.57511,-11.927555 m -6.17878,12.423868 C 682.6926,76.24 681.52786,71.673415 681.19455,67.439798 m -10.56228,-1.033243 c 1.01982,6.357384 3.99433,14.144507 5.96272,16.69903 m -9.49591,1.118928 c -5.48823,-6.494671 -7.82411,-12.429228 -9.43968,-18.271886 m -10.25662,0.690526 c 1.41987,3.859116 3.54579,7.89953 5.43599,11.064122 2.05613,3.43569 4.08701,6.25627 5.58439,7.519156 m -9.14686,0.666896 C 642.43674,79.364763 638.88475,74.003662 635.60424,68.217105 m 3.87715,18.424419 C 631.71758,80.997171 627.40534,76.100169 623.57726,70.783388 m 6.8911,17.244878 c -9.0216,-4.712558 -14.09642,-8.991278 -18.51008,-13.877265 m 9.0113,15.883529 c -8.12759,-2.93834 -13.38275,-7.659254 -18.38332,-12.5447 m -10.84114,4.551665 c 2.83369,2.056625 5.76364,4.074348 9.54519,6.040984 3.20031,1.646958 6.73984,3.091485 10.99595,4.39326 m 154.85972,-0.05738 c 5.84178,3.473133 10.85343,10.43209 10.85343,10.43209 M 757.16895,88.63662 c 3.38647,1.973573 6.69976,4.881908 9.31293,7.563655 2.55051,2.617446 4.20773,4.777525 4.20773,4.777525 M 747.42047,88.256757 c 4.88418,1.869296 8.90926,4.992856 11.74157,7.75941 2.80331,2.738222 4.30958,4.972913 4.30958,4.972913 M 740.69936,88.039785 c 9.35088,6.639951 14.91694,15.207525 14.91694,15.207525 m -21.49228,12.05234 c 0.21355,5.1647 2.21992,10.61307 2.21992,10.61307 m -1.63177,-19.5009 c 1.30697,6.12017 4.43272,13.57012 4.43272,13.57012 m -2.3669,-22.426785 c 1.6843,9.148355 6.01785,16.673825 6.01785,16.673825 m -5.34752,-23.132289 c 5.65557,9.249399 10.73821,17.101289 10.73821,17.101289 M 553.31569,79.028138 c 0.31907,0.333824 0.0539,1.103727 -0.58115,1.72285 -0.63503,0.61914 -1.41175,0.864993 -1.7381,0.538014 -0.32636,-0.326985 -0.0765,-1.106314 0.56871,-1.735227 0.64524,-0.628917 1.43145,-0.85948 1.75054,-0.525637 z m 36.4112,22.255582 c 2.98834,-2.379975 -0.10792,-7.003615 -4.90852,-11.716093 -4.75986,-4.672488 -11.23129,-9.13772 -13.44768,-12.001448 -4.28212,-5.532814 -11.17107,-21.027383 -2.7899,-34.587858 1.79095,-2.897718 -0.92639,-1.796997 -6.95505,4.267635 -5.83583,5.870637 -12.68228,14.609049 -18.08092,25.378045 -5.35105,10.674086 -8.37972,21.601502 -8.62281,30.633839 -0.23907,8.88286 2.23916,14.90012 7.03913,16.07102 5.139,-4.70269 11.78244,-12.21372 18.15818,-17.06328 -4.63358,5.68718 -10.646,11.89467 -14.65461,16.70052 2.87391,-0.51169 7.53266,-1.81004 15.19209,-4.92181 7.40184,-3.00712 16.96945,-7.64786 29.07009,-12.76057 z M 555.74614,75.069145 c 0.94295,1.047914 0.11774,3.319722 -1.74878,5.107855 -1.86682,1.788419 -4.17196,2.514394 -5.18117,1.527416 -1.00909,-0.986856 -0.31854,-3.341011 1.6408,-5.216466 1.9596,-1.875713 4.34601,-2.466927 5.28915,-1.418805 z m -2.43045,3.958993 c 0.31907,0.333824 0.0539,1.103727 -0.58115,1.72285 -0.63503,0.61914 -1.41175,0.864993 -1.7381,0.538014 -0.32636,-0.326985 -0.0765,-1.106314 0.56871,-1.735227 0.64524,-0.628917 1.43145,-0.85948 1.75054,-0.525637 z"
       style="fill:#cccccc;fill-opacity:1;fill-rule:nonzero;stroke:#000000;stroke-width:0.56666666;stroke-linecap:butt;stroke-linejoin:miter;stroke-miterlimit:4;stroke-dasharray:none;stroke-opacity:1" />
    <text
       id="text3070"
       y="187.97684"
       x="42.938457"
       style="font-style:normal;font-weight:normal;font-size:23.46666718px;font-family:'Bitstream Vera Sans';fill:#000000;fill-opacity:1;stroke:none;stroke-width:1.06666672px;stroke-linecap:butt;stroke-linejoin:miter;stroke-opacity:1"
       xml:space="preserve"><tspan
         style="stroke-width:1.06666672px"
         y="187.97684"
         x="42.938457"
         id="tspan3072"
         sodipodi:role="line">Transform shape </tspan><tspan
         style="stroke-width:1.06666672px"
         id="tspan3137"
         y="217.31017"
         x="42.938457"
         sodipodi:role="line">into single path</tspan></text>
    <path
       inkscape:connector-curvature="0"
       d="m 236.9781,301.02818 c 0,2.2181 0.70559,3.0409 1.49343,4.46362 -0.59546,2.51604 -0.97611,5.05153 1.12008,7.81136 -0.75142,2.04583 0.20666,4.09166 1.68009,6.13748 -0.2469,1.96285 1.0379,3.67135 2.24015,5.39356 0.216,2.23182 1.4024,4.46363 3.36021,6.69544 -17.73445,-5.57953 -18.91345,-19.20759 -21.65469,-21.76019 -1.45579,-1.35559 -3.03128,-1.19527 -4.15513,-2.89179 -1.12385,-1.69651 -1.79604,-5.24986 -2.93866,-5.84967 1.14262,-0.59981 1.81481,-4.15316 2.93866,-5.84969 1.12385,-1.69651 2.69934,-1.53618 4.15513,-2.89177 2.74124,-2.5526 3.92024,-16.18066 21.65469,-21.76019 -1.95781,2.2318 -3.14421,4.46362 -3.36021,6.69544 -1.20225,1.72221 -2.48705,3.43071 -2.24015,5.39355 -1.47343,2.04583 -2.43151,4.09166 -1.68009,6.13749 -2.09619,2.75983 -1.71554,5.29532 -1.12008,7.81135 -0.78784,1.42273 -1.49343,2.24553 -1.49343,4.46363 m -18.85453,-9.57821 c -0.54399,1.12008 -0.89776,2.51352 -0.97118,3.94306 m -3.63405,-7.11564 c -0.78399,1.73489 -1.33132,3.43898 -1.5087,5.07988 m -59.43599,-25.96293 c -4.69635,5.73633 -6.72702,11.99795 -8.14718,17.61184 m 63.10047,6.83564 c 0.31215,-2.23275 0.74861,-4.56473 1.99816,-6.7009 m -26.36961,0.54855 c 1.13015,-5.27994 2.95082,-11.06561 7.00726,-15.89498 m 0.22553,17.2281 c 1.05079,-4.38191 2.45208,-9.31287 5.59872,-13.90806 m 0.20552,15.3904 c 0.82201,-3.64434 2.25079,-7.6032 5.23357,-11.26877 m 1.09237,12.94785 c 0.69396,-3.40486 1.55774,-6.8818 3.10413,-9.43785 m -54.56694,3.2465 c 1.3761,-6.08125 3.28104,-12.55472 7.63081,-17.34065 m -1.92745,16.91854 c 1.38686,-5.49523 3.62774,-11.60617 8.54327,-17.38504 m -1.6457,17.33561 c 1.35952,-5.48797 3.42956,-11.59023 7.88723,-17.36344 m -0.8803,17.76732 c 1.36523,-5.53777 3.34829,-11.73071 7.62679,-17.53601 m 6.22672,1.14509 c -2.09205,2.10584 -5.42827,9.27395 -7.11244,17.13519 m -33.2073,31.41696 c -2.04418,-8.48946 -2.49908,-15.09273 -6.48514,-15.00973 4.13176,0.0861 4.192,-7.03613 6.71433,-16.07032 -1.17273,5.50414 -1.70103,11.39301 -0.0541,16.07032 -1.55669,4.30342 -1.4283,9.69738 -0.17511,15.00973 z m 72.9083,-10.34072 c -0.1281,-2.77652 0.0336,-4.76007 -3.01855,-4.66901 3.42433,0.10218 2.65655,-2.3998 3.06536,-5.68347 -0.024,2.2784 0.32793,4.54626 0.78452,5.68347 v 10e-6 c -0.39013,0.97169 -0.82036,2.76306 -0.83133,4.669 z m -5.19843,2.07292 c -0.49094,-4.55527 0.7455,-6.84388 -4.10701,-6.74193 5.18539,0.10894 3.2732,-2.58051 4.2095,-7.71923 -0.28359,3.59353 0.59481,6.60218 2.07739,7.71923 -1.34286,1.01177 -2.31665,3.63553 -2.17988,6.74193 z m -4.50292,1.51887 c -0.55223,-4.5411 -0.68061,-8.35091 -5.10014,-8.2608 4.73336,0.0965 4.45696,-4.2457 5.22285,-9.23468 -0.40339,3.46665 -0.37665,7.22052 0.2732,9.23468 -0.59001,1.8287 -0.74271,5.0612 -0.39591,8.2608 z m -24.40908,6.1538 c -1.61964,-7.97722 -1.78486,-14.4975 -5.7637,-14.4146 4.11917,0.0859 4.10248,-7.00363 5.92404,-15.38703 -1.07437,5.45029 -1.15546,11.14983 0.73108,15.38703 -1.80108,3.91652 -1.85398,9.20663 -0.89142,14.4146 z m 7.21339,-1.29387 c -1.72628,-7.52526 -2.17829,-13.20779 -6.32197,-13.12073 4.28772,0.09 4.40879,-6.17835 6.50171,-14.05391 -1.03168,5.62071 -1.40743,11.29204 0.2857,14.05391 -1.61017,2.48871 -1.54898,7.78712 -0.46544,13.12073 z m 5.79415,-1.48527 c -1.36398,-6.56272 -1.01038,-11.72371 -5.32871,-11.63546 4.48902,0.0917 3.99159,-5.60886 5.51854,-12.57157 -1.28894,4.72491 -1.63478,9.70664 0.14882,12.57157 -1.67942,2.55604 -1.41343,7.11298 -0.33865,11.63546 z m 6.10217,-1.6239 c -1.01802,-5.38566 -1.74421,-10.096 -5.76352,-10.01156 4.15246,0.0872 5.13839,-5.19822 6.17712,-10.89249 -1.04079,4.32038 -1.33369,8.77913 -0.21437,10.89249 -1.04854,1.82587 -0.9924,5.87091 -0.19923,10.01156 z m -51.24602,6.02956 c -1.87954,-8.64066 -2.63894,-16.12195 -6.48645,-16.04112 3.98313,0.0836 4.45123,-7.98641 6.68326,-17.08384 -0.97574,5.24635 -1.41373,11.19574 -0.27323,17.08384 -1.07599,5.44393 -0.93863,10.96973 0.0764,16.04112 z m 5.67589,0.4488 c -2.21818,-9.38107 -1.72848,-16.57694 -5.75231,-16.48992 4.14795,0.0897 3.3163,-7.65814 5.97659,-17.50595 -1.4788,6.07003 -1.99364,12.58103 0.43343,17.50595 -2.30866,4.56008 -2.12798,10.6343 -0.65771,16.48992 z m 6.91323,0.0679 c -2.21683,-9.43036 -2.10072,-16.64516 -6.25552,-16.55787 4.27626,0.0898 3.84369,-7.6816 6.46414,-17.55538 -1.34501,6.09671 -1.85204,12.63818 0.22779,17.55538 -1.97825,4.55269 -1.79039,10.67924 -0.43641,16.55787 z m 7.01286,-0.38976 c -2.16953,-9.20565 -2.41616,-16.25433 -6.57645,-16.16811 4.28645,0.0888 4.21445,-7.50766 6.77914,-17.1515 -1.25794,5.95561 -1.8011,12.298 -0.0872,17.1515 -1.63177,4.49801 -1.40964,10.43608 -0.1155,16.16811 z m 6.75407,-0.74679 c -2.02813,-8.71298 -2.60721,-15.50602 -6.63857,-15.42132 4.16265,0.0875 4.48179,-7.27426 6.82826,-16.40724 -1.07227,5.6555 -1.50087,11.666 -0.17313,16.40724 -1.26125,4.38407 -1.09028,10.0072 -0.0165,15.42132 z m 39.89069,-10.75231 c -0.01,1.7421 0.3494,3.58087 1.01799,4.95751 m -6.21642,-2.88459 c 0.0842,1.91191 0.6677,3.96934 1.61119,6.05718 m -3.99324,3.13647 c -1.4337,-2.45099 -1.81556,-5.16413 -2.12087,-7.67478 m -1.78164,12.06954 c -2.13041,-2.94753 -2.84883,-6.78007 -3.51773,-10.31878 m -0.67877,13.82879 c -3.19864,-4.04216 -4.6245,-8.36105 -5.4234,-12.20489 m -5.79415,1.48527 c 1.28542,6.32733 3.92825,12.7255 5.77846,14.84124 m -5.82425,3.32004 c -4.2757,-5.21321 -6.05369,-11.38111 -7.1676,-16.86741 m -5.78026,1.00672 c 1.6284,8.21101 5.13474,15.93943 7.30213,18.12111 m -6.22672,1.14509 c -4.49743,-6.21803 -6.47787,-12.78432 -7.82948,-18.51941 m 1.08299,18.75071 c -4.68477,-6.18069 -6.75905,-12.6742 -8.09585,-18.36095 m 1.85432,18.33311 c -5.17825,-6.20167 -7.41897,-12.69767 -8.76755,-18.40106 m 2.15173,17.93457 c -4.57011,-5.15563 -6.45359,-12.06658 -7.82762,-18.38337 m -6.66156,-1.0314 c 1.40226,5.82363 3.41566,12.4906 8.37637,18.67244 m 84.77781,-53.81681 c 2.6135,-2.78977 6.16039,-3.71969 6.16039,-3.71969 m -10.08064,9.48522 c 3.17354,-2.78977 7.84049,-4.09167 7.84049,-4.09167 m -10.82735,11.34506 c 4.29361,-4.8356 9.14726,-5.20757 9.14726,-5.20757 m -11.3874,10.04317 c 5.41369,-2.23182 10.26732,-2.23182 10.26732,-2.23182 m -1.12007,24.55034 c 2.6135,2.78977 6.16039,3.71969 6.16039,3.71969 m -10.08064,-9.48522 c 3.17354,2.78977 7.84049,4.09166 7.84049,4.09166 m -10.82735,-11.34506 c 4.29361,4.83561 9.14726,5.20758 9.14726,5.20758 m -11.3874,-10.04317 c 5.41369,2.23181 10.26732,2.23181 10.26732,2.23181 M 129.63799,290.14771 c 0,0.46199 -0.33453,0.83693 -0.74672,0.83693 -0.41218,0 -0.7467,-0.37494 -0.7467,-0.83693 0,-0.46199 0.33452,-0.83693 0.7467,-0.83693 0.41219,0 0.74672,0.37494 0.74672,0.83693 z m 7.00044,40.7306 c 5.04032,-0.093 0,-22.7831 0,-30.0365 0,-7.25339 2.06755,-23.02529 7.65383,-30.22248 5.68086,-7.31907 -36.60362,16.99572 -33.50878,35.98801 3.45354,1.95284 8.68054,2.97575 12.88081,4.55662 -3.92026,0.27897 -8.49388,-0.92992 -11.76075,-1.76686 1.86679,3.90568 8.40053,14.69278 24.73489,21.48121 z m -4.94696,-41.98599 c 0,1.41163 -0.98268,2.55729 -2.19348,2.55729 -1.21079,0 -2.19347,-1.14566 -2.19347,-2.55729 0,-1.41162 0.98268,-2.55728 2.19347,-2.55728 1.2108,0 2.19348,1.14566 2.19348,2.55728 z m -2.05348,1.25539 c 0,0.46199 -0.33453,0.83693 -0.74672,0.83693 -0.41218,0 -0.7467,-0.37494 -0.7467,-0.83693 0,-0.46199 0.33452,-0.83693 0.7467,-0.83693 0.41219,0 0.74672,0.37494 0.74672,0.83693 z"
       style="fill:#b3b3b3;fill-rule:evenodd;stroke:#000000;stroke-width:0.56666666;stroke-linecap:butt;stroke-linejoin:miter;stroke-miterlimit:4;stroke-opacity:1"
       id="path3076" />
    <text
       id="text3121"
       y="397.61752"
       x="166.70224"
       style="font-style:normal;font-weight:normal;font-size:23.46666718px;font-family:'Bitstream Vera Sans';fill:#000000;fill-opacity:1;stroke:none;stroke-width:1.06666672px;stroke-linecap:butt;stroke-linejoin:miter;stroke-opacity:1"
       xml:space="preserve"><tspan
         style="stroke-width:1.06666672px"
         y="397.61752"
         x="166.70224"
         id="tspan3123"
         sodipodi:role="line">Copy to clipboard</tspan><tspan
         style="font-size:12.80000019px;stroke-width:1.06666672px"
         id="tspan3143"
         y="426.95087"
         x="166.70224"
         sodipodi:role="line">(it is easiest later on to move the nose</tspan><tspan
         style="font-size:12.80000019px;stroke-width:1.06666672px"
         id="tspan3145"
         y="456.28418"
         x="166.70224"
         sodipodi:role="line">of the fish to the top-left corner of the </tspan><tspan
         id="tspan3153"
         style="font-size:12.80000019px;stroke-width:1.06666672px"
         y="485.61752"
         x="166.70224"
         sodipodi:role="line">document (0,0) before copying to the </tspan><tspan
         id="tspan3163"
         style="font-size:12.80000019px;stroke-width:1.06666672px"
         y="514.95087"
         x="166.70224"
         sodipodi:role="line">clipboard, so you don't have to manually </tspan><tspan
         id="tspan3169"
         style="font-size:12.80000019px;stroke-width:1.06666672px"
         y="544.28418"
         x="166.70224"
         sodipodi:role="line">tweak the origin parameter)</tspan></text>
    <path
       inkscape:connector-curvature="0"
       id="path3125"
       d="m 471.06011,330.68404 c 69.45926,-60.61899 140.18141,-59.3561 191.96015,6.31449"
       style="fill:none;fill-rule:evenodd;stroke:#000000;stroke-width:1.06666672px;stroke-linecap:butt;stroke-linejoin:miter;stroke-opacity:1" />
    <text
       id="text3127"
       y="388.77725"
       x="463.48273"
       style="font-style:normal;font-weight:normal;font-size:23.46666718px;font-family:'Bitstream Vera Sans';fill:#000000;fill-opacity:1;stroke:none;stroke-width:1.06666672px;stroke-linecap:butt;stroke-linejoin:miter;stroke-opacity:1"
       xml:space="preserve"><tspan
         style="stroke-width:1.06666672px"
         y="388.77725"
         x="463.48273"
         id="tspan3129"
         sodipodi:role="line">Draw the skeleton path</tspan></text>
    <text
       id="text3131"
       y="182.92525"
       x="390.23477"
       style="font-style:normal;font-weight:normal;font-size:23.46666718px;font-family:'Bitstream Vera Sans';fill:#000000;fill-opacity:1;stroke:none;stroke-width:1.06666672px;stroke-linecap:butt;stroke-linejoin:miter;stroke-opacity:1"
       xml:space="preserve"><tspan
         style="stroke-width:1.06666672px"
         y="182.92525"
         x="390.23477"
         id="tspan3133"
         sodipodi:role="line">Press Ctrl-Shift-7 and apply </tspan><tspan
         style="stroke-width:1.06666672px"
         id="tspan3171"
         y="212.25858"
         x="390.23477"
         sodipodi:role="line">Skeletal Strokes to the skeleton path.</tspan><tspan
         style="stroke-width:1.06666672px"
         id="tspan3135"
         y="241.59192"
         x="390.23477"
         sodipodi:role="line">Press the paste button next to &quot;pattern&quot;</tspan></text>
    <g
       id="g3179">
      <ellipse
         ry="37.255424"
         rx="40.412663"
         cy="193.65985"
         cx="13.891851"
         style="fill:none;fill-opacity:1;fill-rule:nonzero;stroke:#0000ff;stroke-width:0.56666666;stroke-miterlimit:4;stroke-dasharray:none;stroke-opacity:1"
         id="path3177" />
      <text
         xml:space="preserve"
         style="font-style:normal;font-weight:normal;font-size:23.46666718px;font-family:'Bitstream Vera Sans';fill:#0000ff;fill-opacity:1;stroke:none;stroke-width:1.06666672px;stroke-linecap:butt;stroke-linejoin:miter;stroke-opacity:1"
         x="1.2628939"
         y="209.44606"
         id="text3173"><tspan
           sodipodi:role="line"
           id="tspan3175"
           x="1.2628939"
           y="209.44606"
           style="font-weight:bold;font-size:42.66666794px;writing-mode:lr-tb;fill:#0000ff;stroke-width:1.06666672px">1</tspan></text>
    </g>
    <ellipse
       ry="37.255424"
       rx="40.412663"
       cy="418.45529"
       cx="150.28459"
       style="fill:none;fill-opacity:1;fill-rule:nonzero;stroke:#0000ff;stroke-width:0.56666666;stroke-miterlimit:4;stroke-dasharray:none;stroke-opacity:1"
       id="path3186" />
    <text
       xml:space="preserve"
       style="font-style:normal;font-weight:normal;font-size:23.46666718px;font-family:'Bitstream Vera Sans';fill:#0000ff;fill-opacity:1;stroke:none;stroke-width:1.06666672px;stroke-linecap:butt;stroke-linejoin:miter;stroke-opacity:1"
       x="137.65564"
       y="434.24152"
       id="text3188"><tspan
         sodipodi:role="line"
         id="tspan3190"
         x="137.65564"
         y="434.24152"
         style="font-weight:bold;font-size:42.66666794px;writing-mode:lr-tb;fill:#0000ff;stroke-width:1.06666672px">2</tspan></text>
    <text
       id="text3213"
       y="-46.921776"
       x="482.42618"
       style="font-style:normal;font-weight:normal;font-size:23.46666718px;font-family:'Bitstream Vera Sans';fill:#000000;fill-opacity:1;stroke:none;stroke-width:1.06666672px;stroke-linecap:butt;stroke-linejoin:miter;stroke-opacity:1"
       xml:space="preserve"><tspan
         style="stroke-width:1.06666672px"
         y="-46.921776"
         x="482.42618"
         id="tspan3215"
         sodipodi:role="line">Press F2 and notice that the </tspan><tspan
         style="stroke-width:1.06666672px"
         id="tspan3217"
         y="-17.588442"
         x="482.42618"
         sodipodi:role="line">red skeleton path is live </tspan><tspan
         style="stroke-width:1.06666672px"
         id="tspan3219"
         y="11.744892"
         x="482.42618"
         sodipodi:role="line">edittable on-canvas</tspan></text>
    <g
       transform="translate(454.64246,-194.48594)"
       id="g3221">
      <ellipse
         ry="37.255424"
         rx="40.412663"
         cy="193.65985"
         cx="13.891851"
         id="path3223"
         style="fill:none;fill-opacity:1;fill-rule:nonzero;stroke:#0000ff;stroke-width:0.56666666;stroke-miterlimit:4;stroke-dasharray:none;stroke-opacity:1" />
      <text
         id="text3225"
         y="209.44606"
         x="1.2628939"
         style="font-style:normal;font-weight:normal;font-size:23.46666718px;font-family:'Bitstream Vera Sans';fill:#0000ff;fill-opacity:1;stroke:none;stroke-width:1.06666672px;stroke-linecap:butt;stroke-linejoin:miter;stroke-opacity:1"
         xml:space="preserve"><tspan
           style="font-weight:bold;font-size:42.66666794px;writing-mode:lr-tb;fill:#0000ff;stroke-width:1.06666672px"
           y="209.44606"
           x="1.2628939"
           id="tspan3227"
           sodipodi:role="line">5</tspan></text>
    </g>
  </g>
</svg>
