<?xml version="1.0" encoding="UTF-8" standalone="no"?>
<!-- Created with Inkscape (http://www.inkscape.org/) -->
<svg
   xmlns:dc="http://purl.org/dc/elements/1.1/"
   xmlns:cc="http://creativecommons.org/ns#"
   xmlns:rdf="http://www.w3.org/1999/02/22-rdf-syntax-ns#"
   xmlns:svg="http://www.w3.org/2000/svg"
   xmlns="http://www.w3.org/2000/svg"
   xmlns:xlink="http://www.w3.org/1999/xlink"
   xmlns:sodipodi="http://sodipodi.sourceforge.net/DTD/sodipodi-0.dtd"
   xmlns:inkscape="http://www.inkscape.org/namespaces/inkscape"
   width="744.09448819"
   height="1052.3622047"
   id="svg2"
   sodipodi:version="0.32"
   inkscape:version="0.46dev+devel"
   sodipodi:docname="live-path-effects-gears.svg"
   inkscape:output_extension="org.inkscape.output.svg.inkscape">
  <defs
     id="defs4">
    <inkscape:path-effect
       effect="gears"
       id="path-effect2210"
       phi="20"
       teeth="10" />
  </defs>
  <sodipodi:namedview
     id="base"
     pagecolor="#ffffff"
     bordercolor="#666666"
     borderopacity="1.0"
     gridtolerance="10000"
     guidetolerance="10"
     objecttolerance="10"
     inkscape:pageopacity="0.0"
     inkscape:pageshadow="2"
     inkscape:zoom="0.98994949"
     inkscape:cx="317.20474"
     inkscape:cy="868.11317"
     inkscape:document-units="px"
     inkscape:current-layer="layer1"
     inkscape:window-width="1152"
     inkscape:window-height="808"
     inkscape:window-x="-4"
     inkscape:window-y="-4" />
  <metadata
     id="metadata7">
    <rdf:RDF>
      <cc:Work
         rdf:about="">
        <dc:format>image/svg+xml</dc:format>
        <dc:type
           rdf:resource="http://purl.org/dc/dcmitype/StillImage" />
      </cc:Work>
    </rdf:RDF>
  </metadata>
  <g
     inkscape:label="Layer 1"
     inkscape:groupmode="layer"
     id="layer1">
    <path
       style="fill:none;fill-rule:evenodd;stroke:#008000;stroke-width:0.99999987999999995px;stroke-linecap:butt;stroke-linejoin:miter;stroke-opacity:1"
       d="M 188.451,150.115 C 188.451,150.115 187.467,149.085 186.466,146.531 C 185.466,143.977 184.47,139.893 184.6,134.408 C 186.335,133.096 188.135,131.868 189.99,130.732 C 195.144,132.613 198.583,135.031 200.595,136.895 C 202.607,138.759 203.207,140.051 203.207,140.051 L 206.417,147.113 C 210.25,145.371 214.333,144.177 218.501,143.581 L 217.402,135.901 C 217.402,135.901 217.211,134.49 217.903,131.836 C 218.594,129.181 220.189,125.292 223.518,120.931 C 225.693,120.889 227.871,120.954 230.04,121.125 C 233.103,125.676 234.464,129.654 234.997,132.345 C 235.529,135.035 235.255,136.433 235.255,136.433 L 233.701,144.033 C 237.826,144.877 241.83,146.311 245.553,148.278 L 249.178,141.419 C 249.178,141.419 249.853,140.166 251.973,138.425 C 254.092,136.684 257.669,134.475 262.925,132.903 C 264.71,134.148 266.433,135.481 268.088,136.894 C 267.891,142.377 266.654,146.394 265.503,148.884 C 264.352,151.374 263.309,152.344 263.309,152.344 L 257.584,157.579 C 260.426,160.686 262.822,164.2 264.678,167.98 L 271.642,164.561 C 271.642,164.561 272.925,163.944 275.663,163.781 C 278.401,163.619 282.593,163.934 287.769,165.752 C 288.481,167.808 289.092,169.899 289.6,172.015 C 286.218,176.335 282.856,178.858 280.461,180.196 C 278.067,181.534 276.653,181.705 276.653,181.705 L 268.944,182.575 C 269.417,186.76 269.29,191.011 268.57,195.16 L 276.213,196.487 C 276.213,196.487 277.614,196.742 279.925,198.22 C 282.236,199.698 285.442,202.417 288.56,206.93 C 287.928,209.012 287.193,211.063 286.36,213.073 C 281.085,214.58 276.882,214.645 274.158,214.32 C 271.435,213.995 270.19,213.303 270.19,213.303 L 263.442,209.476 C 261.365,213.138 258.764,216.503 255.742,219.436 L 261.145,225.003 C 261.145,225.003 262.129,226.033 263.13,228.587 C 264.131,231.14 265.126,235.225 264.996,240.709 C 263.261,242.022 261.461,243.249 259.606,244.386 C 254.453,242.504 251.014,240.086 249.001,238.223 C 246.989,236.359 246.389,235.067 246.389,235.067 L 243.18,228.004 C 239.346,229.747 235.264,230.94 231.095,231.537 L 232.195,239.216 C 232.195,239.216 232.385,240.627 231.694,243.282 C 231.002,245.936 229.407,249.826 226.078,254.186 C 223.903,254.228 221.725,254.163 219.556,253.992 C 216.493,249.441 215.132,245.464 214.599,242.773 C 214.067,240.082 214.341,238.684 214.341,238.684 L 215.896,231.084 C 211.77,230.24 207.766,228.806 204.043,226.839 L 200.419,233.698 C 200.419,233.698 199.743,234.952 197.624,236.693 C 195.504,238.434 191.927,240.643 186.671,242.214 C 184.886,240.969 183.163,239.637 181.509,238.223 C 181.705,232.741 182.942,228.723 184.093,226.233 C 185.244,223.743 186.287,222.774 186.287,222.774 L 192.012,217.539 C 189.171,214.431 186.774,210.917 184.918,207.137 L 177.955,210.556 C 177.955,210.556 176.671,211.174 173.933,211.336 C 171.195,211.499 167.003,211.183 161.827,209.365 C 161.115,207.309 160.504,205.218 159.996,203.102 C 163.378,198.783 166.74,196.259 169.135,194.921 C 171.529,193.583 172.943,193.412 172.943,193.412 L 180.652,192.542 C 180.18,188.358 180.306,184.106 181.027,179.958 L 173.383,178.63 C 173.383,178.63 171.982,178.375 169.671,176.897 C 167.361,175.419 164.155,172.7 161.036,168.187 C 161.668,166.105 162.403,164.054 163.236,162.044 C 168.511,160.537 172.714,160.472 175.438,160.797 C 178.162,161.122 179.406,161.815 179.406,161.815 L 186.154,165.642 C 188.231,161.979 190.833,158.614 193.854,155.681 L 188.451,150.115 M 278.465,232.789 C 278.465,232.789 277.085,233.029 274.495,232.351 C 271.906,231.674 268.117,230.05 264.003,226.623 C 263.952,224.62 264.01,222.614 264.175,220.617 C 268.478,217.431 272.354,216.027 274.978,215.499 C 277.602,214.971 278.967,215.289 278.967,215.289 L 287.153,217.291 C 288.11,213.376 289.786,209.638 292.071,206.318 L 285.129,201.54 C 285.129,201.54 283.983,200.733 282.631,198.423 C 281.279,196.112 279.748,192.286 279.263,186.954 C 280.643,185.501 282.102,184.123 283.631,182.828 C 288.927,183.618 292.66,185.366 294.889,186.848 C 297.118,188.33 297.858,189.52 297.858,189.52 L 302.23,196.724 C 305.676,194.633 309.504,193.174 313.467,192.442 L 311.937,184.155 C 311.937,184.155 311.697,182.774 312.375,180.185 C 313.053,177.595 314.676,173.806 318.103,169.693 C 320.106,169.642 322.112,169.699 324.109,169.865 C 327.295,174.168 328.699,178.043 329.227,180.667 C 329.756,183.292 329.438,184.656 329.438,184.656 L 327.435,192.842 C 331.35,193.8 335.089,195.475 338.409,197.76 L 343.187,190.818 C 343.187,190.818 343.993,189.672 346.304,188.32 C 348.614,186.968 352.441,185.437 357.773,184.952 C 359.226,186.332 360.603,187.791 361.898,189.32 C 361.108,194.616 359.361,198.349 357.879,200.578 C 356.397,202.808 355.207,203.547 355.207,203.547 L 348.003,207.92 C 350.094,211.365 351.553,215.193 352.285,219.157 L 360.572,217.626 C 360.572,217.626 361.952,217.386 364.542,218.064 C 367.132,218.742 370.92,220.365 375.034,223.792 C 375.085,225.796 375.027,227.802 374.862,229.799 C 370.559,232.984 366.683,234.388 364.059,234.917 C 361.435,235.445 360.071,235.127 360.071,235.127 L 351.884,233.124 C 350.927,237.04 349.251,240.778 346.966,244.098 L 353.909,248.876 C 353.909,248.876 355.054,249.682 356.406,251.993 C 357.758,254.303 359.289,258.13 359.775,263.462 C 358.394,264.915 356.935,266.293 355.406,267.588 C 350.111,266.798 346.378,265.05 344.148,263.568 C 341.919,262.086 341.179,260.896 341.179,260.896 L 336.807,253.692 C 333.361,255.783 329.533,257.242 325.57,257.974 L 327.1,266.261 C 327.1,266.261 327.34,267.641 326.662,270.231 C 325.984,272.821 324.361,276.609 320.934,280.723 C 318.931,280.774 316.925,280.717 314.928,280.551 C 311.742,276.248 310.338,272.373 309.81,269.748 C 309.281,267.124 309.6,265.76 309.6,265.76 L 311.602,257.574 C 307.687,256.616 303.949,254.941 300.628,252.656 L 295.851,259.598 C 295.851,259.598 295.044,260.743 292.734,262.095 C 290.423,263.447 286.596,264.978 281.264,265.464 C 279.812,264.084 278.434,262.625 277.139,261.095 C 277.929,255.8 279.677,252.067 281.159,249.838 C 282.641,247.608 283.83,246.869 283.83,246.869 L 291.035,242.496 C 288.943,239.051 287.485,235.222 286.753,231.259 L 278.465,232.789 M 354.925,184.821 C 354.925,184.821 353.539,185.28 350.716,185.163 C 347.894,185.046 343.635,184.334 338.452,182.084 C 337.939,179.844 337.526,177.58 337.213,175.303 C 341.268,171.367 344.999,169.196 347.598,168.088 C 350.198,166.981 351.656,166.921 351.656,166.921 L 358.739,166.674 C 358.59,162.382 358.941,158.073 359.782,153.862 L 352.831,152.474 C 352.831,152.474 351.402,152.179 349.016,150.666 C 346.63,149.153 343.298,146.407 339.934,141.867 C 340.61,139.67 341.384,137.503 342.252,135.375 C 347.731,133.993 352.048,133.979 354.853,134.319 C 357.658,134.66 358.951,135.337 358.951,135.337 L 365.209,138.665 C 367.225,134.874 369.683,131.317 372.517,128.091 L 367.192,123.413 C 367.192,123.413 366.102,122.443 364.792,119.94 C 363.482,117.436 361.97,113.393 361.326,107.779 C 363.01,106.214 364.763,104.725 366.579,103.316 C 372.016,104.859 375.761,107.005 378.02,108.702 C 380.279,110.4 381.06,111.632 381.06,111.632 L 384.815,117.643 C 388.457,115.368 392.364,113.517 396.432,112.14 L 394.159,105.427 C 394.159,105.427 393.7,104.041 393.817,101.218 C 393.934,98.3955 394.646,94.1374 396.896,88.9536 C 399.136,88.4408 401.4,88.0275 403.677,87.7152 C 407.614,91.7695 409.785,95.5011 410.892,98.1004 C 411.999,100.7 412.059,102.158 412.059,102.158 L 412.306,109.241 C 416.598,109.092 420.907,109.443 425.118,110.284 L 426.507,103.333 C 426.507,103.333 426.802,101.904 428.315,99.5179 C 429.828,97.1318 432.573,93.8002 437.113,90.4355 C 439.31,91.1118 441.477,91.8856 443.605,92.7539 C 444.987,98.2331 445.001,102.55 444.661,105.355 C 444.32,108.16 443.643,109.453 443.643,109.453 L 440.315,115.71 C 444.106,117.727 447.663,120.185 450.889,123.019 L 455.567,117.694 C 455.567,117.694 456.537,116.604 459.04,115.294 C 461.544,113.984 465.587,112.471 471.201,111.828 C 472.766,113.512 474.255,115.265 475.665,117.081 C 474.122,122.517 471.975,126.263 470.278,128.522 C 468.581,130.781 467.348,131.562 467.348,131.562 L 461.337,135.317 C 463.612,138.959 465.463,142.866 466.84,146.934 L 473.553,144.661 C 473.553,144.661 474.939,144.202 477.762,144.319 C 480.585,144.436 484.843,145.148 490.027,147.398 C 490.539,149.638 490.953,151.902 491.265,154.179 C 487.211,158.116 483.479,160.287 480.88,161.394 C 478.28,162.501 476.822,162.561 476.822,162.561 L 469.739,162.808 C 469.888,167.1 469.538,171.409 468.696,175.62 L 475.647,177.009 C 475.647,177.009 477.076,177.304 479.462,178.817 C 481.848,180.329 485.18,183.075 488.545,187.615 C 487.868,189.812 487.095,191.979 486.226,194.107 C 480.747,195.489 476.43,195.503 473.625,195.163 C 470.82,194.822 469.527,194.145 469.527,194.145 L 463.27,190.817 C 461.253,194.608 458.795,198.165 455.961,201.391 L 461.286,206.069 C 461.286,206.069 462.376,207.039 463.686,209.542 C 464.996,212.046 466.509,216.089 467.153,221.703 C 465.468,223.268 463.715,224.757 461.899,226.167 C 456.463,224.624 452.717,222.477 450.458,220.78 C 448.199,219.083 447.418,217.85 447.418,217.85 L 443.663,211.839 C 440.021,214.114 436.114,215.965 432.046,217.342 L 434.319,224.055 C 434.319,224.055 434.778,225.441 434.661,228.264 C 434.544,231.087 433.832,235.345 431.582,240.529 C 429.342,241.041 427.078,241.455 424.801,241.767 C 420.865,237.713 418.694,233.981 417.586,231.382 C 416.479,228.782 416.419,227.324 416.419,227.324 L 416.172,220.241 C 411.88,220.39 407.571,220.04 403.36,219.198 L 401.972,226.149 C 401.972,226.149 401.677,227.578 400.164,229.964 C 398.651,232.35 395.905,235.682 391.365,239.047 C 389.168,238.37 387.001,237.596 384.873,236.728 C 383.491,231.249 383.477,226.932 383.817,224.127 C 384.158,221.322 384.835,220.029 384.835,220.029 L 388.163,213.772 C 384.372,211.755 380.815,209.297 377.589,206.463 L 372.911,211.788 C 372.911,211.788 371.941,212.878 369.438,214.188 C 366.934,215.498 362.891,217.011 357.277,217.655 C 355.712,215.97 354.223,214.217 352.814,212.401 C 354.357,206.965 356.503,203.219 358.2,200.96 C 359.898,198.701 361.13,197.92 361.13,197.92 L 367.142,194.165 C 364.866,190.523 363.015,186.616 361.638,182.548 L 354.925,184.821 M 490.894,190.98 C 490.894,190.98 490.184,189.682 489.755,186.844 C 489.326,184.006 489.195,179.627 490.37,174.008 C 492.521,173.065 494.712,172.214 496.934,171.457 C 501.595,174.808 504.456,178.127 506.055,180.51 C 507.655,182.893 508.008,184.33 508.008,184.33 L 509.579,190.898 C 513.774,189.894 518.076,189.336 522.389,189.237 L 522.234,182.486 C 522.234,182.486 522.208,181.006 523.147,178.294 C 524.086,175.581 526.005,171.643 529.657,167.214 C 531.999,167.379 534.335,167.643 536.655,168.006 C 539.224,173.139 540.215,177.407 540.524,180.261 C 540.833,183.114 540.477,184.551 540.477,184.551 L 538.816,191.096 C 542.998,192.157 547.066,193.662 550.931,195.579 L 553.931,189.529 C 553.931,189.529 554.596,188.207 556.688,186.241 C 558.78,184.276 562.309,181.681 567.601,179.456 C 569.598,180.691 571.543,182.01 573.429,183.409 C 573.319,189.149 572.212,193.388 571.16,196.058 C 570.107,198.728 569.125,199.835 569.125,199.835 L 564.613,204.859 C 567.822,207.742 570.725,210.965 573.256,214.458 L 578.724,210.495 C 578.724,210.495 579.927,209.634 582.693,208.865 C 585.459,208.097 589.79,207.44 595.51,207.929 C 596.704,209.951 597.813,212.023 598.833,214.138 C 596.068,219.169 593.118,222.408 590.945,224.283 C 588.772,226.159 587.388,226.682 587.388,226.682 L 581.058,229.034 C 582.56,233.077 583.633,237.281 584.251,241.55 L 590.934,240.582 C 590.934,240.582 592.4,240.378 595.206,240.983 C 598.011,241.589 602.152,243.019 606.989,246.111 C 607.108,248.456 607.127,250.806 607.047,253.153 C 602.26,256.322 598.143,257.82 595.348,258.47 C 592.552,259.121 591.083,258.941 591.083,258.941 L 584.385,258.082 C 583.836,262.36 582.832,266.581 581.396,270.648 L 587.763,272.897 C 587.763,272.897 589.156,273.398 591.359,275.237 C 593.562,277.077 596.564,280.268 599.41,285.254 C 598.425,287.385 597.35,289.475 596.188,291.516 C 590.477,292.098 586.136,291.51 583.358,290.787 C 580.58,290.064 579.363,289.222 579.363,289.222 L 573.832,285.349 C 571.357,288.882 568.507,292.152 565.345,295.087 L 569.938,300.037 C 569.938,300.037 570.938,301.127 572.034,303.78 C 573.13,306.433 574.305,310.654 574.509,316.391 C 572.646,317.82 570.723,319.171 568.746,320.438 C 563.418,318.3 559.847,315.762 557.723,313.831 C 555.6,311.9 554.914,310.589 554.914,310.589 L 551.816,304.588 C 547.983,306.567 543.939,308.138 539.776,309.267 L 541.542,315.784 C 541.542,315.784 541.921,317.215 541.659,320.073 C 541.396,322.931 540.475,327.214 537.989,332.389 C 535.676,332.789 533.345,333.091 531.006,333.295 C 527.282,328.925 525.299,325.019 524.316,322.322 C 523.333,319.625 523.335,318.145 523.335,318.145 L 523.381,311.392 C 519.067,311.363 514.757,310.875 510.546,309.94 L 509.081,316.532 C 509.081,316.532 508.752,317.974 507.191,320.383 C 505.63,322.792 502.824,326.157 498.218,329.583 C 495.984,328.862 493.779,328.047 491.614,327.14 C 490.347,321.54 490.407,317.16 490.79,314.315 C 491.173,311.47 491.862,310.161 491.862,310.161 L 495.041,304.203 C 491.235,302.172 487.645,299.737 484.351,296.952 L 479.99,302.108 C 479.99,302.108 479.028,303.232 476.527,304.64 C 474.025,306.048 469.977,307.723 464.307,308.616 C 462.663,306.94 461.09,305.193 459.594,303.383 C 461.075,297.837 463.163,293.986 464.825,291.645 C 466.486,289.304 467.704,288.465 467.704,288.465 L 473.288,284.666 C 470.861,281.1 468.814,277.275 467.192,273.278 L 460.935,275.817 C 460.935,275.817 459.561,276.366 456.691,276.45 C 453.822,276.534 449.459,276.136 444.023,274.292 C 443.347,272.043 442.766,269.766 442.282,267.468 C 446.171,263.245 449.81,260.806 452.369,259.505 C 454.927,258.204 456.397,258.027 456.397,258.027 L 463.106,257.259 C 462.615,252.973 462.579,248.635 463.001,244.342 L 456.28,243.683 C 456.28,243.683 454.808,243.53 452.229,242.271 C 449.649,241.011 445.971,238.632 442.014,234.472 C 442.461,232.167 443.005,229.881 443.644,227.621 C 449.05,225.689 453.406,225.22 456.276,225.258 C 459.146,225.295 460.529,225.821 460.529,225.821 L 466.827,228.259 C 468.384,224.236 470.368,220.378 472.737,216.773 L 467.092,213.066 C 467.092,213.066 465.86,212.246 464.161,209.932 C 462.462,207.619 460.311,203.802 458.741,198.281 C 460.207,196.447 461.751,194.675 463.368,192.972 C 469.052,193.773 473.127,195.382 475.651,196.749 C 478.175,198.116 479.155,199.225 479.155,199.225 L 483.599,204.309 C 486.847,201.471 490.397,198.978 494.169,196.886 L 490.894,190.98 M 505.579,326.493 C 505.579,326.493 505.677,325.055 506.866,322.54 C 508.056,320.024 510.356,316.441 514.437,312.657 C 516.646,313.04 518.837,313.526 521.001,314.112 C 523.101,319.266 523.671,323.486 523.686,326.268 C 523.702,329.051 523.182,330.395 523.182,330.395 L 520.458,337.299 C 524.422,338.864 528.184,340.937 531.624,343.454 L 536.007,337.463 C 536.007,337.463 536.865,336.306 539.226,334.833 C 541.587,333.36 545.459,331.59 550.938,330.613 C 552.59,332.129 554.17,333.722 555.673,335.385 C 554.653,340.856 552.852,344.714 551.361,347.064 C 549.869,349.413 548.706,350.263 548.706,350.263 L 542.681,354.598 C 545.17,358.057 547.214,361.836 548.747,365.812 L 555.673,363.142 C 555.673,363.142 557.02,362.633 559.803,362.67 C 562.585,362.708 566.8,363.311 571.937,365.452 C 572.507,367.62 572.975,369.815 573.341,372.027 C 569.525,376.078 565.923,378.35 563.399,379.519 C 560.874,380.689 559.436,380.775 559.436,380.775 L 552.023,381.165 C 552.247,385.421 551.924,389.705 551.064,393.878 L 558.334,395.377 C 558.334,395.377 559.743,395.677 562.063,397.213 C 564.384,398.749 567.603,401.535 570.768,406.113 C 570.075,408.245 569.282,410.345 568.393,412.403 C 562.993,413.748 558.735,413.712 555.979,413.331 C 553.222,412.951 551.966,412.245 551.966,412.245 L 545.52,408.566 C 543.407,412.267 540.819,415.696 537.839,418.742 L 543.145,423.933 C 543.145,423.933 544.167,424.948 545.289,427.494 C 546.411,430.041 547.613,434.125 547.8,439.687 C 546.065,441.106 544.263,442.444 542.402,443.695 C 537.132,441.907 533.57,439.575 531.457,437.764 C 529.344,435.954 528.668,434.681 528.668,434.681 L 525.234,428.1 C 521.456,430.072 517.425,431.557 513.271,432.509 L 514.928,439.744 C 514.928,439.744 515.24,441.151 514.807,443.9 C 514.374,446.648 513.177,450.734 510.327,455.515 C 508.1,455.77 505.861,455.921 503.619,455.968 C 500.153,451.614 498.417,447.727 497.618,445.061 C 496.819,442.395 496.939,440.96 496.939,440.96 L 497.608,433.567 C 493.364,433.183 489.169,432.253 485.161,430.808 L 482.643,437.791 C 482.643,437.791 482.145,439.142 480.295,441.221 C 478.444,443.299 475.228,446.089 470.246,448.57 C 468.235,447.581 466.269,446.497 464.358,445.325 C 463.795,439.788 464.437,435.579 465.206,432.905 C 465.975,430.23 466.852,429.087 466.852,429.087 L 471.412,423.23 C 468.049,420.612 465.023,417.563 462.432,414.179 L 456.539,418.692 C 456.539,418.692 455.389,419.56 452.709,420.308 C 450.029,421.057 445.815,421.665 440.282,421.059 C 439.125,419.139 438.057,417.165 437.083,415.145 C 439.604,410.183 442.419,406.989 444.512,405.155 C 446.605,403.321 447.96,402.834 447.96,402.834 L 454.963,400.371 C 453.549,396.351 452.652,392.149 452.302,387.902 L 444.904,388.513 C 444.904,388.513 443.468,388.621 440.808,387.802 C 438.149,386.982 434.275,385.216 429.949,381.715 C 430.013,379.474 430.182,377.236 430.455,375.01 C 435.258,372.199 439.353,371.034 442.105,370.622 C 444.857,370.211 446.261,370.534 446.261,370.534 L 453.483,372.248 C 454.468,368.102 455.985,364.082 457.986,360.32 L 451.433,356.834 C 451.433,356.834 450.165,356.149 448.372,354.022 C 446.578,351.894 444.274,348.314 442.527,343.03 C 443.793,341.179 445.145,339.388 446.577,337.663 C 452.138,337.894 456.213,339.128 458.75,340.27 C 461.288,341.412 462.295,342.443 462.295,342.443 L 467.443,347.79 C 470.513,344.834 473.962,342.273 477.68,340.189 L 474.051,333.714 C 474.051,333.714 473.356,332.452 472.997,329.693 C 472.638,326.933 472.635,322.676 474.023,317.286 C 476.088,316.414 478.194,315.638 480.331,314.961 C 484.884,318.162 487.645,321.403 489.163,323.736 C 490.68,326.068 490.97,327.48 490.97,327.48 L 492.41,334.761 C 496.591,333.934 500.877,333.644 505.131,333.902 L 505.579,326.493"
       id="path2208"
       inkscape:path-effect="#path-effect2210"
       inkscape:original-d="M 156.3255,87.161023 L 224.79814,187.55872 L 279.57624,178.43165 L 319.51861,225.20785 L 414.2391,164.74106 L 523.79531,250.30727 L 502.11231,383.79057" />
    <path
       id="path2300"
       d="M 156.3255,87.161023 L 224.79814,187.55872 L 279.57624,178.43165 L 319.51861,225.20785 L 414.2391,164.74106 L 523.79531,250.30727 L 502.11231,383.79057"
       style="fill:none;fill-rule:evenodd;stroke:#0000ff;stroke-width:0.99999987999999995px;stroke-linecap:butt;stroke-linejoin:miter;stroke-opacity:1" />
    <path
       sodipodi:type="arc"
       style="opacity:1;color:#000000;fill:none;fill-opacity:1;fill-rule:nonzero;stroke:#ff0000;stroke-width:2.6989224;stroke-linecap:butt;stroke-linejoin:round;marker:none;marker-start:none;marker-mid:none;marker-end:none;stroke-miterlimit:4;stroke-dasharray:none;stroke-dashoffset:0;stroke-opacity:1;visibility:visible;display:inline;overflow:visible;enable-background:accumulate"
       id="path2306"
       sodipodi:cx="57.5"
       sodipodi:cy="90.219322"
       sodipodi:rx="21.785715"
       sodipodi:ry="25"
       d="M 79.285715,90.219322 A 21.785715,25 0 1 1 35.714285,90.219322 A 21.785715,25 0 1 1 79.285715,90.219322 z"
       transform="matrix(0.3696101,0,0,0.3714286,136.96171,57.423574)" />
    <use
       x="0"
       y="0"
       xlink:href="#path2306"
       id="use2310"
       transform="translate(67.142857,96.428571)"
       width="744.09448"
       height="1052.3622" />
    <use
       x="0"
       y="0"
       xlink:href="#use2310"
       id="use2312"
       transform="translate(53.571429,-6.4285714)"
       width="744.09448"
       height="1052.3622" />
    <use
       x="0"
       y="0"
       xlink:href="#use2312"
       id="use2314"
       transform="translate(40.714286,42.857143)"
       width="744.09448"
       height="1052.3622" />
    <use
       x="0"
       y="0"
       xlink:href="#use2314"
       id="use2316"
       transform="translate(93.571429,-56.857143)"
       width="744.09448"
       height="1052.3622" />
    <flowRoot
       xml:space="preserve"
       id="flowRoot2322"
       style="font-size:22px;font-style:normal;font-weight:normal;fill:#000000;fill-opacity:1;stroke:none;stroke-width:1px;stroke-linecap:butt;stroke-linejoin:miter;stroke-opacity:1;font-family:Bitstream Vera Sans"
       transform="translate(15.714286,16.428571)"><flowRegion
         id="flowRegion2324"><rect
           id="rect2326"
           width="157.14287"
           height="47.142857"
           x="57.142857"
           y="24.505039" /></flowRegion><flowPara
         id="flowPara2328"
         style="font-size:16px">The first point defines the start angle</flowPara></flowRoot>    <flowRoot
       transform="translate(-80.498917,171.42858)"
       style="font-size:22px;font-style:normal;font-weight:normal;fill:#000000;fill-opacity:1;stroke:none;stroke-width:1px;stroke-linecap:butt;stroke-linejoin:miter;stroke-opacity:1;font-family:Bitstream Vera Sans"
       id="flowRoot2330"
       xml:space="preserve"><flowRegion
         id="flowRegion2332"><rect
           y="24.505039"
           x="57.142857"
           height="47.142857"
           width="179.28572"
           id="rect2334" /></flowRegion><flowPara
         style="font-size:16px"
         id="flowPara2336">The 2nd point defines the center of the 1st gear</flowPara></flowRoot>    <flowRoot
       xml:space="preserve"
       id="flowRoot2338"
       style="font-size:22px;font-style:normal;font-weight:normal;fill:#000000;fill-opacity:1;stroke:none;stroke-width:1px;stroke-linecap:butt;stroke-linejoin:miter;stroke-opacity:1;font-family:Bitstream Vera Sans"
       transform="translate(232.14286,5.714291)"><flowRegion
         id="flowRegion2340"><rect
           id="rect2342"
           width="179.28572"
           height="47.142857"
           x="57.142857"
           y="24.505039" /></flowRegion><flowPara
         id="flowPara2344"
         style="font-size:16px">The 3rd point defines the radius of the 1st gear</flowPara></flowRoot>    <path
       style="fill:none;fill-rule:evenodd;stroke:#ff0000;stroke-width:1px;stroke-linecap:butt;stroke-linejoin:miter;stroke-opacity:1"
       d="M 138.01814,210.00395 L 217.14286,186.6479"
       id="path2346"
       sodipodi:nodetypes="cc" />
    <path
       sodipodi:nodetypes="cc"
       id="path2348"
       d="M 138.01814,210.00395 L 217.14286,186.6479"
       style="fill:none;fill-rule:evenodd;stroke:#ff0000;stroke-width:1px;stroke-linecap:butt;stroke-linejoin:miter;stroke-opacity:1" />
    <path
       style="fill:none;fill-rule:evenodd;stroke:#ff0000;stroke-width:1px;stroke-linecap:butt;stroke-linejoin:miter;stroke-opacity:1"
       d="M 279.94457,171.61815 L 308.05659,69.975278"
       id="path2350"
       sodipodi:nodetypes="cc" />
    <flowRoot
       transform="translate(228.10225,265.32349)"
       style="font-size:22px;font-style:normal;font-weight:normal;fill:#000000;fill-opacity:1;stroke:none;stroke-width:1px;stroke-linecap:butt;stroke-linejoin:miter;stroke-opacity:1;font-family:Bitstream Vera Sans"
       id="flowRoot2352"
       xml:space="preserve"><flowRegion
         id="flowRegion2354"><rect
           y="24.505039"
           x="57.142857"
           height="47.142857"
           width="179.28572"
           id="rect2356" /></flowRegion><flowPara
         style="font-size:16px"
         id="flowPara2358">More points define the centers of more gears</flowPara></flowRoot>    <path
       sodipodi:nodetypes="cc"
       id="path2360"
       d="M 380.77599,285.71462 L 412.45944,176.21461"
       style="fill:none;fill-rule:evenodd;stroke:#ff0000;stroke-width:1px;stroke-linecap:butt;stroke-linejoin:miter;stroke-opacity:1" />
    <path
       style="fill:none;fill-rule:evenodd;stroke:#ff0000;stroke-width:1px;stroke-linecap:butt;stroke-linejoin:miter;stroke-opacity:1"
       d="M 340.06172,287.50034 L 322.45945,232.64318"
       id="path2362"
       sodipodi:nodetypes="cc" />
  </g>
</svg>
