<?xml version="1.0" encoding="UTF-8" standalone="no"?>
<!-- Created with Inkscape (http://www.inkscape.org/) -->
<svg
   xmlns:dc="http://purl.org/dc/elements/1.1/"
   xmlns:cc="http://creativecommons.org/ns#"
   xmlns:rdf="http://www.w3.org/1999/02/22-rdf-syntax-ns#"
   xmlns:svg="http://www.w3.org/2000/svg"
   xmlns="http://www.w3.org/2000/svg"
   xmlns:sodipodi="http://sodipodi.sourceforge.net/DTD/sodipodi-0.dtd"
   xmlns:inkscape="http://www.inkscape.org/namespaces/inkscape"
   width="744.09448819"
   height="1052.3622047"
   id="svg2"
   sodipodi:version="0.32"
   inkscape:version="0.46dev+devel"
   sodipodi:docname="live-path-effects-curvestitch.svg"
   inkscape:output_extension="org.inkscape.output.svg.inkscape">
  <defs
     id="defs4">
    <inkscape:path-effect
       effect="curvestitching"
       id="path-effect3456"
       count="5"
       endpoint_variation="0;0"
       scale_stroke_y="true"
       startpoint_variation="0;0" />
    <inkscape:path-effect
       effect="curvestitching"
       id="path-effect3449"
       count="5"
       endpoint_variation="0;1"
       startpoint_variation="0;1"
       strokepath="M -232.30746,542.9951 C -162.07426,522.03554 -112.54164,526.2654 -69.672899,544.00525"
       scale_stroke_y="true" />
    <inkscape:path-effect
       effect="curvestitching"
       id="path-effect2955"
       count="49"
       endpoint_variation="0;0"
       startpoint_variation="0;0" />
    <inkscape:path-effect
       effect="curvestitching"
       id="path-effect2936"
       count="20" />
    <inkscape:path-effect
       effect="curvestitching"
       id="path-effect2332"
       count="25" />
    <inkscape:path-effect
       effect="curvestitching"
       id="path-effect2300"
       count="40"
       endpoint_variation="0;1"
       scale_stroke_y="true"
       startpoint_variation="0;1"
       strokepath="M 22.223356,138.17413 C 92.456564,117.21457 141.98918,121.44443 184.85792,139.18428" />
  </defs>
  <sodipodi:namedview
     id="base"
     pagecolor="#ffffff"
     bordercolor="#666666"
     borderopacity="1.0"
     gridtolerance="10000"
     guidetolerance="10"
     objecttolerance="10"
     inkscape:pageopacity="0.0"
     inkscape:pageshadow="2"
     inkscape:zoom="0.9899495"
     inkscape:cx="521.39204"
     inkscape:cy="316.77113"
     inkscape:document-units="px"
     inkscape:current-layer="layer1"
     inkscape:window-width="1152"
     inkscape:window-height="808"
     inkscape:window-x="-4"
     inkscape:window-y="-4" />
  <metadata
     id="metadata7">
    <rdf:RDF>
      <cc:Work
         rdf:about="">
        <dc:format>image/svg+xml</dc:format>
        <dc:type
           rdf:resource="http://purl.org/dc/dcmitype/StillImage" />
      </cc:Work>
    </rdf:RDF>
  </metadata>
  <g
     inkscape:label="Layer 1"
     inkscape:groupmode="layer"
     id="layer1">
    <path
       id="path2293"
       style="fill:#ffaaaa;fill-rule:evenodd;stroke:#000000;stroke-width:1px;stroke-linecap:butt;stroke-linejoin:miter;stroke-opacity:1"
       d="M 112.989,590.846 C 106.693,783.444 83.4304,916.591 49.3598,1029.84 M 110.602,601.252 C 109.899,787.783 90.52,917.128 59.7642,1027.44 M 108.218,611.671 C 113.113,792.151 97.6286,917.742 70.2045,1025.18 M 105.838,622.103 C 116.331,796.547 104.754,918.433 80.6804,1023.07 M 103.463,632.548 C 119.55,800.973 111.892,919.205 91.1916,1021.12 M 101.094,643.009 C 122.768,805.428 119.042,920.059 101.738,1019.33 M 98.7336,653.484 C 125.98,809.914 126.199,920.999 112.321,1017.7 M 96.3824,663.974 C 129.181,814.432 133.359,922.028 122.939,1016.25 M 94.0425,674.48 C 132.368,818.986 140.52,923.149 133.594,1014.96 M 91.7157,685 C 135.536,823.576 147.676,924.367 144.287,1013.86 M 89.4041,695.534 C 138.678,828.209 154.823,925.685 155.018,1012.94 M 87.1097,706.08 C 141.792,832.888 161.959,927.111 165.788,1012.21 M 84.834,716.636 C 144.871,837.62 169.078,928.651 176.598,1011.66 M 82.5787,727.201 C 147.912,842.415 176.175,930.314 187.444,1011.31 M 80.3446,737.769 C 150.91,847.278 183.247,932.103 198.326,1011.14 M 78.1322,748.339 C 153.863,852.215 190.29,934.02 209.24,1011.15 M 75.9412,758.906 C 156.771,857.234 197.304,936.07 220.183,1011.33 M 73.7706,769.466 C 159.636,862.34 204.287,938.256 231.153,1011.67 M 71.6186,780.015 C 162.459,867.541 211.242,940.579 242.144,1012.16 M 69.4829,790.551 C 165.244,872.843 218.168,943.043 253.151,1012.8 M 67.3605,801.069 C 167.998,878.25 225.071,945.649 264.168,1013.58 M 65.2482,811.569 C 170.727,883.765 231.951,948.397 275.189,1014.49 M 63.1426,822.048 C 173.436,889.389 238.813,951.286 286.207,1015.52 M 61.0406,832.506 C 176.132,895.116 245.662,954.305 297.217,1016.66 M 58.9392,842.943 C 178.823,900.94 252.502,957.44 308.219,1017.89 M 56.8359,853.359 C 181.513,906.851 259.338,960.681 319.209,1019.19 M 54.7287,863.755 C 184.21,912.841 266.175,964.012 330.187,1020.56 M 52.6157,874.133 C 186.916,918.9 273.015,967.42 341.151,1021.96 M 50.4957,884.494 C 189.635,925.018 279.863,970.891 352.103,1023.4 M 48.3679,894.84 C 192.37,931.185 286.721,974.41 363.041,1024.85 M 46.2315,905.171 C 195.122,937.389 293.589,977.963 373.967,1026.3 M 44.0865,915.49 C 197.894,943.62 300.472,981.533 384.883,1027.73 M 41.9327,925.797 C 200.687,949.864 307.371,985.102 395.792,1029.12 M 39.7703,936.095 C 203.501,956.114 314.286,988.658 406.697,1030.47 M 37.5994,946.384 C 206.336,962.36 321.22,992.188 417.598,1031.75 M 35.4203,956.664 C 209.192,968.595 328.171,995.682 428.495,1032.95 M 33.2334,966.938 C 212.069,974.81 335.14,999.126 439.392,1034.07 M 31.039,977.206 C 214.965,980.997 342.126,1002.51 450.288,1035.08 M 28.8377,987.469 C 217.882,987.148 349.131,1005.82 461.185,1035.98 M 26.6297,997.727 C 220.817,993.257 356.153,1009.05 472.085,1036.74"
       inkscape:path-effect="#path-effect2300"
       inkscape:original-d="M 119.45542,591.76834 L 27.184914,991.21866 M 56.825964,1030.9018 C 241.13794,983.96177 338.7716,1020.7021 472.72589,1029.2281"
       sodipodi:nodetypes="cccc" />
    <g
       id="g3401"
       transform="translate(78.987743,-119.34158)">
      <g
         transform="translate(33.476821,34.399767)"
         id="g3179">
        <path
           sodipodi:type="arc"
           style="fill:none;fill-opacity:1;fill-rule:nonzero;stroke:#0000ff;stroke-width:0.53125;stroke-miterlimit:4;stroke-dasharray:none;stroke-opacity:1"
           id="path3177"
           sodipodi:cx="-44.990662"
           sodipodi:cy="199.31558"
           sodipodi:rx="37.886871"
           sodipodi:ry="34.92696"
           d="M -7.1037903,199.31558 A 37.886871,34.92696 0 1 1 -82.877533,199.31558 A 37.886871,34.92696 0 1 1 -7.1037903,199.31558 z"
           transform="translate(58.014272,-17.759472)" />
        <text
           xml:space="preserve"
           style="font-size:22px;font-style:normal;font-weight:normal;fill:#0000ff;fill-opacity:1;stroke:none;stroke-width:1px;stroke-linecap:butt;stroke-linejoin:miter;stroke-opacity:1;font-family:Bitstream Vera Sans"
           x="-1.3160369"
           y="196.35568"
           id="text3173"><tspan
             sodipodi:role="line"
             id="tspan3175"
             x="-1.3160369"
             y="196.35568"
             style="font-size:40px;font-weight:bold;writing-mode:lr-tb;fill:#0000ff">1</tspan></text>
      </g>
      <flowRoot
         xml:space="preserve"
         id="flowRoot3311"
         style="font-size:22px;font-style:normal;font-weight:normal;fill:#000000;fill-opacity:1;stroke:none;stroke-width:1px;stroke-linecap:butt;stroke-linejoin:miter;stroke-opacity:1;font-family:Bitstream Vera Sans"
         transform="translate(-60.609152,88.893432)"><flowRegion
           id="flowRegion3313"><rect
             id="rect3315"
             width="320.21835"
             height="69.700531"
             x="149.50258"
             y="102.81879" /></flowRegion><flowPara
           id="flowPara3317">Draw the two paths that will</flowPara><flowPara
           id="flowPara3319">be connected with curves</flowPara></flowRoot>    </g>
    <g
       id="g3412"
       transform="translate(49.509796,-145.4866)">
      <flowRoot
         transform="translate(-12.641774,211.71362)"
         style="font-size:22px;font-style:normal;font-weight:normal;fill:#000000;fill-opacity:1;stroke:none;stroke-width:1px;stroke-linecap:butt;stroke-linejoin:miter;stroke-opacity:1;font-family:Bitstream Vera Sans"
         id="flowRoot3321"
         xml:space="preserve"><flowRegion
           id="flowRegion3323"><rect
             y="102.81879"
             x="149.50258"
             height="106.06602"
             width="341.43155"
             id="rect3325" /></flowRegion><flowPara
           id="flowPara3329">Combine them into</flowPara><flowPara
           id="flowPara3333">one path (Ctrl+K)</flowPara></flowRoot>      <g
         transform="translate(3.0304576,87.883272)"
         id="g2615">
        <g
           transform="translate(78.933685,72.78556)"
           id="g2619">
          <path
             sodipodi:type="arc"
             style="fill:none;fill-opacity:1;fill-rule:nonzero;stroke:#0000ff;stroke-width:0.53125;stroke-miterlimit:4;stroke-dasharray:none;stroke-opacity:1"
             id="path2621"
             sodipodi:cx="-44.990662"
             sodipodi:cy="199.31558"
             sodipodi:rx="37.886871"
             sodipodi:ry="34.92696"
             d="M -7.1037903,199.31558 A 37.886871,34.92696 0 1 1 -82.877533,199.31558 A 37.886871,34.92696 0 1 1 -7.1037903,199.31558 z"
             transform="translate(57.004119,-19.779777)" />
          <text
             xml:space="preserve"
             style="font-size:22px;font-style:normal;font-weight:normal;fill:#0000ff;fill-opacity:1;stroke:none;stroke-width:1px;stroke-linecap:butt;stroke-linejoin:miter;stroke-opacity:1;font-family:Bitstream Vera Sans"
             x="-1.0201701"
             y="193.32523"
             id="text2623"><tspan
               sodipodi:role="line"
               id="tspan2625"
               x="-1.0201701"
               y="193.32523"
               style="font-size:40px;font-weight:bold;writing-mode:lr-tb;fill:#0000ff">2</tspan></text>
        </g>
      </g>
    </g>
    <path
       transform="translate(97.846372,333.01089)"
       d="M -7.1037903,199.31558 A 37.886871,34.92696 0 1 1 -82.877533,199.31558 A 37.886871,34.92696 0 1 1 -7.1037903,199.31558 z"
       sodipodi:ry="34.92696"
       sodipodi:rx="37.886871"
       sodipodi:cy="199.31558"
       sodipodi:cx="-44.990662"
       id="path2645"
       style="fill:none;fill-opacity:1;fill-rule:nonzero;stroke:#0000ff;stroke-width:0.53125;stroke-miterlimit:4;stroke-dasharray:none;stroke-opacity:1"
       sodipodi:type="arc" />
    <text
       id="text2647"
       y="546.53436"
       x="37.801777"
       style="font-size:22px;font-style:normal;font-weight:normal;fill:#0000ff;fill-opacity:1;stroke:none;stroke-width:1px;stroke-linecap:butt;stroke-linejoin:miter;stroke-opacity:1;font-family:Bitstream Vera Sans"
       xml:space="preserve"><tspan
         style="font-size:40px;font-weight:bold;writing-mode:lr-tb;fill:#0000ff"
         y="546.53436"
         x="37.801777"
         id="tspan2649"
         sodipodi:role="line">4</tspan></text>
    <g
       id="g2618"
       transform="translate(102.02541,-16.162441)">
      <g
         transform="translate(623.40048,72.41409)"
         id="g2692">
        <path
           style="fill:none;fill-rule:evenodd;stroke:#008000;stroke-width:1px;stroke-linecap:butt;stroke-linejoin:miter;stroke-opacity:1"
           d="M -232.30746,542.9951 C -162.07426,522.03554 -112.54164,526.2654 -69.672899,544.00525"
           id="path2325"
           sodipodi:nodetypes="cc" />
        <text
           id="text2657"
           y="512.94073"
           x="-246.47723"
           style="font-size:22px;font-style:normal;font-weight:normal;fill:#008000;fill-opacity:1;stroke:none;stroke-width:1px;stroke-linecap:butt;stroke-linejoin:miter;stroke-opacity:1;font-family:Bitstream Vera Sans"
           xml:space="preserve"><tspan
             y="512.94073"
             x="-246.47723"
             id="tspan2659"
             sodipodi:role="line">replacement</tspan></text>
      </g>
      <g
         transform="translate(506.08642,3.0304583)"
         id="g2697">
        <path
           id="path2651"
           d="M -116.03118,604.54771 L 47.736084,604.54771"
           style="fill:#ff0000;fill-rule:evenodd;stroke:#ff0000;stroke-width:1px;stroke-linecap:butt;stroke-linejoin:miter;stroke-opacity:1"
           sodipodi:nodetypes="cc" />
        <text
           xml:space="preserve"
           style="font-size:22px;font-style:normal;font-weight:normal;fill:#ff0000;fill-opacity:1;stroke:none;stroke-width:1px;stroke-linecap:butt;stroke-linejoin:miter;stroke-opacity:1;font-family:Bitstream Vera Sans"
           x="-45.488102"
           y="639.0575"
           id="text2685"><tspan
             sodipodi:role="line"
             id="tspan2687"
             x="-45.488102"
             y="639.0575">default path</tspan></text>
      </g>
    </g>
    <path
       sodipodi:type="arc"
       style="fill:none;fill-opacity:1;fill-rule:nonzero;stroke:#0000ff;stroke-width:0.53125;stroke-miterlimit:4;stroke-dasharray:none;stroke-opacity:1"
       id="path2708"
       sodipodi:cx="-44.990662"
       sodipodi:cy="199.31558"
       sodipodi:rx="37.886871"
       sodipodi:ry="34.92696"
       d="M -7.1037903,199.31558 A 37.886871,34.92696 0 1 1 -82.877533,199.31558 A 37.886871,34.92696 0 1 1 -7.1037903,199.31558 z"
       transform="translate(334.68254,532.67477)" />
    <text
       xml:space="preserve"
       style="font-size:22px;font-style:normal;font-weight:normal;fill:#0000ff;fill-opacity:1;stroke:none;stroke-width:1px;stroke-linecap:butt;stroke-linejoin:miter;stroke-opacity:1;font-family:Bitstream Vera Sans"
       x="277.30112"
       y="745.77979"
       id="text2710"><tspan
         sodipodi:role="line"
         id="tspan2712"
         x="277.30112"
         y="745.77979"
         style="font-size:40px;font-weight:bold;writing-mode:lr-tb;fill:#0000ff">5</tspan></text>
    <g
       id="g3424"
       transform="translate(132.6541,-44.530819)">
      <g
         id="g2627"
         transform="translate(4.459029,170.74042)">
        <g
           id="g2631"
           transform="translate(78.933685,72.78556)">
          <path
             transform="translate(57.004119,-19.779777)"
             d="M -7.1037903,199.31558 A 37.886871,34.92696 0 1 1 -82.877533,199.31558 A 37.886871,34.92696 0 1 1 -7.1037903,199.31558 z"
             sodipodi:ry="34.92696"
             sodipodi:rx="37.886871"
             sodipodi:cy="199.31558"
             sodipodi:cx="-44.990662"
             id="path2633"
             style="fill:none;fill-opacity:1;fill-rule:nonzero;stroke:#0000ff;stroke-width:0.53125;stroke-miterlimit:4;stroke-dasharray:none;stroke-opacity:1"
             sodipodi:type="arc" />
          <text
             id="text2635"
             y="193.32523"
             x="-1.0201701"
             style="font-size:22px;font-style:normal;font-weight:normal;fill:#0000ff;fill-opacity:1;stroke:none;stroke-width:1px;stroke-linecap:butt;stroke-linejoin:miter;stroke-opacity:1;font-family:Bitstream Vera Sans"
             xml:space="preserve"><tspan
               style="font-size:40px;font-weight:bold;writing-mode:lr-tb;fill:#0000ff"
               y="193.32523"
               x="-1.0201701"
               id="tspan2637"
               sodipodi:role="line">3</tspan></text>
        </g>
      </g>
      <flowRoot
         xml:space="preserve"
         id="flowRoot3349"
         style="font-size:22px;font-style:normal;font-weight:normal;fill:#000000;fill-opacity:1;stroke:none;stroke-width:1px;stroke-linecap:butt;stroke-linejoin:miter;stroke-opacity:1;font-family:Bitstream Vera Sans"
         transform="translate(-10.866575,296.2198)"><flowRegion
           id="flowRegion3351"><rect
             id="rect3353"
             width="282.84271"
             height="78.791901"
             x="149.50258"
             y="102.81879" /></flowRegion><flowPara
           id="flowPara3357">Apply &quot;Curve Stitching&quot;</flowPara><flowPara
           id="flowPara3361">effect (Ctrl+Shift+7)</flowPara></flowRoot>    </g>
    <flowRoot
       xml:space="preserve"
       id="flowRoot3363"
       style="font-size:22px;font-style:normal;font-weight:normal;fill:#000000;fill-opacity:1;stroke:none;stroke-width:1px;stroke-linecap:butt;stroke-linejoin:miter;stroke-opacity:1;font-family:Bitstream Vera Sans"
       transform="translate(179.80715,582.85803)"><flowRegion
         id="flowRegion3365"><rect
           id="rect3367"
           width="437.39606"
           height="111.11678"
           x="149.50258"
           y="102.81879" /></flowRegion><flowPara
         id="flowPara3371">Copy the replacement (Ctrl+C)</flowPara><flowPara
         id="flowPara2638">and paste it onto the &quot;Stroke path&quot; </flowPara><flowPara
         id="flowPara2642">(press F2 to edit the original paths!)</flowPara></flowRoot>    <path
       id="path3436"
       style="fill:none;fill-rule:evenodd;stroke:#000000;stroke-width:1px;stroke-linecap:butt;stroke-linejoin:miter;stroke-opacity:1"
       d="M 511.48082,60.87749 L 509.46052,208.35975 M 529.66357,232.60341 L 665.02401,232.60341" />
    <path
       d="M 104.492,299.447 L 122.674,471.173 M 103.987,336.317 L 156.515,471.173 M 103.482,373.188 L 190.355,471.173 M 102.977,410.059 L 224.195,471.173 M 102.471,446.929 L 258.035,471.173"
       style="fill:none;fill-rule:evenodd;stroke:#000000;stroke-width:1px;stroke-linecap:butt;stroke-linejoin:miter;stroke-opacity:1"
       id="path3447"
       inkscape:path-effect="#path-effect3456"
       inkscape:original-d="M 104.49175,299.44681 L 102.47145,446.92908 M 122.6745,471.17274 L 258.03494,471.17274" />
    <path
       inkscape:original-d="M 504.88043,778.89713 L 502.86013,926.3794 M 523.06318,950.62306 L 658.42362,950.62306"
       inkscape:path-effect="#path-effect3449"
       id="path3454"
       style="fill:none;fill-rule:evenodd;stroke:#000000;stroke-width:1px;stroke-linecap:butt;stroke-linejoin:miter;stroke-opacity:1"
       d="M 498.385,779.585 C 527.08,851.537 528.412,904.284 515.563,951.417 M 498.289,818.138 C 540.503,868.768 552.56,911.375 549.876,953.36 M 498.983,856.971 C 552.182,885.381 575.475,918.03 585.1,955.626 M 500.425,895.341 C 562.208,903.018 597.223,925.408 621.188,957.357 M 501.854,932.833 C 572.261,922.593 618.989,934.156 657.262,958.075" />
    <flowRoot
       xml:space="preserve"
       id="flowRoot2591"
       style="font-size:22px;font-style:normal;font-weight:normal;fill:#000000;fill-opacity:1;stroke:none;stroke-width:1px;stroke-linecap:butt;stroke-linejoin:miter;stroke-opacity:1;font-family:Bitstream Vera Sans"
       transform="translate(-505.07627,-66.670068)"><flowRegion
         id="flowRegion2593"><rect
           id="rect2595"
           width="454.56863"
           height="93.944183"
           x="601.04077"
           y="580.62097"
           style="font-size:22px" /></flowRegion><flowPara
         id="flowPara2597">Draw a path that will replace the default horizontal connecting path</flowPara></flowRoot>  </g>
</svg>
