<?xml version="1.0" encoding="UTF-8" standalone="no"?>
<!-- Created with Inkscape (http://www.inkscape.org/) -->

<svg
   xmlns:dc="http://purl.org/dc/elements/1.1/"
   xmlns:cc="http://creativecommons.org/ns#"
   xmlns:rdf="http://www.w3.org/1999/02/22-rdf-syntax-ns#"
   xmlns:svg="http://www.w3.org/2000/svg"
   xmlns="http://www.w3.org/2000/svg"
   xmlns:xlink="http://www.w3.org/1999/xlink"
   xmlns:sodipodi="http://sodipodi.sourceforge.net/DTD/sodipodi-0.dtd"
   xmlns:inkscape="http://www.inkscape.org/namespaces/inkscape"
   width="683.06561"
   height="456.87448"
   id="svg2"
   sodipodi:version="0.32"
   inkscape:version="0.92.0 r15304"
   sodipodi:docname="live-path-effects-gears.svg"
   inkscape:output_extension="org.inkscape.output.svg.inkscape"
   version="1.1">
  <defs
     id="defs4">
    <inkscape:path-effect
       effect="gears"
       id="path-effect2210"
       phi="20"
       teeth="10"
       is_visible="true"
       min_radius="5" />
  </defs>
  <sodipodi:namedview
     id="base"
     pagecolor="#ffffff"
     bordercolor="#666666"
     borderopacity="1.0"
     gridtolerance="10000"
     guidetolerance="10"
     objecttolerance="10"
     inkscape:pageopacity="0.0"
     inkscape:pageshadow="2"
     inkscape:zoom="1.2891944"
     inkscape:cx="341.53281"
     inkscape:cy="228.43724"
     inkscape:document-units="px"
     inkscape:current-layer="layer1"
     inkscape:window-width="1152"
     inkscape:window-height="808"
     inkscape:window-x="0"
     inkscape:window-y="25"
     showgrid="false"
     fit-margin-top="5"
     fit-margin-left="5"
     fit-margin-right="5"
     fit-margin-bottom="5"
     inkscape:window-maximized="0" />
  <metadata
     id="metadata7">
    <rdf:RDF>
      <cc:Work
         rdf:about="">
        <dc:format>image/svg+xml</dc:format>
        <dc:type
           rdf:resource="http://purl.org/dc/dcmitype/StillImage" />
        <dc:title></dc:title>
      </cc:Work>
    </rdf:RDF>
  </metadata>
  <g
     inkscape:label="Layer 1"
     inkscape:groupmode="layer"
     id="layer1"
     transform="translate(29.964063,-35.030208)">
    <g
       id="g29433">
      <path
         inkscape:connector-curvature="0"
         inkscape:original-d="m 166.7472,92.971758 73.03748,107.090872 58.42998,-9.73554 42.60519,49.89462 101.03519,-64.49791 116.85996,91.27062 -23.12854,142.38219"
         inkscape:path-effect="#path-effect2210"
         id="path2208"
         d="m 201.01416,160.12226 c 0,0 -4.39515,-4.61201 -4.10772,-16.75347 1.85147,-1.40028 3.77041,-2.70903 5.74994,-3.92154 11.40846,4.1647 14.09771,9.94015 14.09771,9.94015 l 3.42368,7.53327 c 4.09604,-1.86155 8.43632,-3.13029 12.89012,-3.768 l -1.17286,-8.19122 c 0,0 -0.84488,-6.3146 6.52423,-15.96829 2.32093,-0.0446 4.64265,0.0245 6.95682,0.20713 6.78169,10.07504 5.56261,16.32818 5.56261,16.32818 l -1.65813,8.10693 c 4.40796,0.90157 8.66507,2.42629 12.64311,4.52824 l 3.86581,-7.31622 c 0,0 3.0281,-5.60522 14.66414,-9.08378 1.90388,1.32814 3.74156,2.74874 5.50644,4.2567 -0.43546,12.13705 -5.09722,16.47939 -5.09722,16.47939 l -6.10659,5.58402 c 3.03619,3.32032 5.58405,7.05611 7.56685,11.09486 l 7.42788,-3.64668 c 0,0 5.74445,-2.75485 17.20285,1.27043 0.75961,2.19356 1.41132,4.42301 1.95277,6.68034 -7.48626,9.56313 -13.81007,10.33604 -13.81007,10.33604 l -8.22254,0.9282 c 0.50469,4.47083 0.37011,8.99074 -0.39968,13.42362 l 8.15274,1.41577 c 0,0 6.26662,1.14779 13.17065,11.13938 -0.6748,2.22112 -1.45799,4.40785 -2.34677,6.55233 -11.67759,3.33641 -17.24796,0.24467 -17.24796,0.24467 l -7.19776,-4.08216 c -2.21958,3.91362 -4.98519,7.49121 -8.21355,10.62501 l 5.76354,5.93744 c 0,0 4.39515,4.61201 4.10772,16.75347 -1.85147,1.40028 -3.77041,2.70903 -5.74994,3.92154 -11.40846,-4.1647 -14.09771,-9.94015 -14.09771,-9.94015 l -3.42368,-7.53327 c -4.09604,1.86155 -8.43632,3.13029 -12.89012,3.768 l 1.17286,8.19122 c 0,0 0.84488,6.3146 -6.52423,15.96829 -2.32093,0.0446 -4.64265,-0.0245 -6.95682,-0.20713 -6.78169,-10.07504 -5.56261,-16.32818 -5.56261,-16.32818 l 1.65813,-8.10693 c -4.40796,-0.90157 -8.66507,-2.42629 -12.64311,-4.52824 l -3.86581,7.31622 c 0,0 -3.0281,5.60522 -14.66414,9.08378 -1.90388,-1.32814 -3.74156,-2.74874 -5.50644,-4.2567 0.43546,-12.13705 5.09722,-16.47939 5.09722,-16.47939 l 6.10659,-5.58402 c -3.03619,-3.32032 -5.58405,-7.05611 -7.56685,-11.09486 l -7.42788,3.64668 c 0,0 -5.74445,2.75485 -17.20285,-1.27043 -0.75961,-2.19356 -1.41132,-4.42301 -1.95277,-6.68034 7.48626,-9.56313 13.81007,-10.33604 13.81007,-10.33604 l 8.22254,-0.9282 c -0.50469,-4.47083 -0.37011,-8.99074 0.39968,-13.42362 l -8.15274,-1.41577 c 0,0 -6.26662,-1.14779 -13.17065,-11.13938 0.6748,-2.22112 1.45799,-4.40785 2.34677,-6.55233 11.67759,-3.33641 17.24796,-0.24467 17.24796,-0.24467 l 7.19776,4.08216 c 2.21958,-3.91362 4.98519,-7.49121 8.21355,-10.62501 l -5.76354,-5.93744 m 96.01565,88.18647 c 0,0 -6.25065,1.06676 -15.42621,-6.57718 -0.0545,-2.13728 0.007,-4.27593 0.1835,-6.40658 9.59804,-7.10623 15.77738,-5.68345 15.77738,-5.68345 l 8.73182,2.13579 c 1.02427,-4.18758 2.80186,-8.15388 5.24593,-11.70515 l -7.405,-5.0963 c 0,0 -5.17419,-3.66556 -6.2572,-15.55874 1.47274,-1.54982 3.02831,-3.01876 4.65988,-4.40038 11.8117,1.76197 15.1751,7.13748 15.1751,7.13748 l 4.66409,7.68456 c 3.68534,-2.2368 7.74688,-3.78445 11.98623,-4.56736 l -1.6325,-8.83975 c 0,0 -1.06676,-6.25065 6.57718,-15.42621 2.13728,-0.0545 4.27593,0.007 6.40658,0.1835 7.10623,9.59804 5.68345,15.77738 5.68345,15.77738 l -2.13579,8.73182 c 4.18758,1.02427 8.15388,2.80186 11.70515,5.24593 l 5.0963,-7.405 c 0,0 3.66556,-5.17419 15.55874,-6.2572 1.54982,1.47274 3.01876,3.02831 4.40038,4.65988 -1.76197,11.8117 -7.13748,15.1751 -7.13748,15.1751 l -7.68456,4.66409 c 2.2368,3.68534 3.78445,7.74688 4.56736,11.98623 l 8.83975,-1.6325 c 0,0 6.25065,-1.06676 15.42621,6.57718 0.0545,2.13728 -0.007,4.27593 -0.1835,6.40658 -9.59804,7.10623 -15.77738,5.68345 -15.77738,5.68345 l -8.73182,-2.13579 c -1.02427,4.18758 -2.80186,8.15388 -5.24593,11.70515 l 7.405,5.0963 c 0,0 5.17419,3.66556 6.2572,15.55874 -1.47274,1.54982 -3.02831,3.01876 -4.65988,4.40038 -11.8117,-1.76197 -15.1751,-7.13748 -15.1751,-7.13748 l -4.66409,-7.68456 c -3.68534,2.2368 -7.74688,3.78445 -11.98623,4.56736 l 1.6325,8.83975 c 0,0 1.06676,6.25065 -6.57718,15.42621 -2.13728,0.0545 -4.27593,-0.007 -6.40658,-0.1835 -7.10623,-9.59804 -5.68345,-15.77738 -5.68345,-15.77738 l 2.13579,-8.73182 c -4.18758,-1.02427 -8.15388,-2.80186 -11.70515,-5.24593 l -5.0963,7.405 c 0,0 -3.66556,5.17419 -15.55874,6.2572 -1.54982,-1.47274 -3.01876,-3.02831 -4.40038,-4.65988 1.76197,-11.8117 7.13748,-15.1751 7.13748,-15.1751 l 7.68456,-4.66409 c -2.2368,-3.68534 -3.78445,-7.74688 -4.56736,-11.98623 l -8.83975,1.6325 m 81.55657,-51.1664 c 0,0 -6.15223,2.03591 -17.57129,-2.91891 -0.54706,-2.39056 -0.98781,-4.8042 -1.32096,-7.23382 8.93088,-8.6709 15.4056,-8.94079 15.4056,-8.94079 l 7.55571,-0.26315 c -0.15962,-4.58306 0.2135,-9.16915 1.11187,-13.66613 l -7.4138,-1.48107 c 0,0 -6.34594,-1.31296 -13.75773,-11.3135 0.72151,-2.34381 1.54663,-4.65446 2.47293,-6.92514 12.06982,-3.04379 17.81203,-0.0402 17.81203,-0.0402 l 6.67502,3.54995 c 2.15329,-4.04885 4.76947,-7.83396 7.79597,-11.27928 l -5.68001,-4.98954 c 0,0 -4.83927,-4.31003 -6.25779,-16.67664 1.79675,-1.66904 3.66665,-3.25757 5.60418,-4.76089 11.97467,3.39891 15.44576,8.87124 15.44576,8.87124 l 4.00575,6.41186 c 3.88924,-2.42976 8.04747,-4.39967 12.39115,-5.87015 l -2.42426,-7.16108 c 0,0 -2.03591,-6.15223 2.91891,-17.571287 2.39056,-0.547061 4.8042,-0.987813 7.23382,-1.320959 8.6709,8.930876 8.94079,15.405596 8.94079,15.405596 l 0.26315,7.55571 c 4.58306,-0.15962 9.16915,0.2135 13.66613,1.11187 l 1.48107,-7.4138 c 0,0 1.31296,-6.34594 11.3135,-13.757726 2.34381,0.721509 4.65446,1.546627 6.92514,2.472922 3.04379,12.069824 0.0402,17.812034 0.0402,17.812034 l -3.54995,6.67502 c 4.04885,2.15329 7.83396,4.76947 11.27928,7.79597 l 4.98954,-5.68001 c 0,0 4.31003,-4.83927 16.67664,-6.25779 1.66904,1.79675 3.25757,3.66665 4.76089,5.60418 -3.39891,11.97467 -8.87124,15.44576 -8.87124,15.44576 l -6.41186,4.00575 c 2.42976,3.88924 4.39967,8.04747 5.87015,12.39115 l 7.16108,-2.42426 c 0,0 6.15223,-2.03591 17.57129,2.91891 0.54706,2.39056 0.98781,4.8042 1.32096,7.23382 -8.93088,8.6709 -15.4056,8.94079 -15.4056,8.94079 l -7.55571,0.26315 c 0.15962,4.58306 -0.2135,9.16915 -1.11187,13.66613 l 7.4138,1.48107 c 0,0 6.34594,1.31296 13.75773,11.3135 -0.72151,2.34381 -1.54663,4.65446 -2.47293,6.92514 -12.06982,3.04379 -17.81203,0.0402 -17.81203,0.0402 l -6.67502,-3.54995 c -2.15329,4.04885 -4.76947,7.83396 -7.79597,11.27928 l 5.68001,4.98954 c 0,0 4.83927,4.31003 6.25779,16.67664 -1.79675,1.66904 -3.66665,3.25757 -5.60418,4.76089 -11.97467,-3.39891 -15.44576,-8.87124 -15.44576,-8.87124 l -4.00575,-6.41186 c -3.88924,2.42976 -8.04747,4.39967 -12.39115,5.87015 l 2.42426,7.16108 c 0,0 2.03591,6.15223 -2.91891,17.57129 -2.39056,0.54706 -4.8042,0.98781 -7.23382,1.32096 -8.6709,-8.93088 -8.94079,-15.4056 -8.94079,-15.4056 l -0.26315,-7.55571 c -4.58306,0.15962 -9.16915,-0.2135 -13.66613,-1.11187 l -1.48107,7.4138 c 0,0 -1.31296,6.34594 -11.3135,13.75773 -2.34381,-0.72151 -4.65446,-1.54663 -6.92514,-2.47293 -3.04379,-12.06982 -0.0402,-17.81203 -0.0402,-17.81203 l 3.54995,-6.67502 c -4.04885,-2.15329 -7.83396,-4.76947 -11.27928,-7.79597 l -4.98954,5.68001 c 0,0 -4.31003,4.83927 -16.67664,6.25779 -1.66904,-1.79675 -3.25757,-3.66665 -4.76089,-5.60418 3.39891,-11.97467 8.87124,-15.44576 8.87124,-15.44576 l 6.41186,-4.00575 c -2.42976,-3.88924 -4.39967,-8.04747 -5.87015,-12.39115 l -7.16108,2.42426 m 145.03417,6.56976 c 0,0 -3.14321,-5.7495 -0.55886,-18.10402 2.29451,-1.00517 4.63051,-1.91286 7.00173,-2.72063 10.24795,7.36834 11.81137,13.73169 11.81137,13.73169 l 1.67631,7.00529 c 4.47921,-1.07183 9.05944,-1.66575 13.66389,-1.77177 l -0.16582,-7.20115 c 0,0 -0.11124,-6.55165 7.91851,-16.29004 2.49882,0.17628 4.98907,0.45816 7.46406,0.84487 5.64988,11.28681 4.07702,17.64784 4.07702,17.64784 l -1.77122,6.98189 c 4.46425,1.13253 8.79585,2.73519 12.92216,4.7811 l 3.19972,-6.45336 c 0,0 2.9462,-5.8529 14.58185,-10.7442 2.13067,1.31735 4.20468,2.72421 6.21646,4.21682 -0.24252,12.6196 -4.59133,17.52106 -4.59133,17.52106 l -4.81299,5.35903 c 3.42659,3.07745 6.51723,6.50953 9.22012,10.23868 l 5.83223,-4.22718 c 0,0 5.32871,-3.81332 17.90466,-2.73699 1.27442,2.15662 2.45706,4.36618 3.54476,6.62274 -6.07937,11.0614 -12.20787,13.38043 -12.20787,13.38043 l -6.75216,2.50848 c 1.60393,4.31736 2.7456,8.79261 3.40586,13.35071 l 7.12866,-1.03262 c 0,0 6.49047,-0.90015 17.12573,5.89723 0.12621,2.50185 0.14655,5.00791 0.061,7.51148 -10.52349,6.96916 -17.02773,6.1745 -17.02773,6.1745 l -7.14448,-0.91673 c -0.58617,4.56821 -1.65502,9.06141 -3.18865,13.40424 l 6.792,2.39852 c 0,0 6.16535,2.21923 12.4235,13.18046 -1.05091,2.27393 -2.19753,4.50239 -3.43676,6.67942 -12.55682,1.28037 -17.94674,-2.44592 -17.94674,-2.44592 l -5.9001,-4.13194 c -2.64198,3.77255 -5.67649,7.25435 -9.05266,10.38703 l 4.89936,5.28018 c 0,0 4.42782,4.83021 4.8752,17.44421 -1.98729,1.52507 -4.03818,2.96542 -6.14718,4.31719 -11.71353,-4.70174 -14.75437,-10.50603 -14.75437,-10.50603 l -3.30407,-6.40056 c -4.09255,2.11264 -8.39756,3.78541 -12.84283,4.99027 l 1.88435,6.95222 c 0,0 1.67592,6.33465 -3.78996,17.7117 -2.46839,0.42685 -4.95373,0.74912 -7.44936,0.96595 -8.18681,-9.60673 -8.18195,-16.15933 -8.18195,-16.15933 l 0.0489,-7.20289 c -4.60556,-0.0313 -9.19483,-0.55072 -13.69086,-1.54969 l -1.56234,7.03158 c 0,0 -1.4599,6.38789 -11.58688,13.92165 -2.38402,-0.76916 -4.73444,-1.6388 -7.04498,-2.60659 -2.78459,-12.31093 0.26486,-18.11071 0.26486,-18.11071 l 3.39063,-6.35513 c -4.0635,-2.16799 -7.88569,-4.76069 -11.40247,-7.73465 l -4.65113,5.5001 c 0,0 -4.26128,4.97775 -16.72938,6.94233 -1.7535,-1.78897 -3.43056,-3.6513 -5.02668,-5.58199 3.25554,-12.19485 8.65098,-15.91315 8.65098,-15.91315 l 5.95564,-4.05149 c -2.59054,-3.80805 -4.77003,-7.88004 -6.50192,-12.14768 l -6.6744,2.70861 c 0,0 -6.08645,2.42726 -18.03939,-1.62741 -0.72127,-2.39895 -1.34076,-4.82732 -1.85682,-7.27861 8.54987,-9.28509 15.05528,-10.07009 15.05528,-10.07009 l 7.15627,-0.81969 c -0.52412,-4.57575 -0.56161,-9.19418 -0.11186,-13.77783 l -7.16863,-0.70339 c 0,0 -6.5173,-0.67928 -15.2168,-9.82433 0.4762,-2.45935 1.05618,-4.89746 1.73841,-7.3078 11.88553,-4.24821 18.01059,-1.92008 18.01059,-1.92008 l 6.71749,2.59988 c 1.66238,-4.29519 3.77546,-8.40203 6.30383,-12.25164 l -6.02063,-3.95426 c 0,0 -5.45509,-3.6302 -8.90821,-15.7706 1.56457,-1.95634 3.21117,-3.84565 4.93539,-5.66286 12.49836,1.76188 16.83989,6.66979 16.83989,6.66979 l 4.73982,5.42386 c 3.46804,-3.03066 7.24762,-5.68508 11.27539,-7.91876 l -3.49337,-6.29924 m 15.66413,144.54684 c 0,0 0.43806,-6.40364 9.44813,-14.758 2.3567,0.40833 4.69309,0.92623 7.00159,1.55202 4.63578,11.3792 2.32682,17.36813 2.32682,17.36813 l -2.90619,7.36486 c 4.23405,1.67077 8.23669,3.8769 11.91026,6.56456 l 4.67502,-6.38995 c 0,0 3.8306,-5.15025 15.92705,-7.30717 1.76183,1.61763 3.44733,3.31647 5.05102,5.09099 -2.25218,12.07908 -7.43246,15.86897 -7.43246,15.86897 l -6.42659,4.62451 c 2.65862,3.69464 4.83314,7.71455 6.47048,11.96163 l 7.38754,-2.84806 c 0,0 6.00694,-2.26168 17.34925,2.46364 0.60758,2.31335 1.10705,4.65375 1.49679,7.01359 -8.42511,8.94395 -14.832,9.33154 -14.832,9.33154 l -7.9066,0.41591 c 0.23911,4.54548 -0.1049,9.10288 -1.02362,13.56097 l 7.75457,1.59807 c 0,0 6.27612,1.34494 13.26317,11.45225 -0.73956,2.27459 -1.58469,4.5135 -2.53265,6.70944 -11.92311,2.96917 -17.52248,-0.1686 -17.52248,-0.1686 l -6.87631,-3.92474 c -2.25633,3.95317 -5.00964,7.60111 -8.19275,10.85479 l 5.65959,5.53682 c 0,0 4.55267,4.52457 4.96613,16.80486 -1.8519,1.51368 -3.77332,2.94025 -5.758,4.27509 -11.63561,-3.9483 -14.6497,-9.61521 -14.6497,-9.61521 l -3.66284,-7.01931 c -4.03539,2.10576 -8.32385,3.68605 -12.76072,4.7023 l 1.76771,7.71767 c 0,0 1.38379,6.26767 -4.90761,16.82205 -2.37628,0.27217 -4.76394,0.43348 -7.15523,0.48342 -7.65389,-9.61221 -7.12574,-16.00905 -7.12574,-16.00905 l 0.71355,-7.88531 c -4.53325,-0.41022 -8.9953,-1.39931 -13.27726,-2.94314 l -2.68539,7.44822 c 0,0 -2.22444,6.02083 -13.22323,11.49835 -2.1462,-1.05575 -4.24204,-2.21091 -6.28072,-3.46173 -1.24211,-12.22431 2.6606,-17.32014 2.6606,-17.32014 l 4.86339,-6.24777 c -3.59183,-2.79595 -6.8108,-6.04039 -9.57836,-9.65415 l -6.28591,4.814 c 0,0 -5.12642,3.86243 -17.34056,2.52401 -1.23472,-2.04847 -2.37333,-4.15335 -3.41212,-6.3078 5.56403,-10.95528 11.6022,-13.1322 11.6022,-13.1322 l 7.46915,-2.62661 c -1.51004,-4.29399 -2.46393,-8.7637 -2.83841,-13.30004 l -7.89068,0.65138 c 0,0 -6.40081,0.47772 -15.95239,-7.25169 0.0688,-2.39082 0.2489,-4.77713 0.53979,-7.15119 10.60363,-6.20803 16.8602,-4.77488 16.8602,-4.77488 l 7.7035,1.82848 c 1.05119,-4.42873 2.66523,-8.7046 4.80273,-12.72327 l -6.99023,-3.71805 c 0,0 -5.64298,-3.05865 -9.49945,-14.72502 1.35043,-1.9741 2.7921,-3.88422 4.32033,-5.72413 12.27665,0.51023 16.7652,5.09842 16.7652,5.09842 l 5.49204,5.70305 c 3.27867,-3.15737 6.94819,-5.88184 10.91903,-8.10694 l -3.87043,-6.90703 c 0,0 -3.09354,-5.62393 -0.0305,-17.52327 2.20333,-0.93062 4.44883,-1.75808 6.72919,-2.47969 10.05193,7.06649 11.34736,13.35301 11.34736,13.35301 l 1.53691,7.76693 c 4.46519,-0.88356 9.02515,-1.19164 13.56861,-0.91672 l 0.47822,-7.90307"
         style="fill:none;fill-rule:evenodd;stroke:#008000;stroke-width:1.06666648px;stroke-linecap:butt;stroke-linejoin:miter;stroke-opacity:1" />
      <path
         inkscape:connector-curvature="0"
         style="fill:none;fill-rule:evenodd;stroke:#0000ff;stroke-width:1.06666648px;stroke-linecap:butt;stroke-linejoin:miter;stroke-opacity:1"
         d="m 166.7472,92.971758 73.03748,107.090872 58.42998,-9.73554 42.60519,49.89462 101.03519,-64.49791 116.85996,91.27062 -23.12854,142.38219"
         id="path2300" />
      <ellipse
         ry="9.9047623"
         rx="8.589035"
         cy="96.99585"
         cx="168.76192"
         id="path2306"
         style="color:#000000;display:inline;overflow:visible;visibility:visible;opacity:1;fill:none;fill-opacity:1;fill-rule:nonzero;stroke:#ff0000;stroke-width:1.0666666;stroke-linecap:butt;stroke-linejoin:round;stroke-miterlimit:4;stroke-dasharray:none;stroke-dashoffset:0;stroke-opacity:1;marker:none;marker-start:none;marker-mid:none;marker-end:none;enable-background:accumulate" />
      <use
         height="1052.3622"
         width="744.09448"
         transform="translate(71.619047,102.85714)"
         id="use2310"
         xlink:href="#path2306"
         y="0"
         x="0" />
      <use
         height="1052.3622"
         width="744.09448"
         transform="translate(57.142858,-6.8571428)"
         id="use2312"
         xlink:href="#use2310"
         y="0"
         x="0" />
      <use
         height="1052.3622"
         width="744.09448"
         transform="translate(43.428572,45.714286)"
         id="use2314"
         xlink:href="#use2312"
         y="0"
         x="0" />
      <use
         height="1052.3622"
         width="744.09448"
         transform="translate(99.809524,-60.647619)"
         id="use2316"
         xlink:href="#use2314"
         y="0"
         x="0" />
      <flowRoot
         style="font-style:normal;font-weight:normal;font-size:23.46666718px;font-family:'Bitstream Vera Sans';fill:#000000;fill-opacity:1;stroke:none;stroke-width:1.06666672px;stroke-linecap:butt;stroke-linejoin:miter;stroke-opacity:1"
         id="flowRoot2322"
         xml:space="preserve"><flowRegion
           style="stroke-width:1.06666672px"
           id="flowRegion2324"><rect
             style="stroke-width:1.13777781px"
             y="43.662518"
             x="77.714287"
             height="50.285713"
             width="167.61906"
             id="rect2326" /></flowRegion><flowPara
           style="font-size:17.06666756px;stroke-width:1.06666672px"
           id="flowPara2328">The first point defines the start angle</flowPara></flowRoot>      <flowRoot
         xml:space="preserve"
         id="flowRoot2330"
         style="font-style:normal;font-weight:normal;font-size:23.46666718px;font-family:'Bitstream Vera Sans';fill:#000000;fill-opacity:1;stroke:none;stroke-width:1.06666672px;stroke-linecap:butt;stroke-linejoin:miter;stroke-opacity:1"><flowRegion
           style="stroke-width:1.06666672px"
           id="flowRegion2332"><rect
             style="stroke-width:1.13777781px"
             id="rect2334"
             width="191.2381"
             height="50.285713"
             x="-24.913132"
             y="208.99586" /></flowRegion><flowPara
           id="flowPara2336"
           style="font-size:17.06666756px;stroke-width:1.06666672px">The 2nd point defines the center of the 1st gear</flowPara></flowRoot>      <flowRoot
         style="font-style:normal;font-weight:normal;font-size:23.46666718px;font-family:'Bitstream Vera Sans';fill:#000000;fill-opacity:1;stroke:none;stroke-width:1.06666672px;stroke-linecap:butt;stroke-linejoin:miter;stroke-opacity:1"
         id="flowRoot2338"
         xml:space="preserve"><flowRegion
           style="stroke-width:1.06666672px"
           id="flowRegion2340"><rect
             style="stroke-width:1.13777781px"
             y="32.233952"
             x="308.57144"
             height="50.285713"
             width="191.2381"
             id="rect2342" /></flowRegion><flowPara
           style="font-size:17.06666756px;stroke-width:1.06666672px"
           id="flowPara2344">The 3rd point defines the radius of the 1st gear</flowPara></flowRoot>      <path
         inkscape:connector-curvature="0"
         sodipodi:nodetypes="cc"
         id="path2346"
         d="m 147.21935,224.00421 84.3997,-24.91312"
         style="fill:none;fill-rule:evenodd;stroke:#ff0000;stroke-width:1.06666672px;stroke-linecap:butt;stroke-linejoin:miter;stroke-opacity:1" />
      <path
         inkscape:connector-curvature="0"
         style="fill:none;fill-rule:evenodd;stroke:#ff0000;stroke-width:1.06666672px;stroke-linecap:butt;stroke-linejoin:miter;stroke-opacity:1"
         d="m 147.21935,224.00421 84.3997,-24.91312"
         id="path2348"
         sodipodi:nodetypes="cc" />
      <path
         inkscape:connector-curvature="0"
         sodipodi:nodetypes="cc"
         id="path2350"
         d="M 298.60754,183.05936 328.5937,74.640297"
         style="fill:none;fill-rule:evenodd;stroke:#ff0000;stroke-width:1.06666672px;stroke-linecap:butt;stroke-linejoin:miter;stroke-opacity:1" />
      <flowRoot
         xml:space="preserve"
         id="flowRoot2352"
         style="font-style:normal;font-weight:normal;font-size:23.46666718px;font-family:'Bitstream Vera Sans';fill:#000000;fill-opacity:1;stroke:none;stroke-width:1.06666672px;stroke-linecap:butt;stroke-linejoin:miter;stroke-opacity:1"><flowRegion
           style="stroke-width:1.06666672px"
           id="flowRegion2354"><rect
             style="stroke-width:1.13777781px"
             id="rect2356"
             width="191.2381"
             height="50.285713"
             x="304.26144"
             y="309.15042" /></flowRegion><flowPara
           id="flowPara2358"
           style="font-size:17.06666756px;stroke-width:1.06666672px">More points define the centers of more gears</flowPara></flowRoot>      <path
         inkscape:connector-curvature="0"
         style="fill:none;fill-rule:evenodd;stroke:#ff0000;stroke-width:1.06666672px;stroke-linecap:butt;stroke-linejoin:miter;stroke-opacity:1"
         d="M 406.16106,304.76226 439.95674,187.96225"
         id="path2360"
         sodipodi:nodetypes="cc" />
      <path
         inkscape:connector-curvature="0"
         sodipodi:nodetypes="cc"
         id="path2362"
         d="m 362.7325,306.66703 -18.77575,-58.5143"
         style="fill:none;fill-rule:evenodd;stroke:#ff0000;stroke-width:1.06666672px;stroke-linecap:butt;stroke-linejoin:miter;stroke-opacity:1" />
    </g>
  </g>
</svg>
