<?xml version="1.0" encoding="UTF-8" standalone="no"?>
<!-- Created with Inkscape (http://www.inkscape.org/) -->

<svg
   xmlns:dc="http://purl.org/dc/elements/1.1/"
   xmlns:cc="http://creativecommons.org/ns#"
   xmlns:rdf="http://www.w3.org/1999/02/22-rdf-syntax-ns#"
   xmlns:svg="http://www.w3.org/2000/svg"
   xmlns="http://www.w3.org/2000/svg"
   xmlns:xlink="http://www.w3.org/1999/xlink"
   xmlns:sodipodi="http://sodipodi.sourceforge.net/DTD/sodipodi-0.dtd"
   xmlns:inkscape="http://www.inkscape.org/namespaces/inkscape"
   width="793.70081"
   height="1122.5197"
   id="svg2"
   sodipodi:version="0.32"
   inkscape:version="0.92.0 r15304"
   sodipodi:docname="rope-3D.svg"
   inkscape:output_extension="org.inkscape.output.svg.inkscape"
   sodipodi:modified="true"
   version="1.1">
  <defs
     id="defs4">
    <clipPath
       clipPathUnits="userSpaceOnUse"
       id="clipPath4523">
      <use
         x="0"
         y="0"
         xlink:href="#path3116"
         id="use4521"
         transform="translate(-5.4459255,292.17838)"
         width="744.09448"
         height="1052.3622" />
    </clipPath>
    <clipPath
       clipPathUnits="userSpaceOnUse"
       id="clipPath4643">
      <use
         x="0"
         y="0"
         xlink:href="#path3116"
         id="use4641"
         transform="translate(-5.4459255,136.17838)"
         width="744.09448"
         height="1052.3622" />
    </clipPath>
    <filter
       inkscape:collect="always"
       id="filter4662">
      <feGaussianBlur
         inkscape:collect="always"
         stdDeviation="6.5747873"
         id="feGaussianBlur4664" />
    </filter>
    <filter
       inkscape:collect="always"
       id="filter5670">
      <feGaussianBlur
         inkscape:collect="always"
         stdDeviation="6.5747873"
         id="feGaussianBlur5672" />
    </filter>
  </defs>
  <sodipodi:namedview
     id="base"
     pagecolor="#ffffff"
     bordercolor="#666666"
     borderopacity="1.0"
     gridtolerance="10000"
     guidetolerance="10"
     objecttolerance="10"
     inkscape:pageopacity="0.0"
     inkscape:pageshadow="2"
     inkscape:zoom="0.8880571"
     inkscape:cx="390.31137"
     inkscape:cy="707.92073"
     inkscape:document-units="px"
     inkscape:current-layer="layer1"
     inkscape:window-width="845"
     inkscape:window-height="1025"
     inkscape:window-x="0"
     inkscape:window-y="25"
     showgrid="false"
     inkscape:window-maximized="0" />
  <metadata
     id="metadata7">
    <rdf:RDF>
      <cc:Work
         rdf:about="">
        <dc:format>image/svg+xml</dc:format>
        <dc:type
           rdf:resource="http://purl.org/dc/dcmitype/StillImage" />
      </cc:Work>
    </rdf:RDF>
  </metadata>
  <g
     inkscape:label="Layer 1"
     inkscape:groupmode="layer"
     id="layer1">
    <use
       x="0"
       y="0"
       xlink:href="#use4519"
       id="use4526"
       transform="translate(448)"
       width="744.09448"
       height="1052.3622" />
    <text
       xml:space="preserve"
       style="font-style:normal;font-variant:normal;font-weight:normal;font-stretch:normal;font-size:18.8353138px;line-height:125%;font-family:'Bitstream Vera Serif';text-align:start;writing-mode:lr-tb;text-anchor:start;fill:#000000;fill-opacity:1;stroke:none;stroke-width:0.76358515px;stroke-linecap:butt;stroke-linejoin:miter;stroke-opacity:1"
       x="174.73824"
       y="1050.9255"
       id="text5678"><tspan
         sodipodi:role="line"
         id="tspan5680"
         x="174.73824"
         y="1050.9255"
         style="font-weight:bold;font-family:'Bitstream Vera Serif';stroke-width:0.76358515px">Best of all: edit the original shape     </tspan><tspan
         sodipodi:role="line"
         x="174.73824"
         y="1081.7593"
         style="font-weight:bold;font-family:'Bitstream Vera Serif';stroke-width:0.76358515px"
         id="tspan5412">and the entire 3D assembly updates live!</tspan></text>
    <use
       height="1052.3622"
       width="744.09448"
       transform="translate(5.8089872,654.74306)"
       id="use4519"
       xlink:href="#use3529"
       y="0"
       x="0"
       clip-path="url(#clipPath4523)" />
    <path
       style="fill-opacity:1;fill-rule:evenodd;stroke:none;stroke-width:17.06666756;stroke-linecap:butt;stroke-linejoin:miter;stroke-opacity:1"
       d="m 173.18668,34.357227 c -7.00949,-0.72512 -13.26864,1.8016 -19.8,5.4 -13.06273,7.196906 -27.60687,20.107946 -42.2,35.16672 -14.593133,15.058666 -28.963725,32.225173 -40.333336,47.733333 -11.3696,15.5081 -14.780245,20.37604 -20.478432,27.05906 -20.486069,20.79166 9.044053,37.86098 14.411765,16.37426 1.228587,-4.60693 8.971222,-18.51744 19.833334,-33.33333 10.862122,-14.81594 24.827019,-31.5146 38.799999,-45.933377 13.97298,-14.418773 28.19265,-26.586453 38.2,-32.099946 5.00368,-2.7568 9.01401,-3.912534 9.8,-3.4 1.53716,1.00224 1.16921,4.503786 -0.26667,8.099946 -1.43587,3.59616 -4.11089,8.234134 -7.53333,13.266667 -6.84488,10.065173 -16.62333,21.765333 -25.43333,32.96672 -8.81001,11.20139 -16.78666,21.41024 -20.06667,31.93332 -1.64001,5.26157 -2.0441,11.86218 1.86667,17.2 3.91076,5.33783 10.20724,7.3567 17.2,7.96667 10.97705,0.95752 19.17,-5.62989 28.13333,-12.93333 8.96333,-7.30345 18.31434,-16.50985 27.36667,-24.83333 9.05233,-8.32352 17.9659,-15.70432 24.5,-19.06666 3.26705,-1.68118 5.77494,-2.23734 7.03333,-2.2 1.25839,0.0373 1.49578,0 2.7,1.43328 1.29551,1.53749 2.14422,4.27712 2.33334,8.6 0.18912,4.32298 -0.30885,9.74197 -0.46667,15.33337 -0.15782,5.59142 -0.26403,11.68562 3.23333,17.7 3.49737,6.01438 11.18451,9.72241 19.56667,9.7 13.40388,-0.0358 22.52608,-8.60452 29.5,-15.43333 6.97392,-6.82881 12.32145,-12.70786 17.75434,-13.62831 5.9689,-1.00635 7.84782,0.58446 9.64566,1.89498 1.79785,1.31051 3.88571,4.28844 6.73333,8.66666 5.6442,8.67792 16.29249,21.37952 38.3,22.63334 0.1991,0.0113 0.3657,0.0572 0.56667,0.0667 v -0.0333 c 21.54946,2.20392 48.38497,-8.34311 70.76667,-23.96666 11.28685,-7.8788 21.31267,-17.18613 28.29999,-27.63327 6.98733,-10.447257 11.05994,-22.511577 8.63334,-34.76683 -1.54259,-7.790507 -6.39385,-14.228053 -12.63334,-17.166507 -6.23948,-2.93856 -12.98475,-2.760533 -19.26666,-1.30016 -12.77112,2.969174 -21.42306,16.166294 -24.18617,28.519254 -3.3666,15.050986 5.3246,18.040423 9.87177,6.604266 3.1734,-6.0048 10.94826,-16.773546 18.28107,-18.52352 3.66639,-0.874986 6.55589,-0.529173 8.03333,0.16672 1.47744,0.695787 2.36356,1.369067 3.13333,5.03328 1.37022,6.52256 -0.30662,13.643734 -4.92029,21.14784 -4.54294,7.389117 -11.89024,14.707307 -21.85777,21.665067 -19.93506,13.91575 -47.71821,23.72474 -62.03726,22.66004 l -0.27849,0.009 -0.27852,-0.0249 c -17.83448,-0.38703 -20.71232,-6.18422 -26.12767,-14.38976 -2.70871,-4.10441 -5.51115,-9.16564 -11,-13.16671 -5.48884,-4.00106 -12.48465,-7.072 -21.49849,-5.55232 -12.59192,2.13344 -21.23223,12.42112 -27.86817,18.91903 -6.63595,6.49788 -10.12848,10.51064 -16.05039,11.90063 -2.93948,0.68995 -5.43019,-1.3875 -6.31628,-2.60063 -0.77891,-1.06639 -1.09812,-3.97605 -0.96667,-8.63333 0.13146,-4.65738 0.76742,-10.42068 0.5,-16.53343 -0.26741,-6.11264 -1.46138,-13.0848 -6.33333,-18.866667 -3.86835,-4.59072 -9.69014,-7.335466 -15.23333,-7.499946 -5.5432,-0.16448 -10.56807,1.63072 -15.36667,4.099946 -9.59721,4.938667 -18.88759,13.073497 -28.23334,21.666667 -9.34575,8.59328 -18.61784,17.66279 -26.6,24.16676 -7.98215,6.50397 -15.08134,9.01694 -15.86666,9.16667 -4.32558,0.82474 -4.74125,-1.83562 -3.86427,-4.26696 1.82409,-5.0571 8.61098,-15.5886 17.16667,-26.46668 8.55569,-10.87808 18.13966,-21.52139 25.76426,-32.733123 3.8123,-5.60576 7.04265,-11.04672 9.23334,-16.533334 2.19069,-5.486613 3.58878,-11.294186 1.83333,-17.4 -2.07052,-7.201706 -8.62385,-13.274773 -15.63333,-14 z"
       id="path3116"
       sodipodi:nodetypes="csssccsssssssssssssssssssscsssccsssssscssssscccsscssssssssssssssssc"
       inkscape:connector-curvature="0" />
    <text
       xml:space="preserve"
       style="font-style:normal;font-variant:normal;font-weight:normal;font-stretch:normal;font-size:19.08639526px;line-height:125%;font-family:'Bitstream Vera Serif';text-align:start;writing-mode:lr-tb;text-anchor:start;fill:#000000;fill-opacity:1;stroke:none;stroke-width:1.06035531px;stroke-linecap:butt;stroke-linejoin:miter;stroke-opacity:1"
       x="486.31961"
       y="56.474079"
       id="text3273"
       transform="scale(0.9940831,1.0059521)"><tspan
         sodipodi:role="line"
         id="tspan3275"
         x="486.31961"
         y="56.474079"
         style="font-weight:bold;font-family:'Bitstream Vera Serif';stroke-width:1.06035531px">Original rope-like shape </tspan><tspan
         sodipodi:role="line"
         x="486.31961"
         y="80.332077"
         id="tspan3281"
         style="stroke-width:1.06035531px">with unset fill</tspan><tspan
         sodipodi:role="line"
         x="486.31961"
         y="104.19006"
         id="tspan4507"
         style="stroke-width:1.06035531px">(e.g. created by converting </tspan><tspan
         sodipodi:role="line"
         x="486.31961"
         y="128.04807"
         id="tspan4509"
         style="stroke-width:1.06035531px">stroke to path)</tspan><tspan
         sodipodi:role="line"
         x="486.31961"
         y="151.90605"
         id="tspan3515"
         style="stroke-width:1.06035531px" /><tspan
         sodipodi:role="line"
         x="486.31961"
         y="175.76405"
         id="tspan3517"
         style="stroke-width:1.06035531px" /><tspan
         sodipodi:role="line"
         x="486.31961"
         y="199.62204"
         id="tspan4511"
         style="stroke-width:1.06035531px" /><tspan
         sodipodi:role="line"
         x="486.31961"
         y="223.48004"
         id="tspan4513"
         style="stroke-width:1.06035531px" /><tspan
         sodipodi:role="line"
         x="486.31961"
         y="247.33803"
         id="tspan4540"
         style="stroke-width:1.06035531px">Create a clone, blur by 5%</tspan><tspan
         sodipodi:role="line"
         x="486.31961"
         y="271.19601"
         id="tspan3519"
         style="stroke-width:1.06035531px" /><tspan
         sodipodi:role="line"
         x="486.31961"
         y="295.05402"
         id="tspan3521"
         style="stroke-width:1.06035531px" /><tspan
         sodipodi:role="line"
         x="486.31961"
         y="318.91202"
         id="tspan3523"
         style="stroke-width:1.06035531px" /><tspan
         sodipodi:role="line"
         x="486.31961"
         y="342.77002"
         id="tspan4625"
         style="stroke-width:1.06035531px" /><tspan
         sodipodi:role="line"
         x="486.31961"
         y="366.62799"
         id="tspan4627"
         style="stroke-width:1.06035531px" /><tspan
         sodipodi:role="line"
         x="486.31961"
         y="390.48599"
         id="tspan4631"
         style="stroke-width:1.06035531px">Create another clone,</tspan><tspan
         sodipodi:role="line"
         x="486.31961"
         y="414.34399"
         id="tspan4633"
         style="stroke-width:1.06035531px">position it over the blurred one</tspan><tspan
         sodipodi:role="line"
         x="486.31961"
         y="438.202"
         id="tspan4635"
         style="stroke-width:1.06035531px">with some shift </tspan><tspan
         sodipodi:role="line"
         x="486.31961"
         y="462.05997"
         id="tspan4646"
         style="stroke-width:1.06035531px" /><tspan
         sodipodi:role="line"
         x="486.31961"
         y="485.91797"
         id="tspan4648"
         style="stroke-width:1.06035531px" /><tspan
         sodipodi:role="line"
         x="486.31961"
         y="509.77597"
         id="tspan4650"
         style="stroke-width:1.06035531px" /><tspan
         sodipodi:role="line"
         x="486.31961"
         y="533.63397"
         id="tspan4652"
         style="stroke-width:1.06035531px" /><tspan
         sodipodi:role="line"
         x="486.31961"
         y="557.49194"
         id="tspan4656"
         style="stroke-width:1.06035531px">Select both and do</tspan><tspan
         sodipodi:role="line"
         x="486.31961"
         y="581.34998"
         id="tspan4658"
         style="stroke-width:1.06035531px">Object &gt; Clip &gt; Set</tspan><tspan
         sodipodi:role="line"
         x="486.31961"
         y="605.20795"
         id="tspan4723"
         style="stroke-width:1.06035531px" /><tspan
         sodipodi:role="line"
         x="486.31961"
         y="629.06592"
         id="tspan4725"
         style="stroke-width:1.06035531px" /><tspan
         sodipodi:role="line"
         x="486.31961"
         y="652.92395"
         id="tspan4727"
         style="stroke-width:1.06035531px" /><tspan
         sodipodi:role="line"
         x="486.31961"
         y="676.78192"
         id="tspan4729"
         style="stroke-width:1.06035531px" /><tspan
         sodipodi:role="line"
         x="486.31961"
         y="700.63989"
         id="tspan4731"
         style="stroke-width:1.06035531px">Create a third clone, </tspan><tspan
         sodipodi:role="line"
         x="486.31961"
         y="724.49792"
         id="tspan4733"
         style="stroke-width:1.06035531px">paint yellow, </tspan><tspan
         sodipodi:role="line"
         x="486.31961"
         y="748.3559"
         id="tspan4735"
         style="stroke-width:1.06035531px">place under the clipped shader</tspan><tspan
         sodipodi:role="line"
         x="486.31961"
         y="772.21393"
         id="tspan5650"
         style="stroke-width:1.06035531px" /><tspan
         sodipodi:role="line"
         x="486.31961"
         y="796.0719"
         id="tspan5652"
         style="stroke-width:1.06035531px" /><tspan
         sodipodi:role="line"
         x="486.31961"
         y="819.92987"
         id="tspan5654"
         style="stroke-width:1.06035531px" /><tspan
         sodipodi:role="line"
         x="486.31961"
         y="843.7879"
         id="tspan5658"
         style="stroke-width:1.06035531px">Create a fourth clone, </tspan><tspan
         sodipodi:role="line"
         x="486.31961"
         y="867.64587"
         id="tspan5660"
         style="stroke-width:1.06035531px">blur 5%, opacity 40%,</tspan><tspan
         sodipodi:role="line"
         x="486.31961"
         y="891.50385"
         id="tspan5664"
         style="stroke-width:1.06035531px">place it at the bottom as a </tspan><tspan
         sodipodi:role="line"
         x="486.31961"
         y="915.36188"
         id="tspan5676"
         style="stroke-width:1.06035531px">drop shadow (with some shift)</tspan></text>
    <use
       x="0"
       y="0"
       xlink:href="#path3116"
       id="use3527"
       transform="translate(0.0136681,629.33333)"
       width="744.09448"
       height="1052.3622"
       style="fill:#fff900;fill-opacity:1" />
    <use
       style="fill:#000000;filter:url(#filter4662)"
       height="1052.3622"
       width="744.09448"
       transform="translate(0,157.86667)"
       id="use3529"
       xlink:href="#path3116"
       y="0"
       x="0" />
    <use
       x="0"
       y="0"
       xlink:href="#use3529"
       id="use4492"
       transform="translate(5.8089872,164.07639)"
       width="744.09448"
       height="1052.3622" />
    <use
       height="1052.3622"
       width="744.09448"
       transform="translate(0,309.33333)"
       id="use4496"
       xlink:href="#path3116"
       y="0"
       x="0" />
    <use
       height="1052.3622"
       width="744.09448"
       transform="translate(5.8089872,334.74306)"
       id="use4639"
       xlink:href="#use3529"
       y="0"
       x="0"
       clip-path="url(#clipPath4643)" />
    <use
       clip-path="url(#clipPath4643)"
       x="0"
       y="0"
       xlink:href="#use3529"
       id="use4660"
       transform="translate(5.8089872,484.07639)"
       width="744.09448"
       height="1052.3622" />
    <use
       x="0"
       y="0"
       xlink:href="#path3116"
       id="use4743"
       transform="translate(10.447534,793.72703)"
       width="744.09448"
       height="1052.3622"
       style="opacity:0.4;filter:url(#filter5670)" />
    <use
       style="fill:#fff900;fill-opacity:1"
       height="1052.3622"
       width="744.09448"
       transform="translate(3.0896657,785.1937)"
       id="use4737"
       xlink:href="#path3116"
       y="0"
       x="0" />
    <use
       height="1052.3622"
       width="744.09448"
       transform="translate(8.8849849,639.93676)"
       id="use4739"
       xlink:href="#use3529"
       y="0"
       x="0"
       clip-path="url(#clipPath4643)" />
    <g
       id="g4292"
       transform="matrix(0.25,0,0,0.25,148.0294,-32.494187)">
      <path
         style="font-style:normal;font-variant:normal;font-weight:normal;font-stretch:normal;font-size:128px;line-height:125%;font-family:Atkins;text-align:start;writing-mode:lr-tb;text-anchor:start;fill:#000000;fill-opacity:1;stroke:none;stroke-width:1.06666672px;stroke-linecap:butt;stroke-linejoin:miter;stroke-opacity:1"
         d="m 546.50271,381.89516 5.3248,0.13653 c 5.64336,9e-5 9.9214,-1.18321 12.83413,-3.54987 3.0037,-2.36649 5.27926,-6.37146 6.82667,-12.01493 h 20.8896 v 94.34453 h -23.7568 v -60.6208 h -22.1184 v -18.29546"
         id="text4244"
         inkscape:connector-curvature="0" />
      <circle
         id="path4248"
         style="color:#000000;display:inline;overflow:visible;visibility:visible;opacity:0.92000002;fill:none;fill-opacity:1;fill-rule:nonzero;stroke:#000000;stroke-width:18.01886368;stroke-linecap:round;stroke-linejoin:round;stroke-miterlimit:4;stroke-dasharray:none;stroke-dashoffset:0;stroke-opacity:1;marker:none;marker-start:none;marker-mid:none;marker-end:none;enable-background:accumulate"
         cx="576.83215"
         cy="415.51541"
         r="71.730812"
         d="m 648.56297,415.51541 a 71.730812,71.730812 0 0 1 -71.73082,71.73081 71.730812,71.730812 0 0 1 -71.73081,-71.73081 71.730812,71.730812 0 0 1 71.73081,-71.73081 71.730812,71.730812 0 0 1 71.73082,71.73081 z" />
    </g>
    <g
       id="g4297"
       transform="matrix(0.25,0,0,0.25,147.49969,87.656853)">
      <path
         style="font-style:normal;font-variant:normal;font-weight:normal;font-stretch:normal;font-size:128px;line-height:125%;font-family:Atkins;text-align:start;writing-mode:lr-tb;text-anchor:start;fill:#000000;fill-opacity:1;stroke:none;stroke-width:1.06666672px;stroke-linecap:butt;stroke-linejoin:miter;stroke-opacity:1"
         d="m 576.13044,535.35866 c 9.01116,9e-5 16.70253,2.63974 23.07414,7.91893 6.8266,5.64347 10.23992,12.92524 10.24,21.84533 -8e-5,14.29054 -11.6054,29.62778 -34.816,46.01174 h 35.08906 v 20.34346 h -66.08213 l 0.8192,-21.57226 24.43947,-19.38774 c 10.74057,-9.73933 16.11089,-17.74927 16.11093,-24.02986 -4e-5,-2.82163 -0.91027,-5.14269 -2.73067,-6.9632 -1.63844,-1.82038 -3.91399,-2.7306 -6.82666,-2.73067 -4.09604,7e-5 -7.09977,1.63847 -9.0112,4.9152 -1.0923,1.91154 -2.18456,5.37038 -3.2768,10.37653 l -22.39147,-1.2288 c 2.36657,-23.66569 14.15394,-35.49857 35.36213,-35.49866"
         id="text4250"
         inkscape:connector-curvature="0" />
      <circle
         style="color:#000000;display:inline;overflow:visible;visibility:visible;opacity:0.92000002;fill:none;fill-opacity:1;fill-rule:nonzero;stroke:#000000;stroke-width:18.01886368;stroke-linecap:round;stroke-linejoin:round;stroke-miterlimit:4;stroke-dasharray:none;stroke-dashoffset:0;stroke-opacity:1;marker:none;marker-start:none;marker-mid:none;marker-end:none;enable-background:accumulate"
         id="path4254"
         cx="576.83215"
         cy="586.18207"
         r="71.730812" />
    </g>
    <g
       id="g4306"
       transform="matrix(0.25,0,0,0.25,148.00311,202.31392)">
      <path
         style="font-style:normal;font-variant:normal;font-weight:normal;font-stretch:normal;font-size:128px;line-height:125%;font-family:Atkins;text-align:start;writing-mode:lr-tb;text-anchor:start;fill:#000000;fill-opacity:1;stroke:none;stroke-width:1.06666672px;stroke-linecap:butt;stroke-linejoin:miter;stroke-opacity:1"
         d="m 563.40251,773.19972 c -2e-5,3.18581 1.13776,5.82545 3.41333,7.91894 2.36655,2.0025 5.18825,3.00375 8.46507,3.00373 9.28422,2e-5 13.92635,-3.50433 13.9264,-10.51307 -5e-5,-4.91517 -2.59418,-8.05542 -7.7824,-9.4208 -1.0923,-0.27302 -2.77622,-0.50058 -5.05174,-0.68266 -2.18456,-0.18201 -5.05175,-0.27303 -8.6016,-0.27307 v -17.2032 h 2.8672 c 10.28548,5e-5 15.42823,-3.0947 15.42827,-9.28427 -4e-5,-6.64454 -3.32235,-9.96686 -9.96693,-9.96693 -6.82669,7e-5 -10.55861,3.86852 -11.19574,11.60533 l -22.528,-1.6384 c 2.63965,-20.47991 14.83661,-30.7199 36.59094,-30.72 8.55604,1e-4 15.70128,2.00258 21.43573,6.00747 6.46252,4.64222 9.6938,11.05928 9.69387,19.2512 -7e-5,10.64966 -5.14282,17.47632 -15.42827,20.48 6.3715,2.45765 10.96812,5.23382 13.78987,8.32853 3.45877,3.73195 5.1882,8.73817 5.18826,15.01867 -6e-5,9.7394 -3.95953,17.1577 -11.8784,22.25493 -6.73569,4.27805 -15.29177,6.41707 -25.66826,6.41707 -10.01247,0 -18.06793,-2.23004 -24.1664,-6.69013 -6.5536,-4.91519 -10.37654,-12.15145 -11.4688,-21.7088 l 22.9376,-2.18454"
         id="text4256"
         inkscape:connector-curvature="0" />
      <circle
         id="path4260"
         style="color:#000000;display:inline;overflow:visible;visibility:visible;opacity:0.92000002;fill:none;fill-opacity:1;fill-rule:nonzero;stroke:#000000;stroke-width:18.01886368;stroke-linecap:round;stroke-linejoin:round;stroke-miterlimit:4;stroke-dasharray:none;stroke-dashoffset:0;stroke-opacity:1;marker:none;marker-start:none;marker-mid:none;marker-end:none;enable-background:accumulate"
         cx="576.83215"
         cy="756.84875"
         r="71.730812" />
    </g>
    <g
       id="g4311"
       transform="matrix(0.25,0,0,0.25,100.38212,371.85986)">
      <path
         style="font-style:normal;font-variant:normal;font-weight:normal;font-stretch:normal;font-size:128px;line-height:125%;font-family:Atkins;text-align:start;writing-mode:lr-tb;text-anchor:start;fill:#000000;fill-opacity:1;stroke:none;stroke-width:1.06666672px;stroke-linecap:butt;stroke-linejoin:miter;stroke-opacity:1"
         d="m 727.0111,760.91172 39.3216,-53.11146 h 22.66454 v 56.9344 h 12.56106 v 18.70506 h -12.56106 v 18.70507 h -23.7568 V 783.43972 H 727.0111 v -22.528 m 39.04854,3.82294 c -3e-5,-3.82289 0.22752,-9.05667 0.68266,-15.70134 0.45508,-6.64456 0.68263,-11.3777 0.68267,-14.19946 -0.91026,1.45642 -3.09479,4.82424 -6.5536,10.10346 -3.00376,4.55117 -7.41834,11.15027 -13.24373,19.79734 h 18.432"
         id="text4262"
         inkscape:connector-curvature="0" />
      <circle
         style="color:#000000;display:inline;overflow:visible;visibility:visible;opacity:0.92000002;fill:none;fill-opacity:1;fill-rule:nonzero;stroke:#000000;stroke-width:18.01886368;stroke-linecap:round;stroke-linejoin:round;stroke-miterlimit:4;stroke-dasharray:none;stroke-dashoffset:0;stroke-opacity:1;marker:none;marker-start:none;marker-mid:none;marker-end:none;enable-background:accumulate"
         id="path4266"
         cx="768.83221"
         cy="756.84875"
         r="71.730812" />
    </g>
    <g
       id="g4318"
       transform="matrix(0.25,0,0,0.25,57.682571,520.87168)">
      <path
         style="font-style:normal;font-variant:normal;font-weight:normal;font-stretch:normal;font-size:128px;line-height:125%;font-family:Atkins;text-align:start;writing-mode:lr-tb;text-anchor:start;fill:#000000;fill-opacity:1;stroke:none;stroke-width:1.06666672px;stroke-linecap:butt;stroke-linejoin:miter;stroke-opacity:1"
         d="m 924.37764,771.28826 c 0.54611,3.54989 2.04798,6.64465 4.5056,9.28426 2.5486,2.36661 5.64335,3.54989 9.28427,3.54987 4.00494,2e-5 7.32724,-1.27429 9.96693,-3.82293 2.73063,-2.63962 4.09596,-5.96193 4.096,-9.96694 -4e-5,-3.64085 -1.27435,-6.87214 -3.82293,-9.69386 -2.54866,-2.82165 -5.68893,-4.23248 -9.4208,-4.23254 -4.91523,6e-5 -9.01122,1.91151 -12.288,5.7344 h -20.8896 l 5.46133,-54.34026 h 60.75734 l -2.048,19.79733 h -40.96 l -1.50187,15.1552 c 6.18948,-3.91389 11.92387,-5.87087 17.2032,-5.87093 9.01115,6e-5 16.42945,3.04931 22.25493,9.14773 5.91638,6.09854 8.87459,13.60787 8.87467,22.528 -8e-5,10.64962 -3.77749,19.29672 -11.33227,25.94133 -7.09978,6.28054 -16.11097,9.4208 -27.0336,9.4208 -9.83042,0 -17.9769,-2.68515 -24.43946,-8.05546 -6.46259,-5.3703 -10.19449,-12.97065 -11.19574,-22.80107 l 22.528,-1.77493"
         id="text4268"
         inkscape:connector-curvature="0" />
      <circle
         id="path4272"
         style="color:#000000;display:inline;overflow:visible;visibility:visible;opacity:0.92000002;fill:none;fill-opacity:1;fill-rule:nonzero;stroke:#000000;stroke-width:18.01886368;stroke-linecap:round;stroke-linejoin:round;stroke-miterlimit:4;stroke-dasharray:none;stroke-dashoffset:0;stroke-opacity:1;marker:none;marker-start:none;marker-mid:none;marker-end:none;enable-background:accumulate"
         cx="939.49884"
         cy="756.84875"
         r="71.730812" />
    </g>
    <g
       id="g4323"
       transform="matrix(0.25,0,0,0.25,57.674037,713.76057)">
      <path
         style="font-style:normal;font-variant:normal;font-weight:normal;font-stretch:normal;font-size:128px;line-height:125%;font-family:Atkins;text-align:start;writing-mode:lr-tb;text-anchor:start;fill:#000000;fill-opacity:1;stroke:none;stroke-width:1.06666672px;stroke-linecap:butt;stroke-linejoin:miter;stroke-opacity:1"
         d="m 949.80318,561.02692 c -1.91152,-4.64206 -5.23383,-6.96312 -9.96693,-6.9632 -5.5524,8e-5 -9.64839,2.73074 -12.288,8.192 -1.9115,4.09607 -2.86724,9.28433 -2.8672,15.5648 5.37028,-5.46127 12.01489,-8.19193 19.93386,-8.192 8.8291,7e-5 16.15639,3.0038 21.98187,9.0112 5.82534,5.91649 8.73806,13.3348 8.73813,22.25494 -7e-5,9.01122 -3.36789,16.65708 -10.10346,22.9376 -6.73571,6.28053 -14.65464,9.4208 -23.7568,9.4208 -13.56235,0 -23.75683,-4.64214 -30.58347,-13.9264 -5.82543,-8.19198 -8.73813,-19.38771 -8.73813,-33.5872 0,-13.01612 2.86718,-24.25736 8.6016,-33.72374 6.73562,-11.10462 16.24743,-16.65697 28.53546,-16.65706 17.65825,9e-5 28.99051,8.10106 33.9968,24.30293 l -23.48373,1.36533 m -9.96693,53.11147 c 3.54982,2e-5 6.46252,-1.18326 8.73813,-3.54987 2.2755,-2.36655 3.41328,-5.27926 3.41333,-8.73813 -5e-5,-3.36779 -1.13783,-6.14396 -3.41333,-8.32853 -2.18459,-2.18449 -5.05178,-3.27676 -8.6016,-3.2768 -3.45888,4e-5 -6.46261,1.09231 -9.0112,3.2768 -2.54865,2.09354 -3.82297,4.91523 -3.82293,8.46506 -4e-5,3.36785 1.22876,6.28056 3.6864,8.73814 2.54858,2.27557 5.55232,3.41335 9.0112,3.41333"
         id="text4274"
         inkscape:connector-curvature="0" />
      <circle
         style="color:#000000;display:inline;overflow:visible;visibility:visible;opacity:0.92000002;fill:none;fill-opacity:1;fill-rule:nonzero;stroke:#000000;stroke-width:18.01886368;stroke-linecap:round;stroke-linejoin:round;stroke-miterlimit:4;stroke-dasharray:none;stroke-dashoffset:0;stroke-opacity:1;marker:none;marker-start:none;marker-mid:none;marker-end:none;enable-background:accumulate"
         id="path4278"
         cx="939.49884"
         cy="586.18207"
         r="71.730812" />
    </g>
    <use
       x="0"
       y="0"
       xlink:href="#g4292"
       id="use3398"
       transform="matrix(0.5,0,0,0.5,413.83356,1007.4092)"
       width="744.09448"
       height="1052.3622" />
  </g>
</svg>
