<?xml version="1.0" encoding="UTF-8" standalone="no"?>
<!DOCTYPE svg PUBLIC "-//W3C//DTD SVG 20010904//EN"
"http://www.w3.org/TR/2001/REC-SVG-20010904/DTD/svg10.dtd">
<!-- Created with Inkscape (http://www.inkscape.org/) -->
<svg
   id="svg672"
   sodipodi:version="0.32"
   inkscape:version="0.37"
   width="210mm"
   height="297mm"
   sodipodi:docbase="/home/users/myrkraverk/src/new/inkscape/clipart"
   sodipodi:docname="ribbon.svg"
   xmlns="http://www.w3.org/2000/svg"
   xmlns:inkscape="http://www.inkscape.org/namespaces/inkscape"
   xmlns:sodipodi="http://sodipodi.sourceforge.net/DTD/sodipodi-0.dtd"
   xmlns:ns="http://web.resource.org/cc/"
   xmlns:rdf="http://www.w3.org/1999/02/22-rdf-syntax-ns#"
   xmlns:dc="http://purl.org/dc/elements/1.1/"
   xmlns:xlink="http://www.w3.org/1999/xlink">
  <defs
     id="defs674" />
  <sodipodi:namedview
     id="base"
     pagecolor="#ffffff"
     bordercolor="#666666"
     borderopacity="1.0"
     inkscape:pageopacity="0.0"
     inkscape:pageshadow="2"
     inkscape:zoom="0.42998504"
     inkscape:cx="297.637788"
     inkscape:cy="420.944873"
     inkscape:window-width="640"
     inkscape:window-height="496"
     inkscape:window-x="132"
     inkscape:window-y="55" />
  <g
     id="g716"
     transform="translate(0.000000,11.62831)">
    <path
       style="font-size:12;fill:#ffffff;fill-rule:evenodd;stroke:#000000;stroke-width:1pt;"
       d="M 514.66556 285.82281 C 580.80931 267.21289 644.68029 307.0916 703.77034 281.85116 C 693.71249 312.32771 655.64843 314.9027 636.1333 326.5063 C 655.23069 338.17798 693.57044 349.82318 706.26547 371.47538 C 634.06685 352.63646 552.54207 365.95684 530.38975 363.42515 L 506.02219 327.34851 C 503.17403 319.75343 503.20834 288.94896 514.66556 285.82281 z "
       id="path685"
       sodipodi:nodetypes="ccccccs"
       transform="translate(0.000000,-31.48981)" />
    <path
       style="font-size:12;fill:#7f7f7f;fill-rule:evenodd;stroke:#000000;stroke-width:1pt;"
       d="M 554.50896 304.98604 C 545.45279 290.00969 506.96067 314.08992 507.13077 294.87781 C 502.39175 303.59578 502.8822 335.19126 507.30166 341.03475 C 512.57645 341.28955 535.24847 328.50409 540.52326 328.75889 C 551.05273 327.25692 557.23116 318.60663 554.50896 304.98604 z "
       id="path677"
       sodipodi:nodetypes="ccccc"
       transform="translate(0.000000,-31.48981)" />
    <path
       style="font-size:12;fill:#ffffff;fill-rule:evenodd;stroke:#000000;stroke-width:1pt;"
       d="M 233.74741 283.01121 C 167.60366 264.40129 103.73268 304.28 44.642633 279.03956 C 54.700483 309.51611 92.764543 312.0911 112.27967 323.6947 C 93.182283 335.36638 54.842533 347.01158 42.147503 368.66378 C 114.34612 349.82486 195.8709 363.14524 218.02322 360.61355 L 242.39078 324.53691 C 245.23894 316.94183 245.20463 286.13736 233.74741 283.01121 z "
       id="path686"
       sodipodi:nodetypes="ccccccs"
       transform="translate(0.000000,-31.48981)" />
    <path
       style="font-size:12;fill:#7f7f7f;fill-rule:evenodd;stroke:#000000;stroke-width:1pt;"
       d="M 193.90401 302.17444 C 202.96018 287.19809 241.4523 311.27832 241.2822 292.06621 C 246.02122 300.78418 245.53077 327.60823 241.11131 335.0422 C 235.83652 335.297 213.1645 325.69249 207.88971 325.94729 C 197.36024 324.44532 191.18181 315.79503 193.90401 302.17444 z "
       id="path687"
       sodipodi:nodetypes="ccccc"
       transform="translate(0.000000,-31.48981)" />
    <path
       style="font-size:12;fill:#ffffff;fill-rule:evenodd;stroke:#000000;stroke-width:1pt;"
       d="M 193.98228 302.04227 C 195.5506 322.15813 204.05764 323.72581 209.59696 324.48492 C 309.02988 337.31606 479.1509 337.89656 539.20028 327.99319 C 544.55912 328.75128 553.40962 321.88708 554.42573 305.05795 C 561.265 310.43226 558.92688 350.93381 555.95584 366.75135 C 554.45616 374.73553 556.66055 380.80948 541.89448 384.85498 C 425.8662 392.37508 315.37347 395.13299 209.23749 384.36402 C 182.63496 382.25722 178.2842 322.44766 193.98228 302.04227 z "
       id="path675"
       sodipodi:nodetypes="cscccccc"
       transform="translate(0.000000,-31.48981)" />
  </g>
  <rdf:RDF
     id="RDF1027">
    <ns:Work
       rdf:about="">
      <dc:title>Inkscape Clipart</dc:title>
      <dc:rights>
        <ns:Agent>
          <dc:title>Johann &quot;Myrkraverk&quot; Oskarsson</dc:title>
        </ns:Agent>
      </dc:rights>
      <ns:license
         rdf:resource="http://web.resource.org/cc/PublicDomain" />
    </ns:Work>
    <ns:License
       rdf:about="http://web.resource.org/cc/PublicDomain">
      <ns:permits
         rdf:resource="http://web.resource.org/cc/Reproduction" />
      <ns:permits
         rdf:resource="http://web.resource.org/cc/Distribution" />
      <ns:permits
         rdf:resource="http://web.resource.org/cc/DerivativeWorks" />
    </ns:License>
  </rdf:RDF>
</svg>
