<?xml version="1.0" encoding="UTF-8" standalone="no"?>
<!DOCTYPE svg PUBLIC "-//W3C//DTD SVG 20010904//EN"
"http://www.w3.org/TR/2001/REC-SVG-20010904/DTD/svg10.dtd">
<!-- Created with Inkscape ("http://www.inkscape.org/") -->
<svg
   style="fill:#000000;fill-opacity:1;stroke:none"
   width="595.275591"
   height="841.889764"
   id="svg75"
   sodipodi:docbase="./samples"
   sodipodi:docname="./samples/tux.svg"
   sodipodi:version="0.32"
   xmlns="http://www.w3.org/2000/svg"
   xmlns:sodipodi="http://sodipodi.sourceforge.net/DTD/sodipodi-0.dtd"
   xmlns:inkscape="http://www.inkscape.org/namespaces/inkscape"
   xmlns:xlink="http://www.w3.org/1999/xlink"
   inkscape:version="0.37cvs">
  <defs
     id="defs77" />
  <sodipodi:namedview
     id="base"
     inkscape:zoom="1.51182741"
     inkscape:cx="257.292189"
     inkscape:cy="340.724418"
     inkscape:window-width="1076"
     inkscape:window-height="847"
     inkscape:window-x="0"
     inkscape:window-y="0" />
  <g
     id="g289"
     transform="translate(-0.826814,-8.526513e-14)">
    <path
       transform="translate(-188.771,11.2936)"
       id="path4"
       style="stroke-width:1;stroke:none;fill-opacity:1;fill:#ffffff;"
       d="M 344.427 534.692 L 396.057 616.976 L 463.014 650.858 L 564.66 617.783 L 625.97 522.591 L 619.517 433.852 L 569.5 322.526 L 546.106 278.157 L 421.065 279.77 L 414.611 317.686 L 371.049 391.096 L 342.007 470.961 L 344.427 534.692 z " />
    <g
       transform="translate(107.656,-154.861)"
       id="g5"
       style="fill:#000000; fill-opacity:1; stroke:none; ">
      <path
         id="path108"
         d="M329.336 727.552C315.224 726.328 304.136 715.816 303.128 694.936C306.368 639.496 309.608 582.112 271.232 545.104C265.256 499.024 244.016 482.104 234.008 452.512L218.24 441.208L237.104 411.688L245.168 411.904L323.936 571.168L340.424 651.448L329.336 727.552z"
         style="fill:#c1c1bf;" />
      <path
         id="path107"
         d="M136.232 439.696C133.856 455.248 132.56 470.512 134.792 485.272C118.376 507.592 105.92 530.128 104.48 553.312C92.024 586.504 62.432 614.584 67.544 680.104C84.176 697.456 107.432 713.584 127.376 730.36C152.432 751.312 137.528 778.96 102.248 772.408C94.4 763.768 76.616 709.624 42.92 676.288L49.544 632.584L81.368 547.408L120.968 484.048L125.36 456.688L119.816 386.776L124.424 361.216L136.232 439.696L136.232 439.696z"
         style="fill:#c1c1bf;" />
      <path
         id="path106"
         d="M115.64 341.416C116.576 336.376 117.8 331.624 119.312 327.16L121.688 342.784L115.64 341.416z"
         style="fill:#c1c1bf;" />
      <path
         id="path105"
         d="M120.968 500.464C108.368 523.792 103.976 546.256 132.92 550.216C117.008 553.888 97.208 568.648 77.192 593.488L77.624 543.016L101.456 503.272L120.968 500.464z"
         style="fill:#c1c1bf;" />
      <path
         id="path104"
         d="M-33.256 818.488C10.52 838.144 41.408 837.064 69.272 850.96C91.304 862.552 113.552 861.184 126.944 847.144C138.32 832.456 146.744 831.736 163.52 830.224C190.952 828.568 217.736 828.28 241.928 830.8L269.576 833.032C269.072 864.064 328.04 867.88 345.392 844.336C366.344 819.424 395.144 808.264 419.84 790.192L289.304 725.536C255.824 806.464 131.048 827.632 113.768 763.264L-33.256 818.488z"
         style="fill:#c1c1bf;" />
      <path
         id="path103"
         d="M286.424 711.568C273.824 711.496 260.936 715.6 261.944 732.16L266.192 776.44L304.424 756.64L286.424 711.568z"
         style="fill:#c1c1bf;" />
      <path
         id="path102"
         d="M-37.36 821.224C7.136 840.88 38.6 839.728 66.968 853.696C89.36 865.216 111.968 863.92 125.648 849.808C137.24 835.192 145.808 834.472 162.872 832.96C190.736 831.232 218.024 831.016 242.648 833.464L270.728 835.768C270.224 866.8 330.272 870.544 347.912 847C369.224 822.088 398.528 811 423.656 792.856L290.816 728.272C256.76 809.128 129.824 830.296 112.256 766L-37.36 821.224z" />
      <path
         id="path101"
         d="M382.328 691.984C403.64 698.968 389.888 720.28 400.76 732.52C405.44 742.888 415.304 752.032 431.792 760.528C459.368 774.424 426.248 799.336 392.768 812.08C351.944 825.616 344.024 862.912 299.312 851.896C283.112 846.496 278.36 831.808 278.864 809.128C284.264 762.76 277.784 730.432 278.792 698.824C278.72 686.152 283.544 684.64 307.232 687.952C310.04 726.328 352.376 727.336 382.328 691.984z"
         style="fill:#b77200;" />
      <path
         id="path100"
         d="M339.632 826.624C371.6 814.312 403.856 798.112 429.848 782.128C437.84 777.448 438.92 765.928 427.688 762.328C403.352 748.504 390.104 731.224 392.912 708.76C393.344 700.912 383.696 692.56 381.104 700.048C359.864 771.472 291.32 767.656 300.752 696.952C301.256 694.864 301.76 692.776 302.264 690.76C289.952 688.24 285.2 690.976 285.776 700.408L295.28 806.608C297.656 830.8 317.312 836.128 339.632 826.624z"
         style="fill:#f2b700;" />
      <path
         id="path99"
         d="M354.464 537.544C379.16 569.8 404.432 651.088 384.416 691.552C360.944 737.776 307.808 743.248 305.504 695.8C308.816 639.64 311.984 581.536 273.68 544.096C267.704 497.368 246.392 480.232 236.384 450.28L203.12 426.088L133.568 435.088C130.76 452.152 129.104 468.784 131.552 484.912C115.064 507.376 102.608 530.056 101.168 553.312C88.712 586.648 59.12 614.944 64.232 680.752C80.864 698.248 104.12 714.448 124.064 731.296C149.12 752.392 135.512 776.296 100.232 769.672C78.848 746.056 56.744 722.872 35.288 699.328C12.392 683.056 3.896 662.176 27.368 630.496C43.424 609.04 47.96 562.456 62 543.664C74.312 525.16 92.24 508.6 105.272 490.096C112.184 477.928 114.344 468.568 113.264 454.456L110.312 369.136C108.368 307.216 142.424 274.24 189.8 275.248C243.512 275.752 287.576 312.472 288.152 378.28C292.688 410.32 283.256 428.68 308.672 474.472C334.52 522.712 338.552 520.12 354.464 537.544z" />
      <path
         id="path98"
         d="M261.296 503.632L263.528 512.2C257.696 501.688 250.712 483.616 241.928 475.696C239.264 473.536 235.808 473.608 233.72 475.624C222.056 486.928 193.112 510.112 169.928 507.088C152.072 505.288 134.648 493.264 130.832 480.232C128.816 470.872 129.752 463.168 130.976 455.32L240.704 453.52C238.472 463.168 253.088 487 261.296 503.632z"
         style="fill:#c1c1bf;" />
      <path
         id="path97"
         d="M143.144 363.232C154.088 363.232 163.88 376.84 163.808 395.632C163.736 408.232 155.528 411.472 149.336 417.016C146.6 419.536 145.952 433.144 142.568 433.144C131.696 433.144 123.488 413.776 123.488 395.632C123.488 377.56 132.272 363.232 143.144 363.232z"
         style="fill:#c1c1bf;" />
      <path
         id="path96"
         d="M144.368 375.04C154.088 375.04 160.856 379.936 161.648 391.312C162.224 399.16 160.136 411.76 154.664 414.424C152.144 415.648 143.432 426.664 140.408 426.52C128.096 425.944 125 402.112 125.936 390.736C126.8 379.36 134.72 375.04 144.368 375.04z"
         style="fill:#ffffff;" />
      <path
         id="path95"
         d="M141.848 382.672C148.544 382.096 154.736 389.728 155.6 399.664C156.464 409.6 151.64 418.24 144.944 418.816C138.248 419.392 132.056 411.76 131.192 401.752C130.328 391.816 135.152 383.248 141.848 382.672z" />
      <path
         id="path94"
         d="M151.064 397.288C151.424 399.088 149.408 400.024 148.832 398.224C148.256 395.992 146.888 393.328 145.088 391.168C143.936 389.872 145.088 388.432 146.528 389.44C149.048 391.528 150.488 394.12 151.064 397.288z"
         style="fill:#c1c1bf;" />
      <path
         id="path93"
         d="M216.944 360.712C232.712 360.712 245.6 377.416 245.6 397.792C245.6 418.24 232.712 434.872 216.944 434.872C201.176 434.872 188.432 418.24 188.432 397.792C188.432 377.416 201.176 360.712 216.944 360.712z"
         style="fill:#c1c1bf;" />
      <path
         id="path92"
         d="M224.792 374.968C235.664 378.856 241.928 387.424 242.72 396.568C243.656 407.08 239.408 418.96 230.264 425.944C227.672 427.888 197.72 416.08 195.992 411.616C193.4 405.208 191.816 392.896 193.76 385.624C194.552 382.744 197.216 378.568 201.176 376.336C207.44 372.808 216.656 372.088 224.792 374.968z"
         style="fill:#ffffff;" />
      <path
         id="path91"
         d="M216.872 380.944C225.584 380.944 232.712 389.296 232.712 399.448C232.712 409.672 225.584 418.024 216.872 418.024C208.16 418.024 201.032 409.672 201.032 399.448C201.032 389.296 208.16 380.944 216.872 380.944z" />
      <path
         id="path90"
         d="M227.096 392.392C228.104 394.048 226.448 395.776 225.224 394.12C223.784 392.104 221.408 389.944 218.888 388.432C217.232 387.568 217.808 385.624 219.68 386.2C222.92 387.28 225.368 389.368 227.096 392.392z"
         style="fill:#c1c1bf;" />
      <path
         id="path89"
         d="M164.96 404.488C172.376 402.328 184.112 403.048 192.248 404.632C200.384 406.792 222.056 418.24 245.024 430.696C247.976 432.208 248.84 437.104 245.024 438.688C239.12 439.12 249.272 453.664 238.904 458.848C223.352 462.88 198.44 485.992 186.128 487.864C179.288 489.376 172.232 489.592 164.6 487.864C140.552 482.968 134.216 455.608 122.912 450.064C119.816 446.824 121.4 441.208 122.408 440.056C123.632 434.224 149.696 406.216 164.96 404.488z"
         style="fill:#b77200;" />
      <path
         id="path88"
         d="M185.408 405.856C198.44 407.296 226.088 423.928 239.408 430.624C242.72 432.424 242.504 437.824 239.552 438.688C236.384 440.488 235.448 438.256 232.928 437.896C228.896 435.736 222.272 440.92 217.016 444.88C186.704 467.776 180.656 465.256 156.176 462.664C147.68 460.576 142.136 457.984 139.688 455.968C141.488 445.888 160.496 407.656 166.76 406.792C168.344 404.704 179.936 404.632 185.408 405.856z"
         style="fill:#f2b700;" />
      <path
         id="path87"
         d="M190.664 412.048L193.76 413.416C196.064 414.712 193.256 418.168 190.736 417.088L186.2 415.504C183.536 413.272 186.704 410.104 190.664 412.048z"
         style="fill:#b77200;" />
      <path
         id="path86"
         d="M268.568 452.368C273.032 454.384 279.224 457.192 282.536 460.144C285.488 464.104 286.784 468.064 286.424 472.024C285.776 474.544 284.12 476.344 281.24 477.424C277.856 478.216 273.68 477.424 271.376 474.112C269.864 471.448 265.256 462.16 263.96 460.576C262.232 457.12 261.944 454.456 262.88 452.368C264.032 451.288 266.048 451 268.568 452.368z"
         style="fill:#b77200;" />
      <path
         id="path85"
         d="M273.752 461.584C275.48 462.376 277.928 463.456 279.224 464.68C280.376 466.264 280.88 467.776 280.736 469.36C280.52 470.296 279.8 471.016 278.72 471.448C277.352 471.808 275.768 471.448 274.832 470.152C274.256 469.144 272.456 465.472 271.952 464.824C271.232 463.456 271.088 462.448 271.448 461.584C271.952 461.152 272.744 461.08 273.752 461.584z"
         style="fill:#c1c1bf;" />
      <path
         id="path84"
         d="M238.616 358.552C239.048 359.2 238.976 359.776 238.4 360.28C237.896 360.784 237.176 360.712 236.24 360.208L231.632 356.248C231.056 355.744 230.912 354.952 231.272 354.088C232.28 353.44 233.144 353.44 233.936 354.088L238.616 358.552z"
         style="fill:#b77200;" />
      <path
         id="path83"
         d="M235.592 305.992C239.624 308.224 240.848 313.912 238.184 318.592C235.592 323.2 230.12 325.144 226.016 322.84C221.984 320.536 220.76 314.92 223.424 310.24C226.016 305.56 231.488 303.688 235.592 305.992z"
         style="fill:#b77200;" />
      <path
         id="path82"
         d="M374.912 680.536C378.296 683.128 373.256 687.376 371.024 686.296C369.152 685.648 367.784 683.488 366.92 682.408C366.128 681.184 366.2 679.168 366.92 678.448C367.712 677.44 369.728 677.656 371.024 678.52C372.32 679.168 373.616 679.888 374.912 680.536z"
         style="fill:#b77200;" />
      <path
         id="path81"
         d="M297.44 551.512C338.984 572.896 350 611.56 332.072 664.192C330.992 666.64 334.16 668.368 335.24 666.064C354.824 610.336 341.432 571.312 299.024 548.56C296.864 547.552 295.28 550.432 297.44 551.512z"
         style="fill:#b77200;" />
      <path
         id="path80"
         d="M72.008 569.512C38.312 627.256 38.096 662.68 62.504 681.328C63.728 682.264 64.448 680.032 63.296 679.168C36.296 655.48 48.896 615.52 74.168 570.88C74.888 569.584 72.512 568.432 72.008 569.512z"
         style="fill:#b77200;" />
      <path
         id="path79"
         d="M289.376 586.864C289.232 589.168 288.368 589.528 286.424 587.368C279.8 575.848 235.088 551.44 213.344 548.704C209.24 547.264 209.456 545.392 213.488 544.816C229.184 544.816 241.28 537.904 254.96 537.904C258.704 538.048 262.304 539.488 264.392 541.648C269.504 544.96 288.08 570.592 289.376 586.864z"
         style="fill:#c1c1bf;" />
      <path
         id="path78"
         d="M180.152 546.832C180.872 550.792 163.808 545.68 164.744 556.696C165.032 559.72 160.496 561.376 160.64 556.696C160.64 548.272 161.072 548.416 152.72 546.832C151.208 546.76 151.352 544.528 152.72 544.816L152.72 544.816C158.696 546.472 166.76 542.872 166.4 538.84C166.256 537.472 168.56 537.688 168.488 538.84C167.984 545.248 181.664 542.152 180.152 546.832z"
         style="fill:#c1c1bf;" />
      <path
         id="path77"
         d="M151.568 705.376C151.64 708.328 148.76 707.68 148.544 705.592C140.192 680.536 143.72 618.832 151.856 598.96C152.432 596.08 156.248 596.944 155.744 598.96C147.104 635.464 147.248 673.048 151.568 705.376z"
         style="fill:#c1c1bf;" />
      <path
         id="path76"
         d="M51.704 684.424C75.68 707.824 91.376 743.248 114.632 775.288C148.472 816.04 121.472 858.304 66.464 845.56C38.888 835.192 -0.784 836.344 -32.68 825.832C-55.072 820.36 -55.864 809.272 -44.416 787.6C-40.384 773.776 -40.024 751.312 -43.768 732.592C-45.784 718.408 -39.232 710.488 -24.112 708.832L-24.112 708.832C-11.296 708.688 6.56 713.872 16.28 686.44C23.552 673.336 40.976 672.976 51.704 684.424z"
         style="fill:#b77200;" />
      <path
         id="path75"
         d="M24.632 699.04C23.84 680.968 39.32 677.296 49.688 688.312C68.192 710.992 85.112 736.048 100.376 764.992C124.712 804.16 104.624 842.68 67.904 828.064C49.688 817.84 6.128 813.304 -17.344 809.128C-33.04 807.832 -35.128 797.608 -29.152 791.848C-20.944 782.416 -20.08 759.808 -27.856 740.512C-35.56 728.56 -21.088 715.384 -9.712 720.856C0.8 727.048 25.64 713.08 24.632 699.04z"
         style="fill:#f2b700;" />
    </g>
  </g>
</svg>
