<?xml version="1.0" encoding="UTF-8" standalone="no"?>
<!-- Created with Inkscape (http://www.inkscape.org/) -->

<svg
   xmlns:dc="http://purl.org/dc/elements/1.1/"
   xmlns:cc="http://creativecommons.org/ns#"
   xmlns:rdf="http://www.w3.org/1999/02/22-rdf-syntax-ns#"
   xmlns:svg="http://www.w3.org/2000/svg"
   xmlns="http://www.w3.org/2000/svg"
   xmlns:xlink="http://www.w3.org/1999/xlink"
   xmlns:sodipodi="http://sodipodi.sourceforge.net/DTD/sodipodi-0.dtd"
   xmlns:inkscape="http://www.inkscape.org/namespaces/inkscape"
   sodipodi:docname="01-title.svg"
   height="480.00000pt"
   width="640.00000pt"
   inkscape:version="0.92.0 r15304"
   sodipodi:version="0.32"
   id="svg1"
   version="1.1">
  <defs
     id="defs3">
    <linearGradient
       id="linearGradient1222">
      <stop
         id="stop1223"
         offset="0.0000000"
         style="stop-color:#0081ac;stop-opacity:1.0000000;" />
      <stop
         id="stop1722"
         offset="0.29347107"
         style="stop-color:#006d91;stop-opacity:0.62745100;" />
      <stop
         id="stop1224"
         offset="1.0000000"
         style="stop-color:#ffffff;stop-opacity:0.0000000;" />
    </linearGradient>
    <linearGradient
       id="linearGradient1309"
       xlink:href="#linearGradient1222" />
    <linearGradient
       id="linearGradient1673">
      <stop
         id="stop1674"
         offset="0"
         style="stop-color:#000;stop-opacity:1;" />
      <stop
         id="stop1675"
         offset="1"
         style="stop-color:#fff;stop-opacity:1;" />
    </linearGradient>
    <linearGradient
       y2="-1232.1123"
       x2="156.42584"
       y1="-1598.649"
       x1="156.42584"
       id="linearGradient1677"
       xlink:href="#linearGradient1222"
       inkscape:collect="always"
       gradientTransform="scale(2.6984769,0.42163702)"
       gradientUnits="userSpaceOnUse" />
    <linearGradient
       inkscape:collect="always"
       xlink:href="#linearGradient1222"
       id="linearGradient36403"
       x1="156.42584"
       y1="-75.006101"
       x2="156.42584"
       y2="291.53062"
       gradientTransform="scale(2.6984769,0.42163702)"
       gradientUnits="userSpaceOnUse" />
  </defs>
  <sodipodi:namedview
     inkscape:current-layer="svg1"
     inkscape:window-y="136"
     inkscape:window-x="211"
     inkscape:window-height="664"
     inkscape:window-width="919"
     inkscape:cy="290.64195"
     inkscape:cx="320"
     inkscape:zoom="0.75625"
     inkscape:pageshadow="2"
     inkscape:pageopacity="1.0"
     borderopacity="1.0"
     bordercolor="#666666"
     pagecolor="#ffffff"
     id="base"
     showgrid="false"
     inkscape:window-maximized="0" />
  <metadata
     id="metadata4">
    <rdf:RDF>
      <cc:Work
         rdf:about="">
        <dc:format>image/svg+xml</dc:format>
        <dc:type
           rdf:resource="http://purl.org/dc/dcmitype/StillImage" />
      </cc:Work>
    </rdf:RDF>
  </metadata>
  <rect
     y="-13.44353"
     x="0"
     height="133.33333"
     width="853.33331"
     id="rect1051"
     style="fill:url(#linearGradient36403);fill-opacity:0.75;fill-rule:evenodd;stroke:none;stroke-width:3.20000017pt;stroke-linecap:butt;stroke-linejoin:miter;stroke-opacity:1" />
  <g
     transform="matrix(1.181942,0,0,1.181942,-55.565675,-17.531861)"
     id="g1046">
    <path
       id="path1178"
       d="m 558.93008,130.90881 v 34.77604 h -9.45312 v -9.28124 c -2.17713,3.70486 -4.88893,6.43576 -8.13542,8.19271 -3.20837,1.79514 -7.16149,2.6927 -11.85937,2.6927 -5.88197,0 -10.57988,-1.77604 -14.09375,-5.32812 -3.47571,-3.47568 -5.21355,-8.1545 -5.21355,-14.03646 0,-6.83678 2.17708,-11.99303 6.53125,-15.46875 4.31596,-3.51386 10.78991,-5.27079 19.42188,-5.27084 h 13.34896 v -0.97395 c -5e-5,-4.58329 -1.43234,-8.15446 -4.29687,-10.71355 -2.90282,-2.48258 -6.95143,-3.7239 -12.14584,-3.72395 -3.28475,5e-5 -6.49308,0.4011 -9.625,1.20312 -3.13196,0.84033 -6.13022,2.10075 -8.9948,3.78125 v -9.28125 c 3.47568,-1.41313 6.83679,-2.48257 10.08334,-3.20833 3.24651,-0.68744 6.43574,-1.03119 9.5677,-1.03125 8.32636,6e-5 14.55205,2.29173 18.67709,6.875 4.12495,4.58339 6.18745,11.51567 6.1875,20.79687"
       style="font-style:normal;font-variant:normal;font-weight:normal;font-stretch:normal;font-size:110px;font-family:Arial;writing-mode:lr-tb;text-anchor:start;fill:#000000;fill-opacity:1;stroke:none;stroke-width:3.20000017pt;stroke-linecap:butt;stroke-linejoin:miter;stroke-opacity:1"
       inkscape:connector-curvature="0" />
    <path
       id="text1044"
       d="m 674.48544,132.68485 v 4.92709 h -43.59897 c 0.38194,6.87503 2.34895,12.12675 5.90105,15.75521 3.51387,3.59029 8.42185,5.38543 14.72396,5.38542 3.62843,1e-5 7.14231,-0.45833 10.54166,-1.375 3.43745,-0.95486 6.83676,-2.36804 10.19792,-4.23959 v 9.45312 c -3.39936,1.52779 -6.87505,2.69272 -10.42708,3.4948 -3.59033,0.80208 -7.21879,1.20312 -10.88542,1.20312 -9.24308,0 -16.53821,-2.84548 -21.88542,-8.53645 -5.38542,-5.65277 -8.07812,-13.31075 -8.07812,-22.97397 0,-9.9687 2.55902,-17.89405 7.67709,-23.77603 5.07984,-5.8437 11.95483,-8.76557 20.62499,-8.76563 7.75344,6e-5 13.90273,2.63548 18.44791,7.90625 4.50689,5.30908 6.76037,12.48963 6.76043,21.54166"
       style="font-style:normal;font-variant:normal;font-weight:normal;font-stretch:normal;font-size:110px;font-family:Arial;writing-mode:lr-tb;text-anchor:start;fill:#000000;fill-opacity:1;stroke:none;stroke-width:3.20000017pt;stroke-linecap:butt;stroke-linejoin:miter;stroke-opacity:1"
       inkscape:connector-curvature="0" />
    <path
       id="path1182"
       d="m 664.97502,129.76299 c -0.0382,-5.46177 -1.48963,-9.83503 -4.35417,-13.1198 -2.82643,-3.24648 -6.56948,-4.86974 -11.22917,-4.86979 -5.30905,5e-5 -9.54863,1.56602 -12.71874,4.69792 -3.17016,3.17018 -5.00349,7.61983 -5.5,13.34896 l 33.80208,-0.0573"
       style="font-style:normal;font-variant:normal;font-weight:normal;font-stretch:normal;font-size:110px;font-family:Arial;writing-mode:lr-tb;text-anchor:start;fill:#ffffff;fill-opacity:1;stroke:none;stroke-width:3.20000017pt;stroke-linecap:butt;stroke-linejoin:miter;stroke-opacity:1"
       inkscape:connector-curvature="0" />
    <path
       id="path1181"
       d="m 573.77892,156.51819 v 32.36979 h -9.51042 v -84.16146 h 9.51042 v 9.28126 c 1.98609,-3.66662 4.50693,-6.35932 7.5625,-8.07813 3.05553,-1.79508 6.684,-2.69265 10.88542,-2.69271 7.02773,6e-5 12.7378,2.94103 17.13021,8.82292 4.39229,5.88199 6.58848,13.61635 6.58854,23.20313 -6e-5,9.58682 -2.19625,17.32118 -6.58854,23.20312 -4.39241,5.88194 -10.10248,8.82291 -17.13021,8.82291 -4.20142,0 -7.82989,-0.89756 -10.88542,-2.6927 -3.05557,-1.75695 -5.57641,-4.44965 -7.5625,-8.07813"
       style="font-style:normal;font-variant:normal;font-weight:normal;font-stretch:normal;font-size:110px;font-family:Arial;writing-mode:lr-tb;text-anchor:start;fill:#000000;fill-opacity:1;stroke:none;stroke-width:3.20000017pt;stroke-linecap:butt;stroke-linejoin:miter;stroke-opacity:1"
       inkscape:connector-curvature="0" />
    <path
       id="path1179"
       d="m 540.02383,135.03381 c -7.67711,4e-5 -12.98613,0.9358 -15.92708,2.8073 -2.97918,1.83335 -4.46877,4.98439 -4.46875,9.45312 -2e-5,3.5521 1.12672,6.37848 3.3802,8.47917 2.17707,2.0625 5.17533,3.09376 8.9948,3.09375 5.2708,1e-5 9.49128,-1.96701 12.66146,-5.90104 3.20829,-3.93401 4.81245,-9.16664 4.8125,-15.69792 v -2.23438 h -9.45313"
       style="font-style:normal;font-variant:normal;font-weight:normal;font-stretch:normal;font-size:110px;font-family:Arial;writing-mode:lr-tb;text-anchor:start;fill:#ffffff;fill-opacity:1;stroke:none;stroke-width:3.20000017pt;stroke-linecap:butt;stroke-linejoin:miter;stroke-opacity:1"
       inkscape:connector-curvature="0" />
    <path
       id="path1177"
       d="m 505.01959,107.07548 v 9.33855 c -2.67366,-1.56592 -5.36636,-2.74996 -8.07813,-3.55209 -2.67364,-0.72564 -5.38545,-1.08849 -8.13541,-1.08854 -6.18753,5e-5 -10.98093,2.04345 -14.3802,6.13021 -3.39933,4.12504 -5.09898,9.91149 -5.09897,17.35938 -1e-5,7.44793 1.69964,13.23439 5.09897,17.35937 3.39927,4.08681 8.19267,6.13022 14.3802,6.13021 2.74996,1e-5 5.46177,-0.38195 8.13541,-1.14584 2.71177,-0.80207 5.40447,-1.96701 8.07813,-3.49479 v 9.22395 c -2.63546,1.29862 -5.36636,2.27258 -8.19271,2.92188 -2.86462,0.6875 -5.88197,1.03125 -9.05209,1.03125 -8.70835,0 -15.62153,-2.90277 -20.73958,-8.70833 -5.11806,-5.76735 -7.67708,-13.53991 -7.67708,-23.3177 0,-9.93052 2.59722,-17.74128 7.79167,-23.4323 5.11804,-5.72911 12.184,-8.59369 21.19791,-8.59375 2.94094,6e-5 5.80553,0.30562 8.59375,0.91667 2.78815,0.68756 5.48087,1.66152 8.07813,2.92187"
       style="font-style:normal;font-variant:normal;font-weight:normal;font-stretch:normal;font-size:110px;font-family:Arial;writing-mode:lr-tb;text-anchor:start;fill:#000000;fill-opacity:1;stroke:none;stroke-width:3.20000017pt;stroke-linecap:butt;stroke-linejoin:miter;stroke-opacity:1"
       inkscape:connector-curvature="0" />
    <path
       id="path1176"
       d="m 451.41809,106.50257 v 9.51041 c -2.67365,-1.45134 -5.46184,-2.53988 -8.36459,-3.26562 -2.86461,-0.72564 -5.86288,-1.08849 -8.99479,-1.08854 -4.69794,5e-5 -8.23092,0.76393 -10.59896,2.29167 -2.32987,1.48963 -3.4948,3.76219 -3.49479,6.8177 -1e-5,2.3299 0.84027,4.16323 2.52083,5.5 1.68055,1.29865 5.06075,2.55906 10.14063,3.78125 l 3.26562,0.74479 c 6.72219,1.52782 11.51559,3.6858 14.38022,6.47396 2.82633,2.75003 4.23953,6.60766 4.23958,11.57292 -5e-5,5.69098 -2.13893,10.17883 -6.41667,13.46354 -4.20142,3.32291 -10.02607,4.98437 -17.47395,4.98437 -3.09377,0 -6.30211,-0.32465 -9.62501,-0.97396 -3.36112,-0.6493 -6.9132,-1.60416 -10.65624,-2.86457 v -10.31251 c 3.51388,1.90973 6.97047,3.34202 10.36978,4.29688 3.3993,0.95487 6.7795,1.4323 10.14063,1.43229 4.46872,1e-5 7.90622,-0.82118 10.3125,-2.46354 2.40621,-1.56597 3.60933,-3.81944 3.60938,-6.76042 -5e-5,-2.74998 -0.87851,-4.85068 -2.63542,-6.30208 -1.71879,-1.45137 -5.51913,-2.84546 -11.40104,-4.18229 l -3.32293,-0.80208 c -5.88195,-1.2986 -10.12153,-3.2847 -12.71874,-5.95834 -2.59723,-2.74996 -3.89584,-6.47392 -3.89584,-11.17187 0,-5.72912 1.90972,-10.15967 5.72918,-13.29167 3.85762,-3.13189 9.33851,-4.69786 16.44271,-4.69792 3.47565,6e-5 6.77947,0.28652 9.91145,0.85937 3.05551,0.53479 5.90099,1.33687 8.53646,2.40626"
       style="font-style:normal;font-variant:normal;font-weight:normal;font-stretch:normal;font-size:110px;font-family:Arial;writing-mode:lr-tb;text-anchor:start;fill:#000000;fill-opacity:1;stroke:none;stroke-width:3.20000017pt;stroke-linecap:butt;stroke-linejoin:miter;stroke-opacity:1"
       inkscape:connector-curvature="0" />
    <path
       id="path1175"
       d="m 357.09425,81.007774 h 9.51042 V 131.0234 l 28.30208,-26.29688 h 12.14584 l -30.65104,28.53125 31.91145,32.42708 h -12.37499 l -29.33334,-29.79166 v 29.79166 h -9.51042 V 81.007774"
       style="font-style:normal;font-variant:normal;font-weight:normal;font-stretch:normal;font-size:110px;font-family:Arial;writing-mode:lr-tb;text-anchor:start;fill:#000000;fill-opacity:1;stroke:none;stroke-width:3.20000017pt;stroke-linecap:butt;stroke-linejoin:miter;stroke-opacity:1"
       inkscape:connector-curvature="0" />
    <path
       id="path1174"
       d="m 352.48382,128.90361 v 36.78124 h -9.45312 v -36.43749 c -4e-5,-5.80551 -1.06949,-10.14058 -3.20833,-13.00522 -2.13894,-2.86452 -5.32817,-4.29682 -9.56771,-4.29687 -5.11808,5e-5 -9.16669,1.7379 -12.14584,5.21355 -2.94099,3.43754 -4.41148,8.13545 -4.41145,14.09375 v 34.43228 h -9.56772 v -60.95833 h 9.56772 v 9.45313 c 2.25345,-3.66662 4.92706,-6.39752 8.02083,-8.19271 3.05553,-1.83327 6.58851,-2.74994 10.59895,-2.75 6.64579,6e-5 11.66836,2.15805 15.06771,6.47396 3.39926,4.35422 5.09891,10.75178 5.09896,19.19271"
       style="font-style:normal;font-variant:normal;font-weight:normal;font-stretch:normal;font-size:110px;font-family:Arial;writing-mode:lr-tb;text-anchor:start;fill:#000000;fill-opacity:1;stroke:none;stroke-width:3.20000017pt;stroke-linecap:butt;stroke-linejoin:miter;stroke-opacity:1"
       inkscape:connector-curvature="0" />
    <path
       id="path1173"
       d="m 288.58778,84.445274 h 10.36979 V 165.68485 H 288.58778 V 84.445274"
       style="font-style:normal;font-variant:normal;font-weight:normal;font-stretch:normal;font-size:110px;font-family:Arial;writing-mode:lr-tb;text-anchor:start;fill:#000000;fill-opacity:1;stroke:none;stroke-width:3.20000017pt;stroke-linecap:butt;stroke-linejoin:miter;stroke-opacity:1"
       inkscape:connector-curvature="0" />
    <path
       id="path1180"
       d="m 606.09141,135.26299 c -4e-5,-7.3715 -1.45143,-13.15796 -4.35416,-17.35938 -2.86462,-4.16314 -6.79865,-6.24474 -11.80208,-6.24479 -5.0035,5e-5 -8.93753,2.08165 -11.80208,6.24479 -2.9028,4.20142 -4.35419,9.98788 -4.35417,17.35938 -2e-5,7.37154 1.45137,13.15799 4.35417,17.35937 2.86455,4.1632 6.79858,6.2448 11.80208,6.24479 5.00343,1e-5 8.93746,-2.08159 11.80208,-6.24479 2.90273,-4.20138 4.35412,-9.98783 4.35416,-17.35937"
       style="font-style:normal;font-variant:normal;font-weight:normal;font-stretch:normal;font-size:110px;font-family:Arial;writing-mode:lr-tb;text-anchor:start;fill:#ffffff;fill-opacity:1;stroke:none;stroke-width:3.20000017pt;stroke-linecap:butt;stroke-linejoin:miter;stroke-opacity:1"
       inkscape:connector-curvature="0" />
    <path
       id="text1805"
       d="m 555.78388,178.58359 c -10e-6,-1.31943 -0.25348,-2.34374 -0.76041,-3.07291 -0.52085,-0.72221 -1.24654,-1.08333 -2.17709,-1.08334 -0.92362,1e-5 -1.64237,0.36113 -2.15625,1.08334 -0.52084,0.72917 -0.78126,1.75348 -0.78124,3.07291 -2e-5,1.31251 0.2604,2.32987 0.78124,3.05209 0.51388,0.72916 1.23263,1.09375 2.15625,1.09375 0.93055,0 1.65624,-0.36459 2.17709,-1.09375 0.50693,-0.72222 0.7604,-1.73958 0.76041,-3.05209 m 1.72917,4.29167 c -2e-5,1.88889 -0.39584,3.29166 -1.1875,4.20833 -0.79863,0.92361 -2.0139,1.38541 -3.64584,1.38542 -0.61111,-1e-5 -1.18403,-0.0486 -1.71875,-0.14583 -0.54166,-0.0972 -1.0625,-0.24306 -1.5625,-0.43751 v -1.77082 c 0.5,0.28471 1,0.49652 1.5,0.63541 0.49306,0.13888 0.99305,0.20833 1.5,0.20833 1.13194,0 1.97916,-0.30902 2.54167,-0.92708 0.56249,-0.625 0.84374,-1.56944 0.84375,-2.83333 v -0.89583 c -0.35417,0.65278 -0.80903,1.13889 -1.36458,1.45832 -0.55557,0.32639 -1.22223,0.48959 -2,0.48959 -1.28473,0 -2.31945,-0.51736 -3.10417,-1.55208 -0.79166,-1.03472 -1.1875,-2.40624 -1.1875,-4.11459 0,-1.71527 0.39584,-3.09027 1.1875,-4.125 0.78472,-1.04165 1.81944,-1.56248 3.10417,-1.56249 0.77777,1e-5 1.44443,0.1632 2,0.48957 0.55555,0.31946 1.01041,0.80905 1.36458,1.46876 v -1.68751 h 1.72917 v 9.70834 m -18.11459,-8.01042 c -0.19445,-0.11805 -0.40626,-0.20137 -0.63541,-0.24999 -0.22917,-0.0625 -0.48264,-0.0938 -0.76042,-0.0938 -0.97223,0 -1.71876,0.33333 -2.23958,1 -0.52084,0.67361 -0.78126,1.63889 -0.78126,2.89583 v 5.83333 h -1.73957 v -11.08334 h 1.73957 v 1.71875 c 0.36111,-0.6736 0.83334,-1.1736 1.41667,-1.5 0.57639,-0.32637 1.28125,-0.48956 2.11459,-0.48957 0.11804,1e-5 0.24999,0.0107 0.39584,0.0312 0.13888,0.0139 0.2986,0.0382 0.47915,0.073 l 0.0107,1.86459 m -20.09375,-0.41667 c -0.92362,1e-5 -1.65626,0.37848 -2.19792,1.13542 -0.53472,0.76389 -0.80208,1.80903 -0.80208,3.13541 0,1.3264 0.26388,2.37153 0.79167,3.13542 0.54166,0.75694 1.27777,1.13542 2.20833,1.13542 0.91666,0 1.64582,-0.38194 2.1875,-1.14584 0.53471,-0.76388 0.80208,-1.80554 0.80208,-3.125 0,-1.31249 -0.26737,-2.35069 -0.80208,-3.11458 -0.54168,-0.77083 -1.27084,-1.15624 -2.1875,-1.15625 m 0,-1.55208 c 1.49999,1e-5 2.67708,0.51736 3.53125,1.55208 0.8611,1.02779 1.29165,2.4514 1.29166,4.27083 -10e-6,1.8125 -0.43056,3.23264 -1.29166,4.26042 -0.85417,1.04167 -2.03126,1.5625 -3.53125,1.5625 -1.50695,0 -2.68403,-0.52083 -3.53125,-1.5625 -0.86111,-1.02778 -1.29167,-2.44792 -1.29167,-4.26042 0,-1.81943 0.43056,-3.24304 1.29167,-4.27083 0.84722,-1.03472 2.0243,-1.55207 3.53125,-1.55208 m -15.76042,8.84374 h 1.97917 v 2.51042 h -1.97917 v -2.51042 m -8.5625,-3.48958 v 0.89583 h -7.92709 c 0.0694,1.25001 0.42709,2.20487 1.07292,2.86459 0.63889,0.65278 1.53126,0.97917 2.67709,0.97917 0.65971,0 1.2986,-0.0833 1.91666,-0.25001 0.62499,-0.17361 1.24305,-0.43055 1.85418,-0.77082 v 1.71875 c -0.61807,0.27777 -1.25002,0.48958 -1.89584,0.63541 -0.65278,0.14584 -1.3125,0.21875 -1.97917,0.21875 -1.68056,0 -3.00694,-0.51736 -3.97917,-1.55208 -0.97917,-1.02778 -1.46875,-2.42014 -1.46875,-4.17709 0,-1.81249 0.46528,-3.25346 1.39583,-4.32291 0.92362,-1.0625 2.17361,-1.59374 3.75001,-1.59375 1.40972,1e-5 2.52776,0.47918 3.35416,1.43749 0.81944,0.96529 1.22916,2.27085 1.22917,3.91667 M 493.2529,177.719 c -0.007,-0.99304 -0.27083,-1.78818 -0.79166,-2.38542 -0.51389,-0.59026 -1.19445,-0.8854 -2.04167,-0.88541 -0.96528,1e-5 -1.73612,0.28473 -2.3125,0.85417 -0.57639,0.57639 -0.90972,1.38542 -1,2.42708 l 6.14583,-0.0107 m -24.44791,4.86458 v 5.88542 h -1.72916 v -15.30209 h 1.72916 v 1.68751 c 0.36111,-0.66667 0.81943,-1.15625 1.375,-1.46876 0.55555,-0.32638 1.21527,-0.48957 1.97917,-0.48958 1.27777,1e-5 2.31596,0.53473 3.11458,1.60416 0.7986,1.06946 1.19791,2.4757 1.19792,4.21876 -10e-6,1.74306 -0.39932,3.14931 -1.19792,4.21875 -0.79862,1.06944 -1.83681,1.60417 -3.11458,1.60417 -0.7639,0 -1.42362,-0.1632 -1.97917,-0.48959 -0.55557,-0.31945 -1.01389,-0.80903 -1.375,-1.46875 m 5.875,-3.86458 c -10e-6,-1.34027 -0.2639,-2.39236 -0.79167,-3.15625 -0.52083,-0.75694 -1.23612,-1.13541 -2.14583,-1.13542 -0.90972,1e-5 -1.62501,0.37848 -2.14583,1.13542 -0.52779,0.76389 -0.79167,1.81598 -0.79167,3.15625 0,1.34028 0.26388,2.39236 0.79167,3.15625 0.52082,0.75694 1.23611,1.13541 2.14583,1.13541 0.90971,0 1.625,-0.37847 2.14583,-1.13541 0.52777,-0.76389 0.79166,-1.81597 0.79167,-3.15625 m -20.33334,-0.0417 c -1.39584,0 -2.36111,0.17014 -2.89583,0.51042 -0.54167,0.33333 -0.8125,0.90625 -0.8125,1.71874 0,0.64584 0.20486,1.15973 0.61458,1.54168 0.39583,0.37499 0.94098,0.56249 1.63542,0.56249 0.95833,0 1.72569,-0.35764 2.30209,-1.07292 0.58332,-0.71527 0.87499,-1.66666 0.875,-2.85416 v -0.40625 h -1.71876 m 3.43751,-0.75001 v 6.32293 h -1.71875 v -1.6875 c -0.39584,0.67361 -0.8889,1.17013 -1.47917,1.48958 -0.58334,0.32639 -1.30209,0.48959 -2.15625,0.48959 -1.06945,0 -1.92361,-0.32293 -2.5625,-0.96876 -0.63195,-0.63194 -0.94792,-1.48264 -0.94792,-2.55208 0,-1.24306 0.39583,-2.18055 1.1875,-2.8125 0.78473,-0.63889 1.9618,-0.95832 3.53125,-0.95833 h 2.42709 v -0.17709 c -10e-6,-0.83332 -0.26043,-1.48263 -0.78125,-1.94792 -0.52779,-0.45138 -1.2639,-0.67706 -2.20833,-0.67707 -0.59723,1e-5 -1.18057,0.073 -1.75001,0.21874 -0.56945,0.15279 -1.11458,0.38196 -1.63541,0.68751 v -1.68751 c 0.63193,-0.25693 1.24305,-0.45137 1.83333,-0.58333 0.59027,-0.12499 1.17014,-0.18749 1.73959,-0.1875 1.51387,1e-5 2.64582,0.41667 3.39583,1.25 0.74999,0.83334 1.12499,2.09376 1.125,3.78124 m -17.89584,-4.33333 v 1.69792 c -0.48611,-0.28471 -0.9757,-0.49999 -1.46875,-0.64583 -0.48611,-0.13194 -0.97917,-0.1979 -1.47917,-0.19791 -1.125,1e-5 -1.99653,0.37153 -2.61458,1.11458 -0.61806,0.75 -0.92708,1.80209 -0.92708,3.15624 0,1.35418 0.30902,2.40625 0.92708,3.15626 0.61805,0.74305 1.48958,1.11458 2.61458,1.11458 0.5,0 0.99306,-0.0694 1.47917,-0.20833 0.49305,-0.14584 0.98264,-0.35764 1.46875,-0.63542 v 1.67708 c -0.47917,0.23611 -0.9757,0.4132 -1.48958,0.53126 -0.52084,0.12499 -1.06945,0.1875 -1.64584,0.1875 -1.58333,0 -2.84027,-0.52778 -3.77083,-1.58334 -0.93055,-1.04861 -1.39583,-2.46181 -1.39583,-4.23959 0,-1.80554 0.47222,-3.22568 1.41667,-4.26041 0.93055,-1.04166 2.21526,-1.56249 3.85417,-1.5625 0.5347,1e-5 1.05554,0.0556 1.56249,0.16667 0.50693,0.12501 0.99652,0.30209 1.46875,0.53124 m -17.38541,-0.10421 v 1.72916 c -0.48612,-0.26387 -0.99307,-0.46179 -1.52084,-0.59375 -0.52083,-0.13194 -1.06598,-0.19791 -1.63542,-0.19792 -0.85416,1e-5 -1.49653,0.1389 -1.92708,0.41667 -0.42361,0.27084 -0.63541,0.68403 -0.63541,1.23959 0,0.42361 0.15277,0.75695 0.45833,1 0.30555,0.23611 0.92013,0.46528 1.84375,0.68749 l 0.59375,0.13542 c 1.22222,0.27779 2.09374,0.67014 2.61458,1.17709 0.51389,0.5 0.77083,1.20138 0.77084,2.10417 -10e-6,1.03472 -0.3889,1.85068 -1.16667,2.44791 -0.76389,0.60416 -1.82292,0.90625 -3.17709,0.90625 -0.56249,0 -1.14583,-0.059 -1.74999,-0.17709 -0.61112,-0.11805 -1.25695,-0.29167 -1.93751,-0.52083 v -1.875 c 0.63889,0.34723 1.26736,0.60764 1.88542,0.78125 0.61805,0.17361 1.23264,0.26042 1.84376,0.26042 0.81249,0 1.43749,-0.1493 1.87499,-0.44792 0.4375,-0.28472 0.65625,-0.69444 0.65625,-1.22917 0,-0.49999 -0.15972,-0.88194 -0.47917,-1.14582 -0.3125,-0.2639 -1.00348,-0.51737 -2.07291,-0.76043 l -0.60417,-0.14582 c -1.06945,-0.23611 -1.84027,-0.59722 -2.3125,-1.08334 -0.47222,-0.49999 -0.70833,-1.17708 -0.70833,-2.03126 0,-1.04165 0.34722,-1.84721 1.04167,-2.41666 0.70138,-0.56943 1.6979,-0.85415 2.98957,-0.85416 0.63195,10e-6 1.23264,0.052 1.80209,0.15624 0.55555,0.0973 1.07291,0.24307 1.55209,0.43751 m -25.90625,-4.63542 h 1.72916 v 9.09375 l 5.14584,-4.78126 h 2.20833 l -5.57292,5.18751 5.80209,5.89583 h -2.25 l -5.33334,-5.41667 v 5.41667 h -1.72916 v -15.39583 m -9.39584,8.70833 v 6.6875 h -1.71875 v -6.625 c 0,-1.05554 -0.19445,-1.84374 -0.58333,-2.36459 -0.3889,-0.52082 -0.96876,-0.78123 -1.73958,-0.78124 -0.93056,1e-5 -1.66667,0.31598 -2.20834,0.94791 -0.53473,0.62501 -0.80209,1.47918 -0.80209,2.56251 v 6.26041 h -1.73957 v -11.08334 h 1.73957 v 1.71876 c 0.40973,-0.66666 0.89583,-1.16318 1.45834,-1.48958 0.55555,-0.33333 1.19791,-0.49999 1.92708,-0.5 1.20833,10e-6 2.12153,0.39237 2.73959,1.17707 0.61804,0.79168 0.92707,1.95487 0.92708,3.48959 m -19.77083,-4.39584 h 1.71874 v 11.08334 h -1.71874 v -11.08334 m 0,-2.01041 c 0,-1.53471 0,-2.30207 0,-2.30208 h 1.71874 v 2.30208 h -1.71874 m -11.38542,10.58333 h 1.97917 v 2.51042 h -1.97917 v -2.51042 m -22.26041,-8.57292 h 1.71875 l 2.16667,8.64584 2.14582,-8.64584 h 2.03125 l 2.15626,8.64584 2.14582,-8.64584 h 1.72918 l -2.75001,11.08334 h -2.03124 l -2.26042,-9.08334 -2.27083,9.08334 h -2.03126 l -2.74999,-11.08334 m -22.29167,0 h 1.71875 l 2.16667,8.64584 2.14583,-8.64584 h 2.03124 l 2.15626,8.64584 2.14584,-8.64584 h 1.72916 l -2.75,11.08334 h -2.03125 l -2.26042,-9.08334 -2.27083,9.08334 h -2.03125 l -2.75,-11.08334 m -22.29167,0 h 1.71875 l 2.16667,8.64584 2.14583,-8.64584 h 2.03126 l 2.15624,8.64584 2.14584,-8.64584 h 1.72916 l -2.75,11.08334 h -2.03125 l -2.26042,-9.08334 -2.27083,9.08334 h -2.03125 l -2.75,-11.08334"
       style="font-style:normal;font-variant:normal;font-weight:normal;font-stretch:normal;font-size:20px;font-family:Arial;writing-mode:lr-tb;text-anchor:start;fill:#000000;fill-opacity:1;stroke:none;stroke-width:3.20000017pt;stroke-linecap:butt;stroke-linejoin:miter;stroke-opacity:1"
       inkscape:connector-curvature="0" />
    <g
       transform="matrix(0.297633,0,0,0.297633,90.437824,69.796139)"
       id="g839">
      <path
         id="whiteSpace"
         d="M 424.15263,341.60321 299.08477,301.35147 267.45842,133.15677 368.08773,31.089902 l 51.75223,18.6883 96.31662,94.879068 z"
         style="font-size:12px;fill:#ffffff;fill-rule:evenodd;stroke:#000000;stroke-width:0.99860582pt"
         inkscape:connector-curvature="0" />
      <path
         id="droplet01"
         d="m 508.75511,361.78313 c 20.07899,4.01534 24.09654,18.07139 20.07899,22.08676 -4.0143,4.0164 -14.05383,8.03177 -22.08569,2.00759 -8.03398,-6.02296 -8.03398,-20.07901 2.0067,-24.09435 z"
         style="font-size:12px;fill:#000000;fill-opacity:1;fill-rule:evenodd;stroke-width:1.06666669pt"
         inkscape:connector-curvature="0" />
      <path
         id="droplet02"
         d="m 305.5594,363.12442 c -1.95652,0.52182 -18.30175,-13.56349 -31.2457,-7.03503 -12.94067,6.52753 -21.62809,21.14438 -9.53849,27.14242 12.09075,5.99804 20.73341,-0.91856 31.33266,-8.36121 10.60043,-7.44151 10.21795,-8.87529 9.45153,-11.74618 z"
         style="font-size:12px;fill:#000000;fill-opacity:1;fill-rule:evenodd;stroke-width:1.06666669pt"
         inkscape:connector-curvature="0" />
      <path
         id="droplet03"
         d="m 544.3814,327.39046 c 10.91987,-2.73042 36.14482,0 32.12727,16.06164 -4.01423,16.06583 -38.14817,10.03939 -60.23805,2.0109 -2.00778,-16.06478 22.96391,-16.78649 28.11078,-18.07254 z"
         style="font-size:12px;fill:#000000;fill-opacity:1;fill-rule:evenodd;stroke-width:1.06666669pt"
         inkscape:connector-curvature="0" />
      <path
         id="mountainDroplet"
         d="m 383.18965,22.786706 c -12.06759,0 -24.11264,4.608595 -33.35972,13.855673 L 185.46546,200.97564 c -9.06336,9.06319 -13.61309,20.84637 -13.79326,32.67318 h -0.0624 c 0,0.0421 0.0604,0.0826 0.0624,0.12482 -0.002,0.1985 -0.0624,0.39442 -0.0624,0.59292 h 0.28086 c 3.14572,11.96855 84.42614,27.22489 93.49459,36.29313 13.69498,13.69512 -52.51569,23.75259 -38.82087,37.44777 13.695,13.69498 82.76292,26.49873 96.4592,40.19392 13.69502,13.695 -27.98773,28.2777 -14.29256,41.97271 13.69501,13.69517 59.6978,-3.42335 51.36584,32.29869 18.49418,18.49416 57.07971,9.66274 82.9156,-8.83143 13.695,-13.695 -26.27133,-12.4872 -12.57621,-26.18222 13.695,-13.69518 48.26379,-13.76905 77.39205,-46.52885 -11.72441,-18.23438 -50.11308,-25.9995 -36.41795,-39.69463 13.69499,-13.695 40.31988,-6.73914 97.76986,-32.82921 28.04473,-12.73686 25.72792,-22.41088 25.62052,-34.13988 -0.002,-0.24681 0,-0.46905 0,-0.71774 h -0.0624 c -0.18014,-11.82683 -4.76132,-23.60999 -13.82448,-32.67318 L 416.58057,36.642379 C 407.33349,27.395301 395.25724,22.786706 383.18965,22.786706 Z m -1.40428,21.376429 c 5.36478,0.139759 9.69773,4.229418 18.19336,9.736419 l 77.6417,57.575936 c 0.84993,0.55116 1.6594,1.12611 2.4029,1.71635 0.7435,0.59015 1.42264,1.21611 2.05962,1.84119 0.63702,0.62395 1.21605,1.2502 1.74757,1.90359 0.53041,0.65327 1.01168,1.3211 1.43549,1.99723 0.425,0.67722 0.80507,1.36513 1.12343,2.05961 0.31858,0.69575 0.56833,1.41336 0.78016,2.12204 0.21308,0.70764 0.39287,1.40688 0.49932,2.12204 0.10656,0.71642 0.15602,1.43483 0.15602,2.15324 l -45.99833,-22.21899 -4.58736,34.7328 -25.30846,-11.85847 -39.07048,26.08861 -14.9479,-51.55308 -19.25438,45.09334 -53.76876,5.36752 0.59293,-23.93536 c 0,-5.74904 30.99444,-45.996858 49.86793,-55.578721 l 34.54556,-24.809147 c 5.09731,-3.304206 8.6708,-4.64 11.88968,-4.556147 z M 310.32254,279.05422 c 24.47372,6.34701 51.70732,14.67419 73.55365,14.82308 l 0.93619,9.83004 c -18.70731,-1.9283 -58.29136,-10.96055 -67.62441,-15.72807 z"
         style="font-size:12px;fill:#000000;fill-opacity:1;fill-rule:evenodd;stroke-width:1.06666669pt"
         inkscape:connector-curvature="0" />
    </g>
  </g>
  <rect
     transform="scale(1,-1)"
     y="-655.8678"
     x="1.7654799e-07"
     height="133.33333"
     width="853.33331"
     id="rect1814"
     style="fill:url(#linearGradient1677);fill-opacity:0.75;fill-rule:evenodd;stroke:none;stroke-width:3.20000017pt;stroke-linecap:butt;stroke-linejoin:miter;stroke-opacity:1" />
  <text
     id="text1815"
     y="509.61182"
     x="426.72083"
     style="font-style:normal;font-variant:normal;font-weight:normal;font-stretch:normal;font-size:27.73333359px;line-height:120.00000477%;font-family:Arial;writing-mode:lr-tb;text-anchor:middle;fill:#000000;fill-opacity:1;stroke:none;stroke-width:3.20000017pt;stroke-linecap:butt;stroke-linejoin:miter;stroke-opacity:1"
     xml:space="preserve"><tspan
       id="tspan3"
       sodipodi:role="line"
       y="509.61182"
       x="426.72083"
       style="stroke-width:3.20000017pt">Bryce Harrington</tspan></text>
  <text
     id="text1113"
     y="365.45303"
     x="117.93331"
     style="font-style:normal;font-variant:normal;font-weight:normal;font-stretch:normal;font-size:59.73333359px;line-height:100%;font-family:Arial;writing-mode:lr-tb;text-anchor:start;fill:#000000;fill-opacity:1;stroke:none;stroke-width:3.20000017pt;stroke-linecap:butt;stroke-linejoin:miter;stroke-opacity:1"
     xml:space="preserve"><tspan
       id="tspan2"
       sodipodi:role="line"
       y="365.45303"
       x="117.93331"
       style="stroke-width:3.20000017pt">Application Architecture</tspan></text>
</svg>
